<svg xmlns="http://www.w3.org/2000/svg" xmlns:xlink="http://www.w3.org/1999/xlink" id="Layer_1" x="0" y="0" version="1.1" viewBox="0 0 512 512" xml:space="preserve" style="enable-background:new 0 0 512 512"><path style="fill:#3c66b1" d="M256,0c-38.961,0-85.921,14.775-85.921,14.775C70.956,50.084,0,144.756,0,256	c0,141.385,114.615,256,256,256s256-114.615,256-256S397.385,0,256,0z M256,462.352c-113.965,0-206.352-92.387-206.352-206.352	S142.035,49.648,256,49.648S462.352,142.035,462.352,256S369.965,462.352,256,462.352z"/><circle style="fill:#52a2e7" cx="256" cy="256" r="221.978"/><g><path style="opacity:.22;fill:#3c66b1;enable-background:new" d="M404.465,47.428 c29.859,41.873,47.427,93.116,47.427,148.464c0,141.385-114.615,256-256,256c-55.348,0-106.592-17.568-148.465-47.427 C93.842,469.555,169.963,512,256,512c141.385,0,256-114.615,256-256C512,169.963,469.555,93.842,404.465,47.428z"/><polygon style="fill:#3c66b1" points="213.706 178.212 213.706 141.108 372.298 250.017 213.706 358.925 213.706 246.997"/></g></svg>