<svg id="svg" version="1.1" xmlns="http://www.w3.org/2000/svg" xmlns:xlink="http://www.w3.org/1999/xlink" width="400" height="400" viewBox="0, 0, 400,400"><g id="svgg"><path id="path0" d="M1.326 0.500 C 0.159 2.315,0.000 3.182,0.001 7.746 L 0.002 12.600 1.204 13.400 C 3.436 14.886,4.068 17.700,3.271 22.600 C 3.021 24.140,2.809 26.750,2.802 28.400 C 2.794 30.050,2.509 32.480,2.169 33.800 C 0.623 39.803,0.624 39.794,1.581 43.723 C 2.656 48.136,3.878 50.599,4.669 49.943 C 5.057 49.621,5.200 49.623,5.200 49.951 C 5.200 50.198,5.560 50.040,6.000 49.600 C 6.440 49.160,6.800 48.701,6.800 48.581 C 6.800 47.359,10.742 45.189,13.151 45.084 C 17.964 44.875,19.053 47.119,17.613 54.285 C 17.181 56.438,16.685 59.460,16.512 61.000 C 16.213 63.651,16.145 63.794,15.230 63.693 C 13.930 63.548,9.323 60.634,7.658 58.903 C 5.137 56.284,2.706 56.606,2.195 59.628 C 2.049 60.494,1.778 61.110,1.593 60.996 C 1.408 60.882,1.195 61.196,1.119 61.694 C 1.035 62.245,0.750 62.549,0.391 62.469 C 0.055 62.395,0.282 62.843,0.915 63.507 C 2.720 65.398,2.687 70.881,0.858 72.942 C 0.267 73.609,0.192 75.850,0.120 94.978 L 0.039 116.272 1.320 116.911 C 7.448 119.967,7.709 120.013,21.200 120.441 C 39.485 121.021,84.340 121.232,94.800 120.788 C 99.970 120.569,108.520 120.202,113.800 119.974 C 122.166 119.612,124.161 119.648,129.317 120.252 C 134.648 120.878,135.659 120.890,139.517 120.373 C 145.115 119.624,149.868 119.664,155.937 120.511 C 159.888 121.062,163.881 121.201,175.937 121.205 C 184.222 121.208,194.960 121.401,199.800 121.634 C 204.640 121.867,221.830 122.114,238.000 122.184 C 271.220 122.325,273.789 122.492,285.528 125.259 C 293.578 127.156,297.652 128.882,305.600 133.759 C 308.570 135.582,312.440 137.867,314.200 138.837 C 319.923 141.990,325.382 148.612,330.412 158.502 C 331.559 160.756,333.565 164.345,334.871 166.478 C 337.898 171.422,338.523 173.254,339.988 181.475 C 343.998 203.969,343.219 211.768,335.638 225.000 C 334.126 227.640,331.898 231.780,330.688 234.200 C 321.987 251.605,301.558 266.280,277.600 272.336 L 273.400 273.398 247.000 273.430 C 186.550 273.506,91.631 274.088,73.000 274.498 C 62.000 274.740,47.060 274.952,39.800 274.969 C 10.584 275.038,3.970 276.011,5.894 279.958 C 7.358 282.961,11.171 284.383,15.200 283.428 C 28.423 280.294,33.499 292.435,22.235 300.255 C 18.956 302.532,19.196 303.312,24.301 306.966 C 28.317 309.840,27.720 311.339,19.800 318.276 C 7.702 328.872,6.797 334.142,15.385 344.000 C 18.982 348.129,19.384 349.072,18.950 352.363 C 17.381 364.270,22.255 371.639,33.814 374.837 C 50.728 379.516,65.399 368.940,63.207 353.648 C 62.510 348.787,62.990 347.918,70.913 339.677 C 74.571 335.872,76.417 335.479,78.576 338.044 C 79.872 339.585,80.102 350.890,78.959 356.856 C 78.495 359.277,78.391 361.215,78.581 363.877 C 78.944 368.943,76.699 371.987,66.643 380.064 C 58.575 386.543,60.711 388.094,77.800 388.164 C 84.996 388.193,87.217 388.064,89.987 387.456 C 92.837 386.830,94.265 386.757,99.000 386.993 L 104.627 387.274 108.305 385.837 C 112.623 384.150,112.411 384.168,115.437 385.226 C 121.384 387.307,124.065 387.667,135.200 387.883 L 145.800 388.089 149.356 386.980 L 152.912 385.871 157.330 386.979 C 161.667 388.067,161.892 388.082,169.574 387.807 C 182.424 387.347,189.064 387.435,193.800 388.128 C 201.019 389.186,233.057 389.358,239.200 388.373 C 246.560 387.192,249.745 387.058,254.217 387.741 C 266.326 389.590,287.577 388.991,295.887 386.567 L 300.915 385.100 305.158 386.531 C 312.098 388.873,316.162 389.098,346.600 388.828 C 354.543 388.758,353.827 386.306,344.805 382.686 C 339.547 380.576,338.445 379.705,334.620 374.633 C 332.781 372.195,330.528 369.222,329.613 368.026 C 325.741 362.966,322.562 349.527,324.396 345.972 C 326.476 341.941,330.117 341.783,334.029 345.553 C 336.371 347.811,336.536 349.040,335.153 353.968 C 332.687 362.754,337.572 370.245,348.061 373.766 C 366.656 380.008,385.052 368.223,381.000 352.665 C 379.781 347.986,380.890 346.066,386.863 342.514 C 394.567 337.931,395.691 333.457,392.518 320.000 C 391.749 316.740,391.315 314.270,390.793 310.200 C 388.885 295.317,387.369 291.734,382.638 290.924 C 380.713 290.594,379.492 290.095,378.090 289.066 C 375.776 287.368,374.392 286.965,373.137 287.626 C 371.486 288.495,365.195 294.466,363.288 296.974 C 355.424 307.316,351.777 309.239,350.242 303.855 C 349.583 301.542,349.060 300.675,346.930 298.353 C 341.759 292.719,346.237 285.359,355.776 283.815 C 359.522 283.209,361.241 282.458,362.282 280.975 C 364.951 277.174,366.190 275.924,368.809 274.395 C 372.236 272.393,373.737 270.454,374.826 266.624 C 375.267 265.071,375.902 262.851,376.237 261.692 C 376.572 260.532,377.635 258.431,378.599 257.023 C 381.158 253.286,381.900 251.643,382.427 248.559 C 382.687 247.042,383.626 243.910,384.514 241.600 C 386.644 236.059,387.011 229.960,385.620 223.182 C 384.789 219.129,384.780 218.849,385.403 215.982 C 386.270 211.994,386.771 208.260,386.787 205.671 C 386.794 204.500,387.268 201.530,387.841 199.071 C 389.162 193.398,388.608 181.497,386.582 172.000 C 385.993 169.241,385.994 168.657,386.595 164.737 C 387.121 161.306,387.166 159.862,386.826 157.337 C 386.594 155.612,386.409 150.960,386.415 147.000 C 386.426 139.782,386.125 136.164,385.021 130.200 C 384.695 128.440,384.421 125.470,384.413 123.600 C 384.387 117.456,382.757 115.877,378.442 117.814 C 373.689 119.946,371.606 118.822,371.602 114.121 C 371.600 111.293,371.792 111.011,375.863 107.851 C 385.185 100.618,388.250 85.635,381.074 82.377 C 378.818 81.353,377.810 81.404,373.706 82.748 C 368.275 84.527,351.036 85.211,345.321 83.874 C 341.686 83.023,340.023 83.026,337.293 83.886 C 334.660 84.716,334.311 84.431,333.570 80.847 C 332.928 77.741,332.080 75.700,327.966 67.357 C 323.361 58.021,322.431 52.339,324.612 46.886 C 327.260 40.269,336.224 43.291,335.374 50.512 C 334.586 57.205,334.863 60.738,336.402 63.600 C 343.813 77.383,364.842 79.919,375.786 68.349 C 380.475 63.392,381.027 61.170,380.358 49.946 L 380.200 47.293 382.891 43.346 C 387.856 36.064,388.055 32.729,384.218 21.105 C 382.190 14.964,382.963 12.774,388.074 10.173 C 390.042 9.171,393.551 6.288,393.640 5.600 C 393.740 4.823,393.752 2.945,393.667 1.287 L 393.600 -0.025 388.900 0.087 C 384.361 0.196,384.196 0.231,384.071 1.106 C 383.707 3.673,378.525 5.703,372.800 5.521 C 361.316 5.156,353.530 5.515,348.200 6.654 C 343.470 7.665,342.222 7.769,334.400 7.796 C 322.265 7.840,314.271 8.566,305.229 10.449 C 303.155 10.880,299.581 11.412,297.286 11.629 C 290.975 12.227,289.502 13.294,289.884 16.991 C 290.010 18.215,289.824 20.612,289.439 22.705 C 288.365 28.550,289.267 31.243,293.336 34.335 C 296.197 36.510,296.219 36.566,296.834 43.117 C 297.498 50.182,295.693 54.715,292.914 52.963 C 292.042 52.413,289.602 47.765,289.595 46.640 C 289.565 42.033,284.470 44.045,282.103 49.599 C 280.399 53.598,282.960 59.925,287.400 62.685 C 290.257 64.461,294.838 69.911,299.339 76.889 C 302.784 82.229,302.927 82.680,302.966 88.400 C 303.005 94.177,303.287 94.989,306.397 98.300 C 308.783 100.841,309.374 102.679,309.000 106.403 C 308.852 107.869,308.937 111.843,309.188 115.235 C 310.057 127.001,309.407 127.603,300.257 123.506 C 296.865 121.986,296.424 121.896,289.900 121.369 C 286.152 121.067,282.113 120.640,280.924 120.420 C 277.119 119.716,263.155 118.604,258.400 118.625 C 214.020 118.824,209.339 118.786,206.400 118.202 C 198.246 116.583,185.148 116.010,170.400 116.626 C 157.053 117.184,151.971 115.137,151.671 109.081 C 151.293 101.473,153.098 94.361,156.604 89.645 C 160.162 84.858,159.776 83.543,154.600 82.826 C 152.840 82.582,150.140 82.040,148.600 81.621 C 144.772 80.579,142.000 81.451,142.000 83.699 C 142.000 85.216,138.337 89.106,134.673 91.478 C 132.514 92.877,130.069 94.692,129.241 95.511 C 128.413 96.330,126.025 98.570,123.933 100.490 C 121.841 102.409,119.336 105.094,118.365 106.457 C 115.371 110.660,114.087 111.907,112.075 112.567 C 107.406 114.097,104.593 114.511,99.260 114.454 C 94.576 114.404,93.447 114.529,90.060 115.474 C 85.430 116.767,77.546 116.861,65.609 115.764 C 61.763 115.411,57.264 115.225,55.609 115.352 C 45.026 116.163,44.979 116.161,39.112 114.666 C 35.216 113.673,33.128 112.919,31.912 112.067 C 29.565 110.422,27.918 110.135,26.290 111.088 C 20.789 114.308,15.208 113.946,14.046 110.293 C 13.820 109.582,13.446 106.660,13.215 103.800 C 12.975 100.828,12.468 97.631,12.031 96.339 C 10.455 91.677,9.608 79.307,10.726 77.300 C 11.766 75.435,14.240 76.517,19.330 81.060 C 24.996 86.117,25.376 86.338,31.046 87.849 C 36.940 89.421,39.454 89.555,44.635 88.577 C 47.318 88.071,49.557 87.952,53.680 88.097 C 61.280 88.364,62.086 87.940,66.805 81.200 C 67.961 79.550,70.056 76.999,71.460 75.531 C 74.392 72.468,74.860 71.511,76.205 65.819 C 77.341 61.009,77.634 60.264,79.715 56.910 C 82.066 53.119,83.659 52.049,87.632 51.596 C 92.059 51.091,92.760 50.413,94.165 45.273 C 95.996 38.578,99.839 35.253,105.800 35.207 C 108.567 35.186,113.802 29.764,114.830 25.855 C 115.782 22.233,116.601 20.644,117.909 19.880 C 126.810 14.682,134.750 21.849,132.000 32.600 C 130.365 38.994,131.084 42.710,134.820 47.159 C 139.019 52.160,141.035 57.847,140.657 63.624 C 140.154 71.297,143.662 71.819,146.409 64.482 C 147.472 61.643,148.423 59.824,150.400 56.847 C 154.137 51.221,155.392 45.818,154.918 37.387 C 154.658 32.753,155.136 23.648,155.599 24.399 C 155.824 24.763,155.990 24.663,156.187 24.042 C 156.666 22.531,158.188 21.871,160.920 21.987 C 164.683 22.147,164.946 22.102,165.700 21.174 C 168.161 18.142,165.038 14.000,160.292 14.000 C 159.361 14.000,156.350 13.625,153.600 13.167 C 149.974 12.562,147.776 12.403,145.600 12.586 C 133.211 13.630,119.881 13.051,111.851 11.121 C 106.706 9.884,106.700 9.884,102.651 10.442 C 100.423 10.749,96.350 10.986,93.600 10.968 C 52.103 10.706,53.045 10.593,57.500 15.277 C 58.765 16.607,61.741 19.405,64.114 21.494 C 70.106 26.771,70.929 28.948,68.425 32.896 C 65.431 37.617,61.523 37.994,57.691 33.931 C 54.005 30.022,51.967 29.586,46.892 31.618 C 42.193 33.499,41.202 33.521,36.853 31.842 C 30.862 29.528,29.286 29.817,24.945 34.027 C 18.606 40.174,10.312 34.447,14.211 26.616 C 15.281 24.468,19.502 21.018,25.566 17.335 C 34.568 11.868,34.846 11.485,31.136 9.631 C 28.265 8.196,22.313 7.918,17.800 9.008 C 9.835 10.931,4.771 8.538,4.753 2.841 L 4.744 -0.000 3.196 -0.000 C 2.344 -0.000,1.503 0.225,1.326 0.500 M262.761 11.984 C 257.716 12.895,256.576 15.238,260.822 15.972 C 269.263 17.431,272.499 17.257,273.552 15.289 C 274.778 12.998,268.239 10.996,262.761 11.984 M362.271 14.819 C 374.828 16.499,383.485 24.172,382.234 32.513 C 381.527 37.228,378.079 37.687,374.446 33.551 C 371.331 30.005,368.801 29.611,363.200 31.800 C 358.825 33.510,358.018 33.525,354.005 31.978 C 348.131 29.712,346.423 29.961,342.592 33.638 C 337.534 38.494,332.400 36.916,332.400 30.505 C 332.400 20.932,347.744 12.875,362.271 14.819 M146.060 19.610 C 149.203 20.483,150.567 22.816,149.000 24.638 C 148.451 25.277,148.001 25.928,148.000 26.085 C 148.000 26.473,145.052 27.237,142.864 27.415 C 138.621 27.761,137.334 23.898,140.584 20.574 C 141.922 19.205,143.562 18.916,146.060 19.610 M36.915 35.805 C 38.629 36.352,40.647 36.800,41.400 36.800 C 42.153 36.800,44.171 36.352,45.885 35.805 C 51.650 33.964,52.125 34.293,52.401 40.327 C 52.592 44.500,52.664 44.797,53.839 46.260 C 57.175 50.413,57.292 54.296,54.154 56.765 C 52.428 58.123,50.336 57.867,46.255 55.797 C 44.200 54.755,42.159 54.000,41.400 54.000 C 40.641 54.000,38.600 54.755,36.545 55.797 C 30.869 58.676,27.992 58.027,26.800 53.600 C 26.171 51.263,26.548 49.649,28.313 47.125 C 29.754 45.066,29.806 44.867,30.001 40.741 C 30.298 34.434,31.017 33.921,36.915 35.805 M353.600 35.800 C 355.438 36.350,357.688 36.800,358.600 36.800 C 359.513 36.800,361.583 36.350,363.200 35.800 C 368.706 33.927,369.322 34.341,369.603 40.101 C 369.789 43.911,369.909 44.415,371.003 45.987 C 373.483 49.548,373.596 49.799,373.598 51.740 C 373.604 57.568,369.835 59.072,363.422 55.800 C 359.029 53.559,358.249 53.559,353.644 55.800 C 348.378 58.363,345.917 58.064,344.377 54.673 C 343.076 51.808,343.390 50.144,345.925 46.451 C 347.370 44.346,347.400 44.224,347.400 40.516 C 347.400 34.822,348.228 34.192,353.600 35.800 M69.260 46.032 C 72.385 47.705,72.111 54.460,68.753 58.531 C 67.155 60.469,66.895 60.230,65.218 55.292 C 62.898 48.463,64.963 43.732,69.260 46.032 M253.600 54.956 C 253.600 55.707,255.062 57.469,255.404 57.129 C 255.974 56.560,255.155 54.400,254.368 54.400 C 253.946 54.400,253.600 54.650,253.600 54.956 M46.904 60.732 C 48.937 61.574,51.500 62.614,52.600 63.043 C 55.175 64.046,55.444 65.239,53.574 67.369 C 48.300 73.376,34.487 73.508,28.760 67.606 C 26.068 64.833,26.547 63.773,31.100 62.425 C 32.696 61.952,35.216 61.040,36.700 60.397 C 40.457 58.771,42.320 58.832,46.904 60.732 M361.600 59.783 C 362.370 60.084,364.878 61.064,367.174 61.961 C 372.589 64.077,372.929 64.692,370.256 67.536 C 365.004 73.124,351.686 73.229,345.929 67.729 C 343.041 64.970,343.680 63.248,347.912 62.386 C 349.171 62.129,351.460 61.414,353.000 60.796 C 354.540 60.178,356.070 59.581,356.400 59.468 C 357.546 59.077,360.208 59.238,361.600 59.783 M62.000 70.416 C 62.000 74.755,54.755 78.732,45.600 79.418 C 39.647 79.864,38.305 78.479,43.693 77.449 C 48.220 76.584,50.888 75.544,56.600 72.415 C 61.000 70.005,62.000 69.635,62.000 70.416 M365.056 103.303 C 367.118 106.426,367.088 108.912,364.983 109.440 C 363.763 109.746,362.943 109.116,362.177 107.283 C 360.550 103.390,362.937 100.092,365.056 103.303 M139.055 103.506 C 139.856 104.023,140.864 106.938,140.933 108.935 C 141.098 113.709,136.487 113.472,136.090 108.685 C 135.759 104.685,137.141 102.270,139.055 103.506 M63.822 197.176 C 62.215 198.951,63.778 203.228,66.261 203.851 C 67.690 204.210,68.076 203.430,67.772 200.800 C 67.306 196.773,65.602 195.209,63.822 197.176 M304.400 268.685 C 304.400 270.139,299.179 274.543,294.800 276.784 C 289.547 279.471,288.430 280.344,285.998 283.662 C 283.608 286.923,281.730 288.405,279.634 288.686 C 277.898 288.919,277.438 288.577,274.483 284.867 C 272.502 282.379,270.172 281.803,265.400 282.621 C 263.420 282.960,259.460 283.395,256.600 283.588 C 252.815 283.843,250.475 284.232,248.000 285.017 C 245.086 285.942,243.794 286.111,238.962 286.202 C 231.204 286.347,230.116 286.824,228.263 290.891 C 225.649 296.625,220.400 296.789,220.400 291.136 C 220.400 285.734,215.410 283.724,207.071 285.767 C 201.155 287.216,199.326 288.869,199.240 292.845 C 199.196 294.868,197.711 296.899,196.455 296.653 C 194.756 296.320,193.331 295.833,192.611 295.340 C 192.177 295.043,191.506 294.800,191.121 294.800 C 189.991 294.800,188.266 293.558,186.097 291.183 C 181.040 285.647,176.489 285.612,176.104 291.106 C 175.549 299.020,169.164 300.067,168.210 292.400 C 167.553 287.123,166.592 285.634,161.725 282.349 C 157.562 279.540,158.078 278.662,164.637 277.388 C 167.431 276.846,238.400 276.849,255.600 277.392 C 271.064 277.880,273.217 277.823,275.800 276.854 C 277.120 276.359,280.900 275.264,284.200 274.421 C 287.500 273.578,291.640 272.209,293.400 271.379 C 299.933 268.297,304.400 267.203,304.400 268.685 M150.900 278.583 C 156.606 280.661,147.604 284.192,140.059 282.835 C 135.196 281.960,132.370 279.894,134.476 278.753 C 136.927 277.424,147.420 277.316,150.900 278.583 M42.637 302.706 C 43.665 303.397,46.000 306.940,46.000 307.808 C 46.000 311.058,36.859 310.433,36.479 307.156 C 36.244 305.130,41.063 301.648,42.637 302.706 M368.200 315.000 C 374.396 316.295,380.394 320.432,382.958 325.177 C 387.436 333.466,381.064 340.712,375.005 334.221 C 371.079 330.015,369.110 329.591,363.773 331.800 C 361.828 332.605,359.709 333.200,358.787 333.200 C 357.903 333.200,355.575 332.572,353.600 331.800 C 348.000 329.612,346.520 329.920,342.360 334.142 C 338.523 338.036,334.368 337.655,332.074 333.198 C 328.108 325.494,338.724 317.020,355.800 314.260 C 357.806 313.936,365.227 314.379,368.200 315.000 M49.575 317.057 C 57.780 318.729,61.915 321.716,64.973 328.179 C 68.490 335.615,63.376 340.424,57.660 335.056 C 53.490 331.140,51.709 330.859,45.864 333.200 C 42.136 334.693,40.593 334.689,36.800 333.176 C 31.085 330.898,28.393 331.322,25.402 334.972 C 22.804 338.142,20.587 338.779,18.438 336.971 C 13.337 332.678,19.285 322.562,29.720 317.785 C 33.834 315.902,42.370 315.589,49.575 317.057 M353.439 335.800 C 357.318 337.066,359.891 337.063,363.797 335.788 C 368.623 334.213,369.306 334.754,369.606 340.387 C 369.813 344.249,369.815 344.257,371.701 346.795 C 377.460 354.544,371.826 360.529,363.276 355.745 C 359.578 353.675,357.902 353.707,353.654 355.923 C 349.893 357.886,347.587 358.134,345.846 356.765 C 343.020 354.542,342.731 350.395,345.188 347.310 C 347.294 344.665,347.600 343.732,347.600 339.956 C 347.600 334.871,348.541 334.201,353.439 335.800 M51.800 337.253 C 52.478 337.906,52.601 338.552,52.608 341.511 C 52.617 345.192,52.844 345.888,54.883 348.489 C 57.214 351.463,57.137 355.050,54.691 357.496 C 52.630 359.556,50.831 359.513,46.435 357.296 C 42.028 355.075,40.653 355.062,36.400 357.200 C 30.991 359.920,27.840 359.137,26.804 354.815 C 26.223 352.393,26.513 350.916,27.966 348.911 C 30.041 346.045,30.193 345.559,30.197 341.742 C 30.202 336.269,31.587 335.331,36.904 337.200 C 39.921 338.260,43.108 338.198,46.600 337.010 C 49.593 335.992,50.535 336.036,51.800 337.253 M113.771 348.628 C 115.156 350.013,115.109 353.303,113.658 356.478 C 112.596 358.803,112.583 359.835,113.591 362.056 C 115.118 365.420,114.036 368.800,111.433 368.800 C 109.274 368.800,109.005 365.719,110.842 362.042 C 112.177 359.371,112.176 359.246,110.777 355.400 C 109.286 351.296,111.478 346.335,113.771 348.628 M154.810 358.866 C 157.020 364.333,156.035 367.700,152.224 367.700 C 147.236 367.700,145.972 354.745,150.800 353.097 C 151.837 352.743,153.029 354.457,154.810 358.866 M365.600 361.538 C 373.471 364.666,373.756 366.500,366.901 369.888 L 363.841 371.400 358.621 371.400 C 350.991 371.400,346.854 369.776,344.648 365.916 C 343.512 363.927,344.096 363.355,348.255 362.386 C 349.985 361.983,352.660 361.108,354.200 360.441 C 358.004 358.794,358.918 358.882,365.600 361.538 M45.702 361.740 C 46.859 362.252,49.065 363.083,50.603 363.588 C 54.900 364.999,55.429 366.000,53.211 368.527 C 48.602 373.776,34.566 373.950,29.178 368.825 C 26.341 366.126,26.929 364.937,31.834 363.457 C 33.575 362.931,36.260 362.027,37.800 361.447 C 41.002 360.242,42.436 360.295,45.702 361.740 M389.761 369.499 C 388.299 369.744,386.418 371.694,384.269 375.192 C 382.340 378.332,381.932 378.739,378.792 380.668 C 376.927 381.815,374.680 383.406,373.800 384.205 L 372.200 385.658 373.200 386.475 C 374.775 387.763,381.630 387.379,385.120 385.807 C 387.816 384.593,392.145 380.388,393.382 377.781 C 395.123 374.112,392.878 368.975,389.761 369.499 " stroke="none" fill="#8c8f88" fill-rule="evenodd"></path><path id="path1" d="M0.000 198.227 C 0.000 268.735,0.035 272.443,0.700 272.238 C 8.129 269.951,13.337 269.739,70.000 269.409 C 167.204 268.844,182.284 268.780,224.000 268.751 C 270.337 268.720,272.354 268.650,279.509 266.823 C 293.304 263.301,308.060 254.045,316.405 243.680 C 322.366 236.276,327.261 220.169,324.166 218.141 C 321.870 216.636,312.400 219.436,312.400 221.620 C 312.400 222.339,307.764 224.107,304.967 224.454 C 301.344 224.904,299.807 225.489,297.056 227.466 C 294.099 229.590,291.466 230.658,287.400 231.384 C 285.420 231.737,282.990 232.191,282.000 232.393 C 277.986 233.210,270.669 233.298,265.166 232.595 C 258.912 231.795,256.711 231.945,250.823 233.568 C 243.839 235.494,232.461 235.513,222.886 233.615 C 220.043 233.052,217.191 232.800,213.659 232.800 C 210.847 232.800,207.569 232.624,206.373 232.408 C 201.985 231.616,200.491 231.593,195.200 232.238 C 189.693 232.910,183.110 232.827,181.164 232.062 C 180.197 231.682,178.554 231.228,175.200 230.413 C 174.210 230.173,170.495 229.816,166.944 229.621 C 159.780 229.227,159.124 229.023,156.600 226.408 C 153.817 223.523,152.866 223.123,149.312 223.336 C 146.512 223.504,145.678 223.361,141.000 221.911 C 137.207 220.735,135.040 220.286,132.990 220.250 C 129.964 220.196,129.883 220.234,127.281 222.940 C 124.657 225.670,122.351 226.231,119.000 224.956 C 118.089 224.610,115.074 224.208,112.000 224.024 C 108.581 223.819,106.064 223.466,105.138 223.061 C 99.733 220.696,98.473 221.428,96.994 227.791 C 94.512 238.464,87.823 242.936,74.400 242.895 C 62.882 242.861,56.362 239.689,44.644 228.420 C 38.845 222.843,35.688 220.015,29.366 214.733 C 27.368 213.063,25.298 211.259,24.766 210.724 C 22.968 208.916,19.600 204.894,19.592 204.546 C 19.588 204.356,18.692 203.660,17.600 203.000 C 15.818 201.923,14.987 200.800,15.971 200.800 C 16.732 200.800,17.600 199.505,17.600 198.371 C 17.600 197.727,17.741 197.200,17.914 197.200 C 18.502 197.200,19.600 194.880,19.600 193.638 C 19.600 192.957,19.775 192.400,19.990 192.400 C 20.204 192.400,20.678 191.815,21.042 191.100 C 21.982 189.257,29.553 181.629,36.600 175.426 C 39.900 172.520,44.310 168.283,46.400 166.009 C 56.668 154.836,62.508 151.926,74.800 151.853 C 89.868 151.765,97.181 160.434,94.636 175.367 C 94.083 178.609,94.061 179.417,94.498 180.320 L 95.020 181.400 99.810 181.348 C 103.136 181.312,105.137 181.097,106.358 180.646 C 110.952 178.945,114.183 179.375,119.000 182.328 C 122.385 184.404,126.338 184.881,130.542 183.723 C 133.725 182.846,142.741 182.739,144.800 183.554 C 145.570 183.859,147.585 184.804,149.277 185.654 C 153.095 187.572,154.311 187.592,157.400 185.791 C 158.720 185.021,161.510 183.538,163.600 182.495 L 167.400 180.600 172.084 180.716 C 177.479 180.850,178.387 180.541,182.583 177.146 C 187.364 173.278,191.947 171.984,197.249 173.004 C 205.850 174.660,210.565 174.665,220.574 173.027 C 226.987 171.978,238.737 172.180,242.408 173.403 C 247.577 175.124,254.495 175.318,263.000 173.981 C 266.561 173.421,269.786 173.420,271.000 173.977 C 271.440 174.179,273.060 174.939,274.600 175.666 C 277.701 177.129,281.024 177.362,288.416 176.631 C 292.351 176.242,293.094 176.496,296.766 179.485 C 299.370 181.604,300.492 182.207,304.151 183.451 C 305.690 183.975,308.040 185.110,309.374 185.975 C 313.425 188.600,315.197 189.103,321.520 189.424 L 327.169 189.711 328.532 188.348 C 333.326 183.554,330.216 171.715,319.676 154.642 C 313.356 144.403,297.800 134.551,281.695 130.588 C 271.335 128.038,264.381 127.496,247.873 127.953 C 240.491 128.158,227.387 128.156,216.673 127.950 C 206.513 127.754,188.660 127.423,177.000 127.215 C 165.340 127.007,153.967 126.636,151.727 126.392 C 148.429 126.032,146.437 126.068,141.257 126.582 C 135.933 127.111,133.900 127.141,129.130 126.761 C 124.855 126.422,117.458 126.420,100.000 126.755 C 79.827 127.142,53.321 127.102,18.400 126.633 C 9.334 126.511,6.880 126.202,2.450 124.623 C 1.487 124.281,0.542 124.000,0.350 124.000 C 0.151 124.000,0.000 156.125,0.000 198.227 M0.000 395.600 L 0.000 400.000 10.900 399.960 C 17.244 399.936,21.215 399.788,20.400 399.604 C 17.997 399.062,14.800 398.893,14.800 399.308 C 14.800 399.550,14.611 399.542,14.300 399.287 C 14.025 399.060,13.260 398.790,12.600 398.686 C 11.271 398.477,8.136 396.664,4.854 394.207 C 2.095 392.141,0.676 391.205,0.300 391.202 C 0.135 391.201,0.000 393.180,0.000 395.600 M397.305 394.136 C 396.257 395.114,394.275 396.572,392.900 397.376 C 391.525 398.180,390.400 398.997,390.400 399.191 C 390.400 399.386,389.995 399.622,389.500 399.718 C 389.005 399.813,391.165 399.916,394.300 399.946 L 400.000 400.000 400.000 396.424 C 400.000 392.085,399.740 391.864,397.305 394.136 " stroke="none" fill="#20201f" fill-rule="evenodd"></path><path id="path2" d="M11.200 0.182 C 11.200 0.716,13.361 2.410,14.118 2.468 C 14.603 2.506,15.360 2.561,15.800 2.590 C 16.240 2.620,17.985 2.350,19.679 1.991 C 21.519 1.601,23.530 1.431,24.679 1.569 C 25.735 1.696,27.410 1.705,28.400 1.589 C 29.443 1.466,30.873 1.607,31.800 1.924 C 35.288 3.115,42.321 3.369,82.600 3.762 C 87.880 3.813,94.489 4.004,97.286 4.185 C 100.965 4.424,103.026 4.376,104.736 4.014 C 109.489 3.005,117.682 3.275,122.257 4.591 L 126.314 5.758 136.857 5.293 C 148.913 4.760,169.517 5.179,172.200 6.012 C 173.417 6.389,176.000 6.427,183.000 6.170 C 188.060 5.985,193.730 5.800,195.600 5.759 C 197.470 5.719,200.933 5.550,203.297 5.385 C 207.803 5.071,211.880 5.448,218.527 6.793 C 224.305 7.963,247.620 7.313,252.005 5.860 C 259.777 3.284,262.713 3.116,275.200 4.531 C 280.254 5.103,286.484 4.772,288.600 3.817 C 290.937 2.763,292.714 2.466,294.404 2.845 C 297.604 3.564,323.897 3.005,325.216 2.190 C 326.468 1.417,328.669 1.290,331.490 1.830 C 337.375 2.956,342.895 2.508,344.510 0.774 C 345.223 0.009,343.340 0.000,178.216 0.000 C 86.357 0.000,11.200 0.082,11.200 0.182 M35.548 17.224 C 30.704 18.370,23.807 22.954,22.138 26.136 C 20.986 28.332,21.952 28.690,26.045 27.588 C 29.018 26.787,32.477 27.057,36.286 28.385 C 40.674 29.915,42.406 29.909,46.953 28.346 C 50.432 27.150,50.798 27.103,54.916 27.338 C 60.712 27.667,61.227 26.375,56.988 22.136 C 52.545 17.693,42.902 15.484,35.548 17.224 M350.850 18.631 C 345.543 20.058,339.804 24.366,340.075 26.718 C 340.214 27.918,339.849 27.878,346.000 27.371 C 348.657 27.151,349.439 27.265,352.841 28.362 C 357.650 29.912,359.132 29.910,363.501 28.351 C 366.306 27.350,367.753 27.079,370.800 26.987 C 372.890 26.924,374.735 26.856,374.900 26.836 C 375.699 26.739,375.068 24.656,373.821 23.276 C 369.841 18.870,358.492 16.575,350.850 18.631 M352.200 318.415 C 345.235 320.187,339.200 324.261,339.200 327.191 C 339.200 328.633,340.056 328.751,343.600 327.800 C 347.011 326.884,349.221 327.056,353.883 328.600 C 359.043 330.308,358.470 330.312,363.584 328.546 C 367.719 327.118,367.873 327.096,372.107 327.353 C 376.921 327.646,377.329 327.442,376.401 325.203 C 374.023 319.462,361.686 316.001,352.200 318.415 M33.610 319.841 C 29.486 320.949,24.400 325.148,24.400 327.443 C 24.400 328.385,24.459 328.400,28.195 328.400 C 31.313 328.400,32.659 328.614,35.737 329.600 C 40.448 331.109,42.485 331.109,46.800 329.600 C 49.669 328.596,50.811 328.410,54.113 328.405 C 58.613 328.399,59.065 328.056,57.768 325.634 C 55.163 320.772,41.944 317.602,33.610 319.841 " stroke="none" fill="#d6dad5" fill-rule="evenodd"></path><path id="path3" d="M8.061 1.700 C 8.853 5.280,12.327 6.819,16.975 5.648 C 21.973 4.390,30.858 4.358,33.189 5.590 C 34.940 6.516,86.455 7.309,108.000 6.742 C 111.086 6.661,114.857 6.816,116.800 7.104 C 124.605 8.263,128.682 8.483,136.800 8.186 C 145.875 7.855,147.648 7.869,159.566 8.372 C 166.985 8.686,168.226 8.843,172.104 9.960 C 177.011 11.373,180.547 11.550,186.048 10.655 C 187.891 10.354,190.030 10.079,190.800 10.043 C 191.570 10.007,194.720 9.713,197.800 9.389 C 205.513 8.580,208.055 8.646,212.641 9.774 C 222.047 12.089,222.454 12.137,230.385 11.853 C 238.297 11.570,246.741 10.516,251.613 9.202 C 261.454 6.548,260.648 6.672,266.200 6.958 C 269.060 7.106,272.210 7.394,273.200 7.598 C 278.074 8.603,283.609 8.548,288.054 7.450 C 291.745 6.539,293.149 6.400,298.654 6.401 C 304.931 6.402,310.904 6.053,321.000 5.094 C 325.729 4.645,333.807 4.589,338.106 4.976 C 339.922 5.140,344.166 4.388,347.371 3.336 C 348.650 2.916,351.109 2.647,354.371 2.571 C 357.137 2.507,360.750 2.191,362.400 1.868 C 364.509 1.457,365.627 1.403,366.164 1.690 C 368.129 2.736,375.800 2.543,376.925 1.418 C 377.227 1.115,378.060 0.776,378.775 0.663 C 382.193 0.124,379.216 0.000,362.882 0.000 C 345.944 0.000,345.202 0.031,344.510 0.774 C 342.895 2.508,337.375 2.956,331.490 1.830 C 328.669 1.290,326.468 1.417,325.216 2.190 C 323.897 3.005,297.604 3.564,294.404 2.845 C 292.714 2.466,290.937 2.763,288.600 3.817 C 286.484 4.772,280.254 5.103,275.200 4.531 C 262.713 3.116,259.777 3.284,252.005 5.860 C 247.620 7.313,224.305 7.963,218.527 6.793 C 211.880 5.448,207.803 5.071,203.297 5.385 C 200.933 5.550,197.470 5.719,195.600 5.759 C 193.730 5.800,188.060 5.985,183.000 6.170 C 176.000 6.427,173.417 6.389,172.200 6.012 C 169.517 5.179,148.913 4.760,136.857 5.293 L 126.314 5.758 122.257 4.591 C 117.682 3.275,109.489 3.005,104.736 4.014 C 103.026 4.376,100.965 4.424,97.286 4.185 C 94.489 4.004,87.880 3.813,82.600 3.762 C 42.321 3.369,35.288 3.115,31.800 1.924 C 30.873 1.607,29.443 1.466,28.400 1.589 C 27.410 1.705,25.722 1.694,24.649 1.565 C 23.577 1.436,21.687 1.559,20.449 1.838 C 15.251 3.010,13.192 2.812,11.844 1.010 C 11.243 0.207,10.740 0.000,9.386 0.000 L 7.685 0.000 8.061 1.700 M35.313 15.415 C 28.985 17.119,19.695 23.463,17.858 27.334 C 15.704 31.874,19.479 34.472,23.856 31.461 C 28.697 28.131,31.264 27.823,36.510 29.943 C 40.318 31.482,42.301 31.532,45.891 30.180 C 51.752 27.972,53.456 28.054,57.933 30.759 C 63.001 33.822,66.179 31.833,64.020 26.951 C 60.208 18.335,45.868 12.572,35.313 15.415 M352.459 16.811 C 342.450 18.267,332.742 27.182,336.334 31.618 C 337.424 32.964,339.045 32.719,342.219 30.729 C 345.790 28.490,349.277 28.299,353.704 30.100 C 357.286 31.557,359.373 31.522,363.400 29.936 C 367.958 28.142,370.591 28.172,374.030 30.061 C 379.233 32.917,380.987 31.573,378.774 26.428 C 375.752 19.403,364.047 15.126,352.459 16.811 M48.216 17.419 C 54.652 19.090,60.561 24.120,59.459 26.991 C 59.269 27.485,58.516 27.542,54.916 27.338 C 50.798 27.103,50.432 27.150,46.953 28.346 C 42.406 29.909,40.674 29.915,36.286 28.385 C 32.477 27.057,29.018 26.787,26.045 27.588 C 20.892 28.975,20.193 27.391,24.267 23.557 C 30.513 17.679,39.924 15.266,48.216 17.419 M365.366 18.791 C 369.171 19.764,372.008 21.269,373.821 23.276 C 375.068 24.656,375.699 26.739,374.900 26.836 C 374.735 26.856,372.890 26.924,370.800 26.987 C 367.753 27.079,366.306 27.350,363.501 28.351 C 359.132 29.910,357.650 29.912,352.841 28.362 C 349.439 27.265,348.657 27.151,346.000 27.371 C 339.849 27.878,340.214 27.918,340.075 26.718 C 339.416 21.003,354.961 16.130,365.366 18.791 M212.095 52.311 C 211.377 52.910,210.477 53.970,210.095 54.667 C 209.713 55.365,209.044 56.535,208.608 57.267 C 207.061 59.872,207.848 66.403,209.843 67.520 C 210.586 67.936,210.455 74.754,209.473 86.800 C 208.771 95.410,208.638 96.000,207.404 96.000 C 206.504 96.000,206.502 96.015,206.326 104.030 C 206.200 109.756,206.010 112.147,205.661 112.362 C 205.007 112.767,206.923 114.701,208.800 115.531 C 211.448 116.701,249.475 116.595,254.434 115.404 C 258.568 114.412,258.789 114.424,264.564 115.959 C 268.065 116.890,272.136 117.023,276.600 116.354 C 278.140 116.123,280.030 115.852,280.800 115.752 C 284.580 115.259,284.836 115.160,285.618 113.878 C 287.312 111.099,286.278 108.400,283.519 108.400 C 281.028 108.400,279.600 107.960,279.600 107.192 C 279.600 106.462,276.193 104.400,274.987 104.400 C 274.054 104.400,272.306 103.406,270.856 102.052 C 270.150 101.393,268.948 100.647,268.186 100.395 C 267.272 100.094,266.800 99.687,266.800 99.202 C 266.800 98.797,266.350 97.570,265.800 96.475 C 264.621 94.127,264.601 93.809,265.445 90.904 C 266.449 87.450,265.753 84.400,263.960 84.400 C 262.434 84.400,261.958 85.990,262.083 90.678 C 262.195 94.866,262.155 95.115,261.100 96.714 C 260.495 97.632,260.000 98.812,260.000 99.336 C 260.000 101.667,249.336 100.486,247.790 97.984 C 247.608 97.689,247.368 97.695,246.998 98.002 C 246.338 98.549,245.812 97.222,246.202 95.994 C 246.488 95.092,245.730 92.400,245.190 92.400 C 244.678 92.400,242.800 90.579,242.800 90.083 C 242.800 89.513,240.842 88.000,240.105 88.000 C 239.782 88.000,238.591 87.163,237.459 86.140 C 234.346 83.327,232.700 82.718,229.705 83.275 C 226.118 83.943,222.400 81.204,222.400 77.893 C 222.400 77.526,220.645 75.826,218.500 74.116 C 213.056 69.775,213.024 69.683,215.852 66.600 C 220.088 61.982,222.228 56.553,220.300 55.320 C 219.678 54.922,218.400 52.533,218.400 51.768 C 218.400 50.629,213.616 51.042,212.095 52.311 M37.625 62.630 C 31.666 64.921,31.150 67.689,36.400 69.201 C 43.580 71.269,52.815 67.544,48.365 64.375 C 44.546 61.656,41.461 61.154,37.625 62.630 M355.166 62.537 C 349.035 64.724,348.126 66.424,352.025 68.413 C 356.492 70.692,363.592 70.011,366.370 67.038 L 367.339 66.000 366.438 65.040 C 363.894 62.332,358.870 61.216,355.166 62.537 M102.727 95.000 C 102.477 95.550,102.050 96.000,101.779 96.000 C 100.395 96.000,101.048 99.620,102.617 100.648 C 104.660 101.987,107.600 100.147,107.600 97.530 C 107.600 96.286,107.456 96.000,106.829 96.000 C 106.405 96.000,105.704 95.550,105.271 95.000 C 104.839 94.450,104.192 94.000,103.834 94.000 C 103.476 94.000,102.978 94.450,102.727 95.000 M354.768 316.379 C 343.066 318.522,335.200 323.799,335.200 329.507 C 335.200 333.554,337.575 334.105,342.128 331.116 C 346.496 328.248,348.586 328.085,354.009 330.189 C 358.384 331.886,359.098 331.869,363.902 329.957 C 368.444 328.150,371.404 328.360,374.845 330.734 C 378.953 333.569,381.200 333.196,381.200 329.679 C 381.200 321.515,366.663 314.201,354.768 316.379 M366.912 318.583 C 371.220 319.725,375.316 322.583,376.401 325.203 C 377.329 327.442,376.921 327.646,372.107 327.353 C 367.873 327.096,367.719 327.118,363.584 328.546 C 358.470 330.312,359.043 330.308,353.883 328.600 C 349.221 327.056,347.011 326.884,343.600 327.800 C 338.684 329.119,337.618 327.699,340.873 324.167 C 345.761 318.864,358.038 316.231,366.912 318.583 M32.195 318.694 C 25.920 320.943,19.614 327.216,19.604 331.220 C 19.596 334.101,21.023 334.282,24.966 331.900 C 28.649 329.674,32.107 329.509,36.600 331.343 C 40.306 332.857,42.226 332.843,46.287 331.272 C 51.038 329.434,53.396 329.503,57.449 331.600 C 60.906 333.389,61.277 333.465,62.171 332.571 C 64.410 330.333,60.204 323.384,55.099 320.887 C 49.612 318.202,36.950 316.990,32.195 318.694 M45.838 319.631 C 51.389 320.403,56.286 322.867,57.768 325.634 C 59.065 328.056,58.613 328.399,54.113 328.405 C 50.811 328.410,49.669 328.596,46.800 329.600 C 42.485 331.109,40.448 331.109,35.737 329.600 C 32.659 328.614,31.313 328.400,28.195 328.400 C 23.532 328.400,23.231 327.787,26.246 324.433 C 30.449 319.758,36.353 318.311,45.838 319.631 M355.534 362.627 C 348.472 365.072,348.153 367.507,354.692 369.044 C 361.728 370.698,369.338 367.346,365.214 364.410 C 362.283 362.323,358.451 361.617,355.534 362.627 M37.800 363.977 C 32.087 366.028,31.347 367.981,35.615 369.741 C 41.823 372.300,52.262 369.167,48.365 365.915 C 45.357 363.403,41.412 362.679,37.800 363.977 " stroke="none" fill="#b6bcb4" fill-rule="evenodd"></path><path id="path4" d="M4.761 1.276 C 4.617 6.196,5.067 7.150,8.214 8.589 C 10.805 9.774,14.041 9.916,17.800 9.008 C 22.313 7.918,28.265 8.196,31.136 9.631 C 34.846 11.485,34.568 11.868,25.566 17.335 C 19.502 21.018,15.281 24.468,14.211 26.616 C 10.312 34.447,18.606 40.174,24.945 34.027 C 29.286 29.817,30.862 29.528,36.853 31.842 C 41.202 33.521,42.193 33.499,46.892 31.618 C 51.967 29.586,54.005 30.022,57.691 33.931 C 61.523 37.994,65.431 37.617,68.425 32.896 C 70.929 28.948,70.106 26.771,64.114 21.494 C 59.990 17.863,55.200 13.105,55.200 12.640 C 55.200 12.222,57.407 11.310,59.000 11.070 C 60.362 10.866,71.944 10.831,93.600 10.968 C 96.350 10.986,100.423 10.749,102.651 10.442 C 106.700 9.884,106.706 9.884,111.851 11.121 C 119.881 13.051,133.211 13.630,145.600 12.586 C 147.776 12.403,149.974 12.562,153.600 13.167 C 156.350 13.625,159.361 14.000,160.292 14.000 C 164.058 14.000,166.400 15.893,166.400 18.936 C 166.400 21.344,165.356 22.142,162.366 22.016 C 160.955 21.956,159.469 21.918,159.064 21.932 C 157.981 21.967,156.501 23.053,156.187 24.042 C 155.990 24.663,155.824 24.763,155.599 24.399 C 155.136 23.648,154.658 32.753,154.918 37.387 C 155.392 45.818,154.137 51.221,150.400 56.847 C 148.423 59.824,147.472 61.643,146.409 64.482 C 143.662 71.819,140.154 71.297,140.657 63.624 C 141.035 57.847,139.019 52.160,134.820 47.159 C 131.084 42.710,130.365 38.994,132.000 32.600 C 134.750 21.849,126.810 14.682,117.909 19.880 C 116.601 20.644,115.782 22.233,114.830 25.855 C 113.802 29.764,108.567 35.186,105.800 35.207 C 99.839 35.253,95.996 38.578,94.165 45.273 C 92.760 50.413,92.059 51.091,87.632 51.596 C 83.659 52.049,82.066 53.119,79.715 56.910 C 77.634 60.264,77.341 61.009,76.205 65.819 C 74.860 71.511,74.392 72.468,71.460 75.531 C 70.056 76.999,67.961 79.550,66.805 81.200 C 62.086 87.940,61.280 88.364,53.680 88.097 C 49.557 87.952,47.318 88.071,44.635 88.577 C 39.454 89.555,36.940 89.421,31.046 87.849 C 25.376 86.338,24.996 86.117,19.330 81.060 C 14.240 76.517,11.766 75.435,10.726 77.300 C 9.608 79.307,10.455 91.677,12.031 96.339 C 12.468 97.631,12.975 100.828,13.215 103.800 C 13.446 106.660,13.820 109.582,14.046 110.293 C 15.208 113.946,20.789 114.308,26.290 111.088 C 27.918 110.135,29.565 110.422,31.912 112.067 C 33.128 112.919,35.216 113.673,39.112 114.666 C 44.979 116.161,45.026 116.163,55.609 115.352 C 57.264 115.225,61.763 115.411,65.609 115.764 C 77.546 116.861,85.430 116.767,90.060 115.474 C 93.447 114.529,94.576 114.404,99.260 114.454 C 104.593 114.511,107.406 114.097,112.075 112.567 C 114.087 111.907,115.371 110.660,118.365 106.457 C 119.336 105.094,121.841 102.409,123.933 100.490 C 126.025 98.570,128.413 96.330,129.241 95.511 C 130.069 94.692,132.514 92.877,134.673 91.478 C 138.337 89.106,142.000 85.216,142.000 83.699 C 142.000 81.451,144.772 80.579,148.600 81.621 C 150.140 82.040,152.840 82.582,154.600 82.826 C 159.776 83.543,160.162 84.858,156.604 89.645 C 153.098 94.361,151.293 101.473,151.671 109.081 C 151.971 115.137,157.053 117.184,170.400 116.626 C 185.148 116.010,198.246 116.583,206.400 118.202 C 209.339 118.786,214.020 118.824,258.400 118.625 C 263.155 118.604,277.119 119.716,280.924 120.420 C 282.113 120.640,286.152 121.067,289.900 121.369 C 296.424 121.896,296.865 121.986,300.257 123.506 C 309.407 127.603,310.057 127.001,309.188 115.235 C 308.937 111.843,308.852 107.869,309.000 106.403 C 309.374 102.679,308.783 100.841,306.397 98.300 C 303.287 94.989,303.005 94.177,302.966 88.400 C 302.927 82.680,302.784 82.229,299.339 76.889 C 294.838 69.911,290.257 64.461,287.400 62.685 C 282.960 59.925,280.399 53.598,282.103 49.599 C 284.470 44.045,289.565 42.033,289.595 46.640 C 289.602 47.765,292.042 52.413,292.914 52.963 C 295.693 54.715,297.498 50.182,296.834 43.117 C 296.219 36.566,296.197 36.510,293.336 34.335 C 289.267 31.243,288.365 28.550,289.439 22.705 C 289.824 20.612,290.010 18.215,289.884 16.991 C 289.502 13.294,290.975 12.227,297.286 11.629 C 299.581 11.412,303.155 10.880,305.229 10.449 C 314.271 8.566,322.265 7.840,334.400 7.796 C 342.222 7.769,343.470 7.665,348.200 6.654 C 353.530 5.515,361.316 5.156,372.800 5.521 C 378.648 5.706,383.576 3.731,384.100 0.990 C 384.301 -0.061,384.288 -0.067,382.251 0.117 C 379.217 0.391,377.543 0.800,376.925 1.418 C 375.800 2.543,368.129 2.736,366.164 1.690 C 365.627 1.403,364.509 1.457,362.400 1.868 C 360.750 2.191,357.137 2.507,354.371 2.571 C 351.109 2.647,348.650 2.916,347.371 3.336 C 344.166 4.388,339.922 5.140,338.106 4.976 C 333.807 4.589,325.729 4.645,321.000 5.094 C 310.904 6.053,304.931 6.402,298.654 6.401 C 293.149 6.400,291.745 6.539,288.054 7.450 C 283.609 8.548,278.074 8.603,273.200 7.598 C 272.210 7.394,269.060 7.106,266.200 6.958 C 260.648 6.672,261.454 6.548,251.613 9.202 C 246.741 10.516,238.297 11.570,230.385 11.853 C 222.454 12.137,222.047 12.089,212.641 9.774 C 208.055 8.646,205.513 8.580,197.800 9.389 C 194.720 9.713,191.570 10.007,190.800 10.043 C 190.030 10.079,187.891 10.354,186.048 10.655 C 180.547 11.550,177.011 11.373,172.104 9.960 C 168.226 8.843,166.985 8.686,159.566 8.372 C 147.648 7.869,145.875 7.855,136.800 8.186 C 128.682 8.483,124.605 8.263,116.800 7.104 C 114.857 6.816,111.086 6.661,108.000 6.742 C 86.455 7.309,34.940 6.516,33.189 5.590 C 30.858 4.358,21.973 4.390,16.975 5.648 C 12.378 6.806,8.772 5.257,8.100 1.835 C 7.643 -0.491,4.827 -0.963,4.761 1.276 M271.593 12.646 C 274.381 13.795,274.455 15.516,271.764 16.641 C 269.876 17.430,259.024 16.210,258.359 15.134 C 256.716 12.475,266.644 10.608,271.593 12.646 M351.989 14.823 C 338.479 16.814,328.147 28.543,334.124 35.104 C 336.341 37.539,339.011 37.076,342.592 33.638 C 346.423 29.961,348.131 29.712,354.005 31.978 C 358.018 33.525,358.825 33.510,363.200 31.800 C 368.801 29.611,371.331 30.005,374.446 33.551 C 380.699 40.670,385.468 32.508,379.999 24.046 C 375.578 17.206,363.286 13.159,351.989 14.823 M48.317 15.431 C 57.901 17.393,67.478 27.516,63.707 31.700 C 62.686 32.833,60.878 32.539,57.933 30.759 C 53.456 28.054,51.752 27.972,45.891 30.180 C 42.301 31.532,40.318 31.482,36.510 29.943 C 31.264 27.823,28.697 28.131,23.856 31.461 C 17.619 35.752,14.751 29.718,20.358 24.102 C 27.737 16.714,38.410 13.403,48.317 15.431 M362.800 16.816 C 372.480 18.343,380.013 24.155,379.547 29.736 C 379.332 32.308,378.242 32.373,374.030 30.061 C 370.591 28.172,367.958 28.142,363.400 29.936 C 359.373 31.522,357.286 31.557,353.704 30.100 C 349.277 28.299,345.790 28.490,342.219 30.729 C 337.069 33.958,334.059 32.031,336.356 26.974 C 339.692 19.629,351.611 15.051,362.800 16.816 M141.800 19.686 C 137.245 22.316,138.001 27.811,142.864 27.415 C 145.052 27.237,148.000 26.473,148.000 26.085 C 148.001 25.928,148.451 25.277,149.000 24.638 C 150.283 23.146,150.260 22.817,148.760 21.284 C 146.944 19.427,143.585 18.656,141.800 19.686 M218.400 51.768 C 218.400 52.533,219.678 54.922,220.300 55.320 C 222.228 56.553,220.088 61.982,215.852 66.600 C 213.024 69.683,213.056 69.775,218.500 74.116 C 220.645 75.826,222.400 77.526,222.400 77.893 C 222.400 81.204,226.118 83.943,229.705 83.275 C 232.700 82.718,234.346 83.327,237.459 86.140 C 238.591 87.163,239.782 88.000,240.105 88.000 C 240.842 88.000,242.800 89.513,242.800 90.083 C 242.800 90.579,244.678 92.400,245.190 92.400 C 245.730 92.400,246.488 95.092,246.202 95.994 C 245.812 97.222,246.338 98.549,246.998 98.002 C 247.368 97.695,247.608 97.689,247.790 97.984 C 249.336 100.486,260.000 101.667,260.000 99.336 C 260.000 98.812,260.495 97.632,261.100 96.714 C 262.155 95.115,262.195 94.866,262.083 90.678 C 261.958 85.990,262.434 84.400,263.960 84.400 C 265.753 84.400,266.449 87.450,265.445 90.904 C 264.601 93.809,264.621 94.127,265.800 96.475 C 266.350 97.570,266.800 98.797,266.800 99.202 C 266.800 99.687,267.272 100.094,268.186 100.395 C 268.948 100.647,270.150 101.393,270.856 102.052 C 272.306 103.406,274.054 104.400,274.987 104.400 C 276.193 104.400,279.600 106.462,279.600 107.192 C 279.600 107.960,281.028 108.400,283.519 108.400 C 286.278 108.400,287.312 111.099,285.618 113.878 C 284.836 115.160,284.580 115.259,280.800 115.752 C 280.030 115.852,278.140 116.123,276.600 116.354 C 272.136 117.023,268.065 116.890,264.564 115.959 C 258.789 114.424,258.568 114.412,254.434 115.404 C 249.475 116.595,211.448 116.701,208.800 115.531 C 206.923 114.701,205.007 112.767,205.661 112.362 C 206.010 112.147,206.200 109.756,206.326 104.030 C 206.502 96.015,206.504 96.000,207.404 96.000 C 208.638 96.000,208.771 95.410,209.473 86.800 C 210.455 74.754,210.586 67.936,209.843 67.520 C 207.848 66.403,207.061 59.872,208.608 57.267 C 209.044 56.535,209.713 55.365,210.095 54.667 C 211.439 52.215,213.106 51.223,215.900 51.211 C 217.797 51.203,218.400 51.337,218.400 51.768 M255.406 55.629 C 255.765 57.260,255.310 57.621,254.366 56.456 C 253.387 55.249,253.388 54.400,254.368 54.400 C 254.901 54.400,255.219 54.777,255.406 55.629 M36.700 60.397 C 35.216 61.040,32.696 61.952,31.100 62.425 C 26.547 63.773,26.068 64.833,28.760 67.606 C 34.487 73.508,48.300 73.376,53.574 67.369 C 55.444 65.239,55.175 64.046,52.600 63.043 C 51.500 62.614,48.937 61.574,46.904 60.732 C 42.320 58.832,40.457 58.771,36.700 60.397 M356.400 59.468 C 356.070 59.581,354.540 60.178,353.000 60.796 C 351.460 61.414,349.171 62.129,347.912 62.386 C 337.689 64.468,350.594 73.357,361.401 71.677 C 366.123 70.943,370.985 67.993,371.747 65.400 C 372.128 64.101,371.564 63.676,367.174 61.961 C 364.878 61.064,362.370 60.084,361.600 59.783 C 360.208 59.238,357.546 59.077,356.400 59.468 M44.843 62.542 C 49.882 64.614,50.673 66.092,47.800 68.065 C 42.188 71.919,28.536 68.588,33.725 64.630 C 37.286 61.914,41.426 61.136,44.843 62.542 M363.268 63.079 C 364.516 63.630,365.942 64.513,366.438 65.040 L 367.339 66.000 366.370 67.038 C 363.592 70.011,356.492 70.692,352.025 68.413 C 345.314 64.989,356.056 59.893,363.268 63.079 M105.271 95.000 C 105.704 95.550,106.405 96.000,106.829 96.000 C 107.456 96.000,107.600 96.286,107.600 97.530 C 107.600 100.147,104.660 101.987,102.617 100.648 C 101.048 99.620,100.395 96.000,101.779 96.000 C 102.050 96.000,102.477 95.550,102.727 95.000 C 102.978 94.450,103.476 94.000,103.834 94.000 C 104.192 94.000,104.839 94.450,105.271 95.000 M137.029 103.828 C 135.552 105.305,135.653 110.428,137.183 111.666 C 140.088 114.019,142.080 109.864,140.188 105.400 C 139.221 103.117,138.232 102.625,137.029 103.828 M299.200 268.958 C 297.770 269.459,295.160 270.548,293.400 271.379 C 291.640 272.209,287.500 273.578,284.200 274.421 C 280.900 275.264,277.120 276.359,275.800 276.854 C 273.217 277.823,271.064 277.880,255.600 277.392 C 238.400 276.849,167.431 276.846,164.637 277.388 C 158.078 278.662,157.562 279.540,161.725 282.349 C 166.592 285.634,167.553 287.123,168.210 292.400 C 169.164 300.067,175.549 299.020,176.104 291.106 C 176.489 285.612,181.040 285.647,186.097 291.183 C 188.266 293.558,189.991 294.800,191.121 294.800 C 191.506 294.800,192.177 295.043,192.611 295.340 C 193.331 295.833,194.756 296.320,196.455 296.653 C 197.711 296.899,199.196 294.868,199.240 292.845 C 199.326 288.869,201.155 287.216,207.071 285.767 C 215.410 283.724,220.400 285.734,220.400 291.136 C 220.400 296.789,225.649 296.625,228.263 290.891 C 230.116 286.824,231.204 286.347,238.962 286.202 C 243.794 286.111,245.086 285.942,248.000 285.017 C 250.475 284.232,252.815 283.843,256.600 283.588 C 259.460 283.395,263.420 282.960,265.400 282.621 C 270.172 281.803,272.502 282.379,274.483 284.867 C 277.438 288.577,277.898 288.919,279.634 288.686 C 281.730 288.405,283.608 286.923,285.998 283.662 C 288.430 280.344,289.547 279.471,294.800 276.784 C 299.179 274.543,304.400 270.139,304.400 268.685 C 304.400 267.720,302.438 267.823,299.200 268.958 M136.800 277.950 C 131.745 279.039,133.488 281.653,140.059 282.835 C 147.604 284.192,156.606 280.661,150.900 278.583 C 148.814 277.823,139.360 277.399,136.800 277.950 M355.800 314.260 C 338.724 317.020,328.108 325.494,332.074 333.198 C 334.368 337.655,338.523 338.036,342.360 334.142 C 346.520 329.920,348.000 329.612,353.600 331.800 C 355.575 332.572,357.903 333.200,358.787 333.200 C 359.709 333.200,361.828 332.605,363.773 331.800 C 369.110 329.591,371.079 330.015,375.005 334.221 C 381.064 340.712,387.436 333.466,382.958 325.177 C 378.898 317.663,366.236 312.573,355.800 314.260 M33.671 316.402 C 28.118 317.578,20.054 323.589,17.615 328.371 C 13.789 335.870,20.208 341.310,25.402 334.972 C 28.393 331.322,31.085 330.898,36.800 333.176 C 40.593 334.689,42.136 334.693,45.864 333.200 C 51.709 330.859,53.490 331.140,57.660 335.056 C 65.280 342.213,69.229 333.040,62.425 323.985 C 58.118 318.253,43.339 314.355,33.671 316.402 M367.498 317.030 C 374.834 318.901,381.200 324.778,381.200 329.679 C 381.200 333.196,378.953 333.569,374.845 330.734 C 371.404 328.360,368.444 328.150,363.902 329.957 C 359.098 331.869,358.384 331.886,354.009 330.189 C 348.586 328.085,346.496 328.248,342.128 331.116 C 338.519 333.485,337.251 333.699,336.029 332.146 C 333.360 328.753,336.701 323.213,343.350 320.008 C 351.040 316.301,360.209 315.170,367.498 317.030 M50.200 318.997 C 57.218 320.948,62.779 326.190,62.796 330.871 C 62.806 333.503,61.477 333.684,57.449 331.600 C 53.396 329.503,51.038 329.434,46.287 331.272 C 42.226 332.843,40.306 332.857,36.600 331.343 C 32.107 329.509,28.649 329.674,24.966 331.900 C 21.023 334.282,19.596 334.101,19.604 331.220 C 19.614 327.216,25.920 320.943,32.195 318.694 C 34.828 317.750,46.417 317.945,50.200 318.997 M354.200 360.441 C 352.660 361.108,349.985 361.983,348.255 362.386 C 344.096 363.355,343.512 363.927,344.648 365.916 C 346.854 369.776,350.991 371.400,358.621 371.400 L 363.841 371.400 366.901 369.888 C 373.756 366.500,373.471 364.666,365.600 361.538 C 358.918 358.882,358.004 358.794,354.200 360.441 M37.800 361.447 C 36.260 362.027,33.575 362.931,31.834 363.457 C 26.929 364.937,26.341 366.126,29.178 368.825 C 34.566 373.950,48.602 373.776,53.211 368.527 C 55.429 366.000,54.900 364.999,50.603 363.588 C 49.065 363.083,46.859 362.252,45.702 361.740 C 42.436 360.295,41.002 360.242,37.800 361.447 M361.770 362.756 C 368.469 365.110,367.485 368.771,359.970 369.449 C 352.548 370.119,347.290 366.587,352.088 364.155 C 356.560 361.889,358.505 361.608,361.770 362.756 M44.894 363.995 C 49.620 365.763,50.613 367.849,47.443 369.353 C 40.776 372.517,28.542 369.011,34.300 365.587 C 38.267 363.228,41.533 362.737,44.894 363.995 " stroke="none" fill="#b4b4b4" fill-rule="evenodd"></path><path id="path5" d="M399.170 0.921 C 399.382 1.479,399.363 2.123,399.122 2.554 C 398.297 4.027,398.331 6.213,399.190 6.991 C 399.998 7.722,400.000 7.715,400.000 3.862 C 400.000 0.725,399.889 0.000,399.410 0.000 C 398.959 0.000,398.903 0.218,399.170 0.921 M398.502 17.725 C 396.720 20.342,397.111 26.582,399.232 29.402 C 399.399 29.622,399.611 30.432,399.703 31.202 C 399.796 31.971,399.901 28.955,399.936 24.500 C 400.003 15.963,399.932 15.624,398.502 17.725 M399.720 34.800 C 399.720 36.010,399.795 36.505,399.887 35.900 C 399.978 35.295,399.978 34.305,399.887 33.700 C 399.795 33.095,399.720 33.590,399.720 34.800 M399.600 39.967 C 399.600 40.388,399.461 40.793,399.292 40.867 C 399.122 40.940,398.544 42.440,398.008 44.200 C 396.578 48.887,394.349 52.792,393.100 52.797 C 392.715 52.799,392.400 53.070,392.400 53.400 C 392.400 53.730,392.228 54.000,392.019 54.000 C 391.440 54.000,390.804 56.732,390.808 59.200 C 390.811 61.739,391.145 63.281,391.625 62.984 C 391.809 62.871,392.079 63.415,392.225 64.195 C 392.372 64.974,392.725 65.744,393.010 65.906 C 393.295 66.068,393.622 67.010,393.735 68.000 C 393.849 68.990,394.240 70.970,394.604 72.400 C 396.053 78.086,396.139 79.162,395.556 84.397 C 394.824 90.986,394.969 96.937,396.003 102.701 C 397.013 108.331,397.094 109.094,397.592 117.770 C 397.806 121.494,398.165 124.725,398.390 124.950 C 398.616 125.176,398.800 125.828,398.800 126.400 C 398.800 126.972,398.969 127.611,399.175 127.820 C 399.381 128.029,399.619 129.010,399.705 130.000 C 399.790 130.990,399.892 110.965,399.930 85.500 C 399.969 60.035,399.910 39.200,399.800 39.200 C 399.690 39.200,399.600 39.545,399.600 39.967 M0.000 123.321 C 0.000 123.838,3.498 125.121,7.400 126.035 C 8.509 126.295,13.411 126.559,18.400 126.629 C 52.364 127.100,79.800 127.143,100.000 126.755 C 117.458 126.420,124.855 126.422,129.130 126.761 C 133.900 127.141,135.933 127.111,141.257 126.582 C 146.437 126.068,148.429 126.032,151.727 126.392 C 153.967 126.636,165.340 127.007,177.000 127.215 C 188.660 127.423,206.513 127.754,216.673 127.950 C 227.387 128.156,240.491 128.158,247.873 127.953 C 264.381 127.496,271.335 128.038,281.695 130.588 C 297.800 134.551,313.356 144.403,319.676 154.642 C 330.216 171.715,333.326 183.554,328.532 188.348 L 327.169 189.711 321.520 189.424 C 315.197 189.103,313.425 188.600,309.374 185.975 C 308.040 185.110,305.690 183.975,304.151 183.451 C 300.492 182.207,299.370 181.604,296.766 179.485 C 293.094 176.496,292.351 176.242,288.416 176.631 C 281.024 177.362,277.701 177.129,274.600 175.666 C 273.060 174.939,271.440 174.179,271.000 173.977 C 269.786 173.420,266.561 173.421,263.000 173.981 C 254.495 175.318,247.577 175.124,242.408 173.403 C 238.737 172.180,226.987 171.978,220.574 173.027 C 210.565 174.665,205.850 174.660,197.249 173.004 C 191.947 171.984,187.364 173.278,182.583 177.146 C 178.387 180.541,177.479 180.850,172.084 180.716 L 167.400 180.600 163.600 182.495 C 161.510 183.538,158.720 185.021,157.400 185.791 C 154.311 187.592,153.095 187.572,149.277 185.654 C 147.585 184.804,145.570 183.859,144.800 183.554 C 142.741 182.739,133.725 182.846,130.542 183.723 C 126.338 184.881,122.385 184.404,119.000 182.328 C 114.183 179.375,110.952 178.945,106.358 180.646 C 105.137 181.097,103.136 181.312,99.810 181.348 L 95.020 181.400 94.498 180.320 C 94.061 179.417,94.083 178.609,94.636 175.367 C 97.181 160.434,89.868 151.765,74.800 151.853 C 62.508 151.926,56.668 154.836,46.400 166.009 C 44.310 168.283,39.900 172.520,36.600 175.426 C 29.553 181.629,21.982 189.257,21.042 191.100 C 20.678 191.815,20.204 192.400,19.990 192.400 C 19.775 192.400,19.600 192.957,19.600 193.638 C 19.600 194.880,18.502 197.200,17.914 197.200 C 17.741 197.200,17.600 197.727,17.600 198.371 C 17.600 199.505,16.732 200.800,15.971 200.800 C 14.987 200.800,15.818 201.923,17.600 203.000 C 18.692 203.660,19.588 204.356,19.592 204.546 C 19.600 204.894,22.968 208.916,24.766 210.724 C 25.298 211.259,27.368 213.063,29.366 214.733 C 35.688 220.015,38.845 222.843,44.644 228.420 C 56.362 239.689,62.882 242.861,74.400 242.895 C 87.823 242.936,94.512 238.464,96.994 227.791 C 98.473 221.428,99.733 220.696,105.138 223.061 C 106.064 223.466,108.581 223.819,112.000 224.024 C 115.074 224.208,118.089 224.610,119.000 224.956 C 122.351 226.231,124.657 225.670,127.281 222.940 C 129.883 220.234,129.964 220.196,132.990 220.250 C 135.040 220.286,137.207 220.735,141.000 221.911 C 145.678 223.361,146.512 223.504,149.312 223.336 C 152.866 223.123,153.817 223.523,156.600 226.408 C 159.124 229.023,159.780 229.227,166.944 229.621 C 170.495 229.816,174.210 230.173,175.200 230.413 C 178.554 231.228,180.197 231.682,181.164 232.062 C 183.110 232.827,189.693 232.910,195.200 232.238 C 200.491 231.593,201.985 231.616,206.373 232.408 C 207.569 232.624,210.847 232.800,213.659 232.800 C 217.191 232.800,220.043 233.052,222.886 233.615 C 232.461 235.513,243.839 235.494,250.823 233.568 C 256.711 231.945,258.912 231.795,265.166 232.595 C 270.669 233.298,277.986 233.210,282.000 232.393 C 282.990 232.191,285.420 231.737,287.400 231.384 C 291.466 230.658,294.099 229.590,297.056 227.466 C 299.807 225.489,301.344 224.904,304.967 224.454 C 307.764 224.107,312.400 222.339,312.400 221.620 C 312.400 219.436,321.870 216.636,324.166 218.141 C 327.261 220.169,322.366 236.276,316.405 243.680 C 308.060 254.045,293.304 263.301,279.509 266.823 C 272.354 268.650,270.337 268.720,224.000 268.751 C 182.284 268.780,167.204 268.844,70.000 269.409 C 13.362 269.738,2.437 270.229,0.119 272.548 C -0.535 273.202,0.651 273.164,4.848 272.397 C 10.231 271.413,29.144 270.588,38.400 270.933 C 41.590 271.052,55.900 270.984,70.200 270.781 C 84.500 270.579,135.170 270.316,182.800 270.198 C 235.978 270.066,270.558 269.831,272.400 269.589 C 294.640 266.671,318.198 250.231,325.405 232.600 C 326.215 230.620,327.747 227.020,328.810 224.600 C 331.051 219.496,332.243 215.254,332.597 211.127 C 332.735 209.517,333.308 205.050,333.872 201.200 C 335.088 192.887,334.996 185.367,333.595 178.600 C 331.739 169.636,320.683 150.407,314.479 145.353 C 296.185 130.451,279.680 125.547,250.000 126.194 C 243.290 126.340,226.370 126.241,212.400 125.973 C 198.430 125.705,180.790 125.460,173.200 125.427 C 165.211 125.392,156.775 125.133,153.167 124.811 C 148.159 124.364,146.075 124.348,142.567 124.728 C 137.315 125.297,131.801 125.321,125.600 124.802 C 122.395 124.534,115.359 124.591,102.400 124.990 C 84.988 125.526,52.712 125.541,19.800 125.027 C 9.714 124.870,7.059 124.593,2.403 123.214 C 0.556 122.667,0.000 122.692,0.000 123.321 M82.470 155.155 C 88.881 157.639,92.428 166.108,90.049 173.252 C 89.132 176.005,84.650 184.145,81.655 188.495 C 75.659 197.206,75.630 197.920,80.997 204.600 C 96.103 223.398,95.589 236.006,79.563 239.784 C 67.441 242.641,57.583 237.869,43.238 222.200 C 29.936 207.670,28.479 205.342,28.099 198.000 C 27.724 190.739,29.664 187.223,39.798 176.800 C 43.541 172.950,47.953 168.292,49.602 166.450 C 55.399 159.972,61.470 155.943,67.400 154.637 C 71.569 153.719,79.462 153.990,82.470 155.155 M238.400 186.738 C 242.470 186.984,246.610 187.352,247.600 187.554 C 248.590 187.756,251.151 188.302,253.292 188.766 C 256.683 189.502,257.636 189.559,260.692 189.208 C 267.462 188.433,269.683 188.708,276.445 191.159 C 278.987 192.080,280.372 192.179,285.200 191.785 C 296.728 190.843,301.221 199.958,292.530 206.656 C 290.858 207.945,288.517 209.889,287.328 210.974 C 283.561 214.415,280.624 216.039,277.181 216.584 C 276.201 216.739,274.158 217.227,272.641 217.668 C 269.358 218.621,265.446 218.254,263.400 216.800 C 261.317 215.320,257.440 215.559,253.400 217.416 C 247.569 220.096,247.345 220.137,237.600 220.324 C 225.404 220.558,221.555 220.460,220.877 219.898 C 220.488 219.575,217.782 219.413,212.255 219.383 L 204.200 219.338 201.076 218.070 C 197.061 216.439,194.492 216.140,191.400 216.943 C 186.431 218.233,184.698 217.830,182.344 214.837 C 179.015 210.605,178.898 208.714,181.600 202.800 C 182.700 200.392,183.600 198.226,183.600 197.987 C 183.600 192.328,193.799 187.358,201.213 189.404 C 207.022 191.007,209.781 190.972,215.200 189.226 C 225.495 185.909,225.220 185.939,238.400 186.738 M399.469 238.300 C 398.844 239.354,398.777 242.832,399.365 243.671 C 399.967 244.531,400.000 244.407,400.000 241.289 C 400.000 238.193,399.892 237.587,399.469 238.300 M398.702 261.118 C 396.323 264.712,396.548 273.365,399.087 275.918 L 400.000 276.836 400.000 268.218 C 400.000 263.478,399.934 259.600,399.853 259.600 C 399.772 259.600,399.254 260.283,398.702 261.118 M-0.000 388.899 C -0.000 390.922,0.079 391.093,1.300 391.732 C 2.015 392.106,3.500 393.128,4.600 394.003 C 7.409 396.238,11.182 398.442,12.600 398.677 C 13.260 398.786,14.007 399.046,14.261 399.254 C 14.524 399.471,14.782 399.480,14.861 399.276 C 14.941 399.071,16.358 399.106,18.200 399.359 C 20.491 399.675,73.704 399.800,205.600 399.800 L 389.800 399.800 390.683 398.917 C 391.169 398.431,392.299 397.660,393.194 397.203 C 394.089 396.746,395.815 395.473,397.029 394.374 C 398.243 393.275,399.408 392.481,399.618 392.611 C 399.846 392.752,400.000 391.766,400.000 390.162 L 400.000 387.476 399.118 388.238 C 398.633 388.657,397.813 389.406,397.297 389.903 C 393.893 393.176,389.504 395.443,385.433 396.031 C 377.712 397.147,323.334 397.848,308.600 397.022 C 303.902 396.758,298.614 396.682,296.600 396.848 C 294.620 397.012,284.090 397.132,273.200 397.115 C 247.198 397.074,242.411 397.143,236.162 397.650 C 232.324 397.961,229.330 397.949,224.962 397.605 C 221.170 397.307,211.429 397.173,198.200 397.237 C 182.390 397.315,176.870 397.216,175.190 396.826 C 173.341 396.397,172.035 396.416,167.190 396.941 C 160.276 397.690,132.694 397.591,121.200 396.775 C 116.332 396.430,112.926 396.394,110.017 396.657 C 107.359 396.898,104.008 396.894,100.821 396.648 C 97.337 396.378,93.793 396.401,89.204 396.723 C 85.572 396.978,77.830 397.200,72.000 397.215 C 66.170 397.231,60.950 397.301,60.400 397.370 C 59.850 397.439,57.600 397.248,55.400 396.946 C 53.200 396.644,48.520 396.410,45.000 396.425 C 17.900 396.543,11.013 395.170,2.600 387.976 C 0.656 386.313,0.000 386.546,-0.000 388.899 " stroke="none" fill="#3c3c37" fill-rule="evenodd"></path><path id="path6" d="M397.734 0.870 C 397.859 1.348,397.783 2.575,397.564 3.595 C 397.310 4.778,397.300 6.307,397.536 7.812 C 397.947 10.435,397.838 10.717,395.149 14.000 C 391.724 18.182,390.713 21.988,391.618 27.296 C 392.293 31.256,392.358 37.941,391.735 39.256 C 391.488 39.775,390.265 42.273,389.016 44.806 C 386.843 49.215,386.704 49.687,385.784 55.806 C 385.255 59.323,384.363 63.820,383.802 65.800 C 382.559 70.183,382.677 70.779,385.097 72.342 C 390.628 75.915,391.419 80.108,390.161 99.200 C 389.939 102.563,390.000 103.005,391.782 111.000 C 392.580 114.581,395.127 133.579,396.065 142.945 C 396.439 146.681,396.434 148.443,396.040 151.228 C 395.263 156.717,395.457 166.825,396.433 171.717 C 397.389 176.505,397.632 187.808,397.042 200.000 C 396.845 204.070,396.652 213.610,396.614 221.200 L 396.545 235.000 395.402 238.600 C 394.179 242.449,393.991 245.703,394.593 252.600 C 394.835 255.385,394.756 256.085,393.982 258.000 C 393.075 260.243,392.642 261.847,391.984 265.400 C 391.780 266.500,391.438 268.210,391.224 269.200 C 390.300 273.475,390.852 275.761,393.564 278.890 C 396.015 281.719,396.395 282.969,396.846 289.700 C 397.422 298.272,398.180 303.413,399.062 304.713 C 399.787 305.781,399.802 305.560,399.905 292.214 L 400.011 278.629 398.797 277.679 C 395.111 274.794,395.030 266.528,398.607 258.272 C 400.153 254.707,400.714 246.878,399.478 246.120 C 397.464 244.885,397.243 240.087,399.053 236.916 L 400.015 235.232 399.976 189.527 C 399.943 151.257,399.845 143.604,399.375 142.478 C 399.029 141.650,398.831 139.858,398.858 137.813 C 398.883 135.986,398.788 134.304,398.646 134.074 C 398.504 133.845,398.049 130.809,397.634 127.328 C 396.981 121.849,396.626 118.389,395.816 109.600 C 395.724 108.610,395.300 106.090,394.873 104.000 C 393.632 97.933,393.527 95.332,394.229 88.102 C 395.136 78.775,395.026 77.426,393.000 73.000 C 392.698 72.340,392.327 71.170,392.175 70.400 C 392.024 69.630,391.779 68.910,391.633 68.800 C 388.298 66.301,388.271 52.339,391.596 50.000 C 391.752 49.890,392.094 49.395,392.354 48.900 C 392.615 48.405,393.049 48.000,393.319 48.000 C 393.862 48.000,394.002 47.777,395.961 43.778 C 397.686 40.256,398.212 32.709,397.017 28.600 C 395.377 22.958,396.091 17.751,398.841 15.300 C 400.375 13.933,400.612 8.278,399.190 6.991 C 398.333 6.215,398.296 4.104,399.113 2.548 C 399.620 1.582,399.032 -0.000,398.166 -0.000 C 397.686 -0.000,397.569 0.236,397.734 0.870 M37.738 41.752 C 36.131 43.134,35.803 47.936,37.247 48.948 C 38.329 49.706,44.336 49.876,45.626 49.186 C 47.233 48.326,46.341 42.239,44.460 41.232 C 42.891 40.393,38.965 40.696,37.738 41.752 M355.018 41.700 C 352.586 43.833,352.848 48.948,355.414 49.429 C 357.668 49.852,362.822 49.409,363.235 48.757 C 364.395 46.926,363.163 41.870,361.393 41.197 C 359.424 40.449,356.151 40.707,355.018 41.700 M0.000 121.733 C 0.000 123.130,7.159 124.108,20.000 124.464 C 40.619 125.035,79.781 125.182,96.200 124.751 C 118.137 124.175,122.064 124.153,130.061 124.558 C 135.324 124.826,138.417 124.781,142.205 124.384 C 146.479 123.935,148.188 123.939,152.944 124.404 C 156.341 124.736,164.270 124.985,172.800 125.027 C 180.610 125.065,198.250 125.305,212.000 125.560 C 225.750 125.815,244.020 125.977,252.600 125.921 C 269.422 125.811,271.229 125.955,281.350 128.224 C 298.050 131.966,314.595 142.387,322.170 153.934 C 334.645 172.949,337.317 184.020,334.449 204.800 C 332.992 215.361,332.433 217.766,330.314 222.600 C 329.445 224.580,327.966 228.000,327.025 230.200 C 323.362 238.769,321.047 242.176,314.223 249.043 C 303.335 260.000,286.413 268.343,271.800 269.959 C 269.600 270.203,232.742 270.471,177.000 270.649 C 126.840 270.809,80.850 270.982,74.800 271.033 C 25.208 271.453,11.885 271.640,9.800 271.947 C 8.480 272.140,5.735 272.542,3.700 272.838 C 1.665 273.134,-0.000 273.517,-0.000 273.688 C 0.000 274.159,2.688 274.065,7.486 273.425 C 16.072 272.282,88.920 271.567,214.000 271.399 C 276.330 271.316,273.410 271.420,281.837 268.978 C 301.071 263.404,319.542 249.373,326.563 235.000 C 338.269 211.038,339.969 201.661,336.344 181.026 C 334.994 173.336,330.874 164.478,323.404 153.200 C 315.180 140.785,298.024 130.288,280.000 126.644 C 270.491 124.722,268.786 124.605,251.800 124.721 C 243.000 124.780,225.810 124.621,213.600 124.367 C 201.390 124.113,184.110 123.864,175.200 123.814 C 165.247 123.758,157.247 123.525,154.453 123.209 C 150.118 122.718,145.567 122.784,137.413 123.454 C 135.654 123.599,131.373 123.480,127.854 123.188 C 122.526 122.746,118.983 122.751,106.241 123.217 C 74.674 124.371,10.868 123.628,4.475 122.031 C 0.574 121.056,0.000 121.018,0.000 121.733 M69.295 154.818 C 62.092 156.108,56.255 159.847,49.338 167.600 C 47.867 169.250,43.892 173.480,40.506 177.000 C 28.175 189.820,26.026 197.081,31.626 207.000 C 33.888 211.007,48.065 227.133,52.916 231.216 C 62.235 239.060,74.848 241.711,83.140 237.567 C 94.690 231.795,93.875 222.464,80.345 205.578 C 75.014 198.926,74.687 196.747,78.232 191.536 C 84.215 182.740,85.725 180.387,87.151 177.633 C 94.579 163.290,85.655 151.888,69.295 154.818 M80.268 157.643 C 83.442 159.216,84.922 162.506,83.421 164.648 C 82.910 165.379,82.274 165.505,77.921 165.737 C 66.671 166.338,64.933 167.287,58.374 176.400 C 50.611 187.185,46.578 192.004,43.059 194.700 C 37.129 199.244,37.188 199.681,44.871 208.032 C 52.596 216.428,59.162 226.095,59.191 229.113 C 59.238 233.984,48.215 224.490,37.709 210.611 C 31.083 201.858,30.836 191.317,37.084 183.936 C 46.930 172.303,57.919 161.748,62.764 159.269 C 65.429 157.906,66.548 157.509,70.200 156.634 C 72.416 156.104,78.367 156.700,80.268 157.643 M85.186 169.574 C 86.655 172.318,84.936 176.485,78.825 185.000 C 70.989 195.918,70.988 198.526,78.816 208.400 C 87.026 218.756,89.189 223.580,87.468 227.699 C 85.131 233.291,78.449 229.182,65.500 214.190 C 53.353 200.126,53.339 198.192,65.302 187.877 C 66.783 186.600,69.566 183.720,71.485 181.477 C 81.372 169.925,84.104 167.551,85.186 169.574 M72.567 171.043 C 74.157 171.653,73.031 173.404,66.616 180.303 C 64.524 182.553,62.626 184.000,61.768 184.000 C 60.572 184.000,63.863 177.320,66.692 174.006 C 68.462 171.932,71.237 170.532,72.567 171.043 M222.830 191.235 C 220.489 191.694,217.684 192.639,215.777 193.612 C 214.927 194.045,213.909 194.400,213.515 194.400 C 213.122 194.400,212.800 194.561,212.800 194.757 C 212.800 196.073,204.241 196.927,200.830 195.951 C 197.406 194.972,194.640 194.974,193.262 195.957 C 188.973 199.015,185.929 204.364,186.561 207.731 C 186.999 210.066,188.575 210.516,197.230 210.776 C 204.345 210.991,204.726 211.043,206.230 212.027 C 209.539 214.190,214.028 214.870,216.450 213.573 C 216.834 213.368,217.663 213.200,218.294 213.200 C 218.924 213.200,219.636 213.004,219.875 212.765 C 220.188 212.452,221.022 212.525,222.855 213.025 C 226.718 214.078,228.172 214.146,230.582 213.388 C 233.165 212.576,236.323 212.761,236.880 213.758 C 237.078 214.111,237.442 214.400,237.688 214.400 C 237.935 214.400,238.421 214.650,238.769 214.955 C 241.476 217.337,248.618 216.029,253.994 212.166 C 257.685 209.515,259.934 209.041,262.535 210.367 C 266.021 212.144,267.718 212.531,270.026 212.077 C 276.420 210.819,279.764 209.982,280.013 209.579 C 280.166 209.331,280.704 208.919,281.207 208.664 C 281.710 208.409,282.312 207.840,282.545 207.400 C 282.777 206.960,283.290 206.112,283.684 205.516 C 284.455 204.348,284.653 202.400,284.000 202.400 C 283.780 202.400,283.595 202.625,283.588 202.900 C 283.581 203.175,283.373 203.040,283.125 202.600 C 281.800 200.245,274.596 194.608,271.882 193.802 C 268.817 192.892,263.547 193.248,262.220 194.454 C 261.556 195.058,254.721 194.858,253.454 194.198 C 252.824 193.869,252.026 193.600,251.681 193.600 C 251.335 193.600,250.231 193.202,249.226 192.715 C 247.042 191.657,241.987 191.591,239.139 192.583 C 236.868 193.374,234.668 193.359,233.089 192.543 C 230.202 191.049,226.306 190.553,222.830 191.235 M67.054 224.301 C 69.286 225.900,70.173 227.110,69.610 227.788 C 68.487 229.142,65.828 227.974,64.592 225.585 C 63.358 223.199,64.606 222.548,67.054 224.301 M0.000 340.400 C 0.000 342.160,0.159 343.600,0.354 343.600 C 0.915 343.600,2.139 340.735,1.701 340.450 C 1.489 340.312,1.096 339.525,0.827 338.700 C 0.125 336.547,0.000 336.804,0.000 340.400 M355.682 341.219 C 353.948 341.915,352.756 347.796,354.080 349.120 C 354.841 349.881,362.960 349.771,363.607 348.991 C 364.264 348.200,363.839 343.824,362.978 342.510 C 361.926 340.905,358.135 340.235,355.682 341.219 M38.872 342.455 C 37.218 342.931,36.400 344.681,36.400 347.738 C 36.400 350.749,36.808 351.000,41.693 351.000 C 46.501 351.000,47.017 350.625,46.607 347.433 C 45.988 342.607,43.624 341.086,38.872 342.455 M0.050 355.000 C 0.068 360.193,0.215 363.638,0.388 362.910 C 0.557 362.201,1.001 361.153,1.375 360.582 C 2.387 359.038,3.478 355.894,3.869 353.400 C 3.999 352.571,3.940 352.368,3.678 352.743 C 3.189 353.445,3.026 353.116,2.377 350.107 C 2.080 348.736,1.722 347.802,1.581 348.031 C 1.439 348.260,1.030 347.852,0.671 347.124 C 0.049 345.862,0.020 346.231,0.050 355.000 M7.353 349.543 C 7.158 349.684,6.744 350.295,6.432 350.900 C 6.120 351.505,5.625 352.000,5.332 352.000 C 4.630 352.000,4.638 353.963,5.341 354.233 C 5.639 354.347,6.299 355.331,6.809 356.420 C 7.319 357.509,7.886 358.400,8.068 358.400 C 8.251 358.400,8.400 358.632,8.400 358.917 C 8.400 359.399,11.190 360.944,11.500 360.633 C 12.024 360.109,11.631 353.187,11.002 351.861 C 10.136 350.035,8.291 348.863,7.353 349.543 M12.562 364.539 C 13.390 368.950,20.659 377.147,27.304 381.163 C 36.439 386.683,52.940 384.790,58.192 377.621 C 59.741 375.506,58.996 375.405,53.351 376.967 C 36.891 381.521,23.475 377.876,15.173 366.595 C 12.367 362.782,12.209 362.658,12.562 364.539 M0.028 381.473 C 0.001 385.362,0.041 385.558,0.900 385.817 C 1.395 385.966,2.340 386.569,3.000 387.156 C 11.154 394.411,18.618 395.911,45.200 395.635 C 48.830 395.598,53.600 395.799,55.800 396.083 C 58.862 396.479,63.318 396.526,74.800 396.283 C 99.959 395.751,115.914 395.676,122.000 396.060 C 132.965 396.752,161.957 396.854,167.754 396.221 C 171.529 395.809,173.561 395.759,175.000 396.044 C 176.677 396.377,188.013 396.563,230.600 396.957 C 233.020 396.980,238.870 396.788,243.600 396.532 C 248.330 396.276,253.640 396.201,255.400 396.366 C 257.160 396.530,266.880 396.585,277.000 396.488 C 287.120 396.390,298.190 396.322,301.600 396.335 C 308.892 396.363,345.254 396.802,347.000 396.883 C 347.660 396.913,350.630 396.813,353.600 396.661 C 356.570 396.508,364.310 396.199,370.800 395.975 C 388.872 395.351,391.657 394.656,396.333 389.608 C 400.191 385.442,400.000 385.779,400.000 383.156 C 400.000 380.215,399.494 380.380,397.461 383.987 C 392.130 393.446,386.951 394.256,333.000 394.070 C 319.360 394.023,305.410 393.977,302.000 393.968 C 298.590 393.959,287.610 394.038,277.600 394.145 C 267.590 394.252,257.780 394.191,255.800 394.010 C 253.742 393.823,248.687 393.856,244.000 394.088 C 232.913 394.637,230.537 394.650,210.000 394.272 C 200.210 394.092,186.620 393.949,179.800 393.954 C 128.984 393.989,127.741 393.977,121.000 393.363 C 116.801 392.981,113.512 392.868,112.400 393.068 C 111.410 393.246,106.010 393.418,100.400 393.451 C 94.790 393.484,83.706 393.640,75.769 393.799 C 63.911 394.036,60.237 393.974,55.169 393.454 C 51.525 393.080,43.188 392.731,34.800 392.600 C 20.850 392.382,17.059 392.099,14.005 391.047 C 8.794 389.251,2.220 383.290,0.606 378.895 C 0.076 377.454,0.055 377.546,0.028 381.473 " stroke="none" fill="#494947" fill-rule="evenodd"></path><path id="path7" d="M398.735 15.375 C 396.074 17.855,395.401 23.040,397.017 28.600 C 398.212 32.709,397.686 40.256,395.961 43.778 C 394.002 47.777,393.862 48.000,393.319 48.000 C 393.049 48.000,392.615 48.405,392.354 48.900 C 392.094 49.395,391.752 49.890,391.596 50.000 C 388.271 52.339,388.298 66.301,391.633 68.800 C 391.779 68.910,392.024 69.630,392.175 70.400 C 392.327 71.170,392.698 72.340,393.000 73.000 C 395.026 77.426,395.136 78.775,394.229 88.102 C 393.527 95.332,393.632 97.933,394.873 104.000 C 395.300 106.090,395.724 108.610,395.816 109.600 C 396.626 118.389,396.981 121.849,397.634 127.328 C 398.049 130.809,398.504 133.845,398.646 134.074 C 398.788 134.304,398.883 135.987,398.858 137.815 C 398.828 140.030,399.017 141.583,399.423 142.470 C 399.988 143.703,400.021 143.239,399.872 136.076 C 399.768 131.028,399.554 128.194,399.256 127.896 C 399.005 127.645,398.800 126.972,398.800 126.400 C 398.800 125.828,398.616 125.176,398.390 124.950 C 398.165 124.725,397.806 121.494,397.592 117.770 C 397.094 109.094,397.013 108.331,396.003 102.701 C 394.969 96.937,394.824 90.986,395.556 84.397 C 396.139 79.162,396.053 78.086,394.604 72.400 C 394.240 70.970,393.849 68.990,393.735 68.000 C 393.622 67.010,393.295 66.068,393.010 65.906 C 392.725 65.744,392.372 64.974,392.225 64.195 C 392.079 63.415,391.809 62.871,391.625 62.984 C 391.145 63.281,390.811 61.739,390.808 59.200 C 390.804 56.732,391.440 54.000,392.019 54.000 C 392.228 54.000,392.400 53.730,392.400 53.400 C 392.400 53.070,392.715 52.799,393.100 52.797 C 394.351 52.792,396.583 48.879,398.003 44.200 C 398.537 42.440,399.158 40.873,399.383 40.717 C 399.879 40.374,399.781 30.117,399.275 29.453 C 396.635 25.984,396.700 19.358,399.400 16.657 C 400.642 15.415,400.006 14.190,398.735 15.375 M1.800 123.007 C 7.582 124.754,8.880 124.860,25.800 124.971 C 37.978 125.051,40.089 125.006,34.000 124.795 C 29.490 124.638,22.200 124.483,17.800 124.450 C 11.487 124.402,8.999 124.220,6.000 123.585 C 0.757 122.475,-0.557 122.294,1.800 123.007 M109.600 124.394 C 103.790 124.658,104.017 124.674,113.200 124.650 C 118.590 124.635,126.780 124.735,131.400 124.870 C 137.532 125.050,138.126 125.035,133.600 124.816 C 121.210 124.216,115.681 124.119,109.600 124.394 M142.000 124.360 C 141.010 124.492,143.710 124.600,148.000 124.600 C 152.521 124.600,154.791 124.492,153.400 124.343 C 150.450 124.028,144.425 124.037,142.000 124.360 M49.000 125.200 L 42.600 125.431 49.000 125.464 C 52.520 125.483,58.730 125.373,62.800 125.221 L 70.200 124.944 62.800 124.957 C 58.730 124.963,52.520 125.073,49.000 125.200 M79.600 125.200 L 71.400 125.425 79.400 125.459 C 83.800 125.478,90.910 125.370,95.200 125.220 L 103.000 124.946 95.400 124.961 C 91.220 124.968,84.110 125.076,79.600 125.200 M157.500 125.093 C 158.435 125.177,159.965 125.177,160.900 125.093 C 161.835 125.009,161.070 124.940,159.200 124.940 C 157.330 124.940,156.565 125.009,157.500 125.093 M178.912 125.095 C 179.964 125.177,181.584 125.176,182.512 125.092 C 183.440 125.008,182.580 124.941,180.600 124.942 C 178.620 124.943,177.860 125.012,178.912 125.095 M166.100 125.498 C 168.025 125.571,171.175 125.571,173.100 125.498 C 175.025 125.425,173.450 125.365,169.600 125.365 C 165.750 125.365,164.175 125.425,166.100 125.498 M192.400 125.609 C 201.273 125.913,224.639 126.092,224.367 125.855 C 224.275 125.774,215.200 125.624,204.200 125.519 C 193.199 125.415,187.890 125.455,192.400 125.609 M254.700 125.898 C 256.515 125.972,259.485 125.972,261.300 125.898 C 263.115 125.823,261.630 125.763,258.000 125.763 C 254.370 125.763,252.885 125.823,254.700 125.898 M231.500 126.299 C 234.855 126.366,240.345 126.366,243.700 126.299 C 247.055 126.232,244.310 126.178,237.600 126.178 C 230.890 126.178,228.145 126.232,231.500 126.299 M265.900 126.289 C 266.615 126.378,267.785 126.378,268.500 126.289 C 269.215 126.201,268.630 126.128,267.200 126.128 C 265.770 126.128,265.185 126.201,265.900 126.289 M270.705 126.683 C 271.202 126.779,271.922 126.775,272.305 126.675 C 272.687 126.575,272.280 126.496,271.400 126.501 C 270.520 126.505,270.207 126.587,270.705 126.683 M277.800 127.824 C 279.120 128.121,280.470 128.352,280.800 128.335 C 281.738 128.288,277.522 127.276,276.400 127.279 C 275.850 127.281,276.480 127.526,277.800 127.824 M285.200 129.536 C 298.935 133.712,313.178 142.473,319.177 150.434 C 332.288 167.834,336.583 182.672,333.872 201.200 C 333.308 205.050,332.735 209.517,332.597 211.127 C 332.243 215.254,331.051 219.496,328.810 224.600 C 327.747 227.020,326.215 230.620,325.405 232.600 C 320.039 245.728,304.066 259.708,287.690 265.610 C 286.310 266.107,285.252 266.586,285.339 266.673 C 286.048 267.381,297.483 261.699,304.200 257.301 C 314.823 250.345,322.113 241.691,327.025 230.200 C 327.966 228.000,329.445 224.580,330.314 222.600 C 336.050 209.518,337.108 183.925,332.380 172.630 C 328.695 163.826,320.952 151.283,316.429 146.792 C 308.874 139.289,291.720 129.967,283.000 128.626 C 282.120 128.491,283.110 128.900,285.200 129.536 M67.400 154.637 C 61.470 155.943,55.399 159.972,49.602 166.450 C 47.953 168.292,43.541 172.950,39.798 176.800 C 29.664 187.223,27.724 190.739,28.099 198.000 C 28.479 205.342,29.936 207.670,43.238 222.200 C 57.583 237.869,67.441 242.641,79.563 239.784 C 95.589 236.006,96.103 223.398,80.997 204.600 C 75.630 197.920,75.659 197.206,81.655 188.495 C 91.994 173.475,93.363 164.404,86.321 157.570 C 83.033 154.379,74.546 153.063,67.400 154.637 M81.200 155.382 C 89.770 158.473,92.258 167.773,87.151 177.633 C 85.725 180.387,84.215 182.740,78.232 191.536 C 74.687 196.747,75.014 198.926,80.345 205.578 C 93.875 222.464,94.690 231.795,83.140 237.567 C 74.848 241.711,62.235 239.060,52.916 231.216 C 48.065 227.133,33.888 211.007,31.626 207.000 C 26.026 197.081,28.175 189.820,40.506 177.000 C 43.892 173.480,47.867 169.250,49.338 167.600 C 59.318 156.412,71.309 151.814,81.200 155.382 M399.731 164.600 C 399.733 166.140,399.805 166.721,399.892 165.891 C 399.979 165.061,399.977 163.801,399.889 163.091 C 399.800 162.381,399.729 163.060,399.731 164.600 M69.692 171.646 C 66.384 173.284,59.510 184.000,61.768 184.000 C 62.626 184.000,64.524 182.553,66.616 180.303 C 73.031 173.404,74.157 171.653,72.567 171.043 C 71.661 170.695,71.579 170.712,69.692 171.646 M225.200 186.499 C 223.148 186.794,220.554 187.501,215.200 189.226 C 209.781 190.972,207.022 191.007,201.213 189.404 C 193.799 187.358,183.600 192.328,183.600 197.987 C 183.600 198.226,182.700 200.392,181.600 202.800 C 178.898 208.714,179.015 210.605,182.344 214.837 C 184.698 217.830,186.431 218.233,191.400 216.943 C 194.492 216.140,197.061 216.439,201.076 218.070 L 204.200 219.338 212.255 219.383 C 217.782 219.413,220.488 219.575,220.877 219.898 C 221.555 220.460,225.404 220.558,237.600 220.324 C 247.345 220.137,247.569 220.096,253.400 217.416 C 257.440 215.559,261.317 215.320,263.400 216.800 C 265.446 218.254,269.358 218.621,272.641 217.668 C 274.158 217.227,276.201 216.739,277.181 216.584 C 280.624 216.039,283.561 214.415,287.328 210.974 C 288.517 209.889,290.858 207.945,292.530 206.656 C 301.221 199.958,296.728 190.843,285.200 191.785 C 280.372 192.179,278.987 192.080,276.445 191.159 C 269.683 188.708,267.462 188.433,260.692 189.208 C 257.636 189.559,256.683 189.502,253.292 188.766 C 251.151 188.302,248.590 187.756,247.600 187.554 C 246.017 187.231,234.160 186.381,229.200 186.236 C 228.210 186.207,226.410 186.326,225.200 186.499 M229.609 191.357 C 230.824 191.648,232.391 192.181,233.089 192.543 C 234.668 193.359,236.868 193.374,239.139 192.583 C 241.987 191.591,247.042 191.657,249.226 192.715 C 250.231 193.202,251.335 193.600,251.681 193.600 C 252.026 193.600,252.824 193.869,253.454 194.198 C 254.721 194.858,261.556 195.058,262.220 194.454 C 263.547 193.248,268.817 192.892,271.882 193.802 C 274.596 194.608,281.800 200.245,283.125 202.600 C 283.373 203.040,283.581 203.175,283.588 202.900 C 283.595 202.625,283.780 202.400,284.000 202.400 C 284.653 202.400,284.455 204.348,283.684 205.516 C 283.290 206.112,282.777 206.960,282.545 207.400 C 282.312 207.840,281.710 208.409,281.207 208.664 C 280.704 208.919,280.166 209.331,280.013 209.579 C 279.764 209.982,276.420 210.819,270.026 212.077 C 267.718 212.531,266.021 212.144,262.535 210.367 C 259.934 209.041,257.685 209.515,253.994 212.166 C 248.618 216.029,241.476 217.337,238.769 214.955 C 238.421 214.650,237.935 214.400,237.688 214.400 C 237.442 214.400,237.078 214.111,236.880 213.758 C 236.323 212.761,233.165 212.576,230.582 213.388 C 228.172 214.146,226.718 214.078,222.855 213.025 C 221.022 212.525,220.188 212.452,219.875 212.765 C 219.636 213.004,218.924 213.200,218.294 213.200 C 217.663 213.200,216.834 213.368,216.450 213.573 C 214.028 214.870,209.539 214.190,206.230 212.027 C 204.726 211.043,204.345 210.991,197.230 210.776 C 188.575 210.516,186.999 210.066,186.561 207.731 C 185.929 204.364,188.973 199.015,193.262 195.957 C 194.640 194.974,197.406 194.972,200.830 195.951 C 204.241 196.927,212.800 196.073,212.800 194.757 C 212.800 194.561,213.122 194.400,213.515 194.400 C 213.909 194.400,214.927 194.045,215.777 193.612 C 220.532 191.188,225.510 190.376,229.609 191.357 M64.000 223.855 C 64.000 224.829,65.120 226.679,66.246 227.565 C 68.434 229.286,70.946 228.065,69.159 226.149 C 66.981 223.815,64.000 222.490,64.000 223.855 M398.950 237.043 C 397.268 240.123,397.584 245.448,399.491 246.180 C 400.222 246.460,400.137 244.773,399.365 243.671 C 398.687 242.703,398.887 239.098,399.674 238.124 C 399.885 237.862,400.000 237.162,399.929 236.568 C 399.802 235.501,399.789 235.507,398.950 237.043 M398.494 258.504 C 394.895 267.061,395.158 275.282,399.113 277.909 C 400.379 278.749,400.358 277.197,399.087 275.918 C 396.447 273.263,396.323 264.605,398.872 260.896 C 399.836 259.495,400.022 258.856,399.922 257.296 L 399.800 255.400 398.494 258.504 M281.800 267.600 C 281.296 267.817,281.222 267.944,281.600 267.944 C 281.930 267.944,282.560 267.789,283.000 267.600 C 283.504 267.383,283.578 267.256,283.200 267.256 C 282.870 267.256,282.240 267.411,281.800 267.600 M275.000 269.200 C 273.922 269.474,273.902 269.506,274.800 269.513 C 275.350 269.517,276.250 269.376,276.800 269.200 C 278.144 268.769,276.692 268.769,275.000 269.200 M271.505 269.883 C 272.002 269.979,272.722 269.975,273.105 269.875 C 273.487 269.775,273.080 269.696,272.200 269.701 C 271.320 269.705,271.007 269.787,271.505 269.883 M138.700 270.289 C 139.415 270.378,140.585 270.378,141.300 270.289 C 142.015 270.201,141.430 270.128,140.000 270.128 C 138.570 270.128,137.985 270.201,138.700 270.289 M187.100 270.300 C 199.475 270.359,219.725 270.359,232.100 270.300 C 244.475 270.241,234.350 270.193,209.600 270.193 C 184.850 270.193,174.725 270.241,187.100 270.300 M264.500 270.294 C 265.545 270.376,267.255 270.376,268.300 270.294 C 269.345 270.212,268.490 270.144,266.400 270.144 C 264.310 270.144,263.455 270.212,264.500 270.294 M98.329 270.700 C 104.999 270.761,115.799 270.761,122.329 270.700 C 128.858 270.638,123.400 270.588,110.200 270.588 C 97.000 270.588,91.658 270.638,98.329 270.700 M149.700 270.698 C 152.065 270.769,155.935 270.769,158.300 270.698 C 160.665 270.628,158.730 270.570,154.000 270.570 C 149.270 270.570,147.335 270.628,149.700 270.698 M29.721 271.098 C 31.877 271.171,35.297 271.170,37.321 271.098 C 39.344 271.025,37.580 270.966,33.400 270.967 C 29.220 270.967,27.564 271.026,29.721 271.098 M56.100 271.098 C 58.025 271.171,61.175 271.171,63.100 271.098 C 65.025 271.025,63.450 270.965,59.600 270.965 C 55.750 270.965,54.175 271.025,56.100 271.098 M74.500 271.097 C 76.205 271.172,78.995 271.172,80.700 271.097 C 82.405 271.022,81.010 270.961,77.600 270.961 C 74.190 270.961,72.795 271.022,74.500 271.097 M15.919 271.498 C 17.744 271.572,20.624 271.572,22.319 271.497 C 24.014 271.422,22.520 271.361,19.000 271.362 C 15.480 271.362,14.094 271.424,15.919 271.498 M44.915 271.496 C 46.188 271.576,48.168 271.575,49.315 271.494 C 50.462 271.414,49.420 271.349,47.000 271.350 C 44.580 271.351,43.642 271.416,44.915 271.496 M9.105 271.883 C 9.602 271.979,10.322 271.975,10.705 271.875 C 11.087 271.775,10.680 271.696,9.800 271.701 C 8.920 271.705,8.607 271.787,9.105 271.883 M0.000 386.101 C 0.000 386.406,0.530 386.913,1.178 387.228 C 1.825 387.543,3.835 388.860,5.643 390.155 C 13.048 395.459,19.801 396.535,45.000 396.425 C 48.520 396.410,53.200 396.644,55.400 396.946 C 57.600 397.248,59.850 397.439,60.400 397.370 C 60.950 397.301,66.170 397.231,72.000 397.215 C 77.830 397.200,85.572 396.978,89.204 396.723 C 93.793 396.401,97.337 396.378,100.821 396.648 C 104.008 396.894,107.359 396.898,110.017 396.657 C 112.926 396.394,116.332 396.430,121.200 396.775 C 132.694 397.591,160.276 397.690,167.190 396.941 C 172.035 396.416,173.341 396.397,175.190 396.826 C 176.870 397.216,182.390 397.315,198.200 397.237 C 211.429 397.173,221.170 397.307,224.962 397.605 C 229.330 397.949,232.324 397.961,236.162 397.650 C 242.411 397.143,247.198 397.074,273.200 397.115 C 284.090 397.132,294.620 397.012,296.600 396.848 C 298.614 396.682,303.902 396.758,308.600 397.022 C 332.774 398.378,384.867 396.938,390.033 394.771 C 393.631 393.262,400.000 388.127,400.000 386.735 C 400.000 385.684,399.696 385.811,398.266 387.459 C 391.906 394.791,390.253 395.303,370.800 395.975 C 364.310 396.199,356.570 396.508,353.600 396.661 C 350.630 396.813,347.660 396.913,347.000 396.883 C 345.254 396.802,308.892 396.363,301.600 396.335 C 298.190 396.322,287.120 396.390,277.000 396.488 C 266.880 396.585,257.160 396.530,255.400 396.366 C 253.640 396.201,248.330 396.276,243.600 396.532 C 238.870 396.788,233.020 396.980,230.600 396.957 C 188.013 396.563,176.677 396.377,175.000 396.044 C 173.561 395.759,171.529 395.809,167.754 396.221 C 161.957 396.854,132.965 396.752,122.000 396.060 C 115.914 395.676,99.959 395.751,74.800 396.283 C 63.318 396.526,58.862 396.479,55.800 396.083 C 53.600 395.799,48.830 395.598,45.200 395.635 C 18.618 395.911,11.154 394.411,3.000 387.156 C 1.523 385.842,0.000 385.306,0.000 386.101 " stroke="none" fill="#3c443c" fill-rule="evenodd"></path><path id="path8" d="M0.000 1.200 C 0.000 2.709,0.187 2.709,0.940 1.200 C 1.501 0.075,1.491 0.000,0.769 0.000 C 0.181 0.000,0.000 0.283,0.000 1.200 M393.734 2.125 C 394.052 5.802,392.598 7.870,388.074 10.173 C 382.963 12.774,382.190 14.964,384.218 21.105 C 388.055 32.729,387.856 36.064,382.891 43.346 L 380.200 47.293 380.358 49.946 C 381.027 61.170,380.475 63.392,375.786 68.349 C 364.842 79.919,343.813 77.383,336.402 63.600 C 334.863 60.738,334.586 57.205,335.374 50.512 C 336.224 43.291,327.260 40.269,324.612 46.886 C 322.431 52.339,323.361 58.021,327.966 67.357 C 332.080 75.700,332.928 77.741,333.570 80.847 C 334.311 84.431,334.660 84.716,337.293 83.886 C 340.023 83.026,341.686 83.023,345.321 83.874 C 351.036 85.211,368.275 84.527,373.706 82.748 C 377.810 81.404,378.818 81.353,381.074 82.377 C 388.250 85.635,385.185 100.618,375.863 107.851 C 371.792 111.011,371.600 111.293,371.602 114.121 C 371.606 118.822,373.689 119.946,378.442 117.814 C 382.757 115.877,384.387 117.456,384.413 123.600 C 384.421 125.470,384.695 128.440,385.021 130.200 C 386.125 136.164,386.426 139.782,386.415 147.000 C 386.409 150.960,386.594 155.612,386.826 157.337 C 387.166 159.862,387.121 161.306,386.595 164.737 C 385.994 168.657,385.993 169.241,386.582 172.000 C 388.608 181.497,389.162 193.398,387.841 199.071 C 387.268 201.530,386.794 204.500,386.787 205.671 C 386.771 208.260,386.270 211.994,385.403 215.982 C 384.780 218.849,384.789 219.129,385.620 223.182 C 387.011 229.960,386.644 236.059,384.514 241.600 C 383.626 243.910,382.687 247.042,382.427 248.559 C 381.900 251.643,381.158 253.286,378.599 257.023 C 377.635 258.431,376.572 260.532,376.237 261.692 C 375.902 262.851,375.267 265.071,374.826 266.624 C 373.737 270.454,372.236 272.393,368.809 274.395 C 366.190 275.924,364.951 277.174,362.282 280.975 C 361.241 282.458,359.522 283.209,355.776 283.815 C 346.237 285.359,341.759 292.719,346.930 298.353 C 349.060 300.675,349.583 301.542,350.242 303.855 C 351.777 309.239,355.424 307.316,363.288 296.974 C 365.195 294.466,371.486 288.495,373.137 287.626 C 374.392 286.965,375.776 287.368,378.090 289.066 C 379.492 290.095,380.713 290.594,382.638 290.924 C 387.369 291.734,388.885 295.317,390.793 310.200 C 391.315 314.270,391.749 316.740,392.518 320.000 C 395.691 333.457,394.567 337.931,386.863 342.514 C 380.890 346.066,379.781 347.986,381.000 352.665 C 385.052 368.223,366.656 380.008,348.061 373.766 C 337.572 370.245,332.687 362.754,335.153 353.968 C 336.536 349.040,336.371 347.811,334.029 345.553 C 330.117 341.783,326.476 341.941,324.396 345.972 C 322.562 349.527,325.741 362.966,329.613 368.026 C 330.528 369.222,332.781 372.195,334.620 374.633 C 338.445 379.705,339.547 380.576,344.805 382.686 C 353.827 386.306,354.543 388.758,346.600 388.828 C 316.162 389.098,312.098 388.873,305.158 386.531 L 300.915 385.100 295.887 386.567 C 287.577 388.991,266.326 389.590,254.217 387.741 C 249.745 387.058,246.560 387.192,239.200 388.373 C 233.057 389.358,201.019 389.186,193.800 388.128 C 189.064 387.435,182.424 387.347,169.574 387.807 C 161.892 388.082,161.667 388.067,157.330 386.979 L 152.912 385.871 149.356 386.980 L 145.800 388.089 135.200 387.883 C 124.065 387.667,121.384 387.307,115.437 385.226 C 112.411 384.168,112.623 384.150,108.305 385.837 L 104.627 387.274 99.000 386.993 C 94.265 386.757,92.837 386.830,89.987 387.456 C 87.217 388.064,84.996 388.193,77.800 388.164 C 60.711 388.094,58.575 386.543,66.643 380.064 C 76.699 371.987,78.944 368.943,78.581 363.877 C 78.391 361.215,78.495 359.277,78.959 356.856 C 80.102 350.890,79.872 339.585,78.576 338.044 C 76.417 335.479,74.571 335.872,70.913 339.677 C 62.990 347.918,62.510 348.787,63.207 353.648 C 65.399 368.940,50.728 379.516,33.814 374.837 C 22.255 371.639,17.381 364.270,18.950 352.363 C 19.384 349.072,18.982 348.129,15.385 344.000 C 6.797 334.142,7.702 328.872,19.800 318.276 C 27.720 311.339,28.317 309.840,24.301 306.966 C 19.196 303.312,18.956 302.532,22.235 300.255 C 33.499 292.435,28.423 280.294,15.200 283.428 C 11.171 284.383,7.358 282.961,5.894 279.958 C 3.970 276.011,10.584 275.038,39.800 274.969 C 47.060 274.952,62.000 274.740,73.000 274.498 C 91.631 274.088,186.550 273.506,247.000 273.430 L 273.400 273.398 277.600 272.336 C 301.558 266.280,321.987 251.605,330.688 234.200 C 331.898 231.780,334.126 227.640,335.638 225.000 C 343.219 211.768,343.998 203.969,339.988 181.475 C 338.523 173.254,337.898 171.422,334.871 166.478 C 333.565 164.345,331.559 160.756,330.412 158.502 C 325.382 148.612,319.923 141.990,314.200 138.837 C 312.440 137.867,308.570 135.582,305.600 133.759 C 297.652 128.882,293.578 127.156,285.528 125.259 C 273.789 122.492,271.220 122.325,238.000 122.184 C 221.830 122.114,204.640 121.867,199.800 121.634 C 194.960 121.401,184.222 121.208,175.937 121.205 C 163.881 121.201,159.888 121.062,155.937 120.511 C 149.868 119.664,145.115 119.624,139.517 120.373 C 135.659 120.890,134.648 120.878,129.317 120.252 C 124.161 119.648,122.166 119.612,113.800 119.974 C 108.520 120.202,99.970 120.569,94.800 120.788 C 75.299 121.616,11.419 120.660,7.400 119.479 C 4.640 118.669,3.108 118.038,2.401 117.419 C 0.630 115.872,0.000 116.202,0.000 118.678 L 0.000 121.010 4.100 121.952 C 11.436 123.638,73.671 124.409,106.241 123.217 C 118.984 122.751,122.526 122.746,127.854 123.188 C 131.373 123.480,135.654 123.599,137.413 123.454 C 145.567 122.784,150.118 122.718,154.453 123.209 C 157.247 123.525,165.247 123.758,175.200 123.814 C 184.110 123.864,201.390 124.113,213.600 124.367 C 225.810 124.621,243.000 124.780,251.800 124.721 C 268.786 124.605,270.491 124.722,280.000 126.644 C 298.024 130.288,315.180 140.785,323.404 153.200 C 330.874 164.478,334.994 173.336,336.344 181.026 C 339.969 201.661,338.269 211.038,326.563 235.000 C 319.542 249.373,301.071 263.404,281.837 268.978 C 273.410 271.420,276.330 271.316,214.000 271.399 C 88.920 271.567,16.072 272.282,7.486 273.425 C 5.114 273.741,2.459 274.000,1.586 274.000 L 0.000 274.000 0.000 305.287 C 0.000 337.984,0.065 339.309,1.722 340.450 C 2.138 340.736,0.895 343.600,0.354 343.600 C -0.223 343.600,-0.050 345.574,0.659 347.068 C 1.021 347.832,1.435 348.267,1.578 348.035 C 1.721 347.804,2.080 348.736,2.377 350.107 C 3.026 353.116,3.189 353.445,3.678 352.743 C 4.018 352.255,3.880 354.113,3.480 355.400 C 2.721 357.847,2.126 359.286,1.246 360.800 C -0.121 363.152,-0.578 375.278,0.571 378.681 C 2.308 383.819,9.947 390.261,15.800 391.521 C 19.534 392.325,20.592 392.385,34.800 392.603 C 43.222 392.733,51.510 393.079,55.169 393.454 C 60.237 393.974,63.911 394.036,75.769 393.799 C 83.706 393.640,94.790 393.484,100.400 393.451 C 106.010 393.418,111.410 393.246,112.400 393.068 C 113.512 392.868,116.801 392.981,121.000 393.363 C 127.741 393.977,128.984 393.989,179.800 393.954 C 186.620 393.949,200.210 394.092,210.000 394.272 C 230.537 394.650,232.913 394.637,244.000 394.088 C 248.687 393.856,253.742 393.823,255.800 394.010 C 257.780 394.191,267.590 394.252,277.600 394.145 C 287.610 394.038,298.590 393.959,302.000 393.968 C 305.410 393.977,319.360 394.023,333.000 394.070 C 386.951 394.256,392.130 393.446,397.461 383.987 C 398.148 382.770,398.999 381.532,399.354 381.238 C 400.502 380.286,400.322 306.404,399.169 304.843 C 398.182 303.509,397.454 298.763,396.846 289.700 C 396.395 282.969,396.015 281.719,393.564 278.890 C 390.852 275.761,390.300 273.475,391.224 269.200 C 391.438 268.210,391.780 266.500,391.984 265.400 C 392.642 261.847,393.075 260.243,393.982 258.000 C 394.756 256.085,394.835 255.385,394.593 252.600 C 393.991 245.703,394.179 242.449,395.402 238.600 L 396.545 235.000 396.614 221.200 C 396.652 213.610,396.845 204.070,397.042 200.000 C 397.632 187.808,397.389 176.505,396.433 171.717 C 395.457 166.825,395.263 156.717,396.040 151.228 C 396.434 148.443,396.439 146.681,396.065 142.945 C 395.127 133.579,392.580 114.581,391.782 111.000 C 390.000 103.005,389.939 102.563,390.161 99.200 C 391.419 80.108,390.628 75.915,385.097 72.342 C 382.677 70.779,382.559 70.183,383.802 65.800 C 384.363 63.820,385.255 59.323,385.784 55.806 C 386.704 49.687,386.843 49.215,389.016 44.806 C 390.265 42.273,391.488 39.775,391.735 39.256 C 392.358 37.941,392.293 31.256,391.618 27.296 C 390.713 21.988,391.724 18.182,395.149 14.000 C 397.838 10.717,397.947 10.435,397.536 7.812 C 397.300 6.307,397.310 4.778,397.564 3.595 C 398.206 0.599,397.867 0.000,395.528 0.000 L 393.550 0.000 393.734 2.125 M0.033 43.700 C 0.054 60.695,0.168 74.330,0.288 74.000 C 0.407 73.670,0.732 73.130,1.011 72.800 C 2.555 70.970,2.664 65.358,1.186 63.785 C 0.641 63.205,0.493 62.790,0.770 62.619 C 1.006 62.472,1.200 61.993,1.200 61.553 C 1.200 61.113,1.364 60.854,1.565 60.978 C 1.765 61.102,2.049 60.494,2.195 59.628 C 2.706 56.606,5.137 56.284,7.658 58.903 C 9.323 60.634,13.930 63.548,15.230 63.693 C 16.145 63.794,16.213 63.651,16.512 61.000 C 16.685 59.460,17.181 56.438,17.613 54.285 C 19.053 47.119,17.964 44.875,13.151 45.084 C 10.742 45.189,6.800 47.359,6.800 48.581 C 6.800 48.701,6.440 49.160,6.000 49.600 C 5.560 50.040,5.200 50.198,5.200 49.951 C 5.200 49.623,5.057 49.621,4.669 49.943 C 3.890 50.589,2.675 48.170,1.601 43.839 C 0.664 40.062,0.710 38.537,1.859 35.200 C 2.204 34.196,2.631 30.880,2.823 27.701 C 3.013 24.567,3.355 21.312,3.582 20.467 C 4.282 17.866,2.115 12.800,0.302 12.800 C 0.134 12.800,0.013 26.705,0.033 43.700 M30.963 35.641 C 30.349 36.320,30.163 37.303,30.001 40.741 C 29.806 44.867,29.754 45.066,28.313 47.125 C 26.548 49.649,26.171 51.263,26.800 53.600 C 27.992 58.027,30.869 58.676,36.545 55.797 C 38.600 54.755,40.641 54.000,41.400 54.000 C 42.159 54.000,44.200 54.755,46.255 55.797 C 55.031 60.247,60.028 53.963,53.839 46.260 C 52.664 44.797,52.592 44.500,52.401 40.327 C 52.125 34.293,51.650 33.964,45.885 35.805 C 44.171 36.352,42.153 36.800,41.400 36.800 C 40.647 36.800,38.629 36.352,36.915 35.805 C 33.101 34.587,31.946 34.555,30.963 35.641 M348.522 35.765 C 347.440 36.697,347.400 36.864,347.400 40.516 C 347.400 44.224,347.370 44.346,345.925 46.451 C 343.390 50.144,343.076 51.808,344.377 54.673 C 345.917 58.064,348.378 58.363,353.644 55.800 C 358.249 53.559,359.029 53.559,363.422 55.800 C 369.835 59.072,373.604 57.568,373.598 51.740 C 373.596 49.799,373.483 49.548,371.003 45.987 C 369.909 44.415,369.789 43.911,369.603 40.101 C 369.322 34.341,368.706 33.927,363.200 35.800 C 361.583 36.350,359.513 36.800,358.600 36.800 C 357.688 36.800,355.438 36.350,353.600 35.800 C 349.548 34.587,349.889 34.589,348.522 35.765 M44.460 41.232 C 46.341 42.239,47.233 48.326,45.626 49.186 C 44.336 49.876,38.329 49.706,37.247 48.948 C 35.803 47.936,36.131 43.134,37.738 41.752 C 38.965 40.696,42.891 40.393,44.460 41.232 M361.393 41.197 C 363.163 41.870,364.395 46.926,363.235 48.757 C 362.266 50.288,354.193 49.760,353.572 48.125 C 351.778 43.407,356.411 39.303,361.393 41.197 M65.559 46.513 C 63.605 47.827,63.510 50.264,65.218 55.292 C 66.895 60.230,67.155 60.469,68.753 58.531 C 73.785 52.430,71.204 42.719,65.559 46.513 M56.600 72.415 C 50.888 75.544,48.220 76.584,43.693 77.449 C 38.305 78.479,39.647 79.864,45.600 79.418 C 53.805 78.803,59.171 76.377,61.224 72.354 C 62.789 69.286,62.302 69.292,56.600 72.415 M362.229 102.629 C 360.369 104.488,362.612 110.035,364.983 109.440 C 367.088 108.912,367.118 106.426,365.056 103.303 C 364.117 101.880,363.197 101.661,362.229 102.629 M70.200 156.634 C 66.548 157.509,65.429 157.906,62.764 159.269 C 57.919 161.748,46.930 172.303,37.084 183.936 C 30.836 191.317,31.083 201.858,37.709 210.611 C 48.215 224.490,59.238 233.984,59.191 229.113 C 59.162 226.095,52.596 216.428,44.871 208.032 C 37.188 199.681,37.129 199.244,43.059 194.700 C 46.578 192.004,50.611 187.185,58.374 176.400 C 64.933 167.287,66.671 166.338,77.921 165.737 C 83.384 165.445,84.000 165.125,84.000 162.570 C 84.000 158.423,76.393 155.151,70.200 156.634 M78.970 173.100 C 76.772 175.465,73.404 179.235,71.485 181.477 C 69.566 183.720,66.783 186.600,65.302 187.877 C 53.339 198.192,53.353 200.126,65.500 214.190 C 78.449 229.182,85.131 233.291,87.468 227.699 C 89.189 223.580,87.026 218.756,78.816 208.400 C 70.988 198.526,70.989 195.918,78.825 185.000 C 84.936 176.485,86.655 172.318,85.186 169.574 C 84.321 167.958,83.108 168.646,78.970 173.100 M66.949 197.500 C 67.679 198.914,68.138 202.834,67.656 203.554 C 66.574 205.174,63.120 202.000,63.120 199.385 C 63.120 196.621,65.809 195.297,66.949 197.500 M38.422 304.256 C 35.052 307.286,36.836 310.000,42.196 310.000 C 46.148 310.000,46.993 308.172,44.537 304.931 C 42.102 301.717,41.340 301.633,38.422 304.256 M348.582 335.782 C 347.703 336.660,347.600 337.100,347.600 339.956 C 347.600 343.732,347.294 344.665,345.188 347.310 C 342.731 350.395,343.020 354.542,345.846 356.765 C 347.587 358.134,349.893 357.886,353.654 355.923 C 357.902 353.707,359.578 353.675,363.276 355.745 C 371.826 360.529,377.460 354.544,371.701 346.795 C 369.815 344.257,369.813 344.249,369.606 340.387 C 369.306 334.754,368.623 334.213,363.797 335.788 C 359.891 337.063,357.318 337.066,353.439 335.800 C 349.691 334.577,349.787 334.577,348.582 335.782 M46.600 337.010 C 43.108 338.198,39.921 338.260,36.904 337.200 C 31.587 335.331,30.202 336.269,30.197 341.742 C 30.193 345.559,30.041 346.045,27.966 348.911 C 26.513 350.916,26.223 352.393,26.804 354.815 C 27.840 359.137,30.991 359.920,36.400 357.200 C 40.653 355.062,42.028 355.075,46.435 357.296 C 50.831 359.513,52.630 359.556,54.691 357.496 C 57.137 355.050,57.214 351.463,54.883 348.489 C 52.844 345.888,52.617 345.192,52.608 341.511 C 52.596 336.325,51.353 335.394,46.600 337.010 M361.353 341.182 C 363.341 341.938,364.920 347.409,363.607 348.991 C 362.960 349.771,354.841 349.881,354.080 349.120 C 352.756 347.796,353.948 341.915,355.682 341.219 C 356.907 340.728,360.103 340.707,361.353 341.182 M43.732 342.430 C 45.476 342.914,46.185 344.148,46.607 347.433 C 47.017 350.625,46.501 351.000,41.693 351.000 C 36.808 351.000,36.400 350.749,36.400 347.738 C 36.400 342.893,38.895 341.087,43.732 342.430 M111.656 348.700 C 110.122 349.990,109.774 352.640,110.777 355.400 C 112.176 359.246,112.177 359.371,110.842 362.042 C 109.005 365.719,109.274 368.800,111.433 368.800 C 114.036 368.800,115.118 365.420,113.591 362.056 C 112.583 359.835,112.596 358.803,113.658 356.478 C 115.855 351.670,114.480 346.326,111.656 348.700 M9.448 349.905 C 11.162 350.849,12.787 359.346,11.500 360.633 C 11.190 360.944,8.400 359.399,8.400 358.917 C 8.400 358.632,8.251 358.400,8.068 358.400 C 7.886 358.400,7.319 357.509,6.809 356.420 C 6.299 355.331,5.639 354.347,5.341 354.233 C 4.638 353.963,4.630 352.000,5.332 352.000 C 5.625 352.000,6.120 351.505,6.432 350.900 C 7.334 349.150,7.798 348.997,9.448 349.905 M150.800 353.097 C 146.959 354.408,146.643 363.678,150.329 366.950 C 152.115 368.536,154.918 367.379,155.967 364.623 C 156.941 362.063,152.640 352.469,150.800 353.097 M15.173 366.595 C 23.475 377.876,36.891 381.521,53.351 376.967 C 58.996 375.405,59.741 375.506,58.192 377.621 C 52.940 384.790,36.439 386.683,27.304 381.163 C 20.659 377.147,13.390 368.950,12.562 364.539 C 12.209 362.658,12.367 362.782,15.173 366.595 M392.984 371.343 C 395.878 375.137,391.683 382.852,385.120 385.807 C 381.630 387.379,374.775 387.763,373.200 386.475 L 372.200 385.658 373.800 384.205 C 374.680 383.406,376.927 381.815,378.792 380.668 C 381.932 378.739,382.340 378.332,384.269 375.192 C 388.032 369.067,390.438 368.005,392.984 371.343 " stroke="none" fill="#5c5c54" fill-rule="evenodd"></path></g></svg>