<svg version="1.1" xmlns="http://www.w3.org/2000/svg" xmlns:xlink="http://www.w3.org/1999/xlink" width="500" height="500">
    <defs>
        <linearGradient id="guonoMhSbiGc" x1="0px" x2="500px" y1="0px" y2="500px" gradientUnits="userSpaceOnUse">
            <stop offset="0" stop-color="#BA4110" />
            <stop offset="1" stop-color="#D5711F" />
        </linearGradient>
        <linearGradient id="zElToKDgzdIm" x1="0px" x2="500px" y1="0px" y2="500px" gradientUnits="userSpaceOnUse">
            <stop offset="0" stop-color="#f5f7fa" />
            <stop offset="1" stop-color="#b8c6db" />
        </linearGradient>
    </defs>
    <g stroke="url(#evPksbqdkudg)" fill="url(#zElToKDgzdIm)">
        <path
            fill="url(#guonoMhSbiGc)"
            stroke="none"
            paint-order="stroke fill markers"
            d=" M 10 0 L 490 0 L 490 0 A 10 10 0 0 1 500 10 L 500 490 L 500 490 A 10 10 0 0 1 490 500 L 10 500 L 10 500 A 10 10 0 0 1 0 490 L 0 10 L 0 10.000000000000002 A 10 10 0 0 1 10 0 Z"
        />
        <path fill="url(#guonoMhSbiGc)" stroke="#912514" paint-order="fill stroke markers" d=" M 250 0 L 250 350" stroke-miterlimit="10" stroke-width="166.66" stroke-dasharray="" />
        <path fill="#BA4110" stroke="none" paint-order="fill stroke markers" d=" M 50 50 L 50 450 L 450 450 L 450 50 L 500 50 L 500 500 L 0 500 L 0 50 L 55 50" stroke-miterlimit="10" stroke-width="10" stroke-dasharray="" />
        <path
            fill="none"
            stroke="#f5f7fa"
            paint-order="fill stroke markers"
            d=" M 40 100 A 15 15 0 1 1 39.99999250000062 99.98500000249999 M 17.5 92.5 L 32.5 107.5 M 32.5 92.5 L 17.5 107.5"
            stroke-miterlimit="10"
            stroke-width="5"
            stroke-dasharray=""
        />
        <path
            fill="none"
            stroke="#f5f7fa"
            paint-order="fill stroke markers"
            d=" M 490 100 A 15 15 0 1 1 489.99999250000064 99.98500000249999 M 467.5 92.5 L 482.5 107.5 M 482.5 92.5 L 467.5 107.5"
            stroke-miterlimit="10"
            stroke-width="5"
            stroke-dasharray=""
        />
        <path
            fill="none"
            stroke="#f5f7fa"
            paint-order="fill stroke markers"
            d=" M 42.5 470 A 15 15 0 1 1 42.49999250000062 469.9850000025 M 20 462.5 L 35 477.5 M 35 462.5 L 20 477.5"
            stroke-miterlimit="10"
            stroke-width="5"
            stroke-dasharray=""
        />
        <path
            fill="none"
            stroke="#f5f7fa"
            paint-order="fill stroke markers"
            d=" M 490 470 A 15 15 0 1 1 489.99999250000064 469.9850000025 M 467.5 462.5 L 482.5 477.5 M 482.5 462.5 L 467.5 477.5"
            stroke-miterlimit="10"
            stroke-width="5"
            stroke-dasharray=""
        />
        <path fill="#912514" stroke="none" paint-order="stroke fill markers" d=" M 333.33 349 A 83.33 83.33 0 0 1 166.67000000000002 349" />
        <path fill="" stroke="none" d="" />
        <g transform="translate(210,80)">
            <text fill="" stroke="none" font-family="Verdana" font-size="90px" font-style="normal" font-weight="bold" text-decoration="normal" x="0" y="0" text-anchor="start" dominant-baseline="alphabetic">G</text>
            <g transform="translate(0,80)">
                <text fill="" stroke="none" font-family="Verdana" font-size="90px" font-style="normal" font-weight="bold" text-decoration="normal" x="0" y="0" text-anchor="start" dominant-baseline="alphabetic">O</text>
                <g transform="translate(0,80)">
                    <text fill="" stroke="none" font-family="Verdana" font-size="90px" font-style="normal" font-weight="bold" text-decoration="normal" x="0" y="0" text-anchor="start" dominant-baseline="alphabetic">A</text>
                    <g transform="translate(5,80)">
                        <text fill="" stroke="none" font-family="Verdana" font-size="90px" font-style="normal" font-weight="bold" text-decoration="normal" x="0" y="0" text-anchor="start" dominant-baseline="alphabetic">L</text>
                        <g transform="translate(18,80)">
                            <text fill="" stroke="none" font-family="Verdana" font-size="90px" font-style="normal" font-weight="bold" text-decoration="normal" x="0" y="0" text-anchor="start" dominant-baseline="alphabetic">!</text>
                        </g>
                    </g>
                </g>
            </g>
        </g>
    </g>
</svg>
