<svg id="svg" version="1.1" xmlns="http://www.w3.org/2000/svg" xmlns:xlink="http://www.w3.org/1999/xlink" width="400" height="400" viewBox="0, 0, 400,400"><g id="svgg"><path id="path0" d="M399.440 18.500 C 399.317 19.875,399.248 27.030,399.287 34.400 C 399.337 44.012,399.213 48.454,398.848 50.113 C 398.390 52.188,398.224 85.302,398.537 112.000 C 398.674 123.689,393.491 126.399,370.600 126.610 C 363.780 126.673,355.950 126.921,353.200 127.161 C 350.450 127.401,337.220 127.773,323.800 127.988 C 310.380 128.203,294.180 128.557,287.800 128.777 C 268.052 129.455,230.806 129.647,210.400 129.177 C 199.730 128.931,184.430 128.684,176.400 128.628 C 168.370 128.573,158.454 128.286,154.365 127.991 C 148.469 127.567,146.025 127.553,142.565 127.928 C 137.297 128.499,131.199 128.518,125.800 127.982 C 123.084 127.712,117.821 127.727,109.400 128.028 C 84.508 128.918,17.454 128.621,9.648 127.586 C 8.024 127.371,5.189 126.669,3.348 126.027 L 0.000 124.859 0.000 198.587 L 0.000 272.316 1.300 272.015 C 2.015 271.850,3.448 271.424,4.484 271.068 C 9.015 269.511,14.759 269.327,69.600 268.985 C 87.750 268.872,120.150 268.649,141.600 268.490 C 226.537 267.859,358.403 268.700,377.862 269.996 C 392.027 270.940,397.206 272.519,399.522 276.600 C 399.861 277.198,399.979 244.383,399.988 146.700 C 399.995 74.815,399.924 16.000,399.832 16.000 C 399.739 16.000,399.563 17.125,399.440 18.500 M241.618 169.859 C 246.814 172.356,247.316 172.378,255.000 170.433 C 262.541 168.525,268.695 168.873,274.379 171.530 C 277.729 173.095,279.609 173.257,287.200 172.636 L 291.000 172.325 293.483 173.863 C 294.849 174.708,296.417 175.798,296.968 176.284 C 298.637 177.758,300.855 178.688,303.800 179.149 C 306.824 179.622,307.541 179.823,311.800 181.390 C 316.506 183.122,321.084 183.188,327.000 181.610 C 330.035 180.801,333.197 180.252,335.601 180.116 L 339.403 179.903 343.218 181.905 C 345.415 183.057,348.300 184.199,350.017 184.597 C 356.105 186.004,360.682 188.542,364.902 192.850 C 367.902 195.912,370.107 196.114,371.471 193.452 C 371.824 192.763,372.446 191.840,372.854 191.400 C 373.261 190.960,374.302 189.835,375.166 188.900 C 377.854 185.992,380.331 186.942,382.764 191.814 C 384.850 195.991,382.729 207.239,379.591 208.639 C 378.123 209.294,374.450 208.140,374.146 206.928 C 374.012 206.394,373.511 205.893,372.979 205.759 C 372.425 205.620,371.996 205.174,371.923 204.662 C 371.644 202.702,369.828 203.574,369.555 205.800 C 369.421 206.900,368.924 208.430,368.451 209.200 C 367.977 209.970,367.413 211.247,367.197 212.037 C 366.156 215.839,359.915 219.198,353.886 219.202 C 349.958 219.205,348.574 219.667,345.786 221.906 C 339.532 226.928,334.954 228.238,322.510 228.563 C 316.922 228.710,312.131 229.036,310.485 229.382 C 308.939 229.707,306.022 229.923,303.775 229.879 L 299.800 229.800 295.600 232.060 C 286.078 237.184,274.577 238.805,263.650 236.564 C 256.878 235.175,255.013 235.352,249.783 237.877 L 245.800 239.800 236.641 239.696 C 229.361 239.613,226.675 239.427,223.547 238.789 C 220.314 238.130,218.345 238.006,212.506 238.094 C 206.006 238.191,205.149 238.121,202.453 237.269 C 198.957 236.165,196.959 236.210,188.477 237.587 C 182.202 238.606,178.648 238.357,170.800 236.352 C 169.150 235.931,165.486 235.315,162.657 234.984 C 158.242 234.467,157.052 234.165,154.257 232.852 C 152.466 232.010,150.100 231.118,149.000 230.869 C 135.637 227.849,135.874 227.864,130.933 229.749 C 125.096 231.977,123.851 232.139,115.956 231.698 L 108.944 231.306 103.972 228.957 C 98.305 226.279,100.411 226.484,84.200 227.027 C 68.019 227.569,67.708 227.540,61.104 224.884 C 59.974 224.429,58.687 224.337,55.848 224.506 C 53.030 224.674,51.815 224.589,50.998 224.165 C 50.399 223.854,49.669 223.600,49.376 223.600 C 49.083 223.600,47.773 222.973,46.466 222.207 C 42.808 220.063,42.156 219.901,36.800 219.802 C 26.832 219.617,20.702 218.814,18.565 217.414 C 18.050 217.076,17.451 216.800,17.234 216.800 C 16.517 216.800,13.414 214.494,12.575 213.337 C 10.464 210.430,9.578 199.934,10.790 192.200 C 11.871 185.297,12.883 184.509,21.365 183.961 C 25.732 183.679,28.229 183.310,30.400 182.626 C 34.750 181.255,35.353 181.168,41.459 181.023 C 45.130 180.936,48.481 180.591,51.389 180.001 C 55.178 179.233,57.200 179.101,66.189 179.038 L 76.600 178.965 80.200 177.651 C 85.409 175.751,86.049 175.676,94.305 176.000 C 99.945 176.222,103.038 176.149,106.800 175.707 C 112.466 175.042,114.915 175.345,117.884 177.076 C 122.842 179.966,126.649 180.455,134.627 179.229 C 140.858 178.271,141.572 178.332,146.849 180.258 C 152.173 182.201,154.845 182.142,158.600 180.001 C 166.419 175.541,167.348 175.256,171.085 176.172 C 176.362 177.465,177.195 177.271,181.206 173.814 C 186.119 169.579,191.238 168.399,198.656 169.789 C 201.433 170.310,202.220 170.309,205.400 169.781 C 207.380 169.452,212.780 169.003,217.400 168.783 C 222.020 168.563,225.980 168.304,226.200 168.209 C 226.420 168.113,229.210 168.076,232.400 168.126 L 238.200 168.217 241.618 169.859 M398.675 389.951 C 398.084 391.465,397.600 392.894,397.600 393.128 C 397.600 394.495,395.827 396.408,393.871 397.150 C 387.591 399.535,387.673 400.000,394.376 400.000 L 400.000 400.000 400.000 393.600 C 400.000 386.199,400.068 386.385,398.675 389.951 M0.000 395.751 L 0.000 400.000 4.400 400.000 C 9.704 400.000,10.119 399.341,6.400 396.823 C 5.630 396.301,4.145 394.977,3.100 393.881 C 2.055 392.784,1.200 392.024,1.200 392.192 C 1.200 392.360,0.930 392.274,0.600 392.000 C 0.073 391.563,0.000 392.020,0.000 395.751 " stroke="none" fill="#1a1b1a" fill-rule="evenodd"></path><path id="path1" d="M0.927 0.880 C 0.497 1.356,0.384 1.754,0.633 1.924 C 0.853 2.076,1.073 2.650,1.121 3.200 C 1.169 3.750,1.273 4.560,1.352 5.000 C 1.431 5.440,1.308 6.160,1.078 6.600 C 0.198 8.284,0.081 10.258,0.834 10.729 C 1.863 11.371,4.013 14.633,4.837 16.800 C 5.626 18.876,5.387 24.896,4.175 33.475 C 3.274 39.855,3.400 43.627,4.598 46.158 C 5.435 47.928,6.800 49.045,6.800 47.960 C 6.800 47.792,7.205 47.528,7.700 47.373 C 8.195 47.219,8.690 46.980,8.800 46.843 C 9.204 46.339,13.039 45.196,14.320 45.198 C 18.296 45.204,19.578 47.579,18.667 53.254 C 18.301 55.534,17.900 58.480,17.775 59.800 C 17.293 64.919,17.196 64.947,11.443 61.625 C 9.515 60.511,7.696 59.600,7.402 59.600 C 7.107 59.600,6.803 59.410,6.726 59.177 C 6.018 57.053,4.198 61.087,4.280 64.600 C 4.316 66.140,4.066 68.750,3.725 70.400 C 2.453 76.552,2.192 114.399,3.405 116.953 C 5.597 121.572,10.392 121.988,64.000 122.199 C 84.970 122.282,90.773 122.157,112.600 121.154 C 122.292 120.709,123.875 120.727,128.033 121.329 C 133.716 122.152,135.972 122.166,140.600 121.405 C 145.280 120.637,150.118 120.656,154.600 121.461 C 157.459 121.974,161.659 122.130,175.000 122.218 C 184.240 122.279,195.760 122.530,200.600 122.776 C 215.188 123.516,279.429 123.286,289.400 122.458 C 292.480 122.202,301.840 121.793,310.200 121.550 C 346.380 120.497,351.179 120.079,358.484 117.350 C 361.061 116.388,363.365 115.600,363.604 115.600 C 364.992 115.600,368.000 113.322,368.000 112.271 C 368.000 111.278,369.458 109.813,371.423 108.831 C 377.613 105.740,383.951 94.631,382.966 88.600 C 381.910 82.138,377.656 80.438,369.891 83.375 C 367.756 84.183,366.442 84.403,363.691 84.413 C 361.771 84.421,358.399 84.590,356.197 84.788 C 353.746 85.009,350.800 85.002,348.597 84.770 C 339.789 83.841,338.281 83.838,336.223 84.749 C 332.573 86.363,331.960 85.946,331.455 81.506 C 331.068 78.100,330.330 76.213,325.864 67.200 L 321.800 59.000 321.800 53.800 C 321.800 44.876,324.935 41.374,330.248 44.364 C 333.467 46.175,334.046 48.219,333.143 54.579 C 330.027 76.521,366.994 84.134,377.119 63.636 L 378.600 60.638 378.600 54.019 C 378.600 50.379,378.764 47.130,378.964 46.800 C 379.164 46.470,380.282 44.750,381.448 42.979 C 385.676 36.558,385.767 32.703,381.961 21.284 C 379.789 14.766,379.969 14.283,386.120 10.119 C 391.514 6.467,391.607 6.279,390.308 1.700 L 389.825 -0.000 385.313 -0.000 C 380.863 -0.000,380.800 0.013,380.800 0.925 C 380.800 4.334,375.955 5.686,364.886 5.368 C 355.199 5.089,352.185 5.335,342.600 7.188 C 336.517 8.364,335.982 8.405,331.800 8.011 C 326.256 7.490,313.194 8.408,306.400 9.798 C 303.870 10.316,299.550 10.850,296.800 10.986 C 287.176 11.460,284.527 13.114,286.660 17.313 C 287.700 19.361,287.712 19.471,287.285 23.200 C 286.576 29.410,287.187 31.060,291.438 34.400 C 294.331 36.674,294.629 37.381,294.038 40.578 C 293.806 41.835,293.727 44.186,293.864 45.804 C 294.111 48.727,293.690 50.000,292.475 50.000 C 291.872 50.000,290.800 48.126,290.800 47.074 C 290.800 42.657,286.600 40.004,284.553 43.128 C 284.174 43.707,283.104 44.995,282.175 45.990 C 279.745 48.595,279.354 50.249,279.974 55.303 C 280.942 63.191,281.769 64.622,286.152 66.006 C 288.375 66.708,292.591 71.037,295.689 75.800 C 300.166 82.683,300.164 82.678,300.284 88.530 C 300.405 94.437,300.873 95.892,303.589 98.800 C 305.891 101.265,306.111 101.980,306.044 106.800 C 305.956 113.204,305.330 114.400,302.071 114.400 C 299.504 114.400,298.502 113.316,299.177 111.271 C 300.734 106.553,298.039 100.000,294.542 100.000 C 291.807 100.000,291.815 101.005,294.596 107.037 C 297.611 113.574,297.609 113.581,292.462 116.175 C 288.204 118.320,277.902 119.849,268.400 119.746 C 263.532 119.693,254.837 119.694,229.400 119.750 C 209.551 119.794,206.636 119.721,203.800 119.109 C 202.040 118.728,198.350 118.220,195.600 117.980 C 191.226 117.597,186.315 117.550,166.193 117.693 C 159.665 117.740,155.914 116.659,153.400 114.008 L 152.200 112.743 152.224 107.671 C 152.261 99.675,153.782 93.718,156.378 91.407 C 159.168 88.923,161.010 85.121,160.346 83.216 C 159.820 81.709,159.403 81.594,154.800 81.690 C 150.450 81.780,148.346 81.180,144.875 78.856 C 142.691 77.393,142.023 77.479,142.006 79.227 C 141.969 83.014,138.986 87.099,134.134 90.009 C 130.102 92.427,127.792 94.279,126.802 95.886 C 126.426 96.499,124.876 98.329,123.359 99.954 C 121.841 101.578,119.151 104.818,117.380 107.154 C 112.700 113.326,107.211 115.745,98.409 115.511 C 94.797 115.416,93.774 115.542,91.200 116.400 C 87.653 117.582,78.133 117.728,65.979 116.787 C 60.420 116.356,58.342 116.357,54.061 116.794 C 47.710 117.441,44.309 117.188,40.405 115.777 C 36.036 114.197,35.651 113.831,35.733 111.318 C 35.808 108.982,35.207 108.236,32.956 107.870 C 32.264 107.758,30.923 107.291,29.974 106.833 C 27.752 105.760,27.281 105.784,26.727 107.000 C 26.477 107.550,26.120 108.000,25.936 108.000 C 25.751 108.000,25.600 108.513,25.600 109.140 C 25.600 112.493,23.078 114.739,19.886 114.228 C 16.826 113.739,15.743 112.400,15.180 108.417 C 15.008 107.197,14.677 105.480,14.443 104.600 C 14.210 103.720,14.015 102.246,14.010 101.325 C 14.004 100.404,13.636 98.154,13.191 96.325 C 12.159 92.090,11.292 79.194,11.942 77.767 C 12.951 75.554,16.120 77.352,22.510 83.763 C 26.082 87.346,26.654 87.639,33.000 89.147 C 37.464 90.208,38.858 90.212,43.812 89.177 C 48.379 88.224,51.977 88.110,55.500 88.808 C 61.043 89.907,63.087 88.833,67.208 82.654 C 68.764 80.321,70.881 77.791,72.454 76.385 C 75.550 73.617,75.694 73.314,76.964 66.870 C 78.852 57.289,82.169 53.202,88.060 53.199 C 92.579 53.196,93.660 52.005,95.221 45.310 C 96.730 38.838,99.207 36.614,106.482 35.195 C 108.930 34.718,111.519 32.426,113.925 28.606 C 114.481 27.723,115.371 26.337,115.904 25.526 C 116.437 24.716,117.188 23.465,117.573 22.746 C 119.751 18.686,127.335 18.678,130.183 22.733 C 131.522 24.640,131.519 24.607,131.202 36.400 C 131.061 41.635,131.662 44.362,133.359 46.194 C 133.932 46.811,134.400 47.551,134.400 47.838 C 134.400 48.125,135.047 49.230,135.837 50.294 C 139.455 55.161,140.664 60.607,139.438 66.500 C 138.818 69.478,138.825 69.690,139.597 71.886 C 140.038 73.144,140.400 74.217,140.400 74.272 C 140.400 74.327,140.756 74.562,141.191 74.795 C 141.980 75.217,147.200 65.788,147.200 63.940 C 147.200 62.835,149.643 58.673,151.667 56.329 C 154.956 52.521,155.256 50.189,154.823 31.800 C 154.674 25.507,154.892 23.362,155.632 23.820 C 155.837 23.947,156.116 23.763,156.251 23.411 C 156.688 22.273,158.543 21.657,161.562 21.647 C 165.039 21.636,165.600 21.266,165.600 18.987 C 165.600 16.503,164.188 15.408,160.542 15.063 C 159.034 14.921,155.959 14.445,153.709 14.007 C 150.753 13.430,148.128 13.221,144.248 13.252 C 141.294 13.276,138.635 13.139,138.339 12.948 C 138.042 12.756,132.580 12.600,126.200 12.599 C 115.053 12.599,114.525 12.564,112.691 11.709 C 110.016 10.464,106.551 10.214,99.919 10.789 C 95.701 11.155,92.730 11.178,88.600 10.877 C 81.698 10.375,57.527 10.855,55.900 11.526 C 54.111 12.265,54.498 12.793,61.218 18.767 C 69.037 25.718,69.762 26.693,69.526 29.954 C 69.050 36.534,62.700 38.740,58.334 33.842 C 54.947 30.041,51.909 29.552,46.773 31.982 C 43.471 33.544,41.395 33.564,37.755 32.067 C 31.995 29.698,30.270 29.993,26.299 34.023 C 19.425 40.999,10.771 34.509,15.985 26.289 C 17.278 24.249,20.668 21.579,29.500 15.642 C 36.043 11.245,36.058 11.230,34.700 10.517 C 29.612 7.845,25.455 7.463,18.600 9.037 C 14.257 10.034,11.693 9.804,8.976 8.173 C 5.681 6.195,5.731 6.299,6.935 3.978 C 8.809 0.366,8.582 -0.056,4.811 0.035 C 2.238 0.097,1.488 0.260,0.927 0.880 M261.000 11.584 C 256.001 12.409,253.513 14.928,256.100 16.544 C 256.935 17.065,265.433 17.779,269.200 17.644 C 271.143 17.574,274.169 15.966,274.322 14.921 C 274.664 12.584,266.830 10.622,261.000 11.584 M365.200 16.199 C 374.230 19.108,379.215 23.715,379.899 29.781 C 380.639 36.344,377.053 38.356,372.639 33.855 C 368.797 29.936,366.361 29.544,361.028 31.987 C 357.550 33.580,355.600 33.570,351.878 31.938 C 346.683 29.660,343.202 30.340,340.400 34.180 C 335.357 41.090,327.662 34.520,331.648 26.707 C 336.450 17.293,352.751 12.189,365.200 16.199 M147.129 19.843 C 150.220 21.101,150.705 23.104,148.471 25.378 C 144.122 29.806,137.719 25.502,141.428 20.645 C 142.989 18.600,143.797 18.486,147.129 19.843 M52.612 36.139 C 53.023 36.726,53.201 38.062,53.202 40.589 C 53.203 44.006,53.289 44.370,54.802 47.358 C 58.971 55.596,55.115 59.979,47.200 56.000 C 44.883 54.835,43.524 54.400,42.200 54.400 C 40.876 54.400,39.517 54.835,37.200 56.000 C 29.216 60.014,25.013 55.008,29.824 47.214 C 31.376 44.700,31.400 44.600,31.409 40.732 C 31.417 37.221,31.512 36.710,32.301 35.921 C 33.269 34.953,32.836 34.913,39.658 36.606 C 42.523 37.317,42.047 37.378,48.785 35.434 C 50.891 34.827,51.812 34.996,52.612 36.139 M351.260 35.952 C 355.248 37.324,357.141 37.381,360.476 36.230 C 366.508 34.148,367.374 34.696,367.458 40.649 C 367.512 44.458,367.607 44.924,368.688 46.688 C 373.710 54.883,369.620 60.137,361.442 55.998 C 357.196 53.849,355.578 53.850,351.497 56.000 C 343.674 60.122,339.121 54.892,344.052 47.448 C 345.565 45.162,346.055 42.991,345.742 39.958 C 345.285 35.541,346.822 34.425,351.260 35.952 M253.035 44.146 C 247.604 47.368,247.076 55.801,252.110 58.937 C 255.551 61.082,256.839 59.559,255.803 54.573 C 255.440 52.828,255.039 49.825,254.912 47.900 C 254.667 44.180,254.281 43.407,253.035 44.146 M69.374 45.990 C 72.967 47.356,72.701 55.696,68.934 59.758 C 67.635 61.158,67.653 61.187,66.041 55.167 C 64.231 48.409,64.587 46.889,68.274 45.625 C 68.315 45.611,68.810 45.776,69.374 45.990 M45.000 59.971 C 56.811 64.370,57.027 64.564,53.856 67.935 C 47.772 74.403,30.837 72.816,28.287 65.539 C 27.878 64.372,28.911 63.649,33.000 62.240 C 35.200 61.482,37.990 60.494,39.200 60.044 C 41.904 59.039,42.478 59.032,45.000 59.971 M359.600 60.145 C 370.670 64.079,371.278 64.677,367.670 68.085 C 362.259 73.194,350.506 73.115,344.615 67.929 C 341.563 65.243,342.040 63.727,346.281 62.630 C 347.645 62.277,349.625 61.608,350.681 61.143 C 355.532 59.007,356.191 58.933,359.600 60.145 M63.200 70.118 C 63.200 74.671,55.075 79.001,45.600 79.496 C 38.931 79.844,38.322 78.484,44.687 77.457 C 49.419 76.694,52.137 75.760,55.324 73.800 C 56.576 73.030,58.624 71.770,59.876 71.000 C 62.291 69.515,63.200 69.274,63.200 70.118 M26.926 96.097 C 24.379 97.907,24.355 102.187,26.887 103.236 C 27.513 103.495,28.085 103.638,28.157 103.554 C 31.145 100.053,31.822 98.008,30.500 96.479 C 29.406 95.214,28.331 95.099,26.926 96.097 M363.247 103.300 C 365.844 106.313,367.032 109.777,365.816 110.787 C 363.180 112.975,359.570 110.857,359.291 106.959 C 359.021 103.193,361.322 101.066,363.247 103.300 M188.377 273.344 C 188.171 273.562,177.283 273.660,93.800 274.198 C 77.080 274.306,60.520 274.586,57.000 274.821 C 53.480 275.056,45.560 275.193,39.400 275.124 C 10.454 274.803,2.532 276.796,9.936 282.535 C 11.528 283.769,11.044 283.747,19.260 282.965 C 28.676 282.069,32.199 289.368,26.477 297.916 C 25.665 299.130,24.686 300.591,24.302 301.162 C 22.803 303.392,26.678 307.608,30.367 307.760 C 32.746 307.858,31.774 308.987,22.582 316.801 C 8.656 328.638,7.294 334.142,15.800 344.200 C 19.216 348.240,19.635 349.809,18.743 355.214 C 15.729 373.466,44.725 384.244,59.430 370.336 C 64.045 365.972,64.983 362.540,64.389 352.200 C 64.181 348.576,64.499 348.007,69.857 342.415 C 75.390 336.641,78.065 335.533,79.591 338.383 C 80.156 339.438,79.659 353.624,78.958 356.458 C 78.163 359.674,78.260 363.054,79.209 365.144 C 80.844 368.748,80.558 369.079,68.344 377.703 C 62.851 381.581,60.994 385.028,63.701 386.320 C 66.804 387.799,84.743 388.268,90.977 387.032 C 93.795 386.473,95.470 386.382,98.865 386.604 C 104.143 386.949,106.307 386.497,109.613 384.360 C 112.548 382.463,112.068 382.459,115.929 384.412 C 123.347 388.164,143.248 389.084,149.969 385.986 L 152.809 384.677 155.505 385.715 C 160.446 387.617,161.285 387.723,168.600 387.364 C 177.526 386.927,186.260 387.099,192.200 387.828 C 199.379 388.710,233.789 388.948,238.192 388.146 C 242.921 387.286,249.851 387.016,253.886 387.534 C 271.478 389.794,288.331 388.822,295.066 385.159 C 298.655 383.207,298.787 383.211,302.986 385.427 C 308.262 388.209,309.261 388.325,329.418 388.472 C 349.454 388.618,351.260 388.351,348.380 385.667 C 347.536 384.881,346.808 384.533,341.496 382.380 C 337.777 380.873,335.968 379.457,333.360 376.012 C 332.282 374.588,330.299 372.061,328.953 370.395 C 324.080 364.363,320.640 351.933,322.382 346.655 C 323.379 343.635,326.369 342.406,329.085 343.900 C 333.126 346.123,333.906 348.120,332.976 353.866 C 330.942 366.439,340.375 375.415,355.600 375.393 C 371.368 375.370,381.345 365.972,378.982 353.366 C 377.983 348.033,378.891 346.258,384.591 342.401 C 390.855 338.162,391.810 331.951,388.774 315.200 C 388.555 313.990,388.205 311.853,387.997 310.450 C 385.776 295.471,384.725 293.016,380.018 291.802 C 377.327 291.108,375.652 290.379,374.738 289.504 C 374.442 289.221,373.688 288.662,373.063 288.261 L 371.926 287.533 368.663 290.656 C 366.868 292.374,365.118 294.056,364.773 294.395 C 364.428 294.733,362.997 296.358,361.592 298.005 C 352.490 308.681,347.600 310.830,347.600 304.154 C 347.600 302.652,346.529 300.844,344.149 298.330 C 338.961 292.849,343.652 286.476,353.510 285.610 C 355.869 285.403,359.239 284.969,360.997 284.645 C 364.760 283.954,367.239 284.278,369.841 285.803 C 370.777 286.351,371.718 286.800,371.932 286.800 C 372.950 286.800,380.000 281.019,380.000 280.184 C 380.000 278.528,375.598 276.875,369.843 276.369 C 367.399 276.154,363.580 275.789,361.356 275.558 C 359.131 275.327,348.331 274.971,337.356 274.768 C 326.380 274.564,312.000 274.239,305.400 274.044 C 298.800 273.850,272.430 273.674,246.800 273.653 C 221.170 273.631,197.590 273.501,194.400 273.362 C 191.210 273.223,188.500 273.215,188.377 273.344 M208.600 277.260 C 211.020 277.276,219.654 277.169,227.787 277.024 C 240.171 276.803,243.449 276.866,247.960 277.412 C 251.634 277.857,254.506 277.977,257.000 277.790 C 259.163 277.628,262.438 277.713,265.027 277.999 C 268.746 278.409,270.045 278.386,273.712 277.841 C 279.292 277.012,281.938 277.033,293.162 277.997 C 306.037 279.102,307.498 280.111,298.111 281.415 C 292.579 282.184,290.148 282.890,286.200 284.875 C 278.154 288.921,276.786 288.901,272.228 284.670 C 269.623 282.253,267.760 281.754,263.651 282.376 C 261.753 282.663,257.860 283.039,255.000 283.213 C 251.197 283.443,249.155 283.768,247.400 284.423 C 245.303 285.206,244.168 285.326,238.400 285.376 C 230.892 285.440,229.454 285.745,226.129 287.981 L 223.800 289.547 222.600 288.558 C 214.874 282.188,203.297 282.556,195.670 289.413 L 193.612 291.263 190.718 290.815 C 189.127 290.568,187.549 290.125,187.212 289.830 C 186.876 289.536,185.028 288.530,183.108 287.594 C 177.085 284.660,174.347 285.876,173.027 292.072 C 172.318 295.404,170.349 294.656,169.149 290.600 C 168.105 287.068,167.114 285.766,163.282 282.886 C 158.805 279.522,159.108 278.597,165.000 277.644 C 169.208 276.963,168.971 276.969,187.200 277.105 C 196.550 277.175,206.180 277.245,208.600 277.260 M147.847 278.144 C 152.018 278.939,152.043 278.976,149.889 281.159 C 147.232 283.853,135.514 282.741,134.500 279.699 C 133.975 278.124,142.521 277.128,147.847 278.144 M45.413 292.600 C 46.058 295.192,46.095 295.916,45.680 297.924 C 44.962 301.403,45.071 302.239,46.600 304.973 C 49.589 310.319,45.873 311.882,36.233 309.334 C 31.423 308.062,31.627 308.193,32.722 307.088 C 37.980 301.783,41.510 296.308,42.580 291.802 C 43.338 288.610,44.501 288.937,45.413 292.600 M367.000 315.362 C 378.764 318.522,386.048 330.061,379.762 335.580 C 377.267 337.770,375.696 337.404,372.257 333.831 C 368.321 329.741,367.097 329.548,360.713 332.010 C 356.787 333.523,355.961 333.504,351.600 331.800 C 346.131 329.663,343.576 330.170,340.560 333.989 C 337.338 338.071,333.584 338.179,330.754 334.272 C 326.376 328.229,332.866 320.225,345.055 316.635 C 353.169 314.245,361.123 313.784,367.000 315.362 M48.300 317.005 C 57.686 318.785,62.439 321.824,65.280 327.859 C 69.007 335.778,64.006 341.451,58.484 335.567 C 54.614 331.444,52.505 330.998,47.090 333.159 C 43.149 334.731,41.275 334.739,37.400 333.200 C 32.116 331.101,29.992 331.518,26.181 335.404 C 20.733 340.961,15.204 336.163,18.614 328.838 C 22.920 319.588,35.495 314.576,48.300 317.005 M351.439 335.800 C 355.208 337.030,358.414 337.095,361.296 336.000 C 365.954 334.230,367.338 335.012,367.411 339.453 C 367.492 344.436,367.507 344.495,369.400 347.378 C 374.314 354.860,369.456 360.095,361.400 356.000 C 359.127 354.845,357.758 354.400,356.473 354.400 C 355.186 354.400,353.822 354.844,351.553 356.000 C 343.769 359.966,338.619 354.540,343.617 347.640 C 345.394 345.187,345.680 344.170,345.627 340.494 C 345.568 336.445,346.020 335.481,348.288 334.825 C 348.336 334.811,349.754 335.250,351.439 335.800 M38.583 337.558 C 42.002 338.473,43.794 338.367,47.550 337.025 C 51.874 335.481,52.915 336.418,52.970 341.904 C 53.008 345.659,53.063 345.888,54.483 348.216 C 59.511 356.462,55.397 361.427,47.042 357.198 C 42.911 355.108,41.575 355.108,37.249 357.200 C 32.266 359.610,29.718 359.342,28.252 356.253 C 27.028 353.674,27.288 352.506,30.215 347.424 C 31.234 345.655,31.358 345.053,31.393 341.676 C 31.451 336.036,31.913 335.772,38.583 337.558 M114.986 346.950 C 116.474 348.437,116.906 356.050,115.579 357.380 C 115.052 357.909,115.103 363.071,115.646 364.085 C 116.530 365.739,114.951 369.057,112.720 370.232 C 108.845 372.271,106.940 368.510,109.033 362.952 C 109.814 360.875,110.011 359.770,109.841 358.404 C 109.113 352.546,109.104 350.546,109.800 349.172 C 111.423 345.964,113.227 345.191,114.986 346.950 M152.570 351.567 C 152.951 351.988,153.895 354.103,154.667 356.267 C 157.266 363.548,157.296 364.152,155.184 366.557 C 151.590 370.650,148.172 368.203,146.751 360.520 C 145.720 354.943,149.860 348.572,152.570 351.567 M361.525 360.746 C 363.656 361.597,366.300 362.637,367.400 363.058 C 370.382 364.199,369.974 366.703,366.416 369.101 C 359.441 373.801,342.800 370.953,342.800 365.060 C 342.800 363.874,342.800 363.874,347.600 362.294 C 349.250 361.751,351.860 360.836,353.400 360.262 C 356.990 358.922,356.949 358.920,361.525 360.746 M49.305 362.887 C 54.656 364.966,55.477 365.620,54.839 367.299 C 52.160 374.344,32.596 374.554,28.987 367.576 C 28.039 365.742,28.698 365.049,32.692 363.679 C 34.621 363.018,37.460 362.011,39.000 361.442 C 42.332 360.211,42.460 360.229,49.305 362.887 M386.460 370.554 C 384.732 371.982,383.382 373.634,381.976 376.041 C 380.700 378.226,379.917 379.054,377.970 380.278 C 370.602 384.912,369.892 386.809,375.533 386.794 C 380.410 386.780,384.971 384.924,387.086 382.091 C 387.699 381.271,388.487 380.281,388.838 379.891 C 391.600 376.822,389.388 368.136,386.460 370.554 " stroke="none" fill="#8e918b" fill-rule="evenodd"></path><path id="path2" d="M12.400 0.220 C 12.400 2.171,14.019 3.142,16.582 2.730 C 23.913 1.549,33.477 1.688,35.610 3.006 C 35.752 3.094,37.383 3.193,39.234 3.225 C 41.085 3.258,43.500 3.462,44.600 3.679 C 48.657 4.480,76.413 4.692,83.252 3.974 C 86.251 3.660,88.291 3.706,92.452 4.183 C 99.040 4.937,105.090 5.030,108.000 4.421 C 112.611 3.456,116.080 3.239,117.580 3.823 C 118.361 4.127,119.450 4.456,120.000 4.553 C 120.550 4.651,121.900 4.963,123.000 5.247 C 124.425 5.614,127.589 5.726,134.000 5.637 C 138.950 5.568,144.440 5.507,146.200 5.501 C 151.053 5.487,169.277 6.269,177.494 6.845 C 183.981 7.299,185.442 7.280,190.694 6.669 C 200.796 5.493,208.122 5.758,218.400 7.673 C 221.817 8.310,228.631 8.627,232.600 8.334 C 242.594 7.596,248.553 6.778,253.786 5.425 C 260.059 3.803,260.974 3.760,270.481 4.641 C 277.828 5.321,282.797 5.188,285.691 4.232 C 289.404 3.007,291.839 2.728,294.414 3.235 C 296.135 3.573,298.142 3.616,301.134 3.377 C 303.480 3.190,308.100 3.090,311.400 3.156 C 317.692 3.281,321.818 2.789,323.674 1.693 C 324.551 1.174,325.035 1.137,326.276 1.492 C 334.717 3.904,343.600 3.232,343.600 0.182 C 343.600 0.082,269.080 0.000,178.000 0.000 C 86.920 0.000,12.400 0.099,12.400 0.220 M38.400 16.822 C 30.839 17.703,20.729 25.312,22.161 29.044 C 22.458 29.816,23.563 29.676,26.890 28.446 C 30.016 27.291,32.498 27.378,36.937 28.800 C 41.642 30.307,42.967 30.301,47.414 28.750 C 51.099 27.465,53.668 27.357,59.296 28.249 C 62.294 28.725,61.452 25.507,57.624 21.855 C 53.209 17.644,46.476 15.881,38.400 16.822 M351.920 18.023 C 345.097 18.962,337.833 23.407,337.012 27.145 C 336.513 29.419,337.479 29.709,341.200 28.400 C 344.380 27.281,347.178 27.393,351.200 28.800 C 355.494 30.302,357.412 30.305,361.495 28.815 C 365.065 27.512,367.251 27.275,371.242 27.760 C 374.445 28.149,374.815 27.710,373.452 25.133 C 370.836 20.186,360.648 16.822,351.920 18.023 M40.400 65.318 C 39.017 66.017,39.149 66.884,40.700 67.286 C 43.469 68.003,46.253 66.133,43.803 65.201 C 42.419 64.675,41.616 64.703,40.400 65.318 M354.400 65.318 C 351.868 66.599,354.611 68.098,357.776 67.164 C 359.827 66.558,360.085 65.950,358.581 65.264 C 357.261 64.663,355.654 64.683,354.400 65.318 M350.000 318.354 C 342.952 320.267,339.404 322.303,337.102 325.754 C 334.780 329.234,335.911 330.242,340.368 328.665 C 344.447 327.222,347.181 327.257,351.581 328.808 C 355.803 330.297,356.997 330.296,361.535 328.800 C 365.934 327.350,368.975 327.246,372.474 328.425 C 378.548 330.471,375.451 323.103,368.852 319.810 C 364.375 317.576,355.416 316.884,350.000 318.354 M34.600 319.736 C 29.304 321.497,24.000 325.950,24.000 328.636 C 24.000 329.980,24.441 330.072,27.465 329.364 C 30.816 328.580,32.795 328.777,37.854 330.397 C 42.216 331.794,42.628 331.778,47.903 330.011 C 51.624 328.764,53.951 328.555,57.173 329.177 C 61.853 330.080,60.262 325.195,54.942 322.325 C 49.977 319.647,39.050 318.256,34.600 319.736 M40.500 366.665 C 39.796 366.949,39.878 367.868,40.633 368.157 C 42.649 368.931,45.356 367.740,43.652 366.828 C 42.827 366.386,41.376 366.311,40.500 366.665 " stroke="none" fill="#d1d4cf" fill-rule="evenodd"></path><path id="path3" d="M399.686 4.909 C 399.639 5.298,399.170 6.288,398.645 7.109 C 398.119 7.929,397.571 9.405,397.426 10.389 C 397.281 11.373,396.704 13.803,396.145 15.789 C 394.936 20.082,394.810 22.964,395.555 29.389 C 396.109 34.177,395.962 40.735,395.222 44.200 C 395.034 45.080,394.681 46.790,394.438 48.000 C 394.194 49.210,393.546 51.072,392.997 52.137 C 392.449 53.202,392.000 54.417,392.000 54.837 C 392.000 55.257,391.807 55.600,391.572 55.600 C 391.054 55.600,391.307 61.419,391.979 65.000 C 392.227 66.320,392.583 68.660,392.769 70.200 C 392.956 71.740,393.332 73.981,393.604 75.180 C 393.926 76.593,394.014 78.704,393.854 81.180 C 393.097 92.924,393.112 94.105,394.136 104.223 C 395.400 116.716,395.190 118.018,391.443 120.847 C 387.520 123.809,385.880 124.097,371.000 124.437 C 363.740 124.603,356.000 124.922,353.800 125.147 C 351.600 125.372,340.350 125.744,328.800 125.974 C 317.250 126.204,303.750 126.490,298.800 126.610 C 274.416 127.199,228.456 127.466,210.400 127.123 C 199.510 126.915,183.310 126.695,174.400 126.634 C 165.024 126.569,156.039 126.305,153.069 126.007 C 149.017 125.601,146.946 125.592,143.218 125.966 C 137.810 126.507,131.348 126.537,125.000 126.048 C 122.546 125.860,115.824 125.869,109.800 126.069 C 95.012 126.560,52.161 126.719,29.600 126.366 C 10.096 126.062,8.519 125.922,3.037 124.020 C 0.099 123.000,-0.086 123.002,0.072 124.044 C 0.233 125.109,3.946 126.570,8.571 127.389 C 15.374 128.593,81.896 129.016,109.400 128.029 C 117.826 127.727,123.082 127.712,125.800 127.982 C 131.199 128.518,137.297 128.499,142.565 127.928 C 146.025 127.553,148.469 127.567,154.365 127.991 C 158.454 128.286,168.370 128.573,176.400 128.628 C 184.430 128.684,199.730 128.931,210.400 129.177 C 230.806 129.647,268.052 129.455,287.800 128.777 C 294.180 128.557,310.380 128.203,323.800 127.988 C 337.220 127.773,350.450 127.401,353.200 127.161 C 355.950 126.921,363.780 126.673,370.600 126.610 C 393.491 126.399,398.674 123.689,398.537 112.000 C 398.223 85.252,398.390 52.189,398.849 50.113 C 399.218 48.444,399.340 43.957,399.289 34.000 C 399.249 26.159,399.401 18.818,399.641 17.000 C 399.873 15.240,399.997 11.640,399.917 9.000 C 399.837 6.360,399.733 4.519,399.686 4.909 M226.200 168.209 C 225.980 168.304,222.020 168.563,217.400 168.783 C 212.780 169.003,207.380 169.452,205.400 169.781 C 202.220 170.309,201.433 170.310,198.656 169.789 C 191.238 168.399,186.119 169.579,181.206 173.814 C 177.195 177.271,176.362 177.465,171.085 176.172 C 167.348 175.256,166.419 175.541,158.600 180.001 C 154.845 182.142,152.173 182.201,146.849 180.258 C 141.572 178.332,140.858 178.271,134.627 179.229 C 126.649 180.455,122.842 179.966,117.884 177.076 C 114.915 175.345,112.466 175.042,106.800 175.707 C 103.038 176.149,99.945 176.222,94.305 176.000 C 86.049 175.676,85.409 175.751,80.200 177.651 L 76.600 178.965 66.189 179.038 C 57.200 179.101,55.178 179.233,51.389 180.001 C 48.481 180.591,45.130 180.936,41.459 181.023 C 35.353 181.168,34.750 181.255,30.400 182.626 C 28.229 183.310,25.732 183.679,21.365 183.961 C 12.883 184.509,11.871 185.297,10.790 192.200 C 9.578 199.934,10.464 210.430,12.575 213.337 C 13.414 214.494,16.517 216.800,17.234 216.800 C 17.451 216.800,18.050 217.076,18.565 217.414 C 20.702 218.814,26.832 219.617,36.800 219.802 C 42.156 219.901,42.808 220.063,46.466 222.207 C 47.773 222.973,49.083 223.600,49.376 223.600 C 49.669 223.600,50.399 223.854,50.998 224.165 C 51.815 224.589,53.030 224.674,55.848 224.506 C 58.687 224.337,59.974 224.429,61.104 224.884 C 67.708 227.540,68.019 227.569,84.200 227.027 C 100.411 226.484,98.305 226.279,103.972 228.957 L 108.944 231.306 115.956 231.698 C 123.851 232.139,125.096 231.977,130.933 229.749 C 135.202 228.120,136.634 228.078,142.531 229.409 C 144.989 229.963,147.900 230.620,149.000 230.869 C 150.100 231.118,152.466 232.010,154.257 232.852 C 157.052 234.165,158.242 234.467,162.657 234.984 C 165.486 235.315,169.150 235.931,170.800 236.352 C 178.648 238.357,182.202 238.606,188.477 237.587 C 196.959 236.210,198.957 236.165,202.453 237.269 C 205.149 238.121,206.006 238.191,212.506 238.094 C 218.345 238.006,220.314 238.130,223.547 238.789 C 226.675 239.427,229.361 239.613,236.641 239.696 L 245.800 239.800 249.783 237.877 C 255.013 235.352,256.878 235.175,263.650 236.564 C 274.577 238.805,286.078 237.184,295.600 232.060 L 299.800 229.800 303.775 229.879 C 306.022 229.923,308.939 229.707,310.485 229.382 C 312.131 229.036,316.922 228.710,322.510 228.563 C 334.954 228.238,339.532 226.928,345.786 221.906 C 348.574 219.667,349.958 219.205,353.886 219.202 C 359.915 219.198,366.156 215.839,367.197 212.037 C 367.413 211.247,367.977 209.970,368.451 209.200 C 368.924 208.430,369.421 206.900,369.555 205.800 C 369.828 203.574,371.644 202.702,371.923 204.662 C 371.996 205.174,372.425 205.620,372.979 205.759 C 373.511 205.893,374.012 206.394,374.146 206.928 C 374.450 208.140,378.123 209.294,379.591 208.639 C 382.729 207.239,384.850 195.991,382.764 191.814 C 380.331 186.942,377.854 185.992,375.166 188.900 C 374.302 189.835,373.261 190.960,372.854 191.400 C 372.446 191.840,371.824 192.763,371.471 193.452 C 370.107 196.114,367.902 195.912,364.902 192.850 C 360.682 188.542,356.105 186.004,350.017 184.597 C 348.300 184.199,345.415 183.057,343.218 181.905 L 339.403 179.903 335.601 180.116 C 333.197 180.252,330.035 180.801,327.000 181.610 C 321.084 183.188,316.506 183.122,311.800 181.390 C 307.541 179.823,306.824 179.622,303.800 179.149 C 300.855 178.688,298.637 177.758,296.968 176.284 C 296.417 175.798,294.849 174.708,293.483 173.863 L 291.000 172.325 287.200 172.636 C 279.609 173.257,277.729 173.095,274.379 171.530 C 268.695 168.873,262.541 168.525,255.000 170.433 C 247.316 172.378,246.814 172.356,241.618 169.859 L 238.200 168.217 232.400 168.126 C 229.210 168.076,226.420 168.113,226.200 168.209 M237.600 184.414 C 242.754 184.801,249.735 185.699,252.858 186.377 C 254.665 186.769,257.148 186.594,261.801 185.747 C 265.602 185.054,269.238 185.476,272.595 186.999 C 275.843 188.473,277.697 188.800,282.799 188.800 C 290.212 188.800,294.944 191.009,298.257 196.015 C 301.066 200.259,299.861 203.704,293.585 209.374 C 291.180 211.547,289.060 214.148,288.656 215.422 C 287.800 218.122,282.637 221.430,277.800 222.377 C 276.480 222.635,274.416 223.054,273.214 223.308 C 268.578 224.286,265.772 223.978,261.886 222.064 C 257.516 219.911,256.293 219.880,251.000 221.787 C 243.915 224.339,230.257 225.598,222.600 224.404 C 221.060 224.164,216.020 223.808,211.400 223.613 C 204.449 223.319,202.310 223.080,199.000 222.224 C 194.781 221.133,194.347 221.143,190.058 222.435 C 185.025 223.950,182.004 223.073,179.141 219.267 C 178.204 218.020,176.104 215.394,174.474 213.432 L 171.512 209.864 171.685 207.784 C 171.843 205.876,172.055 205.501,174.229 203.274 C 177.333 200.094,177.480 199.905,178.246 198.120 C 178.604 197.284,179.056 196.287,179.249 195.905 C 179.442 195.523,179.600 195.019,179.600 194.783 C 179.600 188.814,190.747 184.163,201.200 185.771 C 209.881 187.106,212.339 187.065,218.600 185.478 C 226.559 183.461,225.602 183.515,237.600 184.414 M180.739 268.194 C 180.638 268.296,163.735 268.467,143.177 268.575 C 21.496 269.214,10.087 269.384,6.000 270.615 C 4.790 270.979,2.999 271.503,2.020 271.778 C 1.041 272.053,0.162 272.513,0.067 272.799 C -0.133 273.400,1.283 273.252,5.800 272.200 C 11.098 270.966,15.424 270.901,143.600 270.122 C 167.250 269.978,205.050 269.911,227.600 269.972 C 358.837 270.326,381.618 270.861,391.846 273.825 C 393.697 274.361,395.295 274.800,395.397 274.800 C 397.269 274.800,397.566 282.833,397.814 340.200 C 397.999 382.735,397.932 384.228,395.632 388.994 C 394.511 391.315,393.018 393.395,392.466 393.404 C 392.320 393.407,391.030 393.976,389.600 394.668 C 385.152 396.822,382.193 397.197,367.867 397.427 C 359.544 397.560,353.189 397.862,349.873 398.284 C 345.513 398.837,344.108 398.862,340.473 398.447 C 336.686 398.015,314.548 397.509,299.600 397.514 C 270.050 397.522,237.211 397.951,236.003 398.345 C 234.259 398.913,228.372 398.929,222.603 398.382 C 216.873 397.839,186.982 397.571,183.531 398.032 C 181.739 398.271,179.833 398.232,177.731 397.913 C 173.580 397.283,169.273 397.300,165.600 397.961 C 163.485 398.342,161.301 398.415,158.200 398.211 C 153.520 397.902,138.066 397.767,132.400 397.985 C 130.530 398.057,126.587 397.903,123.637 397.643 C 120.688 397.383,116.188 397.193,113.637 397.221 C 111.087 397.250,103.690 397.345,97.200 397.433 C 90.710 397.521,81.667 397.572,77.105 397.548 C 72.020 397.521,67.579 397.703,65.632 398.019 C 62.905 398.462,61.730 398.442,57.328 397.874 C 52.481 397.250,37.010 396.654,28.888 396.780 C 15.655 396.985,10.912 395.198,1.800 386.575 L 0.200 385.061 0.082 388.168 C -0.023 390.952,0.460 392.873,1.103 392.230 C 1.207 392.126,2.216 392.989,3.346 394.148 C 4.476 395.307,5.988 396.598,6.706 397.017 C 7.425 397.437,8.234 398.279,8.504 398.890 L 8.995 400.000 198.874 400.000 C 316.471 400.000,388.841 399.857,388.984 399.625 C 389.283 399.142,391.254 398.144,393.871 397.150 C 395.855 396.397,397.596 394.497,397.602 393.077 C 397.603 392.815,398.129 391.340,398.771 389.800 L 399.938 387.000 399.972 332.279 C 399.997 291.485,399.887 277.334,399.542 276.679 C 395.994 269.958,384.384 269.075,292.400 268.525 C 236.902 268.193,180.906 268.027,180.739 268.194 " stroke="none" fill="#363634" fill-rule="evenodd"></path><path id="path4" d="M8.000 0.963 C 8.000 1.493,7.521 2.850,6.935 3.978 C 5.731 6.299,5.681 6.195,8.976 8.173 C 11.693 9.804,14.257 10.034,18.600 9.037 C 25.455 7.463,29.612 7.845,34.700 10.517 C 36.058 11.230,36.043 11.245,29.500 15.642 C 20.668 21.579,17.278 24.249,15.985 26.289 C 10.771 34.509,19.425 40.999,26.299 34.023 C 30.270 29.993,31.995 29.698,37.755 32.067 C 41.395 33.564,43.471 33.544,46.773 31.982 C 51.909 29.552,54.947 30.041,58.334 33.842 C 62.700 38.740,69.050 36.534,69.526 29.954 C 69.762 26.693,69.037 25.718,61.218 18.767 C 54.498 12.793,54.111 12.265,55.900 11.526 C 57.527 10.855,81.698 10.375,88.600 10.877 C 92.730 11.178,95.701 11.155,99.919 10.789 C 106.551 10.214,110.016 10.464,112.691 11.709 C 114.525 12.564,115.053 12.599,126.200 12.599 C 132.580 12.600,138.042 12.756,138.339 12.948 C 138.635 13.139,141.294 13.276,144.248 13.252 C 148.128 13.221,150.753 13.430,153.709 14.007 C 155.959 14.445,159.034 14.921,160.542 15.063 C 164.188 15.408,165.600 16.503,165.600 18.987 C 165.600 21.266,165.039 21.636,161.562 21.647 C 158.543 21.657,156.688 22.273,156.251 23.411 C 156.116 23.763,155.837 23.947,155.632 23.820 C 154.892 23.362,154.674 25.507,154.823 31.800 C 155.256 50.189,154.956 52.521,151.667 56.329 C 149.643 58.673,147.200 62.835,147.200 63.940 C 147.200 65.788,141.980 75.217,141.191 74.795 C 140.756 74.562,140.400 74.327,140.400 74.272 C 140.400 74.217,140.038 73.144,139.597 71.886 C 138.825 69.690,138.818 69.478,139.438 66.500 C 140.664 60.607,139.455 55.161,135.837 50.294 C 135.047 49.230,134.400 48.125,134.400 47.838 C 134.400 47.551,133.932 46.811,133.359 46.194 C 131.662 44.362,131.061 41.635,131.202 36.400 C 131.519 24.607,131.522 24.640,130.183 22.733 C 127.335 18.678,119.751 18.686,117.573 22.746 C 117.188 23.465,116.437 24.716,115.904 25.526 C 115.371 26.337,114.481 27.723,113.925 28.606 C 111.519 32.426,108.930 34.718,106.482 35.195 C 99.207 36.614,96.730 38.838,95.221 45.310 C 93.660 52.005,92.579 53.196,88.060 53.199 C 82.169 53.202,78.852 57.289,76.964 66.870 C 75.694 73.314,75.550 73.617,72.454 76.385 C 70.881 77.791,68.764 80.321,67.208 82.654 C 63.087 88.833,61.043 89.907,55.500 88.808 C 51.977 88.110,48.379 88.224,43.812 89.177 C 38.858 90.212,37.464 90.208,33.000 89.147 C 26.654 87.639,26.082 87.346,22.510 83.763 C 16.120 77.352,12.951 75.554,11.942 77.767 C 11.292 79.194,12.159 92.090,13.191 96.325 C 13.636 98.154,14.004 100.404,14.010 101.325 C 14.015 102.246,14.210 103.720,14.443 104.600 C 14.677 105.480,15.008 107.197,15.180 108.417 C 15.743 112.400,16.826 113.739,19.886 114.228 C 23.078 114.739,25.600 112.493,25.600 109.140 C 25.600 108.513,25.751 108.000,25.936 108.000 C 26.120 108.000,26.477 107.550,26.727 107.000 C 27.281 105.784,27.752 105.760,29.974 106.833 C 30.923 107.291,32.264 107.758,32.956 107.870 C 35.207 108.236,35.808 108.982,35.733 111.318 C 35.651 113.831,36.036 114.197,40.405 115.777 C 44.309 117.188,47.710 117.441,54.061 116.794 C 58.342 116.357,60.420 116.356,65.979 116.787 C 78.133 117.728,87.653 117.582,91.200 116.400 C 93.774 115.542,94.797 115.416,98.409 115.511 C 107.211 115.745,112.700 113.326,117.380 107.154 C 119.151 104.818,121.841 101.578,123.359 99.954 C 124.876 98.329,126.426 96.499,126.802 95.886 C 127.792 94.279,130.102 92.427,134.134 90.009 C 138.986 87.099,141.969 83.014,142.006 79.227 C 142.023 77.479,142.691 77.393,144.875 78.856 C 148.346 81.180,150.450 81.780,154.800 81.690 C 159.403 81.594,159.820 81.709,160.346 83.216 C 161.010 85.121,159.168 88.923,156.378 91.407 C 153.782 93.718,152.261 99.675,152.224 107.671 L 152.200 112.743 153.400 114.008 C 155.914 116.659,159.665 117.740,166.193 117.693 C 186.315 117.550,191.226 117.597,195.600 117.980 C 198.350 118.220,202.040 118.728,203.800 119.109 C 206.636 119.721,209.551 119.794,229.400 119.750 C 254.837 119.694,263.532 119.693,268.400 119.746 C 277.902 119.849,288.204 118.320,292.462 116.175 C 297.609 113.581,297.611 113.574,294.596 107.037 C 291.815 101.005,291.807 100.000,294.542 100.000 C 298.039 100.000,300.734 106.553,299.177 111.271 C 298.502 113.316,299.504 114.400,302.071 114.400 C 305.330 114.400,305.956 113.204,306.044 106.800 C 306.111 101.980,305.891 101.265,303.589 98.800 C 300.873 95.892,300.405 94.437,300.284 88.530 C 300.164 82.678,300.166 82.683,295.689 75.800 C 292.591 71.037,288.375 66.708,286.152 66.006 C 281.769 64.622,280.942 63.191,279.974 55.303 C 279.354 50.249,279.745 48.595,282.175 45.990 C 283.104 44.995,284.174 43.707,284.553 43.128 C 286.600 40.004,290.800 42.657,290.800 47.074 C 290.800 48.126,291.872 50.000,292.475 50.000 C 293.690 50.000,294.111 48.727,293.864 45.804 C 293.727 44.186,293.806 41.835,294.038 40.578 C 294.629 37.381,294.331 36.674,291.438 34.400 C 287.187 31.060,286.576 29.410,287.285 23.200 C 287.712 19.471,287.700 19.361,286.660 17.313 C 284.527 13.114,287.176 11.460,296.800 10.986 C 299.550 10.850,303.870 10.316,306.400 9.798 C 313.194 8.408,326.256 7.490,331.800 8.011 C 335.982 8.405,336.517 8.364,342.600 7.188 C 352.185 5.335,355.199 5.089,364.886 5.368 C 376.015 5.688,380.800 4.337,380.800 0.875 C 380.800 -0.481,374.730 -0.311,373.229 1.087 C 372.041 2.194,370.077 2.524,367.939 1.975 C 363.750 0.899,357.562 0.834,355.920 1.849 C 355.735 1.964,353.651 2.107,351.290 2.168 C 348.159 2.248,346.632 2.466,345.647 2.975 C 342.017 4.853,331.884 5.726,326.223 4.649 C 325.575 4.526,323.865 4.587,322.423 4.786 C 320.980 4.984,317.550 5.263,314.800 5.406 C 312.050 5.548,308.252 5.803,306.359 5.972 C 304.466 6.141,300.236 6.227,296.959 6.164 C 293.682 6.100,290.280 6.230,289.400 6.452 C 282.646 8.161,279.039 8.285,269.800 7.126 C 267.600 6.851,264.360 6.654,262.600 6.690 C 259.685 6.749,257.848 7.093,250.600 8.938 C 237.625 12.241,223.314 13.027,215.600 10.862 C 207.816 8.677,200.473 8.278,193.400 9.655 C 192.300 9.870,190.770 10.111,190.000 10.192 C 189.230 10.273,187.790 10.529,186.800 10.760 C 184.111 11.388,177.367 11.282,174.600 10.568 C 166.140 8.386,159.681 7.934,137.800 7.992 C 128.818 8.016,124.291 7.849,119.800 7.331 C 116.500 6.949,112.180 6.662,110.200 6.691 C 105.943 6.755,93.291 6.799,85.400 6.776 C 82.320 6.768,73.320 6.774,65.400 6.790 C 48.678 6.824,36.893 6.269,33.400 5.284 C 30.636 4.503,23.186 4.421,19.600 5.130 C 12.638 6.508,10.768 5.864,10.216 1.900 C 9.911 -0.288,8.000 -1.096,8.000 0.963 M270.600 12.093 C 275.778 13.557,274.798 17.444,269.200 17.644 C 261.178 17.931,255.200 16.824,255.200 15.053 C 255.200 11.964,264.097 10.253,270.600 12.093 M349.830 15.199 C 341.896 16.628,334.354 21.401,331.648 26.707 C 327.662 34.520,335.357 41.090,340.400 34.180 C 343.202 30.340,346.683 29.660,351.878 31.938 C 355.600 33.570,357.550 33.580,361.028 31.987 C 366.361 29.544,368.797 29.936,372.639 33.855 C 378.252 39.579,382.508 33.753,378.580 25.723 C 374.884 18.168,361.186 13.154,349.830 15.199 M51.600 16.351 C 59.557 18.909,67.281 28.457,63.925 31.584 C 62.725 32.702,62.474 32.655,58.496 30.555 C 54.218 28.298,50.927 28.197,46.600 30.193 C 43.373 31.681,41.296 31.688,37.800 30.222 C 33.737 28.518,29.791 28.510,27.064 30.200 C 25.999 30.860,24.469 31.802,23.664 32.293 C 17.698 35.934,16.777 29.106,22.511 23.743 C 31.027 15.777,41.520 13.110,51.600 16.351 M363.373 17.593 C 371.345 19.632,377.181 24.625,377.196 29.420 C 377.204 31.988,376.072 32.147,372.107 30.137 C 368.250 28.183,365.864 28.163,361.375 30.048 C 357.414 31.711,355.887 31.716,351.713 30.085 C 346.393 28.006,344.614 28.254,338.253 31.964 C 335.275 33.701,333.784 32.907,333.949 29.671 C 334.394 20.961,350.573 14.319,363.373 17.593 M141.428 20.645 C 137.719 25.502,144.122 29.806,148.471 25.378 C 151.278 22.520,149.623 19.986,144.328 19.038 C 142.931 18.788,142.784 18.869,141.428 20.645 M254.912 47.900 C 255.039 49.825,255.440 52.828,255.803 54.573 C 256.839 59.559,255.551 61.082,252.110 58.937 C 247.076 55.801,247.604 47.368,253.035 44.146 C 254.281 43.407,254.667 44.180,254.912 47.900 M217.299 52.392 C 218.529 53.360,219.002 56.287,218.578 60.313 L 218.295 63.000 215.348 65.854 C 211.646 69.438,211.639 69.747,215.214 72.355 C 216.762 73.484,218.144 74.721,218.285 75.104 C 218.426 75.487,219.207 76.790,220.020 78.000 C 220.833 79.210,222.080 81.145,222.791 82.300 C 223.664 83.718,224.362 84.415,224.942 84.447 C 225.925 84.502,225.680 84.539,229.149 83.812 C 232.353 83.140,233.333 83.482,236.011 86.211 C 236.977 87.195,237.999 88.000,238.283 88.000 C 238.567 88.000,238.800 88.240,238.800 88.534 C 238.800 88.827,239.700 89.920,240.800 90.961 C 243.180 93.214,243.830 98.000,241.757 98.000 C 241.415 98.000,241.200 98.428,241.200 99.111 C 241.200 100.347,242.766 100.559,245.459 99.687 C 246.910 99.217,249.202 99.359,250.385 99.992 C 250.904 100.270,253.813 100.400,258.383 100.351 C 265.728 100.272,266.800 100.465,266.800 101.866 C 266.800 102.178,267.846 102.929,269.125 103.533 C 270.403 104.138,272.662 105.480,274.144 106.516 L 276.838 108.400 280.809 108.400 L 284.779 108.400 285.398 109.597 C 287.012 112.718,285.335 114.029,277.474 115.790 C 269.998 117.464,266.085 117.616,261.697 116.400 C 258.051 115.390,257.604 115.397,253.105 116.546 C 247.586 117.955,209.668 117.907,206.938 116.487 C 204.505 115.221,202.563 112.419,204.100 112.391 C 205.302 112.370,206.400 107.161,206.400 101.485 C 206.400 96.210,206.425 96.052,207.273 95.928 C 208.567 95.738,208.857 94.231,209.062 86.637 C 209.196 81.649,209.118 79.797,208.765 79.578 C 208.058 79.142,209.085 71.600,209.851 71.600 C 210.264 71.600,210.400 70.905,210.400 68.800 C 210.400 67.249,210.226 66.000,210.010 66.000 C 208.108 66.000,207.571 58.963,209.300 56.696 C 209.905 55.902,210.400 55.003,210.400 54.696 C 210.400 52.476,215.317 50.833,217.299 52.392 M39.200 60.044 C 37.990 60.494,35.200 61.482,33.000 62.240 C 28.911 63.649,27.878 64.372,28.287 65.539 C 30.837 72.816,47.772 74.403,53.856 67.935 C 56.541 65.080,56.031 64.114,50.795 62.144 C 41.597 58.682,42.448 58.837,39.200 60.044 M354.200 59.776 C 353.320 60.063,351.736 60.678,350.681 61.143 C 349.625 61.608,347.645 62.277,346.281 62.630 C 342.040 63.727,341.563 65.243,344.615 67.929 C 350.506 73.115,362.259 73.194,367.670 68.085 C 370.639 65.281,370.093 63.975,365.200 62.173 C 356.221 58.867,356.678 58.967,354.200 59.776 M46.898 63.404 C 50.903 65.300,51.370 67.069,48.255 68.547 C 41.114 71.936,29.234 67.959,35.512 64.281 C 39.715 61.819,43.014 61.565,46.898 63.404 M361.678 63.682 C 365.458 65.705,365.562 66.799,362.140 68.539 C 355.448 71.940,343.644 67.698,350.069 64.201 C 354.778 61.638,357.621 61.511,361.678 63.682 M263.758 86.300 C 264.122 88.108,263.493 90.182,262.537 90.321 C 261.627 90.453,261.215 89.545,261.205 87.380 C 261.196 85.158,263.345 84.248,263.758 86.300 M106.900 95.861 C 108.242 96.306,107.873 100.238,106.420 100.990 C 104.720 101.869,104.066 101.756,102.760 100.358 C 101.441 98.945,101.062 96.000,102.200 96.000 C 102.530 96.000,103.173 95.627,103.629 95.171 C 104.403 94.397,104.517 94.384,105.329 94.985 C 105.808 95.340,106.515 95.734,106.900 95.861 M30.500 96.479 C 31.822 98.008,31.145 100.053,28.157 103.554 C 27.703 104.086,25.683 102.586,25.253 101.397 C 23.870 97.570,28.053 93.649,30.500 96.479 M169.000 277.085 C 159.607 277.917,158.357 279.186,163.282 282.886 C 167.114 285.766,168.105 287.068,169.149 290.600 C 170.349 294.656,172.318 295.404,173.027 292.072 C 174.347 285.876,177.085 284.660,183.108 287.594 C 185.028 288.530,186.876 289.536,187.212 289.830 C 187.549 290.125,189.127 290.568,190.718 290.815 L 193.612 291.263 195.670 289.413 C 203.297 282.556,214.874 282.188,222.600 288.558 L 223.800 289.547 226.129 287.981 C 229.454 285.745,230.892 285.440,238.400 285.376 C 244.168 285.326,245.303 285.206,247.400 284.423 C 249.155 283.768,251.197 283.443,255.000 283.213 C 257.860 283.039,261.753 282.663,263.651 282.376 C 267.760 281.754,269.623 282.253,272.228 284.670 C 276.786 288.901,278.154 288.921,286.200 284.875 C 290.148 282.890,292.579 282.184,298.111 281.415 C 307.498 280.111,306.037 279.102,293.162 277.997 C 281.938 277.033,279.292 277.012,273.712 277.841 C 270.045 278.386,268.746 278.409,265.027 277.999 C 262.438 277.713,259.163 277.628,257.000 277.790 C 254.506 277.977,251.634 277.857,247.960 277.412 C 243.449 276.866,240.171 276.803,227.787 277.024 C 219.654 277.169,211.020 277.276,208.600 277.260 C 206.180 277.245,196.550 277.175,187.200 277.105 C 177.850 277.035,169.660 277.026,169.000 277.085 M138.556 278.035 C 134.224 278.760,133.527 279.529,135.930 280.932 C 139.952 283.281,147.672 283.407,149.889 281.159 C 152.043 278.976,152.018 278.939,147.847 278.144 C 144.716 277.547,141.688 277.511,138.556 278.035 M351.800 314.839 C 335.142 318.155,325.517 327.043,330.754 334.272 C 333.584 338.179,337.338 338.071,340.560 333.989 C 343.576 330.170,346.131 329.663,351.600 331.800 C 355.961 333.504,356.787 333.523,360.713 332.010 C 367.097 329.548,368.321 329.741,372.257 333.831 C 378.627 340.450,384.887 334.126,380.612 325.389 C 376.707 317.407,363.392 312.531,351.800 314.839 M33.092 317.181 C 25.533 319.597,17.617 327.433,17.604 332.513 C 17.589 338.243,21.955 339.715,26.181 335.404 C 29.992 331.518,32.116 331.101,37.400 333.200 C 41.275 334.739,43.149 334.731,47.090 333.159 C 52.505 330.998,54.614 331.444,58.484 335.567 C 61.738 339.033,64.778 338.780,66.253 334.918 C 67.790 330.893,63.600 322.849,58.653 320.325 C 51.720 316.788,39.156 315.243,33.092 317.181 M364.600 317.002 C 373.862 318.946,381.797 327.840,377.818 331.818 C 376.551 333.086,376.753 333.127,372.800 330.800 C 368.465 328.249,366.096 328.091,361.267 330.033 C 357.363 331.603,355.466 331.600,351.645 330.021 C 346.668 327.964,344.066 328.278,339.300 331.509 C 335.867 333.837,333.200 333.144,333.200 329.925 C 333.200 321.344,350.794 314.103,364.600 317.002 M49.800 319.179 C 57.945 321.316,63.185 325.791,63.196 330.620 C 63.203 333.670,62.109 333.869,57.800 331.600 C 54.004 329.601,52.403 329.548,47.447 331.260 C 42.868 332.842,41.515 332.836,36.815 331.213 C 31.886 329.510,29.886 329.652,26.042 331.975 C 17.773 336.971,19.218 327.740,27.600 322.018 C 33.738 317.827,41.075 316.889,49.800 319.179 M353.400 360.262 C 351.860 360.836,349.250 361.751,347.600 362.294 C 342.800 363.874,342.800 363.874,342.800 365.060 C 342.800 370.953,359.441 373.801,366.416 369.101 C 369.974 366.703,370.382 364.199,367.400 363.058 C 366.300 362.637,363.656 361.597,361.525 360.746 C 356.949 358.920,356.990 358.922,353.400 360.262 M39.000 361.442 C 37.460 362.011,34.621 363.018,32.692 363.679 C 28.698 365.049,28.039 365.742,28.987 367.576 C 32.596 374.554,52.160 374.344,54.839 367.299 C 55.477 365.620,54.656 364.966,49.305 362.887 C 42.460 360.229,42.332 360.211,39.000 361.442 M361.238 363.700 C 365.597 365.912,364.972 367.716,359.395 369.021 C 353.311 370.445,346.385 367.837,349.084 365.139 C 351.846 362.376,357.346 361.725,361.238 363.700 M47.200 364.908 C 52.453 367.518,49.526 370.602,41.800 370.598 C 33.308 370.593,31.413 366.770,38.620 364.180 C 41.998 362.966,43.556 363.098,47.200 364.908 " stroke="none" fill="#b4b4b4" fill-rule="evenodd"></path><path id="path5" d="M10.216 1.900 C 10.768 5.864,12.638 6.508,19.600 5.130 C 23.186 4.421,30.636 4.503,33.400 5.284 C 36.893 6.269,48.678 6.824,65.400 6.790 C 73.320 6.774,82.320 6.768,85.400 6.776 C 93.291 6.799,105.943 6.755,110.200 6.691 C 112.180 6.662,116.500 6.949,119.800 7.331 C 124.291 7.849,128.818 8.016,137.800 7.992 C 159.681 7.934,166.140 8.386,174.600 10.568 C 177.367 11.282,184.111 11.388,186.800 10.760 C 187.790 10.529,189.230 10.273,190.000 10.192 C 190.770 10.111,192.300 9.870,193.400 9.655 C 200.473 8.278,207.816 8.677,215.600 10.862 C 223.314 13.027,237.625 12.241,250.600 8.938 C 257.848 7.093,259.685 6.749,262.600 6.690 C 264.360 6.654,267.600 6.851,269.800 7.126 C 279.039 8.285,282.646 8.161,289.400 6.452 C 290.280 6.230,293.682 6.100,296.959 6.164 C 300.236 6.227,304.466 6.141,306.359 5.972 C 308.252 5.803,312.050 5.548,314.800 5.406 C 317.550 5.263,320.980 4.984,322.423 4.786 C 323.865 4.587,325.575 4.526,326.223 4.649 C 331.884 5.726,342.017 4.853,345.647 2.975 C 346.632 2.466,348.159 2.248,351.290 2.168 C 353.651 2.107,355.735 1.964,355.920 1.849 C 357.562 0.834,363.750 0.899,367.939 1.975 C 370.002 2.505,372.033 2.201,373.105 1.203 C 373.530 0.806,374.221 0.394,374.639 0.287 C 375.058 0.180,368.309 0.072,359.643 0.046 L 343.887 -0.000 342.780 1.158 C 340.472 3.573,334.017 3.704,326.276 1.492 C 325.035 1.137,324.551 1.174,323.674 1.693 C 321.818 2.789,317.692 3.281,311.400 3.156 C 308.100 3.090,303.480 3.190,301.134 3.377 C 298.142 3.616,296.135 3.573,294.414 3.235 C 291.839 2.728,289.404 3.007,285.691 4.232 C 282.797 5.188,277.828 5.321,270.481 4.641 C 260.974 3.760,260.059 3.803,253.786 5.425 C 248.553 6.778,242.594 7.596,232.600 8.334 C 228.631 8.627,221.817 8.310,218.400 7.673 C 208.122 5.758,200.796 5.493,190.694 6.669 C 185.442 7.280,183.981 7.299,177.494 6.845 C 169.277 6.269,151.053 5.487,146.200 5.501 C 144.440 5.507,138.950 5.568,134.000 5.637 C 127.589 5.726,124.425 5.614,123.000 5.247 C 121.900 4.963,120.550 4.651,120.000 4.553 C 119.450 4.456,118.361 4.127,117.580 3.823 C 116.080 3.239,112.611 3.456,108.000 4.421 C 105.090 5.030,99.040 4.937,92.452 4.183 C 88.291 3.706,86.251 3.660,83.252 3.974 C 76.413 4.692,48.657 4.480,44.600 3.679 C 43.500 3.462,41.085 3.258,39.234 3.225 C 37.383 3.193,35.752 3.094,35.610 3.006 C 33.470 1.684,23.914 1.549,16.534 2.737 C 14.128 3.125,13.489 2.863,12.804 1.209 C 11.863 -1.063,9.877 -0.533,10.216 1.900 M35.600 15.752 C 27.716 18.087,19.009 25.407,18.742 29.925 C 18.561 33.000,20.767 34.061,23.664 32.293 C 24.469 31.802,25.999 30.860,27.064 30.200 C 29.791 28.510,33.737 28.518,37.800 30.222 C 41.296 31.688,43.373 31.681,46.600 30.193 C 50.927 28.197,54.218 28.298,58.496 30.555 C 62.474 32.655,62.725 32.702,63.925 31.584 C 67.281 28.457,59.557 18.909,51.600 16.351 C 48.278 15.283,38.429 14.914,35.600 15.752 M49.509 17.438 C 56.580 19.002,65.900 29.297,59.296 28.249 C 53.668 27.357,51.099 27.465,47.414 28.750 C 42.967 30.301,41.642 30.307,36.937 28.800 C 32.498 27.378,30.016 27.291,26.890 28.446 C 21.183 30.555,20.196 28.876,24.425 24.249 C 30.574 17.521,39.242 15.167,49.509 17.438 M348.867 17.413 C 345.512 18.142,340.253 20.724,337.890 22.804 C 332.237 27.780,332.535 35.299,338.253 31.964 C 344.614 28.254,346.393 28.006,351.713 30.085 C 355.887 31.716,357.414 31.711,361.375 30.048 C 365.864 28.163,368.250 28.183,372.107 30.137 C 376.072 32.147,377.204 31.988,377.196 29.420 C 377.169 21.082,361.859 14.593,348.867 17.413 M364.461 19.043 C 372.373 21.543,377.832 28.560,371.242 27.760 C 367.251 27.275,365.065 27.512,361.495 28.815 C 357.412 30.305,355.494 30.302,351.200 28.800 C 347.178 27.393,344.380 27.281,341.200 28.400 C 332.322 31.523,337.485 22.816,346.530 19.412 C 351.905 17.389,358.777 17.248,364.461 19.043 M213.200 52.049 C 211.902 52.567,210.400 53.987,210.400 54.696 C 210.400 55.003,209.905 55.902,209.300 56.696 C 207.571 58.963,208.108 66.000,210.010 66.000 C 210.226 66.000,210.400 67.249,210.400 68.800 C 210.400 70.905,210.264 71.600,209.851 71.600 C 209.085 71.600,208.058 79.142,208.765 79.578 C 209.118 79.797,209.196 81.649,209.062 86.637 C 208.857 94.231,208.567 95.738,207.273 95.928 C 206.425 96.052,206.400 96.210,206.400 101.485 C 206.400 107.161,205.302 112.370,204.100 112.391 C 202.563 112.419,204.505 115.221,206.938 116.487 C 209.668 117.907,247.586 117.955,253.105 116.546 C 257.604 115.397,258.051 115.390,261.697 116.400 C 266.085 117.616,269.998 117.464,277.474 115.790 C 285.335 114.029,287.012 112.718,285.398 109.597 L 284.779 108.400 280.809 108.400 L 276.838 108.400 274.144 106.516 C 272.662 105.480,270.403 104.138,269.125 103.533 C 267.846 102.929,266.800 102.178,266.800 101.866 C 266.800 100.465,265.728 100.272,258.383 100.351 C 253.813 100.400,250.904 100.270,250.385 99.992 C 249.202 99.359,246.910 99.217,245.459 99.687 C 242.766 100.559,241.200 100.347,241.200 99.111 C 241.200 98.428,241.415 98.000,241.757 98.000 C 243.830 98.000,243.180 93.214,240.800 90.961 C 239.700 89.920,238.800 88.827,238.800 88.534 C 238.800 88.240,238.567 88.000,238.283 88.000 C 237.999 88.000,236.977 87.195,236.011 86.211 C 233.333 83.482,232.353 83.140,229.149 83.812 C 225.680 84.539,225.925 84.502,224.942 84.447 C 224.362 84.415,223.664 83.718,222.791 82.300 C 222.080 81.145,220.833 79.210,220.020 78.000 C 219.207 76.790,218.426 75.487,218.285 75.104 C 218.144 74.721,216.762 73.484,215.214 72.355 C 211.639 69.747,211.646 69.438,215.348 65.854 L 218.295 63.000 218.578 60.313 C 219.310 53.363,217.372 50.386,213.200 52.049 M38.870 62.772 C 34.266 64.478,33.037 65.686,34.238 67.326 C 36.823 70.858,48.444 70.574,50.101 66.938 C 51.397 64.093,43.356 61.110,38.870 62.772 M353.769 62.542 C 351.104 63.413,348.000 65.268,348.000 65.989 C 348.000 70.269,360.333 71.115,364.165 67.096 C 366.382 64.771,358.078 61.133,353.769 62.542 M43.803 65.201 C 46.253 66.133,43.469 68.003,40.700 67.286 C 39.149 66.884,39.017 66.017,40.400 65.318 C 41.616 64.703,42.419 64.675,43.803 65.201 M358.581 65.264 C 360.085 65.950,359.827 66.558,357.776 67.164 C 354.611 68.098,351.868 66.599,354.400 65.318 C 355.654 64.683,357.261 64.663,358.581 65.264 M261.680 85.680 C 261.164 86.196,261.058 88.028,261.458 89.521 C 261.853 90.996,263.300 90.525,263.675 88.800 C 264.283 86.008,263.140 84.220,261.680 85.680 M103.629 95.171 C 103.173 95.627,102.530 96.000,102.200 96.000 C 101.062 96.000,101.441 98.945,102.760 100.358 C 104.066 101.756,104.720 101.869,106.420 100.990 C 107.873 100.238,108.242 96.306,106.900 95.861 C 106.515 95.734,105.808 95.340,105.329 94.985 C 104.517 94.384,104.403 94.397,103.629 95.171 M352.000 316.676 C 346.267 317.632,339.308 320.754,336.394 323.678 C 330.656 329.437,333.008 335.775,339.300 331.509 C 344.066 328.278,346.668 327.964,351.645 330.021 C 355.466 331.600,357.363 331.603,361.267 330.033 C 366.096 328.091,368.465 328.249,372.800 330.800 C 376.753 333.127,376.551 333.086,377.818 331.818 C 381.797 327.840,373.862 318.946,364.600 317.002 C 362.022 316.461,354.463 316.265,352.000 316.676 M364.052 318.176 C 371.065 319.662,377.287 325.521,375.255 328.725 C 374.987 329.148,374.448 329.090,372.474 328.425 C 368.975 327.246,365.934 327.350,361.535 328.800 C 356.997 330.296,355.803 330.297,351.581 328.808 C 347.181 327.257,344.447 327.222,340.368 328.665 C 335.911 330.242,334.780 329.234,337.102 325.754 C 341.232 319.562,353.851 316.014,364.052 318.176 M34.492 318.593 C 27.779 320.488,20.800 326.800,20.800 330.976 C 20.800 334.087,22.127 334.340,26.042 331.975 C 29.886 329.652,31.886 329.510,36.815 331.213 C 41.515 332.836,42.868 332.842,47.447 331.260 C 52.403 329.548,54.004 329.601,57.800 331.600 C 62.109 333.869,63.203 333.670,63.196 330.620 C 63.178 322.601,45.915 315.368,34.492 318.593 M50.200 320.389 C 55.714 322.139,60.000 325.474,60.000 328.014 C 60.000 329.380,59.432 329.613,57.173 329.177 C 53.951 328.555,51.624 328.764,47.903 330.011 C 42.628 331.778,42.216 331.794,37.854 330.397 C 32.795 328.777,30.816 328.580,27.465 329.364 C 19.631 331.199,26.008 322.593,34.600 319.736 C 37.190 318.875,46.681 319.272,50.200 320.389 M352.225 363.395 C 347.895 365.175,347.302 366.982,350.571 368.429 C 355.409 370.568,364.263 369.008,363.924 366.075 C 363.585 363.141,356.687 361.561,352.225 363.395 M38.620 364.180 C 31.413 366.770,33.308 370.593,41.800 370.598 C 49.526 370.602,52.453 367.518,47.200 364.908 C 43.556 363.098,41.998 362.966,38.620 364.180 M43.652 366.828 C 45.356 367.740,42.649 368.931,40.633 368.157 C 39.878 367.868,39.796 366.949,40.500 366.665 C 41.376 366.311,42.827 366.386,43.652 366.828 " stroke="none" fill="#b4bcb4" fill-rule="evenodd"></path><path id="path6" d="M393.200 0.735 C 393.200 1.710,393.686 2.194,395.600 3.121 C 397.925 4.248,396.918 8.472,393.196 13.200 C 389.629 17.732,388.995 21.301,390.001 31.200 C 390.646 37.543,390.339 39.074,387.186 45.260 C 384.959 49.628,384.736 50.321,383.783 55.867 C 383.222 59.130,382.412 63.180,381.982 64.867 C 380.707 69.867,380.810 70.368,383.536 72.486 C 388.568 76.393,389.621 80.944,388.400 93.497 C 387.856 99.096,387.937 103.809,388.631 106.800 C 391.663 119.872,389.560 122.000,373.613 122.000 C 368.595 122.000,362.091 122.304,356.985 122.777 C 351.911 123.248,341.808 123.722,331.400 123.979 C 321.940 124.212,306.640 124.628,297.400 124.902 C 264.196 125.887,166.734 125.386,154.054 124.165 C 147.987 123.581,147.067 123.585,141.454 124.221 C 136.085 124.829,134.626 124.849,128.562 124.393 C 123.024 123.976,117.818 123.973,101.162 124.376 C 87.891 124.697,68.615 124.797,46.800 124.660 C 10.937 124.434,9.186 124.343,3.918 122.435 C 0.199 121.088,-0.090 121.042,0.063 121.811 C 0.244 122.718,6.443 124.631,11.128 125.225 C 16.259 125.876,75.044 126.075,100.556 125.528 C 117.488 125.165,123.496 125.172,128.562 125.561 C 134.130 125.989,135.869 125.967,141.304 125.404 C 147.068 124.806,148.202 124.804,154.790 125.377 C 159.433 125.782,166.276 125.997,174.091 125.985 C 180.751 125.974,193.130 126.172,201.600 126.424 C 218.032 126.914,265.780 126.699,296.400 125.998 C 342.734 124.936,350.286 124.707,356.400 124.177 C 360.030 123.862,367.176 123.603,372.280 123.602 C 390.640 123.598,394.598 120.721,392.639 108.800 C 391.648 102.773,391.067 94.981,391.336 91.330 C 391.479 89.389,391.774 85.811,391.992 83.380 C 392.352 79.377,392.312 78.699,391.562 76.180 C 391.107 74.651,390.462 72.410,390.129 71.200 C 389.796 69.990,389.384 68.910,389.214 68.800 C 385.881 66.643,385.909 52.347,389.250 49.994 C 389.411 49.881,390.377 48.144,391.397 46.133 C 394.164 40.679,394.645 37.458,393.768 30.247 C 392.914 23.219,393.136 19.363,394.578 16.211 C 395.490 14.217,397.926 7.510,398.650 5.000 C 399.218 3.031,399.218 2.122,398.652 1.032 L 398.045 -0.136 397.558 0.932 C 397.067 2.009,396.186 2.358,395.926 1.578 C 395.849 1.346,395.492 1.113,395.133 1.061 C 394.774 1.008,394.193 0.726,393.840 0.433 C 393.288 -0.025,393.200 0.017,393.200 0.735 M38.945 42.146 C 37.345 43.522,37.021 47.949,38.446 48.947 C 41.174 50.858,47.213 49.445,47.190 46.900 C 47.146 41.753,42.510 39.080,38.945 42.146 M353.169 42.369 C 352.040 43.499,351.745 44.743,351.978 47.400 C 352.168 49.566,358.867 50.715,360.538 48.869 C 361.812 47.460,361.153 42.431,359.584 41.592 C 357.911 40.696,354.419 41.119,353.169 42.369 M222.000 192.778 C 221.230 192.952,218.710 193.769,216.400 194.594 C 209.689 196.989,205.264 197.379,200.800 195.968 C 197.492 194.922,194.695 195.171,192.980 196.664 C 192.331 197.229,191.395 197.961,190.900 198.292 C 190.405 198.622,190.000 199.117,190.000 199.391 C 190.000 199.665,189.438 200.590,188.752 201.445 C 186.395 204.382,185.424 207.777,186.414 209.626 C 186.786 210.321,187.304 210.402,191.514 210.424 C 197.546 210.455,199.454 210.790,201.777 212.228 C 202.819 212.872,204.331 213.802,205.136 214.293 C 207.045 215.458,210.176 215.479,215.219 214.362 C 218.206 213.700,219.588 213.588,221.800 213.828 C 226.610 214.349,228.075 214.246,230.130 213.243 C 231.560 212.544,232.176 212.416,232.510 212.750 C 232.757 212.997,233.545 213.200,234.260 213.200 C 234.975 213.200,235.704 213.427,235.880 213.704 C 237.384 216.073,244.839 217.740,246.839 216.155 C 247.147 215.910,247.895 215.592,248.500 215.448 C 249.105 215.303,249.600 215.008,249.600 214.792 C 249.600 214.577,249.864 214.400,250.186 214.400 C 250.508 214.400,251.363 213.886,252.086 213.259 C 252.809 212.631,253.805 211.905,254.300 211.645 C 254.795 211.385,255.200 210.927,255.200 210.629 C 255.200 209.123,259.497 209.193,261.286 210.727 C 265.035 213.941,266.979 214.258,271.541 212.399 C 273.159 211.739,275.084 211.200,275.819 211.200 C 276.666 211.200,277.346 210.928,277.677 210.457 C 277.965 210.049,278.621 209.582,279.137 209.419 C 279.657 209.254,280.313 208.548,280.613 207.830 C 280.911 207.118,281.434 206.304,281.777 206.019 C 282.577 205.355,282.588 203.358,281.794 203.053 C 281.461 202.925,281.017 202.371,280.808 201.822 C 280.599 201.272,279.837 200.573,279.114 200.267 C 278.391 199.962,277.350 199.273,276.800 198.736 C 273.189 195.211,270.284 193.600,267.539 193.600 C 265.669 193.600,261.200 194.734,261.200 195.208 C 261.200 195.375,260.570 195.629,259.800 195.774 C 259.030 195.918,258.400 196.233,258.400 196.474 C 258.400 197.103,254.083 196.595,253.259 195.869 C 252.896 195.550,251.970 195.161,251.200 195.005 C 250.430 194.849,249.436 194.492,248.992 194.211 C 248.547 193.931,247.467 193.596,246.592 193.466 C 245.716 193.337,244.369 193.119,243.597 192.983 C 242.633 192.813,241.533 192.996,240.082 193.568 C 237.823 194.458,233.662 194.702,232.946 193.986 C 231.976 193.016,224.567 192.198,222.000 192.778 M106.800 270.861 C 88.650 271.013,60.570 271.231,44.400 271.346 C 15.471 271.551,10.236 271.772,4.875 273.015 C 3.487 273.337,1.822 273.600,1.175 273.600 C 0.529 273.600,0.000 273.780,0.000 274.000 C 0.000 274.727,2.511 274.635,6.364 273.767 C 11.740 272.557,22.218 272.377,122.000 271.781 C 220.775 271.192,277.649 271.341,343.826 272.364 C 378.678 272.902,389.390 274.007,392.793 277.412 L 393.800 278.420 393.827 287.310 C 393.848 294.403,394.023 297.210,394.695 301.200 C 395.434 305.590,396.363 326.731,396.110 333.400 C 396.085 334.060,395.988 344.860,395.894 357.400 L 395.723 380.200 394.696 383.117 C 392.502 389.345,388.643 392.208,381.077 393.219 C 372.638 394.346,317.113 394.895,306.075 393.961 C 301.957 393.612,299.372 393.626,294.675 394.020 C 288.372 394.550,280.639 394.647,254.200 394.532 C 245.620 394.494,235.180 394.484,231.000 394.509 C 226.820 394.534,212.420 394.405,199.000 394.223 C 185.580 394.040,173.430 393.911,172.000 393.936 C 151.282 394.294,128.098 394.222,122.800 393.785 C 118.453 393.426,112.535 393.345,103.000 393.515 C 53.747 394.393,18.867 393.204,12.978 390.448 C 4.180 386.332,1.639 379.887,2.828 364.709 C 3.470 356.502,3.416 340.699,2.737 338.200 C 2.450 337.144,2.335 331.294,2.400 321.000 C 2.637 283.208,2.683 284.304,0.802 282.602 L 0.000 281.876 0.000 331.995 L 0.000 382.114 1.152 383.357 C 9.048 391.874,10.956 393.130,18.000 394.444 C 21.292 395.059,36.841 395.771,44.800 395.671 C 49.187 395.617,53.218 395.793,55.600 396.145 C 58.725 396.605,62.280 396.637,75.600 396.324 C 100.610 395.735,116.626 395.638,120.838 396.051 C 123.936 396.354,145.522 396.474,171.600 396.334 C 185.219 396.260,207.762 396.495,219.000 396.827 C 229.355 397.134,234.312 397.096,242.000 396.655 C 247.390 396.345,253.420 396.207,255.400 396.347 C 257.380 396.488,266.830 396.540,276.400 396.463 C 300.265 396.272,303.337 396.282,323.200 396.617 C 356.454 397.177,381.236 396.319,386.637 394.421 C 392.703 392.289,395.432 388.951,396.631 382.200 C 397.490 377.362,397.457 309.651,396.591 300.800 C 396.223 297.034,396.014 291.298,396.060 286.189 C 396.156 275.413,396.314 275.714,389.649 274.013 C 385.903 273.056,376.410 272.132,367.000 271.808 C 337.050 270.776,183.721 270.218,106.800 270.861 M353.692 341.468 C 351.869 342.201,351.179 347.566,352.744 348.835 C 353.977 349.834,358.954 349.928,360.311 348.977 C 362.002 347.793,361.249 342.696,359.222 341.612 C 358.441 341.194,354.620 341.094,353.692 341.468 M38.970 343.324 C 37.021 345.001,36.972 350.031,38.899 350.548 C 40.902 351.084,45.523 350.820,46.214 350.129 C 47.360 348.983,46.865 344.559,45.455 343.346 C 43.906 342.013,40.508 342.002,38.970 343.324 " stroke="none" fill="#484846" fill-rule="evenodd"></path><path id="path7" d="M394.014 0.617 C 394.276 0.933,394.636 1.102,394.813 0.992 C 394.990 0.882,395.407 1.064,395.739 1.396 C 396.570 2.227,397.002 2.154,397.481 1.100 C 397.876 0.231,397.815 0.197,395.714 0.122 C 393.864 0.055,393.610 0.130,394.014 0.617 M398.400 0.576 C 398.400 0.893,398.597 1.275,398.838 1.424 C 399.253 1.680,399.173 3.234,398.654 5.000 C 397.875 7.652,395.482 14.235,394.578 16.211 C 393.136 19.363,392.914 23.219,393.768 30.247 C 394.645 37.458,394.164 40.679,391.397 46.133 C 390.377 48.144,389.411 49.881,389.250 49.994 C 385.909 52.347,385.881 66.643,389.214 68.800 C 389.384 68.910,389.796 69.990,390.129 71.200 C 390.462 72.410,391.107 74.651,391.562 76.180 C 392.312 78.699,392.352 79.377,391.992 83.380 C 391.774 85.811,391.479 89.389,391.336 91.330 C 391.067 94.981,391.648 102.773,392.639 108.800 C 394.598 120.721,390.640 123.598,372.280 123.602 C 367.176 123.603,360.030 123.862,356.400 124.177 C 350.286 124.707,342.734 124.936,296.400 125.998 C 265.780 126.699,218.032 126.914,201.600 126.424 C 193.130 126.172,180.751 125.974,174.091 125.985 C 166.276 125.997,159.433 125.782,154.790 125.377 C 148.202 124.804,147.068 124.806,141.304 125.404 C 135.869 125.967,134.130 125.989,128.562 125.561 C 123.496 125.172,117.488 125.165,100.556 125.528 C 74.870 126.079,16.261 125.876,11.075 125.218 C 8.192 124.853,4.853 124.023,0.500 122.590 C 0.225 122.499,0.000 122.564,0.000 122.734 C -0.000 123.096,4.757 124.687,8.200 125.477 C 13.013 126.580,82.252 126.984,109.800 126.069 C 115.824 125.869,122.546 125.860,125.000 126.048 C 131.348 126.537,137.810 126.507,143.218 125.966 C 146.946 125.592,149.017 125.601,153.069 126.007 C 156.039 126.305,165.024 126.569,174.400 126.634 C 183.310 126.695,199.510 126.915,210.400 127.123 C 228.456 127.466,274.416 127.199,298.800 126.610 C 303.750 126.490,317.250 126.204,328.800 125.974 C 340.350 125.744,351.600 125.372,353.800 125.147 C 356.000 124.922,363.740 124.603,371.000 124.437 C 385.880 124.097,387.520 123.809,391.443 120.847 C 395.190 118.018,395.400 116.716,394.136 104.223 C 393.112 94.105,393.097 92.924,393.854 81.180 C 394.014 78.704,393.926 76.593,393.604 75.180 C 393.332 73.981,392.956 71.740,392.769 70.200 C 392.583 68.660,392.227 66.320,391.979 65.000 C 391.307 61.419,391.054 55.600,391.572 55.600 C 391.807 55.600,392.000 55.257,392.000 54.837 C 392.000 54.417,392.449 53.202,392.997 52.137 C 393.546 51.072,394.194 49.210,394.438 48.000 C 394.681 46.790,395.034 45.080,395.222 44.200 C 395.962 40.735,396.109 34.177,395.555 29.389 C 394.810 22.964,394.936 20.082,396.145 15.789 C 396.704 13.803,397.281 11.373,397.426 10.389 C 397.571 9.405,398.141 7.896,398.692 7.036 C 399.637 5.564,399.930 3.426,399.561 0.700 C 399.448 -0.138,398.400 -0.249,398.400 0.576 M225.400 183.886 C 224.740 183.981,221.680 184.697,218.600 185.478 C 212.339 187.065,209.881 187.106,201.200 185.771 C 190.747 184.163,179.600 188.814,179.600 194.783 C 179.600 195.019,179.442 195.523,179.249 195.905 C 179.056 196.287,178.604 197.284,178.246 198.120 C 177.480 199.905,177.333 200.094,174.229 203.274 C 172.055 205.501,171.843 205.876,171.685 207.784 L 171.512 209.864 174.474 213.432 C 176.104 215.394,178.204 218.020,179.141 219.267 C 182.004 223.073,185.025 223.950,190.058 222.435 C 194.347 221.143,194.781 221.133,199.000 222.224 C 202.310 223.080,204.449 223.319,211.400 223.613 C 216.020 223.808,221.060 224.164,222.600 224.404 C 230.257 225.598,243.915 224.339,251.000 221.787 C 256.293 219.880,257.516 219.911,261.886 222.064 C 265.772 223.978,268.578 224.286,273.214 223.308 C 274.416 223.054,276.480 222.635,277.800 222.377 C 282.637 221.430,287.800 218.122,288.656 215.422 C 289.060 214.148,291.180 211.547,293.585 209.374 C 299.861 203.704,301.066 200.259,298.257 196.015 C 294.944 191.009,290.212 188.800,282.799 188.800 C 277.697 188.800,275.843 188.473,272.595 186.999 C 269.238 185.476,265.602 185.054,261.801 185.747 C 257.148 186.594,254.665 186.769,252.858 186.377 C 246.759 185.053,228.682 183.412,225.400 183.886 M230.366 193.146 C 231.558 193.381,232.719 193.759,232.946 193.986 C 233.662 194.702,237.823 194.458,240.082 193.568 C 241.533 192.996,242.633 192.813,243.597 192.983 C 244.369 193.119,245.716 193.337,246.592 193.466 C 247.467 193.596,248.547 193.931,248.992 194.211 C 249.436 194.492,250.430 194.849,251.200 195.005 C 251.970 195.161,252.896 195.550,253.259 195.869 C 254.083 196.595,258.400 197.103,258.400 196.474 C 258.400 196.233,259.030 195.918,259.800 195.774 C 260.570 195.629,261.200 195.375,261.200 195.208 C 261.200 194.734,265.669 193.600,267.539 193.600 C 270.284 193.600,273.189 195.211,276.800 198.736 C 277.350 199.273,278.391 199.962,279.114 200.267 C 279.837 200.573,280.599 201.272,280.808 201.822 C 281.017 202.371,281.461 202.925,281.794 203.053 C 282.588 203.358,282.577 205.355,281.777 206.019 C 281.434 206.304,280.911 207.118,280.613 207.830 C 280.313 208.548,279.657 209.254,279.137 209.419 C 278.621 209.582,277.965 210.049,277.677 210.457 C 277.346 210.928,276.666 211.200,275.819 211.200 C 275.084 211.200,273.159 211.739,271.541 212.399 C 266.979 214.258,265.035 213.941,261.286 210.727 C 259.497 209.193,255.200 209.123,255.200 210.629 C 255.200 210.927,254.795 211.385,254.300 211.645 C 253.805 211.905,252.809 212.631,252.086 213.259 C 251.363 213.886,250.508 214.400,250.186 214.400 C 249.864 214.400,249.600 214.577,249.600 214.792 C 249.600 215.008,249.105 215.303,248.500 215.448 C 247.895 215.592,247.147 215.910,246.839 216.155 C 244.839 217.740,237.384 216.073,235.880 213.704 C 235.704 213.427,234.975 213.200,234.260 213.200 C 233.545 213.200,232.757 212.997,232.510 212.750 C 232.176 212.416,231.560 212.544,230.130 213.243 C 228.075 214.246,226.610 214.349,221.800 213.828 C 219.588 213.588,218.206 213.700,215.219 214.362 C 210.176 215.479,207.045 215.458,205.136 214.293 C 204.331 213.802,202.819 212.872,201.777 212.228 C 199.454 210.790,197.546 210.455,191.514 210.424 C 187.304 210.402,186.786 210.321,186.414 209.626 C 185.424 207.777,186.395 204.382,188.752 201.445 C 189.438 200.590,190.000 199.665,190.000 199.391 C 190.000 199.117,190.405 198.622,190.900 198.292 C 191.395 197.961,192.331 197.229,192.980 196.664 C 194.695 195.171,197.492 194.922,200.800 195.968 C 205.264 197.379,209.689 196.989,216.400 194.594 C 222.874 192.283,224.917 192.071,230.366 193.146 M186.681 269.852 C 186.617 269.917,166.502 270.063,141.982 270.179 C 30.227 270.703,13.363 270.914,8.000 271.852 C 2.644 272.789,-0.384 273.529,1.000 273.561 C 1.660 273.577,3.910 273.226,6.000 272.782 C 10.456 271.835,30.920 270.969,40.000 271.343 C 42.970 271.465,57.100 271.385,71.400 271.165 C 103.576 270.671,287.809 270.439,313.200 270.860 C 374.776 271.882,382.564 272.204,389.651 274.013 C 396.314 275.714,396.156 275.413,396.060 286.189 C 396.014 291.298,396.223 297.034,396.591 300.800 C 397.457 309.651,397.490 377.362,396.631 382.200 C 395.432 388.951,392.703 392.289,386.637 394.421 C 381.236 396.319,356.454 397.177,323.200 396.617 C 303.337 396.282,300.265 396.272,276.400 396.463 C 266.830 396.540,257.380 396.488,255.400 396.347 C 253.420 396.207,247.390 396.345,242.000 396.655 C 234.312 397.096,229.355 397.134,219.000 396.827 C 207.762 396.495,185.219 396.260,171.600 396.334 C 145.522 396.474,123.936 396.354,120.838 396.051 C 116.626 395.638,100.610 395.735,75.600 396.324 C 62.280 396.637,58.725 396.605,55.600 396.145 C 53.218 395.793,49.187 395.617,44.800 395.671 C 36.841 395.771,21.292 395.059,18.000 394.444 C 11.015 393.140,8.559 391.533,1.400 383.573 L 0.200 382.239 0.072 383.555 C -0.066 384.974,0.039 385.095,6.000 390.387 C 11.345 395.132,17.857 396.951,28.888 396.780 C 37.010 396.654,52.481 397.250,57.328 397.874 C 61.730 398.442,62.905 398.462,65.632 398.019 C 67.579 397.703,72.020 397.521,77.105 397.548 C 81.667 397.572,90.710 397.521,97.200 397.433 C 103.690 397.345,111.087 397.250,113.637 397.221 C 116.188 397.193,120.688 397.383,123.637 397.643 C 126.587 397.903,130.530 398.057,132.400 397.985 C 138.066 397.767,153.520 397.902,158.200 398.211 C 161.301 398.415,163.485 398.342,165.600 397.961 C 169.273 397.300,173.580 397.283,177.731 397.913 C 179.833 398.232,181.739 398.271,183.531 398.032 C 186.982 397.571,216.873 397.839,222.603 398.382 C 228.372 398.929,234.259 398.913,236.003 398.345 C 237.211 397.951,270.050 397.522,299.600 397.514 C 314.548 397.509,336.686 398.015,340.473 398.447 C 344.108 398.862,345.513 398.837,349.873 398.284 C 353.189 397.862,359.544 397.560,367.867 397.427 C 382.193 397.197,385.152 396.822,389.600 394.668 C 391.030 393.976,392.320 393.407,392.466 393.404 C 393.018 393.395,394.511 391.315,395.632 388.994 C 397.932 384.228,397.999 382.735,397.814 340.200 C 397.566 282.833,397.269 274.800,395.397 274.800 C 395.295 274.800,393.697 274.361,391.846 273.825 C 383.146 271.303,361.121 270.549,285.200 270.170 C 222.989 269.859,186.791 269.743,186.681 269.852 " stroke="none" fill="#3c443c" fill-rule="evenodd"></path><path id="path8" d="M0.046 5.100 C 0.074 8.230,0.200 9.659,0.372 8.800 C 0.526 8.030,0.842 7.040,1.074 6.600 C 1.306 6.160,1.431 5.440,1.352 5.000 C 1.273 4.560,1.169 3.750,1.121 3.200 C 1.073 2.650,0.853 2.076,0.633 1.924 C 0.386 1.755,0.519 1.331,0.978 0.824 C 1.709 0.016,1.707 0.000,0.862 0.000 C 0.022 0.000,0.001 0.130,0.046 5.100 M390.000 0.626 C 390.000 0.971,390.160 1.556,390.355 1.926 C 392.036 5.117,391.244 6.650,386.120 10.119 C 379.969 14.283,379.789 14.766,381.961 21.284 C 385.767 32.703,385.676 36.558,381.448 42.979 C 380.282 44.750,379.164 46.470,378.964 46.800 C 378.764 47.130,378.600 50.379,378.600 54.019 L 378.600 60.638 377.119 63.636 C 366.994 84.134,330.027 76.521,333.143 54.579 C 334.046 48.219,333.467 46.175,330.248 44.364 C 324.935 41.374,321.800 44.876,321.800 53.800 L 321.800 59.000 325.864 67.200 C 330.330 76.213,331.068 78.100,331.455 81.506 C 331.960 85.946,332.573 86.363,336.223 84.749 C 338.281 83.838,339.789 83.841,348.597 84.770 C 350.800 85.002,353.746 85.009,356.197 84.788 C 358.399 84.590,361.771 84.421,363.691 84.413 C 366.442 84.403,367.756 84.183,369.891 83.375 C 377.656 80.438,381.910 82.138,382.966 88.600 C 383.951 94.631,377.613 105.740,371.423 108.831 C 369.458 109.813,368.000 111.278,368.000 112.271 C 368.000 113.322,364.992 115.600,363.604 115.600 C 363.365 115.600,361.061 116.388,358.484 117.350 C 351.179 120.079,346.380 120.497,310.200 121.550 C 301.840 121.793,292.480 122.202,289.400 122.458 C 279.429 123.286,215.188 123.516,200.600 122.776 C 195.760 122.530,184.240 122.279,175.000 122.218 C 161.659 122.130,157.459 121.974,154.600 121.461 C 150.118 120.656,145.280 120.637,140.600 121.405 C 135.972 122.166,133.716 122.152,128.033 121.329 C 123.875 120.727,122.292 120.709,112.600 121.154 C 90.773 122.157,84.970 122.282,64.000 122.199 C 10.392 121.988,5.597 121.572,3.405 116.953 C 2.192 114.399,2.453 76.552,3.725 70.400 C 4.066 68.750,4.316 66.140,4.280 64.600 C 4.198 61.087,6.018 57.053,6.726 59.177 C 6.803 59.410,7.107 59.600,7.402 59.600 C 7.696 59.600,9.515 60.511,11.443 61.625 C 17.196 64.947,17.293 64.919,17.775 59.800 C 17.900 58.480,18.301 55.534,18.667 53.254 C 19.578 47.579,18.296 45.204,14.320 45.198 C 13.039 45.196,9.204 46.339,8.800 46.843 C 8.690 46.980,8.195 47.219,7.700 47.373 C 7.205 47.528,6.800 47.792,6.800 47.960 C 6.800 49.045,5.435 47.928,4.598 46.158 C 3.400 43.627,3.274 39.855,4.175 33.475 C 5.425 24.626,5.629 18.907,4.777 16.646 C 3.977 14.525,1.375 10.783,0.500 10.497 C 0.102 10.367,0.000 21.588,0.000 65.711 L -0.000 121.088 3.211 122.179 C 9.675 124.376,9.932 124.390,46.600 124.641 C 69.010 124.794,87.609 124.704,101.162 124.376 C 117.819 123.973,123.024 123.976,128.562 124.393 C 134.626 124.849,136.085 124.829,141.454 124.221 C 147.067 123.585,147.987 123.581,154.054 124.165 C 166.734 125.386,264.196 125.887,297.400 124.902 C 306.640 124.628,321.940 124.212,331.400 123.979 C 341.808 123.722,351.911 123.248,356.985 122.777 C 362.091 122.304,368.595 122.000,373.613 122.000 C 389.560 122.000,391.663 119.872,388.631 106.800 C 387.937 103.809,387.856 99.096,388.400 93.497 C 389.621 80.944,388.568 76.393,383.536 72.486 C 380.810 70.368,380.707 69.867,381.982 64.867 C 382.412 63.180,383.222 59.130,383.783 55.867 C 384.736 50.321,384.959 49.628,387.186 45.260 C 390.339 39.074,390.646 37.543,390.001 31.200 C 388.995 21.301,389.629 17.732,393.196 13.200 C 397.143 8.185,397.946 4.238,395.271 3.000 C 393.995 2.409,393.484 1.912,393.321 1.100 C 393.060 -0.197,390.000 -0.634,390.000 0.626 M48.785 35.434 C 42.047 37.378,42.523 37.317,39.658 36.606 C 32.836 34.913,33.269 34.953,32.301 35.921 C 31.512 36.710,31.417 37.221,31.409 40.732 C 31.400 44.600,31.376 44.700,29.824 47.214 C 25.013 55.008,29.216 60.014,37.200 56.000 C 39.517 54.835,40.876 54.400,42.200 54.400 C 43.524 54.400,44.883 54.835,47.200 56.000 C 55.115 59.979,58.971 55.596,54.802 47.358 C 53.289 44.370,53.203 44.006,53.202 40.589 C 53.199 35.448,52.315 34.416,48.785 35.434 M346.960 35.506 C 345.943 36.185,345.514 37.753,345.742 39.958 C 346.055 42.991,345.565 45.162,344.052 47.448 C 339.121 54.892,343.674 60.122,351.497 56.000 C 355.578 53.850,357.196 53.849,361.442 55.998 C 369.620 60.137,373.710 54.883,368.688 46.688 C 367.607 44.924,367.512 44.458,367.458 40.649 C 367.374 34.696,366.508 34.148,360.476 36.230 C 357.141 37.381,355.248 37.324,351.260 35.952 C 348.946 35.156,347.681 35.025,346.960 35.506 M45.575 41.900 C 47.176 43.197,47.691 47.509,46.400 48.800 C 45.335 49.865,39.899 49.965,38.446 48.947 C 37.021 47.949,37.345 43.522,38.945 42.146 C 40.353 40.934,44.207 40.791,45.575 41.900 M359.584 41.592 C 361.153 42.431,361.812 47.460,360.538 48.869 C 358.867 50.715,352.168 49.566,351.978 47.400 C 351.537 42.367,355.450 39.379,359.584 41.592 M67.355 45.992 C 64.612 47.100,64.357 48.880,66.041 55.167 C 67.653 61.187,67.635 61.158,68.934 59.758 C 71.651 56.828,72.855 50.408,71.198 47.690 C 70.580 46.677,68.824 45.437,68.274 45.625 C 68.233 45.639,67.820 45.804,67.355 45.992 M59.876 71.000 C 58.624 71.770,56.576 73.030,55.324 73.800 C 52.137 75.760,49.419 76.694,44.687 77.457 C 38.322 78.484,38.931 79.844,45.600 79.496 C 53.691 79.073,59.607 76.648,61.897 72.815 C 64.058 69.200,63.548 68.742,59.876 71.000 M359.990 103.500 C 357.631 106.489,360.153 111.953,363.672 111.481 C 366.715 111.073,367.169 109.511,365.208 106.200 C 362.799 102.134,361.570 101.498,359.990 103.500 M170.325 271.408 C 170.239 271.495,150.195 271.667,125.784 271.792 C 25.046 272.305,11.850 272.527,6.200 273.809 C 4.660 274.158,2.635 274.472,1.700 274.507 L 0.000 274.569 -0.000 278.127 C -0.000 281.315,0.101 281.805,0.976 282.844 C 2.367 284.497,2.607 286.641,2.542 296.800 C 2.309 332.950,2.326 336.690,2.737 338.200 C 3.416 340.699,3.470 356.502,2.828 364.709 C 1.639 379.887,4.180 386.332,12.978 390.448 C 18.867 393.204,53.747 394.393,103.000 393.515 C 112.535 393.345,118.453 393.426,122.800 393.785 C 128.098 394.222,151.282 394.294,172.000 393.936 C 173.430 393.911,185.580 394.040,199.000 394.223 C 212.420 394.405,226.820 394.534,231.000 394.509 C 235.180 394.484,245.620 394.494,254.200 394.532 C 280.639 394.647,288.372 394.550,294.675 394.020 C 299.372 393.626,301.957 393.612,306.075 393.961 C 317.113 394.895,372.638 394.346,381.077 393.219 C 388.643 392.208,392.502 389.345,394.696 383.117 L 395.723 380.200 395.894 357.400 C 395.988 344.860,396.085 334.060,396.110 333.400 C 396.363 326.731,395.434 305.590,394.695 301.200 C 394.023 297.210,393.848 294.403,393.827 287.310 L 393.800 278.420 392.793 277.412 C 389.290 273.906,379.093 272.916,341.298 272.410 C 326.283 272.210,313.848 271.953,313.665 271.840 C 313.280 271.603,170.561 271.172,170.325 271.408 M246.800 273.653 C 272.430 273.674,298.800 273.850,305.400 274.044 C 312.000 274.239,326.380 274.564,337.356 274.768 C 348.331 274.971,359.131 275.327,361.356 275.558 C 363.580 275.789,367.399 276.154,369.843 276.369 C 375.598 276.875,380.000 278.528,380.000 280.184 C 380.000 281.019,372.950 286.800,371.932 286.800 C 371.718 286.800,370.777 286.351,369.841 285.803 C 367.239 284.278,364.760 283.954,360.997 284.645 C 359.239 284.969,355.869 285.403,353.510 285.610 C 343.652 286.476,338.961 292.849,344.149 298.330 C 346.529 300.844,347.600 302.652,347.600 304.154 C 347.600 310.830,352.490 308.681,361.592 298.005 C 362.997 296.358,364.428 294.733,364.773 294.395 C 365.118 294.056,366.868 292.374,368.663 290.656 L 371.926 287.533 373.063 288.261 C 373.688 288.662,374.442 289.221,374.738 289.504 C 375.652 290.379,377.327 291.108,380.018 291.802 C 384.725 293.016,385.776 295.471,387.997 310.450 C 388.205 311.853,388.555 313.990,388.774 315.200 C 391.810 331.951,390.855 338.162,384.591 342.401 C 378.891 346.258,377.983 348.033,378.982 353.366 C 381.345 365.972,371.368 375.370,355.600 375.393 C 340.375 375.415,330.942 366.439,332.976 353.866 C 333.906 348.120,333.126 346.123,329.085 343.900 C 319.892 338.842,319.791 359.054,328.953 370.395 C 330.299 372.061,332.282 374.588,333.360 376.012 C 335.968 379.457,337.777 380.873,341.496 382.380 C 346.808 384.533,347.536 384.881,348.380 385.667 C 351.260 388.351,349.454 388.618,329.418 388.472 C 309.261 388.325,308.262 388.209,302.986 385.427 C 298.787 383.211,298.655 383.207,295.066 385.159 C 288.331 388.822,271.478 389.794,253.886 387.534 C 249.851 387.016,242.921 387.286,238.192 388.146 C 233.789 388.948,199.379 388.710,192.200 387.828 C 186.260 387.099,177.526 386.927,168.600 387.364 C 161.285 387.723,160.446 387.617,155.505 385.715 L 152.809 384.677 149.969 385.986 C 143.248 389.084,123.347 388.164,115.929 384.412 C 112.068 382.459,112.548 382.463,109.613 384.360 C 106.307 386.497,104.143 386.949,98.865 386.604 C 95.470 386.382,93.795 386.473,90.977 387.032 C 84.743 388.268,66.804 387.799,63.701 386.320 C 60.994 385.028,62.851 381.581,68.344 377.703 C 80.558 369.079,80.844 368.748,79.209 365.144 C 78.260 363.054,78.163 359.674,78.958 356.458 C 79.659 353.624,80.156 339.438,79.591 338.383 C 78.065 335.533,75.390 336.641,69.857 342.415 C 64.499 348.007,64.181 348.576,64.389 352.200 C 64.983 362.540,64.045 365.972,59.430 370.336 C 44.725 384.244,15.729 373.466,18.743 355.214 C 19.635 349.809,19.216 348.240,15.800 344.200 C 7.294 334.142,8.656 328.638,22.582 316.801 C 31.774 308.987,32.746 307.858,30.367 307.760 C 26.678 307.608,22.803 303.392,24.302 301.162 C 24.686 300.591,25.665 299.130,26.477 297.916 C 32.199 289.368,28.676 282.069,19.260 282.965 C 11.044 283.747,11.528 283.769,9.936 282.535 C 2.532 276.796,10.454 274.803,39.400 275.124 C 45.560 275.193,53.480 275.056,57.000 274.821 C 60.520 274.586,77.080 274.306,93.800 274.198 C 177.283 273.660,188.171 273.562,188.377 273.344 C 188.500 273.215,191.210 273.223,194.400 273.362 C 197.590 273.501,221.170 273.631,246.800 273.653 M43.281 290.102 C 43.052 290.378,42.736 291.143,42.580 291.802 C 41.510 296.308,37.980 301.783,32.722 307.088 C 31.627 308.193,31.423 308.062,36.233 309.334 C 45.873 311.882,49.589 310.319,46.600 304.973 C 45.071 302.239,44.962 301.403,45.680 297.924 C 46.488 294.010,44.748 288.335,43.281 290.102 M347.326 335.203 C 345.954 335.756,345.575 336.935,345.627 340.494 C 345.680 344.170,345.394 345.187,343.617 347.640 C 338.619 354.540,343.769 359.966,351.553 356.000 C 353.822 354.844,355.186 354.400,356.473 354.400 C 357.758 354.400,359.127 354.845,361.400 356.000 C 369.456 360.095,374.314 354.860,369.400 347.378 C 367.507 344.495,367.492 344.436,367.411 339.453 C 367.338 335.012,365.954 334.230,361.296 336.000 C 358.414 337.095,355.208 337.030,351.439 335.800 C 349.754 335.250,348.336 334.811,348.288 334.825 C 348.239 334.839,347.807 335.009,347.326 335.203 M32.401 337.119 C 31.506 337.844,31.429 338.191,31.393 341.676 C 31.358 345.053,31.234 345.655,30.215 347.424 C 27.288 352.506,27.028 353.674,28.252 356.253 C 29.718 359.342,32.266 359.610,37.249 357.200 C 41.575 355.108,42.911 355.108,47.042 357.198 C 55.397 361.427,59.511 356.462,54.483 348.216 C 53.063 345.888,53.008 345.659,52.970 341.904 C 52.915 336.418,51.874 335.481,47.550 337.025 C 43.794 338.367,42.002 338.473,38.583 337.558 C 33.774 336.270,33.476 336.249,32.401 337.119 M359.222 341.612 C 361.249 342.696,362.002 347.793,360.311 348.977 C 358.954 349.928,353.977 349.834,352.744 348.835 C 351.179 347.566,351.869 342.201,353.692 341.468 C 354.620 341.094,358.441 341.194,359.222 341.612 M45.455 343.346 C 46.865 344.559,47.360 348.983,46.214 350.129 C 45.523 350.820,40.902 351.084,38.899 350.548 C 36.972 350.031,37.021 345.001,38.970 343.324 C 40.508 342.002,43.906 342.013,45.455 343.346 M111.317 346.900 C 109.095 349.329,108.902 350.841,109.841 358.404 C 110.011 359.770,109.814 360.875,109.033 362.952 C 106.940 368.510,108.845 372.271,112.720 370.232 C 114.951 369.057,116.530 365.739,115.646 364.085 C 115.103 363.071,115.052 357.909,115.579 357.380 C 116.137 356.821,116.546 351.970,116.219 349.789 C 115.722 346.472,113.113 344.935,111.317 346.900 M149.443 351.638 C 144.180 355.777,147.126 370.318,152.825 368.331 C 155.463 367.412,157.193 364.270,156.482 361.690 C 153.909 352.353,151.999 349.627,149.443 351.638 M388.843 371.187 C 390.628 373.013,390.625 377.905,388.838 379.891 C 388.487 380.281,387.699 381.271,387.086 382.091 C 384.971 384.924,380.410 386.780,375.533 386.794 C 369.892 386.809,370.602 384.912,377.970 380.278 C 379.917 379.054,380.700 378.226,381.976 376.041 C 383.382 373.634,384.732 371.982,386.460 370.554 C 387.090 370.034,387.937 370.259,388.843 371.187 " stroke="none" fill="#5c5c54" fill-rule="evenodd"></path></g></svg>