<svg id="svg" version="1.1" xmlns="http://www.w3.org/2000/svg" xmlns:xlink="http://www.w3.org/1999/xlink" width="400" height="400" viewBox="0, 0, 400,400"><g id="svgg"><path id="path0" d="M3.385 0.375 C 3.512 0.582,3.365 0.897,3.057 1.075 C 2.334 1.494,2.823 8.185,3.700 9.873 C 5.926 14.156,6.388 15.391,6.966 18.600 C 7.322 20.580,7.794 23.010,8.015 24.000 C 8.235 24.990,8.380 27.510,8.338 29.600 C 8.295 31.690,8.306 35.664,8.361 38.430 C 8.416 41.197,8.259 44.572,8.013 45.930 C 7.675 47.792,7.683 49.016,8.043 50.900 C 8.764 54.667,8.544 70.466,7.739 72.800 C 6.832 75.427,6.324 83.120,6.845 86.347 C 7.080 87.806,7.416 91.160,7.592 93.800 C 7.768 96.440,8.142 99.140,8.423 99.800 C 9.197 101.620,9.167 103.097,8.285 106.560 C 7.421 109.952,7.610 111.884,9.127 115.173 C 9.936 116.926,9.922 118.633,9.084 120.400 C 6.294 126.285,6.553 130.132,9.983 133.718 C 10.868 134.643,11.593 135.535,11.596 135.700 C 11.598 135.865,11.876 136.000,12.213 136.000 C 12.549 136.000,12.924 136.257,13.045 136.572 C 13.165 136.887,13.792 137.328,14.437 137.553 C 16.758 138.362,16.236 140.031,13.241 141.382 C 11.518 142.158,8.538 146.008,8.148 147.961 C 7.925 149.077,8.742 151.220,10.603 154.400 C 11.463 155.869,11.322 157.920,10.196 160.340 C 8.611 163.745,9.500 167.488,12.584 170.385 C 13.938 171.657,13.878 173.140,12.400 175.000 C 11.740 175.831,11.192 176.620,11.183 176.755 C 11.173 176.890,11.013 177.786,10.828 178.747 C 10.247 181.751,13.384 187.200,15.694 187.200 C 16.986 187.200,16.897 188.559,15.526 189.756 C 10.632 194.028,10.181 194.721,10.618 197.305 C 10.793 198.344,11.368 199.326,12.385 200.323 C 15.608 203.482,15.668 205.353,12.609 207.357 C 10.830 208.523,10.279 212.996,11.731 214.487 C 12.005 214.769,12.657 215.697,13.178 216.550 L 14.127 218.099 16.667 217.895 C 18.065 217.783,19.436 217.502,19.716 217.270 C 21.256 215.992,29.452 217.817,28.231 219.166 C 26.474 221.108,21.941 221.633,18.088 220.342 C 16.926 219.953,15.666 219.742,15.288 219.873 C 14.331 220.204,11.205 223.633,11.176 224.383 C 10.871 232.133,11.243 239.200,11.955 239.200 C 13.712 239.200,13.561 243.520,11.734 245.487 C 10.391 246.934,10.311 251.325,11.604 252.712 C 13.269 254.500,14.106 256.840,13.769 258.770 C 13.593 259.777,13.485 262.508,13.528 264.840 C 13.583 267.775,13.421 269.607,13.003 270.790 C 12.137 273.246,12.261 275.092,13.459 277.600 C 14.038 278.810,14.651 280.520,14.823 281.400 C 15.708 285.940,16.444 288.586,16.991 289.191 C 17.924 290.221,17.794 290.428,14.596 293.000 C 8.898 297.582,10.017 303.586,16.573 303.606 C 20.450 303.618,25.492 305.324,25.103 306.492 C 24.832 307.304,20.652 309.144,18.048 309.597 C 8.113 311.327,8.370 319.009,18.384 319.628 C 20.703 319.772,23.320 320.088,24.200 320.330 C 25.080 320.573,27.585 321.058,29.766 321.407 C 34.060 322.095,35.200 322.514,35.200 323.400 C 35.200 324.772,26.787 326.733,19.400 327.082 C 12.414 327.413,9.200 329.496,9.200 333.693 C 9.200 334.952,11.932 340.863,12.022 339.800 C 12.080 339.119,12.742 340.948,12.772 341.871 C 12.787 342.351,12.553 342.990,12.252 343.291 C 10.248 345.294,9.817 348.782,10.989 353.503 C 11.709 356.405,11.709 356.408,10.788 358.903 C 9.802 361.574,9.649 364.730,10.207 370.899 C 10.426 373.318,10.346 374.352,9.844 375.607 C 8.177 379.773,9.452 383.166,13.450 385.201 C 15.875 386.436,21.888 386.701,49.000 386.766 C 61.280 386.796,69.097 386.997,73.600 387.400 C 78.143 387.806,85.506 387.992,97.227 387.995 C 121.162 388.002,120.274 388.403,120.085 377.672 C 120.002 372.922,120.148 370.175,120.624 367.586 C 121.225 364.314,121.227 363.774,120.639 360.874 C 119.886 357.159,119.835 354.808,120.446 351.961 C 120.782 350.395,120.768 348.838,120.390 345.641 L 119.889 341.400 121.144 337.753 C 122.579 333.584,122.637 332.760,121.775 328.726 C 121.000 325.104,121.252 323.306,122.969 320.202 C 124.921 316.672,125.332 315.044,125.401 310.576 C 125.458 306.897,125.590 306.256,126.937 303.120 C 128.096 300.422,128.492 298.848,128.792 295.745 C 129.241 291.104,131.401 284.256,133.907 279.528 C 134.802 277.838,136.017 274.873,136.607 272.940 C 137.197 271.007,138.352 268.069,139.173 266.412 C 139.995 264.756,141.239 261.960,141.939 260.199 C 142.638 258.439,143.930 256.048,144.809 254.885 C 147.336 251.546,148.716 248.817,149.402 245.798 C 150.338 241.675,150.264 241.832,152.952 238.284 C 156.659 233.392,162.819 224.231,164.830 220.622 C 166.086 218.368,167.943 216.044,171.223 212.622 C 173.765 209.970,176.580 206.720,177.478 205.400 C 178.376 204.080,180.934 201.319,183.162 199.263 C 185.390 197.208,188.389 194.021,189.826 192.181 C 191.849 189.590,193.629 187.938,197.719 184.854 C 203.490 180.502,205.361 178.788,210.241 173.387 C 213.239 170.068,213.948 169.534,219.721 166.244 C 223.154 164.288,227.365 161.521,229.081 160.095 C 233.566 156.365,234.739 155.627,241.200 152.471 C 248.360 148.973,252.317 146.642,257.102 143.103 C 264.406 137.702,267.900 136.394,285.640 132.422 C 290.568 131.319,296.660 129.874,299.177 129.211 C 301.694 128.548,306.644 127.382,310.177 126.619 C 313.710 125.856,318.580 124.781,321.000 124.230 C 335.487 120.932,348.541 119.503,362.600 119.674 C 374.628 119.821,385.729 119.163,387.643 118.189 C 392.122 115.910,394.045 109.805,392.242 103.587 C 391.659 101.577,391.657 101.172,392.219 99.187 C 394.062 92.678,394.297 89.331,393.780 77.000 C 393.388 67.661,393.397 65.997,393.848 64.000 C 394.119 62.800,394.127 60.134,393.873 56.000 C 393.599 51.565,393.622 48.946,393.951 46.800 C 394.205 45.150,394.389 40.110,394.360 35.600 C 394.255 18.907,394.402 17.160,396.109 14.911 C 396.706 14.123,398.370 5.983,398.386 3.770 C 398.404 1.231,397.322 0.000,395.074 0.000 C 393.035 0.000,393.273 1.037,395.651 2.505 C 396.886 3.268,397.283 5.051,396.582 6.688 C 396.021 7.999,391.386 12.400,390.566 12.400 C 390.255 12.400,390.000 12.559,390.000 12.754 C 390.000 13.345,385.868 14.815,384.800 14.604 C 380.666 13.785,379.012 13.601,375.827 13.604 C 371.821 13.609,368.663 14.367,367.516 15.598 C 367.110 16.034,366.356 16.496,365.840 16.626 C 364.888 16.865,362.400 22.203,362.400 24.007 C 362.400 27.814,368.168 30.171,378.400 30.545 C 385.303 30.797,386.373 31.236,385.796 33.575 C 385.384 35.245,384.945 35.405,381.076 35.301 C 373.360 35.093,371.177 37.727,375.224 42.362 C 378.803 46.461,372.560 49.944,362.200 49.630 C 348.326 49.209,343.126 49.390,341.448 50.354 C 338.193 52.223,334.678 53.013,332.379 52.394 C 330.494 51.887,327.054 52.207,326.290 52.961 C 326.020 53.227,325.485 53.564,325.100 53.710 C 323.813 54.197,324.226 55.917,325.787 56.569 C 327.039 57.092,327.320 57.077,328.687 56.415 C 332.946 54.352,335.602 54.084,337.176 55.557 C 338.111 56.432,337.978 60.221,336.986 61.014 C 336.056 61.758,333.694 62.888,332.689 63.070 C 332.298 63.140,331.308 63.496,330.489 63.861 C 329.670 64.225,328.865 64.496,328.700 64.462 C 327.450 64.204,328.838 65.755,330.651 66.643 C 333.055 67.819,333.755 67.875,343.000 67.630 C 354.645 67.323,364.334 72.448,359.985 76.615 C 356.598 79.860,356.897 84.163,360.581 85.195 C 363.789 86.093,362.662 88.104,358.682 88.583 C 356.896 88.798,356.095 89.125,355.193 90.007 C 352.381 92.756,347.753 93.354,343.163 91.560 C 341.574 90.939,338.440 91.050,335.792 91.820 C 333.822 92.392,332.441 92.473,327.944 92.281 C 324.942 92.153,322.373 92.160,322.235 92.298 C 322.098 92.436,320.323 92.574,318.293 92.605 C 315.169 92.654,314.129 92.854,311.542 93.903 C 306.508 95.943,298.925 97.423,294.262 97.275 C 291.655 97.192,289.627 97.348,288.262 97.736 C 287.128 98.058,285.300 98.573,284.200 98.881 C 279.300 100.250,285.788 102.670,295.800 103.208 C 299.100 103.385,304.410 103.897,307.600 104.346 C 320.761 106.198,324.299 106.496,328.943 106.143 C 334.705 105.706,338.289 105.857,344.200 106.787 C 346.840 107.202,350.260 107.653,351.800 107.789 C 357.009 108.248,358.970 109.115,357.500 110.308 C 355.518 111.915,339.135 112.327,331.400 110.963 C 328.530 110.457,326.374 110.285,325.200 110.466 C 324.210 110.620,319.890 110.932,315.600 111.160 C 306.781 111.629,303.279 112.028,295.681 113.430 C 285.033 115.395,284.532 117.133,294.200 118.569 C 301.722 119.687,306.549 120.482,307.108 120.697 C 307.708 120.927,306.218 122.798,305.430 122.802 C 305.194 122.804,304.460 123.095,303.800 123.450 C 298.744 126.166,288.165 128.855,274.912 130.794 C 270.341 131.463,265.340 132.281,263.800 132.612 C 259.192 133.602,250.894 134.305,247.771 133.969 C 243.777 133.538,185.561 133.602,180.000 134.043 C 169.096 134.907,166.727 134.924,161.200 134.181 C 157.461 133.679,153.709 133.479,149.000 133.532 C 144.669 133.581,139.078 133.313,133.600 132.796 C 128.870 132.349,121.940 131.884,118.200 131.762 C 114.460 131.639,108.250 131.171,104.400 130.720 C 99.836 130.185,94.477 129.875,89.000 129.827 C 82.126 129.768,80.321 129.632,79.065 129.083 C 75.693 127.608,78.429 126.551,86.448 126.231 C 95.164 125.883,106.118 124.881,110.600 124.021 C 114.654 123.243,120.771 123.299,134.600 124.243 C 136.793 124.393,139.138 124.304,140.600 124.015 C 141.920 123.755,146.780 123.390,151.400 123.203 C 156.064 123.015,162.456 122.475,165.772 121.988 C 171.696 121.118,171.788 121.117,177.372 121.824 C 189.517 123.363,208.037 122.174,213.500 119.505 C 214.624 118.955,214.627 118.643,213.517 117.609 C 212.145 116.331,210.254 116.009,201.312 115.533 C 187.168 114.781,182.032 114.709,175.400 115.173 C 165.119 115.893,155.705 115.270,148.438 113.390 C 142.722 111.910,142.643 111.902,138.638 112.326 C 132.550 112.971,107.014 112.727,105.100 112.005 C 101.298 110.571,103.984 109.381,109.979 109.844 C 118.590 110.508,124.201 110.203,126.986 108.920 C 129.304 107.851,129.662 107.806,136.000 107.774 C 143.260 107.737,145.496 107.144,146.475 104.996 C 147.654 102.408,144.270 101.233,129.800 99.205 C 124.308 98.435,119.858 97.502,117.115 96.546 C 114.738 95.717,113.175 95.488,108.642 95.307 C 101.526 95.022,100.516 94.311,102.868 91.246 C 103.271 90.721,103.600 89.881,103.600 89.378 C 103.600 88.840,104.422 87.565,105.600 86.276 C 107.933 83.723,107.979 83.414,106.439 80.608 L 105.278 78.493 106.192 78.076 C 107.127 77.651,110.892 77.721,112.376 78.192 C 113.072 78.413,113.200 78.785,113.200 80.577 C 113.200 82.884,113.031 82.739,116.600 83.493 C 118.330 83.858,121.905 83.401,123.101 82.661 C 123.350 82.507,123.534 81.257,123.525 79.769 C 123.507 76.704,124.315 75.497,126.900 74.723 C 127.751 74.468,128.623 73.931,128.838 73.530 C 129.177 72.896,129.764 72.801,133.314 72.807 C 137.713 72.815,141.674 71.523,142.218 69.902 C 142.347 69.519,142.742 68.915,143.096 68.561 C 143.585 68.073,143.637 67.751,143.313 67.232 C 142.357 65.702,146.684 63.006,147.752 64.466 C 148.180 65.052,148.342 64.999,149.315 63.953 C 149.912 63.311,150.406 62.924,150.413 63.093 C 150.420 63.262,150.690 63.051,151.013 62.624 C 151.336 62.196,151.603 62.016,151.606 62.224 C 151.609 62.431,151.767 62.356,151.956 62.057 C 152.407 61.345,154.140 61.858,153.849 62.617 C 153.529 63.449,155.384 67.651,156.614 68.881 C 159.595 71.861,165.478 71.122,168.789 67.351 C 170.246 65.692,170.274 65.085,168.990 63.000 C 167.867 61.177,167.680 58.663,168.599 57.743 C 172.522 53.820,162.814 49.017,154.966 50.998 C 151.866 51.781,147.939 51.662,142.000 50.606 C 137.311 49.772,131.929 49.836,127.696 50.777 C 125.519 51.260,122.767 51.546,120.400 51.533 C 118.310 51.522,115.610 51.626,114.400 51.763 C 112.036 52.033,111.383 51.847,103.000 48.515 C 96.498 45.932,95.156 45.194,94.730 43.970 C 93.924 41.660,89.031 39.817,83.400 39.703 C 77.048 39.574,71.172 37.705,70.879 35.720 C 70.726 34.688,73.801 31.956,76.500 30.724 C 77.545 30.247,78.400 29.709,78.400 29.529 C 78.400 29.348,78.625 29.245,78.900 29.300 C 79.175 29.355,79.400 29.147,79.400 28.838 C 79.400 28.529,79.071 28.228,78.669 28.169 C 78.267 28.110,77.637 27.928,77.269 27.765 C 76.901 27.602,76.510 27.446,76.400 27.418 C 75.728 27.245,73.181 25.718,71.942 24.745 C 71.141 24.115,70.357 23.600,70.200 23.600 C 69.897 23.600,67.136 21.506,65.800 20.263 C 62.013 16.739,60.763 16.473,51.400 17.204 C 44.641 17.732,43.124 17.574,40.118 16.029 C 35.088 13.444,35.447 13.531,22.800 11.811 C 20.490 11.496,17.203 11.204,15.496 11.161 C 12.083 11.075,6.752 9.246,4.931 7.535 C 3.434 6.129,4.048 2.400,5.777 2.400 C 6.070 2.400,6.388 1.860,6.485 1.200 C 6.658 0.022,6.629 0.000,4.907 0.000 C 3.916 0.000,3.254 0.163,3.385 0.375 M326.700 64.298 C 326.315 64.387,326.000 64.606,326.000 64.787 C 326.000 65.335,327.306 65.654,327.747 65.213 C 328.290 64.670,327.623 64.087,326.700 64.298 M238.136 144.365 C 244.117 145.194,242.571 147.579,234.000 150.741 C 231.030 151.837,227.700 153.126,226.600 153.605 C 224.282 154.615,222.739 154.566,214.000 153.201 C 211.030 152.737,207.506 152.192,206.169 151.990 C 204.832 151.788,197.182 151.536,189.169 151.431 C 171.320 151.195,166.757 150.753,162.261 148.826 C 159.923 147.824,159.928 147.799,162.679 146.582 C 165.880 145.167,168.949 144.822,178.800 144.773 C 183.530 144.749,190.100 144.521,193.400 144.265 C 200.447 143.719,234.012 143.794,238.136 144.365 M218.200 157.961 C 221.415 159.793,217.913 162.833,212.275 163.103 C 205.448 163.431,203.453 160.925,208.494 158.352 C 211.701 156.715,215.730 156.553,218.200 157.961 M191.090 160.006 C 192.778 159.969,195.200 160.898,195.200 161.582 C 195.200 162.307,193.916 163.200,192.871 163.202 C 192.282 163.203,190.540 163.649,189.000 164.193 C 184.737 165.700,180.123 165.534,175.900 163.722 C 171.665 161.905,177.725 159.422,185.400 159.829 C 187.600 159.946,190.161 160.026,191.090 160.006 M187.400 174.785 C 190.040 175.012,193.525 175.250,195.144 175.314 C 202.073 175.589,199.023 180.953,190.458 183.555 C 181.631 186.236,175.988 186.149,163.730 183.143 C 161.931 182.701,158.538 182.259,156.188 182.158 C 151.802 181.971,148.998 181.218,149.293 180.306 C 149.474 179.744,153.910 178.470,155.834 178.427 C 156.513 178.412,160.293 177.581,164.234 176.580 C 171.104 174.836,178.058 173.890,181.400 174.244 C 182.060 174.314,184.760 174.557,187.400 174.785 M179.487 191.820 C 180.536 192.508,180.670 193.673,179.800 194.543 C 176.811 197.532,160.720 198.189,161.276 195.299 C 161.464 194.323,165.445 192.517,168.600 191.976 C 170.140 191.713,171.760 191.340,172.200 191.148 C 173.350 190.648,178.409 191.114,179.487 191.820 M360.800 275.164 C 339.413 278.910,315.780 289.855,306.481 300.321 C 305.007 301.980,302.540 304.517,301.000 305.959 C 294.376 312.157,292.898 314.224,291.836 318.776 C 291.164 321.659,290.157 323.321,287.048 326.679 C 283.871 330.110,282.860 332.352,282.428 336.919 C 282.167 339.676,281.719 341.538,280.764 343.845 C 279.576 346.710,279.448 347.422,279.369 351.600 C 279.295 355.536,279.111 356.691,278.092 359.600 C 276.818 363.240,276.198 369.479,276.242 378.200 C 276.272 383.928,277.861 386.672,281.814 387.821 C 284.397 388.572,312.300 388.725,323.800 388.051 C 332.134 387.562,338.788 387.464,358.400 387.541 C 387.479 387.656,393.425 385.103,391.425 373.365 C 390.940 370.525,390.829 368.459,391.025 365.951 C 391.311 362.305,390.821 359.014,389.735 357.284 C 389.112 356.291,389.071 355.167,389.305 345.400 C 389.437 339.893,389.580 338.730,390.329 337.067 C 392.401 332.469,389.493 328.229,383.174 326.635 C 373.126 324.099,372.761 323.660,380.137 322.980 C 388.627 322.199,393.477 316.419,391.200 309.800 C 390.279 307.123,390.223 305.862,390.858 302.107 C 391.266 299.695,391.223 299.062,390.458 296.296 C 389.526 292.924,389.387 290.952,389.980 289.519 C 393.962 279.895,393.318 276.341,387.391 275.246 C 382.966 274.428,365.312 274.373,360.800 275.164 " stroke="none" fill="#c04a04" fill-rule="evenodd"></path><path id="path1" d="M398.155 122.106 C 397.690 122.378,396.340 123.187,395.155 123.904 C 390.732 126.580,378.735 127.589,358.800 126.960 C 352.933 126.774,349.662 126.869,345.600 127.342 C 342.630 127.688,336.780 128.347,332.600 128.806 C 328.420 129.266,322.300 130.165,319.000 130.803 C 315.700 131.441,311.650 132.163,310.000 132.406 C 305.635 133.050,287.737 137.352,282.549 139.004 C 274.366 141.610,243.435 157.558,235.192 163.422 C 232.628 165.246,229.106 167.594,227.365 168.639 C 222.998 171.262,221.601 172.363,217.000 176.809 C 214.800 178.935,210.840 182.259,208.200 184.196 C 203.359 187.749,189.524 201.335,184.961 207.018 C 183.909 208.328,181.582 211.036,179.789 213.035 C 176.442 216.769,168.135 228.172,165.392 232.800 C 164.544 234.230,162.869 236.737,161.669 238.372 C 159.553 241.255,157.614 244.753,156.997 246.800 C 156.595 248.133,154.801 251.664,153.081 254.505 C 152.313 255.773,151.096 258.293,150.376 260.105 C 149.656 261.917,148.222 265.110,147.190 267.200 C 146.158 269.290,144.995 271.990,144.606 273.200 C 144.218 274.410,143.045 277.380,142.001 279.800 C 139.669 285.203,137.875 290.727,136.997 295.210 C 136.632 297.074,135.733 300.580,135.000 303.000 C 134.264 305.428,133.476 309.193,133.242 311.400 C 132.967 313.996,132.323 316.850,131.409 319.530 C 130.086 323.407,130.000 323.974,130.000 328.767 C 130.000 332.363,129.759 335.028,129.184 337.781 C 128.432 341.382,128.358 343.361,128.251 362.945 L 128.134 384.200 127.115 387.031 C 126.555 388.589,125.666 390.569,125.139 391.431 C 124.613 392.294,123.930 393.496,123.622 394.102 C 123.314 394.708,122.419 395.850,121.631 396.640 C 118.807 399.474,119.434 399.378,102.400 399.611 C 93.930 399.728,129.431 399.863,181.290 399.911 L 275.580 400.000 275.188 398.968 C 274.972 398.400,273.533 395.539,271.991 392.610 C 268.019 385.068,266.440 380.252,265.959 374.209 C 265.255 365.365,263.393 363.879,260.930 370.196 C 260.672 370.858,260.447 372.807,260.430 374.526 C 260.392 378.444,260.048 379.098,255.834 383.261 C 247.710 391.286,211.717 395.553,189.000 391.183 C 187.900 390.971,184.912 390.630,182.360 390.425 C 177.296 390.017,166.421 387.977,162.951 386.783 C 159.741 385.679,156.000 382.811,156.000 381.454 C 156.000 381.120,155.820 380.736,155.600 380.600 C 155.059 380.266,155.095 376.758,155.667 373.988 C 156.119 371.799,156.088 371.618,154.675 368.244 C 152.964 364.155,153.100 361.860,155.184 359.680 C 156.895 357.889,157.071 356.361,155.850 353.867 C 154.386 350.873,154.074 347.682,155.129 346.474 C 156.985 344.351,156.520 340.949,154.059 338.634 C 151.375 336.111,151.448 333.318,154.252 331.188 C 158.047 328.305,160.070 325.909,160.118 324.241 C 160.154 322.954,159.636 322.173,156.692 319.074 C 155.863 318.201,154.896 316.881,154.545 316.140 L 153.905 314.792 155.627 312.896 C 156.575 311.853,157.747 310.745,158.233 310.433 C 160.183 309.180,160.879 305.856,159.957 302.194 C 159.436 300.126,160.052 298.821,163.170 295.382 C 167.399 290.718,168.237 289.582,168.951 287.547 C 169.364 286.369,170.091 285.044,170.567 284.603 C 172.246 283.046,172.979 280.481,172.373 278.286 C 171.908 276.602,172.075 276.219,175.207 271.800 C 177.462 268.618,178.213 267.199,178.699 265.200 C 178.899 264.377,179.391 263.642,179.893 263.416 C 180.363 263.205,180.929 262.634,181.151 262.147 C 181.373 261.660,182.420 260.691,183.478 259.994 C 185.773 258.480,187.600 256.233,187.600 254.923 C 187.600 254.401,187.870 253.328,188.200 252.538 C 188.530 251.749,188.800 250.779,188.800 250.384 C 188.800 249.353,192.964 246.193,195.578 245.239 C 197.824 244.420,200.703 242.740,202.236 241.355 C 202.695 240.940,203.465 239.296,203.947 237.701 C 204.981 234.278,206.172 232.792,210.375 229.684 C 212.034 228.456,213.743 227.126,214.171 226.726 C 214.600 226.327,215.084 226.000,215.247 226.000 C 215.410 226.000,215.792 225.751,216.097 225.446 C 216.401 225.142,217.449 224.490,218.425 223.998 C 219.401 223.506,220.920 222.533,221.800 221.837 C 222.680 221.140,224.901 219.501,226.737 218.194 C 230.807 215.296,232.207 213.157,230.350 212.671 C 229.667 212.492,229.551 212.249,229.758 211.425 C 229.908 210.827,229.845 210.400,229.608 210.400 C 227.915 210.400,230.308 208.290,233.994 206.532 C 237.205 205.002,240.244 202.197,240.638 200.400 C 241.695 195.580,241.619 195.719,243.768 194.666 C 244.885 194.119,246.790 193.451,248.000 193.182 C 249.210 192.914,251.333 192.178,252.718 191.547 C 254.103 190.916,255.581 190.400,256.003 190.400 C 257.136 190.400,260.977 188.888,261.918 188.071 C 262.368 187.681,263.681 187.105,264.837 186.790 C 266.513 186.333,267.023 185.993,267.357 185.108 C 267.588 184.497,268.077 183.902,268.446 183.785 C 268.814 183.669,269.539 182.946,270.058 182.180 C 271.890 179.471,276.468 177.319,279.568 177.708 C 280.356 177.807,282.080 177.556,283.400 177.149 C 284.720 176.743,286.211 176.408,286.713 176.405 C 287.215 176.402,288.232 176.147,288.972 175.837 C 289.713 175.528,292.362 174.976,294.859 174.612 C 297.357 174.247,300.750 173.610,302.400 173.197 C 305.812 172.342,309.612 172.056,321.000 171.799 C 328.968 171.618,334.242 170.985,337.578 169.808 C 340.440 168.798,341.369 167.605,339.300 167.595 C 337.501 167.586,336.486 167.173,336.275 166.366 C 336.166 165.949,335.521 165.290,334.841 164.903 C 330.676 162.533,335.307 160.453,345.800 159.983 C 353.763 159.626,358.713 159.055,361.400 158.183 C 362.280 157.898,364.170 157.443,365.600 157.172 C 367.030 156.902,368.534 156.511,368.941 156.304 C 369.349 156.097,370.699 155.766,371.941 155.569 C 373.184 155.371,375.100 154.960,376.200 154.655 C 377.858 154.194,378.439 154.188,379.600 154.619 C 380.370 154.905,381.810 155.249,382.800 155.384 C 388.548 156.168,392.713 161.841,390.732 166.189 C 390.069 167.644,390.910 171.873,392.346 174.308 C 394.518 177.991,395.325 181.331,394.571 183.516 C 393.329 187.119,393.647 189.087,396.193 193.570 C 396.796 194.632,396.741 197.056,396.042 200.161 C 395.667 201.832,395.732 202.649,396.487 205.689 C 397.361 209.208,397.363 209.282,396.635 211.128 C 395.572 213.821,395.407 216.490,396.160 218.794 C 396.993 221.342,396.967 222.202,395.996 224.208 C 395.355 225.532,395.182 226.753,395.141 230.225 C 395.091 234.473,395.057 234.628,393.750 236.527 C 392.178 238.812,391.517 240.990,391.545 243.783 C 391.606 249.656,389.058 251.865,381.178 252.771 C 371.485 253.887,364.000 256.364,364.000 258.457 C 364.000 259.120,362.162 260.000,360.778 260.000 C 360.280 260.000,360.134 260.226,360.277 260.774 C 360.444 261.412,360.208 261.597,358.940 261.821 C 355.935 262.353,349.260 266.233,350.059 266.984 C 350.744 267.628,354.097 267.877,359.846 267.711 C 364.041 267.590,367.509 267.688,369.000 267.969 C 370.320 268.218,375.043 268.591,379.495 268.799 C 388.360 269.211,390.729 269.659,395.454 271.812 C 397.129 272.575,398.837 273.200,399.250 273.200 C 399.981 273.200,400.000 271.251,400.000 197.400 C 400.000 137.024,399.898 121.601,399.500 121.606 C 399.225 121.609,398.620 121.834,398.155 122.106 M264.200 352.853 C 261.843 354.027,261.392 357.731,263.237 360.764 C 264.312 362.532,265.435 361.819,266.693 358.570 C 268.459 354.010,267.284 351.316,264.200 352.853 M0.000 392.738 L 0.000 400.000 8.000 400.000 C 16.630 400.000,17.405 399.666,13.025 397.836 C 12.259 397.516,10.899 396.567,10.003 395.727 C 6.823 392.747,5.790 391.713,5.000 390.715 C 3.806 389.208,1.863 387.099,0.874 386.238 L 0.000 385.476 0.000 392.738 M399.084 387.700 C 398.215 388.985,393.347 393.764,391.065 395.571 C 387.364 398.503,385.406 399.185,379.912 399.453 C 377.210 399.585,374.925 399.762,374.833 399.846 C 374.742 399.931,380.367 400.000,387.333 400.000 L 400.000 400.000 400.000 393.400 C 400.000 386.328,400.002 386.341,399.084 387.700 " stroke="none" fill="#5d1104" fill-rule="evenodd"></path><path id="path2" d="M0.076 6.007 L 0.064 9.792 1.030 8.196 C 2.253 6.176,2.257 4.743,1.044 3.333 L 0.088 2.222 0.076 6.007 M0.000 198.300 L 0.001 385.400 1.628 386.979 C 2.524 387.847,3.828 389.267,4.528 390.134 C 7.034 393.240,11.317 397.123,13.025 397.836 C 13.792 398.156,14.804 398.804,15.274 399.274 L 16.130 400.130 66.469 399.882 C 114.837 399.644,116.874 399.604,118.504 398.871 C 120.373 398.031,122.754 395.812,123.622 394.102 C 123.930 393.496,124.613 392.294,125.139 391.431 C 125.666 390.569,126.555 388.589,127.115 387.031 L 128.134 384.200 128.251 362.945 C 128.358 343.361,128.432 341.382,129.184 337.781 C 129.759 335.028,130.000 332.363,130.000 328.767 C 130.000 323.974,130.086 323.407,131.409 319.530 C 132.323 316.850,132.967 313.996,133.242 311.400 C 133.476 309.193,134.264 305.428,135.000 303.000 C 135.733 300.580,136.632 297.074,136.997 295.210 C 137.875 290.727,139.669 285.203,142.001 279.800 C 143.045 277.380,144.218 274.410,144.606 273.200 C 144.995 271.990,146.158 269.290,147.190 267.200 C 148.222 265.110,149.656 261.917,150.376 260.105 C 151.096 258.293,152.313 255.773,153.081 254.505 C 154.801 251.664,156.595 248.133,156.997 246.800 C 157.614 244.753,159.553 241.255,161.669 238.372 C 162.869 236.737,164.544 234.230,165.392 232.800 C 168.135 228.172,176.442 216.769,179.789 213.035 C 181.582 211.036,183.909 208.328,184.961 207.018 C 189.524 201.335,203.359 187.749,208.200 184.196 C 210.840 182.259,214.800 178.935,217.000 176.809 C 221.601 172.363,222.998 171.262,227.365 168.639 C 229.106 167.594,232.628 165.246,235.192 163.422 C 243.435 157.558,274.366 141.610,282.549 139.004 C 287.737 137.352,305.635 133.050,310.000 132.406 C 311.650 132.163,315.700 131.441,319.000 130.803 C 322.300 130.165,328.420 129.266,332.600 128.806 C 336.780 128.346,341.820 127.770,343.800 127.527 C 345.826 127.277,355.709 127.034,366.400 126.971 C 389.462 126.834,392.054 126.494,396.628 123.005 C 397.323 122.476,398.365 121.924,398.945 121.778 L 400.000 121.513 400.000 69.477 C 400.000 27.848,399.900 17.540,399.500 17.939 C 398.887 18.552,398.534 41.607,398.665 72.400 C 398.743 90.586,398.672 93.419,398.057 96.572 C 397.437 99.752,397.420 100.500,397.902 103.372 C 398.723 108.262,398.268 112.115,396.153 118.200 C 394.505 122.939,384.264 124.468,359.400 123.688 C 344.557 123.223,321.100 126.706,293.705 133.443 C 277.993 137.307,274.683 138.485,264.600 143.800 C 260.640 145.888,253.699 149.470,249.175 151.762 C 241.461 155.670,237.764 157.918,230.340 163.216 C 228.658 164.417,225.346 166.570,222.982 168.000 C 219.840 169.900,217.379 171.841,213.841 175.211 C 211.178 177.746,206.833 181.543,204.185 183.646 C 201.537 185.750,197.847 189.075,195.985 191.036 C 194.123 192.996,190.642 196.573,188.249 198.984 C 185.856 201.396,182.889 204.636,181.655 206.185 C 180.421 207.733,178.102 210.490,176.500 212.312 C 170.512 219.122,156.222 240.405,153.692 246.280 C 152.821 248.303,151.109 251.723,149.888 253.880 C 148.667 256.036,147.016 259.394,146.218 261.342 C 145.421 263.290,144.225 265.961,143.561 267.278 C 142.896 268.595,141.803 271.231,141.132 273.136 C 140.461 275.041,139.221 278.220,138.377 280.200 C 136.441 284.739,134.289 291.590,133.413 296.000 C 133.042 297.870,132.222 301.200,131.591 303.400 C 130.961 305.600,130.177 309.290,129.850 311.600 C 129.523 313.910,128.779 317.240,128.197 319.000 C 127.320 321.652,127.082 323.329,126.806 328.800 C 126.623 332.430,126.196 336.673,125.857 338.228 C 125.364 340.493,125.196 345.353,125.014 362.628 C 124.764 386.284,124.721 386.733,122.342 390.017 C 119.176 394.387,119.127 394.396,100.200 394.406 C 91.620 394.410,81.911 394.580,78.624 394.783 C 75.337 394.987,72.499 395.061,72.317 394.949 C 72.136 394.837,64.745 394.678,55.893 394.596 C 13.153 394.200,14.001 394.341,5.542 386.281 C 2.988 383.848,1.930 379.881,2.779 375.924 C 3.123 374.322,3.119 372.709,2.761 369.355 C 2.382 365.812,2.391 364.271,2.805 361.755 C 3.645 356.644,3.694 355.153,3.125 351.994 C 2.752 349.923,2.678 347.890,2.886 345.400 C 3.067 343.232,3.004 340.112,2.729 337.556 C 2.269 333.278,2.418 331.244,3.607 325.607 C 3.989 323.799,3.951 322.781,3.394 319.807 C 2.686 316.032,2.740 312.317,3.546 309.310 C 3.882 308.060,3.884 306.915,3.554 304.910 C 2.821 300.443,2.663 295.697,3.204 294.391 C 3.531 293.602,3.692 290.608,3.694 285.307 C 3.695 280.958,3.705 275.600,3.716 273.400 C 3.746 267.522,3.736 266.815,3.586 264.400 C 3.511 263.190,3.596 260.850,3.775 259.200 C 4.042 256.724,3.963 255.746,3.322 253.600 C 2.640 251.323,2.593 250.553,2.942 247.400 C 3.390 243.359,3.398 242.266,3.065 231.013 C 2.869 224.391,2.937 222.653,3.464 220.841 C 3.892 219.366,4.020 217.931,3.856 216.428 C 3.628 214.338,3.527 213.718,3.007 211.200 C 2.893 210.650,3.068 209.210,3.395 208.000 C 4.140 205.248,4.137 202.279,3.388 200.200 C 2.763 198.464,2.584 192.581,3.146 192.233 C 3.881 191.779,3.966 188.843,3.351 185.201 C 2.729 181.521,2.741 179.907,3.442 172.953 C 3.607 171.319,3.474 169.566,3.044 167.674 C 2.279 164.310,2.231 161.991,2.871 159.220 C 3.239 157.627,3.232 156.622,2.840 154.649 C 2.079 150.822,2.211 146.233,3.169 143.200 C 4.209 139.905,4.211 137.931,3.177 134.963 C 2.058 131.752,1.777 126.700,2.432 121.594 C 2.728 119.287,2.895 116.500,2.803 115.400 C 2.617 113.172,2.577 107.958,2.725 105.200 C 2.778 104.210,2.693 100.070,2.536 96.000 C 2.379 91.930,2.269 85.450,2.293 81.600 C 2.316 77.750,2.305 69.740,2.268 63.800 C 2.230 57.860,2.274 48.500,2.364 43.000 C 2.454 37.500,2.544 31.920,2.563 30.600 C 2.667 23.467,1.170 11.200,0.195 11.200 C 0.088 11.200,0.000 95.395,0.000 198.300 M376.200 154.655 C 375.100 154.960,373.184 155.371,371.941 155.569 C 370.699 155.766,369.349 156.097,368.941 156.304 C 368.534 156.511,367.030 156.902,365.600 157.172 C 364.170 157.443,362.280 157.898,361.400 158.183 C 358.713 159.055,353.763 159.626,345.800 159.983 C 335.307 160.453,330.676 162.533,334.841 164.903 C 335.521 165.290,336.166 165.949,336.275 166.366 C 336.486 167.173,337.501 167.586,339.300 167.595 C 341.369 167.605,340.440 168.798,337.578 169.808 C 334.242 170.985,328.968 171.618,321.000 171.799 C 309.612 172.056,305.812 172.342,302.400 173.197 C 300.750 173.610,297.357 174.247,294.859 174.612 C 292.362 174.976,289.713 175.528,288.972 175.837 C 288.232 176.147,287.215 176.402,286.713 176.405 C 286.211 176.408,284.720 176.743,283.400 177.149 C 282.080 177.556,280.356 177.807,279.568 177.708 C 276.468 177.319,271.890 179.471,270.058 182.180 C 269.539 182.946,268.814 183.669,268.446 183.785 C 268.077 183.902,267.588 184.497,267.357 185.108 C 267.023 185.993,266.513 186.333,264.837 186.790 C 263.681 187.105,262.368 187.681,261.918 188.071 C 260.977 188.888,257.136 190.400,256.003 190.400 C 255.581 190.400,254.103 190.916,252.718 191.547 C 251.333 192.178,249.210 192.914,248.000 193.182 C 246.790 193.451,244.885 194.119,243.768 194.666 C 241.619 195.719,241.695 195.580,240.638 200.400 C 240.244 202.197,237.205 205.002,233.994 206.532 C 230.308 208.290,227.915 210.400,229.608 210.400 C 229.845 210.400,229.908 210.827,229.758 211.425 C 229.551 212.249,229.667 212.492,230.350 212.671 C 232.207 213.157,230.807 215.296,226.737 218.194 C 224.901 219.501,222.680 221.140,221.800 221.837 C 220.920 222.533,219.401 223.506,218.425 223.998 C 217.449 224.490,216.401 225.142,216.097 225.446 C 215.792 225.751,215.410 226.000,215.247 226.000 C 215.084 226.000,214.600 226.327,214.171 226.726 C 213.743 227.126,212.034 228.456,210.375 229.684 C 206.172 232.792,204.981 234.278,203.947 237.701 C 203.465 239.296,202.695 240.940,202.236 241.355 C 200.703 242.740,197.824 244.420,195.578 245.239 C 192.964 246.193,188.800 249.353,188.800 250.384 C 188.800 250.779,188.530 251.749,188.200 252.538 C 187.870 253.328,187.600 254.401,187.600 254.923 C 187.600 256.233,185.773 258.480,183.478 259.994 C 182.420 260.691,181.373 261.660,181.151 262.147 C 180.929 262.634,180.363 263.205,179.893 263.416 C 179.391 263.642,178.899 264.377,178.699 265.200 C 178.213 267.199,177.462 268.618,175.207 271.800 C 172.075 276.219,171.908 276.602,172.373 278.286 C 172.979 280.481,172.246 283.046,170.567 284.603 C 170.091 285.044,169.364 286.369,168.951 287.547 C 168.237 289.582,167.399 290.718,163.170 295.382 C 160.052 298.821,159.436 300.126,159.957 302.194 C 160.879 305.856,160.183 309.180,158.233 310.433 C 157.747 310.745,156.575 311.853,155.627 312.896 L 153.905 314.792 154.545 316.140 C 154.896 316.881,155.863 318.201,156.692 319.074 C 159.636 322.173,160.154 322.954,160.118 324.241 C 160.070 325.909,158.047 328.305,154.252 331.188 C 151.448 333.318,151.375 336.111,154.059 338.634 C 156.520 340.949,156.985 344.351,155.129 346.474 C 154.074 347.682,154.386 350.873,155.850 353.867 C 157.071 356.361,156.895 357.889,155.184 359.680 C 153.100 361.860,152.964 364.155,154.675 368.244 C 156.088 371.618,156.119 371.799,155.667 373.988 C 155.095 376.758,155.059 380.266,155.600 380.600 C 155.820 380.736,156.000 381.120,156.000 381.454 C 156.000 382.811,159.741 385.679,162.951 386.783 C 166.421 387.977,177.296 390.017,182.360 390.425 C 184.912 390.630,187.900 390.971,189.000 391.183 C 211.717 395.553,247.710 391.286,255.834 383.261 C 260.048 379.098,260.392 378.444,260.430 374.526 C 260.494 367.954,263.885 363.906,265.348 368.657 C 265.473 369.066,265.748 371.564,265.959 374.209 C 266.450 380.380,267.915 384.740,272.453 393.543 L 275.800 400.037 328.000 399.850 C 356.710 399.747,381.245 399.560,382.523 399.433 C 387.138 398.975,393.359 394.621,398.846 388.009 L 400.000 386.618 400.000 329.909 C 400.000 274.725,399.980 273.200,399.250 273.200 C 398.837 273.200,397.129 272.575,395.454 271.812 C 390.729 269.659,388.360 269.211,379.495 268.799 C 375.043 268.591,370.320 268.218,369.000 267.969 C 367.509 267.688,364.041 267.590,359.846 267.711 C 354.097 267.877,350.744 267.628,350.059 266.984 C 349.260 266.233,355.935 262.353,358.940 261.821 C 360.208 261.597,360.444 261.412,360.277 260.774 C 360.134 260.226,360.280 260.000,360.778 260.000 C 362.162 260.000,364.000 259.120,364.000 258.457 C 364.000 256.364,371.485 253.887,381.178 252.771 C 389.058 251.865,391.606 249.656,391.545 243.783 C 391.517 240.990,392.178 238.812,393.750 236.527 C 395.057 234.628,395.091 234.473,395.141 230.225 C 395.182 226.753,395.355 225.532,395.996 224.208 C 396.967 222.202,396.993 221.342,396.160 218.794 C 395.407 216.490,395.572 213.821,396.635 211.128 C 397.363 209.282,397.361 209.208,396.487 205.689 C 395.732 202.649,395.667 201.832,396.042 200.161 C 396.741 197.056,396.796 194.632,396.193 193.570 C 393.647 189.087,393.329 187.119,394.571 183.516 C 395.325 181.331,394.518 177.991,392.346 174.308 C 390.910 171.873,390.069 167.644,390.732 166.189 C 392.713 161.841,388.548 156.168,382.800 155.384 C 381.810 155.249,380.370 154.905,379.600 154.619 C 378.439 154.188,377.858 154.194,376.200 154.655 M335.161 194.006 C 339.659 194.956,341.222 194.987,345.292 194.208 C 346.992 193.883,348.882 193.699,349.492 193.800 C 357.242 195.084,358.775 195.233,361.946 195.013 C 363.846 194.881,367.110 194.932,369.200 195.125 C 371.290 195.318,373.180 195.355,373.400 195.208 C 376.028 193.449,384.000 193.613,384.000 195.426 C 384.000 197.164,378.541 198.339,374.888 197.388 C 373.391 196.998,372.505 196.935,372.239 197.201 C 372.020 197.420,371.488 197.600,371.059 197.600 C 368.714 197.600,363.646 201.250,364.859 202.065 C 366.632 203.257,368.232 203.770,372.856 204.625 C 375.693 205.150,378.327 205.744,378.708 205.944 C 379.088 206.144,380.440 206.539,381.712 206.820 C 383.139 207.137,384.405 207.714,385.021 208.330 L 386.019 209.328 385.156 210.247 C 384.617 210.821,383.451 211.331,382.046 211.607 C 377.465 212.507,373.200 214.536,373.200 215.816 C 373.200 216.639,373.650 216.887,377.206 218.022 C 386.657 221.036,384.935 227.089,375.111 225.385 C 366.161 223.832,363.648 224.753,361.259 230.459 C 360.027 233.403,358.190 234.253,351.367 235.037 C 346.001 235.653,342.266 236.779,336.200 239.610 C 335.760 239.815,334.905 240.163,334.300 240.382 C 332.889 240.893,332.914 241.133,334.575 243.000 C 337.054 245.786,336.741 247.596,333.494 249.256 C 330.730 250.668,322.873 253.438,318.912 254.396 C 314.267 255.520,310.571 257.819,312.370 258.467 C 314.294 259.159,313.036 261.402,309.075 264.340 C 306.601 266.174,305.204 268.033,305.201 269.492 C 305.196 272.585,303.168 274.482,295.481 278.584 C 293.546 279.617,290.846 281.493,289.481 282.753 C 288.117 284.013,286.607 285.396,286.126 285.827 C 285.645 286.259,283.871 287.312,282.183 288.169 C 277.790 290.400,276.247 292.311,277.800 293.600 C 278.130 293.874,278.400 294.414,278.400 294.800 C 278.400 295.186,278.670 295.726,279.000 296.000 C 280.359 297.128,279.287 299.084,275.826 301.795 C 272.574 304.343,271.713 305.709,271.381 308.857 C 270.918 313.231,269.140 314.887,261.018 318.509 C 253.569 321.830,252.616 323.107,255.472 325.940 C 260.153 330.585,259.940 332.089,253.964 336.600 C 249.149 340.234,248.732 340.834,248.427 344.558 C 248.108 348.465,246.869 349.830,240.541 353.246 C 235.764 355.824,235.518 356.570,238.400 359.724 C 241.367 362.971,241.291 364.617,237.975 368.895 C 235.598 371.962,235.550 372.073,235.550 374.536 C 235.550 379.721,234.493 381.519,230.204 383.625 C 222.706 387.309,198.375 387.351,189.200 383.698 C 183.938 381.602,182.939 380.412,182.727 375.983 C 182.588 373.056,182.366 372.203,181.083 369.656 C 179.042 365.604,179.091 364.294,181.400 361.157 C 184.014 357.607,183.919 356.660,180.600 353.141 C 177.294 349.637,177.275 349.311,180.110 344.908 C 181.569 342.642,181.511 342.288,179.279 339.876 C 174.406 334.609,174.855 333.683,184.800 328.480 C 192.597 324.400,192.659 323.759,185.600 320.180 C 178.184 316.421,177.732 315.053,182.400 310.496 C 185.904 307.075,186.158 306.398,184.775 304.160 C 182.695 300.793,184.435 298.579,191.180 296.008 C 198.037 293.394,200.074 291.446,199.186 288.350 C 198.557 286.156,198.731 284.913,200.032 282.337 C 201.035 280.349,202.362 275.811,202.393 274.257 C 202.397 274.068,203.736 272.599,205.370 270.992 C 207.003 269.385,209.254 266.740,210.373 265.115 C 213.596 260.433,219.053 256.000,221.596 256.000 C 222.521 256.000,222.800 255.225,222.800 252.656 C 222.800 249.130,224.935 247.605,232.400 245.796 C 236.512 244.800,240.606 243.566,243.000 242.601 C 243.660 242.335,245.370 241.710,246.800 241.213 C 251.926 239.431,253.091 238.610,251.200 238.116 C 250.760 238.001,250.400 237.744,250.400 237.545 C 250.400 237.346,249.965 236.985,249.434 236.743 C 247.008 235.637,248.044 233.327,251.444 232.261 C 262.221 228.883,264.400 227.511,264.400 224.108 C 264.400 222.407,265.219 221.370,267.400 220.310 C 268.600 219.727,276.645 218.226,277.400 218.444 C 278.321 218.710,286.786 217.903,289.000 217.339 C 294.677 215.891,295.397 214.071,291.354 211.387 C 287.479 208.815,287.854 208.225,294.371 206.643 C 301.981 204.795,304.231 202.977,303.830 199.000 C 303.399 194.729,304.828 194.019,313.994 193.950 C 317.627 193.923,321.860 193.771,323.400 193.613 C 328.401 193.100,331.331 193.198,335.161 194.006 M358.133 216.231 C 357.708 217.338,359.028 218.137,361.588 218.322 L 364.000 218.496 364.000 217.291 C 364.000 215.849,363.493 215.600,360.555 215.600 C 358.938 215.600,358.312 215.763,358.133 216.231 M380.200 271.979 C 388.621 272.288,395.830 273.696,397.491 275.358 C 398.391 276.258,398.357 283.030,397.423 288.928 C 397.106 290.936,397.048 292.798,397.261 294.128 C 397.445 295.268,397.570 297.370,397.541 298.800 C 397.455 302.939,397.486 307.039,397.641 312.200 C 397.754 315.954,397.634 317.474,397.093 319.173 C 396.231 321.875,396.212 325.634,397.047 328.000 C 397.795 330.118,397.902 335.701,397.248 338.481 C 396.973 339.650,396.903 341.962,397.064 344.594 C 397.238 347.440,397.152 349.736,396.800 351.599 C 396.336 354.060,396.361 354.789,397.024 358.086 C 397.627 361.081,397.775 363.659,397.786 371.400 L 397.800 381.000 396.694 383.099 C 393.946 388.312,387.879 392.991,382.800 393.813 C 371.569 395.631,281.180 396.316,278.600 394.603 C 275.140 392.306,272.914 388.049,271.954 381.894 C 271.253 377.394,271.755 363.117,272.774 358.600 C 273.221 356.620,273.589 354.080,273.593 352.955 C 273.602 350.322,274.153 347.413,275.414 343.340 C 275.969 341.547,276.676 338.667,276.984 336.940 C 277.807 332.333,278.516 330.683,281.656 326.063 C 283.213 323.771,285.339 320.075,286.379 317.848 C 291.951 305.929,310.145 289.995,327.800 281.573 C 338.545 276.448,346.449 274.206,361.400 272.044 C 364.492 271.596,369.293 271.580,380.200 271.979 M267.043 353.100 C 268.198 354.621,266.764 360.262,264.910 361.493 C 263.044 362.732,261.074 356.402,262.658 354.257 C 264.004 352.433,266.114 351.876,267.043 353.100 " stroke="none" fill="#802304" fill-rule="evenodd"></path><path id="path3" d="M13.489 0.819 C 14.308 3.951,24.546 5.235,46.000 4.896 C 50.652 4.822,53.751 4.983,56.500 5.440 C 60.450 6.097,66.027 6.056,71.400 5.331 C 72.720 5.153,74.880 5.036,76.200 5.071 C 77.520 5.106,81.930 5.104,86.000 5.067 C 98.834 4.951,108.509 5.149,111.200 5.582 C 119.602 6.936,280.445 6.798,359.400 5.369 C 364.020 5.286,372.210 5.142,377.600 5.051 C 389.169 4.854,391.200 4.241,391.200 0.946 L 391.200 0.000 202.237 -0.000 L 13.275 -0.000 13.489 0.819 " stroke="none" fill="#f8bd18" fill-rule="evenodd"></path><path id="path4" d="M0.000 1.042 C 0.000 1.615,0.450 2.619,1.000 3.273 C 2.284 4.798,2.262 6.016,0.909 8.424 L -0.183 10.365 1.109 12.810 C 1.819 14.154,2.400 15.827,2.400 16.527 C 2.399 17.227,2.781 20.722,3.248 24.292 C 4.014 30.145,4.040 30.972,3.522 32.692 C 2.856 34.900,2.849 44.449,3.500 61.392 C 3.846 70.388,3.818 71.999,3.292 73.392 C 2.484 75.529,2.156 85.024,2.788 88.000 C 3.045 89.210,3.208 91.100,3.150 92.200 C 2.953 95.960,3.066 99.399,3.461 101.664 C 3.751 103.325,3.720 104.442,3.346 105.864 C 2.649 108.507,2.665 112.029,3.378 113.047 C 4.713 114.954,4.577 119.128,3.076 122.321 C 1.640 125.373,3.150 133.529,5.643 136.180 C 6.409 136.995,6.034 141.039,5.023 142.850 C 3.004 146.469,2.765 148.649,3.935 152.800 C 4.946 156.385,4.996 157.744,4.200 160.000 C 3.335 162.453,3.456 164.852,4.574 167.380 C 6.063 170.745,6.208 172.615,5.236 175.880 C 4.190 179.392,4.181 181.414,5.200 184.000 C 6.226 186.604,6.226 189.796,5.200 192.400 C 4.156 195.047,4.177 197.595,5.259 199.715 C 6.459 202.068,6.443 206.032,5.224 208.551 L 4.330 210.397 5.341 214.320 C 6.416 218.494,6.382 219.339,4.998 222.725 C 4.435 224.103,4.357 224.946,4.610 226.925 C 4.785 228.286,4.893 230.480,4.852 231.800 C 4.810 233.120,4.989 236.206,5.248 238.658 C 5.656 242.508,5.636 243.327,5.101 244.665 C 3.898 247.671,3.815 250.449,4.862 252.638 C 5.778 254.553,5.802 254.892,5.865 266.800 C 5.901 273.510,6.095 279.540,6.296 280.200 C 6.893 282.158,6.209 291.371,5.198 294.979 C 4.307 298.164,4.435 300.812,5.597 303.180 C 6.855 305.741,6.857 306.651,5.614 310.421 C 4.117 314.964,4.117 315.039,5.640 319.647 C 7.014 323.803,7.018 323.763,4.865 328.400 C 3.573 331.183,3.489 335.466,4.661 338.800 C 5.453 341.054,5.443 341.531,4.496 346.738 C 4.179 348.484,4.244 349.314,4.853 351.271 C 6.030 355.053,6.053 356.747,4.968 359.844 C 3.906 362.878,3.770 365.123,4.446 368.487 C 4.803 370.263,4.761 371.605,4.238 375.182 C 3.346 381.281,3.607 382.187,7.258 385.683 C 13.336 391.501,12.416 391.416,74.000 391.847 C 116.365 392.144,117.103 392.122,119.589 390.452 C 124.160 387.382,124.307 386.471,124.188 362.000 C 124.107 345.303,124.192 341.349,124.684 339.200 C 125.010 337.770,125.412 333.360,125.575 329.400 C 125.861 322.468,125.920 322.089,127.175 319.200 C 128.261 316.701,128.533 315.454,128.803 311.737 C 129.052 308.307,129.449 306.316,130.519 303.137 C 131.284 300.862,132.030 298.010,132.176 296.800 C 132.585 293.414,135.478 284.271,137.618 279.600 C 138.677 277.290,139.846 274.320,140.217 273.000 C 140.587 271.680,141.688 269.008,142.663 267.061 C 143.638 265.115,144.860 262.396,145.379 261.018 C 145.897 259.640,147.320 256.981,148.541 255.108 C 151.213 251.009,152.123 249.100,153.188 245.363 C 153.984 242.568,154.513 241.629,157.920 236.958 C 158.866 235.661,162.319 230.544,165.592 225.586 C 170.023 218.874,172.431 215.655,175.018 212.986 C 176.929 211.014,179.465 208.092,180.653 206.494 C 181.842 204.896,184.806 201.656,187.240 199.294 C 189.674 196.932,192.670 193.774,193.898 192.276 C 195.317 190.544,198.286 187.885,202.047 184.976 C 205.302 182.460,210.178 178.179,212.882 175.463 C 217.215 171.113,218.335 170.228,222.298 168.029 C 224.772 166.656,228.247 164.423,230.021 163.066 C 231.795 161.710,234.181 159.910,235.323 159.067 C 236.465 158.224,241.630 155.397,246.800 152.784 C 251.970 150.171,257.616 147.080,259.347 145.916 C 265.164 142.004,266.589 141.134,269.127 139.948 C 273.120 138.082,279.583 136.159,287.688 134.426 C 291.806 133.545,296.886 132.380,298.977 131.836 C 319.401 126.528,344.442 123.255,364.800 123.232 C 390.304 123.204,393.433 122.546,395.214 116.844 C 395.393 116.270,395.913 114.815,396.368 113.611 C 397.629 110.276,397.786 108.077,397.011 104.593 C 396.326 101.511,396.368 99.585,397.187 96.600 C 397.484 95.517,397.684 83.237,397.806 58.600 C 397.988 22.011,398.131 18.414,399.436 17.684 C 399.921 17.413,399.999 15.943,399.908 8.780 L 399.800 0.200 398.202 0.070 L 396.604 -0.060 397.502 0.896 C 398.832 2.312,397.802 12.679,396.109 14.911 C 394.402 17.160,394.255 18.907,394.360 35.600 C 394.389 40.110,394.205 45.150,393.951 46.800 C 393.622 48.946,393.599 51.565,393.873 56.000 C 394.127 60.134,394.119 62.800,393.848 64.000 C 393.397 65.997,393.388 67.661,393.780 77.000 C 394.297 89.331,394.062 92.678,392.219 99.187 C 391.657 101.172,391.659 101.577,392.242 103.587 C 394.045 109.805,392.122 115.910,387.643 118.189 C 385.729 119.163,374.628 119.821,362.600 119.674 C 348.541 119.503,335.487 120.932,321.000 124.230 C 318.580 124.781,313.710 125.856,310.177 126.619 C 306.644 127.382,301.694 128.548,299.177 129.211 C 296.660 129.874,290.568 131.319,285.640 132.422 C 267.900 136.394,264.406 137.702,257.102 143.103 C 252.317 146.642,248.360 148.973,241.200 152.471 C 234.739 155.627,233.566 156.365,229.081 160.095 C 227.365 161.521,223.154 164.288,219.721 166.244 C 213.948 169.534,213.239 170.068,210.241 173.387 C 205.361 178.788,203.490 180.502,197.719 184.854 C 193.629 187.938,191.849 189.590,189.826 192.181 C 188.389 194.021,185.390 197.208,183.162 199.263 C 180.934 201.319,178.376 204.080,177.478 205.400 C 176.580 206.720,173.765 209.970,171.223 212.622 C 167.943 216.044,166.086 218.368,164.830 220.622 C 162.819 224.231,156.659 233.392,152.952 238.284 C 150.264 241.832,150.338 241.675,149.402 245.798 C 148.716 248.817,147.336 251.546,144.809 254.885 C 143.930 256.048,142.638 258.439,141.939 260.199 C 141.239 261.960,139.995 264.756,139.173 266.412 C 138.352 268.069,137.197 271.007,136.607 272.940 C 136.017 274.873,134.802 277.838,133.907 279.528 C 131.401 284.256,129.241 291.104,128.792 295.745 C 128.492 298.848,128.096 300.422,126.937 303.120 C 125.590 306.256,125.458 306.897,125.401 310.576 C 125.332 315.044,124.921 316.672,122.969 320.202 C 121.252 323.306,121.000 325.104,121.775 328.726 C 122.637 332.760,122.579 333.584,121.144 337.753 L 119.889 341.400 120.390 345.641 C 120.768 348.838,120.782 350.395,120.446 351.961 C 119.835 354.808,119.886 357.159,120.639 360.874 C 121.227 363.774,121.225 364.314,120.624 367.586 C 120.148 370.175,120.002 372.922,120.085 377.672 C 120.274 388.403,121.162 388.002,97.227 387.995 C 85.506 387.992,78.143 387.806,73.600 387.400 C 69.097 386.997,61.280 386.796,49.000 386.766 C 21.888 386.701,15.875 386.436,13.450 385.201 C 9.452 383.166,8.177 379.773,9.844 375.607 C 10.346 374.352,10.426 373.318,10.207 370.899 C 9.649 364.730,9.802 361.574,10.788 358.903 C 11.709 356.408,11.709 356.405,10.989 353.503 C 9.817 348.782,10.248 345.294,12.252 343.291 C 12.553 342.990,12.787 342.351,12.772 341.871 C 12.742 340.948,12.080 339.119,12.022 339.800 C 11.932 340.863,9.200 334.952,9.200 333.693 C 9.200 329.496,12.414 327.413,19.400 327.082 C 26.787 326.733,35.200 324.772,35.200 323.400 C 35.200 322.514,34.060 322.095,29.766 321.407 C 27.585 321.058,25.080 320.573,24.200 320.330 C 23.320 320.088,20.703 319.772,18.384 319.628 C 8.370 319.009,8.113 311.327,18.048 309.597 C 20.652 309.144,24.832 307.304,25.103 306.492 C 25.492 305.324,20.450 303.618,16.573 303.606 C 10.017 303.586,8.898 297.582,14.596 293.000 C 17.794 290.428,17.924 290.221,16.991 289.191 C 16.444 288.586,15.708 285.940,14.823 281.400 C 14.651 280.520,14.038 278.810,13.459 277.600 C 12.261 275.092,12.137 273.246,13.003 270.790 C 13.421 269.607,13.583 267.775,13.528 264.840 C 13.485 262.508,13.593 259.777,13.769 258.770 C 14.106 256.840,13.269 254.500,11.604 252.712 C 10.311 251.325,10.391 246.934,11.734 245.487 C 13.561 243.520,13.712 239.200,11.955 239.200 C 11.243 239.200,10.871 232.133,11.176 224.383 C 11.205 223.633,14.331 220.204,15.288 219.873 C 15.666 219.742,16.926 219.953,18.088 220.342 C 21.941 221.633,26.474 221.108,28.231 219.166 C 29.452 217.817,21.256 215.992,19.716 217.270 C 19.436 217.502,18.065 217.783,16.667 217.895 L 14.127 218.099 13.178 216.550 C 12.657 215.697,12.005 214.769,11.731 214.487 C 10.279 212.996,10.830 208.523,12.609 207.357 C 15.668 205.353,15.608 203.482,12.385 200.323 C 11.368 199.326,10.793 198.344,10.618 197.305 C 10.181 194.721,10.632 194.028,15.526 189.756 C 16.897 188.559,16.986 187.200,15.694 187.200 C 13.384 187.200,10.247 181.751,10.828 178.747 C 11.013 177.786,11.173 176.890,11.183 176.755 C 11.192 176.620,11.740 175.831,12.400 175.000 C 13.878 173.140,13.938 171.657,12.584 170.385 C 9.500 167.488,8.611 163.745,10.196 160.340 C 11.322 157.920,11.463 155.869,10.603 154.400 C 8.742 151.220,7.925 149.077,8.148 147.961 C 8.538 146.008,11.518 142.158,13.241 141.382 C 16.236 140.031,16.758 138.362,14.437 137.553 C 13.792 137.328,13.165 136.887,13.045 136.572 C 12.924 136.257,12.549 136.000,12.213 136.000 C 11.876 136.000,11.598 135.865,11.596 135.700 C 11.593 135.535,10.868 134.643,9.983 133.718 C 6.553 130.132,6.294 126.285,9.084 120.400 C 9.922 118.633,9.936 116.926,9.127 115.173 C 7.610 111.884,7.421 109.952,8.285 106.560 C 9.167 103.097,9.197 101.620,8.423 99.800 C 8.142 99.140,7.768 96.440,7.592 93.800 C 7.416 91.160,7.080 87.806,6.845 86.347 C 6.324 83.120,6.832 75.427,7.739 72.800 C 8.544 70.466,8.764 54.667,8.043 50.900 C 7.683 49.016,7.675 47.792,8.013 45.930 C 8.259 44.572,8.416 41.197,8.361 38.430 C 8.306 35.664,8.295 31.690,8.338 29.600 C 8.380 27.510,8.235 24.990,8.015 24.000 C 7.794 23.010,7.322 20.580,6.966 18.600 C 6.388 15.391,5.926 14.156,3.700 9.873 C 2.823 8.185,2.334 1.494,3.057 1.075 C 3.987 0.536,3.250 0.000,1.576 0.000 C 0.145 0.000,0.000 0.096,0.000 1.042 M310.211 206.386 C 309.521 206.637,309.571 206.708,310.611 206.954 C 314.165 207.796,314.776 207.864,315.178 207.462 C 315.463 207.177,315.600 207.175,315.600 207.453 C 315.600 207.681,315.870 207.867,316.200 207.867 C 316.924 207.867,317.007 206.564,316.300 206.295 C 315.523 206.000,311.092 206.066,310.211 206.386 M284.600 243.052 C 283.280 243.367,280.040 243.807,277.400 244.030 C 273.679 244.345,271.476 244.795,267.600 246.034 L 262.600 247.632 255.600 247.598 C 245.201 247.547,237.180 248.477,235.758 249.899 C 235.078 250.579,235.160 251.752,236.036 253.884 C 236.817 255.784,235.839 257.489,232.536 259.990 C 229.189 262.524,228.406 263.666,228.403 266.022 C 228.397 269.683,224.979 271.718,218.729 271.781 C 215.406 271.814,214.296 271.967,213.729 272.471 C 213.328 272.826,212.640 273.183,212.200 273.263 C 211.478 273.394,211.380 273.806,211.200 277.467 C 211.016 281.210,210.918 281.602,209.948 282.499 C 207.663 284.613,207.566 286.151,209.624 287.617 C 210.344 288.130,210.800 288.812,210.800 289.378 C 210.800 289.887,211.196 290.565,211.681 290.887 C 212.551 291.465,212.541 291.483,210.781 292.485 C 207.842 294.158,203.545 295.890,201.095 296.390 C 198.830 296.852,196.386 298.389,196.413 299.336 C 196.447 300.506,199.455 302.800,200.957 302.800 C 201.286 302.800,201.790 303.123,202.077 303.517 C 202.365 303.912,203.365 304.459,204.300 304.733 C 207.084 305.550,205.147 308.513,201.968 308.300 C 201.001 308.235,199.311 308.834,196.200 310.346 C 190.102 313.308,189.329 314.112,191.500 315.232 C 192.105 315.545,192.780 316.011,193.000 316.268 C 193.220 316.526,194.120 316.941,195.000 317.190 C 195.880 317.439,197.590 317.922,198.800 318.261 C 200.146 318.640,202.940 318.910,206.000 318.957 C 209.132 319.006,212.184 319.306,214.170 319.761 C 216.549 320.306,218.295 320.436,221.170 320.279 C 227.671 319.927,235.222 319.234,239.200 318.625 C 241.290 318.306,244.776 317.932,246.946 317.794 C 249.117 317.657,251.332 317.378,251.868 317.174 C 252.404 316.970,254.845 316.342,257.292 315.779 C 264.306 314.163,265.465 312.828,264.214 307.802 C 263.357 304.364,263.285 304.518,266.928 302.006 C 271.034 299.175,271.286 298.942,271.130 298.130 C 271.053 297.729,270.093 296.915,268.997 296.322 C 267.901 295.730,266.723 294.898,266.379 294.474 C 266.036 294.050,265.360 293.578,264.878 293.425 C 262.074 292.535,265.188 288.871,269.650 287.808 C 275.108 286.509,278.400 284.081,278.400 281.354 C 278.400 279.061,281.058 276.800,283.754 276.800 C 285.174 276.800,288.800 275.915,288.800 275.569 C 288.800 275.407,289.708 275.150,290.817 274.998 C 293.615 274.613,294.141 273.742,293.781 270.088 C 293.474 266.971,293.887 265.728,295.299 265.528 C 295.880 265.445,296.246 265.079,296.329 264.494 C 296.399 263.996,296.624 263.691,296.829 263.818 C 297.033 263.944,297.200 263.687,297.200 263.247 C 297.200 262.807,297.380 262.336,297.600 262.200 C 298.201 261.829,298.081 260.400,297.449 260.400 C 297.146 260.400,296.690 260.149,296.435 259.842 C 296.180 259.535,295.393 259.188,294.686 259.071 C 291.851 258.601,285.558 256.856,284.979 256.380 C 284.748 256.189,284.165 256.136,283.685 256.262 C 282.368 256.606,281.393 256.131,281.976 255.429 C 282.310 255.027,282.767 254.961,283.591 255.197 C 284.223 255.379,284.829 255.437,284.938 255.328 C 285.048 255.219,287.321 254.863,289.990 254.537 C 292.660 254.211,295.869 253.587,297.122 253.151 C 304.308 250.647,307.200 250.092,319.400 248.879 C 321.498 248.670,322.200 248.450,322.200 248.000 C 322.200 247.186,318.687 246.589,310.400 245.995 C 303.968 245.534,301.848 245.232,294.000 243.658 C 288.219 242.498,287.197 242.432,284.600 243.052 M255.990 254.100 C 255.978 254.657,253.327 256.000,252.240 256.000 C 250.911 256.000,249.839 254.293,250.900 253.865 C 252.013 253.416,256.000 253.600,255.990 254.100 M361.400 272.048 C 344.137 274.572,327.887 280.605,315.400 289.125 C 307.536 294.491,305.457 296.249,298.118 303.734 C 290.235 311.775,289.370 312.964,287.641 318.143 C 286.464 321.670,285.946 322.523,282.625 326.415 C 279.881 329.629,278.761 332.205,278.352 336.241 C 278.137 338.362,277.607 340.607,276.961 342.134 C 275.294 346.074,274.800 348.340,274.800 352.042 C 274.800 354.673,274.539 356.366,273.717 359.055 C 272.660 362.513,272.633 362.857,272.617 373.000 L 272.600 383.400 273.911 386.080 C 277.635 393.693,275.978 393.443,322.200 393.352 C 362.923 393.271,379.568 392.679,384.400 391.137 C 389.276 389.582,395.444 384.142,396.397 380.555 C 396.985 378.340,397.337 362.054,396.810 361.401 C 395.289 359.517,394.467 352.849,395.452 350.386 C 396.094 348.783,396.065 346.348,395.354 341.915 C 395.130 340.519,395.937 336.802,396.833 335.105 C 397.306 334.210,397.304 332.185,396.830 331.295 C 392.929 323.976,392.930 323.860,396.904 315.320 C 397.364 314.332,397.129 312.078,396.139 307.977 C 395.560 305.578,395.539 304.844,395.978 302.503 C 396.510 299.668,396.393 296.067,395.683 293.450 C 395.364 292.278,395.396 291.450,395.812 290.050 C 397.144 285.574,398.319 276.607,397.694 275.696 C 397.503 275.418,395.469 274.541,393.174 273.746 C 387.957 271.941,369.046 270.929,361.400 272.048 M387.391 275.246 C 393.318 276.341,393.962 279.895,389.980 289.519 C 389.387 290.952,389.526 292.924,390.458 296.296 C 391.223 299.062,391.266 299.695,390.858 302.107 C 390.223 305.862,390.279 307.123,391.200 309.800 C 393.477 316.419,388.627 322.199,380.137 322.980 C 372.761 323.660,373.126 324.099,383.174 326.635 C 389.493 328.229,392.401 332.469,390.329 337.067 C 389.580 338.730,389.437 339.893,389.305 345.400 C 389.071 355.167,389.112 356.291,389.735 357.284 C 390.821 359.014,391.311 362.305,391.025 365.951 C 390.829 368.459,390.940 370.525,391.425 373.365 C 393.425 385.103,387.479 387.656,358.400 387.541 C 338.788 387.464,332.134 387.562,323.800 388.051 C 312.300 388.725,284.397 388.572,281.814 387.821 C 277.861 386.672,276.272 383.928,276.242 378.200 C 276.198 369.479,276.818 363.240,278.092 359.600 C 279.111 356.691,279.295 355.536,279.369 351.600 C 279.448 347.422,279.576 346.710,280.764 343.845 C 281.719 341.538,282.167 339.676,282.428 336.919 C 282.860 332.352,283.871 330.110,287.048 326.679 C 290.157 323.321,291.164 321.659,291.836 318.776 C 292.898 314.224,294.376 312.157,301.000 305.959 C 302.540 304.517,305.007 301.980,306.481 300.321 C 315.780 289.855,339.413 278.910,360.800 275.164 C 365.312 274.373,382.966 274.428,387.391 275.246 M262.200 292.400 C 261.107 292.869,260.800 292.869,260.800 292.400 C 260.800 292.180,261.295 292.013,261.900 292.028 C 262.875 292.053,262.909 292.095,262.200 292.400 M220.600 325.603 C 215.980 325.748,211.480 326.068,210.600 326.315 C 209.720 326.561,207.553 326.942,205.784 327.160 C 204.015 327.378,201.705 327.926,200.651 328.378 C 199.596 328.830,198.389 329.200,197.968 329.200 C 197.548 329.200,196.167 329.546,194.902 329.968 C 193.636 330.390,191.340 330.942,189.800 331.194 C 183.221 332.271,183.074 336.800,189.619 336.800 C 190.282 336.800,191.405 337.042,192.113 337.337 C 192.821 337.633,194.499 337.999,195.842 338.151 C 197.185 338.302,199.253 338.781,200.436 339.213 C 201.620 339.646,203.509 340.000,204.635 340.000 C 210.655 340.000,212.222 343.222,206.884 344.626 C 205.408 345.014,204.020 345.457,203.800 345.610 C 203.580 345.762,202.860 345.991,202.200 346.118 C 197.210 347.075,194.612 351.200,199.000 351.200 C 199.466 351.200,200.196 351.464,200.624 351.787 C 201.051 352.110,201.817 352.380,202.326 352.387 C 202.835 352.394,204.145 352.784,205.236 353.254 C 207.889 354.395,217.951 353.576,223.665 351.753 C 224.691 351.426,226.761 351.008,228.265 350.823 C 232.014 350.364,238.390 347.924,238.397 346.947 C 238.400 346.475,234.372 344.400,233.453 344.400 C 232.620 344.400,230.031 342.265,230.015 341.564 C 229.999 340.891,230.206 340.815,237.000 339.013 C 241.443 337.834,244.462 336.681,246.058 335.553 C 246.640 335.142,248.080 334.561,249.258 334.263 C 252.931 333.332,253.369 330.507,249.982 329.595 C 249.099 329.357,246.459 328.541,244.115 327.781 C 241.770 327.022,239.391 326.394,238.826 326.386 C 238.262 326.378,237.350 326.114,236.800 325.800 C 235.711 325.178,234.609 325.164,220.600 325.603 M209.400 357.298 C 208.520 357.526,207.650 357.967,207.468 358.279 C 206.962 359.140,205.317 359.626,202.397 359.777 C 200.942 359.852,198.862 360.199,197.776 360.549 C 196.689 360.898,194.410 361.483,192.710 361.849 C 188.197 362.821,187.086 364.696,190.160 366.154 C 190.891 366.501,191.717 367.059,191.994 367.393 C 192.271 367.727,192.714 368.000,192.977 368.000 C 193.240 368.000,194.204 368.640,195.117 369.422 C 197.467 371.433,197.222 373.599,194.340 376.295 C 193.137 377.420,192.400 378.450,192.400 379.006 C 192.400 384.130,221.868 385.386,226.880 380.475 C 228.077 379.302,228.440 376.717,227.492 376.120 C 224.591 374.295,225.822 369.833,230.100 366.669 C 233.071 364.471,231.698 362.658,226.304 361.657 C 225.261 361.463,224.181 361.122,223.904 360.898 C 223.627 360.675,222.050 360.278,220.400 360.016 C 217.415 359.543,213.200 357.877,213.200 357.171 C 213.200 356.702,211.474 356.760,209.400 357.298 " stroke="none" fill="#9b3304" fill-rule="evenodd"></path><path id="path5" d="M8.845 1.900 C 8.937 5.276,10.951 6.470,17.400 6.971 C 18.720 7.073,22.410 7.348,25.600 7.582 C 28.790 7.815,33.650 8.184,36.400 8.401 C 42.548 8.886,56.673 9.335,64.200 9.284 C 78.523 9.188,107.165 9.281,108.600 9.428 C 109.480 9.518,122.530 9.767,137.600 9.980 C 152.670 10.194,167.443 10.564,170.429 10.803 C 175.146 11.180,212.796 11.469,225.423 11.224 C 227.855 11.177,231.635 11.343,233.823 11.592 C 236.010 11.841,241.130 12.032,245.200 12.017 C 249.270 12.001,254.130 12.199,256.000 12.456 C 259.394 12.922,264.315 12.725,276.600 11.632 C 290.990 10.352,299.958 9.907,318.200 9.570 C 329.420 9.362,342.290 9.027,346.800 8.825 C 351.310 8.624,362.432 8.350,371.516 8.218 C 391.511 7.926,394.703 7.294,392.984 3.968 C 392.440 2.918,392.100 1.680,392.030 0.500 C 391.975 -0.426,391.200 -0.010,391.200 0.946 C 391.200 4.241,389.169 4.854,377.600 5.051 C 372.210 5.142,364.020 5.286,359.400 5.369 C 280.445 6.798,119.602 6.936,111.200 5.582 C 108.509 5.149,98.834 4.951,86.000 5.067 C 81.930 5.104,77.520 5.106,76.200 5.071 C 74.880 5.036,72.720 5.153,71.400 5.331 C 66.027 6.056,60.450 6.097,56.500 5.440 C 53.751 4.983,50.652 4.822,46.000 4.896 C 24.775 5.231,14.745 4.011,13.582 0.953 C 13.261 0.107,12.970 0.000,11.007 0.000 L 8.794 -0.000 8.845 1.900 M250.227 31.241 C 244.020 31.895,245.183 33.248,252.419 33.793 C 255.783 34.046,255.847 34.034,256.379 33.039 C 257.522 30.904,256.435 30.587,250.227 31.241 " stroke="none" fill="#e47607" fill-rule="evenodd"></path><path id="path6" d="M6.700 0.228 C 6.535 0.396,6.400 0.953,6.400 1.467 C 6.400 2.013,6.161 2.400,5.823 2.400 C 4.054 2.400,3.411 6.107,4.931 7.535 C 6.752 9.246,12.083 11.075,15.496 11.161 C 17.203 11.204,20.490 11.496,22.800 11.811 C 35.447 13.531,35.088 13.444,40.118 16.029 C 43.124 17.574,44.641 17.732,51.400 17.204 C 60.763 16.473,62.013 16.739,65.800 20.263 C 67.136 21.506,69.897 23.600,70.200 23.600 C 70.357 23.600,71.141 24.115,71.942 24.745 C 73.181 25.718,75.728 27.245,76.400 27.418 C 76.510 27.446,76.901 27.602,77.269 27.765 C 77.637 27.928,78.267 28.110,78.669 28.169 C 79.071 28.228,79.400 28.529,79.400 28.838 C 79.400 29.147,79.175 29.355,78.900 29.300 C 78.625 29.245,78.400 29.348,78.400 29.529 C 78.400 29.709,77.545 30.247,76.500 30.724 C 73.801 31.956,70.726 34.688,70.879 35.720 C 71.172 37.705,77.048 39.574,83.400 39.703 C 89.031 39.817,93.924 41.660,94.730 43.970 C 95.156 45.194,96.498 45.932,103.000 48.515 C 111.383 51.847,112.036 52.033,114.400 51.763 C 115.610 51.626,118.310 51.522,120.400 51.533 C 122.767 51.546,125.519 51.260,127.696 50.777 C 131.929 49.836,137.311 49.772,142.000 50.606 C 147.939 51.662,151.866 51.781,154.966 50.998 C 162.814 49.017,172.522 53.820,168.599 57.743 C 167.680 58.663,167.867 61.177,168.990 63.000 C 172.325 68.416,161.360 73.627,156.614 68.881 C 155.384 67.651,153.529 63.449,153.849 62.617 C 154.140 61.858,152.407 61.345,151.956 62.057 C 151.767 62.356,151.609 62.431,151.606 62.224 C 151.603 62.016,151.336 62.196,151.013 62.624 C 150.690 63.051,150.420 63.262,150.413 63.093 C 150.406 62.924,149.912 63.311,149.315 63.953 C 148.342 64.999,148.180 65.052,147.752 64.466 C 146.684 63.006,142.357 65.702,143.313 67.232 C 143.637 67.751,143.585 68.073,143.096 68.561 C 142.742 68.915,142.347 69.519,142.218 69.902 C 141.674 71.523,137.713 72.815,133.314 72.807 C 129.764 72.801,129.177 72.896,128.838 73.530 C 128.623 73.931,127.751 74.468,126.900 74.723 C 124.315 75.497,123.507 76.704,123.525 79.769 C 123.534 81.257,123.350 82.507,123.101 82.661 C 121.905 83.401,118.330 83.858,116.600 83.493 C 113.031 82.739,113.200 82.884,113.200 80.577 C 113.200 78.785,113.072 78.413,112.376 78.192 C 110.892 77.721,107.127 77.651,106.192 78.076 L 105.278 78.493 106.439 80.608 C 107.979 83.414,107.933 83.723,105.600 86.276 C 104.422 87.565,103.600 88.840,103.600 89.378 C 103.600 89.881,103.271 90.721,102.868 91.246 C 100.516 94.311,101.526 95.022,108.642 95.307 C 113.175 95.488,114.738 95.717,117.115 96.546 C 119.858 97.502,124.308 98.435,129.800 99.205 C 144.270 101.233,147.654 102.408,146.475 104.996 C 145.496 107.144,143.260 107.737,136.000 107.774 C 129.662 107.806,129.304 107.851,126.986 108.920 C 124.201 110.203,118.590 110.508,109.979 109.844 C 103.984 109.381,101.298 110.571,105.100 112.005 C 107.014 112.727,132.550 112.971,138.638 112.326 C 142.643 111.902,142.722 111.910,148.438 113.390 C 155.705 115.270,165.119 115.893,175.400 115.173 C 189.119 114.213,211.400 115.637,213.517 117.609 C 214.627 118.643,214.624 118.955,213.500 119.505 C 208.037 122.174,189.517 123.363,177.372 121.824 C 171.788 121.117,171.696 121.118,165.772 121.988 C 162.456 122.475,156.064 123.015,151.400 123.203 C 146.780 123.390,141.920 123.755,140.600 124.015 C 139.138 124.304,136.793 124.393,134.600 124.243 C 120.771 123.299,114.654 123.243,110.600 124.021 C 106.118 124.881,95.164 125.883,86.448 126.231 C 78.429 126.551,75.693 127.608,79.065 129.083 C 80.321 129.632,82.126 129.768,89.000 129.827 C 94.477 129.875,99.836 130.185,104.400 130.720 C 108.250 131.171,114.460 131.639,118.200 131.762 C 121.940 131.884,128.870 132.349,133.600 132.796 C 139.078 133.313,144.669 133.581,149.000 133.532 C 153.709 133.479,157.461 133.679,161.200 134.181 C 166.727 134.924,169.096 134.907,180.000 134.043 C 185.561 133.602,243.777 133.538,247.771 133.969 C 250.894 134.305,259.192 133.602,263.800 132.612 C 265.340 132.281,270.341 131.463,274.912 130.794 C 288.165 128.855,298.744 126.166,303.800 123.450 C 304.460 123.095,305.194 122.804,305.430 122.802 C 306.218 122.798,307.708 120.927,307.108 120.697 C 306.549 120.482,301.722 119.687,294.200 118.569 C 284.532 117.133,285.033 115.395,295.681 113.430 C 303.279 112.028,306.781 111.629,315.600 111.160 C 319.890 110.932,324.210 110.620,325.200 110.466 C 326.374 110.285,328.530 110.457,331.400 110.963 C 339.135 112.327,355.518 111.915,357.500 110.308 C 358.970 109.115,357.009 108.248,351.800 107.789 C 350.260 107.653,346.840 107.202,344.200 106.787 C 338.289 105.857,334.705 105.706,328.943 106.143 C 324.299 106.496,320.761 106.198,307.600 104.346 C 304.410 103.897,299.100 103.385,295.800 103.208 C 285.788 102.670,279.300 100.250,284.200 98.881 C 285.300 98.573,287.128 98.058,288.262 97.736 C 289.627 97.348,291.655 97.192,294.262 97.275 C 298.925 97.423,306.508 95.943,311.542 93.903 C 314.129 92.854,315.169 92.654,318.293 92.605 C 320.323 92.574,322.098 92.436,322.235 92.298 C 322.373 92.160,324.942 92.153,327.944 92.281 C 332.441 92.473,333.822 92.392,335.792 91.820 C 338.440 91.050,341.574 90.939,343.163 91.560 C 347.753 93.354,352.381 92.756,355.193 90.007 C 356.095 89.125,356.896 88.798,358.682 88.583 C 362.662 88.104,363.789 86.093,360.581 85.195 C 356.897 84.163,356.598 79.860,359.985 76.615 C 364.334 72.448,354.645 67.323,343.000 67.630 C 333.755 67.875,333.055 67.819,330.651 66.643 C 328.838 65.755,327.450 64.204,328.700 64.462 C 328.865 64.496,329.670 64.225,330.489 63.861 C 331.308 63.496,332.298 63.140,332.689 63.070 C 333.694 62.888,336.056 61.758,336.986 61.014 C 337.978 60.221,338.111 56.432,337.176 55.557 C 335.602 54.084,332.946 54.352,328.687 56.415 C 327.320 57.077,327.039 57.092,325.787 56.569 C 324.226 55.917,323.813 54.197,325.100 53.710 C 325.485 53.564,326.020 53.227,326.290 52.961 C 327.054 52.207,330.494 51.887,332.379 52.394 C 334.678 53.013,338.193 52.223,341.448 50.354 C 343.126 49.390,348.326 49.209,362.200 49.630 C 372.560 49.944,378.803 46.461,375.224 42.362 C 371.177 37.727,373.360 35.093,381.076 35.301 C 384.945 35.405,385.384 35.245,385.796 33.575 C 386.373 31.236,385.303 30.797,378.400 30.545 C 368.168 30.171,362.400 27.814,362.400 24.007 C 362.400 22.203,364.888 16.865,365.840 16.626 C 366.356 16.496,367.110 16.034,367.516 15.598 C 368.663 14.367,371.821 13.609,375.827 13.604 C 379.012 13.601,380.666 13.785,384.800 14.604 C 385.868 14.815,390.000 13.345,390.000 12.754 C 390.000 12.559,390.255 12.400,390.566 12.400 C 391.386 12.400,396.021 7.999,396.582 6.688 C 397.283 5.051,396.886 3.268,395.651 2.505 C 395.073 2.148,394.375 1.584,394.100 1.252 C 393.657 0.716,393.600 0.721,393.600 1.296 C 393.600 1.653,394.140 2.330,394.800 2.800 C 397.320 4.594,396.118 6.728,391.587 8.503 C 389.046 9.499,372.875 10.295,360.000 10.059 C 358.570 10.033,352.630 10.271,346.800 10.589 C 340.970 10.906,326.660 11.360,315.000 11.598 C 303.340 11.835,292.720 12.198,291.400 12.406 C 290.080 12.613,286.809 12.973,284.131 13.205 C 273.662 14.113,270.081 16.137,273.500 19.211 C 274.523 20.131,275.658 22.046,276.164 23.706 C 276.469 24.705,277.890 25.137,280.313 24.968 C 281.461 24.887,282.400 24.982,282.400 25.178 C 282.400 25.374,283.075 25.936,283.900 26.426 C 289.276 29.620,293.600 33.062,293.600 34.149 C 293.600 35.020,290.589 37.212,287.995 38.230 C 286.435 38.842,285.068 39.490,284.956 39.671 C 284.389 40.589,278.272 39.686,277.865 38.624 C 277.542 37.783,273.727 37.435,271.811 38.072 C 269.802 38.740,269.131 39.982,269.450 42.444 C 269.930 46.161,267.090 48.227,261.600 48.155 C 252.698 48.039,246.152 47.639,242.437 46.987 C 238.270 46.255,237.655 46.288,232.600 47.524 C 227.822 48.692,204.076 48.872,199.200 47.778 C 193.651 46.533,191.820 45.059,190.839 41.047 C 190.467 39.525,189.880 38.623,188.181 36.964 C 185.828 34.667,185.772 34.539,186.454 33.041 C 186.973 31.902,188.819 31.059,192.139 30.445 C 199.090 29.160,200.968 25.281,195.927 22.623 C 191.694 20.393,192.693 18.248,198.000 18.169 C 200.764 18.128,202.852 17.877,204.108 17.435 C 205.158 17.065,206.178 16.863,206.376 16.985 C 206.574 17.107,207.002 16.941,207.328 16.615 C 207.851 16.092,208.030 16.103,208.860 16.717 C 213.696 20.294,219.200 20.206,219.200 16.553 C 219.200 14.408,210.879 13.035,208.937 14.859 C 208.454 15.313,207.852 15.556,207.599 15.399 C 207.346 15.243,206.568 15.053,205.869 14.977 C 205.171 14.901,203.293 14.635,201.696 14.385 C 199.836 14.095,197.893 14.054,196.296 14.272 C 194.691 14.490,192.658 14.446,190.600 14.147 C 187.232 13.659,167.831 12.840,160.000 12.857 C 157.470 12.862,153.870 12.629,152.000 12.338 C 149.512 11.952,144.492 11.841,133.289 11.924 C 119.676 12.026,117.370 11.950,112.489 11.237 C 107.365 10.489,105.670 10.452,87.000 10.681 C 76.000 10.815,65.560 10.927,63.800 10.929 C 58.154 10.935,38.581 10.159,38.184 9.914 C 37.973 9.783,34.020 9.475,29.400 9.230 C 18.792 8.666,12.768 8.074,10.432 7.365 C 9.424 7.059,8.051 6.807,7.380 6.804 C 5.053 6.796,4.549 5.235,6.227 3.240 C 7.140 2.156,7.584 -0.670,6.700 0.228 M219.451 37.275 C 217.686 38.263,219.586 39.860,221.942 39.369 C 222.744 39.202,223.535 39.096,223.700 39.133 C 223.865 39.170,224.000 38.919,224.000 38.576 C 224.000 38.233,223.820 38.064,223.600 38.200 C 223.380 38.336,223.200 38.278,223.200 38.072 C 223.200 37.491,220.204 36.854,219.451 37.275 M327.747 65.213 C 327.306 65.654,326.000 65.335,326.000 64.787 C 326.000 64.315,327.330 64.078,327.780 64.469 C 328.019 64.677,328.006 64.954,327.747 65.213 M253.500 125.995 C 253.775 125.998,254.000 126.270,254.000 126.600 C 254.000 127.382,250.815 127.628,249.227 126.969 C 248.386 126.621,251.085 125.574,252.200 125.816 C 252.640 125.911,253.225 125.992,253.500 125.995 M193.400 144.265 C 190.100 144.521,183.530 144.749,178.800 144.773 C 168.949 144.822,165.880 145.167,162.679 146.582 C 159.928 147.799,159.923 147.824,162.261 148.826 C 166.757 150.753,171.320 151.195,189.169 151.431 C 197.182 151.536,204.832 151.788,206.169 151.990 C 207.506 152.192,211.030 152.737,214.000 153.201 C 222.739 154.566,224.282 154.615,226.600 153.605 C 227.700 153.126,231.030 151.837,234.000 150.741 C 242.571 147.579,244.117 145.194,238.136 144.365 C 234.012 143.794,200.447 143.719,193.400 144.265 M211.494 157.224 C 206.297 158.488,204.045 161.495,207.400 162.690 C 213.246 164.773,222.806 160.586,218.200 157.961 C 216.689 157.100,213.461 156.745,211.494 157.224 M179.000 160.212 C 174.016 161.448,173.077 162.511,175.900 163.722 C 180.123 165.534,184.737 165.700,189.000 164.193 C 190.540 163.649,192.282 163.203,192.871 163.202 C 193.916 163.200,195.200 162.307,195.200 161.582 C 195.200 160.898,192.778 159.969,191.090 160.006 C 190.161 160.026,187.600 159.946,185.400 159.829 C 182.569 159.679,180.698 159.791,179.000 160.212 M175.800 174.439 C 172.755 174.662,169.193 175.321,164.234 176.580 C 160.293 177.581,156.513 178.412,155.834 178.427 C 153.910 178.470,149.474 179.744,149.293 180.306 C 148.998 181.218,151.802 181.971,156.188 182.158 C 158.538 182.259,161.931 182.701,163.730 183.143 C 175.988 186.149,181.631 186.236,190.458 183.555 C 194.788 182.240,199.200 179.041,199.200 177.217 C 199.200 176.013,197.948 175.426,195.144 175.314 C 192.567 175.212,184.888 174.614,181.400 174.244 C 180.740 174.174,178.220 174.262,175.800 174.439 M172.200 191.148 C 171.760 191.340,170.140 191.713,168.600 191.976 C 165.445 192.517,161.464 194.323,161.276 195.299 C 160.720 198.189,176.811 197.532,179.800 194.543 C 181.964 192.379,175.747 189.603,172.200 191.148 " stroke="none" fill="#d76504" fill-rule="evenodd"></path><path id="path7" d="M7.200 1.042 C 7.200 1.615,6.750 2.619,6.200 3.273 C 4.548 5.236,5.069 6.796,7.380 6.804 C 8.051 6.807,9.424 7.059,10.432 7.365 C 12.768 8.074,18.792 8.666,29.400 9.230 C 34.020 9.475,37.973 9.783,38.184 9.914 C 38.581 10.159,58.154 10.935,63.800 10.929 C 65.560 10.927,76.000 10.815,87.000 10.681 C 105.670 10.452,107.365 10.489,112.489 11.237 C 117.370 11.950,119.676 12.026,133.289 11.924 C 144.492 11.841,149.512 11.952,152.000 12.338 C 153.870 12.629,157.470 12.862,160.000 12.857 C 167.831 12.840,187.232 13.659,190.600 14.147 C 192.658 14.446,194.691 14.490,196.296 14.272 C 197.893 14.054,199.836 14.095,201.696 14.385 C 203.293 14.635,205.171 14.901,205.869 14.977 C 206.568 15.053,207.346 15.243,207.599 15.399 C 207.852 15.556,208.454 15.313,208.937 14.859 C 210.879 13.035,219.200 14.408,219.200 16.553 C 219.200 20.206,213.696 20.294,208.860 16.717 C 208.030 16.103,207.851 16.092,207.328 16.615 C 207.002 16.941,206.574 17.107,206.376 16.985 C 206.178 16.863,205.158 17.065,204.108 17.435 C 202.852 17.877,200.764 18.128,198.000 18.169 C 192.693 18.248,191.694 20.393,195.927 22.623 C 200.968 25.281,199.090 29.160,192.139 30.445 C 188.819 31.059,186.973 31.902,186.454 33.041 C 185.772 34.539,185.828 34.667,188.181 36.964 C 189.880 38.623,190.467 39.525,190.839 41.047 C 191.820 45.059,193.651 46.533,199.200 47.778 C 204.076 48.872,227.822 48.692,232.600 47.524 C 237.655 46.288,238.270 46.255,242.437 46.987 C 246.152 47.639,252.698 48.039,261.600 48.155 C 267.090 48.227,269.930 46.161,269.450 42.444 C 269.131 39.982,269.802 38.740,271.811 38.072 C 273.727 37.435,277.542 37.783,277.865 38.624 C 278.272 39.686,284.389 40.589,284.956 39.671 C 285.068 39.490,286.435 38.842,287.995 38.230 C 290.589 37.212,293.600 35.020,293.600 34.149 C 293.600 33.062,289.276 29.620,283.900 26.426 C 283.075 25.936,282.400 25.374,282.400 25.178 C 282.400 24.982,281.461 24.887,280.313 24.968 C 277.890 25.137,276.469 24.705,276.164 23.706 C 275.658 22.046,274.523 20.131,273.500 19.211 C 270.081 16.137,273.662 14.113,284.131 13.205 C 286.809 12.973,290.080 12.613,291.400 12.406 C 292.720 12.198,303.340 11.835,315.000 11.598 C 326.660 11.360,340.970 10.906,346.800 10.589 C 352.630 10.271,358.570 10.033,360.000 10.059 C 372.875 10.295,389.046 9.499,391.587 8.503 C 396.118 6.728,397.320 4.594,394.800 2.800 C 394.030 2.252,393.600 1.597,393.600 0.973 C 393.600 0.257,393.382 -0.000,392.775 -0.000 C 391.820 -0.000,391.921 1.913,392.984 3.970 C 394.703 7.294,391.509 7.926,371.516 8.218 C 362.432 8.350,351.310 8.624,346.800 8.825 C 342.290 9.027,329.420 9.362,318.200 9.570 C 299.958 9.907,290.990 10.352,276.600 11.632 C 264.315 12.725,259.394 12.922,256.000 12.456 C 254.130 12.199,249.270 12.001,245.200 12.017 C 241.130 12.032,236.010 11.841,233.823 11.592 C 231.635 11.343,227.855 11.177,225.423 11.224 C 212.796 11.469,175.146 11.180,170.429 10.803 C 167.443 10.564,152.670 10.194,137.600 9.980 C 122.530 9.767,109.480 9.518,108.600 9.428 C 107.165 9.281,78.523 9.188,64.200 9.284 C 56.673 9.335,42.548 8.886,36.400 8.401 C 33.650 8.184,28.790 7.815,25.600 7.582 C 22.410 7.348,18.720 7.073,17.400 6.971 C 12.006 6.552,8.567 5.013,8.822 3.132 C 9.084 1.209,8.766 0.000,8.000 0.000 C 7.405 0.000,7.200 0.267,7.200 1.042 M256.411 31.414 C 258.304 33.694,253.344 34.647,247.445 33.137 C 245.048 32.524,246.328 31.652,250.227 31.241 C 255.091 30.728,255.860 30.750,256.411 31.414 M223.200 38.072 C 223.200 38.278,223.380 38.336,223.600 38.200 C 223.820 38.064,224.000 38.233,224.000 38.576 C 224.000 38.919,223.865 39.170,223.700 39.133 C 223.535 39.096,222.744 39.202,221.942 39.369 C 219.586 39.860,217.686 38.263,219.451 37.275 C 220.204 36.854,223.200 37.491,223.200 38.072 M250.000 126.176 C 248.052 126.918,249.576 127.495,252.900 127.273 C 253.985 127.201,254.546 126.006,253.500 125.995 C 253.225 125.992,252.640 125.911,252.200 125.816 C 251.760 125.720,250.770 125.882,250.000 126.176 " stroke="none" fill="#dc7404" fill-rule="evenodd"></path><path id="path8" d="M1.779 17.600 C 1.908 19.690,2.211 23.673,2.451 26.451 C 2.743 29.832,2.758 32.146,2.496 33.451 C 2.254 34.652,2.194 41.770,2.338 52.000 C 2.466 61.130,2.507 70.040,2.429 71.800 C 2.188 77.241,2.237 88.251,2.536 96.000 C 2.693 100.070,2.778 104.210,2.725 105.200 C 2.577 107.958,2.617 113.172,2.803 115.400 C 2.895 116.500,2.728 119.287,2.432 121.594 C 1.777 126.700,2.058 131.752,3.177 134.963 C 4.211 137.931,4.209 139.905,3.169 143.200 C 2.211 146.233,2.079 150.822,2.840 154.649 C 3.232 156.622,3.239 157.627,2.871 159.220 C 2.231 161.991,2.279 164.310,3.044 167.674 C 3.474 169.566,3.607 171.319,3.442 172.953 C 2.741 179.907,2.729 181.521,3.351 185.201 C 3.966 188.843,3.881 191.779,3.146 192.233 C 2.584 192.581,2.763 198.464,3.388 200.200 C 4.137 202.279,4.140 205.248,3.395 208.000 C 3.068 209.210,2.893 210.650,3.007 211.200 C 3.527 213.718,3.628 214.338,3.856 216.428 C 4.020 217.931,3.892 219.366,3.464 220.841 C 2.937 222.653,2.869 224.391,3.065 231.013 C 3.398 242.266,3.390 243.359,2.942 247.400 C 2.593 250.553,2.640 251.323,3.322 253.600 C 3.963 255.746,4.042 256.724,3.775 259.200 C 3.596 260.850,3.511 263.190,3.586 264.400 C 3.736 266.815,3.746 267.522,3.716 273.400 C 3.705 275.600,3.695 280.958,3.694 285.307 C 3.692 290.608,3.531 293.602,3.204 294.391 C 2.663 295.697,2.821 300.443,3.554 304.910 C 3.884 306.915,3.882 308.060,3.546 309.310 C 2.740 312.317,2.686 316.032,3.394 319.807 C 3.951 322.781,3.989 323.799,3.607 325.607 C 2.418 331.244,2.269 333.278,2.729 337.556 C 3.004 340.112,3.067 343.232,2.886 345.400 C 2.678 347.890,2.752 349.923,3.125 351.994 C 3.694 355.153,3.645 356.644,2.805 361.755 C 2.391 364.271,2.382 365.812,2.761 369.355 C 3.119 372.709,3.123 374.322,2.779 375.924 C 1.536 381.714,3.794 385.862,10.800 390.658 C 15.761 394.055,17.938 394.245,55.893 394.596 C 64.745 394.678,72.136 394.837,72.317 394.949 C 72.499 395.061,75.337 394.987,78.624 394.783 C 81.911 394.580,91.620 394.410,100.200 394.406 C 119.127 394.396,119.176 394.387,122.342 390.017 C 124.721 386.733,124.764 386.284,125.014 362.628 C 125.196 345.353,125.364 340.493,125.857 338.228 C 126.196 336.673,126.623 332.430,126.806 328.800 C 127.082 323.329,127.320 321.652,128.197 319.000 C 128.779 317.240,129.523 313.910,129.850 311.600 C 130.177 309.290,130.961 305.600,131.591 303.400 C 132.222 301.200,133.042 297.870,133.413 296.000 C 134.289 291.590,136.441 284.739,138.377 280.200 C 139.221 278.220,140.461 275.041,141.132 273.136 C 141.803 271.231,142.896 268.595,143.561 267.278 C 144.225 265.961,145.421 263.290,146.218 261.342 C 147.016 259.394,148.667 256.036,149.888 253.880 C 151.109 251.723,152.821 248.303,153.692 246.280 C 156.222 240.405,170.512 219.122,176.500 212.312 C 178.102 210.490,180.421 207.733,181.655 206.185 C 182.889 204.636,185.864 201.396,188.267 198.985 C 190.670 196.573,193.798 193.340,195.218 191.800 C 196.638 190.260,198.970 187.944,200.400 186.653 L 203.000 184.306 199.652 186.853 C 197.811 188.254,195.174 190.750,193.791 192.400 C 192.409 194.050,189.376 197.239,187.052 199.487 C 184.727 201.734,181.851 204.884,180.659 206.487 C 179.467 208.089,176.929 211.014,175.018 212.986 C 172.431 215.655,170.023 218.874,165.592 225.586 C 162.319 230.544,158.866 235.661,157.920 236.958 C 154.513 241.629,153.984 242.568,153.188 245.363 C 152.123 249.100,151.213 251.009,148.541 255.108 C 147.320 256.981,145.897 259.640,145.379 261.018 C 144.860 262.396,143.638 265.115,142.663 267.061 C 141.688 269.008,140.587 271.680,140.217 273.000 C 139.846 274.320,138.677 277.290,137.618 279.600 C 135.478 284.271,132.585 293.414,132.176 296.800 C 132.030 298.010,131.284 300.862,130.519 303.137 C 129.449 306.316,129.052 308.307,128.803 311.737 C 128.533 315.454,128.261 316.701,127.175 319.200 C 125.920 322.089,125.861 322.468,125.575 329.400 C 125.412 333.360,125.010 337.770,124.684 339.200 C 124.192 341.349,124.107 345.303,124.188 362.000 C 124.307 386.471,124.160 387.382,119.589 390.452 C 117.103 392.122,116.365 392.144,74.000 391.847 C 12.416 391.416,13.336 391.501,7.258 385.683 C 3.607 382.187,3.346 381.281,4.238 375.182 C 4.761 371.605,4.803 370.263,4.446 368.487 C 3.770 365.123,3.906 362.878,4.968 359.844 C 6.053 356.747,6.030 355.053,4.853 351.271 C 4.244 349.314,4.179 348.484,4.496 346.738 C 5.443 341.531,5.453 341.054,4.661 338.800 C 3.489 335.466,3.573 331.183,4.865 328.400 C 7.018 323.763,7.014 323.803,5.640 319.647 C 4.117 315.039,4.117 314.964,5.614 310.421 C 6.857 306.651,6.855 305.741,5.597 303.180 C 4.435 300.812,4.307 298.164,5.198 294.979 C 6.209 291.371,6.893 282.158,6.296 280.200 C 6.095 279.540,5.901 273.510,5.865 266.800 C 5.802 254.892,5.778 254.553,4.862 252.638 C 3.815 250.449,3.898 247.671,5.101 244.665 C 5.636 243.327,5.656 242.508,5.248 238.658 C 4.989 236.206,4.810 233.120,4.852 231.800 C 4.893 230.480,4.785 228.286,4.610 226.925 C 4.357 224.946,4.435 224.103,4.998 222.725 C 6.382 219.339,6.416 218.494,5.341 214.320 L 4.330 210.397 5.224 208.551 C 6.443 206.032,6.459 202.068,5.259 199.715 C 4.177 197.595,4.156 195.047,5.200 192.400 C 6.226 189.796,6.226 186.604,5.200 184.000 C 4.181 181.414,4.190 179.392,5.236 175.880 C 6.208 172.615,6.063 170.745,4.574 167.380 C 3.456 164.852,3.335 162.453,4.200 160.000 C 4.996 157.744,4.946 156.385,3.935 152.800 C 2.765 148.649,3.004 146.469,5.023 142.850 C 6.034 141.039,6.409 136.995,5.643 136.180 C 3.150 133.529,1.640 125.373,3.076 122.321 C 4.577 119.128,4.713 114.954,3.378 113.047 C 2.665 112.029,2.649 108.507,3.346 105.864 C 3.720 104.442,3.751 103.325,3.461 101.664 C 3.066 99.399,2.953 95.960,3.150 92.200 C 3.208 91.100,3.045 89.210,2.788 88.000 C 2.156 85.024,2.484 75.529,3.292 73.392 C 3.818 71.999,3.846 70.388,3.500 61.392 C 2.849 44.449,2.856 34.900,3.522 32.692 C 4.040 30.972,4.014 30.145,3.248 24.292 C 2.781 20.722,2.397 17.170,2.393 16.400 C 2.390 15.630,2.198 14.730,1.966 14.400 C 1.663 13.970,1.610 14.879,1.779 17.600 M399.040 17.936 C 398.140 19.391,397.976 24.783,397.808 58.515 C 397.684 83.207,397.484 95.517,397.187 96.600 C 396.368 99.585,396.326 101.511,397.011 104.593 C 397.786 108.077,397.629 110.276,396.368 113.611 C 395.913 114.815,395.393 116.270,395.214 116.844 C 393.435 122.539,390.259 123.210,365.000 123.223 C 352.281 123.230,335.963 124.253,335.200 125.091 C 335.090 125.212,335.990 125.201,337.200 125.067 C 347.812 123.889,353.617 123.529,359.400 123.694 C 384.774 124.414,394.498 122.961,396.153 118.200 C 398.268 112.115,398.723 108.262,397.902 103.372 C 397.427 100.542,397.440 99.730,398.009 96.772 C 398.574 93.831,398.664 88.726,398.716 56.800 C 398.751 34.725,398.927 19.684,399.159 18.900 C 399.529 17.651,399.477 17.229,399.040 17.936 M284.000 135.212 C 275.396 137.173,269.036 139.544,264.547 142.464 C 262.003 144.119,256.706 147.626,255.727 148.304 C 255.327 148.581,256.530 147.987,258.400 146.985 C 271.533 139.948,276.488 137.818,285.000 135.550 C 291.622 133.786,291.073 133.600,284.000 135.212 M238.947 156.747 C 236.565 158.060,234.841 159.235,232.600 161.072 C 229.479 163.630,228.627 164.467,230.600 163.035 C 231.700 162.237,234.490 160.308,236.800 158.748 C 239.110 157.188,241.075 155.841,241.167 155.756 C 241.577 155.373,240.848 155.698,238.947 156.747 M220.000 169.288 C 218.700 170.038,215.514 172.857,212.213 176.179 C 206.196 182.232,206.822 181.867,213.598 175.370 C 215.909 173.154,218.835 170.654,220.100 169.814 C 222.076 168.502,222.722 167.972,222.300 168.009 C 222.245 168.014,221.210 168.589,220.000 169.288 M323.400 193.613 C 321.860 193.771,317.627 193.923,313.994 193.950 C 304.828 194.019,303.399 194.729,303.830 199.000 C 304.231 202.977,301.981 204.795,294.371 206.643 C 287.854 208.225,287.479 208.815,291.354 211.387 C 295.397 214.071,294.677 215.891,289.000 217.339 C 286.786 217.903,278.321 218.710,277.400 218.444 C 276.645 218.226,268.600 219.727,267.400 220.310 C 265.219 221.370,264.400 222.407,264.400 224.108 C 264.400 227.511,262.221 228.883,251.444 232.261 C 248.044 233.327,247.008 235.637,249.434 236.743 C 249.965 236.985,250.400 237.346,250.400 237.545 C 250.400 237.744,250.760 238.001,251.200 238.116 C 253.091 238.610,251.926 239.431,246.800 241.213 C 245.370 241.710,243.660 242.335,243.000 242.601 C 240.606 243.566,236.512 244.800,232.400 245.796 C 224.935 247.605,222.800 249.130,222.800 252.656 C 222.800 255.225,222.521 256.000,221.596 256.000 C 219.053 256.000,213.596 260.433,210.373 265.115 C 209.254 266.740,207.003 269.385,205.370 270.992 C 203.736 272.599,202.397 274.068,202.393 274.257 C 202.362 275.811,201.035 280.349,200.032 282.337 C 198.731 284.913,198.557 286.156,199.186 288.350 C 200.074 291.446,198.037 293.394,191.180 296.008 C 184.435 298.579,182.695 300.793,184.775 304.160 C 186.158 306.398,185.904 307.075,182.400 310.496 C 177.732 315.053,178.184 316.421,185.600 320.180 C 192.659 323.759,192.597 324.400,184.800 328.480 C 174.855 333.683,174.406 334.609,179.279 339.876 C 181.511 342.288,181.569 342.642,180.110 344.908 C 177.275 349.311,177.294 349.637,180.600 353.141 C 183.919 356.660,184.014 357.607,181.400 361.157 C 179.091 364.294,179.042 365.604,181.083 369.656 C 182.366 372.203,182.588 373.056,182.727 375.983 C 182.939 380.412,183.938 381.602,189.200 383.698 C 198.375 387.351,222.706 387.309,230.204 383.625 C 234.493 381.519,235.550 379.721,235.550 374.536 C 235.550 372.073,235.598 371.962,237.975 368.895 C 241.291 364.617,241.367 362.971,238.400 359.724 C 235.518 356.570,235.764 355.824,240.541 353.246 C 246.869 349.830,248.108 348.465,248.427 344.558 C 248.732 340.834,249.149 340.234,253.964 336.600 C 259.940 332.089,260.153 330.585,255.472 325.940 C 252.616 323.107,253.569 321.830,261.018 318.509 C 269.140 314.887,270.918 313.231,271.381 308.857 C 271.713 305.709,272.574 304.343,275.826 301.795 C 279.287 299.084,280.359 297.128,279.000 296.000 C 278.670 295.726,278.400 295.186,278.400 294.800 C 278.400 294.414,278.130 293.874,277.800 293.600 C 276.247 292.311,277.790 290.400,282.183 288.169 C 283.871 287.312,285.645 286.259,286.126 285.827 C 286.607 285.396,288.117 284.013,289.481 282.753 C 290.846 281.493,293.546 279.617,295.481 278.584 C 303.168 274.482,305.196 272.585,305.201 269.492 C 305.204 268.033,306.601 266.174,309.075 264.340 C 313.036 261.402,314.294 259.159,312.370 258.467 C 310.571 257.819,314.267 255.520,318.912 254.396 C 322.873 253.438,330.730 250.668,333.494 249.256 C 336.741 247.596,337.054 245.786,334.575 243.000 C 332.914 241.133,332.889 240.893,334.300 240.382 C 334.905 240.163,335.760 239.815,336.200 239.610 C 342.266 236.779,346.001 235.653,351.367 235.037 C 358.190 234.253,360.027 233.403,361.259 230.459 C 363.648 224.753,366.161 223.832,375.111 225.385 C 379.635 226.169,380.606 226.060,382.062 224.605 C 384.597 222.069,382.968 219.859,377.206 218.022 C 373.650 216.887,373.200 216.639,373.200 215.816 C 373.200 214.536,377.465 212.507,382.046 211.607 C 383.451 211.331,384.617 210.821,385.156 210.247 L 386.019 209.328 385.021 208.330 C 384.405 207.714,383.139 207.137,381.712 206.820 C 380.440 206.539,379.088 206.144,378.708 205.944 C 378.327 205.744,375.693 205.150,372.856 204.625 C 368.232 203.770,366.632 203.257,364.859 202.065 C 363.646 201.250,368.714 197.600,371.059 197.600 C 371.488 197.600,372.020 197.420,372.239 197.201 C 372.505 196.935,373.391 196.998,374.888 197.388 C 378.541 198.339,384.000 197.164,384.000 195.426 C 384.000 193.613,376.028 193.449,373.400 195.208 C 373.180 195.355,371.290 195.318,369.200 195.125 C 367.110 194.932,363.846 194.881,361.946 195.013 C 358.775 195.233,357.242 195.084,349.492 193.800 C 348.882 193.699,346.992 193.883,345.292 194.208 C 341.222 194.987,339.659 194.956,335.161 194.006 C 331.331 193.198,328.401 193.100,323.400 193.613 M316.300 206.295 C 317.007 206.564,316.924 207.867,316.200 207.867 C 315.870 207.867,315.600 207.681,315.600 207.453 C 315.600 207.175,315.463 207.177,315.178 207.462 C 314.776 207.864,314.165 207.796,310.611 206.954 C 309.571 206.708,309.521 206.637,310.211 206.386 C 311.092 206.066,315.523 206.000,316.300 206.295 M363.367 215.843 C 363.751 215.990,364.000 216.561,364.000 217.291 L 364.000 218.496 361.588 218.322 C 359.028 218.137,357.708 217.338,358.133 216.231 C 358.382 215.580,361.987 215.313,363.367 215.843 M294.000 243.658 C 301.848 245.232,303.968 245.534,310.400 245.995 C 318.687 246.589,322.200 247.186,322.200 248.000 C 322.200 248.450,321.498 248.670,319.400 248.879 C 307.200 250.092,304.308 250.647,297.122 253.151 C 295.869 253.587,292.660 254.211,289.990 254.537 C 287.321 254.863,285.048 255.219,284.938 255.328 C 284.829 255.437,284.223 255.379,283.591 255.197 C 282.767 254.961,282.310 255.027,281.976 255.429 C 281.393 256.131,282.368 256.606,283.685 256.262 C 284.165 256.136,284.748 256.189,284.979 256.380 C 285.558 256.856,291.851 258.601,294.686 259.071 C 295.393 259.188,296.180 259.535,296.435 259.842 C 296.690 260.149,297.146 260.400,297.449 260.400 C 298.081 260.400,298.201 261.829,297.600 262.200 C 297.380 262.336,297.200 262.807,297.200 263.247 C 297.200 263.687,297.033 263.944,296.829 263.818 C 296.624 263.691,296.399 263.996,296.329 264.494 C 296.246 265.079,295.880 265.445,295.299 265.528 C 293.887 265.728,293.474 266.971,293.781 270.088 C 294.141 273.742,293.615 274.613,290.817 274.998 C 289.708 275.150,288.800 275.407,288.800 275.569 C 288.800 275.915,285.174 276.800,283.754 276.800 C 281.058 276.800,278.400 279.061,278.400 281.354 C 278.400 284.081,275.108 286.509,269.650 287.808 C 265.188 288.871,262.074 292.535,264.878 293.425 C 265.360 293.578,266.036 294.050,266.379 294.474 C 266.723 294.898,267.901 295.730,268.997 296.322 C 270.093 296.915,271.053 297.729,271.130 298.130 C 271.286 298.942,271.034 299.175,266.928 302.006 C 263.285 304.518,263.357 304.364,264.214 307.802 C 265.465 312.828,264.306 314.163,257.292 315.779 C 254.845 316.342,252.404 316.970,251.868 317.174 C 251.332 317.378,249.117 317.657,246.946 317.794 C 244.776 317.932,241.290 318.306,239.200 318.625 C 235.222 319.234,227.671 319.927,221.170 320.279 C 218.295 320.436,216.549 320.306,214.170 319.761 C 212.184 319.306,209.132 319.006,206.000 318.957 C 202.940 318.910,200.146 318.640,198.800 318.261 C 197.590 317.922,195.880 317.439,195.000 317.190 C 194.120 316.941,193.220 316.526,193.000 316.268 C 192.780 316.011,192.105 315.545,191.500 315.232 C 189.329 314.112,190.102 313.308,196.200 310.346 C 199.311 308.834,201.001 308.235,201.968 308.300 C 205.147 308.513,207.084 305.550,204.300 304.733 C 203.365 304.459,202.365 303.912,202.077 303.517 C 201.790 303.123,201.286 302.800,200.957 302.800 C 199.455 302.800,196.447 300.506,196.413 299.336 C 196.386 298.389,198.830 296.852,201.095 296.390 C 203.545 295.890,207.842 294.158,210.781 292.485 C 212.541 291.483,212.551 291.465,211.681 290.887 C 211.196 290.565,210.800 289.887,210.800 289.378 C 210.800 288.812,210.344 288.130,209.624 287.617 C 207.566 286.151,207.663 284.613,209.948 282.499 C 210.918 281.602,211.016 281.210,211.200 277.467 C 211.380 273.806,211.478 273.394,212.200 273.263 C 212.640 273.183,213.328 272.826,213.729 272.471 C 214.296 271.967,215.406 271.814,218.729 271.781 C 224.979 271.718,228.397 269.683,228.403 266.022 C 228.406 263.666,229.189 262.524,232.536 259.990 C 235.839 257.489,236.817 255.784,236.036 253.884 C 235.160 251.752,235.078 250.579,235.758 249.899 C 237.180 248.477,245.201 247.547,255.600 247.598 L 262.600 247.632 267.600 246.034 C 271.476 244.795,273.679 244.345,277.400 244.030 C 280.040 243.807,283.280 243.367,284.600 243.052 C 287.197 242.432,288.219 242.498,294.000 243.658 M250.900 253.865 C 249.839 254.293,250.911 256.000,252.240 256.000 C 253.327 256.000,255.978 254.657,255.990 254.100 C 256.000 253.600,252.013 253.416,250.900 253.865 M344.786 275.191 C 337.334 277.192,323.416 283.061,320.600 285.390 C 320.160 285.754,320.970 285.423,322.400 284.655 C 328.629 281.309,337.859 277.602,344.527 275.769 C 347.427 274.971,349.875 274.247,349.967 274.160 C 350.334 273.808,348.801 274.114,344.786 275.191 M397.803 279.500 C 396.951 284.986,396.227 288.823,395.776 290.234 C 395.384 291.461,395.360 292.257,395.679 293.434 C 396.393 296.068,396.511 299.663,395.978 302.503 C 395.539 304.844,395.560 305.578,396.139 307.977 C 397.129 312.078,397.364 314.332,396.904 315.320 C 392.930 323.860,392.929 323.976,396.830 331.295 C 397.304 332.185,397.306 334.210,396.833 335.105 C 395.937 336.802,395.130 340.519,395.354 341.915 C 396.065 346.348,396.094 348.783,395.452 350.386 C 394.467 352.849,395.289 359.517,396.810 361.401 C 397.337 362.054,396.985 378.340,396.397 380.555 C 395.444 384.142,389.276 389.582,384.400 391.137 C 379.568 392.679,362.923 393.271,322.200 393.352 C 275.978 393.443,277.635 393.693,273.911 386.080 L 272.600 383.400 272.617 373.000 C 272.633 362.857,272.660 362.513,273.717 359.055 C 274.539 356.366,274.800 354.673,274.800 352.042 C 274.800 348.340,275.294 346.074,276.961 342.134 C 277.607 340.607,278.137 338.362,278.352 336.241 C 278.761 332.205,279.881 329.629,282.625 326.415 C 285.946 322.523,286.464 321.670,287.641 318.143 C 289.370 312.964,290.235 311.775,298.118 303.734 C 305.368 296.339,307.566 294.474,315.000 289.406 C 319.373 286.426,320.704 285.344,318.200 286.806 C 310.651 291.215,303.479 296.965,297.176 303.662 C 290.085 311.196,288.530 313.239,286.381 317.841 C 285.339 320.072,283.213 323.771,281.656 326.063 C 278.516 330.683,277.807 332.333,276.984 336.940 C 276.676 338.667,275.969 341.547,275.414 343.340 C 274.153 347.413,273.602 350.322,273.593 352.955 C 273.589 354.080,273.221 356.620,272.774 358.600 C 271.755 363.117,271.253 377.394,271.954 381.894 C 272.914 388.049,275.140 392.306,278.600 394.603 C 281.180 396.316,371.569 395.631,382.800 393.813 C 387.879 392.991,393.946 388.312,396.694 383.099 L 397.800 381.000 397.786 371.400 C 397.775 363.659,397.627 361.081,397.024 358.086 C 396.361 354.789,396.336 354.060,396.800 351.599 C 397.152 349.736,397.238 347.440,397.064 344.594 C 396.903 341.962,396.973 339.650,397.248 338.481 C 397.902 335.701,397.795 330.118,397.047 328.000 C 396.212 325.634,396.231 321.875,397.093 319.173 C 397.634 317.474,397.754 315.954,397.641 312.200 C 397.486 307.039,397.455 302.939,397.541 298.800 C 397.570 297.370,397.445 295.268,397.261 294.128 C 397.048 292.800,397.105 290.933,397.422 288.928 C 397.920 285.769,398.464 278.000,398.186 278.000 C 398.104 278.000,397.931 278.675,397.803 279.500 M260.800 292.400 C 260.800 292.869,261.107 292.869,262.200 292.400 C 262.909 292.095,262.875 292.053,261.900 292.028 C 261.295 292.013,260.800 292.180,260.800 292.400 M236.800 325.800 C 237.350 326.114,238.262 326.378,238.826 326.386 C 239.391 326.394,241.770 327.022,244.115 327.781 C 246.459 328.541,249.099 329.357,249.982 329.595 C 253.369 330.507,252.931 333.332,249.258 334.263 C 248.080 334.561,246.640 335.142,246.058 335.553 C 244.462 336.681,241.443 337.834,237.000 339.013 C 230.206 340.815,229.999 340.891,230.015 341.564 C 230.031 342.265,232.620 344.400,233.453 344.400 C 234.372 344.400,238.400 346.475,238.397 346.947 C 238.390 347.924,232.014 350.364,228.265 350.823 C 226.761 351.008,224.691 351.426,223.665 351.753 C 217.951 353.576,207.889 354.395,205.236 353.254 C 204.145 352.784,202.835 352.394,202.326 352.387 C 201.817 352.380,201.051 352.110,200.624 351.787 C 200.196 351.464,199.466 351.200,199.000 351.200 C 194.612 351.200,197.210 347.075,202.200 346.118 C 202.860 345.991,203.580 345.762,203.800 345.610 C 204.020 345.457,205.408 345.014,206.884 344.626 C 212.222 343.222,210.655 340.000,204.635 340.000 C 203.509 340.000,201.620 339.646,200.436 339.213 C 199.253 338.781,197.185 338.302,195.842 338.151 C 194.499 337.999,192.821 337.633,192.113 337.337 C 191.405 337.042,190.282 336.800,189.619 336.800 C 183.074 336.800,183.221 332.271,189.800 331.194 C 191.340 330.942,193.636 330.390,194.902 329.968 C 196.167 329.546,197.548 329.200,197.968 329.200 C 198.389 329.200,199.596 328.830,200.651 328.378 C 201.705 327.926,204.015 327.378,205.784 327.160 C 207.553 326.942,209.720 326.561,210.600 326.315 C 211.480 326.068,215.980 325.748,220.600 325.603 C 234.609 325.164,235.711 325.178,236.800 325.800 M213.200 357.171 C 213.200 357.877,217.415 359.543,220.400 360.016 C 222.050 360.278,223.627 360.675,223.904 360.898 C 224.181 361.122,225.261 361.463,226.304 361.657 C 231.698 362.658,233.071 364.471,230.100 366.669 C 225.822 369.833,224.591 374.295,227.492 376.120 C 228.440 376.717,228.077 379.302,226.880 380.475 C 221.868 385.386,192.400 384.130,192.400 379.006 C 192.400 378.450,193.137 377.420,194.340 376.295 C 197.222 373.599,197.467 371.433,195.117 369.422 C 194.204 368.640,193.240 368.000,192.977 368.000 C 192.714 368.000,192.271 367.727,191.994 367.393 C 191.717 367.059,190.891 366.501,190.160 366.154 C 187.086 364.696,188.197 362.821,192.710 361.849 C 194.410 361.483,196.689 360.898,197.776 360.549 C 198.862 360.199,200.942 359.852,202.397 359.777 C 205.317 359.626,206.962 359.140,207.468 358.279 C 208.037 357.309,213.200 356.311,213.200 357.171 " stroke="none" fill="#942404" fill-rule="evenodd"></path></g></svg>