<svg version="1.1" xmlns="http://www.w3.org/2000/svg" xmlns:xlink="http://www.w3.org/1999/xlink" width="500" height="500">
    <defs>
        <linearGradient id="IoenQQzirBmR" x1="0px" x2="500px" y1="0px" y2="500px" gradientUnits="userSpaceOnUse">
            <stop offset="0" stop-color="#BA4110" />
            <stop offset="1" stop-color="#D5711F" />
        </linearGradient>

        <linearGradient id="ASsxGaTixcsh" x1="0px" x2="500px" y1="0px" y2="500px" gradientUnits="userSpaceOnUse">
            <stop offset="0" stop-color="#f5f7fa" />
            <stop offset="1" stop-color="#b8c6db" />
        </linearGradient>

        <linearGradient id="cBA4110" x1="0px" x2="500px" y1="0px" y2="500px" gradientUnits="userSpaceOnUse">
            <stop offset="0" stop-color="#BA4110" />
            <stop offset="1" stop-color="#BA4110" />
        </linearGradient>

        <linearGradient id="c912514" x1="0px" x2="500px" y1="0px" y2="500px" gradientUnits="userSpaceOnUse">
            <stop offset="0" stop-color="#912514" />
            <stop offset="1" stop-color="#912514" />
        </linearGradient>

    </defs>
    <g stroke="none" fill="url(#ASsxGaTixcsh)">
        <path
            fill="url(#IoenQQzirBmR)"
            stroke="none"
            paint-order="stroke fill markers"
            d=" M 10 0 L 490 0 L 490 0 A 10 10 0 0 1 500 10 L 500 490 L 500 490 A 10 10 0 0 1 490 500 L 10 500 L 10 500 A 10 10 0 0 1 0 490 L 0 10 L 0 10.000000000000002 A 10 10 0 0 1 10 0 Z"
        />
        <path fill="url(#IoenQQzirBmR)" stroke="#912514" paint-order="fill stroke markers" d=" M 250 150 L 250 500" stroke-miterlimit="10" stroke-width="166.66" stroke-dasharray="" />
        <path fill="url(#cBA4110)" stroke="none" d=" M 50 450 L 50 50 L 450 50 L 450 450 L 500 450 L 500 0 L 0 0 L 0 450 L 55 450"/>
        <path
            fill="none"
            stroke="#f5f7fa"
            paint-order="fill stroke markers"
            d=" M 40 25 A 15 15 0 1 1 39.99999250000062 24.98500000249999 M 17.5 17.5 L 32.5 32.5 M 32.5 17.5 L 17.5 32.5"
            stroke-miterlimit="10"
            stroke-width="5"
            stroke-dasharray=""
        />
        <path
            fill="none"
            stroke="#f5f7fa"
            paint-order="fill stroke markers"
            d=" M 490 25 A 15 15 0 1 1 489.99999250000064 24.98500000249999 M 467.5 17.5 L 482.5 32.5 M 482.5 17.5 L 467.5 32.5"
            stroke-miterlimit="10"
            stroke-width="5"
            stroke-dasharray=""
        />
        <path
            fill="none"
            stroke="#f5f7fa"
            paint-order="fill stroke markers"
            d=" M 40 400 A 15 15 0 1 1 39.99999250000062 399.9850000025 M 17.5 392.5 L 32.5 407.5 M 32.5 392.5 L 17.5 407.5"
            stroke-miterlimit="10"
            stroke-width="5"
            stroke-dasharray=""
        />
        <path
            fill="none"
            stroke="#f5f7fa"
            paint-order="fill stroke markers"
            d=" M 490 400 A 15 15 0 1 1 489.99999250000064 399.9850000025 M 467.5 392.5 L 482.5 407.5 M 482.5 392.5 L 467.5 407.5"
            stroke-miterlimit="10"
            stroke-width="5"
            stroke-dasharray=""
        />
        <path fill="url(#c912514)" stroke="none" paint-order="stroke fill markers" d=" M 166.67000000000002 151 A 83.33 83.33 0 0 1 333.33 151" />
        <path fill="" stroke="none" d="" />
        <!-- <g transform="translate(210,160)">
            <text fill="" stroke="none" font-family="Verdana" font-size="90px" font-style="normal" font-weight="bold"  x="0" y="0" text-anchor="start" dominant-baseline="alphabetic">G</text>
            <g transform="translate(0,80)">
                <text fill="" stroke="none" font-family="Verdana" font-size="90px" font-style="normal" font-weight="bold"  x="0" y="0" text-anchor="start" dominant-baseline="alphabetic">O</text>
                <g transform="translate(0,80)">
                    <text fill="" stroke="none" font-family="Verdana" font-size="90px" font-style="normal" font-weight="bold"  x="0" y="0" text-anchor="start" dominant-baseline="alphabetic">A</text>
                    <g transform="translate(5,80)">
                        <text fill="" stroke="none" font-family="Verdana" font-size="90px" font-style="normal" font-weight="bold"  x="0" y="0" text-anchor="start" dominant-baseline="alphabetic">L</text>
                        <g transform="translate(18,80)">
                            <text fill="" stroke="none" font-family="Verdana" font-size="90px" font-style="normal" font-weight="bold"  x="0" y="0" text-anchor="start" dominant-baseline="alphabetic">!</text>
                        </g>
                    </g>
                </g>
            </g>
        </g> -->
    </g>
</svg>
