<svg version="1.1" xmlns="http://www.w3.org/2000/svg" xmlns:xlink="http://www.w3.org/1999/xlink" width="500" height="500">
    <defs>
        <linearGradient id="brwAFMmEdTNX" x1="0px" x2="500px" y1="0px" y2="500px" gradientUnits="userSpaceOnUse">
            <stop offset="0" stop-color="#eeeeee" />
            <stop offset="1" stop-color="#71797E" />
        </linearGradient>
        <linearGradient id="CLNgyzxsLCxZ" x1="0px" x2="500px" y1="0px" y2="500px" gradientUnits="userSpaceOnUse">
            <stop offset="0" stop-color="#f5f7fa" />
            <stop offset="1" stop-color="#b8c6db" />
        </linearGradient>
    </defs>
    <g stroke="none" fill="url(#CLNgyzxsLCxZ)">
        <path
            fill="url(#brwAFMmEdTNX)"
            stroke="none"
            paint-order="stroke fill markers"
            d=" M 10 0 L 490 0 L 490 0 A 10 10 0 0 1 500 10 L 500 490 L 500 490 A 10 10 0 0 1 490 500 L 10 500 L 10 500 A 10 10 0 0 1 0 490 L 0 10 L 0 10.000000000000002 A 10 10 0 0 1 10 0 Z"
        />
        <path
            fill="none"
            stroke="#f5f7fa"
            paint-order="fill stroke markers"
            d=" M 65 50 A 15 15 0 1 1 64.99999250000063 49.985000002499994 M 42.5 42.5 L 57.5 57.5 M 57.5 42.5 L 42.5 57.5"
            stroke-miterlimit="10"
            stroke-width="5"
            stroke-dasharray=""
        />
        <path
            fill="none"
            stroke="#f5f7fa"
            paint-order="fill stroke markers"
            d=" M 465 50 A 15 15 0 1 1 464.99999250000064 49.985000002499994 M 442.5 42.5 L 457.5 57.5 M 457.5 42.5 L 442.5 57.5"
            stroke-miterlimit="10"
            stroke-width="5"
            stroke-dasharray=""
        />
        <path
            fill="none"
            stroke="#f5f7fa"
            paint-order="fill stroke markers"
            d=" M 65 450 A 15 15 0 1 1 64.99999250000063 449.9850000025 M 42.5 442.5 L 57.5 457.5 M 57.5 442.5 L 42.5 457.5"
            stroke-miterlimit="10"
            stroke-width="5"
            stroke-dasharray=""
        />
        <path
            fill="none"
            stroke="#f5f7fa"
            paint-order="fill stroke markers"
            d=" M 465 450 A 15 15 0 1 1 464.99999250000064 449.9850000025 M 442.5 442.5 L 457.5 457.5 M 457.5 442.5 L 442.5 457.5"
            stroke-miterlimit="10"
            stroke-width="5"
            stroke-dasharray=""
        />
        <path fill="none" stroke="#444542" paint-order="fill stroke markers" d=" M 0 250 L 350 250" stroke-miterlimit="10" stroke-width="166.66" stroke-dasharray="" />
        <path fill="#444542" stroke="none" paint-order="stroke fill markers" d=" M 349 166.67000000000002 A 83.33 83.33 0 0 1 349 333.33" />
        <path fill="" stroke="none" d="" />
        <g transform="translate(50,300)">
            <text fill="" stroke="none" font-family="Verdana" font-size="160px" font-style="normal" font-weight="bold" text-decoration="normal" x="0" y="0" text-anchor="start" dominant-baseline="alphabetic">&lt;</text>
        </g>
    </g>
</svg>
