<svg version="1.1" xmlns="http://www.w3.org/2000/svg" xmlns:xlink="http://www.w3.org/1999/xlink" width="500" height="500"> <defs> <linearGradient id="ozHMpiSwTSNu" x1="0px" x2="500px" y1="0px" y2="500px" gradientUnits="userSpaceOnUse"> <stop offset="0" stop-color="#1e3266" /> <stop offset="1" stop-color="#356cb1" /> </linearGradient> <linearGradient id="IymRDdolcKTM" x1="0px" x2="500px" y1="0px" y2="500px" gradientUnits="userSpaceOnUse"> <stop offset="0" stop-color="#f5f7fa" /> <stop offset="1" stop-color="#b8c6db" /> </linearGradient> <linearGradient id="1e3266" x1="0px" x2="500px" y1="0px" y2="500px" gradientUnits="userSpaceOnUse"> <stop offset="0" stop-color="#1e3266" /> <stop offset="1" stop-color="#1e3266" /> </linearGradient> <linearGradient id="182f5d" x1="0px" x2="500px" y1="0px" y2="500px" gradientUnits="userSpaceOnUse"> <stop offset="0" stop-color="#182f5d" /> <stop offset="1" stop-color="#182f5d" /> </linearGradient> <linearGradient id="editing-shiny-gradient" x1="0.3208160252273498" x2="0.6791839747726502" y1="0.03320978675139913" y2="0.9667902132486008" gradientUnits="objectBoundingBox"> <stop offset="0.0" stop-color="#a7acd9"></stop> <stop offset="1.0" stop-color="#9e8fb2"></stop> </linearGradient> </defs> <g fill="url(#IymRDdolcKTM)"> <path fill="url(#ozHMpiSwTSNu)" stroke="none" paint-order="stroke fill markers" d=" M 10 0 L 490 0 L 490 0 A 10 10 0 0 1 500 10 L 500 490 L 500 490 A 10 10 0 0 1 490 500 L 10 500 L 10 500 A 10 10 0 0 1 0 490 L 0 10 L 0 10.000000000000002 A 10 10 0 0 1 10 0 Z" /> <path fill="url(#182f5d)" stroke="none" paint-order="stroke fill markers" d=" M 450 50 L 50 50 L 50 450 L 450 450 L 450 500 L 0 500 L 0 0 L 450 0 L 450 55" /> <path fill="none" stroke="#f5f7fa" paint-order="fill stroke markers" d=" M 40 25 A 15 15 0 1 1 39.99999250000062 24.98500000249999 M 17.5 17.5 L 32.5 32.5 M 32.5 17.5 L 17.5 32.5" stroke-miterlimit="10" stroke-width="5" stroke-dasharray="" /> <path fill="none" stroke="#f5f7fa" paint-order="fill stroke markers" d=" M 415 25 A 15 15 0 1 1 414.99999250000064 24.98500000249999 M 392.5 17.5 L 407.5 32.5 M 407.5 17.5 L 392.5 32.5" stroke-miterlimit="10" stroke-width="5" stroke-dasharray="" /> <path fill="none" stroke="#f5f7fa" paint-order="fill stroke markers" d=" M 40 475 A 15 15 0 1 1 39.99999250000062 474.9850000025 M 17.5 467.5 L 32.5 482.5 M 32.5 467.5 L 17.5 482.5" stroke-miterlimit="10" stroke-width="5" stroke-dasharray="" /> <path fill="none" stroke="#f5f7fa" paint-order="fill stroke markers" d=" M 415 475 A 15 15 0 1 1 414.99999250000064 474.9850000025 M 392.5 467.5 L 407.5 482.5 M 407.5 467.5 L 392.5 482.5" stroke-miterlimit="10" stroke-width="5" stroke-dasharray="" /> <path fill="none" stroke="#1e3266" paint-order="fill stroke markers" d=" M 150 250 L 500 250" stroke-miterlimit="10" stroke-width="166.66" stroke-dasharray="" /> <path fill="url(#1e3266)" stroke="none" paint-order="stroke fill markers" d=" M 151 333.33 A 83.33 83.33 0 0 1 151 166.67000000000002" /> <path fill="" stroke="none" d="" /> </g> <g > <g transform="translate(120, 270)"> <path d="M27.01-20.61L39.94-21.76L39.94-21.76Q35.33-11.65 35.33 0.06L35.33 0.06L35.33 0.06Q33.60 1.28 31.07 1.28L31.07 1.28L31.07 1.28Q28.54 1.28 26.94 0.10L26.94 0.10L26.94 0.10Q25.34-1.09 25.02-2.30L25.02-2.30L25.02-2.30Q23.42-0.64 20.83 0.32L20.83 0.32L20.83 0.32Q18.24 1.28 15.49 1.28L15.49 1.28L15.49 1.28Q12.74 1.28 10.34 0.38L10.34 0.38L10.34 0.38Q7.94-0.51 6.08-2.50L6.08-2.50L6.08-2.50Q1.98-6.85 1.98-15.10L1.98-15.10L1.98-15.10Q1.98-27.90 8.83-35.58L8.83-35.58L8.83-35.58Q15.87-43.52 28.35-43.52L28.35-43.52L28.35-43.52Q36.99-43.52 40.06-39.04L40.06-39.04L40.06-39.04Q41.02-37.63 41.02-35.94L41.02-35.94L41.02-35.94Q41.02-34.24 40.29-32.80L40.29-32.80L40.29-32.80Q39.55-31.36 38.40-30.21L38.40-30.21L38.40-30.21Q35.65-27.65 32.26-27.65L32.26-27.65L32.26-27.65Q30.91-27.65 29.63-28.10L29.63-28.10L29.63-28.10Q29.89-30.02 29.89-32.26L29.89-32.26L29.89-32.26Q29.89-34.50 29.73-35.52L29.73-35.52L29.73-35.52Q29.57-36.54 29.18-37.38L29.18-37.38L29.18-37.38Q28.35-39.10 26.53-39.10L26.53-39.10L26.53-39.10Q24.70-39.10 22.69-37.15L22.69-37.15L22.69-37.15Q20.67-35.20 19.07-32L19.07-32L19.07-32Q15.55-24.83 15.55-16.19L15.55-16.19L15.55-16.19Q15.55-12.22 17.09-9.41L17.09-9.41L17.09-9.41Q18.75-6.34 21.70-6.34L21.70-6.34L21.70-6.34Q22.72-6.34 23.65-6.85L23.65-6.85L23.65-6.85Q24.58-7.36 24.96-7.74L24.96-7.74L27.01-20.61Z" fill="url(#editing-shiny-gradient)"></path> </g> </g> <g > <g transform="translate(180, 270)"> <path d="M15.04 1.28L15.04 1.28L15.04 1.28Q0.96 1.28 0.96-11.97L0.96-11.97L0.96-11.97Q0.96-21.38 6.14-27.46L6.14-27.46L6.14-27.46Q11.65-33.92 21.18-33.92L21.18-33.92L21.18-33.92Q28.10-33.92 31.62-30.72L31.62-30.72L31.62-30.72Q35.14-27.52 35.14-20.80L35.14-20.80L35.14-20.80Q35.14-10.56 29.63-4.61L29.63-4.61L29.63-4.61Q24.26 1.28 15.04 1.28ZM16.70-26.56L16.70-26.56L16.70-26.56Q15.94-24.83 15.33-22.24L15.33-22.24L15.33-22.24Q14.72-19.65 13.95-15.55L13.95-15.55L13.95-15.55Q13.18-11.46 13.18-6.40L13.18-6.40L13.18-6.40Q13.18-4.74 13.73-3.65L13.73-3.65L13.73-3.65Q14.27-2.56 15.74-2.56L15.74-2.56L15.74-2.56Q17.22-2.56 18.14-3.26L18.14-3.26L18.14-3.26Q19.07-3.97 19.78-5.63L19.78-5.63L19.78-5.63Q21.06-8.58 22.08-14.05L22.08-14.05L22.08-14.05Q23.10-19.52 23.20-21.89L23.20-21.89L23.20-21.89Q23.30-24.26 23.30-26.02L23.30-26.02L23.30-26.02Q23.30-27.78 22.78-28.93L22.78-28.93L22.78-28.93Q22.27-30.08 20.83-30.08L20.83-30.08L20.83-30.08Q19.39-30.08 18.43-29.18L18.43-29.18L18.43-29.18Q17.47-28.29 16.70-26.56Z" fill="url(#editing-shiny-gradient)"></path> </g> </g> <g > <g transform="translate(240, 270)"> <path d="M3.87-1.92L3.87-1.92L3.87-1.92Q2.37-3.58 1.70-6.21L1.70-6.21L1.70-6.21Q1.02-8.83 1.02-13.12L1.02-13.12L1.02-13.12Q1.02-17.41 2.50-21.31L2.50-21.31L2.50-21.31Q3.97-25.22 6.66-28.03L6.66-28.03L6.66-28.03Q12.16-33.92 21.25-33.92L21.25-33.92L21.25-33.92Q24.51-33.92 26.88-32.83L26.88-32.83L37.82-33.92L33.09-8.96L33.09-8.96Q32.90-8.19 32.90-6.78L32.90-6.78L32.90-6.78Q32.90-5.38 33.76-4.48L33.76-4.48L33.76-4.48Q34.62-3.58 35.90-3.46L35.90-3.46L35.90-3.46Q35.26-1.28 32.93 0L32.93 0L32.93 0Q30.59 1.28 27.97 1.28L27.97 1.28L27.97 1.28Q25.34 1.28 23.58 0.29L23.58 0.29L23.58 0.29Q21.82-0.70 21.31-2.37L21.31-2.37L21.31-2.37Q20.29-0.77 18.11 0.26L18.11 0.26L18.11 0.26Q15.94 1.28 13.02 1.28L13.02 1.28L13.02 1.28Q10.11 1.28 7.74 0.51L7.74 0.51L7.74 0.51Q5.38-0.26 3.87-1.92ZM17.38-27.90L17.38-27.90L17.38-27.90Q16.64-26.75 16-24.80L16-24.80L16-24.80Q15.36-22.85 14.30-17.63L14.30-17.63L14.30-17.63Q13.25-12.42 13.25-8.70L13.25-8.70L13.25-8.70Q13.25-4.99 13.82-3.90L13.82-3.90L13.82-3.90Q14.40-2.82 15.42-2.82L15.42-2.82L15.42-2.82Q17.47-2.82 18.98-4.77L18.98-4.77L18.98-4.77Q20.48-6.72 21.06-10.18L21.06-10.18L24.45-28.93L24.45-28.93Q23.10-30.08 21.54-30.08L21.54-30.08L21.54-30.08Q19.97-30.08 19.04-29.57L19.04-29.57L19.04-29.57Q18.11-29.06 17.38-27.90Z" fill="url(#editing-shiny-gradient)"></path> </g> </g> <g > <g transform="translate(300, 270)"> <path d="M16.38-3.52L16.38-3.52L16.38-3.52Q14.40 1.28 8.06 1.28L8.06 1.28L8.06 1.28Q4.86 1.28 2.82-0.96L2.82-0.96L2.82-0.96Q1.15-2.82 1.15-4.93L1.15-4.93L1.15-4.93Q1.15-9.73 3.39-20.22L3.39-20.22L8.06-44.80L21.06-46.08L14.85-13.70L14.85-13.70Q13.76-8.96 13.76-7.30L13.76-7.30L13.76-7.30Q13.76-3.65 16.38-3.52Z" fill="url(#editing-shiny-gradient)"></path> </g> </g></svg>