<svg id="svg" version="1.1" xmlns="http://www.w3.org/2000/svg" xmlns:xlink="http://www.w3.org/1999/xlink" width="400" height="400" viewBox="0, 0, 400,400"><g id="svgg"><path id="path0" d="M3.200 0.616 C 3.200 1.623,1.730 4.162,0.833 4.703 C -0.039 5.231,-0.494 12.400,0.345 12.400 C 1.133 12.400,2.712 14.506,2.930 15.845 C 3.300 18.127,2.502 31.535,1.826 34.400 C 1.149 37.266,1.000 40.800,1.555 40.800 C 1.751 40.800,2.026 41.412,2.166 42.159 C 2.749 45.270,4.221 46.092,6.894 44.800 C 11.416 42.616,16.400 45.157,16.400 49.648 C 16.400 51.260,15.116 59.173,14.581 60.859 C 14.127 62.291,9.495 61.253,7.327 59.232 C 3.529 55.694,1.765 57.364,2.184 64.103 C 2.463 68.594,2.462 68.602,1.332 70.200 L 0.200 71.800 0.200 96.800 C 0.200 122.172,0.313 124.566,1.776 130.177 C 2.117 131.485,2.674 135.805,3.014 139.777 C 3.612 146.774,3.761 147.868,4.804 153.000 C 5.145 154.678,5.235 158.408,5.101 165.400 C 4.862 177.883,5.218 182.588,6.880 188.895 L 8.174 193.800 8.437 208.000 C 8.583 215.810,8.885 224.180,9.108 226.600 C 10.170 238.070,10.921 244.200,11.821 248.732 C 12.359 251.445,12.800 254.078,12.800 254.583 C 12.800 256.861,13.943 258.357,17.475 260.701 C 21.962 263.679,23.073 265.500,23.618 270.769 C 23.824 272.766,24.152 274.715,24.346 275.100 C 24.541 275.485,25.066 276.520,25.514 277.400 C 30.693 287.576,26.691 299.600,18.126 299.600 C 14.730 299.600,13.468 300.738,13.691 303.600 C 13.810 305.123,14.006 305.176,17.650 304.671 C 20.416 304.287,26.400 308.139,26.400 310.302 C 26.400 311.481,23.503 314.458,16.185 320.800 C 8.095 327.811,7.205 335.697,13.675 343.049 C 18.159 348.144,17.935 347.372,17.615 356.650 C 16.883 377.848,53.267 384.504,63.024 364.957 L 64.600 361.800 64.600 355.371 C 64.600 347.703,64.551 347.813,70.773 341.500 C 74.846 337.367,75.561 337.025,77.284 338.381 C 78.803 339.575,79.261 351.743,77.969 356.600 C 77.297 359.129,77.157 360.566,77.301 363.457 C 77.572 368.877,76.167 370.859,68.200 376.296 C 61.401 380.935,58.474 385.190,61.134 386.566 C 64.358 388.233,84.617 388.867,91.123 387.504 C 93.778 386.948,95.505 386.859,99.728 387.062 C 104.712 387.301,105.221 387.253,108.741 386.217 C 112.727 385.045,114.355 385.051,117.733 386.251 C 123.319 388.236,144.688 388.905,149.363 387.241 C 152.226 386.222,154.350 386.179,157.227 387.082 C 159.542 387.807,160.680 387.837,180.200 387.675 C 187.058 387.618,191.645 387.776,194.800 388.176 C 203.086 389.228,233.735 389.336,240.324 388.337 C 245.998 387.478,246.495 387.479,262.600 388.411 C 278.793 389.348,288.582 388.871,295.600 386.801 C 300.425 385.377,300.987 385.390,306.211 387.030 L 311.000 388.534 321.600 388.687 C 348.446 389.074,353.744 387.976,344.400 383.959 C 339.830 381.994,337.537 380.317,334.720 376.878 C 333.554 375.455,331.389 372.875,329.909 371.146 C 326.416 367.067,325.924 366.020,324.566 359.800 C 322.263 349.247,323.153 344.400,327.394 344.400 C 331.637 344.400,333.927 348.468,333.240 354.784 C 332.329 363.160,335.085 368.596,342.429 372.910 C 355.163 380.391,373.903 376.319,379.508 364.853 L 381.000 361.800 381.031 355.600 C 381.070 347.504,382.050 345.663,387.816 342.852 C 389.204 342.175,390.456 341.433,390.597 341.204 C 390.739 340.975,390.994 340.873,391.164 340.978 C 391.665 341.287,393.854 338.716,394.346 337.240 C 395.298 334.388,394.769 321.915,393.573 319.000 C 393.148 317.965,391.600 308.936,391.600 307.494 C 391.600 306.886,391.428 306.077,391.218 305.695 C 391.008 305.313,390.364 302.660,389.788 299.800 C 388.108 291.461,387.536 290.609,382.810 289.421 C 377.636 288.121,377.256 286.544,381.200 282.746 C 384.251 279.808,384.341 279.632,383.285 278.677 C 380.531 276.184,375.252 275.432,353.383 274.417 C 345.714 274.061,338.709 273.464,336.616 272.987 C 336.167 272.885,333.669 272.530,331.063 272.199 C 307.552 269.206,271.479 257.417,250.645 245.917 C 222.855 230.576,193.089 206.258,176.058 184.980 C 163.167 168.875,153.428 155.153,150.236 148.600 C 145.266 138.394,142.617 132.266,140.984 127.200 C 139.956 124.010,137.778 118.548,136.144 115.062 C 132.588 107.472,131.799 104.866,129.412 92.818 C 128.405 87.736,127.125 81.469,126.568 78.891 C 124.540 69.509,123.362 54.675,122.352 25.777 L 121.876 12.154 123.298 7.377 C 125.404 0.301,125.434 0.000,124.033 0.000 C 123.114 0.000,122.834 0.218,122.619 1.100 C 122.302 2.403,119.599 6.979,118.307 8.400 C 115.601 11.378,114.192 11.741,110.715 10.360 C 108.424 9.450,103.956 9.453,95.800 10.369 C 93.479 10.630,91.063 10.640,89.000 10.399 C 79.845 9.325,54.400 10.370,54.400 11.819 C 54.400 12.475,54.189 12.259,60.623 18.200 C 67.178 24.254,67.029 24.096,67.964 25.930 C 69.891 29.707,67.372 34.677,62.843 36.034 C 60.471 36.745,59.276 36.220,56.403 33.202 C 52.447 29.047,50.684 28.659,45.395 30.777 C 41.091 32.500,40.130 32.598,37.376 31.597 C 29.592 28.768,28.572 28.881,24.497 33.018 C 20.011 37.571,14.965 37.365,12.952 32.546 C 10.531 26.752,14.221 22.177,27.586 14.401 C 31.731 11.990,33.829 9.600,31.800 9.600 C 31.470 9.600,31.200 9.444,31.200 9.254 C 31.200 7.593,23.651 7.232,15.569 8.507 C 8.804 9.574,5.358 7.562,5.826 2.815 L 6.103 0.000 4.652 0.000 C 3.611 0.000,3.200 0.174,3.200 0.616 M272.400 0.955 C 272.400 1.481,272.835 3.416,273.366 5.255 C 274.800 10.219,274.851 10.696,274.962 20.221 C 275.231 43.353,285.151 70.587,298.598 85.109 C 304.617 91.609,319.615 103.076,324.348 104.797 C 325.586 105.247,327.384 105.904,328.342 106.257 C 329.300 106.610,331.280 107.703,332.742 108.687 C 337.791 112.084,338.407 112.315,346.952 114.016 C 353.725 115.364,355.094 115.427,359.000 114.575 C 360.540 114.240,363.386 113.793,365.325 113.583 C 369.463 113.135,369.369 113.178,374.443 109.328 C 378.824 106.004,380.827 103.415,383.606 97.483 C 388.187 87.708,385.821 81.313,375.912 76.683 C 372.537 75.105,371.563 74.382,367.126 70.154 C 364.381 67.539,361.141 64.688,359.926 63.818 C 358.709 62.946,356.667 60.846,355.382 59.143 C 354.098 57.442,352.947 56.068,352.824 56.090 C 352.701 56.112,352.067 55.910,351.415 55.642 C 349.169 54.719,345.018 57.516,343.983 60.650 C 343.489 62.149,343.677 65.135,344.293 65.558 C 345.040 66.070,346.000 67.817,346.000 68.665 C 346.000 70.805,344.144 69.923,341.624 66.585 C 340.728 65.399,339.581 64.017,339.074 63.514 C 336.560 61.020,334.000 56.559,334.000 54.674 C 334.000 52.954,334.770 52.320,338.032 51.357 C 339.224 51.005,341.550 50.068,343.200 49.277 C 347.086 47.412,350.662 47.309,353.935 48.967 C 355.071 49.543,356.000 50.166,356.000 50.352 C 356.000 51.100,364.486 53.595,367.000 53.586 C 370.223 53.576,373.370 50.627,374.452 46.606 C 375.281 43.525,376.243 42.211,378.558 41.000 C 378.978 40.780,379.868 39.922,380.536 39.093 L 381.751 37.586 382.052 29.693 C 382.686 13.035,382.232 14.195,390.353 8.514 C 393.400 6.383,393.992 5.460,394.251 2.438 L 394.460 0.000 390.069 0.000 L 385.678 0.000 385.279 1.145 C 384.268 4.044,378.171 5.425,368.479 4.948 C 359.927 4.528,353.677 4.870,348.027 6.067 C 344.614 6.791,342.341 6.978,336.226 7.037 C 321.973 7.176,315.660 7.631,309.200 8.987 C 303.255 10.234,301.990 10.426,297.567 10.755 C 290.780 11.261,289.937 11.855,290.267 15.905 C 290.409 17.645,290.260 19.686,289.847 21.665 C 288.828 26.548,289.930 30.171,293.080 32.292 C 296.646 34.694,297.056 35.444,297.399 40.200 C 297.994 48.443,297.402 51.639,294.919 53.592 C 293.318 54.851,292.459 54.152,289.400 49.105 C 287.860 46.563,286.115 43.860,285.522 43.098 C 283.976 41.109,282.165 37.324,281.647 35.000 C 279.922 27.254,279.531 20.814,280.552 16.942 C 281.569 13.086,281.480 12.752,277.970 7.257 C 276.194 4.476,274.642 1.705,274.520 1.100 C 274.222 -0.391,272.400 -0.515,272.400 0.955 M370.056 14.770 L 371.000 15.540 370.008 17.370 C 369.463 18.377,368.860 19.200,368.668 19.200 C 368.476 19.200,368.435 20.055,368.575 21.100 C 369.522 28.136,369.182 29.570,366.765 28.728 C 363.327 27.530,363.138 24.144,366.323 20.840 C 366.639 20.512,366.754 19.933,366.601 19.440 C 365.221 14.991,367.142 12.394,370.056 14.770 M114.734 27.507 C 115.167 28.116,115.810 30.141,116.162 32.007 C 116.513 33.873,117.193 37.380,117.671 39.800 C 118.395 43.457,118.553 45.754,118.607 53.400 C 118.643 58.460,118.788 63.140,118.929 63.800 C 119.070 64.460,119.378 67.340,119.613 70.200 C 119.849 73.060,120.478 77.342,121.012 79.715 C 122.041 84.290,123.200 93.155,123.200 96.451 C 123.200 98.926,122.474 100.680,120.169 103.768 C 119.171 105.106,117.468 107.494,116.384 109.076 C 114.512 111.808,114.228 112.040,110.703 113.720 C 106.455 115.746,104.750 117.041,103.892 118.895 C 103.559 119.613,102.825 121.192,102.260 122.404 C 101.043 125.015,99.639 125.984,96.684 126.254 C 90.685 126.802,88.120 129.583,86.591 137.200 C 84.411 148.056,80.646 149.444,70.837 143.007 C 66.185 139.955,65.333 140.130,63.213 144.572 C 62.168 146.763,59.798 149.533,58.886 149.631 C 58.729 149.647,58.240 149.737,57.800 149.830 C 56.464 150.111,48.385 149.204,46.973 148.614 C 44.770 147.694,41.600 142.292,41.600 139.458 C 41.600 135.303,38.886 131.778,34.805 130.634 C 30.236 129.351,27.681 127.393,24.695 122.886 C 23.022 120.361,22.765 120.201,19.800 119.840 C 15.043 119.261,14.991 119.207,14.425 114.226 C 14.209 112.322,13.672 109.468,13.232 107.882 C 12.791 106.297,12.236 103.398,11.997 101.440 C 11.758 99.482,11.288 96.692,10.952 95.240 C 9.988 91.076,9.714 78.296,10.560 77.004 C 11.916 74.935,14.574 76.157,21.097 81.845 C 27.217 87.184,35.254 88.994,44.680 87.159 C 48.360 86.442,49.829 86.355,54.600 86.574 C 61.971 86.911,62.404 86.653,66.400 79.552 C 67.170 78.183,69.098 75.647,70.685 73.914 C 73.757 70.560,73.929 70.187,75.596 63.214 C 77.747 54.213,80.466 51.122,86.876 50.391 C 91.915 49.817,92.713 49.081,94.016 43.807 C 95.302 38.603,98.541 34.005,101.338 33.414 C 101.812 33.314,103.275 33.023,104.590 32.769 C 106.804 32.340,107.192 32.090,109.885 29.353 C 113.102 26.083,113.588 25.898,114.734 27.507 M50.238 34.842 C 50.883 35.554,51.000 36.313,51.000 39.772 C 51.000 43.775,51.030 43.910,52.458 46.230 C 57.381 54.236,53.376 59.020,45.286 54.797 C 40.884 52.499,39.473 52.490,35.188 54.733 C 27.801 58.600,22.965 53.382,27.890 46.859 C 29.403 44.856,29.925 42.632,29.699 39.149 C 29.392 34.423,30.548 33.642,35.536 35.205 C 38.907 36.262,41.638 36.212,45.022 35.030 C 48.497 33.816,49.284 33.788,50.238 34.842 M68.390 46.790 C 70.419 48.819,69.584 55.461,67.111 56.964 C 65.107 58.181,63.063 49.300,64.829 47.054 C 65.822 45.791,67.283 45.683,68.390 46.790 M45.750 59.843 C 48.198 60.856,50.879 61.965,51.709 62.307 C 59.400 65.479,45.494 72.773,35.492 70.813 C 28.139 69.372,23.018 63.577,27.800 62.109 C 31.811 60.877,34.381 59.981,36.600 59.038 C 39.863 57.653,40.623 57.720,45.750 59.843 M60.000 70.586 C 60.000 72.456,55.683 75.275,51.959 75.837 C 49.842 76.156,49.949 76.038,54.400 73.130 C 59.575 69.748,60.000 69.555,60.000 70.586 M365.200 105.800 C 365.200 106.130,364.930 106.400,364.600 106.400 C 364.270 106.400,364.000 106.130,364.000 105.800 C 364.000 105.470,364.270 105.200,364.600 105.200 C 364.930 105.200,365.200 105.470,365.200 105.800 M132.724 121.215 C 135.294 123.609,136.121 128.607,134.621 132.682 C 133.744 135.065,133.777 135.171,137.028 140.388 C 140.188 145.460,141.177 154.405,138.632 154.892 C 137.103 155.184,136.253 154.447,132.821 149.857 C 127.483 142.715,127.292 141.335,130.969 136.422 C 132.310 134.631,132.289 134.421,130.394 130.741 C 127.099 124.342,128.766 117.528,132.724 121.215 M170.800 188.676 C 170.800 188.964,170.530 189.200,170.200 189.200 C 169.787 189.200,169.604 188.795,169.613 187.900 C 169.625 186.670,169.657 186.642,170.213 187.376 C 170.536 187.804,170.800 188.389,170.800 188.676 M180.581 197.264 C 181.142 197.520,181.600 197.880,181.600 198.064 C 181.600 198.249,181.794 198.400,182.030 198.400 C 182.900 198.400,187.549 202.323,193.200 207.826 C 198.552 213.036,201.679 215.729,214.888 226.499 C 224.987 234.733,245.212 247.223,261.400 255.223 C 267.120 258.050,272.610 260.810,273.600 261.357 C 277.024 263.248,279.089 263.946,284.433 265.016 C 293.819 266.896,306.236 271.316,307.393 273.189 C 308.266 274.602,299.078 275.212,291.663 274.233 C 285.721 273.449,285.190 273.198,282.089 269.701 C 280.041 267.390,279.343 266.875,277.630 266.408 C 276.514 266.104,275.600 265.734,275.600 265.586 C 275.600 265.438,273.845 265.215,271.700 265.091 C 268.799 264.923,266.639 264.499,263.267 263.433 C 254.566 260.682,253.274 261.423,250.413 270.800 C 247.935 278.922,247.169 280.737,245.521 282.385 C 243.415 284.491,243.136 284.517,237.172 283.169 C 233.201 282.271,231.458 283.743,229.321 289.800 C 228.203 292.971,226.306 294.800,224.137 294.800 C 221.240 294.800,220.705 293.992,220.365 289.101 C 220.065 284.778,219.721 283.476,218.085 280.459 C 217.186 278.803,217.044 277.944,216.788 272.600 C 216.520 267.027,216.412 266.421,215.277 264.086 C 214.605 262.703,213.757 260.633,213.392 259.486 C 211.991 255.076,210.966 253.701,208.450 252.859 C 205.865 251.993,202.634 254.310,201.807 257.622 C 201.641 258.290,202.003 259.956,202.849 262.422 C 205.312 269.593,204.792 275.232,200.953 282.995 C 199.244 286.451,198.936 288.479,199.591 291.954 C 200.151 294.923,199.649 296.718,198.012 297.594 C 197.074 298.095,193.470 297.810,193.273 297.219 C 193.196 296.988,192.707 296.800,192.185 296.800 C 190.151 296.800,185.600 293.758,185.600 292.398 C 185.600 291.479,182.304 286.565,180.575 284.907 C 178.202 282.631,176.937 284.254,176.540 290.087 C 176.023 297.683,171.869 300.765,168.812 295.819 C 168.033 294.560,167.881 293.473,167.477 286.299 C 166.829 274.773,166.908 272.767,168.152 269.170 C 169.546 265.139,169.579 265.283,166.573 262.334 C 162.460 258.302,162.613 255.772,167.216 251.679 C 170.347 248.896,170.452 247.982,168.530 240.200 C 167.383 235.553,166.846 234.582,164.400 232.728 C 161.161 230.273,161.989 228.748,169.066 224.132 C 175.203 220.130,175.397 219.813,175.411 213.800 C 175.419 210.113,175.621 208.305,176.281 206.000 C 176.754 204.350,177.254 202.010,177.393 200.800 C 177.824 197.039,178.483 196.308,180.581 197.264 M283.772 280.769 C 285.582 282.769,284.825 286.687,282.356 288.101 C 277.593 290.828,274.143 287.883,277.184 283.685 C 279.480 280.516,282.381 279.232,283.772 280.769 M368.040 284.804 C 371.621 285.799,371.450 287.884,367.509 291.312 C 366.202 292.448,363.944 295.003,362.489 296.989 C 355.653 306.324,352.446 308.262,351.215 303.800 C 350.393 300.821,349.908 299.887,347.961 297.539 C 342.892 291.425,346.770 286.100,356.800 285.402 C 358.890 285.256,361.320 284.992,362.200 284.814 C 364.504 284.350,366.393 284.347,368.040 284.804 M43.419 305.458 C 45.400 307.596,44.192 309.492,41.111 309.079 C 38.161 308.683,37.126 306.746,39.054 305.229 C 40.524 304.073,42.217 304.161,43.419 305.458 M369.400 316.390 C 381.118 320.050,388.116 332.008,381.444 336.970 C 378.623 339.068,376.590 338.600,373.604 335.167 C 370.030 331.058,368.019 330.684,362.220 333.048 C 358.042 334.752,356.733 334.723,352.000 332.829 C 347.037 330.841,344.962 331.278,341.804 334.975 C 338.651 338.665,336.313 339.248,332.964 337.178 C 328.050 334.141,329.617 326.131,336.050 321.395 C 343.091 316.212,360.477 313.602,369.400 316.390 M43.394 316.017 C 56.160 317.228,61.525 320.044,65.058 327.389 C 69.085 335.758,63.425 341.828,57.691 335.291 C 54.101 331.197,51.753 330.689,46.467 332.859 C 44.432 333.694,42.727 334.118,41.400 334.118 C 40.073 334.118,38.368 333.694,36.333 332.859 C 31.173 330.741,29.437 331.125,25.600 335.234 C 22.559 338.492,21.106 339.005,18.876 337.610 C 13.612 334.319,17.029 325.809,26.030 319.790 C 31.791 315.938,35.063 315.227,43.394 316.017 M367.430 336.994 C 368.366 337.930,368.418 338.206,368.316 341.730 C 368.209 345.427,368.226 345.502,369.687 347.870 C 374.573 355.785,370.710 360.725,362.703 356.800 C 360.267 355.606,358.949 355.200,357.510 355.200 C 356.058 355.200,354.797 355.595,352.400 356.800 C 348.752 358.634,346.690 358.858,345.083 357.594 C 343.085 356.022,342.719 352.035,344.379 349.912 C 346.584 347.092,347.308 344.778,347.038 341.418 C 346.626 336.311,347.867 335.434,353.000 337.200 C 356.088 338.263,358.867 338.209,362.448 337.018 C 366.143 335.789,366.225 335.788,367.430 336.994 M37.136 337.205 C 38.530 337.642,40.449 338.000,41.400 338.000 C 42.351 338.000,44.270 337.642,45.664 337.205 C 51.301 335.438,51.975 335.954,52.109 342.144 C 52.199 346.244,52.222 346.338,53.713 348.501 C 58.774 355.845,54.352 360.935,46.503 356.800 C 42.422 354.650,40.804 354.649,36.558 356.798 C 29.224 360.510,24.734 355.764,29.115 348.931 C 30.610 346.599,31.322 343.689,30.971 341.344 C 30.285 336.769,32.023 335.602,37.136 337.205 M113.843 350.627 C 114.168 351.923,113.483 353.771,112.615 353.939 C 111.703 354.116,111.214 353.349,111.206 351.729 C 111.195 349.394,113.311 348.510,113.843 350.627 M152.347 355.023 C 152.789 355.586,153.462 356.891,153.842 357.923 C 154.222 358.955,154.682 359.971,154.866 360.180 C 155.709 361.139,155.230 364.718,154.146 365.571 C 151.689 367.503,149.875 365.530,148.948 359.919 C 148.281 355.877,150.502 352.678,152.347 355.023 M46.800 361.786 C 48.450 362.497,50.340 363.209,51.000 363.370 C 59.633 365.469,52.014 372.800,41.200 372.800 C 32.271 372.800,22.703 365.996,29.000 364.124 C 31.298 363.442,36.664 361.643,39.000 360.772 C 41.428 359.868,42.742 360.039,46.800 361.786 M360.200 360.651 C 361.080 360.990,363.690 361.927,366.000 362.734 C 371.954 364.812,372.601 365.738,369.951 368.387 C 363.944 374.394,349.447 374.163,344.242 367.977 C 342.182 365.529,342.855 364.376,346.890 363.440 C 348.366 363.098,351.154 362.191,353.087 361.425 C 357.024 359.865,357.908 359.768,360.200 360.651 M388.936 368.776 C 387.463 369.672,386.169 371.325,384.380 374.600 C 382.652 377.764,381.935 378.529,378.557 380.820 C 371.710 385.462,371.550 387.284,377.992 387.242 C 390.064 387.163,398.916 376.527,393.076 369.118 C 392.243 368.061,390.366 367.906,388.936 368.776 " stroke="none" fill="#8b8d86" fill-rule="evenodd"></path><path id="path1" d="M129.441 1.568 C 129.600 2.559,129.363 4.729,128.797 7.468 C 127.694 12.807,127.694 12.817,128.307 33.366 C 129.051 58.326,130.754 72.194,135.783 94.233 C 138.466 105.993,146.739 128.697,152.618 140.436 C 180.056 195.220,237.063 243.226,293.451 259.033 C 320.235 266.540,335.249 268.965,359.000 269.618 C 377.932 270.138,387.072 270.688,392.200 271.616 C 394.620 272.054,397.365 272.524,398.300 272.661 L 400.000 272.909 400.000 195.854 C 400.000 153.474,399.935 118.800,399.856 118.800 C 399.777 118.800,398.382 119.409,396.756 120.153 C 395.130 120.897,392.360 122.022,390.600 122.653 L 387.400 123.800 373.600 123.722 C 355.655 123.620,347.859 122.613,337.000 118.992 C 329.107 116.360,311.191 106.093,304.000 100.080 C 287.986 86.690,276.503 67.275,271.778 45.600 C 269.352 34.475,268.804 29.709,268.802 19.744 C 268.801 13.376,268.624 9.958,268.172 7.578 C 267.827 5.757,267.524 3.307,267.501 2.133 L 267.457 -0.000 262.775 -0.000 C 258.107 -0.000,258.090 0.003,257.376 1.100 C 256.982 1.705,256.377 2.426,256.030 2.703 C 254.387 4.014,250.073 6.715,249.000 7.104 C 239.354 10.603,232.460 14.372,231.661 16.583 C 231.119 18.080,231.049 21.059,231.547 21.368 C 231.739 21.486,232.016 22.337,232.163 23.259 C 232.311 24.185,233.028 25.756,233.765 26.768 C 234.499 27.775,235.236 29.050,235.403 29.600 C 235.571 30.150,235.954 30.955,236.254 31.389 C 236.626 31.927,236.800 33.449,236.800 36.176 C 236.800 40.992,237.385 42.820,240.013 46.217 C 242.973 50.043,243.945 52.400,243.982 55.840 C 244.005 57.981,244.679 59.862,245.525 60.148 C 247.983 60.980,254.750 66.462,254.791 67.654 C 254.813 68.286,258.167 72.868,259.129 73.581 C 264.202 77.338,266.556 79.967,268.459 84.000 C 271.358 90.146,272.057 91.463,273.008 92.570 C 273.524 93.171,274.544 94.411,275.274 95.325 C 278.009 98.754,280.261 100.929,283.275 103.053 C 286.405 105.259,289.200 108.189,289.200 109.265 C 289.200 109.585,289.464 110.196,289.787 110.624 C 290.110 111.051,290.380 111.974,290.387 112.676 C 290.394 113.378,290.580 114.064,290.800 114.200 C 291.020 114.336,291.203 114.842,291.206 115.324 C 291.213 116.400,292.146 119.135,293.234 121.267 C 294.019 122.804,294.546 123.489,297.636 126.978 C 301.262 131.074,301.886 133.024,300.395 135.606 C 296.090 143.065,297.707 147.214,304.037 144.946 C 306.473 144.072,308.687 144.452,309.212 145.832 C 309.419 146.376,309.861 146.925,310.194 147.053 C 310.527 147.181,310.800 147.566,310.800 147.909 C 310.800 150.238,316.714 156.800,318.813 156.800 C 319.860 156.800,323.330 159.052,324.781 160.673 C 327.166 163.338,326.916 165.734,324.200 166.235 C 323.980 166.276,323.152 166.414,322.361 166.543 C 321.569 166.671,320.122 167.119,319.145 167.538 C 318.168 167.957,316.790 168.426,316.084 168.582 C 315.378 168.737,314.800 169.027,314.800 169.226 C 314.800 169.775,309.154 172.453,307.922 172.489 C 305.697 172.554,303.766 170.161,303.009 166.400 C 302.254 162.650,299.326 160.590,297.367 162.431 C 296.072 163.647,296.099 165.712,297.451 168.912 C 298.937 172.428,298.873 175.603,297.233 179.600 C 296.556 181.250,296.002 182.915,296.001 183.300 C 296.001 183.685,295.820 184.000,295.600 184.000 C 295.380 184.000,295.200 184.248,295.200 184.551 C 295.200 184.854,294.930 185.326,294.600 185.600 C 294.270 185.874,294.000 186.702,294.000 187.440 C 294.000 190.144,289.669 190.876,285.687 188.844 C 284.777 188.380,283.655 188.000,283.195 188.000 C 282.625 188.000,282.225 187.618,281.940 186.800 C 281.394 185.235,279.532 185.181,275.710 186.619 C 273.573 187.424,272.809 187.550,272.082 187.219 C 271.576 186.989,270.731 186.800,270.205 186.800 C 269.678 186.800,269.148 186.640,269.027 186.444 C 268.906 186.249,268.334 185.970,267.755 185.824 C 266.765 185.576,265.226 184.157,261.366 179.936 C 260.467 178.953,258.577 177.268,257.166 176.192 C 254.247 173.967,252.885 172.556,252.542 171.400 C 251.781 168.835,248.088 167.281,245.707 168.524 C 242.914 169.983,242.145 170.195,239.957 170.112 C 236.760 169.990,231.604 166.634,231.601 164.673 C 231.599 163.614,228.036 159.765,224.600 157.111 C 221.622 154.810,219.476 152.632,216.600 148.991 C 215.720 147.876,214.685 146.613,214.299 146.182 C 211.275 142.804,210.864 142.155,209.991 139.371 C 208.995 136.196,207.217 133.671,205.289 132.698 C 199.311 129.677,198.045 127.745,197.510 120.828 C 197.296 118.062,196.973 115.708,196.792 115.596 C 196.611 115.484,196.330 114.854,196.166 114.196 C 196.002 113.538,195.576 112.550,195.218 112.000 C 194.125 110.319,193.615 109.444,193.120 108.400 C 192.859 107.850,192.428 107.130,192.163 106.800 C 191.674 106.191,190.305 103.848,189.338 101.965 C 189.045 101.395,188.445 100.602,188.003 100.203 C 187.561 99.803,187.200 99.265,187.200 99.008 C 187.200 98.750,186.750 98.117,186.200 97.600 C 185.650 97.083,185.200 96.332,185.200 95.930 C 185.200 95.529,185.034 95.200,184.831 95.200 C 184.016 95.200,183.436 92.013,183.409 87.391 C 183.384 83.171,183.273 82.412,182.508 81.191 C 179.741 76.776,178.989 71.865,180.599 68.712 C 182.141 65.692,181.748 61.076,179.742 58.669 C 178.626 57.330,178.519 55.430,179.438 53.287 C 181.740 47.920,181.928 46.479,180.795 42.864 C 180.082 40.591,180.000 39.187,180.000 29.297 C 180.000 15.799,179.717 13.728,177.668 12.236 C 175.379 10.569,171.044 8.036,169.200 7.287 C 166.210 6.074,164.930 5.523,164.305 5.181 C 163.923 4.971,163.293 4.798,162.905 4.795 C 162.517 4.792,160.670 4.254,158.800 3.600 C 156.930 2.946,154.911 2.408,154.314 2.405 C 153.683 2.402,152.655 1.897,151.861 1.200 L 150.494 -0.000 139.842 -0.000 L 129.191 -0.000 129.441 1.568 M0.000 395.400 L 0.000 400.000 10.500 399.984 C 20.064 399.970,20.880 399.917,19.654 399.384 C 18.914 399.063,17.327 398.800,16.128 398.800 C 14.929 398.800,13.578 398.602,13.125 398.360 C 12.547 398.050,12.383 398.048,12.571 398.353 C 13.016 399.073,5.985 394.861,4.027 393.234 C 2.307 391.806,0.737 390.800,0.226 390.800 C 0.102 390.800,0.000 392.870,0.000 395.400 M398.522 392.783 C 397.819 393.211,396.947 394.015,396.584 394.569 C 396.221 395.122,394.906 396.092,393.662 396.723 C 392.418 397.355,390.680 398.305,389.800 398.836 L 388.200 399.800 393.955 399.911 C 400.787 400.043,400.055 400.541,399.915 395.854 L 399.800 392.005 398.522 392.783 M28.200 399.600 C 27.248 399.842,27.522 399.915,29.524 399.953 C 31.115 399.983,31.956 399.852,31.800 399.600 C 31.520 399.147,29.979 399.147,28.200 399.600 " stroke="none" fill="#222221" fill-rule="evenodd"></path><path id="path2" d="M10.000 0.384 C 10.000 2.349,13.017 2.905,20.540 2.324 C 25.232 1.961,27.374 1.974,30.740 2.384 C 34.954 2.897,44.690 3.079,82.400 3.349 C 106.882 3.524,116.956 2.820,119.654 0.745 C 120.570 0.041,118.834 0.018,65.300 0.009 C 30.188 0.003,10.000 0.140,10.000 0.384 M277.680 0.900 C 279.165 3.214,284.787 4.370,288.803 3.189 C 289.603 2.953,297.032 2.696,306.200 2.587 C 315.000 2.482,323.597 2.208,325.304 1.979 C 327.465 1.688,329.097 1.688,330.677 1.980 C 336.200 3.001,344.297 2.368,346.348 0.755 C 347.291 0.013,346.688 -0.000,312.205 -0.000 L 277.102 0.000 277.680 0.900 M36.092 16.440 C 30.249 17.321,23.413 21.388,21.987 24.832 C 21.199 26.734,21.804 27.015,25.378 26.404 C 29.042 25.777,31.614 26.018,35.712 27.372 C 39.715 28.694,40.806 28.667,45.294 27.135 C 48.328 26.099,49.716 25.853,52.948 25.781 C 58.190 25.663,58.623 24.930,55.527 21.412 C 52.085 17.501,43.543 15.316,36.092 16.440 M353.416 319.245 C 346.138 320.305,339.200 324.270,339.200 327.368 C 339.200 328.554,339.716 328.750,341.790 328.347 C 345.183 327.689,348.463 327.963,352.000 329.200 C 356.378 330.731,358.516 330.731,362.935 329.200 C 365.929 328.163,366.968 328.000,370.599 328.000 C 375.345 328.000,375.674 327.708,373.994 324.990 C 371.113 320.329,362.493 317.922,353.416 319.245 M34.500 319.818 C 30.536 320.886,27.013 323.255,25.746 325.705 C 24.881 327.378,25.384 327.677,29.334 327.834 C 31.756 327.930,33.785 328.317,36.417 329.184 C 41.011 330.698,41.896 330.697,46.494 329.168 C 49.235 328.256,51.123 327.900,53.747 327.801 C 57.997 327.639,58.465 327.326,57.400 325.348 C 55.047 320.978,41.944 317.814,34.500 319.818 " stroke="none" fill="#d9ded9" fill-rule="evenodd"></path><path id="path3" d="M128.000 1.956 C 128.000 3.032,127.629 5.687,127.175 7.856 C 125.554 15.610,127.015 53.168,129.629 70.925 C 131.442 83.245,135.456 100.625,138.333 108.609 C 150.579 142.597,155.784 152.325,176.422 179.800 C 187.365 194.369,211.297 216.786,228.800 228.863 C 268.185 256.038,312.532 269.942,363.200 271.003 C 376.631 271.284,383.628 271.754,390.210 272.817 C 397.908 274.060,400.000 274.215,400.000 273.541 C 400.000 273.128,398.853 272.765,395.900 272.241 C 387.278 270.712,383.353 270.388,369.000 270.015 C 335.835 269.155,322.801 267.260,293.451 259.033 C 248.551 246.446,200.648 211.853,171.551 171.000 C 156.690 150.135,151.400 140.211,143.296 118.000 C 139.760 108.308,137.007 99.598,135.783 94.233 C 130.752 72.182,129.049 58.317,128.310 33.366 C 127.686 12.343,127.672 13.108,128.781 7.553 C 129.755 2.673,129.685 0.000,128.582 0.000 C 128.152 0.000,128.000 0.511,128.000 1.956 M151.906 1.212 C 152.680 1.915,153.659 2.402,154.306 2.405 C 154.908 2.408,156.930 2.946,158.800 3.600 C 160.670 4.254,162.517 4.792,162.905 4.795 C 163.293 4.798,163.923 4.971,164.305 5.181 C 164.930 5.523,166.210 6.074,169.200 7.287 C 171.044 8.036,175.379 10.569,177.668 12.236 C 179.717 13.728,180.000 15.799,180.000 29.297 C 180.000 39.187,180.082 40.591,180.795 42.864 C 181.928 46.479,181.740 47.920,179.438 53.287 C 178.519 55.430,178.626 57.330,179.742 58.669 C 181.748 61.076,182.141 65.692,180.599 68.712 C 178.989 71.865,179.741 76.776,182.508 81.191 C 183.273 82.412,183.384 83.171,183.409 87.391 C 183.436 92.013,184.016 95.200,184.831 95.200 C 185.034 95.200,185.200 95.529,185.200 95.930 C 185.200 96.332,185.650 97.083,186.200 97.600 C 186.750 98.117,187.200 98.750,187.200 99.008 C 187.200 99.265,187.561 99.803,188.003 100.203 C 188.445 100.602,189.045 101.395,189.338 101.965 C 190.305 103.848,191.674 106.191,192.163 106.800 C 192.428 107.130,192.859 107.850,193.120 108.400 C 193.615 109.444,194.125 110.319,195.218 112.000 C 195.576 112.550,196.002 113.538,196.166 114.196 C 196.330 114.854,196.611 115.484,196.792 115.596 C 196.973 115.708,197.296 118.062,197.510 120.828 C 198.045 127.745,199.311 129.677,205.289 132.698 C 207.217 133.671,208.995 136.196,209.991 139.371 C 210.864 142.155,211.275 142.804,214.299 146.182 C 214.685 146.613,215.720 147.876,216.600 148.991 C 219.476 152.632,221.622 154.810,224.600 157.111 C 228.036 159.765,231.599 163.614,231.601 164.673 C 231.604 166.634,236.760 169.990,239.957 170.112 C 242.145 170.195,242.914 169.983,245.707 168.524 C 248.088 167.281,251.781 168.835,252.542 171.400 C 252.885 172.556,254.247 173.967,257.166 176.192 C 258.577 177.268,260.467 178.953,261.366 179.936 C 265.226 184.157,266.765 185.576,267.755 185.824 C 268.334 185.970,268.906 186.249,269.027 186.444 C 269.148 186.640,269.678 186.800,270.205 186.800 C 270.731 186.800,271.576 186.989,272.082 187.219 C 272.809 187.550,273.573 187.424,275.710 186.619 C 279.532 185.181,281.394 185.235,281.940 186.800 C 282.225 187.618,282.625 188.000,283.195 188.000 C 283.655 188.000,284.777 188.380,285.687 188.844 C 289.669 190.876,294.000 190.144,294.000 187.440 C 294.000 186.702,294.270 185.874,294.600 185.600 C 294.930 185.326,295.200 184.854,295.200 184.551 C 295.200 184.248,295.380 184.000,295.600 184.000 C 295.820 184.000,296.001 183.685,296.001 183.300 C 296.002 182.915,296.556 181.250,297.233 179.600 C 298.873 175.603,298.937 172.428,297.451 168.912 C 296.099 165.712,296.072 163.647,297.367 162.431 C 299.326 160.590,302.254 162.650,303.009 166.400 C 303.766 170.161,305.697 172.554,307.922 172.489 C 309.154 172.453,314.800 169.775,314.800 169.226 C 314.800 169.027,315.378 168.737,316.084 168.582 C 316.790 168.426,318.168 167.957,319.145 167.538 C 320.122 167.119,321.569 166.671,322.361 166.543 C 323.152 166.414,323.980 166.276,324.200 166.235 C 326.916 165.734,327.166 163.338,324.781 160.673 C 323.330 159.052,319.860 156.800,318.813 156.800 C 316.714 156.800,310.800 150.238,310.800 147.909 C 310.800 147.566,310.527 147.181,310.194 147.053 C 309.861 146.925,309.419 146.376,309.212 145.832 C 308.687 144.452,306.473 144.072,304.037 144.946 C 297.707 147.214,296.090 143.065,300.395 135.606 C 301.886 133.024,301.262 131.074,297.636 126.978 C 294.546 123.489,294.019 122.804,293.234 121.267 C 292.146 119.135,291.213 116.400,291.206 115.324 C 291.203 114.842,291.020 114.336,290.800 114.200 C 290.580 114.064,290.394 113.378,290.387 112.676 C 290.380 111.974,290.110 111.051,289.787 110.624 C 289.464 110.196,289.200 109.585,289.200 109.265 C 289.200 108.189,286.405 105.259,283.275 103.053 C 280.261 100.929,278.009 98.754,275.274 95.325 C 274.544 94.411,273.524 93.171,273.008 92.570 C 272.057 91.463,271.358 90.146,268.459 84.000 C 266.556 79.967,264.202 77.338,259.129 73.581 C 258.167 72.868,254.813 68.286,254.791 67.654 C 254.750 66.462,247.983 60.980,245.525 60.148 C 244.679 59.862,244.005 57.981,243.982 55.840 C 243.945 52.400,242.973 50.043,240.013 46.217 C 237.385 42.820,236.800 40.992,236.800 36.176 C 236.800 33.449,236.626 31.927,236.254 31.389 C 235.954 30.955,235.571 30.150,235.403 29.600 C 235.236 29.050,234.499 27.775,233.765 26.768 C 233.028 25.756,232.311 24.185,232.163 23.259 C 232.016 22.337,231.739 21.486,231.547 21.368 C 231.049 21.059,231.119 18.080,231.661 16.583 C 232.460 14.372,239.354 10.603,249.000 7.104 C 250.073 6.715,254.387 4.014,256.030 2.703 C 256.377 2.426,256.982 1.705,257.376 1.100 L 258.092 0.000 254.869 0.000 C 252.187 0.000,251.558 0.124,251.123 0.740 C 250.415 1.743,248.643 2.593,246.000 3.197 C 244.790 3.474,242.720 4.048,241.400 4.474 C 233.048 7.168,231.986 7.323,222.005 7.313 C 216.361 7.308,212.361 7.128,211.287 6.833 C 210.261 6.551,205.288 6.292,198.887 6.188 C 187.405 6.002,185.016 5.817,182.952 4.954 C 182.222 4.649,181.170 4.400,180.613 4.400 C 180.056 4.400,179.600 4.245,179.600 4.055 C 179.600 3.865,178.475 3.493,177.100 3.229 C 175.725 2.965,174.060 2.502,173.400 2.199 C 168.368 -0.109,169.055 -0.001,159.522 0.012 L 150.600 0.023 151.906 1.212 M267.546 0.700 C 267.425 2.258,267.664 4.765,268.217 7.744 C 268.615 9.891,268.801 13.697,268.802 19.744 C 268.805 36.888,271.591 49.832,278.807 66.240 C 282.826 75.378,284.297 77.886,290.102 85.496 C 300.508 99.136,320.698 113.557,337.000 118.992 C 347.859 122.613,355.655 123.620,373.600 123.722 L 387.400 123.800 390.600 122.651 C 392.360 122.019,395.195 120.869,396.900 120.095 L 400.000 118.689 400.000 82.321 C 400.000 58.177,399.866 46.036,399.600 46.200 C 399.380 46.336,399.200 46.797,399.200 47.224 C 399.200 47.651,399.039 48.000,398.843 48.000 C 398.424 48.000,398.351 48.168,396.511 53.400 L 395.104 57.400 395.167 64.554 C 395.201 68.488,395.407 72.040,395.625 72.446 C 396.381 73.859,396.639 79.321,396.134 83.218 C 395.459 88.434,395.489 95.862,396.205 100.400 C 398.567 115.372,398.251 116.675,391.454 119.998 C 386.790 122.277,385.088 122.438,370.200 122.004 C 354.014 121.531,350.695 121.069,339.600 117.741 C 334.842 116.314,321.276 109.406,314.600 105.011 C 299.728 95.220,288.649 82.644,281.851 67.836 C 273.620 49.911,270.295 35.182,270.441 17.302 C 270.488 11.558,270.345 9.097,269.831 6.800 C 269.461 5.150,269.138 2.945,269.111 1.900 C 269.063 -0.014,267.683 -1.072,267.546 0.700 M398.000 0.584 C 398.000 0.906,398.405 1.548,398.900 2.012 L 399.800 2.855 399.932 1.998 C 400.004 1.527,399.965 0.885,399.844 0.571 C 399.556 -0.180,398.000 -0.169,398.000 0.584 M398.900 17.291 C 398.140 18.102,398.000 18.697,398.000 21.113 C 398.000 23.307,398.210 24.375,398.900 25.688 L 399.800 27.400 399.918 24.482 C 399.983 22.878,399.983 20.387,399.918 18.947 L 399.800 16.330 398.900 17.291 M217.971 76.600 C 218.801 77.429,218.821 83.500,217.999 84.600 C 216.228 86.967,213.887 84.375,213.844 80.000 C 213.803 75.860,215.683 74.311,217.971 76.600 M230.800 105.966 C 235.562 106.275,236.780 106.668,237.576 108.155 C 238.199 109.319,240.866 109.678,241.480 108.680 C 242.497 107.029,246.696 106.141,249.200 107.049 C 252.271 108.162,255.230 114.331,253.922 116.894 C 253.555 117.612,253.131 118.635,252.979 119.166 C 252.197 121.911,246.956 124.634,245.600 123.000 C 245.326 122.670,244.740 122.400,244.297 122.400 C 243.494 122.400,241.600 120.700,241.600 119.979 C 241.600 119.421,240.505 119.517,240.233 120.100 C 240.047 120.500,239.953 120.500,239.767 120.100 C 239.638 119.825,239.293 119.600,239.000 119.600 C 238.707 119.600,238.405 119.416,238.330 119.191 C 238.075 118.426,235.714 119.232,235.254 120.241 C 234.524 121.843,232.092 121.332,229.826 119.100 C 229.101 118.385,227.311 116.636,225.849 115.213 C 222.868 112.311,221.332 109.273,222.103 107.800 C 222.973 106.137,224.455 105.112,225.559 105.411 C 226.131 105.567,228.490 105.816,230.800 105.966 M237.058 125.151 C 238.623 126.729,239.200 127.492,239.200 127.983 C 239.200 128.212,239.447 128.400,239.750 128.400 C 240.573 128.400,241.161 132.193,240.575 133.721 C 240.380 134.230,240.109 134.234,238.501 133.750 C 237.483 133.444,236.349 133.289,235.981 133.406 C 235.538 133.547,234.800 133.054,233.811 131.959 C 230.369 128.150,233.507 121.572,237.058 125.151 M-0.000 388.364 C -0.000 390.389,0.119 390.784,0.794 390.998 C 1.231 391.137,2.574 392.053,3.778 393.034 C 8.228 396.659,12.238 398.607,15.542 398.749 C 17.160 398.819,19.089 399.129,19.829 399.438 C 21.464 400.121,25.445 400.165,28.583 399.535 C 30.342 399.182,31.078 399.181,31.643 399.534 C 32.205 399.885,75.899 399.999,210.202 399.999 L 388.016 400.000 389.708 398.914 C 390.639 398.317,392.225 397.439,393.232 396.964 C 394.240 396.488,395.863 395.312,396.840 394.350 C 397.816 393.387,398.938 392.420,399.333 392.200 C 399.916 391.875,400.028 391.385,399.926 389.600 L 399.800 387.400 397.200 389.808 C 392.382 394.271,389.092 395.811,383.590 396.182 C 363.546 397.532,321.961 397.953,310.000 396.926 C 303.696 396.384,301.415 396.361,294.600 396.768 C 289.677 397.062,277.599 397.215,263.200 397.166 C 247.677 397.114,238.379 397.243,235.578 397.549 C 232.555 397.880,229.772 397.898,225.776 397.613 C 222.707 397.393,210.837 397.204,199.398 397.191 C 186.374 397.177,177.553 397.004,175.800 396.729 C 173.555 396.377,172.048 396.417,168.200 396.935 C 164.287 397.461,161.331 397.533,152.200 397.327 C 140.581 397.066,138.997 397.057,130.000 397.210 C 127.030 397.261,123.880 397.184,123.000 397.038 C 119.107 396.395,94.470 396.231,88.800 396.810 C 86.710 397.024,79.960 397.180,73.800 397.157 C 67.640 397.134,61.970 397.229,61.200 397.367 C 60.430 397.504,58.810 397.427,57.600 397.194 C 55.260 396.744,33.084 395.877,26.935 395.995 C 23.767 396.056,21.091 395.805,15.800 394.952 C 12.474 394.416,9.632 393.012,5.422 389.825 C 3.650 388.484,1.705 387.071,1.100 386.684 L 0.000 385.982 -0.000 388.364 " stroke="none" fill="#3c3c38" fill-rule="evenodd"></path><path id="path4" d="M5.844 2.605 C 5.336 7.562,8.715 9.609,15.600 8.513 C 23.643 7.233,31.200 7.592,31.200 9.254 C 31.200 9.444,31.470 9.600,31.800 9.600 C 33.829 9.600,31.731 11.990,27.586 14.401 C 14.221 22.177,10.531 26.752,12.952 32.546 C 14.965 37.365,20.011 37.571,24.497 33.018 C 28.572 28.881,29.592 28.768,37.376 31.597 C 40.130 32.598,41.091 32.500,45.395 30.777 C 50.684 28.659,52.447 29.047,56.403 33.202 C 59.276 36.220,60.471 36.745,62.843 36.034 C 67.372 34.677,69.891 29.707,67.964 25.930 C 67.029 24.096,67.178 24.254,60.623 18.200 C 54.189 12.259,54.400 12.475,54.400 11.819 C 54.400 10.370,79.845 9.325,89.000 10.399 C 91.063 10.640,93.479 10.630,95.800 10.369 C 103.956 9.453,108.424 9.450,110.715 10.360 C 114.192 11.741,115.601 11.378,118.307 8.400 C 119.599 6.979,122.302 2.403,122.619 1.100 C 122.996 -0.448,121.854 -0.380,121.206 1.185 C 120.004 4.088,116.554 5.674,111.670 5.569 C 109.541 5.523,105.121 5.722,101.847 6.011 C 97.046 6.435,94.761 6.442,90.047 6.047 C 85.932 5.703,82.681 5.669,79.072 5.932 C 71.815 6.461,37.633 5.795,33.405 5.042 C 28.490 4.166,24.534 3.970,20.800 4.415 C 13.484 5.288,12.259 5.319,10.708 4.671 C 9.199 4.040,7.604 2.002,7.601 0.700 C 7.597 -1.514,6.099 0.108,5.844 2.605 M274.400 0.620 C 274.400 1.496,275.322 3.179,278.461 8.039 C 281.454 12.671,281.560 13.121,280.552 16.942 C 279.531 20.814,279.922 27.254,281.647 35.000 C 282.165 37.324,283.976 41.109,285.522 43.098 C 286.115 43.860,287.860 46.563,289.400 49.105 C 292.459 54.152,293.318 54.851,294.919 53.592 C 297.402 51.639,297.994 48.443,297.399 40.200 C 297.056 35.444,296.646 34.694,293.080 32.292 C 289.930 30.171,288.828 26.548,289.847 21.665 C 290.260 19.686,290.409 17.645,290.267 15.905 C 289.937 11.855,290.780 11.261,297.567 10.755 C 301.990 10.426,303.255 10.234,309.200 8.987 C 315.660 7.631,321.973 7.176,336.226 7.037 C 342.341 6.978,344.614 6.791,348.027 6.067 C 353.489 4.909,359.993 4.518,367.000 4.926 C 377.760 5.552,384.428 4.092,385.384 0.900 C 385.668 -0.047,382.737 -0.507,381.780 0.334 C 380.130 1.783,374.005 2.846,369.989 2.380 C 367.402 2.080,354.091 2.214,350.000 2.582 C 349.230 2.651,347.520 3.021,346.200 3.404 C 344.173 3.993,341.748 4.117,330.600 4.204 C 323.340 4.261,314.910 4.512,311.866 4.761 C 308.822 5.011,303.190 5.299,299.350 5.401 C 294.749 5.523,291.521 5.808,289.884 6.236 C 283.382 7.936,278.416 6.062,275.631 0.858 C 275.096 -0.141,274.400 -0.276,274.400 0.620 M48.600 14.975 C 56.432 17.097,64.808 25.571,63.215 29.761 C 62.414 31.868,60.387 31.776,56.825 29.473 C 53.192 27.124,49.982 26.935,45.367 28.798 C 41.306 30.438,39.526 30.449,34.953 28.864 C 29.610 27.013,27.907 27.186,23.508 30.028 C 17.182 34.116,13.723 29.354,18.922 23.714 C 26.221 15.795,38.396 12.210,48.600 14.975 M109.885 29.353 C 107.192 32.090,106.804 32.340,104.590 32.769 C 103.275 33.023,101.812 33.314,101.338 33.414 C 98.541 34.005,95.302 38.603,94.016 43.807 C 92.713 49.081,91.915 49.817,86.876 50.391 C 80.466 51.122,77.747 54.213,75.596 63.214 C 73.929 70.187,73.757 70.560,70.685 73.914 C 69.098 75.647,67.170 78.183,66.400 79.552 C 62.404 86.653,61.971 86.911,54.600 86.574 C 49.829 86.355,48.360 86.442,44.680 87.159 C 35.254 88.994,27.217 87.184,21.097 81.845 C 14.574 76.157,11.916 74.935,10.560 77.004 C 9.714 78.296,9.988 91.076,10.952 95.240 C 11.288 96.692,11.758 99.482,11.997 101.440 C 12.236 103.398,12.791 106.297,13.232 107.882 C 13.672 109.468,14.209 112.322,14.425 114.226 C 14.991 119.207,15.043 119.261,19.800 119.840 C 22.765 120.201,23.022 120.361,24.695 122.886 C 27.681 127.393,30.236 129.351,34.805 130.634 C 38.886 131.778,41.600 135.303,41.600 139.458 C 41.600 142.292,44.770 147.694,46.973 148.614 C 48.385 149.204,56.464 150.111,57.800 149.830 C 58.240 149.737,58.729 149.647,58.886 149.631 C 59.798 149.533,62.168 146.763,63.213 144.572 C 65.333 140.130,66.185 139.955,70.837 143.007 C 80.646 149.444,84.411 148.056,86.591 137.200 C 88.120 129.583,90.685 126.802,96.684 126.254 C 99.639 125.984,101.043 125.015,102.260 122.404 C 102.825 121.192,103.559 119.613,103.892 118.895 C 104.750 117.041,106.455 115.746,110.703 113.720 C 114.228 112.040,114.512 111.808,116.384 109.076 C 117.468 107.494,119.171 105.106,120.169 103.768 C 122.474 100.680,123.200 98.926,123.200 96.451 C 123.200 93.155,122.041 84.290,121.012 79.715 C 120.478 77.342,119.849 73.060,119.613 70.200 C 119.378 67.340,119.070 64.460,118.929 63.800 C 118.788 63.140,118.643 58.460,118.607 53.400 C 118.553 45.754,118.395 43.457,117.671 39.800 C 117.193 37.380,116.513 33.873,116.162 32.007 C 114.965 25.657,113.945 25.226,109.885 29.353 M36.600 59.038 C 34.381 59.981,31.811 60.877,27.800 62.109 C 23.018 63.577,28.139 69.372,35.492 70.813 C 45.494 72.773,59.400 65.479,51.709 62.307 C 50.879 61.965,48.198 60.856,45.750 59.843 C 40.623 57.720,39.863 57.653,36.600 59.038 M43.664 62.026 C 48.501 63.896,49.280 65.988,45.705 67.506 C 38.638 70.508,28.064 66.895,33.631 63.380 C 37.300 61.064,40.174 60.676,43.664 62.026 M105.795 95.100 C 106.012 95.595,106.507 96.000,106.895 96.000 C 107.860 96.000,107.805 97.395,106.800 98.400 C 105.231 99.969,102.000 98.892,102.000 96.800 C 102.000 96.360,102.267 96.000,102.592 96.000 C 102.918 96.000,103.300 95.540,103.441 94.979 C 103.763 93.698,105.212 93.773,105.795 95.100 M129.610 121.190 C 127.801 122.999,128.065 126.217,130.394 130.741 C 132.289 134.421,132.310 134.631,130.969 136.422 C 127.292 141.335,127.483 142.715,132.821 149.857 C 136.253 154.447,137.103 155.184,138.632 154.892 C 141.177 154.405,140.188 145.460,137.028 140.388 C 133.777 135.171,133.744 135.065,134.621 132.682 C 136.897 126.497,133.073 117.727,129.610 121.190 M169.613 187.900 C 169.604 188.795,169.787 189.200,170.200 189.200 C 170.963 189.200,170.969 188.376,170.213 187.376 C 169.657 186.642,169.625 186.670,169.613 187.900 M178.090 197.700 C 177.845 198.195,177.531 199.590,177.393 200.800 C 177.254 202.010,176.754 204.350,176.281 206.000 C 175.621 208.305,175.419 210.113,175.411 213.800 C 175.397 219.813,175.203 220.130,169.066 224.132 C 161.989 228.748,161.161 230.273,164.400 232.728 C 166.846 234.582,167.383 235.553,168.530 240.200 C 170.452 247.982,170.347 248.896,167.216 251.679 C 162.613 255.772,162.460 258.302,166.573 262.334 C 169.579 265.283,169.546 265.139,168.152 269.170 C 166.908 272.767,166.829 274.773,167.477 286.299 C 167.881 293.473,168.033 294.560,168.812 295.819 C 171.869 300.765,176.023 297.683,176.540 290.087 C 176.937 284.254,178.202 282.631,180.575 284.907 C 182.304 286.565,185.600 291.479,185.600 292.398 C 185.600 293.758,190.151 296.800,192.185 296.800 C 192.707 296.800,193.196 296.988,193.273 297.219 C 193.470 297.810,197.074 298.095,198.012 297.594 C 199.649 296.718,200.151 294.923,199.591 291.954 C 198.936 288.479,199.244 286.451,200.953 282.995 C 204.792 275.232,205.312 269.593,202.849 262.422 C 202.003 259.956,201.641 258.290,201.807 257.622 C 202.634 254.310,205.865 251.993,208.450 252.859 C 210.966 253.701,211.991 255.076,213.392 259.486 C 213.757 260.633,214.605 262.703,215.277 264.086 C 216.412 266.421,216.520 267.027,216.788 272.600 C 217.044 277.944,217.186 278.803,218.085 280.459 C 219.721 283.476,220.065 284.778,220.365 289.101 C 220.900 296.788,226.697 297.240,229.321 289.800 C 231.458 283.743,233.201 282.271,237.172 283.169 C 243.136 284.517,243.415 284.491,245.521 282.385 C 247.169 280.737,247.935 278.922,250.413 270.800 C 253.274 261.423,254.566 260.682,263.267 263.433 C 266.639 264.499,268.799 264.923,271.700 265.091 C 273.845 265.215,275.600 265.438,275.600 265.586 C 275.600 265.734,276.514 266.104,277.630 266.408 C 279.343 266.875,280.041 267.390,282.089 269.701 C 285.190 273.198,285.721 273.449,291.663 274.233 C 299.078 275.212,308.266 274.602,307.393 273.189 C 306.236 271.316,293.819 266.896,284.433 265.016 C 279.089 263.946,277.024 263.248,273.600 261.357 C 272.610 260.810,267.120 258.050,261.400 255.223 C 245.212 247.223,224.987 234.733,214.888 226.499 C 201.679 215.729,198.552 213.036,193.200 207.826 C 187.549 202.323,182.900 198.400,182.030 198.400 C 181.794 198.400,181.600 198.249,181.600 198.064 C 181.600 197.681,179.821 196.800,179.049 196.800 C 178.766 196.800,178.335 197.205,178.090 197.700 M279.877 281.025 C 274.950 284.373,274.743 289.823,279.573 289.051 C 283.125 288.483,285.098 286.238,284.694 283.226 C 284.264 280.017,282.528 279.224,279.877 281.025 M352.200 315.756 C 341.326 317.838,335.419 320.572,332.509 324.870 C 326.061 334.393,334.481 343.547,341.804 334.975 C 344.962 331.278,347.037 330.841,352.000 332.829 C 356.733 334.723,358.042 334.752,362.220 333.048 C 368.019 330.684,370.030 331.058,373.604 335.167 C 379.391 341.821,386.858 335.556,383.005 327.280 C 378.813 318.275,365.351 313.239,352.200 315.756 M34.561 316.035 C 26.657 317.357,16.400 326.584,16.400 332.371 C 16.400 338.688,21.030 340.129,25.600 335.234 C 29.437 331.125,31.173 330.741,36.333 332.859 C 38.368 333.694,40.073 334.118,41.400 334.118 C 42.727 334.118,44.432 333.694,46.467 332.859 C 51.753 330.689,54.101 331.197,57.691 335.291 C 60.193 338.143,61.388 338.666,63.439 337.810 C 69.412 335.314,65.511 323.151,57.474 319.212 C 52.351 316.701,40.446 315.050,34.561 316.035 M364.986 317.796 C 374.347 319.463,383.333 328.700,379.548 332.764 C 378.471 333.920,377.070 333.700,374.577 331.984 C 370.521 329.194,367.608 328.907,362.800 330.824 C 358.276 332.627,357.160 332.678,353.284 331.259 C 347.143 329.009,345.116 329.161,340.813 332.191 C 336.815 335.006,333.994 334.283,334.004 330.446 C 334.025 322.165,350.881 315.283,364.986 317.796 M44.400 318.004 C 55.347 319.388,61.390 323.149,62.815 329.465 C 63.607 332.980,61.650 333.735,57.781 331.405 C 54.033 329.149,50.815 329.034,46.071 330.988 C 42.676 332.387,40.822 332.352,36.361 330.808 C 31.305 329.058,29.180 329.195,25.330 331.522 C 18.471 335.666,17.486 330.255,23.969 324.046 C 29.720 318.536,35.379 316.863,44.400 318.004 M39.000 360.772 C 36.664 361.643,31.298 363.442,29.000 364.124 C 22.703 365.996,32.271 372.800,41.200 372.800 C 52.014 372.800,59.633 365.469,51.000 363.370 C 50.340 363.209,48.450 362.497,46.800 361.786 C 42.742 360.039,41.428 359.868,39.000 360.772 M353.087 361.425 C 351.154 362.191,348.366 363.098,346.890 363.440 C 342.855 364.376,342.182 365.529,344.242 367.977 C 349.447 374.163,363.944 374.394,369.951 368.387 C 372.601 365.738,371.954 364.812,366.000 362.734 C 363.690 361.927,361.080 360.990,360.200 360.651 C 357.908 359.768,357.024 359.865,353.087 361.425 M44.014 363.597 C 46.505 364.289,49.271 366.294,49.127 367.302 C 48.547 371.356,33.600 371.289,33.600 367.233 C 33.600 364.983,40.425 362.600,44.014 363.597 M361.405 364.036 C 366.044 365.772,366.688 367.517,363.298 369.165 C 356.917 372.268,345.242 368.747,350.875 365.419 C 354.783 363.111,357.854 362.708,361.405 364.036 " stroke="none" fill="#b4b4b4" fill-rule="evenodd"></path><path id="path5" d="M7.601 0.700 C 7.604 2.002,9.199 4.040,10.708 4.671 C 12.259 5.319,13.484 5.288,20.800 4.415 C 24.534 3.970,28.490 4.166,33.405 5.042 C 37.633 5.795,71.815 6.461,79.072 5.932 C 82.681 5.669,85.932 5.703,90.047 6.047 C 94.761 6.442,97.046 6.435,101.847 6.011 C 105.121 5.722,109.541 5.523,111.670 5.569 C 116.422 5.671,119.595 4.300,121.039 1.520 C 121.964 -0.260,121.496 -0.529,119.662 0.727 C 115.761 3.400,107.123 3.687,49.400 3.059 C 41.119 2.969,33.191 2.683,30.744 2.385 C 27.368 1.973,25.216 1.962,20.344 2.330 C 13.013 2.884,10.749 2.529,10.180 0.736 C 9.860 -0.273,7.599 -0.304,7.601 0.700 M275.631 0.858 C 278.416 6.062,283.382 7.936,289.884 6.236 C 291.521 5.808,294.749 5.523,299.350 5.401 C 303.190 5.299,308.822 5.011,311.866 4.761 C 314.910 4.512,323.340 4.261,330.600 4.204 C 341.748 4.117,344.173 3.993,346.200 3.404 C 347.520 3.021,349.230 2.651,350.000 2.582 C 354.091 2.214,367.402 2.080,369.989 2.380 C 374.005 2.846,380.130 1.783,381.780 0.334 C 382.696 -0.471,347.372 -0.051,346.348 0.755 C 344.297 2.368,336.200 3.001,330.677 1.980 C 329.097 1.688,327.465 1.688,325.304 1.979 C 323.597 2.208,315.000 2.482,306.200 2.587 C 297.032 2.696,289.603 2.953,288.803 3.189 C 284.849 4.352,279.241 3.255,277.785 1.034 C 276.895 -0.325,274.911 -0.487,275.631 0.858 M34.115 14.589 C 24.688 17.244,14.900 25.790,16.718 29.780 C 17.893 32.359,19.794 32.428,23.508 30.028 C 27.907 27.186,29.610 27.013,34.953 28.864 C 39.526 30.449,41.306 30.438,45.367 28.798 C 49.982 26.935,53.192 27.124,56.825 29.473 C 62.535 33.165,65.529 30.443,61.966 24.800 C 56.777 16.582,43.858 11.845,34.115 14.589 M46.800 16.857 C 50.155 17.499,53.721 19.360,55.527 21.412 C 58.623 24.930,58.190 25.663,52.948 25.781 C 49.716 25.853,48.328 26.099,45.294 27.135 C 40.806 28.667,39.715 28.694,35.712 27.372 C 31.614 26.018,29.042 25.777,25.378 26.404 C 20.843 27.180,20.390 25.555,24.170 22.071 C 29.767 16.912,37.621 15.102,46.800 16.857 M36.756 61.788 C 32.019 63.531,30.738 65.771,33.623 67.263 C 39.758 70.434,51.418 67.391,46.954 63.784 C 44.176 61.539,39.773 60.678,36.756 61.788 M103.441 94.979 C 103.300 95.540,102.918 96.000,102.592 96.000 C 101.738 96.000,101.864 97.464,102.800 98.400 C 104.369 99.969,107.600 98.892,107.600 96.800 C 107.600 96.303,107.333 96.000,106.895 96.000 C 106.507 96.000,106.012 95.595,105.795 95.100 C 105.212 93.773,103.763 93.698,103.441 94.979 M352.134 317.792 C 341.656 319.693,334.018 325.024,334.004 330.446 C 333.994 334.283,336.815 335.006,340.813 332.191 C 345.116 329.161,347.143 329.009,353.284 331.259 C 357.160 332.678,358.276 332.627,362.800 330.824 C 367.608 328.907,370.521 329.194,374.577 331.984 C 381.183 336.529,382.615 329.705,376.350 323.534 C 370.966 318.231,361.753 316.047,352.134 317.792 M34.200 318.179 C 27.622 319.859,20.630 325.809,19.794 330.438 C 19.231 333.552,21.299 333.957,25.330 331.522 C 29.180 329.195,31.305 329.058,36.361 330.808 C 40.822 332.352,42.676 332.387,46.071 330.988 C 50.815 329.034,54.033 329.149,57.781 331.405 C 64.175 335.256,64.960 328.613,58.772 323.022 C 54.339 319.017,41.119 316.411,34.200 318.179 M362.810 319.221 C 369.127 320.006,374.800 323.756,374.800 327.147 C 374.800 327.963,374.620 328.000,370.599 328.000 C 366.968 328.000,365.929 328.163,362.935 329.200 C 358.516 330.731,356.378 330.731,352.000 329.200 C 348.463 327.963,345.183 327.689,341.790 328.347 C 338.758 328.936,338.250 327.454,340.593 324.861 C 344.608 320.417,353.752 318.096,362.810 319.221 M44.655 319.633 C 51.264 320.552,55.948 322.653,57.400 325.348 C 58.465 327.326,57.997 327.639,53.747 327.801 C 51.123 327.900,49.235 328.256,46.494 329.168 C 41.896 330.697,41.011 330.698,36.417 329.184 C 33.785 328.317,31.756 327.930,29.334 327.834 C 25.384 327.677,24.881 327.378,25.746 325.705 C 28.291 320.783,35.735 318.392,44.655 319.633 M37.913 364.136 C 30.538 366.650,33.411 370.779,42.216 370.320 C 48.412 369.997,50.932 367.481,47.341 365.203 C 43.838 362.982,41.933 362.766,37.913 364.136 M353.976 363.951 C 349.644 365.647,348.337 367.134,349.997 368.478 C 354.626 372.226,369.077 369.549,364.671 365.760 C 361.999 363.461,357.271 362.662,353.976 363.951 " stroke="none" fill="#babcb4" fill-rule="evenodd"></path><path id="path6" d="M0.823 1.061 C -0.080 2.209,-0.060 2.551,0.889 2.187 C 1.577 1.923,2.572 0.000,2.020 -0.000 C 1.821 -0.000,1.282 0.477,0.823 1.061 M126.793 1.100 C 126.789 1.705,126.508 3.460,126.168 5.000 C 124.271 13.585,124.318 10.399,125.592 44.000 C 126.220 60.555,127.362 70.238,130.406 84.800 C 133.921 101.614,134.900 105.109,138.696 114.400 C 139.910 117.370,141.890 122.590,143.097 126.000 C 145.379 132.448,150.771 144.348,153.666 149.324 C 161.915 163.504,175.014 181.227,185.872 192.900 C 233.409 244.006,291.211 270.216,361.200 272.403 C 376.056 272.867,384.362 273.580,390.749 274.940 C 394.902 275.824,396.047 275.891,398.700 275.403 C 400.543 275.064,400.313 274.400,398.352 274.400 C 397.446 274.400,393.891 273.960,390.452 273.422 C 382.844 272.232,375.155 271.701,361.200 271.401 C 316.215 270.434,274.924 258.346,237.800 235.273 C 196.217 209.430,158.141 164.732,143.863 125.000 C 142.440 121.040,140.561 116.000,139.686 113.800 C 132.795 96.466,127.840 70.382,126.809 46.000 C 125.562 16.529,125.545 13.416,126.601 8.200 C 127.632 3.110,127.859 0.000,127.200 0.000 C 126.980 0.000,126.797 0.495,126.793 1.100 M177.200 0.235 C 177.200 1.077,180.380 2.319,185.800 3.593 C 186.954 3.864,192.116 4.122,198.000 4.203 C 203.610 4.280,209.095 4.545,210.188 4.793 C 214.062 5.670,232.538 5.364,235.800 4.368 C 237.340 3.898,240.490 3.007,242.800 2.387 C 247.791 1.047,248.400 0.826,248.400 0.357 C 248.400 -0.546,237.245 -0.045,236.300 0.900 C 234.900 2.301,209.937 2.317,208.435 0.918 C 207.525 0.070,177.200 -0.592,177.200 0.235 M269.756 2.943 C 269.903 4.561,270.223 6.496,270.468 7.243 C 270.725 8.030,270.962 12.503,271.032 17.886 C 271.408 47.091,281.713 74.214,298.969 91.421 C 313.535 105.946,334.753 117.372,352.800 120.411 C 357.680 121.233,384.211 121.695,386.904 121.005 C 395.322 118.848,397.251 114.975,394.992 104.765 C 393.794 99.345,393.547 90.048,394.452 84.400 C 395.215 79.640,395.037 76.750,393.751 73.000 C 392.755 70.093,392.639 69.150,392.488 62.707 L 392.323 55.614 393.482 53.707 C 397.325 47.388,398.774 35.811,396.800 27.200 C 395.420 21.181,396.042 17.100,398.694 14.771 L 400.000 13.624 400.000 8.480 C 400.000 3.428,399.982 3.326,399.019 2.810 C 398.478 2.521,397.926 1.773,397.787 1.143 C 397.649 0.514,397.387 0.000,397.204 0.000 C 396.858 0.000,397.794 4.556,398.303 5.349 C 398.676 5.932,398.733 9.606,398.365 9.378 C 398.211 9.283,397.984 9.611,397.859 10.106 C 397.735 10.601,396.650 12.021,395.448 13.262 C 391.126 17.725,390.664 20.165,391.981 31.600 C 392.457 35.728,392.292 40.925,391.660 41.770 C 391.483 42.007,391.010 43.100,390.610 44.200 C 390.210 45.300,389.373 47.223,388.749 48.473 C 386.890 52.201,386.685 53.856,387.370 59.568 C 387.702 62.336,388.164 66.518,388.397 68.862 C 388.629 71.206,389.275 74.626,389.831 76.462 C 391.268 81.206,391.458 85.529,390.593 93.817 L 389.864 100.794 390.751 104.497 C 392.818 113.119,392.761 114.512,390.236 117.056 C 387.377 119.938,386.752 120.013,369.100 119.594 C 358.493 119.343,353.001 119.055,351.195 118.656 C 323.452 112.534,297.331 93.622,285.651 71.200 C 276.862 54.329,272.293 36.416,272.355 19.066 C 272.376 13.122,272.215 10.674,271.592 7.466 C 271.158 5.230,270.802 2.635,270.801 1.700 C 270.800 0.392,270.649 -0.000,270.145 -0.000 C 269.573 -0.000,269.524 0.375,269.756 2.943 M37.354 40.149 C 35.218 41.121,34.163 47.417,35.974 48.386 C 37.400 49.149,44.177 48.909,44.938 48.069 C 46.085 46.801,45.548 42.171,44.085 40.707 C 43.060 39.682,39.099 39.354,37.354 40.149 M0.034 270.165 C 0.017 295.006,0.105 315.228,0.230 315.103 C 0.355 314.978,0.522 306.984,0.602 297.338 C 0.743 280.061,0.960 276.770,2.135 273.997 C 3.439 270.920,3.710 267.722,2.979 264.036 C 2.458 261.412,2.361 259.617,2.565 256.395 C 2.823 252.322,2.115 242.399,1.204 237.305 C 0.998 236.153,0.923 234.083,1.037 232.705 C 1.163 231.182,1.013 229.180,0.655 227.600 C 0.123 225.255,0.063 229.422,0.034 270.165 M399.337 279.107 C 396.523 280.898,396.919 301.453,399.825 304.358 C 399.921 304.455,400.000 298.743,400.000 291.667 C 400.000 284.590,399.955 278.803,399.900 278.806 C 399.845 278.809,399.592 278.945,399.337 279.107 M0.054 325.200 C 0.083 327.391,0.084 327.394,0.475 325.925 C 0.741 324.925,0.732 324.216,0.446 323.725 C 0.115 323.157,0.031 323.475,0.054 325.200 M0.054 358.690 L 0.000 384.379 1.180 384.990 C 1.829 385.325,2.504 385.829,2.680 386.110 C 3.217 386.965,8.065 390.618,10.417 391.938 C 14.505 394.233,26.169 395.331,45.200 395.211 C 48.170 395.193,52.760 395.426,55.400 395.731 C 59.288 396.179,63.239 396.211,76.200 395.902 C 101.163 395.305,115.670 395.266,122.000 395.778 C 129.856 396.414,165.954 396.312,169.848 395.644 C 172.176 395.244,173.453 395.259,176.848 395.728 C 179.964 396.158,182.098 396.211,185.400 395.942 C 187.820 395.745,190.430 395.683,191.200 395.805 C 191.970 395.927,198.090 396.028,204.800 396.030 C 211.510 396.032,220.460 396.233,224.689 396.477 C 230.583 396.817,233.478 396.806,237.089 396.431 C 241.780 395.944,243.961 395.921,274.000 396.055 C 282.690 396.094,293.127 395.949,297.193 395.733 C 302.910 395.429,305.722 395.463,309.593 395.882 C 315.527 396.524,361.268 396.312,375.600 395.576 C 388.740 394.902,391.564 393.991,396.854 388.722 L 400.000 385.589 400.000 383.298 L 400.000 381.008 399.038 382.046 C 398.509 382.616,397.714 383.785,397.273 384.642 C 395.730 387.636,391.525 390.844,387.624 392.002 C 381.899 393.703,322.805 395.015,310.200 393.722 C 304.064 393.093,298.564 393.155,287.400 393.980 C 284.407 394.201,276.937 394.244,269.800 394.082 C 255.827 393.764,247.689 393.749,235.200 394.016 C 230.470 394.117,215.350 394.023,201.600 393.807 C 187.850 393.590,174.890 393.449,172.800 393.492 C 152.456 393.914,126.724 393.873,121.600 393.411 C 114.799 392.797,95.979 392.877,87.000 393.557 C 82.512 393.897,77.320 393.896,66.400 393.554 C 58.370 393.301,49.550 393.027,46.800 392.944 C 11.292 391.870,12.472 392.104,5.071 384.698 C 1.172 380.798,0.778 379.577,0.519 370.600 C 0.326 363.888,0.480 362.413,1.732 359.000 C 2.220 357.671,2.252 356.451,1.923 351.800 C 1.633 347.682,1.654 345.512,2.003 343.600 C 2.446 341.178,2.409 340.795,1.460 338.000 C 0.899 336.350,0.366 334.550,0.275 334.000 C 0.184 333.450,0.084 344.560,0.054 358.690 M38.758 342.046 C 36.607 342.835,35.469 348.902,37.239 350.142 C 38.759 351.207,44.925 351.075,46.046 349.954 C 47.030 348.970,46.854 344.983,45.753 343.282 C 44.721 341.690,41.350 341.094,38.758 342.046 M354.554 342.174 C 352.539 343.051,351.298 349.892,353.033 350.557 C 354.461 351.105,361.887 350.818,362.404 350.195 C 363.053 349.414,362.739 344.532,361.960 343.282 C 360.976 341.702,357.003 341.108,354.554 342.174 " stroke="none" fill="#4b4b49" fill-rule="evenodd"></path><path id="path7" d="M0.382 0.834 C -0.253 2.021,0.069 2.097,0.919 0.961 C 1.314 0.432,1.455 0.000,1.233 0.000 C 1.010 0.000,0.627 0.375,0.382 0.834 M127.659 1.600 C 127.612 2.590,127.136 5.560,126.601 8.200 C 125.545 13.416,125.562 16.529,126.809 46.000 C 127.840 70.382,132.795 96.466,139.686 113.800 C 140.561 116.000,142.440 121.040,143.863 125.000 C 158.141 164.732,196.217 209.430,237.800 235.273 C 274.924 258.346,316.215 270.434,361.200 271.401 C 375.155 271.701,382.844 272.232,390.452 273.422 C 393.891 273.960,397.491 274.378,398.452 274.351 C 400.100 274.305,400.062 274.283,397.800 273.963 C 396.480 273.777,393.150 273.268,390.400 272.833 C 383.554 271.750,376.619 271.284,363.200 271.003 C 312.532 269.942,268.185 256.038,228.800 228.863 C 211.297 216.786,187.365 194.369,176.422 179.800 C 155.784 152.325,150.579 142.597,138.333 108.609 C 134.523 98.035,129.897 76.029,128.408 61.400 C 126.649 44.108,125.960 13.924,127.187 7.863 C 127.659 5.533,127.977 2.765,127.895 1.713 L 127.744 -0.200 127.659 1.600 M170.000 0.669 C 173.635 2.360,174.776 2.771,177.100 3.223 C 178.475 3.490,179.600 3.865,179.600 4.055 C 179.600 4.245,180.056 4.400,180.613 4.400 C 181.170 4.400,182.222 4.649,182.952 4.954 C 185.016 5.817,187.405 6.002,198.887 6.188 C 205.288 6.292,210.261 6.551,211.287 6.833 C 212.361 7.128,216.361 7.308,222.005 7.313 C 231.986 7.323,233.048 7.168,241.400 4.474 C 242.720 4.048,244.790 3.471,246.000 3.191 C 250.470 2.158,253.177 -0.000,250.003 -0.000 C 249.122 -0.000,248.400 0.161,248.400 0.357 C 248.400 0.826,247.791 1.047,242.800 2.387 C 240.490 3.007,237.340 3.898,235.800 4.368 C 232.538 5.364,214.062 5.670,210.188 4.793 C 209.095 4.545,203.610 4.280,198.000 4.203 C 192.116 4.122,186.954 3.864,185.800 3.593 C 181.565 2.597,178.174 1.417,177.553 0.723 C 177.007 0.112,176.262 0.001,172.753 0.009 C 168.607 0.018,168.602 0.019,170.000 0.669 M269.122 0.681 C 268.991 1.166,269.137 2.966,269.446 4.681 C 270.497 10.519,270.688 12.996,270.493 18.246 C 269.232 52.121,286.822 86.723,314.600 105.011 C 333.606 117.524,345.948 121.296,370.200 122.004 C 385.088 122.438,386.790 122.277,391.454 119.998 C 398.251 116.675,398.567 115.372,396.205 100.400 C 395.489 95.862,395.459 88.434,396.134 83.218 C 396.639 79.321,396.381 73.859,395.625 72.446 C 395.407 72.040,395.201 68.488,395.167 64.554 L 395.104 57.400 396.511 53.400 C 398.351 48.168,398.424 48.000,398.843 48.000 C 399.039 48.000,399.200 47.651,399.200 47.224 C 399.200 46.797,399.380 46.336,399.600 46.200 C 400.607 45.578,400.082 27.775,399.000 25.837 C 398.185 24.378,398.000 23.499,398.000 21.093 C 398.000 18.460,398.108 18.038,399.000 17.200 C 399.947 16.311,400.434 14.000,399.675 14.000 C 396.838 14.000,395.345 20.855,396.800 27.200 C 398.774 35.811,397.325 47.388,393.482 53.707 L 392.323 55.614 392.488 62.707 C 392.639 69.150,392.755 70.093,393.751 73.000 C 395.037 76.750,395.215 79.640,394.452 84.400 C 393.547 90.048,393.794 99.345,394.992 104.765 C 397.251 114.975,395.322 118.848,386.904 121.005 C 384.211 121.695,357.680 121.233,352.800 120.411 C 334.753 117.372,313.535 105.946,298.969 91.421 C 282.085 74.585,271.073 46.134,271.150 19.546 C 271.163 15.226,270.984 10.636,270.754 9.346 C 270.523 8.056,270.115 5.380,269.847 3.400 C 269.545 1.177,269.268 0.137,269.122 0.681 M397.817 0.975 C 398.047 2.122,398.997 3.175,399.800 3.174 C 400.020 3.174,399.795 2.836,399.301 2.423 C 398.806 2.010,398.217 1.251,397.991 0.736 C 397.618 -0.117,397.603 -0.096,397.817 0.975 M214.346 76.457 C 212.200 80.288,215.583 87.829,217.999 84.600 C 218.821 83.500,218.801 77.429,217.971 76.600 C 216.849 75.478,214.937 75.403,214.346 76.457 M223.520 106.065 C 220.949 108.475,221.615 111.092,225.849 115.213 C 227.311 116.636,229.101 118.385,229.826 119.100 C 232.092 121.332,234.524 121.843,235.254 120.241 C 235.714 119.232,238.075 118.426,238.330 119.191 C 238.405 119.416,238.707 119.600,239.000 119.600 C 239.293 119.600,239.638 119.825,239.767 120.100 C 239.953 120.500,240.047 120.500,240.233 120.100 C 240.505 119.517,241.600 119.421,241.600 119.979 C 241.600 120.700,243.494 122.400,244.297 122.400 C 244.740 122.400,245.326 122.670,245.600 123.000 C 246.956 124.634,252.197 121.911,252.979 119.166 C 253.131 118.635,253.555 117.612,253.922 116.894 C 255.230 114.331,252.271 108.162,249.200 107.049 C 246.696 106.141,242.497 107.029,241.480 108.680 C 240.866 109.678,238.199 109.319,237.576 108.155 C 236.780 106.668,235.562 106.275,230.800 105.966 C 228.490 105.816,226.131 105.567,225.559 105.411 C 224.766 105.197,224.280 105.352,223.520 106.065 M233.425 124.828 C 231.223 127.047,233.365 134.236,235.981 133.406 C 236.349 133.289,237.483 133.444,238.501 133.750 C 240.109 134.234,240.380 134.230,240.575 133.721 C 241.161 132.193,240.573 128.400,239.750 128.400 C 239.447 128.400,239.200 128.212,239.200 127.983 C 239.200 125.665,234.917 123.325,233.425 124.828 M-0.000 385.181 C -0.000 385.621,0.495 386.298,1.100 386.684 C 1.705 387.071,3.650 388.484,5.422 389.825 C 9.632 393.012,12.474 394.416,15.800 394.952 C 21.091 395.805,23.767 396.056,26.935 395.995 C 33.084 395.877,55.260 396.744,57.600 397.194 C 58.810 397.427,60.430 397.504,61.200 397.367 C 61.970 397.229,67.640 397.134,73.800 397.157 C 79.960 397.180,86.710 397.024,88.800 396.810 C 94.470 396.231,119.107 396.395,123.000 397.038 C 123.880 397.184,127.030 397.261,130.000 397.210 C 138.997 397.057,140.581 397.066,152.200 397.327 C 161.331 397.533,164.287 397.461,168.200 396.935 C 172.048 396.417,173.555 396.377,175.800 396.729 C 177.553 397.004,186.374 397.177,199.398 397.191 C 210.837 397.204,222.707 397.393,225.776 397.613 C 229.772 397.898,232.555 397.880,235.578 397.549 C 238.379 397.243,247.677 397.114,263.200 397.166 C 277.599 397.215,289.677 397.062,294.600 396.768 C 301.415 396.361,303.696 396.384,310.000 396.926 C 321.961 397.953,363.546 397.532,383.590 396.182 C 387.291 395.933,391.150 394.651,393.640 392.845 C 397.462 390.073,401.107 386.000,399.766 386.000 C 399.638 386.000,398.233 387.312,396.645 388.916 C 391.663 393.946,388.627 394.907,375.600 395.576 C 361.268 396.312,315.527 396.524,309.593 395.882 C 305.722 395.463,302.910 395.429,297.193 395.733 C 293.127 395.949,282.690 396.094,274.000 396.055 C 243.961 395.921,241.780 395.944,237.089 396.431 C 233.478 396.806,230.583 396.817,224.689 396.477 C 220.460 396.233,211.510 396.032,204.800 396.030 C 198.090 396.028,191.970 395.927,191.200 395.805 C 190.430 395.683,187.820 395.745,185.400 395.942 C 182.098 396.211,179.964 396.158,176.848 395.728 C 173.453 395.259,172.176 395.244,169.848 395.644 C 165.954 396.312,129.856 396.414,122.000 395.778 C 115.670 395.266,101.163 395.305,76.200 395.902 C 63.239 396.211,59.288 396.179,55.400 395.731 C 52.760 395.426,48.170 395.193,45.200 395.211 C 26.169 395.331,14.505 394.233,10.417 391.938 C 8.065 390.618,3.217 386.965,2.680 386.110 C 1.970 384.978,-0.000 384.295,-0.000 385.181 " stroke="none" fill="#3c443c" fill-rule="evenodd"></path><path id="path8" d="M1.931 0.992 C 1.682 1.538,1.146 2.090,0.739 2.219 C 0.209 2.388,0.000 2.843,0.000 3.830 C -0.000 5.120,0.053 5.175,0.833 4.703 C 1.730 4.162,3.200 1.623,3.200 0.616 C 3.200 -0.338,2.433 -0.111,1.931 0.992 M124.994 1.100 C 124.873 1.705,124.121 4.446,123.325 7.192 L 121.877 12.184 122.353 25.792 C 123.362 54.674,124.540 69.510,126.568 78.891 C 127.125 81.469,128.405 87.736,129.412 92.818 C 131.799 104.866,132.588 107.472,136.144 115.062 C 137.778 118.548,139.956 124.010,140.984 127.200 C 142.617 132.266,145.266 138.394,150.236 148.600 C 153.428 155.153,163.167 168.875,176.058 184.980 C 193.089 206.258,222.855 230.576,250.645 245.917 C 271.479 257.417,307.552 269.206,331.063 272.199 C 333.669 272.530,336.167 272.885,336.616 272.987 C 338.709 273.464,345.714 274.061,353.383 274.417 C 375.252 275.432,380.531 276.184,383.285 278.677 C 384.341 279.632,384.251 279.808,381.200 282.746 C 377.256 286.544,377.636 288.121,382.810 289.421 C 387.536 290.609,388.108 291.461,389.788 299.800 C 390.364 302.660,391.008 305.313,391.218 305.695 C 391.428 306.077,391.600 306.886,391.600 307.494 C 391.600 308.936,393.148 317.965,393.573 319.000 C 394.769 321.915,395.298 334.388,394.346 337.240 C 393.854 338.716,391.665 341.287,391.164 340.978 C 390.994 340.873,390.739 340.975,390.597 341.204 C 390.456 341.433,389.204 342.175,387.816 342.852 C 382.050 345.663,381.070 347.504,381.031 355.600 L 381.000 361.800 379.508 364.853 C 373.903 376.319,355.163 380.391,342.429 372.910 C 335.085 368.596,332.329 363.160,333.240 354.784 C 333.927 348.468,331.637 344.400,327.394 344.400 C 323.153 344.400,322.263 349.247,324.566 359.800 C 325.924 366.020,326.416 367.067,329.909 371.146 C 331.389 372.875,333.554 375.455,334.720 376.878 C 337.537 380.317,339.830 381.994,344.400 383.959 C 353.744 387.976,348.446 389.074,321.600 388.687 L 311.000 388.534 306.211 387.030 C 300.987 385.390,300.425 385.377,295.600 386.801 C 288.582 388.871,278.793 389.348,262.600 388.411 C 246.495 387.479,245.998 387.478,240.324 388.337 C 233.735 389.336,203.086 389.228,194.800 388.176 C 191.645 387.776,187.058 387.618,180.200 387.675 C 160.680 387.837,159.542 387.807,157.227 387.082 C 154.350 386.179,152.226 386.222,149.363 387.241 C 144.688 388.905,123.319 388.236,117.733 386.251 C 114.355 385.051,112.727 385.045,108.741 386.217 C 105.221 387.253,104.712 387.301,99.728 387.062 C 95.505 386.859,93.778 386.948,91.123 387.504 C 84.617 388.867,64.358 388.233,61.134 386.566 C 58.474 385.190,61.401 380.935,68.200 376.296 C 76.167 370.859,77.572 368.877,77.301 363.457 C 77.157 360.566,77.297 359.129,77.969 356.600 C 79.261 351.743,78.803 339.575,77.284 338.381 C 75.561 337.025,74.846 337.367,70.773 341.500 C 64.551 347.813,64.600 347.703,64.600 355.371 L 64.600 361.800 63.024 364.957 C 53.267 384.504,16.883 377.848,17.615 356.650 C 17.935 347.372,18.159 348.144,13.675 343.049 C 7.205 335.697,8.095 327.811,16.185 320.800 C 23.503 314.458,26.400 311.481,26.400 310.302 C 26.400 308.139,20.416 304.287,17.650 304.671 C 14.006 305.176,13.810 305.123,13.691 303.600 C 13.468 300.738,14.730 299.600,18.126 299.600 C 26.691 299.600,30.693 287.576,25.514 277.400 C 25.066 276.520,24.541 275.485,24.346 275.100 C 24.152 274.715,23.824 272.766,23.618 270.769 C 23.073 265.500,21.962 263.679,17.475 260.701 C 13.943 258.357,12.800 256.861,12.800 254.583 C 12.800 254.078,12.359 251.445,11.821 248.732 C 10.921 244.200,10.170 238.070,9.108 226.600 C 8.885 224.180,8.583 215.810,8.437 208.000 L 8.174 193.800 6.880 188.895 C 5.218 182.588,4.862 177.883,5.101 165.400 C 5.235 158.408,5.145 154.678,4.804 153.000 C 3.762 147.876,3.613 146.779,3.022 139.878 C 2.686 135.960,2.049 131.256,1.606 129.423 C 1.163 127.590,0.782 125.485,0.760 124.745 C 0.738 124.005,0.576 122.950,0.400 122.400 C -0.297 120.224,-0.058 224.156,0.642 227.517 C 1.044 229.451,1.197 231.448,1.051 232.874 C 0.922 234.125,0.989 236.105,1.198 237.274 C 2.114 242.393,2.823 252.311,2.565 256.395 C 2.361 259.617,2.458 261.412,2.979 264.036 C 3.710 267.722,3.439 270.920,2.135 273.997 C 0.866 276.991,0.081 296.378,0.302 319.300 C 0.325 321.665,0.349 324.185,0.356 324.900 C 0.363 325.615,0.334 328.090,0.291 330.400 C 0.221 334.111,0.344 334.972,1.345 337.800 C 2.420 340.834,2.454 341.135,2.003 343.600 C 1.654 345.512,1.633 347.682,1.923 351.800 C 2.252 356.451,2.220 357.671,1.732 359.000 C 0.480 362.413,0.326 363.888,0.519 370.600 C 0.778 379.577,1.172 380.798,5.071 384.698 C 12.472 392.104,11.292 391.870,46.800 392.944 C 49.550 393.027,58.370 393.301,66.400 393.554 C 77.320 393.896,82.512 393.897,87.000 393.557 C 95.979 392.877,114.799 392.797,121.600 393.411 C 126.724 393.873,152.456 393.914,172.800 393.492 C 174.890 393.449,187.850 393.590,201.600 393.807 C 215.350 394.023,230.470 394.117,235.200 394.016 C 247.689 393.749,255.827 393.764,269.800 394.082 C 276.937 394.244,284.407 394.201,287.400 393.980 C 298.564 393.155,304.064 393.093,310.200 393.722 C 322.805 395.015,381.899 393.703,387.624 392.002 C 391.525 390.844,395.730 387.636,397.273 384.642 C 397.714 383.785,398.511 382.615,399.043 382.042 L 400.010 381.000 399.890 342.400 L 399.770 303.800 398.674 300.200 C 396.470 292.960,396.919 280.507,399.436 279.080 C 399.789 278.880,400.000 278.094,400.000 276.975 L 400.000 275.191 398.369 275.451 C 395.604 275.893,395.130 275.861,390.749 274.934 C 384.341 273.578,376.026 272.866,361.200 272.403 C 291.211 270.216,233.409 244.006,185.872 192.900 C 175.014 181.227,161.915 163.504,153.666 149.324 C 150.771 144.348,145.379 132.448,143.097 126.000 C 141.890 122.590,139.910 117.370,138.696 114.400 C 134.900 105.109,133.921 101.614,130.406 84.800 C 127.362 70.238,126.220 60.555,125.592 44.000 C 124.318 10.399,124.271 13.585,126.168 5.000 C 127.030 1.094,126.995 0.000,126.008 0.000 C 125.463 0.000,125.146 0.345,124.994 1.100 M208.416 0.900 C 209.935 2.315,234.885 2.315,236.300 0.900 L 237.200 0.000 222.325 -0.000 L 207.449 -0.000 208.416 0.900 M270.801 1.700 C 270.802 2.635,271.158 5.230,271.592 7.466 C 272.215 10.674,272.376 13.122,272.355 19.066 C 272.293 36.416,276.862 54.329,285.651 71.200 C 297.331 93.622,323.452 112.534,351.195 118.656 C 353.001 119.055,358.493 119.343,369.100 119.594 C 386.752 120.013,387.377 119.938,390.236 117.056 C 392.761 114.512,392.818 113.119,390.751 104.497 L 389.864 100.794 390.593 93.817 C 391.458 85.529,391.268 81.206,389.831 76.462 C 389.275 74.626,388.629 71.206,388.397 68.862 C 388.164 66.518,387.702 62.336,387.370 59.568 C 386.685 53.856,386.890 52.201,388.749 48.473 C 389.373 47.223,390.210 45.300,390.610 44.200 C 391.010 43.100,391.483 42.007,391.660 41.770 C 392.292 40.925,392.457 35.728,391.981 31.600 C 390.664 20.165,391.126 17.725,395.448 13.262 C 396.650 12.021,397.735 10.601,397.859 10.106 C 397.984 9.611,398.211 9.283,398.365 9.378 C 398.883 9.698,398.467 5.823,397.680 3.000 C 396.831 -0.048,394.438 -1.587,394.377 0.875 C 394.271 5.128,393.733 6.150,390.353 8.514 C 382.232 14.195,382.686 13.035,382.052 29.693 L 381.751 37.586 380.536 39.093 C 379.868 39.922,378.978 40.780,378.558 41.000 C 376.243 42.211,375.281 43.525,374.452 46.606 C 373.370 50.627,370.223 53.576,367.000 53.586 C 364.486 53.595,356.000 51.100,356.000 50.352 C 356.000 50.166,355.071 49.543,353.935 48.967 C 350.662 47.309,347.086 47.412,343.200 49.277 C 341.550 50.068,339.224 51.005,338.032 51.357 C 334.770 52.320,334.000 52.954,334.000 54.674 C 334.000 56.559,336.560 61.020,339.074 63.514 C 339.581 64.017,340.728 65.399,341.624 66.585 C 344.144 69.923,346.000 70.805,346.000 68.665 C 346.000 67.817,345.040 66.070,344.293 65.558 C 343.677 65.135,343.489 62.149,343.983 60.650 C 345.018 57.516,349.169 54.719,351.415 55.642 C 352.067 55.910,352.701 56.112,352.824 56.090 C 352.947 56.068,354.098 57.442,355.382 59.143 C 356.667 60.846,358.709 62.946,359.926 63.818 C 361.141 64.688,364.381 67.539,367.126 70.154 C 371.563 74.382,372.537 75.105,375.912 76.683 C 385.821 81.313,388.187 87.708,383.606 97.483 C 380.827 103.415,378.824 106.004,374.443 109.328 C 369.369 113.178,369.463 113.135,365.325 113.583 C 363.386 113.793,360.540 114.240,359.000 114.575 C 355.094 115.427,353.725 115.364,346.952 114.016 C 338.403 112.314,337.793 112.086,332.726 108.676 C 331.256 107.687,329.006 106.496,327.726 106.031 C 326.447 105.565,324.650 104.909,323.733 104.572 C 319.533 103.028,304.189 91.147,298.598 85.109 C 285.151 70.587,275.231 43.353,274.962 20.221 C 274.851 10.696,274.800 10.219,273.366 5.255 C 272.835 3.416,272.400 1.481,272.400 0.955 C 272.400 0.267,272.177 0.000,271.600 0.000 C 270.925 0.000,270.800 0.266,270.801 1.700 M0.054 42.900 C 0.084 59.675,0.189 72.982,0.286 72.471 C 0.383 71.960,0.913 70.880,1.463 70.071 C 2.434 68.644,2.455 68.465,2.184 64.103 C 1.765 57.364,3.529 55.694,7.327 59.232 C 9.495 61.253,14.127 62.291,14.581 60.859 C 15.116 59.173,16.400 51.260,16.400 49.648 C 16.400 45.157,11.416 42.616,6.894 44.800 C 4.221 46.092,2.749 45.270,2.166 42.159 C 2.026 41.412,1.751 40.800,1.555 40.800 C 1.000 40.800,1.149 37.266,1.826 34.400 C 2.502 31.535,3.300 18.127,2.930 15.845 C 2.712 14.506,1.133 12.400,0.345 12.400 C 0.154 12.400,0.024 26.002,0.054 42.900 M366.850 14.431 C 365.879 14.820,365.781 16.796,366.601 19.440 C 366.754 19.933,366.639 20.512,366.323 20.840 C 363.138 24.144,363.327 27.530,366.765 28.728 C 369.182 29.570,369.522 28.136,368.575 21.100 C 368.435 20.055,368.476 19.200,368.668 19.200 C 368.860 19.200,369.463 18.377,370.008 17.370 L 371.000 15.540 370.056 14.770 C 369.023 13.928,368.298 13.851,366.850 14.431 M45.022 35.030 C 41.638 36.212,38.907 36.262,35.536 35.205 C 30.548 33.642,29.392 34.423,29.699 39.149 C 29.925 42.632,29.403 44.856,27.890 46.859 C 22.965 53.382,27.801 58.600,35.188 54.733 C 39.473 52.490,40.884 52.499,45.286 54.797 C 53.376 59.020,57.381 54.236,52.458 46.230 C 51.030 43.910,51.000 43.775,51.000 39.772 C 51.000 33.740,50.302 33.186,45.022 35.030 M44.085 40.707 C 45.548 42.171,46.085 46.801,44.938 48.069 C 44.177 48.909,37.400 49.149,35.974 48.386 C 34.163 47.417,35.218 41.121,37.354 40.149 C 39.099 39.354,43.060 39.682,44.085 40.707 M64.829 47.054 C 63.063 49.300,65.107 58.181,67.111 56.964 C 68.740 55.974,70.080 51.166,69.439 48.612 C 68.799 46.062,66.279 45.211,64.829 47.054 M58.600 70.466 C 57.383 71.139,51.055 75.300,50.600 75.727 C 49.932 76.354,53.542 75.647,55.662 74.735 C 57.653 73.879,60.000 71.634,60.000 70.586 C 60.000 69.894,59.685 69.867,58.600 70.466 M364.000 105.800 C 364.000 106.130,364.270 106.400,364.600 106.400 C 364.930 106.400,365.200 106.130,365.200 105.800 C 365.200 105.470,364.930 105.200,364.600 105.200 C 364.270 105.200,364.000 105.470,364.000 105.800 M362.200 284.814 C 361.320 284.992,358.890 285.256,356.800 285.402 C 346.770 286.100,342.892 291.425,347.961 297.539 C 349.908 299.887,350.393 300.821,351.215 303.800 C 352.446 308.262,355.653 306.324,362.489 296.989 C 363.944 295.003,366.202 292.448,367.509 291.312 C 373.005 286.531,370.273 283.188,362.200 284.814 M39.054 305.229 C 37.126 306.746,38.161 308.683,41.111 309.079 C 44.192 309.492,45.400 307.596,43.419 305.458 C 42.217 304.161,40.524 304.073,39.054 305.229 M362.448 337.018 C 358.867 338.209,356.088 338.263,353.000 337.200 C 347.867 335.434,346.626 336.311,347.038 341.418 C 347.308 344.778,346.584 347.092,344.379 349.912 C 342.719 352.035,343.085 356.022,345.083 357.594 C 346.690 358.858,348.752 358.634,352.400 356.800 C 354.797 355.595,356.058 355.200,357.510 355.200 C 358.949 355.200,360.267 355.606,362.703 356.800 C 370.710 360.725,374.573 355.785,369.687 347.870 C 368.226 345.502,368.209 345.427,368.316 341.730 C 368.481 336.027,367.586 335.308,362.448 337.018 M31.829 337.028 C 30.949 337.909,30.667 339.322,30.971 341.344 C 31.322 343.689,30.610 346.599,29.115 348.931 C 24.734 355.764,29.224 360.510,36.558 356.798 C 40.804 354.649,42.422 354.650,46.503 356.800 C 54.352 360.935,58.774 355.845,53.713 348.501 C 52.222 346.338,52.199 346.244,52.109 342.144 C 51.975 335.954,51.301 335.438,45.664 337.205 C 44.270 337.642,42.351 338.000,41.400 338.000 C 40.449 338.000,38.530 337.642,37.136 337.205 C 34.066 336.243,32.661 336.196,31.829 337.028 M44.153 341.982 C 46.409 342.840,47.705 348.295,46.046 349.954 C 44.925 351.075,38.759 351.207,37.239 350.142 C 35.469 348.902,36.607 342.835,38.758 342.046 C 40.139 341.539,42.901 341.506,44.153 341.982 M360.000 341.994 C 361.858 342.511,362.481 343.633,362.713 346.885 C 362.985 350.679,362.833 350.800,357.784 350.800 C 352.314 350.800,352.400 350.848,352.400 347.817 C 352.400 342.428,354.841 340.558,360.000 341.994 M111.812 349.846 C 111.151 350.506,111.000 352.665,111.554 353.539 C 112.092 354.389,113.297 353.909,113.706 352.683 C 114.440 350.480,113.133 348.524,111.812 349.846 M150.022 354.778 C 147.639 357.161,149.510 366.400,152.375 366.400 C 154.537 366.400,156.351 361.870,154.866 360.180 C 154.682 359.971,154.222 358.955,153.842 357.923 C 152.547 354.404,151.368 353.432,150.022 354.778 M393.076 369.118 C 398.916 376.527,390.064 387.163,377.992 387.242 C 371.550 387.284,371.710 385.462,378.557 380.820 C 381.935 378.529,382.652 377.764,384.380 374.600 C 387.613 368.682,391.033 366.527,393.076 369.118 " stroke="none" fill="#5c5c54" fill-rule="evenodd"></path></g></svg>