<svg id="svg" version="1.1" xmlns="http://www.w3.org/2000/svg" xmlns:xlink="http://www.w3.org/1999/xlink" width="400" height="400" viewBox="0, 0, 400,400"><g id="svgg"><path id="path0" d="M4.105 0.625 C 3.854 0.894,3.757 1.224,3.891 1.357 C 4.024 1.491,3.923 1.600,3.667 1.600 C 3.344 1.600,3.200 2.758,3.200 5.342 C 3.200 9.616,3.277 9.754,7.290 12.719 C 10.822 15.328,11.144 16.523,9.657 21.514 C 7.244 29.617,8.190 35.854,12.789 42.151 C 15.530 45.904,15.839 47.100,15.266 51.760 C 13.000 70.198,36.122 80.851,53.447 69.351 C 60.248 64.837,61.817 60.541,60.616 49.731 C 60.161 45.640,61.875 43.183,66.012 41.997 C 73.109 39.961,73.649 57.814,66.737 66.000 C 62.977 70.454,57.238 79.319,55.950 82.664 C 54.153 87.330,53.917 87.461,50.000 85.952 C 48.414 85.341,46.349 85.019,42.600 84.796 C 38.426 84.548,35.743 84.084,29.000 82.446 C 16.414 79.388,12.806 79.658,9.888 83.875 C 5.082 90.821,7.450 101.534,15.692 110.125 C 19.051 113.626,18.801 119.402,15.158 122.474 C 11.815 125.293,11.840 125.212,11.582 134.000 C 11.422 139.433,11.161 142.407,10.722 143.800 C 9.796 146.734,9.200 150.330,9.200 152.979 C 9.200 154.261,8.990 156.883,8.734 158.807 C 8.335 161.806,8.364 162.697,8.935 165.052 C 9.657 168.026,9.764 171.265,9.225 173.800 C 7.303 182.837,7.150 186.710,8.401 194.691 C 9.183 199.680,9.446 200.901,10.623 205.000 C 13.329 214.425,14.018 227.823,12.208 235.800 C 11.564 238.636,11.536 239.467,11.958 243.111 C 12.237 245.515,12.327 248.838,12.174 251.111 C 11.953 254.406,12.075 255.825,12.974 260.400 C 15.381 272.658,15.630 273.166,20.603 276.020 C 23.180 277.500,24.118 278.322,25.607 280.409 C 27.783 283.461,28.866 284.158,32.656 284.945 C 37.497 285.951,40.390 288.063,42.900 292.425 C 44.939 295.967,44.819 296.907,41.887 300.342 C 40.834 301.575,39.875 303.260,39.440 304.641 C 37.305 311.413,32.608 310.083,25.887 300.804 C 22.670 296.363,17.190 291.520,15.703 291.804 C 15.317 291.878,14.868 291.953,14.707 291.969 C 13.477 292.098,10.405 301.649,9.229 309.000 C 8.771 311.860,7.950 316.090,7.403 318.400 C 4.751 329.604,6.667 338.101,12.679 341.800 C 19.324 345.888,20.340 347.472,19.583 352.561 C 17.536 366.320,27.008 376.022,42.600 376.137 C 58.699 376.255,68.296 366.610,66.005 352.616 C 64.655 344.371,73.952 340.280,76.792 347.869 C 78.061 351.261,77.872 354.391,75.987 361.185 C 73.080 371.666,69.707 375.819,59.400 381.606 C 48.827 387.543,48.976 388.674,60.400 389.159 C 72.101 389.656,77.352 389.044,82.638 386.569 C 86.331 384.841,87.066 384.855,92.965 386.769 C 99.907 389.021,112.667 390.143,116.174 388.810 C 118.725 387.840,119.725 381.464,118.185 375.987 C 116.990 371.738,117.006 370.775,118.327 367.767 C 120.190 363.522,120.510 360.829,120.080 352.987 C 119.873 349.207,119.854 344.339,120.037 342.000 C 120.239 339.413,120.210 336.801,119.960 335.200 C 118.908 328.448,118.970 327.657,120.776 324.800 C 123.366 320.704,123.845 319.341,125.362 311.742 C 127.062 303.226,128.294 298.836,130.246 294.340 C 131.043 292.503,132.643 288.210,133.800 284.800 C 140.542 264.932,159.970 230.250,173.764 213.461 C 175.779 211.007,179.040 207.020,181.009 204.600 C 182.978 202.180,190.601 194.080,197.949 186.600 C 211.410 172.898,214.694 169.994,224.000 163.569 C 225.870 162.278,229.082 159.774,231.139 158.005 C 235.732 154.053,237.127 153.223,242.869 151.028 C 249.148 148.627,256.688 144.911,261.200 141.993 C 268.001 137.594,271.268 136.237,281.400 133.602 C 284.040 132.916,287.988 131.806,290.173 131.137 C 292.359 130.468,296.409 129.498,299.173 128.982 C 301.938 128.466,307.178 127.317,310.819 126.429 C 319.188 124.387,325.212 123.356,332.025 122.801 C 334.981 122.559,338.840 122.192,340.600 121.984 C 348.169 121.088,354.379 120.756,370.200 120.400 C 395.445 119.832,395.252 119.928,396.233 107.439 C 396.782 100.436,396.532 90.090,395.582 80.549 C 395.353 78.248,395.296 73.647,395.449 69.899 C 395.844 60.266,394.642 58.217,389.839 60.341 C 387.950 61.177,387.108 62.193,385.266 65.858 C 383.828 68.720,381.840 70.517,379.336 71.218 C 375.894 72.182,376.156 71.019,380.729 65.044 C 383.822 61.004,384.185 58.790,382.754 52.696 C 381.302 46.511,381.737 45.301,386.600 41.998 C 392.987 37.661,393.681 35.473,391.954 25.111 C 390.855 18.516,391.054 17.032,393.317 14.949 C 395.904 12.568,397.751 11.289,398.824 11.138 C 399.887 10.988,400.503 7.688,399.658 6.669 C 399.444 6.411,399.222 5.210,399.165 4.000 C 398.996 0.407,398.669 0.000,395.959 0.000 C 393.775 0.000,393.656 0.050,393.821 0.900 C 393.918 1.395,394.101 2.349,394.228 3.019 C 394.733 5.686,390.138 7.599,383.225 7.601 C 381.341 7.601,377.100 8.060,373.800 8.619 C 368.047 9.595,365.120 9.641,364.578 8.765 C 364.281 8.283,358.800 8.291,358.800 8.773 C 358.800 8.978,358.411 9.270,357.935 9.421 C 356.343 9.926,358.161 10.440,362.744 10.779 C 375.474 11.721,389.619 27.457,383.106 33.430 C 380.658 35.675,378.261 35.189,375.530 31.893 C 372.697 28.475,369.295 27.971,364.023 30.190 C 360.664 31.604,358.970 31.580,354.553 30.057 C 348.737 28.053,347.610 28.291,343.345 32.427 C 340.047 35.625,338.433 36.006,335.438 34.293 C 329.369 30.823,331.743 23.010,340.742 16.840 C 351.341 9.573,351.257 9.522,329.200 9.817 C 320.290 9.937,312.640 10.070,312.200 10.114 C 311.760 10.157,308.880 10.045,305.800 9.863 C 301.426 9.605,299.149 9.673,295.400 10.173 C 290.960 10.766,290.188 10.763,285.110 10.142 C 279.929 9.508,279.423 9.510,276.110 10.166 C 271.153 11.149,271.179 11.146,265.200 11.615 C 262.230 11.848,254.580 12.039,248.200 12.040 C 235.848 12.040,226.202 12.916,223.251 14.303 C 221.502 15.126,220.818 16.799,220.523 20.970 L 220.291 24.258 221.454 24.740 C 222.094 25.004,223.522 25.189,224.628 25.150 C 230.173 24.954,231.225 27.936,231.278 44.000 C 231.312 54.196,231.430 54.752,234.167 57.600 C 236.062 59.572,238.111 63.246,238.791 65.893 C 239.031 66.824,239.774 68.804,240.443 70.293 C 242.885 75.730,242.293 78.627,238.327 80.637 C 235.519 82.060,233.150 82.239,230.058 81.261 C 223.725 79.260,222.735 85.272,228.398 91.340 C 232.257 95.476,233.304 98.207,233.970 105.866 C 234.445 111.342,234.024 113.673,231.813 117.800 C 230.870 119.560,229.608 122.312,229.008 123.916 C 227.503 127.943,225.413 130.900,221.690 134.273 C 217.006 138.517,216.899 139.002,219.947 142.176 C 222.337 144.665,222.400 144.787,222.400 146.906 C 222.400 152.671,220.692 153.546,212.520 151.963 C 202.623 150.047,198.866 155.217,203.627 164.203 C 206.727 170.054,205.761 172.426,196.177 182.507 C 192.573 186.298,188.366 190.480,186.829 191.800 C 183.921 194.297,179.971 198.643,178.104 201.400 C 175.627 205.057,173.270 207.981,170.367 211.000 C 167.442 214.040,164.000 218.521,164.000 219.288 C 164.000 219.830,161.070 224.029,158.077 227.775 C 156.605 229.618,154.415 232.898,153.212 235.063 C 150.071 240.713,139.373 256.565,137.722 258.015 C 134.980 260.422,133.928 258.527,134.961 253.042 C 136.447 245.155,133.449 237.592,128.813 237.528 C 123.639 237.457,120.838 242.742,122.758 248.957 C 123.551 251.525,123.859 254.408,123.390 254.877 C 123.274 254.993,121.429 254.761,119.290 254.362 C 117.150 253.962,114.463 253.628,113.319 253.618 C 108.639 253.578,102.362 248.346,99.390 242.010 C 98.516 240.145,97.028 237.175,96.083 235.410 C 91.439 226.727,91.362 225.817,94.826 220.638 C 98.494 215.154,98.359 214.245,93.077 208.833 C 86.854 202.456,85.917 199.013,88.660 192.600 L 90.200 189.000 90.200 182.171 L 90.200 175.341 92.300 171.092 C 95.141 165.343,95.063 163.528,91.887 161.468 C 88.771 159.448,86.612 160.421,83.777 165.123 C 79.732 171.831,79.122 171.887,71.880 166.200 C 68.290 163.382,68.172 162.886,70.700 161.264 C 73.457 159.495,75.017 157.720,76.205 155.000 C 76.782 153.680,77.640 151.728,78.113 150.662 C 79.456 147.634,81.565 146.743,83.646 148.326 C 87.363 151.153,89.840 150.967,91.262 147.753 C 93.255 143.248,89.210 137.557,83.907 137.403 C 79.271 137.268,78.531 134.042,82.095 129.496 C 83.183 128.108,83.255 127.815,83.029 125.696 C 82.306 118.916,82.305 119.006,83.091 118.035 L 83.845 117.104 86.651 118.008 C 91.100 119.441,91.739 118.738,92.727 111.321 C 92.993 109.322,93.717 106.705,94.582 104.616 C 96.802 99.252,96.376 98.670,90.386 98.888 L 86.701 99.022 87.012 96.411 C 87.183 94.975,87.340 91.730,87.361 89.200 C 87.404 84.067,87.856 82.743,90.774 79.202 C 91.591 78.211,93.108 76.198,94.144 74.728 C 97.975 69.300,101.429 67.362,106.100 68.020 C 106.705 68.105,107.200 68.315,107.200 68.487 C 107.200 68.659,107.650 68.800,108.200 68.800 C 109.479 68.800,109.458 68.489,107.984 65.568 C 106.773 63.169,106.770 63.144,107.224 59.879 C 108.021 54.159,107.931 49.167,107.005 47.786 C 106.568 47.134,106.028 46.308,105.805 45.950 C 102.325 40.366,101.761 39.908,98.000 39.607 C 94.658 39.341,94.390 38.517,96.728 35.704 C 99.624 32.219,99.799 31.639,99.804 25.522 L 99.809 20.043 100.969 18.832 C 103.645 16.039,106.835 15.868,112.078 18.235 C 119.270 21.483,131.934 20.661,133.993 16.814 C 136.802 11.564,124.275 8.294,112.928 11.316 C 107.579 12.740,105.350 12.708,100.718 11.144 C 97.189 9.952,96.583 9.875,88.796 9.627 C 84.284 9.484,80.387 9.239,80.136 9.084 C 78.715 8.206,60.108 7.158,54.200 7.623 C 47.980 8.112,46.508 8.003,40.200 6.586 C 37.292 5.932,25.899 4.847,23.800 5.024 C 23.140 5.080,20.710 5.345,18.400 5.614 C 12.040 6.355,9.205 5.182,8.593 1.559 L 8.324 -0.036 6.443 0.050 C 5.409 0.097,4.357 0.356,4.105 0.625 M44.586 12.831 C 53.048 14.395,63.200 23.436,63.200 29.407 C 63.200 34.894,58.061 36.633,54.340 32.406 C 50.852 28.443,48.606 27.950,43.287 29.976 C 38.329 31.865,37.782 31.880,33.753 30.237 C 27.817 27.817,25.558 28.256,21.417 32.635 C 16.287 38.061,10.756 31.943,14.376 24.847 C 18.152 17.445,34.459 10.959,44.586 12.831 M265.560 21.780 C 266.924 22.484,267.795 23.750,268.196 25.606 C 269.494 31.609,276.851 38.000,282.463 38.000 L 285.603 38.000 287.554 39.900 C 289.644 41.935,290.292 43.526,291.213 48.877 C 292.238 54.828,293.930 56.000,301.495 56.000 C 312.543 56.000,313.749 55.139,312.378 48.239 C 311.705 44.855,312.244 43.476,314.318 43.274 C 317.071 43.006,318.914 46.434,318.744 51.507 C 318.695 52.988,318.801 55.827,318.981 57.816 C 319.355 61.957,318.981 63.139,316.763 64.814 C 312.559 67.989,311.200 70.099,311.200 73.450 C 311.200 75.696,311.249 75.746,313.268 75.616 C 315.838 75.449,317.333 77.017,319.181 81.817 C 322.854 91.355,326.975 93.161,334.035 88.328 C 337.504 85.953,337.969 85.872,341.556 87.018 C 343.230 87.552,344.921 87.992,345.314 87.995 C 345.707 87.998,346.463 88.285,346.994 88.633 C 347.526 88.981,348.374 89.320,348.880 89.386 C 351.275 89.698,351.893 91.640,350.220 93.600 C 349.348 94.623,349.011 97.211,349.117 102.098 C 349.351 112.990,345.131 116.799,332.827 116.801 C 327.264 116.801,316.574 118.955,306.895 122.025 C 302.428 123.442,299.504 123.528,295.000 122.374 C 293.240 121.923,291.450 121.505,291.023 121.446 C 290.595 121.386,290.175 121.125,290.089 120.866 C 290.002 120.607,289.782 120.488,289.598 120.601 C 289.415 120.715,289.001 120.544,288.679 120.221 C 288.356 119.899,287.487 119.278,286.746 118.841 C 283.567 116.965,279.207 114.561,276.699 113.300 C 274.821 112.357,273.397 111.251,272.030 109.672 C 267.615 104.573,263.405 99.284,262.099 97.195 C 260.969 95.387,260.150 94.653,257.657 93.217 C 248.093 87.709,245.959 83.850,248.374 76.433 C 249.754 72.193,249.936 69.234,249.004 66.164 C 247.653 61.709,248.631 57.353,251.652 54.372 C 253.949 52.106,254.488 51.038,255.372 47.000 C 255.757 45.240,256.335 42.840,256.657 41.667 C 257.321 39.245,257.409 36.588,256.998 31.400 C 256.385 23.651,260.418 19.120,265.560 21.780 M33.200 34.200 C 36.759 35.411,39.494 35.469,42.600 34.400 C 47.665 32.657,49.566 33.850,48.963 38.393 C 48.598 41.144,48.979 42.683,50.755 45.635 C 55.436 53.415,50.977 58.455,43.000 54.400 C 40.672 53.217,39.370 52.800,38.000 52.800 C 36.630 52.800,35.328 53.217,33.000 54.400 C 27.932 56.976,25.252 56.457,23.784 52.613 C 22.956 50.445,23.214 48.678,24.671 46.540 C 26.705 43.556,27.182 42.012,27.191 38.376 C 27.200 34.956,27.537 33.929,28.800 33.478 C 29.821 33.113,30.172 33.170,33.200 34.200 M368.804 33.600 C 369.961 33.600,370.400 34.960,370.400 38.544 C 370.400 41.693,370.542 42.490,371.373 44.015 C 374.748 50.204,374.870 50.725,373.604 53.515 C 372.096 56.837,369.676 57.055,364.354 54.349 C 360.226 52.250,358.674 52.267,354.547 54.454 C 347.147 58.374,341.892 53.089,346.469 46.328 C 348.695 43.038,348.800 42.698,348.800 38.758 C 348.800 33.383,349.866 32.634,355.000 34.400 C 358.034 35.444,361.125 35.386,364.600 34.220 C 366.140 33.704,367.640 33.353,367.933 33.441 C 368.226 33.528,368.618 33.600,368.804 33.600 M130.958 41.506 C 130.046 42.112,129.593 44.772,129.644 49.219 C 129.678 52.241,129.477 54.685,129.054 56.400 C 127.460 62.855,129.154 64.662,134.179 61.867 C 138.210 59.624,138.751 58.637,139.056 52.967 L 139.314 48.158 137.957 46.602 C 133.972 42.031,132.156 40.709,130.958 41.506 M144.947 44.228 C 143.347 45.925,143.285 46.306,144.557 46.625 C 146.421 47.093,149.131 44.927,148.556 43.429 C 148.128 42.315,146.388 42.701,144.947 44.228 M333.761 44.158 C 336.770 45.415,336.965 47.013,335.031 54.600 C 333.541 60.446,333.303 60.668,331.324 58.073 C 326.688 51.996,328.449 41.939,333.761 44.158 M44.748 59.947 C 51.272 62.570,51.909 63.282,49.959 65.761 C 45.377 71.587,28.887 71.167,25.217 65.131 C 23.976 63.091,24.560 62.380,28.639 60.965 C 30.598 60.285,33.010 59.356,34.000 58.898 C 37.010 57.509,39.221 57.725,44.748 59.947 M364.281 59.340 C 365.996 60.077,368.300 61.035,369.400 61.469 C 372.106 62.537,372.915 63.912,371.763 65.482 C 367.216 71.679,352.451 71.981,347.035 65.987 C 344.857 63.576,345.483 62.421,349.600 61.248 C 351.030 60.840,353.460 59.956,355.000 59.283 C 358.699 57.666,360.408 57.676,364.281 59.340 M375.500 86.655 C 377.182 88.504,376.579 91.933,373.702 96.885 C 371.963 99.877,371.873 100.188,371.615 104.106 C 371.206 110.311,369.898 112.246,366.344 111.904 C 362.949 111.578,362.400 109.820,364.200 105.038 C 365.575 101.385,365.503 99.626,363.854 96.638 C 361.788 92.896,361.722 92.189,363.294 90.674 C 368.424 85.729,373.222 84.149,375.500 86.655 M353.429 90.171 C 354.076 90.819,354.210 91.777,353.600 91.400 C 353.380 91.264,353.200 91.343,353.200 91.576 C 353.200 92.216,352.407 92.084,352.145 91.400 C 351.625 90.046,352.482 89.225,353.429 90.171 M26.588 103.230 C 28.143 104.793,26.506 111.737,24.476 112.183 C 20.298 113.101,19.485 108.804,22.878 103.737 C 23.824 102.324,25.463 102.100,26.588 103.230 M254.612 121.307 C 257.473 124.168,257.734 127.529,255.340 130.700 C 252.232 134.819,246.747 127.599,248.828 122.127 C 250.001 119.040,252.054 118.749,254.612 121.307 M362.492 276.425 C 354.261 276.832,351.778 277.305,345.673 279.625 C 343.323 280.518,339.960 281.709,338.200 282.271 C 327.073 285.823,321.626 289.001,311.084 298.088 C 303.023 305.036,299.765 308.426,296.750 313.000 C 295.300 315.200,293.078 318.440,291.814 320.200 C 288.009 325.495,286.525 329.059,285.151 336.200 C 284.728 338.400,283.856 341.730,283.214 343.600 C 281.565 348.399,281.119 352.607,280.900 365.400 C 280.496 388.969,280.148 387.924,288.224 387.441 C 290.901 387.281,293.439 387.340,294.545 387.588 C 304.945 389.918,323.826 388.472,330.588 384.827 L 334.364 382.791 336.082 383.427 C 342.656 385.856,345.040 386.080,347.683 384.514 C 349.951 383.171,351.454 379.227,350.433 377.295 C 349.580 375.679,348.720 371.846,348.926 370.577 C 349.116 369.408,351.189 366.594,351.206 367.482 C 351.209 367.657,351.344 367.616,351.506 367.390 C 352.046 366.637,355.374 365.277,357.709 364.855 C 358.980 364.626,360.297 364.160,360.638 363.819 C 360.979 363.479,361.380 363.200,361.531 363.200 C 361.814 363.200,362.531 361.678,362.993 360.094 C 363.882 357.050,357.115 350.452,353.858 351.187 C 352.583 351.474,350.400 353.262,350.400 354.018 C 350.400 354.228,350.263 354.400,350.096 354.400 C 349.929 354.400,349.344 354.811,348.796 355.314 C 346.115 357.774,343.112 358.374,340.389 356.994 C 338.418 355.996,337.765 355.218,335.434 351.091 C 332.165 345.303,327.339 343.670,323.569 347.076 C 321.702 348.763,321.648 349.372,323.038 353.052 C 324.073 355.793,324.102 356.435,323.366 360.243 C 322.966 362.313,324.175 362.333,326.144 360.291 C 329.123 357.202,332.134 356.616,334.513 358.664 C 334.983 359.069,335.608 359.580,335.903 359.800 C 336.197 360.020,336.745 360.484,337.119 360.830 C 337.494 361.177,338.520 361.887,339.400 362.409 C 340.280 362.931,341.090 363.478,341.200 363.625 C 341.310 363.772,341.805 364.019,342.300 364.173 C 342.795 364.328,343.200 364.712,343.200 365.027 C 343.200 365.342,343.560 365.960,344.000 366.400 C 348.712 371.112,336.399 376.082,328.626 372.606 C 325.461 371.191,323.077 370.946,320.305 371.752 C 316.732 372.791,311.224 372.081,310.618 370.503 C 310.339 369.777,311.078 368.400,311.746 368.400 C 312.031 368.400,313.195 367.545,314.332 366.499 C 317.385 363.692,317.274 362.748,313.450 358.985 C 310.107 355.696,309.592 354.393,309.663 349.400 C 309.689 347.606,309.463 346.031,309.036 345.014 C 307.522 341.414,307.968 340.421,312.408 337.504 C 314.348 336.229,315.320 335.246,316.270 333.600 C 318.287 330.105,319.068 329.313,322.032 327.756 C 325.190 326.096,327.831 323.438,330.647 319.084 C 331.658 317.522,334.052 314.704,335.968 312.822 C 340.873 308.002,342.417 304.691,341.574 300.800 C 340.657 296.573,340.665 296.257,341.711 295.279 C 343.044 294.033,344.563 294.406,345.193 296.135 C 345.925 298.141,348.709 303.598,350.215 305.976 C 352.078 308.920,352.277 310.285,351.281 313.318 C 350.202 316.602,349.600 319.640,349.600 321.799 C 349.600 322.766,349.038 325.111,348.351 327.009 C 346.860 331.130,346.940 332.955,348.708 335.147 C 353.357 340.916,357.762 336.391,356.808 326.828 C 356.554 324.282,356.418 319.974,356.506 317.254 L 356.666 312.307 358.033 311.142 C 364.862 305.318,365.006 304.705,360.780 299.400 C 356.953 294.595,357.032 288.800,360.965 285.799 C 364.200 283.332,366.924 283.109,375.560 284.603 C 383.807 286.030,385.597 285.763,389.140 282.578 C 395.381 276.967,387.640 275.179,362.492 276.425 M53.314 315.429 C 63.732 318.129,71.931 329.951,67.157 335.388 C 64.870 337.993,62.139 337.569,59.361 334.178 C 56.377 330.537,53.474 329.983,48.472 332.100 C 44.566 333.753,42.022 333.795,38.639 332.261 C 33.367 329.870,31.221 330.231,27.498 334.134 L 24.765 337.000 22.400 336.986 C 15.437 336.946,14.778 328.330,21.301 322.624 C 23.780 320.456,30.396 317.024,33.230 316.436 C 40.894 314.846,49.413 314.419,53.314 315.429 M379.049 330.215 C 378.350 332.038,379.117 334.099,380.170 333.225 C 381.023 332.517,380.965 331.073,380.049 330.245 C 379.362 329.623,379.278 329.620,379.049 330.215 M38.600 336.400 C 41.552 337.416,44.835 337.418,48.064 336.405 C 53.165 334.806,53.716 335.234,54.004 341.017 C 54.199 344.914,54.280 345.220,55.659 347.258 C 58.229 351.054,58.584 352.646,57.455 355.313 C 55.968 358.826,53.462 359.198,48.451 356.647 C 43.790 354.276,42.580 354.246,38.353 356.400 C 30.482 360.410,26.004 355.457,30.651 347.881 C 32.117 345.491,32.178 345.246,32.322 341.200 C 32.532 335.294,33.417 334.617,38.600 336.400 M370.749 353.862 C 369.601 355.248,370.081 358.708,371.622 360.159 C 374.937 363.282,377.099 361.644,375.263 357.400 C 373.519 353.368,372.088 352.246,370.749 353.862 M49.400 361.955 C 56.387 364.898,56.000 364.663,56.000 365.962 C 56.000 370.867,41.809 373.933,34.800 370.542 C 28.360 367.428,27.975 365.031,33.600 363.083 C 35.250 362.511,37.590 361.584,38.800 361.023 C 41.891 359.588,44.277 359.798,49.400 361.955 M11.072 370.434 C 8.706 374.045,11.013 383.499,14.807 385.740 C 15.602 386.210,17.396 386.602,19.729 386.816 C 21.748 387.001,24.030 387.347,24.800 387.586 C 27.548 388.437,33.200 388.144,33.200 387.150 C 33.200 386.657,27.926 384.200,26.000 383.796 C 22.498 383.062,20.094 380.948,17.966 376.732 C 16.681 374.188,13.459 370.400,12.579 370.400 C 12.297 370.400,11.993 370.179,11.903 369.908 C 11.804 369.612,11.473 369.821,11.072 370.434 M361.005 373.668 C 358.248 375.836,360.912 381.351,364.575 381.060 C 368.410 380.755,368.741 378.459,365.440 375.062 C 363.377 372.940,362.343 372.615,361.005 373.668 " stroke="none" fill="#92948e" fill-rule="evenodd"></path><path id="path1" d="M14.070 0.642 C 14.889 1.460,18.597 1.464,20.465 0.648 C 21.748 0.088,21.637 0.064,17.614 0.033 C 13.772 0.003,13.481 0.053,14.070 0.642 M28.200 0.512 C 28.715 0.826,30.852 1.008,34.200 1.023 C 37.698 1.039,39.716 1.219,40.365 1.572 C 43.165 3.097,52.929 3.844,58.000 2.921 C 58.990 2.741,60.970 2.730,62.400 2.897 C 63.830 3.065,72.290 3.290,81.200 3.399 C 94.768 3.565,97.855 3.710,100.200 4.292 C 103.635 5.144,109.191 5.199,116.000 4.449 C 122.369 3.747,126.909 4.043,133.000 5.556 C 138.326 6.880,139.752 7.060,149.000 7.578 C 155.404 7.937,164.200 7.601,168.276 6.842 C 173.576 5.856,182.612 5.549,190.850 6.078 C 200.019 6.665,210.647 6.628,217.800 5.982 C 220.440 5.743,231.690 5.499,242.800 5.439 C 260.476 5.343,263.400 5.240,266.200 4.614 C 269.135 3.958,270.006 3.941,276.731 4.410 C 281.788 4.763,286.008 4.816,290.331 4.581 C 293.779 4.393,300.920 4.291,306.200 4.353 C 311.480 4.415,317.751 4.274,320.135 4.040 C 323.118 3.747,326.298 3.738,330.335 4.012 C 336.510 4.432,342.469 4.168,354.600 2.937 C 359.911 2.398,361.860 2.365,366.056 2.739 C 376.411 3.664,387.499 2.811,389.241 0.956 L 390.139 0.000 208.770 0.012 C 65.911 0.022,27.570 0.128,28.200 0.512 M351.242 16.233 C 344.526 18.039,337.118 25.374,339.779 27.582 C 340.238 27.963,340.976 27.849,343.346 27.031 C 347.268 25.678,350.652 25.658,354.533 26.967 C 359.230 28.552,359.537 28.560,363.615 27.216 C 368.125 25.730,370.581 25.427,374.000 25.935 C 377.717 26.487,378.118 26.003,376.416 23.029 C 372.939 16.950,360.780 13.668,351.242 16.233 M35.453 16.442 C 29.206 17.094,25.253 18.798,21.996 22.242 C 19.112 25.291,19.148 26.646,22.100 26.152 C 26.244 25.458,30.357 25.770,33.200 26.994 C 36.371 28.360,39.196 28.438,42.524 27.254 C 46.372 25.884,49.201 25.521,52.236 26.006 C 56.030 26.612,56.601 25.284,53.972 21.965 C 50.553 17.648,43.642 15.587,35.453 16.442 M152.600 127.429 C 150.831 128.349,149.802 129.431,147.907 132.366 C 145.689 135.799,145.793 135.670,142.959 138.550 C 137.757 143.837,138.721 151.323,145.400 157.511 C 149.008 160.854,149.341 160.716,149.638 155.763 C 149.903 151.326,151.699 143.538,152.811 142.000 C 153.208 141.450,154.497 140.010,155.675 138.800 C 161.093 133.235,158.669 124.273,152.600 127.429 M39.200 318.403 C 32.320 319.203,25.912 322.715,23.768 326.862 C 22.404 329.499,23.808 330.174,27.800 328.800 C 31.129 327.655,34.115 327.767,38.465 329.200 C 42.785 330.624,44.070 330.677,47.110 329.556 C 51.804 327.825,54.289 327.439,57.516 327.941 C 61.698 328.591,62.242 327.799,60.020 324.295 C 56.872 319.333,49.399 317.218,39.200 318.403 " stroke="none" fill="#d4d7d2" fill-rule="evenodd"></path><path id="path2" d="M10.385 0.772 C 11.331 2.539,13.216 3.385,15.988 3.288 C 28.139 2.858,38.063 3.213,42.303 4.230 C 47.144 5.390,50.592 5.648,54.400 5.137 C 57.852 4.674,62.696 4.690,66.468 5.176 C 68.156 5.394,75.446 5.681,82.668 5.813 C 94.072 6.022,96.300 6.167,99.600 6.911 C 104.327 7.977,108.800 8.019,116.200 7.065 C 122.796 6.215,126.295 6.395,131.445 7.850 C 137.507 9.563,140.892 10.317,143.800 10.600 C 145.340 10.750,148.220 11.120,150.200 11.423 C 157.463 12.532,165.269 12.299,169.396 10.849 C 177.083 8.149,185.528 7.902,197.120 10.040 C 203.336 11.186,210.694 11.080,215.600 9.772 C 221.124 8.301,227.280 7.958,246.200 8.069 C 259.479 8.147,263.461 8.051,265.200 7.612 C 266.826 7.201,271.055 7.030,281.400 6.956 C 350.142 6.463,348.317 6.510,355.251 5.049 C 358.109 4.447,361.954 4.508,367.930 5.249 C 370.111 5.519,372.852 5.590,374.530 5.420 C 376.109 5.260,379.290 5.062,381.600 4.979 C 387.810 4.758,393.039 3.306,391.862 2.129 C 391.746 2.013,391.815 1.486,392.016 0.959 C 392.532 -0.398,390.516 -0.401,389.241 0.956 C 387.499 2.811,376.411 3.664,366.056 2.739 C 361.860 2.365,359.911 2.398,354.600 2.937 C 342.469 4.168,336.510 4.432,330.335 4.012 C 326.298 3.738,323.118 3.747,320.135 4.040 C 317.751 4.274,311.480 4.415,306.200 4.353 C 300.920 4.291,293.779 4.393,290.331 4.581 C 286.008 4.816,281.788 4.763,276.731 4.410 C 270.006 3.941,269.135 3.958,266.200 4.614 C 263.400 5.240,260.476 5.343,242.800 5.439 C 231.690 5.499,220.440 5.743,217.800 5.982 C 210.647 6.628,200.019 6.665,190.850 6.078 C 182.612 5.549,173.576 5.856,168.276 6.842 C 164.200 7.601,155.404 7.937,149.000 7.578 C 139.752 7.060,138.326 6.880,133.000 5.556 C 126.909 4.043,122.369 3.747,116.000 4.449 C 109.191 5.199,103.635 5.144,100.200 4.292 C 97.855 3.710,94.768 3.565,81.200 3.399 C 72.290 3.290,63.830 3.065,62.400 2.897 C 60.970 2.730,58.990 2.741,58.000 2.921 C 52.929 3.844,43.165 3.097,40.365 1.572 C 39.716 1.219,37.698 1.039,34.200 1.023 C 30.813 1.008,28.695 0.826,28.126 0.500 C 26.912 -0.195,22.399 -0.126,20.625 0.615 C 18.615 1.455,14.961 1.470,14.046 0.642 C 12.937 -0.362,9.837 -0.251,10.385 0.772 M352.862 14.054 C 343.035 15.238,332.544 26.181,336.982 30.618 C 338.345 31.982,339.486 31.852,342.340 30.008 C 347.168 26.887,349.607 26.619,355.246 28.589 C 358.964 29.888,360.297 29.862,364.419 28.408 C 369.577 26.589,372.323 26.847,376.584 29.549 C 379.769 31.569,381.600 30.911,381.600 27.747 C 381.600 23.782,374.495 16.733,368.781 15.029 C 365.602 14.080,357.009 13.554,352.862 14.054 M32.827 15.214 C 24.131 17.024,15.982 23.178,15.855 28.032 C 15.771 31.237,17.648 31.580,21.777 29.114 C 25.661 26.794,28.529 26.585,32.830 28.306 C 37.573 30.203,37.765 30.209,42.639 28.575 C 48.322 26.669,50.384 26.773,54.340 29.163 C 58.572 31.721,60.739 30.631,59.628 26.504 C 57.483 18.537,44.049 12.878,32.827 15.214 M364.715 16.014 C 370.365 16.931,374.265 19.269,376.416 23.029 C 378.118 26.003,377.717 26.487,374.000 25.935 C 370.581 25.427,368.125 25.730,363.615 27.216 C 359.537 28.560,359.230 28.552,354.533 26.967 C 350.652 25.658,347.268 25.678,343.346 27.031 C 337.873 28.921,337.542 25.925,342.698 21.164 C 348.095 16.181,355.322 14.490,364.715 16.014 M46.499 17.213 C 54.120 19.542,59.047 27.094,52.236 26.006 C 49.201 25.521,46.372 25.884,42.524 27.254 C 39.196 28.438,36.371 28.360,33.200 26.994 C 30.357 25.770,26.244 25.458,22.100 26.152 C 16.088 27.158,23.141 19.415,30.053 17.421 C 35.083 15.969,42.139 15.880,46.499 17.213 M169.800 53.677 C 169.360 53.925,168.856 54.370,168.680 54.665 C 168.504 54.959,168.103 55.200,167.788 55.200 C 167.000 55.200,166.653 56.863,166.914 59.387 C 167.146 61.637,167.873 63.200,168.689 63.200 C 168.961 63.200,169.306 63.682,169.454 64.272 C 170.191 67.208,177.208 68.760,177.722 66.100 C 177.839 65.495,178.110 64.325,178.325 63.500 C 178.579 62.524,178.579 61.476,178.325 60.500 C 178.110 59.675,177.837 58.460,177.718 57.800 C 177.485 56.504,176.544 55.201,175.838 55.198 C 175.597 55.197,174.514 54.747,173.432 54.198 C 171.225 53.078,170.932 53.036,169.800 53.677 M34.995 61.101 C 30.296 62.769,28.457 64.425,29.900 65.690 C 33.303 68.674,42.500 68.736,45.441 65.795 C 48.282 62.955,40.115 59.285,34.995 61.101 M357.200 61.073 C 354.910 61.876,351.211 63.795,351.026 64.277 C 349.608 67.972,363.045 69.512,366.900 66.096 C 369.614 63.691,361.589 59.535,357.200 61.073 M170.747 75.203 C 168.764 76.251,166.123 79.318,164.779 82.132 C 162.851 86.170,161.926 86.644,158.400 85.400 C 155.396 84.340,152.035 85.279,150.616 87.574 C 150.471 87.808,150.048 88.004,149.676 88.009 C 149.304 88.014,148.305 88.644,147.456 89.409 C 146.607 90.174,145.752 90.800,145.556 90.800 C 145.360 90.800,145.200 91.146,145.200 91.569 C 145.200 91.992,144.660 92.878,144.000 93.538 C 142.948 94.591,142.800 95.019,142.800 97.016 C 142.800 99.105,142.733 99.276,141.991 99.082 C 141.546 98.965,140.621 99.150,139.935 99.493 C 139.248 99.835,137.542 100.234,136.143 100.378 C 134.743 100.523,133.383 100.857,133.119 101.121 C 132.208 102.032,128.266 101.001,127.419 99.631 C 126.086 97.474,121.200 98.251,121.200 100.621 C 121.200 101.271,116.731 104.400,115.802 104.400 C 113.748 104.400,108.489 108.423,108.323 110.120 C 108.216 111.215,107.966 111.460,106.400 112.002 C 103.733 112.925,103.444 113.792,103.327 121.200 C 103.195 129.619,102.155 132.800,99.535 132.800 C 98.554 132.800,97.232 134.295,97.213 135.424 C 97.195 136.574,99.746 139.185,99.938 138.212 C 100.193 136.918,107.266 138.174,108.559 139.744 C 108.802 140.038,110.080 140.601,111.400 140.994 C 116.641 142.554,117.200 143.778,114.200 147.116 C 113.210 148.217,112.400 149.243,112.400 149.397 C 112.400 149.551,111.663 150.515,110.761 151.539 C 109.860 152.562,108.735 154.251,108.261 155.292 C 107.788 156.332,107.175 157.187,106.900 157.192 C 105.446 157.216,110.755 165.179,112.236 165.195 C 113.092 165.205,114.757 173.394,113.963 173.691 C 113.557 173.843,114.399 181.369,114.841 181.533 C 115.403 181.742,115.246 183.552,114.400 186.600 C 113.973 188.140,113.618 189.535,113.612 189.700 C 113.605 189.865,113.369 190.000,113.086 190.000 C 112.790 190.000,112.382 190.889,112.123 192.100 C 111.877 193.255,111.461 195.066,111.200 196.125 C 109.691 202.235,111.058 206.967,114.903 208.945 C 118.711 210.904,120.302 210.808,122.091 208.513 C 127.253 201.891,130.331 200.541,132.109 204.123 C 133.840 207.609,134.453 209.041,134.776 210.360 C 135.825 214.637,137.034 216.957,139.500 219.427 C 140.655 220.584,141.600 221.726,141.600 221.965 C 141.600 222.204,142.010 222.400,142.511 222.400 C 143.012 222.400,143.777 222.636,144.211 222.924 C 146.976 224.761,150.392 224.553,152.048 222.448 C 153.043 221.183,153.012 220.883,151.559 217.710 C 150.169 214.675,149.780 212.930,150.159 211.422 C 150.477 210.156,155.080 209.904,157.263 211.033 C 158.834 211.845,160.131 211.517,162.265 209.768 C 163.184 209.015,164.054 208.400,164.200 208.400 C 164.346 208.400,165.544 207.768,166.863 206.995 C 168.181 206.222,169.411 205.683,169.596 205.798 C 169.947 206.015,172.918 202.785,172.631 202.498 C 172.541 202.408,172.900 201.404,173.430 200.267 C 174.713 197.510,174.720 194.369,173.450 191.068 C 170.301 182.883,170.876 177.614,174.920 177.593 C 177.664 177.579,181.387 175.822,181.523 174.477 C 181.591 173.807,181.906 173.044,182.223 172.781 C 182.583 172.483,182.800 171.560,182.800 170.335 C 182.800 166.677,183.953 165.200,186.808 165.200 L 189.200 165.200 189.199 163.500 C 189.196 160.478,186.704 157.200,184.410 157.200 C 180.370 157.200,181.451 152.442,186.043 150.013 C 191.067 147.356,191.344 144.989,186.982 141.988 C 185.282 140.818,185.200 140.671,185.200 138.804 L 185.200 136.846 186.850 136.723 C 190.207 136.473,194.071 129.437,191.200 128.802 C 189.653 128.460,187.617 127.173,185.502 125.200 L 183.573 123.400 182.591 118.000 C 181.815 113.734,181.598 111.130,181.557 105.600 C 181.493 96.992,181.363 96.242,179.899 96.074 C 178.550 95.918,178.503 95.718,178.227 89.000 C 177.764 77.751,177.543 75.601,176.847 75.587 C 176.491 75.580,175.851 75.310,175.424 74.987 C 174.370 74.190,172.500 74.277,170.747 75.203 M122.985 87.716 C 122.738 88.700,123.368 90.800,123.910 90.800 C 124.567 90.800,125.200 89.818,125.200 88.800 C 125.200 86.902,123.410 86.026,122.985 87.716 M280.821 95.246 C 280.139 95.660,279.321 96.000,279.004 96.000 C 277.529 96.000,277.165 99.082,278.402 101.110 C 281.000 105.371,286.780 102.481,285.826 97.397 C 285.639 96.400,285.352 96.000,284.825 96.000 C 284.418 96.000,283.992 95.755,283.877 95.456 C 283.527 94.545,282.131 94.449,280.821 95.246 M156.923 127.515 C 159.770 130.661,159.280 135.097,155.675 138.800 C 154.497 140.010,153.208 141.450,152.811 142.000 C 151.699 143.538,149.903 151.326,149.638 155.763 C 149.341 160.716,149.008 160.854,145.400 157.511 C 138.721 151.323,137.757 143.837,142.959 138.550 C 145.793 135.670,145.689 135.799,147.907 132.366 C 151.095 127.430,154.963 125.349,156.923 127.515 M118.000 143.582 C 118.000 144.272,117.266 145.200,116.720 145.200 C 116.544 145.200,116.400 144.362,116.400 143.338 C 116.400 141.501,116.411 141.486,117.200 142.200 C 117.640 142.598,118.000 143.220,118.000 143.582 M140.404 167.004 C 141.489 167.985,142.023 172.168,141.451 175.200 L 140.961 177.800 136.880 177.914 L 132.800 178.028 132.794 182.314 C 132.787 186.882,132.698 187.218,131.300 187.954 C 127.478 189.967,126.483 182.061,130.085 178.311 C 132.056 176.260,132.399 175.584,132.407 173.726 C 132.429 168.761,137.570 164.439,140.404 167.004 M190.137 168.640 C 188.676 169.306,187.600 170.178,187.600 170.695 C 187.600 170.919,187.330 171.326,187.000 171.600 C 186.232 172.237,186.220 174.885,186.977 176.540 C 187.294 177.233,187.755 178.580,188.001 179.533 C 188.317 180.758,188.615 181.203,189.014 181.050 C 189.325 180.931,189.745 181.131,189.949 181.494 C 190.332 182.180,194.519 178.876,196.996 175.931 C 198.727 173.874,198.234 169.600,196.266 169.600 C 195.768 169.600,195.158 169.398,194.912 169.152 C 194.130 168.370,191.376 168.075,190.137 168.640 M157.200 219.600 C 157.200 220.040,157.284 220.400,157.386 220.400 C 157.488 220.400,157.765 220.040,158.000 219.600 C 158.342 218.961,158.304 218.800,157.814 218.800 C 157.467 218.800,157.200 219.147,157.200 219.600 M41.289 316.849 C 28.552 317.897,17.862 325.294,20.042 331.550 C 20.951 334.157,22.878 334.231,26.579 331.799 C 31.216 328.754,32.868 328.632,39.368 330.860 C 43.455 332.261,44.117 332.230,48.805 330.422 C 53.557 328.589,56.615 328.905,60.431 331.622 C 64.663 334.636,66.960 332.026,64.553 326.937 C 62.111 321.775,56.119 317.608,49.996 316.813 C 46.669 316.382,46.992 316.380,41.289 316.849 M52.548 318.943 C 56.728 320.247,61.200 324.440,61.200 327.055 C 61.200 328.356,60.802 328.452,57.516 327.941 C 54.289 327.439,51.804 327.825,47.110 329.556 C 44.070 330.677,42.785 330.624,38.465 329.200 C 34.115 327.767,31.129 327.655,27.800 328.800 C 21.116 331.100,21.923 326.515,29.034 321.795 C 34.164 318.390,46.129 316.939,52.548 318.943 M40.400 363.035 C 31.905 365.678,33.489 369.800,43.000 369.800 C 52.414 369.800,53.926 364.895,45.087 363.029 C 42.581 362.500,42.117 362.501,40.400 363.035 " stroke="none" fill="#b7bcb4" fill-rule="evenodd"></path><path id="path3" d="M398.200 124.268 C 392.189 126.497,392.281 126.488,371.600 126.828 C 352.628 127.141,349.477 127.299,336.800 128.571 C 323.720 129.884,318.781 130.671,310.552 132.754 C 308.818 133.193,304.700 134.108,301.400 134.787 C 277.528 139.700,246.565 154.540,222.248 172.723 C 185.449 200.241,152.458 247.802,138.249 293.821 C 137.030 297.769,135.574 302.341,135.013 303.979 C 134.453 305.618,133.531 309.398,132.965 312.379 C 132.400 315.361,131.330 320.860,130.589 324.600 C 128.902 333.108,128.503 340.157,128.074 369.000 L 127.765 389.800 126.083 394.676 C 125.157 397.358,124.400 399.653,124.400 399.776 C 124.400 399.899,158.330 400.000,199.800 400.000 C 282.826 400.000,276.253 400.206,274.446 397.662 C 273.508 396.341,272.578 394.170,271.509 390.800 C 268.441 381.136,271.496 345.957,276.536 332.911 C 286.124 308.092,308.260 286.512,333.800 277.086 C 351.180 270.671,357.122 269.766,379.627 270.103 L 391.400 270.280 395.563 271.543 C 397.853 272.238,399.789 272.745,399.864 272.669 C 399.940 272.593,399.957 239.038,399.901 198.103 L 399.800 123.674 398.200 124.268 M319.600 223.000 C 319.600 223.318,318.541 224.400,318.229 224.400 C 317.920 224.400,317.936 222.197,318.248 221.886 C 318.501 221.632,319.600 222.537,319.600 223.000 M278.600 231.698 C 279.480 232.138,280.692 233.087,281.294 233.807 C 282.506 235.256,283.928 235.639,288.400 235.722 C 291.567 235.781,296.728 235.405,297.040 235.093 C 297.165 234.968,297.613 235.161,298.035 235.523 C 299.036 236.380,298.835 237.986,297.276 241.600 C 297.038 242.150,296.727 244.130,296.584 246.000 C 296.344 249.150,295.852 250.780,294.150 254.062 C 293.848 254.646,293.600 255.480,293.600 255.916 C 293.600 256.779,292.377 257.739,290.800 258.114 C 290.250 258.245,288.963 258.554,287.940 258.800 C 286.692 259.100,286.016 259.495,285.884 260.000 C 285.776 260.414,285.038 261.024,284.244 261.356 C 283.450 261.688,282.203 262.415,281.473 262.972 C 279.870 264.194,274.942 264.368,274.637 263.213 C 274.547 262.876,274.365 262.107,274.231 261.505 C 274.065 260.759,273.493 260.158,272.437 259.619 C 271.109 258.942,270.819 258.546,270.416 256.868 C 269.655 253.695,267.108 251.523,264.540 251.856 C 260.039 252.440,259.771 255.694,263.790 260.960 C 264.566 261.976,265.200 262.948,265.200 263.120 C 265.200 263.818,268.681 266.737,269.800 266.977 C 270.931 267.219,272.800 270.104,272.800 271.607 C 272.800 271.849,272.980 271.936,273.200 271.800 C 273.915 271.358,273.718 282.204,273.000 282.800 C 272.670 283.074,272.400 283.484,272.400 283.711 C 272.400 284.750,270.326 286.800,269.280 286.795 C 267.709 286.787,266.400 286.370,266.400 285.879 C 266.400 284.328,263.926 283.255,261.715 283.848 C 257.999 284.845,258.444 295.470,262.348 298.962 C 263.519 300.009,263.058 302.899,261.575 303.816 C 261.369 303.943,261.200 304.392,261.200 304.814 C 261.200 305.236,260.841 306.170,260.401 306.890 C 259.962 307.611,259.600 308.830,259.596 309.600 C 259.592 310.370,259.366 311.392,259.094 311.871 C 258.822 312.349,258.105 313.587,257.500 314.621 C 256.895 315.655,256.400 316.936,256.400 317.468 C 256.400 318.000,255.968 318.901,255.439 319.471 C 254.911 320.041,254.380 321.001,254.259 321.605 C 254.138 322.209,253.760 322.982,253.420 323.323 C 253.079 323.664,252.800 324.309,252.800 324.757 C 252.800 325.204,252.440 326.484,252.000 327.600 C 251.560 328.716,251.200 330.343,251.200 331.215 C 251.200 332.704,251.128 332.800,250.020 332.800 C 249.371 332.800,248.696 333.025,248.520 333.300 C 247.655 334.651,246.959 334.820,243.981 334.397 C 241.990 334.115,240.927 334.113,240.649 334.391 C 240.424 334.616,239.752 334.800,239.156 334.800 C 238.560 334.800,236.121 335.679,233.736 336.753 C 229.627 338.605,227.483 339.218,223.093 339.799 C 217.624 340.522,213.600 345.366,213.600 351.227 C 213.600 352.071,211.905 353.236,211.258 352.836 C 210.314 352.252,208.397 352.881,207.567 354.046 C 207.115 354.681,206.540 355.200,206.289 355.200 C 206.037 355.200,204.738 355.767,203.401 356.460 C 200.993 357.709,198.000 357.887,198.000 356.782 C 198.000 356.572,197.664 356.400,197.252 356.400 C 196.699 356.400,196.440 356.010,196.257 354.900 C 195.688 351.460,195.895 350.610,197.776 348.647 C 199.670 346.670,200.353 344.467,199.852 341.960 C 199.587 340.637,196.792 337.600,195.838 337.600 C 195.512 337.600,195.010 337.266,194.723 336.857 C 194.435 336.449,193.777 335.981,193.261 335.818 C 192.375 335.538,191.486 334.886,190.100 333.500 C 188.819 332.219,188.000 331.185,188.000 330.849 C 188.000 330.656,187.752 330.292,187.448 330.040 C 187.145 329.788,186.789 329.044,186.657 328.387 C 186.526 327.730,186.065 326.699,185.632 326.096 C 185.199 325.493,184.654 323.927,184.421 322.615 C 184.187 321.303,183.737 320.085,183.421 319.908 C 183.105 319.731,182.726 318.780,182.578 317.793 C 182.430 316.807,182.150 316.000,181.955 316.000 C 181.343 316.000,181.520 309.316,182.138 309.079 C 182.434 308.966,182.892 308.001,183.157 306.936 C 183.422 305.871,183.824 304.410,184.049 303.688 C 184.275 302.967,184.562 301.393,184.686 300.191 C 184.810 298.989,185.156 297.802,185.456 297.554 C 185.755 297.305,186.000 296.864,186.000 296.573 C 186.000 296.281,186.728 294.638,187.618 292.922 C 188.508 291.205,189.415 289.010,189.632 288.045 C 189.850 287.080,190.382 285.841,190.814 285.291 C 191.246 284.742,191.600 283.776,191.600 283.146 C 191.600 282.516,191.760 282.000,191.956 282.000 C 192.151 282.000,192.972 280.605,193.781 278.900 C 194.589 277.195,195.670 275.350,196.183 274.800 C 196.696 274.250,197.236 273.229,197.383 272.530 C 197.583 271.580,197.964 271.151,198.899 270.825 C 199.586 270.586,200.430 270.159,200.774 269.876 C 201.384 269.375,204.814 267.950,206.781 267.379 C 207.880 267.060,208.800 266.269,208.800 265.643 C 208.800 265.415,209.160 265.035,209.600 264.800 C 210.150 264.506,210.400 263.962,210.400 263.062 C 210.400 262.342,210.664 261.404,210.987 260.976 C 211.310 260.549,211.580 259.919,211.587 259.575 C 211.650 256.472,222.814 252.607,224.800 255.000 C 225.074 255.330,225.810 255.600,226.435 255.600 C 227.061 255.600,228.424 256.140,229.464 256.800 C 230.505 257.460,231.756 258.000,232.245 258.000 C 232.734 258.000,233.203 258.209,233.288 258.465 C 233.538 259.215,234.750 259.187,234.992 258.426 C 235.114 258.042,235.642 257.498,236.167 257.218 C 236.691 256.937,237.434 256.012,237.817 255.163 C 238.200 254.313,238.883 253.501,239.334 253.357 C 240.231 253.073,241.565 251.657,241.587 250.968 C 241.594 250.730,242.050 250.294,242.600 250.000 C 243.150 249.706,243.600 249.305,243.600 249.110 C 243.600 248.076,249.094 243.490,250.800 243.100 C 251.350 242.974,252.250 242.759,252.800 242.621 C 253.350 242.484,254.250 242.305,254.800 242.223 C 256.717 241.939,258.000 241.511,258.000 241.157 C 258.000 240.960,258.258 240.800,258.573 240.800 C 258.888 240.800,259.259 240.445,259.397 240.010 C 259.535 239.576,260.066 238.891,260.579 238.488 C 261.091 238.085,261.823 236.762,262.206 235.548 C 263.024 232.953,264.685 231.925,269.200 231.217 C 274.817 230.337,276.001 230.398,278.600 231.698 M0.000 394.538 L 0.000 400.000 4.200 400.000 C 9.059 400.000,9.384 399.688,6.759 397.542 C 4.038 395.317,3.186 394.316,2.337 392.342 C 0.471 388.004,0.000 388.446,0.000 394.538 M398.754 392.902 C 398.179 393.396,397.308 394.389,396.820 395.109 C 396.332 395.829,395.273 396.756,394.466 397.170 C 393.660 397.584,392.596 398.389,392.103 398.961 L 391.205 400.000 395.603 400.000 L 400.000 400.000 400.000 396.000 C 400.000 393.800,399.955 392.001,399.900 392.002 C 399.845 392.003,399.329 392.408,398.754 392.902 " stroke="none" fill="#1d1d1c" fill-rule="evenodd"></path><path id="path4" d="M8.583 1.449 C 9.313 5.339,12.109 6.470,18.838 5.595 C 20.904 5.327,23.136 5.065,23.797 5.015 C 25.950 4.850,37.327 5.940,40.200 6.586 C 46.508 8.003,47.980 8.112,54.200 7.623 C 60.108 7.158,78.715 8.206,80.136 9.084 C 80.387 9.239,84.284 9.484,88.796 9.627 C 96.583 9.875,97.189 9.952,100.718 11.144 C 105.350 12.708,107.579 12.740,112.928 11.316 C 121.059 9.150,129.557 9.931,133.102 13.170 C 139.323 18.852,122.448 22.917,112.078 18.235 C 106.835 15.868,103.645 16.039,100.969 18.832 L 99.809 20.043 99.804 25.522 C 99.799 31.639,99.624 32.219,96.728 35.704 C 94.390 38.517,94.658 39.341,98.000 39.607 C 101.761 39.908,102.325 40.366,105.805 45.950 C 106.028 46.308,106.568 47.134,107.005 47.786 C 107.931 49.167,108.021 54.159,107.224 59.879 C 106.770 63.144,106.773 63.169,107.984 65.568 C 109.458 68.489,109.479 68.800,108.200 68.800 C 107.650 68.800,107.200 68.659,107.200 68.487 C 107.200 68.315,106.705 68.105,106.100 68.020 C 101.429 67.362,97.975 69.300,94.144 74.728 C 93.108 76.198,91.591 78.211,90.774 79.202 C 87.856 82.743,87.404 84.067,87.361 89.200 C 87.340 91.730,87.183 94.975,87.012 96.411 L 86.701 99.022 90.386 98.888 C 96.376 98.670,96.802 99.252,94.582 104.616 C 93.717 106.705,92.993 109.322,92.727 111.321 C 91.739 118.738,91.100 119.441,86.651 118.008 L 83.845 117.104 83.091 118.035 C 82.305 119.006,82.306 118.916,83.029 125.696 C 83.255 127.815,83.183 128.108,82.095 129.496 C 78.531 134.042,79.271 137.268,83.907 137.403 C 89.210 137.557,93.255 143.248,91.262 147.753 C 89.840 150.967,87.363 151.153,83.646 148.326 C 81.565 146.743,79.456 147.634,78.113 150.662 C 77.640 151.728,76.782 153.680,76.205 155.000 C 75.017 157.720,73.457 159.495,70.700 161.264 C 68.172 162.886,68.290 163.382,71.880 166.200 C 79.122 171.887,79.732 171.831,83.777 165.123 C 86.612 160.421,88.771 159.448,91.887 161.468 C 95.063 163.528,95.141 165.343,92.300 171.092 L 90.200 175.341 90.200 182.171 L 90.200 189.000 88.660 192.600 C 85.917 199.013,86.854 202.456,93.077 208.833 C 98.359 214.245,98.494 215.154,94.826 220.638 C 91.362 225.817,91.439 226.727,96.083 235.410 C 97.028 237.175,98.516 240.145,99.390 242.010 C 102.362 248.346,108.639 253.578,113.319 253.618 C 114.463 253.628,117.150 253.962,119.290 254.362 C 121.429 254.761,123.274 254.993,123.390 254.877 C 123.859 254.408,123.551 251.525,122.758 248.957 C 120.838 242.742,123.639 237.457,128.813 237.528 C 133.449 237.592,136.447 245.155,134.961 253.042 C 133.928 258.527,134.980 260.422,137.722 258.015 C 139.373 256.565,150.071 240.713,153.212 235.063 C 154.415 232.898,156.605 229.618,158.077 227.775 C 161.070 224.029,164.000 219.830,164.000 219.288 C 164.000 218.521,167.442 214.040,170.367 211.000 C 173.270 207.981,175.627 205.057,178.104 201.400 C 179.971 198.643,183.921 194.297,186.829 191.800 C 188.366 190.480,192.573 186.298,196.177 182.507 C 205.761 172.426,206.727 170.054,203.627 164.203 C 198.866 155.217,202.623 150.047,212.520 151.963 C 220.692 153.546,222.400 152.671,222.400 146.906 C 222.400 144.787,222.337 144.665,219.947 142.176 C 216.899 139.002,217.006 138.517,221.690 134.273 C 225.413 130.900,227.503 127.943,229.008 123.916 C 229.608 122.312,230.870 119.560,231.813 117.800 C 234.024 113.673,234.445 111.342,233.970 105.866 C 233.304 98.207,232.257 95.476,228.398 91.340 C 224.250 86.894,223.546 81.981,226.875 80.703 C 227.227 80.568,228.659 80.819,230.058 81.261 C 233.150 82.239,235.519 82.060,238.327 80.637 C 242.293 78.627,242.885 75.730,240.443 70.293 C 239.774 68.804,239.031 66.824,238.791 65.893 C 238.111 63.246,236.062 59.572,234.167 57.600 C 231.430 54.752,231.312 54.196,231.278 44.000 C 231.225 27.936,230.173 24.954,224.628 25.150 C 223.522 25.189,222.094 25.004,221.454 24.740 L 220.291 24.258 220.523 20.970 C 220.818 16.799,221.502 15.126,223.251 14.303 C 226.202 12.916,235.848 12.040,248.200 12.040 C 254.580 12.039,262.230 11.848,265.200 11.615 C 271.179 11.146,271.153 11.149,276.110 10.166 C 279.423 9.510,279.929 9.508,285.110 10.142 C 290.188 10.763,290.960 10.766,295.400 10.173 C 299.149 9.673,301.426 9.605,305.800 9.863 C 308.880 10.045,311.760 10.157,312.200 10.114 C 312.640 10.070,320.290 9.937,329.200 9.817 C 351.257 9.522,351.341 9.573,340.742 16.840 C 331.743 23.010,329.369 30.823,335.438 34.293 C 338.433 36.006,340.047 35.625,343.345 32.427 C 347.610 28.291,348.737 28.053,354.553 30.057 C 358.970 31.580,360.664 31.604,364.023 30.190 C 369.295 27.971,372.697 28.475,375.530 31.893 C 378.261 35.189,380.658 35.675,383.106 33.430 C 389.619 27.457,375.474 11.721,362.744 10.779 C 358.161 10.440,356.343 9.926,357.935 9.421 C 358.411 9.270,358.800 8.978,358.800 8.773 C 358.800 8.291,364.281 8.283,364.578 8.765 C 365.120 9.641,368.047 9.595,373.800 8.619 C 377.100 8.060,381.341 7.601,383.225 7.601 C 390.377 7.599,394.739 5.696,394.186 2.819 C 394.036 2.039,393.871 1.130,393.819 0.800 C 393.662 -0.198,392.430 -0.150,392.045 0.870 C 391.852 1.382,391.769 1.928,391.861 2.085 C 392.650 3.429,387.957 4.753,381.600 4.979 C 379.290 5.062,376.109 5.260,374.530 5.420 C 372.852 5.590,370.111 5.519,367.930 5.249 C 361.954 4.508,358.109 4.447,355.251 5.049 C 348.317 6.510,350.142 6.463,281.400 6.956 C 271.055 7.030,266.826 7.201,265.200 7.612 C 263.461 8.051,259.479 8.147,246.200 8.069 C 227.280 7.958,221.124 8.301,215.600 9.772 C 210.694 11.080,203.336 11.186,197.120 10.040 C 185.528 7.902,177.083 8.149,169.396 10.849 C 165.269 12.299,157.463 12.532,150.200 11.423 C 148.220 11.120,145.340 10.750,143.800 10.600 C 140.892 10.317,137.507 9.563,131.445 7.850 C 126.295 6.395,122.796 6.215,116.200 7.065 C 108.800 8.019,104.327 7.977,99.600 6.911 C 96.300 6.167,94.072 6.022,82.668 5.813 C 75.446 5.681,68.156 5.394,66.468 5.176 C 62.696 4.690,57.852 4.674,54.400 5.137 C 50.634 5.643,47.168 5.393,42.400 4.272 C 37.128 3.032,24.258 2.442,19.442 3.219 C 15.144 3.912,13.106 3.506,11.171 1.571 C 9.113 -0.487,8.212 -0.530,8.583 1.449 M34.600 13.182 C 20.844 15.644,10.972 24.451,13.766 31.768 C 15.218 35.570,18.311 35.921,21.417 32.635 C 25.558 28.256,27.817 27.817,33.753 30.237 C 37.782 31.880,38.329 31.865,43.287 29.976 C 48.606 27.950,50.852 28.443,54.340 32.406 C 56.253 34.579,56.594 34.800,58.043 34.800 C 64.452 34.800,64.894 27.209,58.837 21.173 C 51.161 13.524,44.661 11.380,34.600 13.182 M363.800 14.191 C 370.564 14.644,376.583 18.324,380.461 24.378 C 383.412 28.986,380.925 32.302,376.584 29.549 C 372.323 26.847,369.577 26.589,364.419 28.408 C 360.297 29.862,358.964 29.888,355.246 28.589 C 349.607 26.619,347.168 26.887,342.340 30.008 C 339.486 31.852,338.345 31.982,336.982 30.618 C 333.405 27.042,338.548 19.871,347.791 15.545 C 351.499 13.811,354.427 13.563,363.800 14.191 M48.053 15.945 C 55.337 18.782,61.214 25.765,59.443 29.479 C 58.602 31.242,57.686 31.185,54.340 29.163 C 50.384 26.773,48.322 26.669,42.639 28.575 C 37.765 30.209,37.573 30.203,32.830 28.306 C 28.529 26.585,25.661 26.794,21.777 29.114 C 17.648 31.580,15.771 31.237,15.855 28.032 C 16.085 19.237,36.669 11.510,48.053 15.945 M259.258 22.700 C 257.153 24.705,256.628 26.725,256.998 31.400 C 257.409 36.588,257.321 39.245,256.657 41.667 C 256.335 42.840,255.757 45.240,255.372 47.000 C 254.488 51.038,253.949 52.106,251.652 54.372 C 248.631 57.353,247.653 61.709,249.004 66.164 C 249.936 69.234,249.754 72.193,248.374 76.433 C 245.959 83.850,248.093 87.709,257.657 93.217 C 260.150 94.653,260.969 95.387,262.099 97.195 C 263.405 99.284,267.615 104.573,272.030 109.672 C 273.397 111.251,274.821 112.357,276.699 113.300 C 279.207 114.561,283.567 116.965,286.746 118.841 C 287.487 119.278,288.356 119.899,288.679 120.221 C 289.001 120.544,289.415 120.715,289.598 120.601 C 289.782 120.488,290.002 120.607,290.089 120.866 C 290.175 121.125,290.595 121.386,291.023 121.446 C 291.450 121.505,293.240 121.923,295.000 122.374 C 299.504 123.528,302.428 123.442,306.895 122.025 C 316.574 118.955,327.264 116.801,332.827 116.801 C 345.131 116.799,349.351 112.990,349.117 102.098 C 349.011 97.211,349.348 94.623,350.220 93.600 C 351.893 91.640,351.275 89.698,348.880 89.386 C 348.374 89.320,347.526 88.981,346.994 88.633 C 346.463 88.285,345.707 87.998,345.314 87.995 C 344.921 87.992,343.230 87.552,341.556 87.018 C 337.969 85.872,337.504 85.953,334.035 88.328 C 326.975 93.161,322.854 91.355,319.181 81.817 C 317.333 77.017,315.838 75.449,313.268 75.616 C 311.249 75.746,311.200 75.696,311.200 73.450 C 311.200 70.099,312.559 67.989,316.763 64.814 C 318.981 63.139,319.355 61.957,318.981 57.816 C 318.801 55.827,318.695 52.988,318.744 51.507 C 318.914 46.434,317.071 43.006,314.318 43.274 C 312.244 43.476,311.705 44.855,312.378 48.239 C 313.749 55.139,312.543 56.000,301.495 56.000 C 293.930 56.000,292.238 54.828,291.213 48.877 C 290.292 43.526,289.644 41.935,287.554 39.900 L 285.603 38.000 282.463 38.000 C 276.851 38.000,269.494 31.609,268.196 25.606 C 267.239 21.176,262.483 19.629,259.258 22.700 M133.142 41.845 C 134.209 42.592,136.025 44.386,137.957 46.602 L 139.314 48.158 139.056 52.967 C 138.751 58.637,138.210 59.624,134.179 61.867 C 129.154 64.662,127.460 62.855,129.054 56.400 C 129.477 54.685,129.678 52.241,129.644 49.219 C 129.564 42.241,130.598 40.062,133.142 41.845 M148.556 43.429 C 149.131 44.927,146.421 47.093,144.557 46.625 C 143.285 46.306,143.347 45.925,144.947 44.228 C 146.388 42.701,148.128 42.315,148.556 43.429 M173.432 54.198 C 174.514 54.747,175.597 55.197,175.838 55.198 C 176.544 55.201,177.485 56.504,177.718 57.800 C 177.837 58.460,178.110 59.675,178.325 60.500 C 178.579 61.476,178.579 62.524,178.325 63.500 C 178.110 64.325,177.839 65.495,177.722 66.100 C 177.208 68.760,170.191 67.208,169.454 64.272 C 169.306 63.682,168.961 63.200,168.689 63.200 C 167.873 63.200,167.146 61.637,166.914 59.387 C 166.653 56.863,167.000 55.200,167.788 55.200 C 168.103 55.200,168.504 54.959,168.680 54.665 C 169.635 53.066,170.946 52.937,173.432 54.198 M34.000 58.898 C 33.010 59.356,30.598 60.285,28.639 60.965 C 23.708 62.676,23.364 64.644,27.518 67.393 C 34.626 72.097,50.800 69.597,50.800 63.795 C 50.800 60.644,38.184 56.967,34.000 58.898 M355.000 59.283 C 353.460 59.956,351.030 60.840,349.600 61.248 C 345.483 62.421,344.857 63.576,347.035 65.987 C 352.451 71.981,367.216 71.679,371.763 65.482 C 372.915 63.912,372.106 62.537,369.400 61.469 C 368.300 61.035,365.996 60.077,364.281 59.340 C 360.408 57.676,358.699 57.666,355.000 59.283 M43.128 61.800 C 49.145 64.500,44.946 68.421,36.595 67.900 C 30.259 67.505,27.515 65.021,31.095 62.923 C 35.775 60.181,38.875 59.891,43.128 61.800 M364.746 62.228 C 367.804 63.758,368.377 64.787,366.900 66.096 C 363.045 69.512,349.608 67.972,351.026 64.277 C 351.211 63.795,354.910 61.876,357.200 61.073 C 359.115 60.402,361.971 60.839,364.746 62.228 M175.424 74.987 C 175.851 75.310,176.491 75.580,176.847 75.587 C 177.543 75.601,177.764 77.751,178.227 89.000 C 178.503 95.718,178.550 95.918,179.899 96.074 C 181.363 96.242,181.493 96.992,181.557 105.600 C 181.598 111.130,181.815 113.734,182.591 118.000 L 183.573 123.400 185.502 125.200 C 187.617 127.173,189.653 128.460,191.200 128.802 C 194.071 129.437,190.207 136.473,186.850 136.723 L 185.200 136.846 185.200 138.804 C 185.200 140.671,185.282 140.818,186.982 141.988 C 191.344 144.989,191.067 147.356,186.043 150.013 C 181.451 152.442,180.370 157.200,184.410 157.200 C 186.704 157.200,189.196 160.478,189.199 163.500 L 189.200 165.200 186.808 165.200 C 183.953 165.200,182.800 166.677,182.800 170.335 C 182.800 171.560,182.583 172.483,182.223 172.781 C 181.906 173.044,181.591 173.807,181.523 174.477 C 181.387 175.822,177.664 177.579,174.920 177.593 C 170.876 177.614,170.301 182.883,173.450 191.068 C 174.720 194.369,174.713 197.510,173.430 200.267 C 172.900 201.404,172.541 202.408,172.631 202.498 C 172.918 202.785,169.947 206.015,169.596 205.798 C 169.411 205.683,168.181 206.222,166.863 206.995 C 165.544 207.768,164.346 208.400,164.200 208.400 C 164.054 208.400,163.184 209.015,162.265 209.768 C 160.131 211.517,158.834 211.845,157.263 211.033 C 155.080 209.904,150.477 210.156,150.159 211.422 C 149.780 212.930,150.169 214.675,151.559 217.710 C 153.012 220.883,153.043 221.183,152.048 222.448 C 150.392 224.553,146.976 224.761,144.211 222.924 C 143.777 222.636,143.012 222.400,142.511 222.400 C 142.010 222.400,141.600 222.204,141.600 221.965 C 141.600 221.726,140.655 220.584,139.500 219.427 C 137.034 216.957,135.825 214.637,134.776 210.360 C 134.453 209.041,133.840 207.609,132.109 204.123 C 130.331 200.541,127.253 201.891,122.091 208.513 C 120.302 210.808,118.711 210.904,114.903 208.945 C 111.058 206.967,109.691 202.235,111.200 196.125 C 111.461 195.066,111.877 193.255,112.123 192.100 C 112.382 190.889,112.790 190.000,113.086 190.000 C 113.369 190.000,113.605 189.865,113.612 189.700 C 113.618 189.535,113.973 188.140,114.400 186.600 C 115.246 183.552,115.403 181.742,114.841 181.533 C 114.399 181.369,113.557 173.843,113.963 173.691 C 114.757 173.394,113.092 165.205,112.236 165.195 C 110.755 165.179,105.446 157.216,106.900 157.192 C 107.175 157.187,107.788 156.332,108.261 155.292 C 108.735 154.251,109.860 152.562,110.761 151.539 C 111.663 150.515,112.400 149.551,112.400 149.397 C 112.400 149.243,113.210 148.217,114.200 147.116 C 117.200 143.778,116.641 142.554,111.400 140.994 C 110.080 140.601,108.802 140.038,108.559 139.744 C 107.266 138.174,100.193 136.918,99.938 138.212 C 99.746 139.185,97.195 136.574,97.213 135.424 C 97.232 134.295,98.554 132.800,99.535 132.800 C 102.155 132.800,103.195 129.619,103.327 121.200 C 103.444 113.792,103.733 112.925,106.400 112.002 C 107.966 111.460,108.216 111.215,108.323 110.120 C 108.489 108.423,113.748 104.400,115.802 104.400 C 116.731 104.400,121.200 101.271,121.200 100.621 C 121.200 99.973,123.435 98.000,124.169 98.000 C 124.837 98.000,127.119 99.145,127.419 99.631 C 128.266 101.001,132.208 102.032,133.119 101.121 C 133.383 100.857,134.743 100.523,136.143 100.378 C 137.542 100.234,139.248 99.835,139.935 99.493 C 140.621 99.150,141.546 98.965,141.991 99.082 C 142.733 99.276,142.800 99.105,142.800 97.016 C 142.800 95.019,142.948 94.591,144.000 93.538 C 144.660 92.878,145.200 91.992,145.200 91.569 C 145.200 91.146,145.360 90.800,145.556 90.800 C 145.752 90.800,146.607 90.174,147.456 89.409 C 148.305 88.644,149.304 88.014,149.676 88.009 C 150.048 88.004,150.471 87.808,150.616 87.574 C 152.035 85.279,155.396 84.340,158.400 85.400 C 161.926 86.644,162.851 86.170,164.779 82.132 C 167.480 76.476,172.731 72.951,175.424 74.987 M371.494 85.640 C 368.832 86.259,366.193 87.879,363.294 90.674 C 361.722 92.189,361.788 92.896,363.854 96.638 C 365.503 99.626,365.575 101.385,364.200 105.038 C 362.400 109.820,362.949 111.578,366.344 111.904 C 369.898 112.246,371.206 110.311,371.615 104.106 C 371.873 100.188,371.963 99.877,373.702 96.885 C 377.998 89.492,376.990 84.360,371.494 85.640 M124.720 87.280 C 125.665 88.225,125.072 90.800,123.910 90.800 C 123.368 90.800,122.738 88.700,122.985 87.716 C 123.237 86.714,123.970 86.530,124.720 87.280 M352.145 90.200 C 352.018 90.530,352.018 91.070,352.145 91.400 C 352.407 92.084,353.200 92.216,353.200 91.576 C 353.200 91.343,353.380 91.264,353.600 91.400 C 354.210 91.777,354.076 90.819,353.429 90.171 C 352.703 89.446,352.432 89.452,352.145 90.200 M283.877 95.456 C 283.992 95.755,284.418 96.000,284.825 96.000 C 285.352 96.000,285.639 96.400,285.826 97.397 C 286.780 102.481,281.000 105.371,278.402 101.110 C 277.165 99.082,277.529 96.000,279.004 96.000 C 279.321 96.000,280.139 95.660,280.821 95.246 C 282.131 94.449,283.527 94.545,283.877 95.456 M249.890 120.301 C 247.579 122.854,248.109 128.145,250.961 130.998 C 253.082 133.118,255.703 131.677,256.753 127.813 C 257.950 123.405,252.489 117.429,249.890 120.301 M116.400 143.338 C 116.400 145.239,116.669 145.571,117.520 144.720 C 118.230 144.010,118.104 143.018,117.200 142.200 C 116.411 141.486,116.400 141.501,116.400 143.338 M136.010 166.880 C 134.301 168.034,132.416 171.615,132.407 173.726 C 132.399 175.584,132.056 176.260,130.085 178.311 C 126.483 182.061,127.478 189.967,131.300 187.954 C 132.698 187.218,132.787 186.882,132.794 182.314 L 132.800 178.028 136.880 177.914 L 140.961 177.800 141.451 175.200 C 142.697 168.592,139.872 164.273,136.010 166.880 M194.912 169.152 C 195.158 169.398,195.768 169.600,196.266 169.600 C 198.234 169.600,198.727 173.874,196.996 175.931 C 194.519 178.876,190.332 182.180,189.949 181.494 C 189.745 181.131,189.325 180.931,189.014 181.050 C 188.615 181.203,188.317 180.758,188.001 179.533 C 187.755 178.580,187.294 177.233,186.977 176.540 C 186.220 174.885,186.232 172.237,187.000 171.600 C 187.330 171.326,187.600 170.919,187.600 170.695 C 187.600 168.762,193.316 167.556,194.912 169.152 M158.000 219.600 C 157.765 220.040,157.488 220.400,157.386 220.400 C 157.284 220.400,157.200 220.040,157.200 219.600 C 157.200 219.147,157.467 218.800,157.814 218.800 C 158.304 218.800,158.342 218.961,158.000 219.600 M39.400 315.440 C 31.309 316.543,25.713 318.764,21.301 322.624 C 14.778 328.330,15.437 336.946,22.400 336.986 L 24.765 337.000 27.498 334.134 C 31.221 330.231,33.367 329.870,38.639 332.261 C 42.022 333.795,44.566 333.753,48.472 332.100 C 53.474 329.983,56.377 330.537,59.361 334.178 C 64.104 339.967,70.580 335.845,68.050 328.647 C 64.280 317.921,54.447 313.388,39.400 315.440 M49.996 316.813 C 56.119 317.608,62.111 321.775,64.553 326.937 C 66.960 332.026,64.663 334.636,60.431 331.622 C 56.615 328.905,53.557 328.589,48.805 330.422 C 44.117 332.230,43.455 332.261,39.368 330.860 C 32.868 328.632,31.216 328.754,26.579 331.799 C 22.878 334.231,20.951 334.157,20.042 331.550 C 17.862 325.294,28.552 317.897,41.289 316.849 C 46.992 316.380,46.669 316.382,49.996 316.813 M38.800 361.023 C 37.590 361.584,35.250 362.511,33.600 363.083 C 29.977 364.338,29.410 364.790,29.753 366.154 C 31.339 372.475,47.869 374.097,54.332 368.566 C 56.514 366.698,56.651 365.074,54.700 364.214 C 44.511 359.718,42.486 359.312,38.800 361.023 M45.087 363.029 C 53.926 364.895,52.414 369.800,43.000 369.800 C 33.489 369.800,31.905 365.678,40.400 363.035 C 42.117 362.501,42.581 362.500,45.087 363.029 " stroke="none" fill="#b4b4b4" fill-rule="evenodd"></path><path id="path5" d="M0.181 18.600 C 0.257 20.140,0.507 22.300,0.736 23.400 C 1.394 26.560,1.309 34.564,0.600 36.262 C -0.485 38.858,-0.210 43.075,1.117 44.192 C 4.418 46.969,5.559 52.347,4.134 58.400 C 3.590 60.710,2.945 63.770,2.701 65.200 C 2.457 66.630,2.154 67.890,2.028 68.000 C 1.737 68.256,0.924 69.547,0.341 70.683 C -0.025 71.396,0.052 71.951,0.743 73.557 C 1.817 76.054,1.830 78.072,0.785 80.231 C -0.056 81.968,-0.149 93.741,0.609 102.345 C 0.779 104.268,0.718 105.442,0.435 105.725 C 0.127 106.033,0.023 116.859,0.079 142.780 C 0.150 176.175,0.183 177.833,0.451 161.600 C 0.953 131.096,1.544 111.936,2.066 109.200 C 2.898 104.843,2.656 100.577,1.400 97.438 C -0.002 93.931,0.073 87.760,1.566 83.800 C 2.969 80.080,3.180 78.894,3.190 74.660 C 3.200 70.737,3.209 70.702,5.272 66.460 L 7.343 62.200 7.372 56.400 L 7.400 50.600 5.873 47.402 C 5.033 45.643,4.112 43.933,3.827 43.602 C 2.919 42.550,2.747 40.833,2.782 33.191 C 2.819 25.020,2.372 20.641,1.299 18.676 C 0.916 17.974,0.477 17.040,0.322 16.600 C 0.168 16.160,0.104 17.060,0.181 18.600 M397.000 122.053 C 391.347 123.943,390.226 124.041,370.000 124.404 C 359.330 124.595,348.800 124.936,346.600 125.162 C 344.400 125.388,338.730 125.940,334.000 126.390 C 324.915 127.254,319.769 128.093,311.600 130.044 C 308.850 130.701,304.002 131.781,300.827 132.444 C 294.629 133.739,280.492 137.972,274.606 140.296 C 269.515 142.306,238.291 158.137,235.400 160.174 C 216.616 173.408,212.629 176.707,199.980 189.474 C 169.695 220.040,148.042 254.004,137.355 287.709 C 136.572 290.179,134.876 295.440,133.587 299.400 C 132.100 303.968,130.794 309.013,130.015 313.200 C 129.340 316.830,128.240 322.050,127.572 324.800 C 126.097 330.868,125.740 337.710,125.275 368.800 C 124.942 391.118,125.012 390.549,122.165 394.282 C 119.950 397.185,118.962 397.404,108.200 397.370 C 102.920 397.353,93.740 397.341,87.800 397.344 C 22.472 397.377,19.137 397.299,14.227 395.609 C 5.665 392.664,0.925 384.169,0.757 371.471 C 0.641 362.759,0.113 364.101,0.059 373.246 C 0.005 382.305,0.060 383.168,0.747 384.046 C 1.158 384.571,2.161 386.327,2.977 387.949 C 4.313 390.607,6.255 392.958,8.708 394.889 C 12.637 397.982,21.480 399.823,29.400 399.198 C 30.280 399.129,32.080 399.280,33.400 399.534 C 37.224 400.269,77.476 400.162,80.600 399.408 C 83.850 398.623,92.066 398.616,94.636 399.396 C 96.146 399.854,98.886 399.992,106.489 399.996 L 116.378 400.000 118.653 398.923 C 124.707 396.056,126.427 391.653,126.433 379.000 C 126.449 344.621,126.953 332.815,128.752 324.714 C 129.401 321.791,130.498 316.443,131.190 312.828 C 134.722 294.385,147.993 261.159,159.439 242.107 C 178.777 209.916,202.844 184.100,233.434 162.732 C 238.483 159.205,264.763 145.449,273.004 142.019 C 278.491 139.735,293.224 135.009,298.119 133.962 C 300.363 133.482,305.590 132.298,309.733 131.331 C 327.242 127.242,348.728 125.209,374.600 125.192 C 381.420 125.188,388.260 125.005,389.800 124.787 C 393.636 124.242,399.997 122.317,399.999 121.700 C 400.000 121.070,399.906 121.081,397.000 122.053 M0.190 227.200 C 0.243 250.743,0.336 254.558,0.911 257.000 C 1.804 260.789,1.771 263.092,0.800 264.904 C -0.663 267.634,-0.003 275.183,1.700 275.197 C 2.513 275.204,1.978 279.921,1.000 281.362 L 0.000 282.836 -0.000 298.484 C -0.000 307.091,0.087 314.046,0.194 313.939 C 0.300 313.833,0.568 309.708,0.788 304.773 C 1.204 295.449,1.896 288.730,2.971 283.600 C 3.744 279.910,3.759 277.014,3.022 273.541 C 2.554 271.332,2.543 270.220,2.954 266.976 C 3.486 262.780,3.018 256.699,1.801 252.002 C 1.367 250.327,1.164 245.533,0.973 232.393 C 0.835 222.827,0.588 211.670,0.424 207.600 C 0.237 202.918,0.151 210.118,0.190 227.200 M362.800 271.656 C 353.356 272.251,345.764 274.172,332.193 279.400 C 305.010 289.871,279.822 318.803,275.428 344.600 C 270.440 373.888,271.327 392.830,277.900 397.376 L 279.600 398.552 287.713 398.453 C 293.052 398.387,296.231 398.509,297.012 398.809 C 299.520 399.771,305.350 400.062,309.322 399.423 C 311.675 399.044,313.507 398.944,314.239 399.154 C 315.409 399.489,316.671 399.450,319.105 399.002 C 319.874 398.860,321.281 399.037,322.536 399.433 C 324.737 400.126,325.660 400.056,330.800 398.804 C 334.243 397.966,338.945 397.681,342.800 398.076 C 344.946 398.297,347.819 398.327,349.400 398.145 C 350.940 397.968,354.990 397.796,358.400 397.762 C 388.981 397.456,392.338 396.582,398.183 387.400 C 398.603 386.740,399.184 385.962,399.473 385.671 C 399.971 385.172,400.273 379.600,399.802 379.600 C 399.693 379.600,399.222 380.455,398.755 381.500 C 396.561 386.410,395.868 387.556,393.788 389.705 C 391.945 391.609,386.800 394.930,386.800 394.216 C 386.800 394.108,386.305 394.214,385.700 394.451 C 383.893 395.160,348.727 396.528,342.200 396.143 C 339.626 395.991,335.989 396.142,332.000 396.568 C 326.833 397.119,323.235 397.187,310.400 396.977 C 301.930 396.838,291.566 396.697,287.370 396.663 L 279.739 396.600 278.222 395.443 C 274.404 392.533,273.424 387.935,273.735 374.400 C 274.366 346.976,278.855 330.023,289.357 315.400 C 304.655 294.101,324.055 280.950,349.885 274.371 C 356.074 272.795,362.988 272.242,376.800 272.219 C 388.613 272.200,390.479 272.355,396.384 273.848 C 398.973 274.502,400.000 274.545,400.000 274.000 C 400.000 273.780,399.642 273.600,399.204 273.600 C 398.767 273.600,397.102 273.244,395.504 272.810 C 389.680 271.225,376.837 270.772,362.800 271.656 " stroke="none" fill="#3d3e38" fill-rule="evenodd"></path><path id="path6" d="M0.045 29.200 C 0.064 36.922,0.101 37.318,0.679 36.000 C 1.412 34.328,1.255 23.122,0.480 21.785 C 0.129 21.180,0.029 22.882,0.045 29.200 M0.000 57.254 L 0.000 70.908 0.800 69.891 C 1.240 69.331,1.600 68.677,1.600 68.437 C 1.600 68.197,1.747 68.000,1.926 68.000 C 2.106 68.000,2.451 66.785,2.694 65.300 C 2.937 63.815,3.583 60.710,4.130 58.400 C 5.511 52.559,4.776 48.410,1.715 44.772 C 0.038 42.778,-0.000 43.052,0.000 57.254 M0.032 76.700 C -0.002 81.547,0.126 81.953,1.020 79.813 C 1.806 77.933,1.733 75.725,0.822 73.800 L 0.065 72.200 0.032 76.700 M0.006 102.524 C 0.002 104.772,0.145 105.958,0.400 105.800 C 0.912 105.483,0.912 100.393,0.400 99.600 C 0.133 99.187,0.010 100.101,0.006 102.524 M395.771 123.408 C 391.270 124.887,387.547 125.200,374.471 125.200 C 348.819 125.201,327.232 127.245,309.733 131.331 C 305.590 132.298,300.363 133.482,298.119 133.962 C 293.224 135.009,278.491 139.735,273.004 142.019 C 264.763 145.449,238.483 159.205,233.434 162.732 C 202.844 184.100,178.777 209.916,159.439 242.107 C 147.993 261.159,134.722 294.385,131.190 312.828 C 130.498 316.443,129.401 321.791,128.752 324.714 C 126.953 332.815,126.449 344.621,126.433 379.000 C 126.427 391.572,124.718 396.004,118.762 398.900 L 116.600 399.952 120.433 399.976 L 124.267 400.000 126.014 394.900 L 127.761 389.800 128.072 369.000 C 128.504 340.141,128.903 333.104,130.589 324.600 C 131.330 320.860,132.400 315.361,132.965 312.379 C 133.531 309.398,134.453 305.618,135.013 303.979 C 135.574 302.341,137.030 297.769,138.249 293.821 C 154.272 241.926,191.091 192.512,235.648 163.102 C 240.373 159.984,262.365 148.479,270.400 144.922 C 279.865 140.732,292.356 136.648,301.400 134.787 C 304.700 134.108,308.818 133.193,310.552 132.754 C 318.781 130.671,323.720 129.884,336.800 128.571 C 349.477 127.299,352.628 127.141,371.600 126.828 C 389.464 126.534,391.222 126.444,393.800 125.685 C 398.310 124.358,399.792 123.718,399.929 123.039 C 400.101 122.190,399.249 122.266,395.771 123.408 M318.248 221.886 C 317.936 222.197,317.920 224.400,318.229 224.400 C 318.541 224.400,319.600 223.318,319.600 223.000 C 319.600 222.537,318.501 221.632,318.248 221.886 M273.200 230.666 C 265.523 231.456,263.166 232.503,262.206 235.548 C 261.823 236.762,261.091 238.085,260.579 238.488 C 260.066 238.891,259.535 239.576,259.397 240.010 C 259.259 240.445,258.888 240.800,258.573 240.800 C 258.258 240.800,258.000 240.960,258.000 241.157 C 258.000 241.511,256.717 241.939,254.800 242.223 C 254.250 242.305,253.350 242.484,252.800 242.621 C 252.250 242.759,251.350 242.974,250.800 243.100 C 249.094 243.490,243.600 248.076,243.600 249.110 C 243.600 249.305,243.150 249.706,242.600 250.000 C 242.050 250.294,241.594 250.730,241.587 250.968 C 241.565 251.657,240.231 253.073,239.334 253.357 C 238.883 253.501,238.200 254.313,237.817 255.163 C 237.434 256.012,236.691 256.937,236.167 257.218 C 235.642 257.498,235.114 258.042,234.992 258.426 C 234.750 259.187,233.538 259.215,233.288 258.465 C 233.203 258.209,232.734 258.000,232.245 258.000 C 231.756 258.000,230.505 257.460,229.464 256.800 C 228.424 256.140,227.061 255.600,226.435 255.600 C 225.810 255.600,225.074 255.330,224.800 255.000 C 222.814 252.607,211.650 256.472,211.587 259.575 C 211.580 259.919,211.310 260.549,210.987 260.976 C 210.664 261.404,210.400 262.342,210.400 263.062 C 210.400 263.962,210.150 264.506,209.600 264.800 C 209.160 265.035,208.800 265.415,208.800 265.643 C 208.800 266.269,207.880 267.060,206.781 267.379 C 204.814 267.950,201.384 269.375,200.774 269.876 C 200.430 270.159,199.586 270.586,198.899 270.825 C 197.964 271.151,197.583 271.580,197.383 272.530 C 197.236 273.229,196.696 274.250,196.183 274.800 C 195.670 275.350,194.589 277.195,193.781 278.900 C 192.972 280.605,192.151 282.000,191.956 282.000 C 191.760 282.000,191.600 282.516,191.600 283.146 C 191.600 283.776,191.246 284.742,190.814 285.291 C 190.382 285.841,189.850 287.080,189.632 288.045 C 189.415 289.010,188.508 291.205,187.618 292.922 C 186.728 294.638,186.000 296.281,186.000 296.573 C 186.000 296.864,185.755 297.305,185.456 297.554 C 185.156 297.802,184.810 298.989,184.686 300.191 C 184.562 301.393,184.275 302.967,184.049 303.688 C 183.824 304.410,183.422 305.871,183.157 306.936 C 182.892 308.001,182.434 308.966,182.138 309.079 C 181.520 309.316,181.343 316.000,181.955 316.000 C 182.150 316.000,182.430 316.807,182.578 317.793 C 182.726 318.780,183.105 319.731,183.421 319.908 C 183.737 320.085,184.187 321.303,184.421 322.615 C 184.654 323.927,185.199 325.493,185.632 326.096 C 186.065 326.699,186.526 327.730,186.657 328.387 C 186.789 329.044,187.145 329.788,187.448 330.040 C 187.752 330.292,188.000 330.656,188.000 330.849 C 188.000 331.185,188.819 332.219,190.100 333.500 C 191.486 334.886,192.375 335.538,193.261 335.818 C 193.777 335.981,194.435 336.449,194.723 336.857 C 195.010 337.266,195.512 337.600,195.838 337.600 C 196.792 337.600,199.587 340.637,199.852 341.960 C 200.353 344.467,199.670 346.670,197.776 348.647 C 195.895 350.610,195.688 351.460,196.257 354.900 C 196.440 356.010,196.699 356.400,197.252 356.400 C 197.664 356.400,198.000 356.572,198.000 356.782 C 198.000 357.887,200.993 357.709,203.401 356.460 C 204.738 355.767,206.037 355.200,206.289 355.200 C 206.540 355.200,207.115 354.681,207.567 354.046 C 208.397 352.881,210.314 352.252,211.258 352.836 C 211.905 353.236,213.600 352.071,213.600 351.227 C 213.600 345.366,217.624 340.522,223.093 339.799 C 227.483 339.218,229.627 338.605,233.736 336.753 C 236.121 335.679,238.560 334.800,239.156 334.800 C 239.752 334.800,240.424 334.616,240.649 334.391 C 240.927 334.113,241.990 334.115,243.981 334.397 C 246.959 334.820,247.655 334.651,248.520 333.300 C 248.696 333.025,249.371 332.800,250.020 332.800 C 251.128 332.800,251.200 332.704,251.200 331.215 C 251.200 330.343,251.560 328.716,252.000 327.600 C 252.440 326.484,252.800 325.204,252.800 324.757 C 252.800 324.309,253.079 323.664,253.420 323.323 C 253.760 322.982,254.138 322.209,254.259 321.605 C 254.380 321.001,254.911 320.041,255.439 319.471 C 255.968 318.901,256.400 318.000,256.400 317.468 C 256.400 316.936,256.895 315.655,257.500 314.621 C 258.105 313.587,258.822 312.349,259.094 311.871 C 259.366 311.392,259.592 310.370,259.596 309.600 C 259.600 308.830,259.962 307.611,260.401 306.890 C 260.841 306.170,261.200 305.236,261.200 304.814 C 261.200 304.392,261.369 303.943,261.575 303.816 C 263.058 302.899,263.519 300.009,262.348 298.962 C 258.444 295.470,257.999 284.845,261.715 283.848 C 263.926 283.255,266.400 284.328,266.400 285.879 C 266.400 286.370,267.709 286.787,269.280 286.795 C 270.326 286.800,272.400 284.750,272.400 283.711 C 272.400 283.484,272.670 283.074,273.000 282.800 C 273.718 282.204,273.915 271.358,273.200 271.800 C 272.980 271.936,272.800 271.849,272.800 271.607 C 272.800 270.104,270.931 267.219,269.800 266.977 C 268.681 266.737,265.200 263.818,265.200 263.120 C 265.200 262.948,264.566 261.976,263.790 260.960 C 259.771 255.694,260.039 252.440,264.540 251.856 C 267.108 251.523,269.655 253.695,270.416 256.868 C 270.819 258.546,271.109 258.942,272.437 259.619 C 273.493 260.158,274.065 260.759,274.231 261.505 C 274.365 262.107,274.547 262.876,274.637 263.213 C 274.942 264.368,279.870 264.194,281.473 262.972 C 282.203 262.415,283.450 261.688,284.244 261.356 C 285.038 261.024,285.776 260.414,285.884 260.000 C 286.016 259.495,286.692 259.100,287.940 258.800 C 288.963 258.554,290.250 258.245,290.800 258.114 C 292.377 257.739,293.600 256.779,293.600 255.916 C 293.600 255.480,293.848 254.646,294.150 254.062 C 295.852 250.780,296.344 249.150,296.584 246.000 C 296.727 244.130,297.038 242.150,297.276 241.600 C 298.835 237.986,299.036 236.380,298.035 235.523 C 297.613 235.161,297.165 234.968,297.040 235.093 C 296.728 235.405,291.567 235.781,288.400 235.722 C 283.928 235.639,282.506 235.256,281.294 233.807 C 279.435 231.584,276.258 230.351,273.200 230.666 M0.012 259.989 C 0.001 265.781,0.041 266.119,0.642 265.262 C 1.585 263.915,1.771 261.582,1.212 258.093 C 0.374 252.851,0.025 253.402,0.012 259.989 M359.635 270.427 C 347.200 271.363,326.604 278.596,316.077 285.724 C 297.105 298.571,283.557 314.739,276.536 332.911 C 271.496 345.957,268.441 381.136,271.509 390.800 C 272.578 394.170,273.508 396.341,274.446 397.662 C 274.861 398.246,275.200 399.011,275.200 399.362 C 275.200 399.935,276.652 399.994,289.500 399.946 C 298.582 399.911,302.778 399.780,301.000 399.585 C 299.460 399.417,297.666 399.071,297.012 398.816 C 296.219 398.507,293.132 398.386,287.713 398.453 L 279.600 398.552 277.900 397.376 C 271.327 392.830,270.440 373.888,275.428 344.600 C 279.822 318.803,305.010 289.871,332.193 279.400 C 339.710 276.504,350.080 273.255,353.823 272.622 C 365.541 270.640,387.904 270.741,395.504 272.810 C 397.102 273.244,398.767 273.600,399.204 273.600 C 400.614 273.600,400.051 272.844,398.300 272.387 C 397.365 272.142,395.430 271.561,394.000 271.095 C 391.071 270.139,369.119 269.713,359.635 270.427 M0.013 277.700 C 0.006 280.285,0.093 282.400,0.206 282.400 C 1.483 282.400,2.633 276.306,1.586 275.083 C 1.359 274.817,0.915 274.240,0.599 273.800 C 0.088 273.087,0.024 273.511,0.013 277.700 M-0.000 386.084 C -0.000 388.520,0.142 389.204,0.763 389.767 C 1.183 390.146,1.891 391.305,2.337 392.342 C 3.186 394.316,4.038 395.317,6.759 397.542 C 7.661 398.280,8.400 399.135,8.400 399.442 C 8.400 399.909,10.563 399.992,21.700 399.953 C 31.913 399.917,34.536 399.811,33.000 399.496 C 31.900 399.271,30.280 399.140,29.400 399.205 C 16.370 400.175,7.148 396.246,2.977 387.949 C 2.161 386.327,1.158 384.571,0.747 384.046 L -0.000 383.092 -0.000 386.084 M399.368 385.756 C 399.130 386.012,398.595 386.756,398.177 387.410 C 392.329 396.584,388.975 397.456,358.400 397.762 C 354.990 397.796,350.940 397.968,349.400 398.145 C 347.819 398.327,344.946 398.297,342.800 398.076 C 338.943 397.681,334.239 397.966,330.800 398.805 C 329.810 399.047,328.370 399.394,327.600 399.576 C 326.816 399.762,340.508 399.928,358.703 399.954 L 391.205 400.000 392.103 398.961 C 392.596 398.389,393.660 397.584,394.466 397.170 C 395.273 396.756,396.333 395.829,396.823 395.109 C 397.313 394.389,398.236 393.348,398.874 392.796 C 400.001 391.821,400.032 391.695,399.918 388.541 C 399.833 386.189,399.681 385.420,399.368 385.756 M80.600 399.409 C 78.797 399.873,79.465 399.923,87.400 399.920 C 95.229 399.917,96.023 399.858,94.600 399.389 C 92.526 398.705,83.287 398.719,80.600 399.409 M309.400 399.395 C 306.730 399.881,307.000 399.906,315.200 399.924 C 323.225 399.942,323.693 399.904,322.200 399.354 C 320.969 398.899,320.093 398.850,318.400 399.139 C 317.190 399.345,315.840 399.444,315.400 399.359 C 313.149 398.921,311.961 398.928,309.400 399.395 " stroke="none" fill="#343434" fill-rule="evenodd"></path><path id="path7" d="M-0.000 1.154 C -0.000 1.789,0.269 2.824,0.598 3.454 C 1.364 4.923,1.365 6.251,0.600 6.545 C -0.632 7.017,-0.216 12.874,1.103 13.626 C 2.813 14.602,3.913 20.386,4.369 30.800 C 4.755 39.606,4.906 40.327,7.365 45.079 C 8.473 47.221,8.932 48.782,9.405 52.021 C 10.492 59.469,11.209 62.796,12.214 65.070 C 13.294 67.513,13.476 69.129,12.700 69.399 C 8.955 70.700,7.600 71.345,7.600 71.829 C 7.600 72.143,7.456 72.400,7.280 72.400 C 6.891 72.400,6.262 74.140,5.400 77.600 C 5.044 79.030,4.278 81.550,3.698 83.200 C 2.124 87.683,2.149 94.352,3.766 100.977 L 4.932 105.754 4.245 110.977 C 3.503 116.624,2.690 144.662,2.742 162.800 C 2.782 176.591,2.122 191.404,1.406 192.788 C 0.902 193.763,0.926 194.051,1.622 195.458 C 2.552 197.337,3.038 208.816,3.359 236.400 C 3.539 251.937,3.610 253.256,4.476 257.000 C 5.205 260.156,5.405 262.224,5.424 266.800 C 5.437 269.990,5.674 274.139,5.951 276.020 C 6.420 279.211,6.384 279.816,5.419 285.020 C 4.851 288.089,4.121 292.040,3.799 293.800 C 3.477 295.560,3.122 300.510,3.010 304.800 C 2.762 314.348,2.397 316.988,1.021 319.167 L -0.033 320.837 0.083 332.719 C 0.198 344.372,0.217 344.623,1.111 345.813 C 2.482 347.639,2.668 349.640,1.649 351.595 C 0.536 353.731,0.528 356.699,1.630 358.858 C 2.348 360.267,2.508 361.617,2.818 368.942 C 3.557 386.359,6.947 392.187,17.535 394.249 C 23.896 395.487,66.930 396.106,80.286 395.151 C 85.204 394.799,88.685 394.799,94.686 395.151 C 116.554 396.432,120.043 395.853,122.670 390.503 L 123.800 388.200 123.897 378.400 C 124.301 337.696,124.637 329.850,126.196 324.624 C 126.783 322.657,127.961 317.509,128.813 313.183 C 132.715 293.380,145.514 261.736,158.099 240.778 C 173.672 214.844,199.882 184.960,220.200 169.972 C 223.940 167.213,229.250 163.297,232.000 161.269 C 236.184 158.184,238.958 156.606,249.000 151.599 C 255.600 148.308,263.212 144.459,265.916 143.046 C 273.534 139.065,289.082 133.878,300.200 131.608 C 303.280 130.980,307.600 130.014,309.800 129.462 C 317.093 127.632,323.726 126.434,330.000 125.814 C 333.410 125.476,337.920 125.014,340.021 124.787 C 348.191 123.902,355.654 123.543,372.600 123.219 C 391.724 122.854,393.231 122.686,397.600 120.441 L 399.800 119.310 399.896 65.111 L 399.993 10.912 398.896 11.118 C 397.690 11.344,395.892 12.579,393.317 14.949 C 391.054 17.032,390.855 18.516,391.954 25.111 C 393.681 35.473,392.987 37.661,386.600 41.998 C 381.737 45.301,381.302 46.511,382.754 52.696 C 384.185 58.790,383.822 61.004,380.729 65.044 C 376.156 71.019,375.894 72.182,379.336 71.218 C 381.840 70.517,383.828 68.720,385.266 65.858 C 387.108 62.193,387.950 61.177,389.839 60.341 C 394.642 58.217,395.844 60.266,395.449 69.899 C 395.296 73.647,395.353 78.248,395.582 80.549 C 396.532 90.090,396.782 100.436,396.233 107.439 C 395.252 119.928,395.445 119.832,370.200 120.400 C 354.379 120.756,348.169 121.088,340.600 121.984 C 338.840 122.192,334.981 122.559,332.025 122.801 C 325.212 123.356,319.188 124.387,310.819 126.429 C 307.178 127.317,301.938 128.466,299.173 128.982 C 296.409 129.498,292.359 130.468,290.173 131.137 C 287.988 131.806,284.040 132.916,281.400 133.602 C 271.268 136.237,268.001 137.594,261.200 141.993 C 256.688 144.911,249.148 148.627,242.869 151.028 C 237.127 153.223,235.732 154.053,231.139 158.005 C 229.082 159.774,225.870 162.278,224.000 163.569 C 214.694 169.994,211.410 172.898,197.949 186.600 C 190.601 194.080,182.978 202.180,181.009 204.600 C 179.040 207.020,175.779 211.007,173.764 213.461 C 159.970 230.250,140.542 264.932,133.800 284.800 C 132.643 288.210,131.043 292.503,130.246 294.340 C 128.294 298.836,127.062 303.226,125.362 311.742 C 123.845 319.341,123.366 320.704,120.776 324.800 C 118.970 327.657,118.908 328.448,119.960 335.200 C 120.210 336.801,120.239 339.413,120.037 342.000 C 119.854 344.339,119.873 349.207,120.080 352.987 C 120.510 360.829,120.190 363.522,118.327 367.767 C 117.006 370.775,116.990 371.738,118.185 375.987 C 119.725 381.464,118.725 387.840,116.174 388.810 C 112.667 390.143,99.907 389.021,92.965 386.769 C 87.066 384.855,86.331 384.841,82.638 386.569 C 77.352 389.044,72.101 389.656,60.400 389.159 C 48.976 388.674,48.827 387.543,59.400 381.606 C 69.707 375.819,73.080 371.666,75.987 361.185 C 77.872 354.391,78.061 351.261,76.792 347.869 C 73.952 340.280,64.655 344.371,66.005 352.616 C 68.296 366.610,58.699 376.255,42.600 376.137 C 27.008 376.022,17.536 366.320,19.583 352.561 C 20.340 347.472,19.324 345.888,12.679 341.800 C 6.667 338.101,4.751 329.604,7.403 318.400 C 7.950 316.090,8.771 311.860,9.229 309.000 C 10.405 301.649,13.477 292.098,14.707 291.969 C 14.868 291.953,15.317 291.878,15.703 291.804 C 17.190 291.520,22.670 296.363,25.887 300.804 C 32.608 310.083,37.305 311.413,39.440 304.641 C 39.875 303.260,40.834 301.575,41.887 300.342 C 44.819 296.907,44.939 295.967,42.900 292.425 C 40.390 288.063,37.497 285.951,32.656 284.945 C 28.866 284.158,27.783 283.461,25.607 280.409 C 24.118 278.322,23.180 277.500,20.603 276.020 C 15.630 273.166,15.381 272.658,12.974 260.400 C 12.075 255.825,11.953 254.406,12.174 251.111 C 12.327 248.838,12.237 245.515,11.958 243.111 C 11.536 239.467,11.564 238.636,12.208 235.800 C 14.018 227.823,13.329 214.425,10.623 205.000 C 9.446 200.901,9.183 199.680,8.401 194.691 C 7.150 186.710,7.303 182.837,9.225 173.800 C 9.764 171.265,9.657 168.026,8.935 165.052 C 8.364 162.697,8.335 161.806,8.734 158.807 C 8.990 156.883,9.200 154.261,9.200 152.979 C 9.200 150.330,9.796 146.734,10.722 143.800 C 11.161 142.407,11.422 139.433,11.582 134.000 C 11.840 125.212,11.815 125.293,15.158 122.474 C 18.801 119.402,19.051 113.626,15.692 110.125 C 7.450 101.534,5.082 90.821,9.888 83.875 C 12.806 79.658,16.414 79.388,29.000 82.446 C 35.743 84.084,38.426 84.548,42.600 84.796 C 46.349 85.019,48.414 85.341,50.000 85.952 C 53.917 87.461,54.153 87.330,55.950 82.664 C 57.238 79.319,62.977 70.454,66.737 66.000 C 73.649 57.814,73.109 39.961,66.012 41.997 C 61.875 43.183,60.161 45.640,60.616 49.731 C 61.817 60.541,60.248 64.837,53.447 69.351 C 36.122 80.851,13.000 70.198,15.266 51.760 C 15.839 47.100,15.530 45.904,12.789 42.151 C 8.190 35.854,7.244 29.617,9.657 21.514 C 11.144 16.523,10.822 15.328,7.290 12.719 C 3.277 9.754,3.200 9.616,3.200 5.342 C 3.200 2.975,3.356 1.600,3.624 1.600 C 3.857 1.600,3.936 1.420,3.800 1.200 C 3.664 0.980,3.743 0.800,3.976 0.800 C 4.209 0.800,4.400 0.620,4.400 0.400 C 4.400 0.180,3.410 0.000,2.200 0.000 C 0.042 0.000,-0.000 0.022,-0.000 1.154 M398.615 0.700 C 398.780 1.085,398.997 2.480,399.097 3.800 C 399.385 7.614,400.000 7.396,400.000 3.480 C 400.000 0.208,399.950 0.000,399.157 0.000 C 398.507 0.000,398.383 0.160,398.615 0.700 M28.800 33.478 C 27.537 33.929,27.200 34.956,27.191 38.376 C 27.182 42.012,26.705 43.556,24.671 46.540 C 23.214 48.678,22.956 50.445,23.784 52.613 C 25.252 56.457,27.932 56.976,33.000 54.400 C 35.328 53.217,36.630 52.800,38.000 52.800 C 39.370 52.800,40.672 53.217,43.000 54.400 C 50.977 58.455,55.436 53.415,50.755 45.635 C 48.979 42.683,48.598 41.144,48.963 38.393 C 49.566 33.850,47.665 32.657,42.600 34.400 C 39.494 35.469,36.759 35.411,33.200 34.200 C 30.172 33.170,29.821 33.113,28.800 33.478 M364.600 34.220 C 361.125 35.386,358.034 35.444,355.000 34.400 C 349.866 32.634,348.800 33.383,348.800 38.758 C 348.800 42.698,348.695 43.038,346.469 46.328 C 341.892 53.089,347.147 58.374,354.547 54.454 C 358.674 52.267,360.226 52.250,364.354 54.349 C 369.676 57.055,372.096 56.837,373.604 53.515 C 374.870 50.725,374.748 50.204,371.373 44.015 C 370.542 42.490,370.400 41.693,370.400 38.544 C 370.400 34.960,369.961 33.600,368.804 33.600 C 368.618 33.600,368.226 33.528,367.933 33.441 C 367.640 33.353,366.140 33.704,364.600 34.220 M40.554 40.052 C 42.426 40.905,43.309 45.662,41.863 47.108 C 40.832 48.139,35.567 48.056,34.389 46.990 C 33.064 45.791,33.407 41.869,34.952 40.540 C 36.171 39.491,38.818 39.261,40.554 40.052 M361.232 40.002 C 363.650 40.674,364.766 44.848,363.038 46.758 C 360.976 49.037,355.174 47.509,355.223 44.700 C 355.292 40.719,357.526 38.973,361.232 40.002 M330.238 44.534 C 327.230 46.941,329.702 59.800,333.173 59.800 C 333.774 59.800,336.342 50.337,336.378 47.989 C 336.430 44.659,332.703 42.562,330.238 44.534 M22.878 103.737 C 19.485 108.804,20.298 113.101,24.476 112.183 C 27.699 111.475,28.141 103.191,24.988 102.588 C 23.964 102.392,23.673 102.550,22.878 103.737 M370.200 273.088 C 348.219 273.968,329.317 280.155,314.660 291.268 C 290.861 309.312,279.796 327.605,276.595 354.200 C 274.177 374.299,274.452 386.950,277.407 391.462 C 279.190 394.184,279.882 394.372,288.815 394.566 C 292.877 394.654,300.070 394.853,304.800 395.008 C 310.477 395.195,316.934 395.106,323.800 394.745 C 329.520 394.445,337.350 394.184,341.200 394.164 C 351.595 394.111,367.599 393.648,368.018 393.389 C 368.220 393.264,372.214 393.013,376.893 392.831 C 387.083 392.435,388.660 391.950,392.340 388.086 C 397.249 382.930,397.522 381.284,397.228 358.600 C 397.103 348.920,397.164 338.590,397.365 335.644 C 397.622 331.870,397.575 327.940,397.206 322.338 C 396.776 315.817,396.774 313.530,397.199 309.611 C 397.696 305.020,397.677 303.392,396.967 289.800 L 396.716 285.000 398.358 281.750 C 400.323 277.859,400.623 275.200,399.095 275.200 C 398.598 275.200,396.033 274.766,393.395 274.236 C 388.738 273.300,378.079 272.772,370.200 273.088 M389.261 277.071 C 392.260 278.271,392.226 279.803,389.140 282.578 C 385.597 285.763,383.807 286.030,375.560 284.603 C 366.924 283.109,364.200 283.332,360.965 285.799 C 357.032 288.800,356.953 294.595,360.780 299.400 C 365.006 304.705,364.862 305.318,358.033 311.142 L 356.666 312.307 356.506 317.254 C 356.418 319.974,356.554 324.282,356.808 326.828 C 357.762 336.391,353.357 340.916,348.708 335.147 C 346.940 332.955,346.860 331.130,348.351 327.009 C 349.038 325.111,349.600 322.766,349.600 321.799 C 349.600 319.640,350.202 316.602,351.281 313.318 C 352.277 310.285,352.078 308.920,350.215 305.976 C 348.709 303.598,345.925 298.141,345.193 296.135 C 344.563 294.406,343.044 294.033,341.711 295.279 C 340.665 296.257,340.657 296.573,341.574 300.800 C 342.417 304.691,340.873 308.002,335.968 312.822 C 334.052 314.704,331.658 317.522,330.647 319.084 C 327.831 323.438,325.190 326.096,322.032 327.756 C 319.068 329.313,318.287 330.105,316.270 333.600 C 315.320 335.246,314.348 336.229,312.408 337.504 C 307.968 340.421,307.522 341.414,309.036 345.014 C 309.463 346.031,309.689 347.606,309.663 349.400 C 309.592 354.393,310.107 355.696,313.450 358.985 C 317.274 362.748,317.385 363.692,314.332 366.499 C 313.195 367.545,312.031 368.400,311.746 368.400 C 311.078 368.400,310.339 369.777,310.618 370.503 C 311.224 372.081,316.732 372.791,320.305 371.752 C 323.077 370.946,325.461 371.191,328.626 372.606 C 336.399 376.082,348.712 371.112,344.000 366.400 C 343.560 365.960,343.200 365.342,343.200 365.027 C 343.200 364.712,342.795 364.328,342.300 364.173 C 341.805 364.019,341.310 363.772,341.200 363.625 C 341.090 363.478,340.280 362.931,339.400 362.409 C 338.520 361.887,337.494 361.177,337.119 360.830 C 336.745 360.484,336.197 360.020,335.903 359.800 C 335.608 359.580,334.983 359.069,334.513 358.664 C 332.134 356.616,329.123 357.202,326.144 360.291 C 324.175 362.333,322.966 362.313,323.366 360.243 C 324.102 356.435,324.073 355.793,323.038 353.052 C 321.648 349.372,321.702 348.763,323.569 347.076 C 327.339 343.670,332.165 345.303,335.434 351.091 C 337.765 355.218,338.418 355.996,340.389 356.994 C 343.112 358.374,346.115 357.774,348.796 355.314 C 349.344 354.811,349.929 354.400,350.096 354.400 C 350.263 354.400,350.400 354.228,350.400 354.018 C 350.400 353.262,352.583 351.474,353.858 351.187 C 357.115 350.452,363.882 357.050,362.993 360.094 C 362.531 361.678,361.814 363.200,361.531 363.200 C 361.380 363.200,360.979 363.479,360.638 363.819 C 360.297 364.160,358.980 364.626,357.709 364.855 C 355.374 365.277,352.046 366.637,351.506 367.390 C 351.344 367.616,351.209 367.657,351.206 367.482 C 351.189 366.594,349.116 369.408,348.926 370.577 C 348.720 371.846,349.580 375.679,350.433 377.295 C 351.454 379.227,349.951 383.171,347.683 384.514 C 345.040 386.080,342.656 385.856,336.082 383.427 L 334.364 382.791 330.588 384.827 C 325.777 387.420,323.141 387.903,311.044 388.403 C 302.117 388.772,299.182 388.627,294.545 387.588 C 293.439 387.340,290.901 387.281,288.224 387.441 C 280.148 387.924,280.496 388.969,280.900 365.400 C 281.119 352.607,281.565 348.399,283.214 343.600 C 283.856 341.730,284.728 338.400,285.151 336.200 C 286.525 329.059,288.009 325.495,291.814 320.200 C 293.078 318.440,295.300 315.200,296.750 313.000 C 299.765 308.426,303.023 305.036,311.084 298.088 C 321.626 289.001,327.073 285.823,338.200 282.271 C 339.960 281.709,343.323 280.518,345.673 279.625 C 348.023 278.732,351.124 277.728,352.564 277.394 C 358.653 275.982,385.939 275.742,389.261 277.071 M380.800 331.813 C 380.800 333.031,379.679 333.970,379.176 333.174 C 378.752 332.504,378.694 331.143,379.049 330.215 C 379.403 329.293,380.800 330.568,380.800 331.813 M33.097 336.300 C 32.637 336.814,32.431 338.116,32.322 341.200 C 32.178 345.246,32.117 345.491,30.651 347.881 C 26.004 355.457,30.482 360.410,38.353 356.400 C 42.580 354.246,43.790 354.276,48.451 356.647 C 53.462 359.198,55.968 358.826,57.455 355.313 C 58.584 352.646,58.229 351.054,55.659 347.258 C 54.280 345.220,54.199 344.914,54.004 341.017 C 53.716 335.234,53.165 334.806,48.064 336.405 C 44.835 337.418,41.552 337.416,38.600 336.400 C 35.732 335.413,33.920 335.380,33.097 336.300 M46.676 342.971 C 47.835 344.318,48.016 348.356,46.958 349.235 C 46.121 349.930,40.907 349.962,39.700 349.280 C 38.562 348.637,38.396 344.755,39.443 343.260 C 40.859 341.238,45.042 341.071,46.676 342.971 M373.786 354.503 C 377.428 360.517,375.991 364.274,371.622 360.159 C 370.388 358.997,370.241 358.633,370.222 356.693 C 370.186 353.157,372.216 351.910,373.786 354.503 M12.579 370.400 C 13.459 370.400,16.681 374.188,17.966 376.732 C 20.094 380.948,22.498 383.062,26.000 383.796 C 27.926 384.200,33.200 386.657,33.200 387.150 C 33.200 388.144,27.548 388.437,24.800 387.586 C 24.030 387.347,21.748 387.001,19.729 386.816 C 15.392 386.418,14.033 385.745,12.385 383.176 C 10.952 380.943,9.805 375.831,10.158 373.253 C 10.419 371.351,11.618 369.053,11.903 369.908 C 11.993 370.179,12.297 370.400,12.579 370.400 M365.440 375.062 C 368.741 378.459,368.410 380.755,364.575 381.060 C 360.912 381.351,358.248 375.836,361.005 373.668 C 362.343 372.615,363.377 372.940,365.440 375.062 " stroke="none" fill="#565854" fill-rule="evenodd"></path><path id="path8" d="M0.000 4.707 C 0.000 6.442,0.104 6.735,0.643 6.528 C 1.131 6.341,1.230 5.943,1.057 4.875 C 0.670 2.486,0.000 2.380,0.000 4.707 M0.117 15.131 C 0.243 16.194,0.713 17.685,1.162 18.446 C 2.350 20.459,2.820 24.742,2.782 33.191 C 2.747 40.833,2.919 42.550,3.827 43.602 C 4.112 43.933,5.033 45.643,5.873 47.402 L 7.400 50.600 7.372 56.400 L 7.343 62.200 5.272 66.460 C 3.209 70.702,3.200 70.737,3.190 74.660 C 3.180 78.894,2.969 80.080,1.566 83.800 C 0.073 87.760,-0.002 93.931,1.400 97.438 C 2.673 100.618,2.898 104.847,2.038 109.400 C 1.026 114.757,-0.230 188.239,0.390 205.800 C 0.631 212.620,0.918 225.307,1.027 233.993 C 1.177 245.884,1.368 250.333,1.801 252.002 C 3.018 256.699,3.486 262.780,2.954 266.976 C 2.543 270.220,2.554 271.332,3.022 273.541 C 3.759 277.014,3.744 279.910,2.971 283.600 C 2.060 287.946,1.256 294.851,1.004 300.489 C 0.883 303.190,0.585 308.370,0.341 312.000 C -0.225 320.427,-0.139 321.174,1.144 319.002 C 2.404 316.871,2.769 314.092,3.010 304.800 C 3.122 300.510,3.477 295.560,3.799 293.800 C 4.121 292.040,4.851 288.089,5.419 285.020 C 6.384 279.816,6.420 279.211,5.951 276.020 C 5.674 274.139,5.437 269.990,5.424 266.800 C 5.405 262.224,5.205 260.156,4.476 257.000 C 3.610 253.256,3.539 251.937,3.359 236.400 C 3.038 208.816,2.552 197.337,1.622 195.458 C 0.926 194.051,0.902 193.763,1.406 192.788 C 2.122 191.404,2.782 176.591,2.742 162.800 C 2.690 144.662,3.503 116.624,4.245 110.977 L 4.932 105.754 3.766 100.977 C 2.149 94.352,2.124 87.683,3.698 83.200 C 4.278 81.550,5.044 79.030,5.400 77.600 C 6.262 74.140,6.891 72.400,7.280 72.400 C 7.456 72.400,7.600 72.143,7.600 71.829 C 7.600 71.345,8.955 70.700,12.700 69.399 C 13.476 69.129,13.294 67.513,12.214 65.070 C 11.209 62.796,10.492 59.469,9.405 52.021 C 8.932 48.782,8.473 47.221,7.365 45.079 C 4.905 40.325,4.754 39.608,4.372 30.800 C 3.971 21.547,2.879 15.122,1.501 13.900 C 0.197 12.744,-0.131 13.035,0.117 15.131 M34.952 40.540 C 33.407 41.869,33.064 45.791,34.389 46.990 C 35.567 48.056,40.832 48.139,41.863 47.108 C 42.667 46.304,42.760 43.436,42.040 41.696 C 41.107 39.444,37.004 38.775,34.952 40.540 M357.600 40.123 C 355.367 40.884,354.346 45.146,356.000 46.800 C 357.190 47.990,361.949 47.961,363.038 46.758 C 366.077 43.399,362.126 38.579,357.600 40.123 M397.600 120.410 C 393.296 122.682,391.781 122.852,372.600 123.219 C 355.654 123.543,348.191 123.902,340.021 124.787 C 337.920 125.014,333.410 125.476,330.000 125.814 C 323.726 126.434,317.093 127.632,309.800 129.462 C 307.600 130.014,303.280 130.980,300.200 131.608 C 289.082 133.878,273.534 139.065,265.916 143.046 C 263.212 144.459,255.600 148.308,249.000 151.599 C 238.958 156.606,236.184 158.184,232.000 161.269 C 229.250 163.297,223.940 167.213,220.200 169.972 C 199.882 184.960,173.672 214.844,158.099 240.778 C 145.514 261.736,132.715 293.380,128.813 313.183 C 127.961 317.509,126.783 322.657,126.196 324.624 C 124.637 329.850,124.301 337.696,123.897 378.400 L 123.800 388.200 122.670 390.503 C 120.043 395.853,116.554 396.432,94.686 395.151 C 88.685 394.799,85.204 394.799,80.286 395.151 C 66.930 396.106,23.896 395.487,17.535 394.249 C 6.947 392.187,3.557 386.359,2.818 368.942 C 2.508 361.617,2.348 360.267,1.630 358.858 C 0.547 356.735,0.534 353.693,1.600 351.704 C 2.799 349.468,2.603 348.155,0.574 344.800 C -0.507 343.015,0.378 374.795,1.553 380.003 C 3.277 387.644,8.009 393.470,14.227 395.609 C 19.137 397.299,22.472 397.377,87.800 397.344 C 93.740 397.341,102.920 397.353,108.200 397.370 C 118.962 397.404,119.950 397.185,122.165 394.282 C 125.012 390.549,124.942 391.118,125.275 368.800 C 125.740 337.710,126.097 330.868,127.572 324.800 C 128.240 322.050,129.340 316.830,130.015 313.200 C 130.794 309.013,132.100 303.968,133.587 299.400 C 134.876 295.440,136.572 290.179,137.355 287.709 C 148.042 254.004,169.695 220.040,199.980 189.474 C 212.629 176.707,216.616 173.408,235.400 160.174 C 238.291 158.137,269.515 142.306,274.606 140.296 C 280.492 137.972,294.629 133.739,300.827 132.444 C 304.002 131.781,308.850 130.701,311.600 130.044 C 319.769 128.093,324.915 127.254,334.000 126.390 C 338.730 125.940,344.400 125.388,346.600 125.162 C 348.800 124.936,359.330 124.591,370.000 124.394 C 389.862 124.028,391.003 123.933,396.696 122.159 C 399.636 121.242,400.000 121.023,400.000 120.164 C 400.000 119.634,399.955 119.211,399.900 119.224 C 399.845 119.238,398.810 119.771,397.600 120.410 M367.000 272.243 C 355.924 273.088,353.974 273.330,349.902 274.367 C 324.054 280.950,304.659 294.095,289.357 315.400 C 278.855 330.023,274.366 346.976,273.735 374.400 C 273.424 387.935,274.404 392.533,278.222 395.443 L 279.739 396.600 287.370 396.663 C 291.566 396.697,301.930 396.838,310.400 396.977 C 323.235 397.187,326.833 397.119,332.000 396.568 C 335.989 396.142,339.626 395.991,342.200 396.143 C 348.727 396.528,383.893 395.160,385.700 394.451 C 386.305 394.214,386.800 394.108,386.800 394.216 C 386.800 396.230,395.443 388.628,397.050 385.200 C 397.618 383.990,398.514 382.096,399.042 380.991 L 400.003 378.982 399.902 328.991 L 399.800 279.000 398.244 282.123 L 396.689 285.247 396.942 289.723 C 397.669 302.616,397.700 304.981,397.201 309.594 C 396.774 313.532,396.775 315.808,397.206 322.338 C 397.575 327.940,397.622 331.870,397.365 335.644 C 397.164 338.590,397.103 348.920,397.228 358.600 C 397.522 381.284,397.249 382.930,392.340 388.086 C 388.660 391.950,387.083 392.435,376.893 392.831 C 372.214 393.013,368.220 393.264,368.018 393.389 C 367.599 393.648,351.595 394.111,341.200 394.164 C 337.350 394.184,329.520 394.445,323.800 394.745 C 316.934 395.106,310.477 395.195,304.800 395.008 C 300.070 394.853,292.877 394.654,288.815 394.566 C 278.819 394.349,277.163 393.478,275.569 387.600 C 274.216 382.612,275.450 359.396,277.802 345.589 C 281.518 323.769,298.223 301.162,321.364 286.634 C 326.974 283.112,343.904 276.568,352.041 274.776 C 360.992 272.806,385.105 272.470,393.391 274.200 C 396.026 274.750,398.591 275.200,399.091 275.200 C 400.813 275.200,399.995 274.540,397.700 274.077 C 396.435 273.822,394.140 273.336,392.600 272.997 C 389.863 272.395,371.927 271.867,367.000 272.243 M40.943 341.975 C 38.696 342.939,37.800 348.207,39.700 349.280 C 40.907 349.962,46.121 349.930,46.958 349.235 C 48.016 348.356,47.835 344.318,46.676 342.971 C 45.664 341.794,42.603 341.263,40.943 341.975 " stroke="none" fill="#4c4c44" fill-rule="evenodd"></path></g></svg>