<svg id="svg" version="1.1" xmlns="http://www.w3.org/2000/svg" xmlns:xlink="http://www.w3.org/1999/xlink" width="400" height="400" viewBox="0, 0, 400,400"><g id="svgg"><path id="path0" d="M6.660 1.200 C 6.477 2.116,6.202 2.400,5.499 2.400 C 3.761 2.400,2.934 3.391,2.689 5.763 C 2.564 6.973,2.223 8.446,1.931 9.037 C 1.432 10.045,1.493 10.210,2.916 11.740 C 5.546 14.565,6.962 17.974,6.640 20.702 C 6.490 21.966,6.201 25.340,5.997 28.200 C 5.793 31.060,5.440 34.748,5.212 36.396 C 4.126 44.254,7.329 50.878,10.755 47.856 C 15.586 43.593,20.771 47.032,19.437 53.614 C 19.104 55.256,18.709 57.590,18.559 58.800 C 18.174 61.905,17.771 62.800,16.759 62.800 C 15.905 62.800,11.623 60.581,11.159 59.898 C 10.468 58.881,7.430 59.269,6.701 60.467 C 4.606 63.911,3.638 110.547,5.237 131.000 C 5.460 133.860,5.805 138.450,6.003 141.200 C 6.202 143.950,6.832 148.450,7.405 151.200 C 8.424 156.095,8.441 156.423,8.188 166.800 C 7.951 176.569,8.501 187.122,9.381 189.659 C 10.105 191.745,10.800 202.980,10.800 212.588 C 10.800 225.466,11.649 238.648,13.015 246.971 C 13.557 250.272,14.000 253.441,14.000 254.014 C 14.000 257.718,15.839 260.509,19.442 262.273 C 23.884 264.448,25.577 267.170,25.591 272.155 C 25.599 275.018,25.750 275.618,27.220 278.641 C 31.994 288.460,28.270 300.560,20.830 299.404 C 15.634 298.597,14.882 299.068,13.949 303.711 C 13.038 308.247,14.338 309.887,17.534 308.234 C 20.392 306.756,23.280 306.992,25.430 308.880 C 28.018 311.153,28.088 311.047,17.252 321.310 C 9.357 328.787,9.294 335.220,17.031 343.661 C 20.533 347.481,20.644 347.870,19.815 353.356 C 18.324 363.220,23.477 371.207,33.459 374.505 C 52.117 380.669,69.071 369.671,66.231 353.246 C 65.401 348.450,65.897 347.227,70.258 343.309 C 75.312 338.767,77.430 338.041,79.171 340.254 C 80.488 341.929,80.383 352.621,78.995 358.199 C 78.345 360.812,78.000 363.324,78.000 365.445 C 78.000 369.847,77.057 371.048,69.800 375.895 C 61.869 381.192,58.282 386.240,61.513 387.557 C 65.344 389.118,84.109 389.789,91.000 388.611 C 94.137 388.075,96.208 387.984,100.600 388.188 C 105.056 388.395,106.649 388.321,108.400 387.827 C 113.973 386.255,114.143 386.247,118.727 387.353 C 127.459 389.461,142.809 389.975,150.681 388.423 C 154.564 387.658,154.670 387.658,158.011 388.408 C 161.125 389.107,162.570 389.149,175.800 388.928 C 188.144 388.721,191.053 388.788,196.171 389.397 C 199.868 389.837,203.296 390.019,205.171 389.875 C 206.837 389.748,214.140 389.810,221.400 390.013 C 233.465 390.352,235.064 390.318,240.000 389.620 C 249.092 388.335,249.979 388.297,254.980 388.989 C 258.535 389.480,263.395 389.660,274.747 389.720 L 289.800 389.800 294.931 388.500 C 297.753 387.785,300.552 387.200,301.151 387.200 C 301.751 387.200,304.482 387.785,307.221 388.500 L 312.200 389.800 330.200 389.753 C 354.421 389.689,355.927 389.084,344.800 383.888 C 339.983 381.639,338.338 380.154,333.349 373.550 C 328.295 366.860,327.982 366.222,326.451 359.527 C 323.754 347.726,326.207 342.433,332.630 346.196 C 335.939 348.136,336.653 350.770,335.360 356.275 C 331.002 374.848,361.658 385.467,377.325 370.811 C 381.875 366.555,383.230 362.214,382.187 355.238 C 381.324 349.466,382.022 347.789,386.301 345.350 C 391.472 342.404,393.840 340.742,394.334 339.713 C 395.532 337.219,395.338 325.778,393.984 319.000 C 393.764 317.900,393.392 315.296,393.157 313.212 C 392.922 311.129,392.476 308.933,392.165 308.332 C 391.854 307.731,391.600 306.781,391.600 306.220 C 391.600 305.659,391.446 305.200,391.259 305.200 C 391.071 305.200,390.606 303.265,390.226 300.900 C 388.820 292.160,388.159 291.066,383.729 290.151 C 381.984 289.790,380.423 289.159,379.400 288.401 C 374.712 284.925,373.219 284.968,370.423 288.661 C 369.665 289.661,367.976 291.406,366.668 292.540 C 365.360 293.673,363.316 295.986,362.125 297.681 C 359.966 300.753,356.584 304.148,354.926 304.905 C 353.615 305.505,353.045 305.098,351.599 302.535 C 350.875 301.251,349.409 299.219,348.341 298.020 C 343.840 292.966,348.009 286.557,356.421 285.598 C 360.638 285.117,361.970 284.416,364.869 281.154 C 366.207 279.648,368.059 277.973,368.984 277.430 C 372.603 275.310,374.882 271.699,376.128 266.110 C 376.914 262.588,377.743 260.925,380.279 257.779 C 382.480 255.048,383.327 253.050,383.993 249.014 C 384.246 247.482,384.821 245.232,385.271 244.014 C 388.215 236.038,388.590 231.689,386.988 224.088 L 385.869 218.776 386.547 215.618 C 386.921 213.882,387.404 210.435,387.621 207.958 C 387.838 205.481,388.291 202.272,388.627 200.827 C 389.900 195.343,389.956 193.713,389.157 185.200 C 388.734 180.690,388.098 175.560,387.744 173.800 C 387.248 171.337,387.173 169.724,387.417 166.800 C 387.592 164.710,387.714 162.100,387.688 161.000 C 387.663 159.900,387.573 153.870,387.488 147.600 C 387.365 138.553,387.189 135.581,386.632 133.200 C 386.246 131.550,385.806 127.642,385.654 124.514 C 385.267 116.547,383.719 114.492,379.523 116.374 C 372.860 119.363,371.409 115.083,377.134 109.325 C 390.394 95.987,388.232 78.025,373.970 83.046 C 368.881 84.837,353.292 85.286,346.021 83.849 C 343.101 83.272,339.859 82.800,338.817 82.800 C 336.368 82.800,336.293 82.706,332.805 75.200 C 331.221 71.790,328.957 66.999,327.774 64.553 C 322.169 52.961,325.130 41.287,332.697 45.148 C 336.042 46.854,336.693 49.035,335.612 54.912 C 332.195 73.490,361.512 83.946,376.234 69.400 C 380.865 64.826,381.400 63.334,381.400 55.000 C 381.400 47.430,381.273 47.867,385.003 42.663 C 388.560 37.700,388.480 33.292,384.602 20.429 C 383.762 17.644,383.660 16.832,384.013 15.760 C 384.401 14.586,387.453 11.601,388.267 11.600 C 388.450 11.599,389.097 11.194,389.704 10.700 C 390.310 10.205,391.514 9.260,392.378 8.600 C 394.549 6.941,394.989 5.746,394.554 2.687 L 394.200 0.200 388.900 0.088 C 383.728 -0.021,383.600 -0.003,383.600 0.827 C 383.600 4.319,379.870 6.241,373.400 6.082 C 362.133 5.804,359.546 5.836,354.916 6.306 C 352.229 6.579,349.619 6.964,349.116 7.160 C 346.590 8.145,342.260 8.595,336.200 8.502 C 325.816 8.343,311.982 9.797,305.170 11.763 C 303.976 12.108,301.044 12.643,298.654 12.952 C 293.382 13.634,292.930 13.977,292.201 17.852 C 291.917 19.363,291.359 22.060,290.962 23.845 C 289.826 28.955,290.990 31.531,295.577 34.053 C 298.987 35.927,299.154 36.365,299.240 43.634 C 299.299 48.625,299.179 50.181,298.611 51.800 C 296.228 58.585,292.244 61.161,291.159 56.620 C 290.893 55.509,290.542 54.330,290.379 54.000 C 290.215 53.670,289.543 52.320,288.885 51.000 C 285.305 43.813,283.015 26.061,284.715 18.670 C 285.677 14.488,285.601 14.103,282.867 9.293 C 281.197 6.355,280.437 4.450,279.361 0.500 C 279.286 0.225,278.743 0.000,278.155 0.000 L 277.085 0.000 277.318 2.900 C 277.446 4.495,277.931 7.240,278.395 9.000 C 279.442 12.971,279.765 79.578,278.846 102.000 C 278.489 110.715,278.428 121.912,278.632 141.200 C 278.975 173.659,278.967 171.423,278.865 204.000 C 278.820 218.410,278.973 235.600,279.206 242.200 C 279.439 248.800,279.739 257.234,279.872 260.942 C 280.243 271.301,277.487 281.108,270.051 295.898 C 262.650 310.618,247.687 323.841,230.400 330.937 C 219.134 335.562,199.002 336.689,184.785 333.492 C 162.389 328.455,149.834 320.327,134.904 301.200 C 125.840 289.588,125.188 288.196,122.310 274.291 C 120.348 264.809,120.160 259.725,121.169 243.388 C 121.638 235.791,121.655 232.110,121.265 222.388 C 120.705 208.417,120.684 196.251,121.208 188.800 C 121.667 182.268,121.698 142.129,121.248 136.800 C 120.895 132.628,121.284 120.263,122.197 106.600 C 122.921 95.752,123.098 48.741,122.490 28.565 C 122.069 14.601,122.120 13.663,123.605 8.267 C 124.079 6.543,124.520 3.978,124.585 2.567 L 124.703 -0.000 123.197 -0.000 L 121.692 0.000 121.410 2.261 C 120.647 8.364,116.527 13.055,112.843 12.015 C 108.815 10.878,107.522 10.838,101.800 11.674 C 97.224 12.342,95.322 12.436,91.400 12.187 C 88.760 12.019,81.380 11.853,75.000 11.818 C 56.203 11.715,55.658 12.087,63.976 19.339 C 71.637 26.018,72.400 26.864,72.400 28.668 C 72.400 36.802,64.240 40.617,59.024 34.922 C 55.323 30.881,53.178 30.413,47.887 32.491 C 43.758 34.112,41.927 34.105,38.122 32.451 C 33.187 30.306,30.237 30.844,27.204 34.441 C 24.293 37.893,22.111 38.525,18.934 36.835 C 11.092 32.661,13.419 27.099,26.714 18.235 C 35.621 12.295,36.041 11.673,32.195 10.103 C 28.860 8.742,26.413 8.619,21.600 9.569 C 14.036 11.062,11.066 10.605,8.076 7.491 L 6.751 6.111 7.618 4.556 C 8.095 3.700,8.622 2.820,8.789 2.600 C 8.956 2.380,9.182 1.705,9.291 1.100 C 9.607 -0.653,7.011 -0.554,6.660 1.200 M367.400 16.194 C 377.208 19.065,382.149 23.649,383.029 30.696 C 383.931 37.916,379.219 39.949,374.231 34.491 C 370.803 30.741,368.807 30.409,363.095 32.641 C 358.838 34.305,357.608 34.292,353.793 32.545 C 348.734 30.229,346.153 30.794,342.200 35.082 C 336.254 41.530,329.546 34.059,334.204 26.176 C 336.761 21.850,340.281 19.299,347.800 16.323 C 352.428 14.491,361.380 14.432,367.400 16.194 M115.329 31.692 C 116.588 34.268,118.464 44.180,118.454 48.200 C 118.368 80.733,118.061 102.872,117.674 104.447 C 115.720 112.400,114.284 114.840,110.400 116.800 C 106.673 118.681,104.604 121.521,104.151 125.378 C 103.746 128.828,102.454 129.748,98.533 129.381 C 92.348 128.801,90.153 131.053,88.607 139.561 C 86.468 151.335,85.085 153.738,80.742 153.231 C 78.256 152.940,77.454 152.452,76.531 150.667 C 75.342 148.367,71.640 144.578,69.408 143.376 C 67.675 142.443,67.159 142.839,65.242 146.578 C 62.599 151.730,60.869 152.577,53.476 152.343 C 46.201 152.112,43.650 149.037,42.582 139.210 C 42.128 135.031,41.273 134.086,36.600 132.603 C 33.381 131.581,30.085 129.907,28.598 128.538 C 25.311 125.513,22.800 123.659,21.651 123.409 C 17.997 122.613,16.272 120.250,15.805 115.400 C 15.656 113.860,15.190 110.800,14.769 108.600 C 14.347 106.400,14.002 103.880,14.003 103.000 C 14.003 102.120,13.659 99.240,13.238 96.600 C 11.733 87.146,11.078 77.600,11.936 77.600 C 12.120 77.600,12.477 77.150,12.727 76.600 C 13.614 74.654,16.152 75.969,23.191 82.019 C 27.534 85.751,28.652 86.392,32.800 87.532 C 39.036 89.246,40.418 89.336,45.945 88.391 C 50.139 87.673,51.866 87.571,56.194 87.782 C 62.652 88.096,63.510 87.721,66.707 83.188 C 68.789 80.235,70.781 77.709,74.124 73.781 C 75.598 72.050,76.059 71.024,77.357 66.581 C 80.308 56.486,84.112 50.980,88.800 50.018 C 91.777 49.408,92.803 48.643,93.820 46.278 C 94.217 45.355,94.878 43.826,95.290 42.880 C 96.981 38.993,101.283 35.649,106.200 34.400 C 108.982 33.693,109.631 33.350,111.166 31.774 C 113.304 29.581,114.288 29.561,115.329 31.692 M38.161 36.600 C 41.861 37.808,43.918 37.854,47.264 36.805 C 52.610 35.129,53.312 35.633,53.611 41.360 C 53.812 45.214,53.890 45.498,55.300 47.529 C 60.408 54.886,55.868 60.458,48.134 56.325 C 43.872 54.048,42.180 54.049,37.754 56.328 C 29.814 60.417,25.466 55.147,30.509 47.548 L 32.200 45.000 32.201 41.064 C 32.201 35.376,32.872 34.873,38.161 36.600 M353.761 36.600 C 357.612 37.857,359.405 37.856,363.624 36.593 C 368.445 35.150,368.922 35.531,369.200 41.052 C 369.391 44.836,369.478 45.154,371.063 47.811 C 375.669 55.534,371.673 60.326,363.944 56.347 C 359.283 53.947,358.191 53.927,353.800 56.163 C 345.929 60.169,340.922 55.272,345.730 48.270 C 347.711 45.385,348.000 44.413,348.000 40.650 C 348.000 37.356,348.345 36.326,349.600 35.878 C 350.533 35.544,350.520 35.542,353.761 36.600 M196.322 37.944 C 192.568 39.189,185.715 45.329,178.788 53.653 C 175.905 57.117,176.605 58.417,180.037 55.973 C 180.635 55.548,181.239 55.200,181.381 55.200 C 181.522 55.200,183.654 53.881,186.119 52.269 C 190.254 49.565,192.733 47.666,198.922 42.465 C 203.628 38.510,205.541 38.726,211.524 43.888 C 222.612 53.454,227.505 53.549,217.339 44.000 C 211.373 38.396,202.589 35.865,196.322 37.944 M71.080 47.401 C 73.469 49.074,72.787 56.463,70.151 57.474 C 68.912 57.950,66.800 53.187,66.800 49.916 C 66.800 47.608,69.288 46.146,71.080 47.401 M47.863 60.829 C 49.368 61.504,51.770 62.326,53.200 62.655 C 57.816 63.717,58.464 64.672,56.435 67.421 C 50.895 74.929,33.398 74.444,29.338 66.670 C 28.409 64.890,29.360 63.825,32.787 62.804 C 34.323 62.346,36.709 61.452,38.090 60.816 C 41.596 59.200,44.243 59.204,47.863 60.829 M363.702 60.971 C 365.523 61.725,367.910 62.557,369.007 62.821 C 373.005 63.782,373.726 65.095,371.642 67.622 C 366.445 73.927,351.155 73.927,345.958 67.622 C 343.767 64.964,344.469 63.927,349.457 62.449 C 351.028 61.984,353.278 61.154,354.457 60.606 C 357.469 59.203,359.639 59.289,363.702 60.971 M291.016 61.199 C 291.227 61.167,291.571 61.738,291.781 62.470 C 292.310 64.321,294.488 67.350,297.900 70.983 C 299.495 72.681,300.800 74.244,300.800 74.457 C 300.800 74.669,301.745 76.768,302.900 79.122 L 305.000 83.400 305.037 88.600 C 305.081 94.663,305.251 95.192,308.174 98.371 C 310.846 101.278,310.830 101.219,310.955 108.635 C 311.011 111.916,311.338 116.310,311.683 118.400 C 312.028 120.490,312.325 123.460,312.343 125.000 C 312.361 126.540,312.561 128.429,312.788 129.197 C 313.477 131.533,313.257 134.117,312.031 138.099 C 310.720 142.359,310.774 143.218,312.636 147.736 C 315.712 155.201,316.199 155.639,323.157 157.192 C 332.530 159.283,335.696 161.904,332.900 165.259 C 329.728 169.066,328.177 170.037,325.343 169.993 C 324.054 169.972,322.340 169.953,321.534 169.949 C 320.486 169.944,318.610 170.714,314.952 172.649 C 307.413 176.638,305.487 176.414,304.369 171.419 C 303.266 166.491,300.800 163.453,298.879 164.656 C 297.654 165.423,297.892 166.944,299.816 170.637 C 301.906 174.647,302.138 176.426,301.214 181.325 C 300.532 184.938,300.798 186.809,302.542 190.671 C 305.388 196.976,303.800 204.057,298.517 208.619 C 293.987 212.530,293.729 214.389,297.045 219.231 C 300.313 224.002,300.307 224.149,296.537 231.605 C 294.812 235.018,292.897 239.099,292.282 240.673 C 289.623 247.480,286.685 249.296,285.030 245.157 C 284.204 243.095,283.459 231.710,283.383 220.000 C 283.354 215.490,283.186 207.840,283.011 203.000 C 282.767 196.276,282.857 191.267,283.392 181.768 C 283.776 174.931,283.996 168.541,283.880 167.568 C 283.764 166.596,283.385 163.910,283.037 161.600 C 282.497 158.017,282.474 156.595,282.879 151.921 C 283.254 147.591,283.247 145.370,282.844 141.321 C 281.507 127.894,281.928 110.414,283.824 100.600 C 285.674 91.026,285.670 91.092,284.741 85.600 C 283.070 75.723,285.568 62.657,289.556 60.415 C 290.009 60.160,290.264 60.232,290.416 60.656 C 290.534 60.988,290.804 61.232,291.016 61.199 M201.639 65.523 C 199.869 66.473,198.426 68.898,199.042 69.889 C 199.666 70.891,205.638 71.129,207.044 70.208 C 210.138 68.181,204.994 63.724,201.639 65.523 M61.358 74.299 C 59.918 76.283,53.600 78.722,53.600 77.294 C 53.600 76.971,59.775 73.025,60.800 72.694 C 61.908 72.336,62.191 73.152,61.358 74.299 M321.120 118.480 C 321.758 119.118,321.710 121.621,321.043 122.500 C 319.780 124.164,317.200 123.046,317.200 120.835 C 317.200 118.615,319.734 117.094,321.120 118.480 M300.078 264.400 C 299.229 266.812,293.330 270.800,290.610 270.800 C 288.566 270.800,289.411 265.828,291.533 265.366 C 292.120 265.238,293.122 264.969,293.760 264.767 C 294.398 264.565,295.343 264.400,295.860 264.400 C 296.377 264.400,296.800 264.209,296.800 263.976 C 296.800 263.743,296.955 263.648,297.144 263.765 C 297.597 264.046,299.585 263.112,299.625 262.600 C 299.642 262.380,299.799 262.560,299.973 263.000 C 300.147 263.440,300.194 264.070,300.078 264.400 M286.914 281.562 C 288.291 283.894,287.299 288.330,285.074 289.788 C 281.186 292.336,279.740 289.751,282.154 284.568 C 283.940 280.732,285.749 279.590,286.914 281.562 M44.302 307.100 C 44.405 307.413,44.081 307.600,43.433 307.600 C 42.761 307.600,42.400 307.381,42.400 306.972 C 42.400 306.220,44.049 306.331,44.302 307.100 M53.967 316.766 C 62.444 319.262,68.406 325.617,68.397 332.146 C 68.390 337.824,63.270 339.555,59.214 335.251 C 55.174 330.965,53.287 330.546,47.870 332.735 C 43.936 334.325,42.004 334.348,38.267 332.853 C 32.395 330.504,30.815 330.752,27.104 334.605 C 24.365 337.451,23.174 337.934,21.068 337.054 C 13.631 333.947,21.733 320.629,33.577 316.493 C 37.231 315.217,49.253 315.378,53.967 316.766 M368.000 316.463 C 378.155 318.375,385.487 325.318,385.127 332.681 C 384.799 339.392,378.857 341.369,374.606 336.181 C 371.516 332.410,368.678 331.861,363.336 334.000 C 359.403 335.575,357.342 335.565,353.555 333.954 C 348.468 331.789,345.908 332.307,342.609 336.169 C 337.058 342.667,328.580 335.773,332.589 328.021 C 336.838 319.805,354.731 313.965,368.000 316.463 M38.336 336.805 C 39.730 337.242,41.739 337.600,42.800 337.600 C 43.861 337.600,45.870 337.242,47.264 336.805 C 52.644 335.119,53.289 335.601,53.606 341.549 C 53.827 345.698,53.869 345.851,55.378 347.934 C 60.367 354.821,55.642 360.242,48.000 356.400 C 43.657 354.216,41.953 354.225,37.747 356.454 C 30.149 360.479,25.724 355.558,30.277 348.148 C 31.602 345.991,31.743 345.465,32.003 341.694 C 32.413 335.756,33.157 335.182,38.336 336.805 M352.751 337.783 C 356.573 339.131,358.820 339.267,362.222 338.356 C 368.802 336.594,368.908 336.657,369.230 342.533 C 369.453 346.593,369.514 346.813,371.092 349.265 C 375.986 356.872,371.408 361.985,363.566 357.670 C 359.383 355.368,357.915 355.394,353.181 357.853 C 345.374 361.909,341.220 356.605,346.229 348.978 C 347.989 346.298,348.000 346.259,348.000 342.723 C 348.000 337.682,349.132 336.506,352.751 337.783 M184.980 339.736 C 185.659 340.232,185.662 340.290,185.031 340.533 C 184.418 340.768,182.000 339.856,182.000 339.390 C 182.000 338.969,184.296 339.236,184.980 339.736 M187.108 340.325 C 187.195 340.586,186.982 340.800,186.633 340.800 C 186.285 340.800,186.000 340.515,186.000 340.167 C 186.000 339.460,186.861 339.583,187.108 340.325 M154.153 358.700 C 156.325 362.082,156.328 364.902,154.159 365.446 C 152.905 365.761,151.955 364.762,151.240 362.377 C 149.953 358.081,152.052 355.431,154.153 358.700 M48.207 361.183 C 51.383 362.505,52.761 362.942,55.200 363.402 C 59.907 364.289,56.401 369.532,49.721 371.595 C 41.371 374.174,28.796 370.393,29.279 365.448 C 29.395 364.259,29.555 364.158,33.200 362.971 C 35.290 362.290,37.629 361.406,38.397 361.006 C 41.884 359.192,43.493 359.221,48.207 361.183 M362.200 361.853 C 363.520 362.422,366.309 363.403,368.397 364.032 C 373.560 365.589,374.287 367.141,371.105 369.818 C 364.465 375.406,352.061 375.265,346.463 369.539 C 343.996 367.017,344.628 365.672,349.000 364.134 C 350.980 363.438,353.680 362.407,355.000 361.844 C 358.013 360.558,359.197 360.559,362.200 361.853 M388.913 370.787 C 387.673 371.544,386.106 373.679,383.830 377.714 C 382.983 379.215,381.958 380.150,379.075 382.051 C 371.480 387.060,371.619 388.706,379.600 388.279 C 390.655 387.688,399.012 377.205,393.454 370.900 C 392.460 369.772,390.652 369.727,388.913 370.787 " stroke="none" fill="#888b84" fill-rule="evenodd"></path><path id="path1" d="M131.169 2.100 C 131.132 4.661,131.152 4.560,129.785 9.000 L 128.677 12.600 128.766 30.783 C 128.815 40.783,128.922 49.074,129.004 49.207 C 129.087 49.340,128.969 62.488,128.744 78.424 C 128.339 107.047,127.798 184.432,127.861 204.600 C 127.879 210.320,127.873 222.920,127.847 232.600 C 127.756 266.757,127.850 268.353,130.580 278.600 C 133.838 290.835,146.071 308.525,155.800 315.072 C 162.514 319.590,173.876 323.083,176.311 321.377 C 177.448 320.581,177.668 311.107,176.598 309.054 C 176.269 308.424,176.000 307.580,176.000 307.178 C 176.000 306.776,175.826 306.340,175.613 306.208 C 175.093 305.887,173.035 301.395,172.493 299.400 C 171.120 294.344,170.349 274.241,171.365 270.000 C 172.197 266.528,172.159 264.731,171.162 260.533 C 170.392 257.294,170.364 256.694,170.818 253.264 C 171.166 250.636,171.207 248.258,170.956 245.262 C 170.332 237.790,170.517 227.802,171.344 224.400 C 171.835 222.378,172.122 219.378,172.222 215.200 C 172.308 211.630,172.649 207.643,173.027 205.800 C 174.331 199.437,174.234 194.956,172.711 191.200 C 172.468 190.601,172.237 183.217,172.136 172.808 L 171.966 155.416 170.745 151.808 C 169.534 148.229,169.526 148.152,169.782 142.200 C 170.019 136.702,169.953 135.785,169.002 131.240 C 167.867 125.814,167.466 115.993,168.135 110.000 C 168.559 106.202,168.062 104.730,164.855 100.284 C 154.021 85.263,153.795 68.110,164.217 51.759 C 167.677 46.331,168.287 44.821,168.808 40.384 C 169.244 36.670,170.021 33.983,171.462 31.200 C 174.084 26.136,173.819 17.111,170.937 13.294 C 169.539 11.443,165.088 8.239,162.700 7.363 C 162.315 7.222,162.000 6.948,162.000 6.753 C 162.000 6.559,161.724 6.400,161.387 6.400 C 160.846 6.400,159.677 5.347,158.100 3.439 C 157.825 3.106,157.600 2.196,157.600 1.417 L 157.600 0.000 144.400 0.000 L 131.200 0.000 131.169 2.100 M246.667 0.267 C 246.520 0.413,246.400 1.046,246.400 1.673 C 246.400 2.853,243.219 6.400,242.162 6.400 C 241.889 6.400,241.607 6.537,241.533 6.704 C 241.460 6.871,240.500 7.479,239.400 8.055 C 227.698 14.189,226.146 15.965,226.299 23.045 C 226.523 33.466,229.882 40.763,238.831 50.274 C 246.766 58.707,249.400 65.169,249.400 76.200 C 249.400 88.965,245.624 94.864,234.807 98.997 C 230.200 100.758,229.637 101.980,230.839 107.610 C 231.284 109.695,231.829 112.300,232.050 113.400 C 232.420 115.244,233.257 128.052,233.299 132.523 C 233.318 134.518,232.690 137.836,231.772 140.600 C 230.434 144.626,229.829 151.753,230.353 157.313 C 230.850 162.580,230.715 165.743,229.626 174.400 C 229.364 176.480,229.393 178.382,229.720 180.600 C 230.302 184.553,230.304 190.733,229.724 193.400 C 229.485 194.500,228.998 197.290,228.644 199.600 C 228.289 201.910,227.791 204.970,227.537 206.400 C 227.283 207.830,226.954 213.230,226.805 218.400 C 226.534 227.818,226.066 231.008,224.016 237.400 C 223.805 238.060,223.518 239.410,223.380 240.400 C 223.242 241.390,222.854 243.075,222.517 244.145 C 222.101 245.468,221.918 247.582,221.946 250.745 C 222.128 271.881,221.862 277.154,220.427 280.930 C 220.192 281.547,219.999 282.535,219.998 283.126 C 219.996 283.717,219.708 284.740,219.356 285.400 C 218.832 286.385,218.778 287.174,219.053 289.800 C 219.718 296.138,219.404 300.610,218.001 304.802 C 217.034 307.691,216.637 309.788,216.345 313.560 C 216.007 317.927,215.797 318.871,214.589 321.451 C 212.487 325.940,213.544 326.725,220.702 325.991 C 241.334 323.874,259.727 308.125,268.428 285.126 C 273.704 271.180,273.779 270.584,273.161 247.609 C 272.598 226.696,272.468 128.318,272.910 58.079 C 273.192 13.304,273.181 12.283,272.399 8.698 C 271.960 6.685,271.600 3.904,271.600 2.519 L 271.600 0.000 259.267 0.000 C 252.483 0.000,246.813 0.120,246.667 0.267 M0.000 393.418 L 0.000 400.000 7.024 400.000 C 11.679 400.000,13.963 399.863,13.796 399.593 C 13.658 399.370,13.391 399.282,13.202 399.399 C 12.739 399.685,10.800 398.773,10.800 398.269 C 10.800 398.048,10.685 397.982,10.544 398.122 C 10.404 398.263,9.760 397.933,9.114 397.389 C 8.467 396.845,7.762 396.400,7.546 396.400 C 7.330 396.400,7.281 396.192,7.438 395.938 C 7.603 395.671,7.549 395.584,7.309 395.733 C 6.543 396.206,4.779 394.339,3.392 391.585 C 2.636 390.082,1.563 388.399,1.008 387.845 L 0.000 386.836 0.000 393.418 M397.284 394.700 C 396.171 395.745,394.617 397.160,393.830 397.843 C 391.632 399.754,391.902 400.000,396.200 400.000 L 400.000 400.000 400.000 396.400 C 400.000 392.220,399.956 392.193,397.284 394.700 " stroke="none" fill="#1f1f1e" fill-rule="evenodd"></path><path id="path2" d="M44.813 0.300 C 44.899 2.332,50.720 3.311,52.345 1.567 C 53.697 0.116,53.449 0.000,49.000 0.000 C 46.690 0.000,44.806 0.135,44.813 0.300 M65.200 0.200 C 65.200 1.751,71.237 3.106,72.504 1.839 C 72.855 1.488,73.471 1.197,73.871 1.194 C 74.448 1.189,74.484 1.114,74.042 0.834 C 73.594 0.550,73.633 0.443,74.242 0.287 C 74.659 0.180,72.795 0.072,70.100 0.046 C 67.405 0.021,65.200 0.090,65.200 0.200 M80.702 0.266 C 80.979 0.377,81.103 0.633,80.979 0.834 C 80.855 1.035,81.104 1.200,81.534 1.200 C 81.963 1.200,82.427 1.494,82.565 1.854 C 82.875 2.660,92.842 2.475,93.114 1.658 C 93.198 1.406,93.657 1.197,94.133 1.194 C 94.790 1.189,94.865 1.102,94.442 0.834 C 93.994 0.550,94.033 0.443,94.642 0.287 C 95.059 0.180,91.980 0.086,87.800 0.078 C 83.620 0.070,80.426 0.154,80.702 0.266 M96.700 0.234 C 96.416 0.517,97.629 2.000,98.145 2.000 C 98.347 2.000,98.768 2.315,99.081 2.700 C 99.495 3.209,99.707 3.264,99.858 2.900 C 100.118 2.276,101.200 2.238,101.200 2.854 C 101.200 3.276,102.710 3.225,108.100 2.623 C 108.705 2.555,110.156 2.478,111.325 2.450 C 113.194 2.406,113.556 2.256,114.337 1.200 L 115.224 0.000 106.079 0.000 C 101.049 0.000,96.828 0.105,96.700 0.234 M286.493 0.800 C 286.768 1.240,287.179 1.600,287.407 1.600 C 287.636 1.600,288.130 1.240,288.507 0.800 C 289.176 0.019,289.154 0.000,287.593 0.000 C 286.093 0.000,286.024 0.050,286.493 0.800 M295.441 0.563 C 296.103 2.288,303.308 2.912,304.666 1.363 C 305.070 0.902,305.670 0.421,306.000 0.294 C 306.330 0.167,304.041 0.049,300.913 0.032 C 296.177 0.005,295.261 0.094,295.441 0.563 M36.850 18.231 C 33.361 19.169,29.440 21.460,27.322 23.796 C 23.447 28.072,23.332 28.685,26.500 28.170 C 30.779 27.474,35.165 27.748,38.467 28.915 C 42.242 30.250,43.514 30.265,47.479 29.021 C 52.144 27.557,54.187 27.401,57.967 28.217 C 62.885 29.280,63.379 27.567,59.397 23.266 C 54.702 18.195,45.021 16.033,36.850 18.231 M354.400 18.804 C 347.988 19.601,340.885 23.788,341.277 26.540 C 341.393 27.353,341.673 27.413,346.400 27.632 C 350.502 27.822,351.893 28.056,354.148 28.932 C 357.679 30.305,359.262 30.277,363.959 28.758 C 367.575 27.589,368.040 27.531,371.908 27.771 C 376.513 28.057,376.951 27.825,375.843 25.684 C 373.439 21.034,363.113 17.721,354.400 18.804 M36.555 319.367 C 32.020 320.406,26.800 324.229,26.800 326.510 C 26.800 327.453,26.905 327.486,30.713 327.718 C 33.659 327.897,35.445 328.258,37.940 329.178 C 42.092 330.709,43.397 330.706,47.836 329.154 C 51.210 327.975,51.624 327.921,55.601 328.139 C 60.312 328.398,61.034 328.185,60.648 326.650 C 59.306 321.302,45.854 317.236,36.555 319.367 M354.600 319.872 C 347.756 321.403,341.200 325.485,341.200 328.215 C 341.200 329.106,341.279 329.122,345.500 329.061 C 349.433 329.005,350.106 329.111,353.385 330.300 C 357.803 331.902,358.943 331.913,363.535 330.400 C 367.512 329.089,370.328 328.891,374.127 329.654 C 380.070 330.847,377.950 325.407,371.131 321.965 C 367.224 319.993,358.818 318.928,354.600 319.872 " stroke="none" fill="#d7dbd6" fill-rule="evenodd"></path><path id="path3" d="M128.333 3.032 C 128.418 4.977,128.209 7.167,127.751 9.133 C 127.087 11.986,127.045 14.967,127.146 51.800 C 127.218 77.941,127.098 94.391,126.792 100.200 C 126.485 106.032,126.290 133.286,126.214 181.000 C 126.151 220.600,125.972 253.822,125.816 254.827 C 125.104 259.400,127.366 274.992,129.797 282.269 C 131.605 287.680,132.932 290.215,137.474 296.944 C 153.490 320.669,166.929 327.332,204.111 329.984 C 229.198 331.773,253.502 317.909,266.007 294.677 C 272.603 282.421,275.721 269.854,275.154 257.800 C 274.479 243.425,273.929 121.760,274.449 101.824 C 275.106 76.645,274.908 12.088,274.162 8.478 C 273.822 6.834,273.548 4.253,273.553 2.744 C 273.562 0.096,273.528 0.000,272.581 0.000 C 271.291 0.000,271.222 3.305,272.399 8.698 C 273.181 12.283,273.192 13.304,272.910 58.079 C 272.468 128.318,272.598 226.696,273.161 247.609 C 273.779 270.584,273.704 271.180,268.428 285.126 C 259.727 308.125,241.334 323.874,220.702 325.991 C 213.544 326.725,212.487 325.940,214.589 321.451 C 215.797 318.871,216.007 317.927,216.345 313.560 C 216.637 309.788,217.034 307.691,218.001 304.802 C 219.404 300.610,219.718 296.138,219.053 289.800 C 218.778 287.174,218.832 286.385,219.356 285.400 C 219.708 284.740,219.996 283.717,219.998 283.126 C 219.999 282.535,220.192 281.547,220.427 280.930 C 221.862 277.154,222.128 271.881,221.946 250.745 C 221.918 247.582,222.101 245.468,222.517 244.145 C 222.854 243.075,223.242 241.390,223.380 240.400 C 223.518 239.410,223.805 238.060,224.016 237.400 C 226.066 231.008,226.534 227.818,226.805 218.400 C 226.954 213.230,227.283 207.830,227.537 206.400 C 227.791 204.970,228.289 201.910,228.644 199.600 C 228.998 197.290,229.485 194.500,229.724 193.400 C 230.304 190.733,230.302 184.553,229.720 180.600 C 229.393 178.382,229.364 176.480,229.626 174.400 C 230.715 165.743,230.850 162.580,230.353 157.313 C 229.829 151.753,230.434 144.626,231.772 140.600 C 232.690 137.836,233.318 134.518,233.299 132.523 C 233.257 128.052,232.420 115.244,232.050 113.400 C 231.829 112.300,231.284 109.695,230.839 107.610 C 229.637 101.980,230.200 100.758,234.807 98.997 C 245.624 94.864,249.400 88.965,249.400 76.200 C 249.400 65.169,246.766 58.707,238.831 50.274 C 229.882 40.763,226.523 33.466,226.299 23.045 C 226.146 15.965,227.698 14.189,239.400 8.055 C 240.500 7.479,241.460 6.871,241.533 6.704 C 241.607 6.537,241.889 6.400,242.162 6.400 C 243.281 6.400,246.296 2.938,246.470 1.455 L 246.639 -0.000 242.151 -0.000 L 237.664 0.000 237.378 1.300 C 236.980 3.114,232.301 6.398,230.114 6.400 C 229.594 6.400,228.512 6.854,223.299 9.257 C 221.484 10.094,217.646 11.547,214.772 12.485 C 207.888 14.733,206.804 15.920,209.244 18.539 C 209.637 18.961,210.447 20.317,211.046 21.553 C 212.493 24.543,214.609 27.582,217.676 31.076 C 219.064 32.657,222.350 36.437,224.977 39.476 C 227.604 42.514,232.115 47.430,235.002 50.400 C 244.624 60.300,248.353 69.367,246.832 79.166 C 245.257 89.323,237.309 94.880,226.188 93.599 C 217.983 92.654,215.424 96.640,217.198 107.600 C 218.064 112.947,218.120 116.417,217.404 120.222 C 217.034 122.190,216.573 126.004,216.381 128.698 C 216.188 131.391,215.812 134.001,215.544 134.498 C 214.840 135.806,215.004 142.060,215.782 143.566 C 216.330 144.625,216.357 146.238,216.008 157.283 C 215.613 169.787,215.415 171.464,213.848 175.600 C 212.943 177.987,212.865 180.873,213.235 198.400 C 213.497 210.791,212.247 223.047,210.389 226.317 C 209.469 227.937,206.975 230.002,204.487 231.204 C 203.614 231.625,202.066 232.607,201.047 233.385 C 200.027 234.163,199.060 234.801,198.897 234.801 C 198.733 234.802,198.263 235.622,197.851 236.624 C 196.955 238.804,197.749 240.150,200.036 240.324 C 200.727 240.377,201.653 240.672,202.092 240.980 C 202.532 241.288,203.134 241.447,203.429 241.333 C 206.066 240.322,202.879 251.422,199.448 255.200 C 198.948 255.750,197.955 257.136,197.241 258.279 L 195.943 260.359 196.644 261.836 C 197.029 262.648,197.636 263.389,197.992 263.482 C 198.641 263.652,198.964 264.071,200.506 266.755 C 201.815 269.033,201.444 276.000,200.014 276.000 C 199.856 276.000,199.383 276.672,198.963 277.493 C 198.543 278.315,197.795 279.318,197.300 279.722 C 196.648 280.255,196.400 280.885,196.400 282.009 C 196.400 282.862,196.175 283.704,195.900 283.880 C 195.625 284.056,195.098 284.740,194.729 285.400 C 193.191 288.149,192.400 287.277,192.400 282.833 C 192.400 278.836,192.389 278.791,190.663 275.670 C 188.563 271.873,188.278 270.384,188.838 266.122 C 189.198 263.390,189.164 262.480,188.635 260.660 C 187.833 257.902,187.828 255.335,188.619 253.005 C 189.549 250.265,189.600 243.906,188.700 242.911 C 188.315 242.485,188.000 241.755,188.000 241.289 C 188.000 240.823,187.550 239.956,187.000 239.362 C 186.400 238.715,186.000 237.808,186.000 237.095 C 186.000 236.442,185.739 235.073,185.420 234.054 C 183.880 229.132,183.800 228.503,183.818 221.400 C 183.831 216.499,184.068 212.731,184.560 209.600 C 185.957 200.719,185.964 200.533,185.089 195.209 C 184.338 190.638,184.307 189.680,184.723 183.809 C 184.972 180.284,185.154 175.780,185.128 173.800 C 185.084 170.531,185.238 169.740,186.803 165.200 C 188.881 159.169,189.122 155.450,187.695 151.400 C 186.664 148.474,186.541 146.913,186.949 141.965 C 187.200 138.922,187.142 137.835,186.669 136.703 C 185.392 133.647,185.105 130.956,185.596 126.639 C 185.956 123.465,185.951 121.964,185.573 119.971 C 185.305 118.557,185.112 115.013,185.144 112.096 C 185.176 109.180,185.008 106.030,184.771 105.096 C 184.534 104.163,184.218 102.859,184.070 102.198 C 183.430 99.347,182.325 98.702,176.632 97.855 C 162.854 95.805,155.923 81.057,161.048 64.696 C 162.960 58.592,164.435 56.451,174.537 45.115 C 182.203 36.513,183.829 33.687,185.184 26.600 C 185.437 25.280,185.820 23.660,186.036 23.000 C 187.577 18.293,186.929 16.144,183.200 13.595 C 182.430 13.069,181.710 12.531,181.600 12.399 C 181.191 11.908,175.119 8.000,174.766 8.000 C 174.565 8.000,174.400 7.820,174.400 7.600 C 174.400 7.380,174.229 7.200,174.019 7.200 C 173.252 7.200,168.437 3.545,168.193 2.779 C 168.055 2.344,167.775 2.092,167.571 2.218 C 167.254 2.414,167.001 1.257,167.153 0.300 C 167.179 0.135,165.040 0.000,162.400 0.000 L 157.600 0.000 157.600 1.417 C 157.600 2.196,157.825 3.106,158.100 3.439 C 159.677 5.347,160.846 6.400,161.387 6.400 C 161.724 6.400,162.000 6.559,162.000 6.753 C 162.000 6.948,162.315 7.222,162.700 7.363 C 165.088 8.239,169.539 11.443,170.937 13.294 C 173.819 17.111,174.084 26.136,171.462 31.200 C 170.021 33.983,169.244 36.670,168.808 40.384 C 168.287 44.821,167.677 46.331,164.217 51.759 C 153.795 68.110,154.021 85.263,164.855 100.284 C 168.062 104.730,168.559 106.202,168.135 110.000 C 167.466 115.993,167.867 125.814,169.002 131.240 C 169.953 135.785,170.019 136.702,169.782 142.200 C 169.526 148.152,169.534 148.229,170.745 151.808 L 171.966 155.416 172.136 172.808 C 172.237 183.217,172.468 190.601,172.711 191.200 C 174.234 194.956,174.331 199.437,173.027 205.800 C 172.649 207.643,172.308 211.630,172.222 215.200 C 172.122 219.378,171.835 222.378,171.344 224.400 C 170.517 227.802,170.332 237.790,170.956 245.262 C 171.207 248.258,171.166 250.636,170.818 253.264 C 170.364 256.694,170.392 257.294,171.162 260.533 C 172.159 264.731,172.197 266.528,171.365 270.000 C 170.349 274.241,171.120 294.344,172.493 299.400 C 173.035 301.395,175.093 305.887,175.613 306.208 C 175.826 306.340,176.000 306.776,176.000 307.178 C 176.000 307.580,176.269 308.424,176.598 309.054 C 177.668 311.107,177.448 320.581,176.311 321.377 C 173.876 323.083,162.514 319.590,155.800 315.072 C 146.071 308.525,133.838 290.835,130.580 278.600 C 127.850 268.353,127.756 266.757,127.847 232.600 C 127.873 222.920,127.879 210.320,127.861 204.600 C 127.798 184.432,128.339 107.047,128.744 78.424 C 128.969 62.488,129.086 49.339,129.003 49.205 C 128.920 49.071,128.824 40.690,128.789 30.580 L 128.725 12.200 129.889 8.586 C 130.537 6.576,131.099 3.869,131.155 2.486 L 131.257 0.000 129.728 -0.001 L 128.200 -0.002 128.333 3.032 M399.274 1.300 C 399.238 2.015,399.161 3.484,399.104 4.564 C 399.036 5.857,399.171 6.585,399.500 6.697 C 399.874 6.824,400.000 6.004,400.000 3.433 C 400.000 0.201,399.417 -1.513,399.274 1.300 M399.148 19.900 C 398.909 20.505,398.565 21.294,398.382 21.654 C 397.978 22.451,398.297 23.800,399.269 25.400 L 399.997 26.600 399.999 22.700 C 400.000 18.588,399.855 18.110,399.148 19.900 M398.160 48.700 C 397.314 49.965,395.942 51.682,395.111 52.515 C 394.280 53.348,393.600 54.203,393.600 54.415 C 393.600 54.627,393.330 54.800,393.000 54.800 C 392.670 54.800,392.400 55.055,392.400 55.367 C 392.400 55.678,392.217 55.994,391.993 56.069 C 391.441 56.253,391.033 59.984,391.369 61.775 C 391.518 62.571,391.811 63.117,392.020 62.988 C 392.229 62.858,392.400 63.123,392.400 63.576 C 392.400 64.029,392.598 64.355,392.840 64.300 C 393.395 64.174,394.738 68.136,394.774 70.003 C 394.788 70.774,394.984 72.034,395.209 72.803 C 396.801 78.240,397.003 84.673,395.775 90.821 C 395.570 91.849,396.504 102.370,397.229 107.200 C 397.444 108.630,397.790 112.230,397.999 115.200 C 398.218 118.331,398.706 121.693,399.160 123.200 L 399.943 125.800 399.972 86.100 C 399.987 64.265,399.932 46.400,399.849 46.400 C 399.766 46.400,399.005 47.435,398.160 48.700 M0.000 269.000 C 0.000 274.733,0.145 278.000,0.400 278.000 C 0.620 278.000,0.800 277.573,0.800 277.051 C 0.800 276.529,1.193 275.224,1.672 274.151 C 2.868 271.476,2.851 266.514,1.637 264.215 C 1.177 263.344,0.800 262.039,0.800 261.315 C 0.800 260.592,0.620 260.000,0.400 260.000 C 0.145 260.000,0.000 263.267,0.000 269.000 M399.309 262.500 C 398.186 263.941,397.685 270.214,398.474 272.954 C 399.710 277.249,400.000 276.515,400.000 269.089 C 400.000 265.190,399.932 262.000,399.849 262.000 C 399.766 262.000,399.523 262.225,399.309 262.500 M0.000 328.667 C 0.000 332.733,0.197 333.000,1.199 330.288 C 1.742 328.817,1.745 328.412,1.224 326.715 C 0.342 323.837,0.000 324.382,0.000 328.667 M0.000 340.800 C 0.000 345.280,0.286 345.717,1.318 342.812 C 1.980 340.948,1.983 340.699,1.366 338.812 C 0.381 335.801,0.000 336.356,0.000 340.800 M0.000 382.818 C 0.000 386.580,0.064 386.901,1.008 387.845 C 1.563 388.399,2.636 390.082,3.392 391.585 C 4.779 394.339,6.543 396.206,7.309 395.733 C 7.539 395.590,7.605 395.669,7.456 395.909 C 7.309 396.148,7.553 396.458,8.000 396.600 C 8.447 396.742,8.691 397.052,8.544 397.291 C 8.395 397.532,8.461 397.610,8.693 397.466 C 8.922 397.325,9.330 397.475,9.600 397.800 C 9.870 398.125,10.250 398.293,10.445 398.172 C 10.640 398.051,10.800 398.115,10.800 398.312 C 10.800 398.784,12.761 399.671,13.202 399.399 C 13.391 399.282,13.658 399.370,13.796 399.593 C 14.362 400.509,392.309 400.117,392.600 399.200 C 392.740 398.760,393.517 397.913,394.327 397.320 C 395.137 396.726,396.577 395.466,397.527 394.520 C 398.476 393.574,399.421 392.800,399.627 392.800 C 399.832 392.800,400.000 391.879,400.000 390.754 C 400.000 388.365,399.731 388.433,396.395 391.656 C 392.093 395.813,388.971 397.054,382.000 397.379 C 379.470 397.496,373.530 397.791,368.800 398.034 C 360.556 398.457,331.390 398.947,322.200 398.816 C 319.780 398.782,314.360 398.446,310.155 398.070 C 303.503 397.476,301.553 397.450,295.155 397.873 C 290.301 398.194,281.612 398.296,269.600 398.171 C 247.032 397.938,247.235 397.936,241.400 398.505 C 235.321 399.098,230.808 399.085,217.600 398.438 C 209.348 398.034,205.956 398.022,202.286 398.385 C 198.657 398.744,197.046 398.741,195.286 398.373 C 193.732 398.048,190.950 397.975,186.600 398.147 C 181.885 398.332,179.366 398.250,177.033 397.834 C 174.194 397.327,173.264 397.343,168.033 397.994 C 161.579 398.796,151.377 398.804,143.209 398.013 C 139.795 397.682,137.692 397.686,135.009 398.027 C 132.153 398.391,129.730 398.365,123.400 397.905 C 118.461 397.547,114.023 397.436,111.800 397.617 C 109.820 397.777,106.240 397.737,103.845 397.526 C 100.992 397.276,97.268 397.286,93.045 397.556 C 83.863 398.143,60.876 398.196,53.800 397.647 C 50.500 397.390,45.910 397.214,43.600 397.254 C 31.966 397.457,19.281 396.671,15.628 395.522 C 11.190 394.126,4.748 388.505,2.735 384.273 C 2.298 383.353,1.686 382.150,1.376 381.600 C 1.066 381.050,0.809 380.195,0.806 379.700 C 0.803 379.205,0.620 378.800,0.400 378.800 C 0.160 378.800,0.000 380.406,0.000 382.818 " stroke="none" fill="#3c3c36" fill-rule="evenodd"></path><path id="path4" d="M12.291 0.300 C 11.945 0.966,12.284 3.761,12.728 3.909 C 12.991 3.997,13.096 4.245,12.962 4.461 C 12.133 5.802,16.215 6.353,19.600 5.357 C 23.765 4.131,28.983 3.918,32.556 4.829 C 38.258 6.284,44.071 6.849,52.400 6.757 C 56.690 6.710,61.100 6.691,62.200 6.715 C 63.300 6.739,71.490 6.858,80.400 6.979 C 89.310 7.100,97.770 7.238,99.200 7.285 C 102.322 7.388,114.636 6.404,115.884 5.952 C 116.962 5.562,118.630 3.067,118.995 1.300 L 119.264 0.000 117.261 0.000 C 115.523 0.000,115.135 0.155,114.329 1.174 C 113.473 2.255,113.148 2.363,110.200 2.552 C 108.440 2.665,105.695 2.881,104.100 3.032 C 102.043 3.228,101.200 3.176,101.200 2.854 C 101.200 2.238,100.118 2.276,99.858 2.900 C 99.707 3.264,99.495 3.209,99.081 2.700 C 98.768 2.315,98.347 2.000,98.145 2.000 C 97.629 2.000,96.416 0.517,96.700 0.234 C 97.004 -0.070,96.051 -0.056,94.866 0.261 C 94.169 0.448,94.067 0.597,94.466 0.849 C 94.853 1.094,94.761 1.189,94.133 1.194 C 93.657 1.197,93.198 1.406,93.114 1.658 C 92.842 2.475,82.875 2.660,82.565 1.854 C 82.427 1.494,81.963 1.200,81.534 1.200 C 81.104 1.200,80.852 1.039,80.974 0.842 C 81.314 0.291,80.160 -0.001,77.667 0.005 C 74.836 0.012,73.310 0.370,74.066 0.849 C 74.471 1.106,74.423 1.189,73.871 1.194 C 73.471 1.197,72.855 1.488,72.504 1.839 C 71.503 2.839,66.993 2.249,65.800 0.962 C 64.892 -0.018,53.200 -0.609,53.200 0.325 C 53.200 2.743,46.423 3.286,45.182 0.966 L 44.665 0.000 28.556 0.000 C 19.696 0.000,12.377 0.135,12.291 0.300 M282.214 1.778 C 283.694 6.698,286.269 8.106,291.043 6.604 C 292.928 6.011,294.154 5.951,299.523 6.189 C 306.627 6.504,316.872 5.935,324.200 4.818 C 327.981 4.242,329.509 4.172,331.400 4.488 C 338.195 5.624,344.944 4.847,346.911 2.702 C 347.450 2.114,348.400 0.525,348.400 0.211 C 348.400 0.101,338.785 0.053,327.034 0.105 L 305.667 0.200 304.800 1.200 C 303.324 2.902,296.151 2.414,295.441 0.563 C 295.069 -0.407,289.374 -0.212,288.507 0.800 C 288.130 1.240,287.636 1.600,287.407 1.600 C 287.179 1.600,286.768 1.240,286.493 0.800 C 286.094 0.161,285.560 0.000,283.836 0.000 L 281.678 0.000 282.214 1.778 M38.900 15.616 C 30.882 17.058,19.600 25.470,19.600 30.006 C 19.600 33.793,22.615 34.412,26.527 31.428 C 29.675 29.027,33.079 28.657,37.400 30.247 C 42.477 32.115,43.114 32.188,45.800 31.207 C 53.142 28.527,55.138 28.607,59.726 31.767 C 66.159 36.197,69.435 31.245,64.286 24.873 C 58.212 17.355,48.638 13.864,38.900 15.616 M350.081 17.954 C 342.090 20.312,336.438 25.309,336.409 30.038 C 336.390 33.123,338.435 33.529,342.287 31.206 C 346.480 28.677,349.018 28.586,354.467 30.771 C 358.266 32.294,358.797 32.294,362.675 30.777 C 368.071 28.667,370.892 28.770,374.800 31.220 C 379.913 34.426,382.078 32.041,379.191 26.382 C 375.615 19.372,360.299 14.938,350.081 17.954 M50.986 18.213 C 55.686 19.437,61.135 23.775,61.805 26.824 C 62.242 28.813,61.676 29.019,57.967 28.217 C 54.187 27.401,52.144 27.557,47.479 29.021 C 43.514 30.265,42.242 30.250,38.467 28.915 C 35.165 27.748,30.779 27.474,26.500 28.170 C 23.332 28.685,23.447 28.072,27.322 23.796 C 32.095 18.531,42.647 16.041,50.986 18.213 M365.400 19.444 C 370.220 20.615,374.565 23.211,375.843 25.684 C 376.951 27.825,376.513 28.057,371.908 27.771 C 368.040 27.531,367.575 27.589,363.959 28.758 C 359.262 30.277,357.679 30.305,354.148 28.932 C 351.893 28.056,350.502 27.822,346.400 27.632 C 340.593 27.363,340.067 26.918,342.409 24.251 C 346.664 19.404,356.648 17.317,365.400 19.444 M39.596 63.315 C 34.731 65.072,33.604 66.601,35.863 68.378 C 39.683 71.383,49.943 70.707,51.213 67.366 C 52.390 64.270,44.535 61.531,39.596 63.315 M356.400 62.928 C 348.437 65.137,349.595 69.624,358.200 69.901 C 363.576 70.074,368.093 67.692,366.250 65.655 C 364.378 63.587,359.197 62.152,356.400 62.928 M104.400 98.171 C 104.400 101.187,106.704 101.956,108.505 99.541 C 109.899 97.672,109.051 96.230,106.469 96.079 L 104.400 95.958 104.400 98.171 M287.614 131.974 C 287.158 132.826,287.062 135.175,287.443 136.167 C 288.186 138.103,291.600 136.553,291.600 134.280 C 291.600 131.950,288.566 130.194,287.614 131.974 M37.205 317.626 C 31.685 318.363,25.150 322.948,22.819 327.720 C 20.676 332.106,22.063 333.351,26.662 331.168 C 30.682 329.260,33.584 329.156,37.927 330.766 C 42.013 332.281,44.044 332.323,47.308 330.958 C 51.689 329.127,54.755 329.182,58.537 331.160 C 64.133 334.086,66.032 333.018,64.308 327.913 C 61.796 320.476,49.839 315.937,37.205 317.626 M353.400 318.592 C 341.734 321.159,332.586 329.454,336.926 333.530 C 338.212 334.739,338.965 334.633,341.976 332.820 C 346.362 330.179,348.533 330.064,354.109 332.174 C 357.618 333.503,359.514 333.467,363.535 332.000 C 368.616 330.145,371.082 330.373,375.695 333.120 C 382.745 337.320,384.258 330.066,377.626 323.863 C 372.453 319.024,361.885 316.725,353.400 318.592 M50.937 319.832 C 55.747 321.072,59.997 324.056,60.648 326.650 C 61.034 328.185,60.312 328.398,55.601 328.139 C 51.624 327.921,51.210 327.975,47.836 329.154 C 43.397 330.706,42.092 330.709,37.940 329.178 C 35.445 328.258,33.659 327.897,30.713 327.718 C 25.870 327.422,25.561 326.768,28.765 323.596 C 33.330 319.080,42.187 317.576,50.937 319.832 M366.049 320.175 C 370.375 321.092,375.592 324.143,376.848 326.490 C 378.309 329.220,377.375 330.306,374.127 329.654 C 370.328 328.891,367.512 329.089,363.535 330.400 C 358.943 331.913,357.803 331.902,353.385 330.300 C 350.106 329.111,349.433 329.005,345.500 329.061 C 336.756 329.186,343.526 322.349,354.600 319.872 C 356.425 319.464,363.587 319.654,366.049 320.175 M39.065 363.779 C 33.424 366.099,34.081 368.774,40.586 369.967 C 46.417 371.036,52.889 368.335,50.745 365.727 C 48.627 363.152,42.909 362.198,39.065 363.779 M354.200 365.144 C 352.880 365.773,351.443 366.689,351.006 367.179 L 350.211 368.072 351.668 369.407 C 354.891 372.361,362.357 372.462,365.940 369.600 C 370.058 366.312,359.867 362.444,354.200 365.144 " stroke="none" fill="#b8bcb4" fill-rule="evenodd"></path><path id="path5" d="M126.800 2.777 C 126.800 4.465,126.438 6.958,125.910 8.911 C 125.217 11.471,125.027 13.219,125.052 16.800 C 125.297 50.865,125.150 100.279,124.790 105.164 C 124.440 109.901,123.811 218.339,123.897 259.000 C 123.929 274.520,127.846 286.573,137.087 299.600 C 150.242 318.142,164.442 327.066,187.400 331.218 C 226.172 338.231,257.672 321.131,271.948 285.322 C 277.374 271.711,277.450 271.168,276.827 250.680 C 276.263 232.115,276.125 131.016,276.566 59.742 L 276.851 13.683 275.985 8.942 C 275.442 5.974,275.197 3.414,275.330 2.100 C 275.524 0.181,275.472 0.000,274.722 0.000 C 273.773 -0.000,273.830 4.000,274.868 10.200 C 275.451 13.685,275.467 23.838,275.074 139.200 C 274.948 176.127,275.044 210.843,275.322 229.000 C 275.925 268.396,275.918 268.893,274.687 273.600 C 264.866 311.156,237.089 332.860,201.469 330.809 C 167.375 328.846,150.011 318.942,133.731 292.172 C 130.080 286.168,128.347 281.015,126.341 270.200 C 125.369 264.958,125.396 266.124,125.471 231.800 C 125.492 222.120,125.495 209.610,125.477 204.000 C 125.408 182.924,125.924 109.102,126.341 80.400 C 126.599 62.557,126.643 43.401,126.450 32.658 C 126.272 22.790,126.201 14.240,126.292 13.658 C 126.382 13.076,126.813 10.959,127.249 8.954 C 128.114 4.971,128.141 0.376,127.300 0.098 C 126.931 -0.023,126.800 0.681,126.800 2.777 M169.022 0.365 C 168.890 0.578,169.063 0.988,169.405 1.276 C 169.748 1.564,170.279 2.025,170.585 2.300 C 170.892 2.575,171.291 2.803,171.471 2.808 C 171.652 2.812,172.511 3.436,173.381 4.195 C 174.251 4.954,175.781 5.986,176.781 6.487 C 177.781 6.989,178.658 7.529,178.729 7.688 C 179.057 8.417,185.718 11.205,188.483 11.770 C 192.687 12.629,198.669 12.573,203.256 11.631 C 205.315 11.209,208.710 10.671,210.800 10.436 C 215.649 9.892,219.103 8.891,223.717 6.691 C 225.743 5.725,229.006 4.423,230.969 3.798 C 238.938 1.261,238.042 0.000,228.271 0.000 L 220.541 0.000 220.171 1.474 C 219.503 4.129,216.354 5.123,204.000 6.579 C 197.330 7.365,189.334 7.200,186.995 6.226 C 183.980 4.972,180.587 2.269,180.327 0.914 C 180.171 0.101,169.505 -0.417,169.022 0.365 M397.600 0.320 C 397.600 0.496,397.797 0.837,398.037 1.077 C 398.353 1.393,398.353 1.740,398.037 2.331 C 396.912 4.433,397.978 8.800,399.616 8.800 C 400.243 8.800,400.052 6.906,399.400 6.655 C 398.688 6.382,398.585 3.949,399.234 2.736 C 399.852 1.582,399.365 -0.000,398.392 -0.000 C 397.957 -0.000,397.600 0.144,397.600 0.320 M0.014 4.687 C 0.003 6.382,0.113 6.732,0.600 6.545 C 1.350 6.257,1.350 4.912,0.600 3.600 C 0.049 2.636,0.028 2.676,0.014 4.687 M396.124 14.500 C 391.001 19.513,390.753 20.930,392.744 33.828 C 393.318 37.544,392.778 39.595,389.753 45.205 C 387.266 49.815,386.987 50.662,386.194 56.000 C 385.323 61.866,384.598 64.879,383.136 68.716 C 381.696 72.497,381.639 72.338,385.087 74.177 C 391.186 77.430,392.126 81.126,390.632 96.000 C 390.064 101.659,390.254 105.078,391.322 108.408 C 391.963 110.407,392.557 113.921,393.213 119.600 C 393.455 121.690,393.894 124.390,394.190 125.600 C 394.485 126.810,395.020 130.410,395.379 133.600 C 395.737 136.790,396.203 140.849,396.415 142.621 C 396.923 146.871,396.893 148.722,396.250 152.800 C 395.533 157.341,395.987 169.455,397.015 173.200 C 397.843 176.219,398.038 188.798,397.456 201.600 C 397.271 205.670,397.078 214.580,397.028 221.400 C 396.929 234.723,396.839 235.765,395.367 240.517 C 394.171 244.382,393.683 248.936,394.377 249.772 C 395.366 250.964,394.876 259.303,393.647 262.200 C 393.460 262.640,393.081 263.900,392.804 265.000 C 392.528 266.100,392.121 267.720,391.901 268.600 C 391.285 271.055,391.058 276.400,391.570 276.400 C 391.806 276.400,392.000 276.657,392.000 276.972 C 392.000 277.286,392.654 278.231,393.452 279.072 C 396.796 282.590,396.842 282.742,397.406 292.000 C 397.622 295.555,399.224 303.757,399.817 304.350 C 399.918 304.451,400.000 298.574,400.000 291.289 L 400.000 278.045 398.812 277.343 C 395.590 275.440,395.590 265.752,398.811 259.715 C 400.150 257.207,400.673 246.870,399.499 246.120 C 397.761 245.009,397.730 241.777,399.422 238.211 C 399.966 237.065,400.016 231.178,399.864 186.159 C 399.690 134.257,399.577 130.448,398.116 126.800 C 397.690 125.737,396.644 118.032,396.025 111.400 C 395.820 109.200,395.363 105.870,395.009 104.000 C 394.219 99.826,394.128 92.858,394.787 87.000 C 395.503 80.628,394.833 75.474,392.993 73.200 C 392.726 72.870,392.379 72.062,392.222 71.404 C 392.065 70.746,391.812 70.116,391.660 70.004 C 387.269 66.762,388.706 49.814,393.474 48.617 C 393.978 48.491,394.703 47.895,395.086 47.294 C 395.468 46.692,395.876 46.110,395.991 46.000 C 396.490 45.523,398.000 41.908,398.000 41.189 C 398.000 40.755,398.203 40.400,398.452 40.400 C 398.765 40.400,398.817 39.759,398.622 38.300 C 398.468 37.145,398.266 35.021,398.175 33.579 C 398.083 32.138,397.649 29.258,397.210 27.179 C 396.026 21.569,396.490 18.846,398.960 16.903 C 399.859 16.196,400.000 15.781,400.000 13.842 C 400.000 10.932,399.723 10.979,396.124 14.500 M0.050 26.276 C 0.078 32.614,0.232 37.080,0.394 36.200 C 0.555 35.320,0.998 33.893,1.378 33.030 C 1.874 31.905,1.998 30.941,1.817 29.630 C 1.157 24.838,1.148 22.784,1.777 20.621 C 2.392 18.504,2.385 18.339,1.616 16.831 C 0.073 13.807,-0.002 14.260,0.050 26.276 M197.736 25.638 C 192.334 26.541,189.491 28.357,186.361 32.906 C 182.775 38.117,180.847 40.399,173.800 47.782 C 165.023 56.977,163.462 59.319,161.606 66.087 C 158.840 76.166,159.856 81.867,165.721 89.200 C 171.168 96.008,174.445 96.891,183.477 93.984 C 188.796 92.271,190.631 92.542,192.335 95.290 C 192.782 96.011,193.487 96.963,193.903 97.407 C 194.968 98.546,195.213 99.604,195.564 104.600 C 195.849 108.637,196.579 111.292,197.600 112.000 C 198.083 112.335,199.200 114.719,199.200 115.415 C 199.200 115.775,198.255 116.999,197.100 118.135 C 194.465 120.726,192.400 123.370,192.400 124.153 C 192.400 124.483,192.220 124.864,192.000 125.000 C 190.582 125.876,191.580 130.398,193.780 133.064 C 196.719 136.627,196.842 137.396,195.041 140.950 C 193.058 144.862,193.053 147.175,195.018 151.023 C 196.676 154.269,196.651 155.428,194.838 159.341 C 194.211 160.693,193.563 162.250,193.396 162.800 C 193.230 163.350,192.286 165.415,191.298 167.389 C 189.379 171.226,188.876 175.280,189.968 178.126 C 190.206 178.745,190.398 181.355,190.395 183.926 C 190.391 187.252,190.617 189.523,191.180 191.800 C 191.615 193.560,192.254 196.368,192.599 198.039 C 192.945 199.711,193.538 201.421,193.917 201.839 C 194.296 202.258,194.922 203.092,195.308 203.694 C 197.273 206.756,203.520 204.425,204.204 200.374 C 204.352 199.497,204.478 194.060,204.483 188.290 C 204.492 177.617,204.636 176.093,206.375 168.200 C 207.394 163.577,207.391 161.665,206.359 157.332 C 205.406 153.333,205.512 151.106,206.778 148.519 C 207.908 146.209,207.617 140.400,206.372 140.400 C 204.792 140.400,206.146 134.750,208.316 132.290 C 208.767 131.779,209.018 130.271,209.215 126.890 C 209.426 123.277,209.685 121.814,210.344 120.519 C 211.888 117.487,210.880 113.600,208.551 113.600 C 208.057 113.600,207.202 113.429,206.653 113.220 C 205.942 112.950,205.602 112.979,205.477 113.320 C 205.341 113.689,205.177 113.684,204.770 113.300 C 204.351 112.905,204.336 112.526,204.697 111.500 C 206.085 107.554,205.604 99.431,203.539 91.968 C 201.454 84.432,203.754 82.719,210.677 86.653 C 214.319 88.722,214.040 88.623,221.907 90.634 C 232.124 93.246,233.803 93.099,237.800 89.238 C 239.120 87.963,240.850 86.534,241.644 86.062 C 246.383 83.246,247.392 75.199,244.201 65.673 C 241.826 58.582,239.357 55.568,219.390 35.388 C 210.179 26.078,206.099 24.241,197.736 25.638 M210.112 32.134 C 214.538 34.348,216.796 36.264,227.773 47.119 C 239.438 58.654,239.895 59.312,241.190 66.416 C 241.609 68.717,242.143 71.229,242.376 71.997 C 243.336 75.160,242.483 78.308,240.923 77.361 C 240.293 76.978,239.857 75.710,238.999 71.765 C 238.625 70.048,236.983 68.696,232.456 66.382 C 225.670 62.912,217.081 57.498,212.089 53.542 C 204.151 47.253,204.130 47.252,196.060 53.356 C 191.433 56.856,179.409 64.768,175.133 67.128 C 171.049 69.381,169.887 70.768,168.999 74.451 C 167.368 81.213,164.855 82.774,163.413 77.921 C 162.280 74.102,163.696 65.678,166.402 60.145 C 168.535 55.784,189.647 34.269,193.551 32.477 C 199.226 29.872,205.336 29.746,210.112 32.134 M39.305 41.812 C 37.799 42.866,36.911 48.751,38.080 49.920 C 38.740 50.580,47.260 50.580,47.920 49.920 C 49.052 48.788,48.063 43.223,46.514 42.004 C 45.215 40.982,40.662 40.861,39.305 41.812 M355.346 41.668 C 353.688 42.470,352.416 48.374,353.595 49.794 C 354.346 50.699,361.854 50.658,363.163 49.741 C 364.929 48.504,363.640 42.025,361.516 41.456 C 360.099 41.077,356.297 41.207,355.346 41.668 M0.121 57.200 L 0.131 67.800 0.408 60.200 C 0.561 56.020,0.556 51.250,0.399 49.600 C 0.216 47.692,0.115 50.460,0.121 57.200 M207.516 60.357 C 212.302 62.799,231.575 83.563,231.596 86.300 C 231.628 90.426,221.471 87.581,212.600 80.980 C 205.127 75.419,203.344 75.557,193.163 82.477 C 180.447 91.122,176.007 92.769,173.617 89.731 C 171.482 87.017,174.582 82.734,186.600 71.796 C 190.780 67.991,195.010 64.036,196.000 63.007 C 199.631 59.233,203.546 58.332,207.516 60.357 M231.559 72.326 C 233.435 73.695,234.798 77.860,233.610 78.594 C 232.644 79.191,227.288 72.991,227.743 71.803 C 228.043 71.023,230.174 71.314,231.559 72.326 M0.103 152.200 C 0.090 164.804,0.269 173.373,0.645 178.200 C 0.986 182.577,1.354 197.004,1.584 215.000 C 2.074 253.264,2.277 260.130,3.070 265.123 C 3.706 269.128,3.700 269.375,2.863 273.723 C 2.050 277.943,1.997 279.463,1.941 300.200 C 1.859 330.612,1.945 336.708,2.486 338.910 C 2.849 340.384,2.845 341.355,2.471 343.170 C 1.715 346.827,1.799 378.299,2.572 381.151 C 3.780 385.611,8.111 390.746,12.528 392.956 C 17.258 395.323,19.060 395.622,31.000 396.020 C 36.940 396.219,45.490 396.517,50.000 396.683 C 59.385 397.028,99.104 397.066,109.400 396.739 C 110.940 396.690,113.460 396.666,115.000 396.685 C 121.193 396.761,142.056 397.176,152.600 397.432 C 161.884 397.658,164.738 397.589,169.282 397.031 C 173.539 396.508,175.281 396.452,177.082 396.777 C 178.357 397.008,183.090 397.207,187.600 397.219 C 234.421 397.350,244.372 397.364,250.600 397.308 C 254.560 397.272,265.360 397.279,274.600 397.322 C 286.399 397.377,293.127 397.235,297.200 396.847 C 302.445 396.346,303.572 396.361,308.984 397.002 C 319.224 398.215,380.661 397.384,387.000 395.947 C 389.915 395.286,394.106 392.645,397.269 389.475 L 400.037 386.702 399.919 384.451 L 399.800 382.200 398.600 383.957 C 394.256 390.316,389.731 393.264,383.200 393.990 C 372.870 395.137,319.556 395.864,312.000 394.960 C 305.152 394.141,299.677 394.136,292.600 394.942 C 287.960 395.471,285.321 395.518,277.200 395.218 C 258.859 394.540,245.179 394.548,239.871 395.239 C 237.731 395.517,231.660 395.510,220.671 395.217 C 211.832 394.980,202.890 394.814,200.800 394.846 C 197.483 394.898,176.328 394.474,173.600 394.301 C 173.050 394.266,170.170 394.453,167.200 394.717 C 163.456 395.049,158.304 395.105,150.400 394.898 C 144.130 394.734,136.660 394.692,133.800 394.804 C 130.691 394.926,126.589 394.792,123.600 394.470 C 120.314 394.116,116.955 394.027,113.800 394.209 C 111.160 394.361,107.560 394.422,105.800 394.343 C 104.040 394.264,99.450 394.281,95.600 394.381 C 82.033 394.732,60.463 394.587,48.400 394.065 C 41.690 393.774,32.510 393.392,28.000 393.216 C 14.960 392.707,9.909 390.317,6.416 383.000 C 4.636 379.273,3.924 366.856,5.050 359.200 C 5.762 354.361,5.737 341.710,5.008 338.514 C 4.386 335.784,4.146 315.363,4.484 294.000 C 4.704 280.068,4.770 279.132,5.871 274.356 C 6.311 272.448,6.415 270.610,6.244 267.756 C 6.113 265.580,5.917 262.000,5.808 259.800 C 5.698 257.600,5.430 253.640,5.213 251.000 C 4.519 242.581,4.379 238.312,3.978 213.400 C 3.556 187.224,3.124 175.848,2.362 170.868 C 1.982 168.384,1.989 167.126,2.397 164.769 C 3.499 158.399,3.251 152.806,1.736 149.876 C 1.309 149.051,0.964 146.315,0.620 141.041 L 0.121 133.400 0.103 152.200 M39.743 341.778 C 37.634 342.696,36.469 348.983,38.176 350.232 C 39.382 351.114,46.915 351.028,47.822 350.121 C 48.609 349.334,48.421 345.188,47.513 343.294 C 46.548 341.281,42.638 340.518,39.743 341.778 M357.145 342.803 C 354.796 343.086,354.196 343.598,353.644 345.789 C 352.358 350.900,352.956 351.766,357.885 351.931 C 363.224 352.111,364.003 351.776,363.990 349.310 C 363.963 343.752,362.310 342.181,357.145 342.803 " stroke="none" fill="#4a4a49" fill-rule="evenodd"></path><path id="path6" d="M9.467 0.267 C 9.320 0.413,9.200 0.917,9.200 1.387 C 9.200 1.856,9.037 2.411,8.838 2.620 C 8.638 2.829,8.087 3.700,7.613 4.556 L 6.751 6.111 8.076 7.491 C 11.066 10.605,14.036 11.062,21.600 9.569 C 26.413 8.619,28.860 8.742,32.195 10.103 C 36.041 11.673,35.621 12.295,26.714 18.235 C 13.419 27.099,11.092 32.661,18.934 36.835 C 22.111 38.525,24.293 37.893,27.204 34.441 C 30.237 30.844,33.187 30.306,38.122 32.451 C 41.927 34.105,43.758 34.112,47.887 32.491 C 53.178 30.413,55.323 30.881,59.024 34.922 C 64.240 40.617,72.400 36.802,72.400 28.668 C 72.400 26.864,71.637 26.018,63.976 19.339 C 55.658 12.087,56.203 11.715,75.000 11.818 C 81.380 11.853,88.760 12.019,91.400 12.187 C 95.322 12.436,97.224 12.342,101.800 11.674 C 107.522 10.838,108.815 10.878,112.843 12.015 C 116.527 13.055,120.647 8.364,121.410 2.261 L 121.692 0.000 120.494 0.000 C 119.418 0.000,119.251 0.174,118.864 1.700 C 118.627 2.635,117.922 4.011,117.296 4.758 L 116.159 6.115 109.379 6.708 C 105.651 7.035,101.340 7.285,99.800 7.263 C 86.265 7.077,63.808 6.750,62.200 6.715 C 61.100 6.691,56.690 6.710,52.400 6.757 C 44.071 6.849,38.258 6.284,32.556 4.829 C 28.983 3.918,23.765 4.131,19.600 5.357 C 16.225 6.350,12.133 5.803,12.958 4.469 C 13.088 4.257,12.966 3.996,12.685 3.888 C 12.366 3.766,12.188 3.002,12.211 1.846 C 12.245 0.043,10.624 -0.890,9.467 0.267 M279.469 0.877 C 280.092 3.664,281.105 6.170,282.874 9.293 C 285.601 14.108,285.676 14.490,284.715 18.670 C 283.015 26.061,285.305 43.813,288.885 51.000 C 289.543 52.320,290.215 53.670,290.379 54.000 C 290.542 54.330,290.893 55.509,291.159 56.620 C 292.244 61.161,296.228 58.585,298.611 51.800 C 299.179 50.181,299.299 48.625,299.240 43.634 C 299.154 36.365,298.987 35.927,295.577 34.053 C 290.990 31.531,289.826 28.955,290.962 23.845 C 291.359 22.060,291.917 19.363,292.201 17.852 C 292.930 13.977,293.382 13.634,298.654 12.952 C 301.044 12.643,303.976 12.108,305.170 11.763 C 311.982 9.797,325.816 8.343,336.200 8.502 C 342.260 8.595,346.590 8.145,349.116 7.160 C 349.619 6.964,352.229 6.579,354.916 6.306 C 359.546 5.836,362.133 5.804,373.400 6.082 C 379.861 6.241,383.600 4.319,383.600 0.838 L 383.600 0.000 366.068 0.000 L 348.535 0.000 347.968 1.100 C 346.112 4.695,340.054 5.934,331.400 4.488 C 329.509 4.172,327.981 4.242,324.200 4.818 C 316.872 5.935,306.627 6.504,299.523 6.189 C 294.154 5.951,292.928 6.011,291.043 6.604 C 286.302 8.095,283.628 6.652,282.246 1.854 C 281.678 -0.119,279.039 -1.047,279.469 0.877 M352.200 15.189 C 345.115 16.199,337.270 20.989,334.204 26.176 C 329.546 34.059,336.254 41.530,342.200 35.082 C 346.153 30.794,348.734 30.229,353.793 32.545 C 357.608 34.292,358.838 34.305,363.095 32.641 C 368.807 30.409,370.803 30.741,374.231 34.491 C 380.642 41.506,386.004 35.378,381.601 26.067 C 377.944 18.335,364.647 13.415,352.200 15.189 M51.402 16.135 C 60.842 18.686,69.664 28.772,65.819 32.618 C 64.411 34.025,62.647 33.779,59.726 31.767 C 55.138 28.607,53.142 28.527,45.800 31.207 C 43.114 32.188,42.477 32.115,37.400 30.247 C 33.079 28.657,29.675 29.027,26.527 31.428 C 19.501 36.787,16.678 30.347,23.327 24.128 C 31.453 16.526,41.872 13.560,51.402 16.135 M367.800 18.385 C 375.249 20.761,379.563 24.698,380.255 29.751 C 380.743 33.308,378.915 33.800,374.800 31.220 C 370.892 28.770,368.071 28.667,362.675 30.777 C 358.797 32.294,358.266 32.294,354.467 30.771 C 349.018 28.586,346.480 28.677,342.287 31.206 C 338.435 33.529,336.390 33.123,336.409 30.038 C 336.465 20.864,354.539 14.154,367.800 18.385 M111.166 31.774 C 109.631 33.350,108.982 33.693,106.200 34.400 C 101.283 35.649,96.981 38.993,95.290 42.880 C 94.878 43.826,94.217 45.355,93.820 46.278 C 92.803 48.643,91.777 49.408,88.800 50.018 C 84.112 50.980,80.308 56.486,77.357 66.581 C 76.059 71.024,75.598 72.050,74.124 73.781 C 70.781 77.709,68.789 80.235,66.707 83.188 C 63.510 87.721,62.652 88.096,56.194 87.782 C 51.866 87.571,50.139 87.673,45.945 88.391 C 36.944 89.930,30.200 88.041,23.191 82.019 C 16.152 75.969,13.614 74.654,12.727 76.600 C 12.477 77.150,12.120 77.600,11.936 77.600 C 11.078 77.600,11.733 87.146,13.238 96.600 C 13.659 99.240,14.003 102.120,14.003 103.000 C 14.002 103.880,14.347 106.400,14.769 108.600 C 15.190 110.800,15.656 113.860,15.805 115.400 C 16.272 120.250,17.997 122.613,21.651 123.409 C 22.800 123.659,25.311 125.513,28.598 128.538 C 30.085 129.907,33.381 131.581,36.600 132.603 C 41.273 134.086,42.128 135.031,42.582 139.210 C 43.650 149.037,46.201 152.112,53.476 152.343 C 60.869 152.577,62.599 151.730,65.242 146.578 C 67.159 142.839,67.675 142.443,69.408 143.376 C 71.640 144.578,75.342 148.367,76.531 150.667 C 77.454 152.452,78.256 152.940,80.742 153.231 C 85.085 153.738,86.468 151.335,88.607 139.561 C 90.153 131.053,92.348 128.801,98.533 129.381 C 102.454 129.748,103.746 128.828,104.151 125.378 C 104.604 121.521,106.673 118.681,110.400 116.800 C 114.284 114.840,115.720 112.400,117.674 104.447 C 118.061 102.872,118.368 80.733,118.454 48.200 C 118.460 45.700,118.096 42.856,117.261 38.892 C 115.318 29.674,114.334 28.523,111.166 31.774 M38.090 60.816 C 36.709 61.452,34.323 62.346,32.787 62.804 C 29.360 63.825,28.409 64.890,29.338 66.670 C 33.398 74.444,50.895 74.929,56.435 67.421 C 58.464 64.672,57.816 63.717,53.200 62.655 C 51.770 62.326,49.368 61.504,47.863 60.829 C 44.243 59.204,41.596 59.200,38.090 60.816 M354.457 60.606 C 353.278 61.154,351.028 61.984,349.457 62.449 C 344.469 63.927,343.767 64.964,345.958 67.622 C 351.155 73.927,366.445 73.927,371.642 67.622 C 373.726 65.095,373.005 63.782,369.007 62.821 C 367.910 62.557,365.523 61.725,363.702 60.971 C 359.639 59.289,357.469 59.203,354.457 60.606 M289.556 60.415 C 285.568 62.657,283.070 75.723,284.741 85.600 C 285.670 91.092,285.674 91.026,283.824 100.600 C 281.928 110.414,281.507 127.894,282.844 141.321 C 283.247 145.370,283.254 147.591,282.879 151.921 C 282.474 156.595,282.497 158.017,283.037 161.600 C 283.385 163.910,283.764 166.596,283.880 167.568 C 283.996 168.541,283.776 174.931,283.392 181.768 C 282.857 191.267,282.767 196.276,283.011 203.000 C 283.186 207.840,283.354 215.490,283.383 220.000 C 283.459 231.710,284.204 243.095,285.030 245.157 C 286.685 249.296,289.623 247.480,292.282 240.673 C 292.897 239.099,294.812 235.018,296.537 231.605 C 300.307 224.149,300.313 224.002,297.045 219.231 C 293.729 214.389,293.987 212.530,298.517 208.619 C 303.800 204.057,305.388 196.976,302.542 190.671 C 300.798 186.809,300.532 184.938,301.214 181.325 C 302.138 176.426,301.906 174.647,299.816 170.637 C 297.892 166.944,297.654 165.423,298.879 164.656 C 300.800 163.453,303.266 166.491,304.369 171.419 C 305.487 176.414,307.413 176.638,314.952 172.649 C 318.610 170.714,320.486 169.944,321.534 169.949 C 322.340 169.953,324.054 169.972,325.343 169.993 C 330.065 170.066,335.932 163.472,333.280 161.072 C 332.131 160.032,326.899 158.027,323.157 157.192 C 316.199 155.639,315.712 155.201,312.636 147.736 C 310.774 143.218,310.720 142.359,312.031 138.099 C 313.257 134.117,313.477 131.533,312.788 129.197 C 312.561 128.429,312.361 126.540,312.343 125.000 C 312.325 123.460,312.028 120.490,311.683 118.400 C 311.338 116.310,311.011 111.916,310.955 108.635 C 310.830 101.219,310.846 101.278,308.174 98.371 C 305.251 95.192,305.081 94.663,305.037 88.600 L 305.000 83.400 302.900 79.122 C 301.745 76.768,300.800 74.669,300.800 74.457 C 300.800 74.244,299.495 72.681,297.900 70.983 C 294.488 67.350,292.310 64.321,291.781 62.470 C 291.571 61.738,291.227 61.167,291.016 61.199 C 290.804 61.232,290.534 60.988,290.416 60.656 C 290.264 60.232,290.009 60.160,289.556 60.415 M48.026 63.844 C 52.244 65.737,52.579 67.658,48.969 69.255 C 42.438 72.144,30.781 68.326,35.896 64.974 C 39.886 62.360,43.888 61.987,48.026 63.844 M363.279 63.875 C 367.624 65.810,367.656 67.772,363.367 69.302 C 356.403 71.786,347.179 67.526,352.800 64.422 C 356.794 62.216,359.264 62.087,363.279 63.875 M108.916 97.341 C 109.595 99.389,107.642 101.198,105.368 100.628 C 104.490 100.407,104.400 100.179,104.400 98.171 L 104.400 95.958 106.469 96.079 C 108.343 96.189,108.573 96.307,108.916 97.341 M318.100 118.670 C 316.902 119.505,316.820 122.169,317.974 122.786 C 320.006 123.874,321.565 122.836,321.587 120.380 C 321.608 118.070,320.053 117.308,318.100 118.670 M290.771 132.254 C 292.443 134.379,291.622 136.800,289.229 136.800 C 287.515 136.800,287.200 136.387,287.200 134.141 C 287.200 131.205,289.140 130.180,290.771 132.254 M299.625 262.600 C 299.585 263.112,297.597 264.046,297.144 263.765 C 296.955 263.648,296.800 263.743,296.800 263.976 C 296.800 264.209,296.377 264.400,295.860 264.400 C 295.343 264.400,294.398 264.565,293.760 264.767 C 293.122 264.969,292.120 265.238,291.533 265.366 C 290.135 265.671,288.870 268.637,289.576 269.956 C 291.146 272.888,301.219 266.149,299.973 263.000 C 299.799 262.560,299.642 262.380,299.625 262.600 M284.168 281.468 C 280.711 284.925,279.847 291.251,282.916 290.637 C 286.667 289.887,288.873 284.878,286.914 281.562 C 286.064 280.123,285.531 280.105,284.168 281.468 M33.577 316.493 C 21.733 320.629,13.631 333.947,21.068 337.054 C 23.174 337.934,24.365 337.451,27.104 334.605 C 30.815 330.752,32.395 330.504,38.267 332.853 C 42.004 334.348,43.936 334.325,47.870 332.735 C 53.287 330.546,55.174 330.965,59.214 335.251 C 62.273 338.497,65.531 338.544,67.621 335.373 C 70.310 331.294,65.419 321.654,59.158 318.692 C 52.698 315.636,39.324 314.486,33.577 316.493 M356.436 316.020 C 345.462 317.499,335.415 322.556,332.589 328.021 C 328.580 335.773,337.058 342.667,342.609 336.169 C 345.908 332.307,348.468 331.789,353.555 333.954 C 357.342 335.565,359.403 335.575,363.336 334.000 C 368.678 331.861,371.516 332.410,374.606 336.181 C 378.857 341.369,384.799 339.392,385.127 332.681 C 385.635 322.292,371.368 314.007,356.436 316.020 M51.883 318.431 C 58.415 320.080,62.790 323.418,64.308 327.913 C 66.032 333.018,64.133 334.086,58.537 331.160 C 54.755 329.182,51.689 329.127,47.308 330.958 C 44.044 332.323,42.013 332.281,37.927 330.766 C 33.584 329.156,30.682 329.260,26.662 331.168 C 22.063 333.351,20.676 332.106,22.819 327.720 C 27.037 319.086,39.147 315.216,51.883 318.431 M366.653 318.598 C 376.230 320.430,384.642 329.022,381.097 333.350 C 379.842 334.883,378.563 334.829,375.695 333.120 C 371.082 330.373,368.616 330.145,363.535 332.000 C 359.514 333.467,357.618 333.503,354.109 332.174 C 348.533 330.064,346.362 330.179,341.976 332.820 C 338.241 335.069,336.000 334.504,336.000 331.314 C 336.000 323.117,353.130 316.010,366.653 318.598 M182.000 339.390 C 182.000 339.856,184.418 340.768,185.031 340.533 C 185.662 340.290,185.659 340.232,184.980 339.736 C 184.296 339.236,182.000 338.969,182.000 339.390 M186.000 340.167 C 186.000 340.515,186.285 340.800,186.633 340.800 C 186.982 340.800,187.195 340.586,187.108 340.325 C 186.861 339.583,186.000 339.460,186.000 340.167 M40.797 359.974 C 40.246 360.141,39.166 360.606,38.397 361.006 C 37.629 361.406,35.290 362.290,33.200 362.971 C 24.588 365.776,31.783 372.400,43.442 372.400 C 52.742 372.400,62.662 364.808,55.200 363.402 C 52.761 362.942,51.383 362.505,48.207 361.183 C 44.484 359.633,42.813 359.361,40.797 359.974 M355.000 361.844 C 353.680 362.407,350.980 363.438,349.000 364.134 C 344.628 365.672,343.996 367.017,346.463 369.539 C 352.061 375.265,364.465 375.406,371.105 369.818 C 374.287 367.141,373.560 365.589,368.397 364.032 C 366.309 363.403,363.520 362.422,362.200 361.853 C 359.197 360.559,358.013 360.558,355.000 361.844 M47.709 363.933 C 51.943 365.857,52.357 367.646,48.905 369.099 C 42.555 371.772,32.202 368.838,35.965 365.431 C 38.815 362.853,43.905 362.203,47.709 363.933 M362.912 365.038 C 367.213 366.833,367.972 367.977,365.940 369.600 C 362.357 372.462,354.891 372.361,351.668 369.407 L 350.211 368.072 351.006 367.179 C 353.624 364.239,358.776 363.312,362.912 365.038 " stroke="none" fill="#b4b4b4" fill-rule="evenodd"></path><path id="path7" d="M127.934 2.632 C 128.016 4.193,127.754 6.634,127.262 8.895 C 126.819 10.933,126.382 13.076,126.292 13.658 C 126.201 14.240,126.272 22.790,126.450 32.658 C 126.643 43.401,126.599 62.557,126.341 80.400 C 125.924 109.102,125.408 182.924,125.477 204.000 C 125.495 209.610,125.492 222.120,125.471 231.800 C 125.396 266.124,125.369 264.958,126.341 270.200 C 128.347 281.015,130.080 286.168,133.731 292.172 C 150.011 318.942,167.375 328.846,201.469 330.809 C 237.089 332.860,264.866 311.156,274.687 273.600 C 275.918 268.893,275.925 268.396,275.322 229.000 C 275.044 210.843,274.948 176.127,275.074 139.200 C 275.471 22.632,275.456 13.718,274.844 10.000 C 274.536 8.130,274.159 5.070,274.005 3.200 C 273.837 1.143,273.686 0.432,273.623 1.400 C 273.461 3.890,273.598 5.567,274.212 8.634 C 274.908 12.107,275.075 77.845,274.449 101.824 C 273.929 121.760,274.479 243.425,275.154 257.800 C 276.083 277.573,266.449 300.124,251.464 313.248 C 232.835 329.564,211.434 333.667,179.570 327.031 C 159.399 322.831,142.781 309.364,132.406 288.813 C 128.532 281.138,124.753 261.652,125.816 254.827 C 125.972 253.822,126.151 220.600,126.214 181.000 C 126.290 133.344,126.485 106.025,126.792 100.200 C 127.095 94.439,127.222 77.655,127.161 51.600 C 127.078 15.737,127.134 11.543,127.728 9.200 C 128.399 6.557,128.647 0.601,128.100 0.261 C 127.935 0.158,127.860 1.225,127.934 2.632 M167.124 0.209 C 166.791 0.543,167.256 2.412,167.617 2.190 C 167.796 2.079,168.055 2.344,168.193 2.779 C 168.437 3.545,173.252 7.200,174.019 7.200 C 174.229 7.200,174.400 7.380,174.400 7.600 C 174.400 7.820,174.565 8.000,174.766 8.000 C 175.119 8.000,181.191 11.908,181.600 12.399 C 181.710 12.531,182.430 13.069,183.200 13.595 C 186.929 16.144,187.577 18.293,186.036 23.000 C 185.820 23.660,185.437 25.280,185.184 26.600 C 183.829 33.687,182.203 36.513,174.537 45.115 C 164.435 56.451,162.960 58.592,161.048 64.696 C 155.923 81.057,162.854 95.805,176.632 97.855 C 182.325 98.702,183.430 99.347,184.070 102.198 C 184.218 102.859,184.534 104.163,184.771 105.096 C 185.008 106.030,185.176 109.180,185.144 112.096 C 185.112 115.013,185.305 118.557,185.573 119.971 C 185.951 121.964,185.956 123.465,185.596 126.639 C 185.105 130.956,185.392 133.647,186.669 136.703 C 187.142 137.835,187.200 138.922,186.949 141.965 C 186.541 146.913,186.664 148.474,187.695 151.400 C 189.122 155.450,188.881 159.169,186.803 165.200 C 185.238 169.740,185.084 170.531,185.128 173.800 C 185.154 175.780,184.972 180.284,184.723 183.809 C 184.307 189.680,184.338 190.638,185.089 195.209 C 185.964 200.533,185.957 200.719,184.560 209.600 C 184.068 212.731,183.831 216.499,183.818 221.400 C 183.800 228.503,183.880 229.132,185.420 234.054 C 185.739 235.073,186.000 236.442,186.000 237.095 C 186.000 237.808,186.400 238.715,187.000 239.362 C 187.550 239.956,188.000 240.823,188.000 241.289 C 188.000 241.755,188.315 242.485,188.700 242.911 C 189.600 243.906,189.549 250.265,188.619 253.005 C 187.828 255.335,187.833 257.902,188.635 260.660 C 189.164 262.480,189.198 263.390,188.838 266.122 C 188.278 270.384,188.563 271.873,190.663 275.670 C 192.389 278.791,192.400 278.836,192.400 282.833 C 192.400 287.277,193.191 288.149,194.729 285.400 C 195.098 284.740,195.625 284.056,195.900 283.880 C 196.175 283.704,196.400 282.862,196.400 282.009 C 196.400 280.885,196.648 280.255,197.300 279.722 C 197.795 279.318,198.543 278.315,198.963 277.493 C 199.383 276.672,199.856 276.000,200.014 276.000 C 201.444 276.000,201.815 269.033,200.506 266.755 C 198.964 264.071,198.641 263.652,197.992 263.482 C 197.636 263.389,197.029 262.648,196.644 261.836 L 195.943 260.359 197.241 258.279 C 197.955 257.136,198.948 255.750,199.448 255.200 C 202.879 251.422,206.066 240.322,203.429 241.333 C 203.134 241.447,202.532 241.288,202.092 240.980 C 201.653 240.672,200.727 240.377,200.036 240.324 C 197.749 240.150,196.955 238.804,197.851 236.624 C 198.263 235.622,198.733 234.802,198.897 234.801 C 199.060 234.801,200.027 234.163,201.047 233.385 C 202.066 232.607,203.614 231.625,204.487 231.204 C 206.975 230.002,209.469 227.937,210.389 226.317 C 212.247 223.047,213.497 210.791,213.235 198.400 C 212.865 180.873,212.943 177.987,213.848 175.600 C 215.415 171.464,215.613 169.787,216.008 157.283 C 216.357 146.238,216.330 144.625,215.782 143.566 C 215.004 142.060,214.840 135.806,215.544 134.498 C 215.812 134.001,216.188 131.391,216.381 128.698 C 216.573 126.004,217.034 122.190,217.404 120.222 C 218.120 116.417,218.064 112.947,217.198 107.600 C 215.424 96.640,217.983 92.654,226.188 93.599 C 237.309 94.880,245.257 89.323,246.832 79.166 C 248.353 69.367,244.624 60.300,235.002 50.400 C 232.115 47.430,227.604 42.514,224.977 39.476 C 222.350 36.437,219.064 32.657,217.676 31.076 C 214.609 27.582,212.493 24.543,211.046 21.553 C 210.447 20.317,209.637 18.961,209.244 18.539 C 206.804 15.920,207.888 14.733,214.772 12.485 C 217.646 11.547,221.484 10.094,223.299 9.257 C 228.512 6.854,229.594 6.400,230.114 6.400 C 232.301 6.398,236.980 3.114,237.378 1.300 C 237.748 -0.386,236.252 -0.657,235.831 1.020 C 235.553 2.127,233.950 2.977,229.944 4.141 C 228.703 4.502,225.966 5.618,223.861 6.622 C 219.106 8.890,215.687 9.888,210.800 10.436 C 208.710 10.671,205.315 11.209,203.256 11.631 C 198.669 12.573,192.687 12.629,188.483 11.770 C 185.718 11.205,179.057 8.417,178.729 7.688 C 178.658 7.529,177.781 6.989,176.781 6.487 C 175.781 5.986,174.251 4.954,173.381 4.195 C 172.511 3.436,171.652 2.812,171.471 2.808 C 171.291 2.803,170.892 2.575,170.585 2.300 C 170.279 2.025,169.748 1.564,169.405 1.276 C 169.063 0.988,168.887 0.583,169.015 0.376 C 169.254 -0.011,167.499 -0.166,167.124 0.209 M398.508 17.300 C 396.334 19.653,396.061 21.734,397.210 27.179 C 397.649 29.258,398.083 32.138,398.175 33.579 C 398.266 35.021,398.468 37.145,398.622 38.300 C 398.817 39.759,398.765 40.400,398.452 40.400 C 398.203 40.400,398.000 40.755,398.000 41.189 C 398.000 41.908,396.490 45.523,395.991 46.000 C 395.876 46.110,395.468 46.692,395.086 47.294 C 394.703 47.895,393.978 48.491,393.474 48.617 C 388.706 49.814,387.269 66.762,391.660 70.004 C 391.812 70.116,392.065 70.746,392.222 71.404 C 392.379 72.062,392.726 72.870,392.993 73.200 C 394.833 75.474,395.503 80.628,394.787 87.000 C 394.128 92.858,394.219 99.826,395.009 104.000 C 395.363 105.870,395.820 109.200,396.025 111.400 C 396.697 118.602,397.695 125.776,398.198 127.018 C 398.469 127.688,398.824 129.657,398.987 131.395 C 399.486 136.719,399.948 136.627,399.967 131.200 C 399.982 127.119,399.803 125.506,398.993 122.421 C 398.382 120.097,398.000 117.545,398.000 115.791 C 398.000 114.222,397.738 111.063,397.419 108.770 C 396.481 102.039,395.554 91.926,395.775 90.821 C 397.003 84.673,396.801 78.240,395.209 72.803 C 394.984 72.034,394.788 70.774,394.774 70.003 C 394.738 68.136,393.395 64.174,392.840 64.300 C 392.598 64.355,392.400 64.029,392.400 63.576 C 392.400 63.123,392.229 62.858,392.020 62.988 C 391.811 63.117,391.518 62.571,391.369 61.775 C 391.033 59.984,391.441 56.253,391.993 56.069 C 392.217 55.994,392.400 55.678,392.400 55.367 C 392.400 55.055,392.670 54.800,393.000 54.800 C 393.330 54.800,393.600 54.629,393.600 54.419 C 393.600 54.210,394.209 53.445,394.953 52.719 C 395.697 51.994,397.137 50.183,398.153 48.696 L 400.000 45.992 399.999 36.296 C 399.997 27.625,399.920 26.473,399.269 25.400 C 398.868 24.740,398.430 23.774,398.296 23.254 C 398.050 22.304,398.102 22.122,399.332 19.668 C 400.614 17.110,400.085 15.592,398.508 17.300 M206.040 25.640 C 211.517 27.410,213.743 29.356,231.650 48.031 C 240.704 57.474,242.123 59.468,244.201 65.673 C 247.392 75.199,246.383 83.246,241.644 86.062 C 240.850 86.534,239.120 87.963,237.800 89.238 C 233.803 93.099,232.124 93.246,221.907 90.634 C 214.040 88.623,214.319 88.722,210.677 86.653 C 203.754 82.719,201.454 84.432,203.539 91.968 C 205.604 99.431,206.085 107.554,204.697 111.500 C 204.336 112.526,204.351 112.905,204.770 113.300 C 205.177 113.684,205.341 113.689,205.477 113.320 C 205.602 112.979,205.942 112.950,206.653 113.220 C 207.202 113.429,208.057 113.600,208.551 113.600 C 210.880 113.600,211.888 117.487,210.344 120.519 C 209.685 121.814,209.426 123.277,209.215 126.890 C 209.018 130.271,208.767 131.779,208.316 132.290 C 206.146 134.750,204.792 140.400,206.372 140.400 C 207.617 140.400,207.908 146.209,206.778 148.519 C 205.512 151.106,205.406 153.333,206.359 157.332 C 207.391 161.665,207.394 163.577,206.375 168.200 C 204.636 176.093,204.492 177.617,204.483 188.290 C 204.478 194.060,204.352 199.497,204.204 200.374 C 203.520 204.425,197.273 206.756,195.308 203.694 C 194.922 203.092,194.296 202.258,193.917 201.839 C 193.538 201.421,192.945 199.711,192.599 198.039 C 192.254 196.368,191.615 193.560,191.180 191.800 C 190.617 189.523,190.391 187.252,190.395 183.926 C 190.398 181.355,190.206 178.745,189.968 178.126 C 188.876 175.280,189.379 171.226,191.298 167.389 C 192.286 165.415,193.230 163.350,193.396 162.800 C 193.563 162.250,194.211 160.693,194.838 159.341 C 196.651 155.428,196.676 154.269,195.018 151.023 C 193.053 147.175,193.058 144.862,195.041 140.950 C 196.842 137.396,196.719 136.627,193.780 133.064 C 191.580 130.398,190.582 125.876,192.000 125.000 C 192.220 124.864,192.400 124.483,192.400 124.153 C 192.400 123.370,194.465 120.726,197.100 118.135 C 198.255 116.999,199.200 115.775,199.200 115.415 C 199.200 114.719,198.083 112.335,197.600 112.000 C 196.579 111.292,195.849 108.637,195.564 104.600 C 195.213 99.604,194.968 98.546,193.903 97.407 C 193.487 96.963,192.782 96.011,192.335 95.290 C 190.631 92.542,188.796 92.271,183.477 93.984 C 174.445 96.891,171.168 96.008,165.721 89.200 C 159.856 81.867,158.840 76.166,161.606 66.087 C 163.462 59.319,165.023 56.977,173.800 47.782 C 180.847 40.399,182.775 38.117,186.361 32.906 C 190.570 26.789,199.452 23.510,206.040 25.640 M227.743 71.803 C 227.288 72.991,232.644 79.191,233.610 78.594 C 234.798 77.860,233.435 73.695,231.559 72.326 C 230.174 71.314,228.043 71.023,227.743 71.803 M399.714 139.400 C 399.717 140.500,399.795 140.903,399.887 140.295 C 399.979 139.686,399.977 138.786,399.882 138.295 C 399.787 137.803,399.711 138.300,399.714 139.400 M0.148 157.200 C 0.148 159.510,0.214 160.455,0.295 159.300 C 0.376 158.145,0.376 156.255,0.295 155.100 C 0.214 153.945,0.148 154.890,0.148 157.200 M0.063 216.500 C 0.021 245.275,0.135 260.000,0.400 260.000 C 0.620 260.000,0.800 260.592,0.800 261.315 C 0.800 262.039,1.177 263.344,1.637 264.215 C 2.851 266.514,2.868 271.476,1.672 274.151 C 1.193 275.224,0.800 276.529,0.800 277.051 C 0.800 277.573,0.620 278.000,0.400 278.000 C -0.091 278.000,-0.163 324.667,0.328 324.867 C 1.794 325.463,1.770 330.764,0.293 332.240 C -0.126 332.659,-0.071 336.800,0.354 336.800 C 1.399 336.800,2.038 340.786,1.318 342.812 C 0.930 343.905,0.474 344.800,0.306 344.800 C 0.138 344.800,0.000 352.450,0.000 361.800 C 0.000 372.867,0.140 378.800,0.400 378.800 C 0.620 378.800,0.803 379.205,0.806 379.700 C 0.809 380.195,1.066 381.050,1.376 381.600 C 1.686 382.150,2.298 383.353,2.735 384.273 C 4.748 388.505,11.190 394.126,15.628 395.522 C 19.281 396.671,31.966 397.457,43.600 397.254 C 45.910 397.214,50.500 397.390,53.800 397.647 C 60.876 398.196,83.863 398.143,93.045 397.556 C 97.268 397.286,100.992 397.276,103.845 397.526 C 106.240 397.737,109.820 397.777,111.800 397.617 C 114.023 397.436,118.461 397.547,123.400 397.905 C 129.730 398.365,132.153 398.391,135.009 398.027 C 137.692 397.686,139.795 397.682,143.209 398.013 C 151.377 398.804,161.579 398.796,168.033 397.994 C 173.264 397.343,174.194 397.327,177.033 397.834 C 179.366 398.250,181.885 398.332,186.600 398.147 C 190.950 397.975,193.732 398.048,195.286 398.373 C 197.046 398.741,198.657 398.744,202.286 398.385 C 205.956 398.022,209.348 398.034,217.600 398.438 C 230.808 399.085,235.321 399.098,241.400 398.505 C 247.235 397.936,247.032 397.938,269.600 398.171 C 281.612 398.296,290.301 398.194,295.155 397.873 C 301.553 397.450,303.503 397.476,310.155 398.070 C 314.360 398.446,319.780 398.782,322.200 398.816 C 331.390 398.947,360.556 398.457,368.800 398.034 C 373.530 397.791,379.470 397.496,382.000 397.379 C 388.971 397.054,392.093 395.813,396.395 391.656 C 397.388 390.697,398.605 389.641,399.100 389.310 C 399.915 388.765,400.384 387.200,399.732 387.200 C 399.584 387.200,398.366 388.325,397.024 389.700 C 394.195 392.599,389.866 395.297,387.000 395.947 C 380.661 397.384,319.224 398.215,308.984 397.002 C 303.572 396.361,302.445 396.346,297.200 396.847 C 293.127 397.235,286.399 397.377,274.600 397.322 C 265.360 397.279,254.560 397.272,250.600 397.308 C 244.372 397.364,234.421 397.350,187.600 397.219 C 183.090 397.207,178.357 397.008,177.082 396.777 C 175.281 396.452,173.539 396.508,169.282 397.031 C 164.738 397.589,161.884 397.658,152.600 397.432 C 142.056 397.176,121.193 396.761,115.000 396.685 C 113.460 396.666,110.940 396.690,109.400 396.739 C 99.104 397.066,59.385 397.028,50.000 396.683 C 45.490 396.517,36.940 396.219,31.000 396.020 C 19.060 395.622,17.258 395.323,12.528 392.956 C 8.111 390.746,3.780 385.611,2.572 381.151 C 1.799 378.299,1.715 346.827,2.471 343.170 C 2.845 341.355,2.849 340.384,2.486 338.910 C 1.945 336.708,1.859 330.612,1.941 300.200 C 1.997 279.450,2.050 277.945,2.864 273.715 C 3.708 269.336,3.712 269.137,3.052 265.315 C 2.494 262.088,2.308 256.658,1.990 234.400 C 1.579 205.541,0.905 180.367,0.422 175.800 C 0.259 174.260,0.098 192.575,0.063 216.500 M399.161 238.700 C 398.118 241.437,397.875 243.469,398.438 244.741 C 399.546 247.244,399.911 246.568,399.936 241.971 C 399.961 237.381,399.847 236.900,399.161 238.700 M398.697 259.938 C 395.577 265.989,395.639 275.469,398.812 277.343 C 400.179 278.151,400.562 277.020,399.474 275.389 C 397.625 272.616,397.630 264.497,399.482 262.342 C 399.847 261.918,400.003 260.996,399.924 259.742 L 399.800 257.800 398.697 259.938 " stroke="none" fill="#3c443c" fill-rule="evenodd"></path><path id="path8" d="M0.014 1.300 C 0.022 2.015,0.286 3.050,0.600 3.600 C 1.350 4.912,1.350 6.257,0.600 6.545 C -0.114 6.819,-0.292 14.572,0.406 15.004 C 1.823 15.879,2.431 18.371,1.777 20.621 C 1.148 22.785,1.157 24.828,1.818 29.643 C 2.016 31.084,1.868 31.956,1.140 33.643 C 0.151 35.932,-0.032 40.011,0.346 51.400 C 0.426 53.820,0.367 72.540,0.214 93.000 C -0.083 132.727,0.306 147.110,1.752 149.906 C 3.251 152.806,3.495 158.424,2.397 164.769 C 1.989 167.126,1.982 168.384,2.362 170.868 C 3.124 175.848,3.556 187.224,3.978 213.400 C 4.379 238.312,4.519 242.581,5.213 251.000 C 5.430 253.640,5.698 257.600,5.808 259.800 C 5.917 262.000,6.113 265.580,6.244 267.756 C 6.415 270.610,6.311 272.448,5.871 274.356 C 4.770 279.132,4.704 280.068,4.484 294.000 C 4.146 315.363,4.386 335.784,5.008 338.514 C 5.737 341.710,5.762 354.361,5.050 359.200 C 3.924 366.856,4.636 379.273,6.416 383.000 C 9.909 390.317,14.960 392.707,28.000 393.216 C 32.510 393.392,41.690 393.774,48.400 394.065 C 60.463 394.587,82.033 394.732,95.600 394.381 C 99.450 394.281,104.040 394.264,105.800 394.343 C 107.560 394.422,111.160 394.361,113.800 394.209 C 116.955 394.027,120.314 394.116,123.600 394.470 C 126.589 394.792,130.691 394.926,133.800 394.804 C 136.660 394.692,144.130 394.734,150.400 394.898 C 158.304 395.105,163.456 395.049,167.200 394.717 C 170.170 394.453,173.050 394.266,173.600 394.301 C 176.328 394.474,197.483 394.898,200.800 394.846 C 202.890 394.814,211.832 394.980,220.671 395.217 C 231.660 395.510,237.731 395.517,239.871 395.239 C 245.179 394.548,258.859 394.540,277.200 395.218 C 285.321 395.518,287.960 395.471,292.600 394.942 C 299.677 394.136,305.152 394.141,312.000 394.960 C 319.556 395.864,372.870 395.137,383.200 393.990 C 389.776 393.259,394.020 390.477,398.704 383.826 L 400.008 381.975 399.904 343.087 L 399.800 304.200 398.731 300.200 C 398.088 297.796,397.559 294.524,397.406 292.000 C 396.842 282.742,396.796 282.590,393.452 279.072 C 392.654 278.231,392.000 277.286,392.000 276.972 C 392.000 276.657,391.806 276.400,391.570 276.400 C 391.058 276.400,391.285 271.055,391.901 268.600 C 392.121 267.720,392.528 266.100,392.804 265.000 C 393.081 263.900,393.460 262.640,393.647 262.200 C 394.876 259.303,395.366 250.964,394.377 249.772 C 393.683 248.936,394.171 244.382,395.367 240.517 C 396.839 235.765,396.929 234.723,397.028 221.400 C 397.078 214.580,397.271 205.670,397.456 201.600 C 398.038 188.798,397.843 176.219,397.015 173.200 C 395.987 169.455,395.533 157.341,396.250 152.800 C 396.893 148.722,396.923 146.871,396.415 142.621 C 396.203 140.849,395.737 136.790,395.379 133.600 C 395.020 130.410,394.485 126.810,394.190 125.600 C 393.894 124.390,393.455 121.690,393.213 119.600 C 392.557 113.921,391.963 110.407,391.322 108.408 C 390.254 105.078,390.064 101.659,390.632 96.000 C 392.126 81.126,391.186 77.430,385.087 74.177 C 381.639 72.338,381.696 72.497,383.136 68.716 C 384.598 64.879,385.323 61.866,386.194 56.000 C 386.987 50.662,387.266 49.815,389.753 45.205 C 392.739 39.669,393.316 37.531,392.774 34.028 C 392.584 32.803,392.227 30.540,391.980 29.000 C 390.860 22.005,391.637 19.085,395.729 14.901 C 397.289 13.306,398.888 11.899,399.283 11.774 C 400.050 11.530,400.356 8.800,399.616 8.800 C 398.000 8.800,396.909 4.439,398.009 2.383 C 398.707 1.079,397.698 0.000,395.781 0.000 L 394.155 0.000 394.539 2.569 C 395.010 5.721,394.582 6.917,392.378 8.600 C 391.514 9.260,390.310 10.205,389.704 10.700 C 389.097 11.194,388.450 11.599,388.267 11.600 C 387.453 11.601,384.401 14.586,384.013 15.760 C 383.660 16.832,383.762 17.644,384.602 20.429 C 388.480 33.292,388.560 37.700,385.003 42.663 C 381.273 47.867,381.400 47.430,381.400 55.000 C 381.400 63.334,380.865 64.826,376.234 69.400 C 361.512 83.946,332.195 73.490,335.612 54.912 C 336.693 49.035,336.042 46.854,332.697 45.148 C 325.130 41.287,322.169 52.961,327.774 64.553 C 328.957 66.999,331.221 71.790,332.805 75.200 C 336.293 82.706,336.368 82.800,338.817 82.800 C 339.859 82.800,343.101 83.272,346.021 83.849 C 353.292 85.286,368.881 84.837,373.970 83.046 C 388.232 78.025,390.394 95.987,377.134 109.325 C 371.409 115.083,372.860 119.363,379.523 116.374 C 383.719 114.492,385.267 116.547,385.654 124.514 C 385.806 127.642,386.246 131.550,386.632 133.200 C 387.189 135.581,387.365 138.553,387.488 147.600 C 387.573 153.870,387.663 159.900,387.688 161.000 C 387.714 162.100,387.592 164.710,387.417 166.800 C 387.173 169.724,387.248 171.337,387.744 173.800 C 388.098 175.560,388.734 180.690,389.157 185.200 C 389.956 193.713,389.900 195.343,388.627 200.827 C 388.291 202.272,387.838 205.481,387.621 207.958 C 387.404 210.435,386.921 213.882,386.547 215.618 L 385.869 218.776 386.988 224.088 C 388.590 231.689,388.215 236.038,385.271 244.014 C 384.821 245.232,384.246 247.482,383.993 249.014 C 383.327 253.050,382.480 255.048,380.279 257.779 C 377.743 260.925,376.914 262.588,376.128 266.110 C 374.882 271.699,372.603 275.310,368.984 277.430 C 368.059 277.973,366.207 279.648,364.869 281.154 C 361.970 284.416,360.638 285.117,356.421 285.598 C 348.009 286.557,343.840 292.966,348.341 298.020 C 349.409 299.219,350.875 301.251,351.599 302.535 C 353.045 305.098,353.615 305.505,354.926 304.905 C 356.584 304.148,359.966 300.753,362.125 297.681 C 363.316 295.986,365.360 293.673,366.668 292.540 C 367.976 291.406,369.665 289.661,370.423 288.661 C 373.219 284.968,374.712 284.925,379.400 288.401 C 380.423 289.159,381.984 289.790,383.729 290.151 C 388.159 291.066,388.820 292.160,390.226 300.900 C 390.606 303.265,391.071 305.200,391.259 305.200 C 391.446 305.200,391.600 305.659,391.600 306.220 C 391.600 306.781,391.854 307.731,392.165 308.332 C 392.476 308.933,392.922 311.129,393.157 313.212 C 393.392 315.296,393.764 317.900,393.984 319.000 C 395.338 325.778,395.532 337.219,394.334 339.713 C 393.840 340.742,391.472 342.404,386.301 345.350 C 382.022 347.789,381.324 349.466,382.187 355.238 C 383.230 362.214,381.875 366.555,377.325 370.811 C 361.658 385.467,331.002 374.848,335.360 356.275 C 336.653 350.770,335.939 348.136,332.630 346.196 C 328.256 343.633,325.200 345.877,325.200 351.653 C 325.200 363.922,334.382 379.024,344.800 383.888 C 355.927 389.084,354.421 389.689,330.200 389.753 L 312.200 389.800 307.221 388.500 C 301.110 386.905,301.227 386.905,294.931 388.500 L 289.800 389.800 274.747 389.720 C 263.395 389.660,258.535 389.480,254.980 388.989 C 249.979 388.297,249.092 388.335,240.000 389.620 C 235.064 390.318,233.465 390.352,221.400 390.013 C 214.140 389.810,206.837 389.748,205.171 389.875 C 203.296 390.019,199.868 389.837,196.171 389.397 C 191.053 388.788,188.144 388.721,175.800 388.928 C 162.570 389.149,161.125 389.107,158.011 388.408 C 154.670 387.658,154.564 387.658,150.681 388.423 C 142.809 389.975,127.459 389.461,118.727 387.353 C 114.143 386.247,113.973 386.255,108.400 387.827 C 106.649 388.321,105.056 388.395,100.600 388.188 C 96.208 387.984,94.137 388.075,91.000 388.611 C 84.109 389.789,65.344 389.118,61.513 387.557 C 58.282 386.240,61.869 381.192,69.800 375.895 C 77.057 371.048,78.000 369.847,78.000 365.445 C 78.000 363.324,78.345 360.812,78.995 358.199 C 80.383 352.621,80.488 341.929,79.171 340.254 C 77.430 338.041,75.312 338.767,70.258 343.309 C 65.897 347.227,65.401 348.450,66.231 353.246 C 69.073 369.680,52.152 380.654,33.459 374.501 C 23.484 371.217,18.324 363.220,19.815 353.356 C 20.644 347.870,20.533 347.481,17.031 343.661 C 9.294 335.220,9.357 328.787,17.252 321.310 C 28.101 311.035,28.022 311.155,25.409 308.861 C 23.273 306.986,20.424 306.764,17.520 308.248 C 14.330 309.878,13.040 308.238,13.949 303.711 C 14.882 299.068,15.634 298.597,20.830 299.404 C 28.270 300.560,31.994 288.460,27.220 278.641 C 25.750 275.618,25.599 275.018,25.591 272.155 C 25.577 267.170,23.884 264.448,19.442 262.273 C 15.839 260.509,14.000 257.718,14.000 254.014 C 14.000 253.441,13.557 250.272,13.015 246.971 C 11.649 238.648,10.800 225.466,10.800 212.588 C 10.800 202.980,10.105 191.745,9.381 189.659 C 8.501 187.122,7.951 176.569,8.188 166.800 C 8.441 156.423,8.424 156.095,7.405 151.200 C 6.832 148.450,6.202 143.950,6.003 141.200 C 5.805 138.450,5.460 133.860,5.237 131.000 C 3.638 110.547,4.606 63.911,6.701 60.467 C 7.430 59.269,10.468 58.881,11.159 59.898 C 11.623 60.581,15.905 62.800,16.759 62.800 C 17.771 62.800,18.174 61.905,18.559 58.800 C 18.709 57.590,19.104 55.256,19.437 53.614 C 20.771 47.032,15.586 43.593,10.755 47.856 C 7.329 50.878,4.126 44.254,5.212 36.396 C 5.440 34.748,5.793 31.060,5.997 28.200 C 6.201 25.340,6.490 21.966,6.640 20.702 C 6.962 17.974,5.546 14.565,2.916 11.740 C 1.493 10.210,1.432 10.045,1.931 9.037 C 2.223 8.446,2.564 6.973,2.689 5.763 C 2.931 3.412,3.761 2.400,5.446 2.400 C 6.293 2.400,6.800 1.713,6.800 0.567 C 6.800 0.122,6.068 0.000,3.400 0.000 L 0.000 0.000 0.014 1.300 M124.768 0.100 C 124.750 0.155,124.678 1.299,124.608 2.641 C 124.538 3.984,124.090 6.504,123.612 8.241 C 122.119 13.666,122.069 14.589,122.490 28.565 C 123.098 48.741,122.921 95.752,122.197 106.600 C 121.284 120.263,120.895 132.628,121.248 136.800 C 121.698 142.129,121.667 182.268,121.208 188.800 C 120.684 196.251,120.705 208.417,121.265 222.388 C 121.655 232.110,121.638 235.791,121.169 243.388 C 119.791 265.704,122.066 282.275,127.776 291.509 C 137.119 306.619,150.673 319.753,163.565 326.192 C 183.820 336.307,212.379 338.335,230.400 330.937 C 247.687 323.841,262.650 310.618,270.051 295.898 C 277.487 281.108,280.243 271.301,279.872 260.942 C 279.739 257.234,279.439 248.800,279.206 242.200 C 278.973 235.600,278.820 218.410,278.865 204.000 C 278.967 171.423,278.975 173.659,278.632 141.200 C 278.428 121.912,278.489 110.715,278.846 102.000 C 279.765 79.578,279.442 12.971,278.395 9.000 C 277.931 7.240,277.446 4.495,277.318 2.900 C 277.125 0.501,276.964 -0.000,276.389 -0.000 C 274.974 0.000,274.863 2.786,276.026 9.148 C 276.840 13.608,276.847 14.285,276.566 59.734 C 276.125 131.017,276.263 232.114,276.827 250.680 C 277.450 271.168,277.374 271.711,271.948 285.322 C 255.855 325.689,218.099 341.900,173.200 327.721 C 156.338 322.395,139.386 306.971,130.206 288.600 C 126.564 281.312,123.918 268.895,123.897 259.000 C 123.811 218.339,124.440 109.901,124.790 105.164 C 125.150 100.279,125.297 50.865,125.052 16.800 C 125.027 13.219,125.217 11.471,125.910 8.911 C 127.212 4.100,127.161 0.000,125.800 0.000 C 125.250 0.000,124.786 0.045,124.768 0.100 M180.294 0.839 C 180.690 2.352,183.916 4.945,186.995 6.226 C 189.334 7.200,197.330 7.365,204.000 6.579 C 215.313 5.246,219.260 4.147,220.032 2.115 C 220.885 -0.128,222.081 0.000,200.237 -0.000 L 180.075 -0.000 180.294 0.839 M197.800 30.931 C 192.734 32.232,192.002 32.807,179.648 45.199 C 165.967 58.923,165.591 59.475,163.805 68.450 C 162.630 74.357,162.596 75.168,163.413 77.921 C 164.855 82.774,167.368 81.213,168.999 74.451 C 169.887 70.768,171.049 69.381,175.133 67.128 C 179.409 64.768,191.433 56.856,196.060 53.356 C 204.130 47.252,204.151 47.253,212.089 53.542 C 217.081 57.498,225.670 62.912,232.456 66.382 C 236.983 68.696,238.625 70.048,238.999 71.765 C 239.857 75.710,240.293 76.978,240.923 77.361 C 242.483 78.308,243.336 75.160,242.376 71.997 C 242.143 71.229,241.609 68.717,241.190 66.416 C 239.895 59.312,239.438 58.654,227.773 47.119 C 211.628 31.154,206.893 28.596,197.800 30.931 M33.145 36.364 C 32.269 37.074,32.201 37.412,32.201 41.064 L 32.200 45.000 30.509 47.548 C 25.466 55.147,29.814 60.417,37.754 56.328 C 42.180 54.049,43.872 54.048,48.134 56.325 C 55.868 60.458,60.408 54.886,55.300 47.529 C 53.890 45.498,53.812 45.214,53.611 41.360 C 53.312 35.633,52.610 35.129,47.264 36.805 C 43.918 37.854,41.861 37.808,38.161 36.600 C 34.484 35.400,34.344 35.393,33.145 36.364 M349.600 35.878 C 348.345 36.326,348.000 37.356,348.000 40.650 C 348.000 44.413,347.711 45.385,345.730 48.270 C 340.922 55.272,345.929 60.169,353.800 56.163 C 358.191 53.927,359.283 53.947,363.944 56.347 C 371.673 60.326,375.669 55.534,371.063 47.811 C 369.478 45.154,369.391 44.836,369.200 41.052 C 368.922 35.531,368.445 35.150,363.624 36.593 C 359.405 37.856,357.612 37.857,353.761 36.600 C 350.520 35.542,350.533 35.544,349.600 35.878 M207.400 38.230 C 211.303 39.280,213.950 40.817,217.339 44.000 C 227.505 53.549,222.612 53.454,211.524 43.888 C 205.541 38.726,203.628 38.510,198.922 42.465 C 192.733 47.666,190.254 49.565,186.119 52.269 C 183.654 53.881,181.522 55.200,181.381 55.200 C 181.239 55.200,180.635 55.548,180.037 55.973 C 176.605 58.417,175.905 57.117,178.788 53.653 C 191.270 38.654,197.165 35.476,207.400 38.230 M46.514 42.004 C 48.063 43.223,49.052 48.788,47.920 49.920 C 47.260 50.580,38.740 50.580,38.080 49.920 C 36.911 48.751,37.799 42.866,39.305 41.812 C 40.662 40.861,45.215 40.982,46.514 42.004 M361.516 41.456 C 363.640 42.025,364.929 48.504,363.163 49.741 C 361.854 50.658,354.346 50.699,353.595 49.794 C 352.416 48.374,353.688 42.470,355.346 41.668 C 356.297 41.207,360.099 41.077,361.516 41.456 M68.100 47.596 C 66.492 48.576,66.380 50.172,67.650 54.022 C 69.020 58.173,70.065 58.608,71.571 55.656 C 74.192 50.519,71.928 45.262,68.100 47.596 M201.197 59.551 C 199.232 60.193,197.775 61.162,196.000 63.007 C 195.010 64.036,190.780 67.991,186.600 71.796 C 174.582 82.734,171.482 87.017,173.617 89.731 C 176.007 92.769,180.447 91.122,193.163 82.477 C 203.344 75.557,205.127 75.419,212.600 80.980 C 220.046 86.521,228.723 89.677,230.800 87.600 C 232.909 85.491,231.196 83.056,219.325 71.298 C 207.540 59.626,205.339 58.200,201.197 59.551 M204.946 65.352 C 210.018 67.471,208.629 70.924,202.787 70.717 C 198.725 70.573,198.113 70.023,199.445 67.712 C 200.822 65.324,202.824 64.465,204.946 65.352 M60.800 72.694 C 59.775 73.025,53.600 76.971,53.600 77.294 C 53.600 78.722,59.918 76.283,61.358 74.299 C 62.191 73.152,61.908 72.336,60.800 72.694 M42.400 306.972 C 42.400 307.381,42.761 307.600,43.433 307.600 C 44.686 307.600,44.549 306.661,43.269 306.472 C 42.692 306.387,42.400 306.555,42.400 306.972 M33.005 336.794 C 32.462 337.395,32.217 338.590,32.003 341.694 C 31.743 345.465,31.602 345.991,30.277 348.148 C 25.724 355.558,30.149 360.479,37.747 356.454 C 41.953 354.225,43.657 354.216,48.000 356.400 C 55.642 360.242,60.367 354.821,55.378 347.934 C 53.869 345.851,53.827 345.698,53.606 341.549 C 53.289 335.601,52.644 335.119,47.264 336.805 C 45.870 337.242,43.861 337.600,42.800 337.600 C 41.739 337.600,39.730 337.242,38.336 336.805 C 35.127 335.799,33.908 335.797,33.005 336.794 M348.982 338.182 C 348.087 339.077,348.000 339.477,348.000 342.723 C 348.000 346.259,347.989 346.298,346.229 348.978 C 341.220 356.605,345.374 361.909,353.181 357.853 C 357.915 355.394,359.383 355.368,363.566 357.670 C 371.408 361.985,375.986 356.872,371.092 349.265 C 369.514 346.813,369.453 346.593,369.230 342.533 C 368.908 336.657,368.802 336.594,362.222 338.356 C 358.820 339.267,356.573 339.131,352.751 337.783 C 350.524 336.997,350.124 337.039,348.982 338.182 M46.000 341.718 C 47.967 342.713,49.261 348.682,47.822 350.121 C 46.915 351.028,39.382 351.114,38.176 350.232 C 36.469 348.983,37.634 342.696,39.743 341.778 C 41.330 341.088,44.690 341.055,46.000 341.718 M362.669 343.697 C 364.327 345.355,364.492 351.031,362.900 351.641 C 361.219 352.285,354.062 351.946,353.591 351.200 C 352.736 349.845,353.499 344.514,354.690 343.525 C 356.071 342.379,361.467 342.495,362.669 343.697 M151.429 357.829 C 149.592 359.665,151.870 366.021,154.159 365.446 C 156.328 364.902,156.325 362.082,154.153 358.700 C 153.108 357.074,152.407 356.850,151.429 357.829 M393.454 370.900 C 399.012 377.205,390.655 387.688,379.600 388.279 C 371.619 388.706,371.480 387.060,379.075 382.051 C 381.958 380.150,382.983 379.215,383.830 377.714 C 387.917 370.468,391.092 368.221,393.454 370.900 " stroke="none" fill="#5c5c54" fill-rule="evenodd"></path></g></svg>