<svg xmlns="http://www.w3.org/2000/svg" xmlns:xlink="http://www.w3.org/1999/xlink" width="500" height="500" version="1.1"><defs><linearGradient id="irymQKTWctBx" x1="0" x2="500" y1="0" y2="500" gradientUnits="userSpaceOnUse"><stop offset="0" stop-color="#1e3266"/><stop offset="1" stop-color="#356cb1"/></linearGradient></defs><g><path fill="url(#irymQKTWctBx)" stroke="none" d="M 10 0 L 490 0 L 490 0 A 10 10 0 0 1 500 10 L 500 490 L 500 490 A 10 10 0 0 1 490 500 L 10 500 L 10 500 A 10 10 0 0 1 0 490 L 0 10 L 0 10.000000000000002 A 10 10 0 0 1 10 0 Z" paint-order="stroke fill markers"/><path fill="none" stroke="#182f5d" stroke-miterlimit="10" stroke-width="166.66" d="M 250 0 A 250 250 0 0 1 1.5308084989341916e-14 250" paint-order="fill stroke markers"/></g></svg>