<svg xmlns="http://www.w3.org/2000/svg" xmlns:xlink="http://www.w3.org/1999/xlink" width="500" height="500" version="1.1"><defs><linearGradient id="VqydMsgEwZhp" x1="0" x2="500" y1="0" y2="500" gradientUnits="userSpaceOnUse"><stop offset="0" stop-color="#eee"/><stop offset="1" stop-color="#71797E"/></linearGradient></defs><g><path fill="url(#VqydMsgEwZhp)" stroke="none" d="M 10 0 L 490 0 L 490 0 A 10 10 0 0 1 500 10 L 500 490 L 500 490 A 10 10 0 0 1 490 500 L 10 500 L 10 500 A 10 10 0 0 1 0 490 L 0 10 L 0 10.000000000000002 A 10 10 0 0 1 10 0 Z" paint-order="stroke fill markers"/><path fill="none" stroke="#f5f7fa" stroke-miterlimit="10" stroke-width="5" d="M 65 50 A 15 15 0 1 1 64.99999250000063 49.985000002499994 M 42.5 42.5 L 57.5 57.5 M 57.5 42.5 L 42.5 57.5" paint-order="fill stroke markers"/><path fill="none" stroke="#f5f7fa" stroke-miterlimit="10" stroke-width="5" d="M 465 50 A 15 15 0 1 1 464.99999250000064 49.985000002499994 M 442.5 42.5 L 457.5 57.5 M 457.5 42.5 L 442.5 57.5" paint-order="fill stroke markers"/><path fill="none" stroke="#f5f7fa" stroke-miterlimit="10" stroke-width="5" d="M 65 450 A 15 15 0 1 1 64.99999250000063 449.9850000025 M 42.5 442.5 L 57.5 457.5 M 57.5 442.5 L 42.5 457.5" paint-order="fill stroke markers"/><path fill="none" stroke="#f5f7fa" stroke-miterlimit="10" stroke-width="5" d="M 465 450 A 15 15 0 1 1 464.99999250000064 449.9850000025 M 442.5 442.5 L 457.5 457.5 M 457.5 442.5 L 442.5 457.5" paint-order="fill stroke markers"/><path fill="none" stroke="#444542" stroke-miterlimit="10" stroke-width="166.66" d="M 500 250 A 250 250 0 0 1 250 3.061616997868383e-14" paint-order="fill stroke markers"/></g></svg>