<svg id="svg" version="1.1" xmlns="http://www.w3.org/2000/svg" xmlns:xlink="http://www.w3.org/1999/xlink" width="400" height="400" viewBox="0, 0, 400,400"><g id="svgg"><path id="path0" d="M4.189 0.418 C 3.614 1.348,3.965 6.003,4.685 7.001 C 5.795 8.539,10.217 11.276,13.731 12.600 C 18.116 14.252,18.146 14.339,15.906 19.074 C 11.387 28.625,11.964 33.424,18.454 40.256 L 22.467 44.482 22.285 46.741 C 22.185 47.983,21.877 50.310,21.602 51.911 C 18.472 70.079,47.303 79.967,61.890 65.729 C 66.405 61.322,68.071 54.951,66.426 48.385 C 65.488 44.645,66.187 43.511,72.800 38.043 C 78.021 33.727,79.351 32.322,78.868 31.632 C 78.625 31.285,77.684 29.688,76.777 28.085 C 75.870 26.482,73.434 22.994,71.364 20.333 C 66.570 14.172,66.477 13.200,70.681 13.200 C 71.680 13.200,74.410 12.912,76.749 12.560 C 82.396 11.710,90.541 12.771,94.536 14.878 C 95.690 15.487,99.354 15.376,100.435 14.699 C 101.836 13.821,106.353 12.868,111.400 12.385 C 117.639 11.788,118.597 11.462,120.831 9.168 C 122.684 7.266,124.872 3.379,125.373 1.100 C 125.782 -0.757,123.177 -0.505,122.040 1.422 C 120.494 4.043,118.519 4.591,110.400 4.654 C 106.550 4.684,95.120 4.840,85.000 5.001 C 68.743 5.259,66.191 5.216,63.086 4.631 C 60.788 4.198,58.574 4.045,56.686 4.190 C 46.991 4.930,17.601 5.039,14.400 4.347 C 11.978 3.823,10.015 2.458,9.730 1.100 C 9.486 -0.067,4.842 -0.639,4.189 0.418 M272.927 1.722 C 273.057 2.668,273.746 5.503,274.457 8.022 C 276.013 13.525,276.103 16.850,275.287 38.800 C 274.897 49.306,274.883 53.722,275.227 57.301 C 275.565 60.809,275.563 64.997,275.220 73.807 C 274.967 80.300,274.853 85.763,274.967 85.947 C 275.081 86.131,275.359 90.673,275.585 96.041 C 275.810 101.408,276.195 109.321,276.438 113.625 C 276.854 120.962,276.826 121.834,275.988 127.592 C 274.975 134.556,275.046 137.185,276.420 143.602 C 277.392 148.142,277.429 147.408,275.716 157.400 C 275.256 160.081,275.080 164.422,275.026 174.400 C 274.986 181.770,274.711 197.520,274.413 209.400 C 273.690 238.294,273.956 275.247,275.009 292.000 C 275.321 296.950,275.764 309.100,275.995 319.000 C 276.226 328.940,276.674 339.328,276.994 342.200 C 277.313 345.060,277.736 349.380,277.935 351.800 C 278.807 362.452,282.784 370.551,287.045 370.354 C 289.604 370.235,290.127 370.623,291.801 373.873 C 293.473 377.118,296.126 379.572,300.268 381.704 C 311.104 387.279,317.088 385.622,321.815 375.736 C 325.905 367.183,326.005 365.643,323.197 354.528 C 319.444 339.670,320.999 335.059,328.055 340.121 C 335.360 345.363,337.222 348.180,336.097 352.289 C 334.925 356.570,335.175 360.582,336.800 363.600 C 346.531 381.672,377.706 379.135,381.204 359.987 C 381.603 357.805,381.559 357.373,380.389 351.926 C 379.545 348.000,380.356 346.689,386.125 342.655 C 391.868 338.640,392.597 337.251,392.183 331.110 C 392.021 328.703,392.189 326.490,392.797 323.000 C 393.257 320.360,393.901 316.130,394.230 313.600 C 394.558 311.070,395.065 307.204,395.356 305.008 C 395.647 302.812,395.832 299.122,395.768 296.808 C 395.689 293.982,395.905 291.105,396.425 288.048 C 397.405 282.294,397.396 280.163,396.359 271.347 C 395.303 262.371,396.260 255.411,399.059 251.701 L 400.040 250.402 399.862 236.701 C 399.764 229.165,399.677 221.442,399.668 219.537 C 399.657 217.206,399.300 214.600,398.573 211.561 C 397.598 207.484,397.521 206.621,397.774 202.624 C 397.928 200.191,398.038 197.391,398.018 196.402 C 397.999 195.413,398.264 193.481,398.608 192.108 C 399.075 190.246,399.134 189.230,398.841 188.106 C 398.165 185.514,397.936 180.697,397.720 164.600 C 397.415 141.798,397.438 139.092,397.977 133.788 C 398.429 129.345,398.400 128.602,397.603 124.110 C 396.759 119.352,396.545 112.973,396.880 102.600 C 396.937 100.840,396.674 96.739,396.296 93.486 C 395.659 88.008,395.655 87.240,396.244 83.086 C 397.337 75.373,396.667 67.435,394.143 58.187 C 393.643 56.356,393.495 56.181,392.497 56.254 C 391.894 56.299,391.175 56.350,390.900 56.368 C 390.625 56.385,390.400 56.585,390.400 56.812 C 390.400 57.039,389.806 57.746,389.080 58.383 C 388.354 59.021,386.707 61.093,385.419 62.989 C 382.957 66.613,380.002 69.571,377.621 70.794 C 376.839 71.196,374.435 72.707,372.277 74.153 C 367.269 77.509,366.508 77.697,358.634 77.530 C 351.845 77.386,350.722 77.115,348.500 75.083 C 346.989 73.702,347.385 73.481,350.900 73.746 C 361.293 74.531,360.680 74.553,365.800 73.219 C 378.946 69.793,384.623 61.476,381.153 50.723 C 379.012 44.085,380.676 41.620,388.500 39.845 C 389.984 39.508,391.593 38.865,392.075 38.416 C 392.557 37.967,393.087 37.600,393.254 37.600 C 393.421 37.600,393.522 33.865,393.479 29.300 C 393.405 21.515,393.454 20.884,394.273 19.129 C 395.431 16.649,397.749 13.312,398.996 12.331 C 400.067 11.489,400.619 2.400,399.600 2.400 C 399.380 2.400,399.236 2.265,399.279 2.100 C 399.323 1.935,399.221 1.395,399.052 0.900 C 398.705 -0.119,395.631 -0.472,395.567 0.500 C 395.120 7.200,392.245 9.642,385.830 8.772 C 384.347 8.570,382.702 8.658,380.902 9.035 C 379.416 9.346,378.099 9.600,377.976 9.600 C 377.382 9.600,376.000 11.327,376.000 12.068 C 376.000 12.529,377.239 14.637,378.752 16.753 C 384.371 24.607,385.577 29.244,382.775 32.226 C 380.257 34.907,377.576 34.487,373.793 30.820 C 369.917 27.061,367.536 26.669,362.581 28.975 C 359.401 30.456,356.973 30.458,353.800 28.984 C 348.407 26.479,346.233 26.828,342.263 30.839 C 338.604 34.534,336.684 34.878,332.353 32.613 C 331.238 32.031,329.431 31.448,328.337 31.318 L 326.349 31.083 323.816 33.679 C 320.862 36.706,318.486 41.269,317.399 46.000 C 317.020 47.650,316.547 49.662,316.347 50.471 C 316.148 51.281,315.349 52.704,314.571 53.634 C 309.910 59.214,311.537 63.711,319.359 66.864 C 322.556 68.153,325.600 70.388,325.600 71.447 C 325.600 71.751,325.758 72.000,325.951 72.000 C 326.145 72.000,326.513 72.495,326.771 73.100 C 327.420 74.628,328.555 75.358,332.227 76.605 C 337.974 78.557,347.200 85.357,347.200 87.641 C 347.200 90.987,350.076 93.796,354.721 94.987 C 361.693 96.773,364.123 99.186,364.771 104.964 C 364.959 106.638,365.400 108.446,365.752 108.983 C 366.453 110.053,371.732 114.400,372.330 114.400 C 372.534 114.400,372.911 114.652,373.167 114.960 C 373.422 115.268,374.803 115.837,376.234 116.224 C 382.035 117.794,384.064 125.588,379.736 129.671 C 376.213 132.994,371.275 133.764,364.986 131.971 C 360.672 130.741,357.755 131.258,354.918 133.756 C 348.294 139.587,340.893 141.606,332.272 139.936 C 329.764 139.450,327.983 140.156,327.667 141.762 C 327.390 143.171,331.583 146.163,334.379 146.552 C 335.358 146.688,336.339 146.979,336.559 147.199 C 336.780 147.420,337.284 147.600,337.680 147.600 C 338.076 147.600,338.400 147.780,338.400 148.000 C 338.400 148.220,338.606 148.400,338.857 148.400 C 339.108 148.400,340.863 149.370,342.757 150.554 C 346.948 153.177,348.345 153.895,349.846 154.197 C 352.462 154.723,360.170 155.592,365.657 155.979 C 372.395 156.454,374.765 157.198,375.777 159.156 C 376.480 160.516,376.603 162.627,376.000 163.000 C 374.458 163.953,375.943 168.939,377.657 168.564 C 389.805 165.908,393.584 174.186,389.268 194.000 C 387.151 203.718,387.470 210.180,390.385 216.600 C 391.883 219.897,392.733 233.468,391.688 237.400 C 391.455 238.280,391.149 240.350,391.009 242.000 C 390.870 243.650,390.607 245.360,390.426 245.800 C 390.244 246.240,389.765 247.392,389.360 248.360 C 388.956 249.328,387.579 251.568,386.300 253.338 C 383.363 257.406,383.400 257.249,383.400 265.600 C 383.400 272.449,383.425 272.656,384.554 275.200 C 387.718 282.326,385.404 290.080,380.304 289.437 C 371.406 288.315,370.130 288.625,366.205 292.864 L 363.876 295.380 357.841 295.458 C 351.647 295.539,350.800 295.359,350.800 293.965 C 350.800 293.019,351.955 292.412,354.298 292.125 C 355.322 291.999,356.407 291.650,356.709 291.348 C 357.010 291.047,357.585 290.800,357.986 290.800 C 358.811 290.800,359.200 290.042,359.200 288.432 C 359.200 287.524,358.584 286.841,355.713 284.565 L 352.225 281.800 348.213 281.659 C 340.929 281.403,338.571 282.512,335.607 287.588 C 333.663 290.917,332.425 292.041,325.400 296.854 C 317.475 302.284,317.842 302.134,312.200 302.238 C 306.769 302.337,305.298 302.780,302.400 305.192 C 299.146 307.899,298.753 308.000,291.474 308.000 C 282.560 308.000,281.935 307.480,282.104 300.200 C 282.178 297.021,282.055 296.296,281.055 294.000 C 278.389 287.875,277.082 274.633,278.010 263.135 C 278.240 260.283,278.244 257.252,278.021 255.335 C 277.365 249.706,277.489 208.266,278.169 206.086 C 278.287 205.708,278.560 203.150,278.776 200.400 C 278.993 197.650,279.533 192.430,279.977 188.800 C 280.960 180.762,280.987 178.456,280.153 174.031 C 278.880 167.284,280.323 158.982,283.345 155.660 C 287.842 150.718,303.941 151.484,309.975 156.928 C 315.557 161.964,318.400 161.523,318.400 155.620 C 318.400 151.945,318.608 151.182,320.884 146.514 C 322.333 143.541,322.236 143.162,319.732 142.026 C 315.955 140.314,315.101 139.814,313.407 138.323 C 312.465 137.493,310.495 135.124,309.031 133.058 C 306.088 128.906,299.572 122.498,293.745 118.026 C 287.684 113.373,283.739 106.244,282.832 98.303 C 282.624 96.486,281.971 93.472,281.380 91.605 C 279.497 85.656,279.424 80.975,281.018 68.400 C 281.749 62.633,281.752 59.978,281.030 56.526 C 279.940 51.309,279.877 48.520,280.726 43.200 C 281.165 40.450,281.645 36.991,281.793 35.514 C 282.299 30.439,284.145 29.008,286.871 31.576 C 288.883 33.471,289.682 33.584,291.001 32.161 C 293.820 29.119,293.124 25.856,289.559 25.405 C 286.420 25.008,286.107 24.819,285.239 22.803 C 284.184 20.350,284.189 19.638,285.280 17.102 L 286.160 15.057 285.019 14.228 C 281.054 11.350,279.911 10.190,278.014 7.114 C 276.890 5.291,275.664 2.945,275.291 1.900 C 274.316 -0.828,272.560 -0.961,272.927 1.722 M46.600 11.012 C 59.841 12.413,73.368 26.440,67.509 32.694 C 65.520 34.817,63.125 34.229,59.800 30.800 C 56.182 27.069,54.636 26.825,48.554 29.027 C 44.090 30.643,43.404 30.627,39.200 28.809 C 33.707 26.434,31.907 26.761,28.058 30.832 C 22.716 36.484,17.604 32.564,20.439 24.988 C 22.879 18.467,36.942 9.678,43.400 10.639 C 43.840 10.704,45.280 10.872,46.600 11.012 M337.300 11.859 C 334.721 13.131,336.301 13.713,339.192 12.557 C 340.076 12.203,340.800 11.753,340.800 11.557 C 340.800 10.983,338.711 11.163,337.300 11.859 M96.917 24.122 C 96.431 24.391,95.319 25.598,94.445 26.805 C 90.937 31.650,91.931 31.189,86.149 30.659 C 79.652 30.063,78.047 32.939,83.124 36.076 C 84.647 37.018,87.765 36.892,89.850 35.805 C 91.804 34.786,92.664 35.011,97.151 37.716 C 98.555 38.562,100.895 39.686,102.351 40.215 C 106.966 41.887,111.784 43.951,111.902 44.305 C 112.029 44.686,108.479 46.204,106.566 46.587 C 105.888 46.723,103.956 46.550,102.274 46.203 C 96.282 44.965,93.934 46.087,87.197 53.406 C 85.985 54.723,83.788 56.935,82.315 58.322 C 79.444 61.027,78.007 63.461,77.003 67.320 C 76.028 71.068,75.494 71.777,72.526 73.255 C 70.614 74.208,68.828 75.600,66.400 78.031 C 62.659 81.776,61.392 82.376,57.123 82.424 C 55.955 82.437,54.100 82.621,53.000 82.833 C 51.325 83.156,36.662 84.055,33.687 84.018 C 32.326 84.001,30.482 82.939,27.800 80.626 C 26.480 79.488,24.230 77.681,22.800 76.610 C 21.370 75.539,18.914 73.434,17.343 71.932 C 14.077 68.809,12.955 68.496,11.642 70.341 C 10.241 72.309,10.335 84.376,11.795 90.000 C 12.778 93.785,12.854 94.555,12.562 97.800 C 11.827 105.963,12.166 107.209,16.127 110.912 L 18.600 113.225 17.521 114.031 C 13.440 117.078,10.935 124.525,11.207 132.800 C 11.276 134.890,11.270 137.860,11.194 139.400 C 10.927 144.817,11.051 147.029,11.797 150.123 C 12.470 152.911,12.494 153.512,12.020 155.723 C 10.599 162.355,10.502 163.835,11.219 168.001 C 12.159 173.466,11.991 190.303,10.951 194.800 C 10.388 197.234,10.236 200.139,10.149 210.200 C 10.089 217.020,9.848 225.030,9.614 228.000 C 9.255 232.541,9.287 233.909,9.817 236.600 C 12.219 248.804,12.370 251.288,10.984 255.800 C 10.600 257.047,10.242 260.610,10.032 265.261 C 9.847 269.365,9.583 272.904,9.446 273.125 C 8.274 275.022,10.386 290.939,12.478 295.972 C 14.438 300.687,14.437 301.090,12.475 305.248 C 10.001 310.491,9.789 312.000,9.917 323.480 C 10.065 336.753,10.738 338.959,15.694 342.432 C 22.117 346.932,22.734 347.990,21.786 352.874 C 20.817 357.859,21.118 360.871,22.955 364.588 C 33.426 385.775,74.585 375.571,66.881 353.698 C 65.072 348.561,66.171 346.128,71.800 342.817 C 75.084 340.885,78.550 341.801,82.471 345.637 C 85.200 348.308,85.268 348.750,83.365 351.401 C 82.576 352.501,81.148 354.930,80.191 356.800 C 79.235 358.670,77.675 361.139,76.726 362.286 C 72.218 367.735,68.440 372.494,66.825 374.759 C 62.945 380.200,55.638 384.270,48.713 384.849 C 38.807 385.675,36.192 387.841,42.519 389.977 C 45.425 390.959,46.428 390.991,49.465 390.200 C 52.218 389.483,55.621 389.443,62.049 390.053 C 67.602 390.581,75.227 390.127,86.200 388.617 C 89.940 388.102,94.890 387.563,97.200 387.419 C 105.972 386.872,108.764 385.504,109.371 381.457 C 109.540 380.330,110.254 378.712,111.223 377.261 C 113.086 374.470,113.182 373.325,111.703 371.531 C 109.604 368.983,105.383 365.133,102.795 363.404 C 99.544 361.234,91.600 353.171,91.600 352.042 C 91.600 351.111,92.497 350.531,94.445 350.203 C 97.780 349.642,99.657 348.690,102.407 346.166 C 103.945 344.755,105.518 343.602,105.902 343.604 C 108.210 343.617,113.159 347.330,116.727 351.727 C 119.506 355.151,121.312 347.397,121.276 332.200 C 121.263 326.919,121.478 321.640,121.812 319.000 C 123.140 308.518,124.239 282.973,123.618 277.043 C 123.262 273.643,123.266 269.642,123.635 260.000 C 124.114 247.486,124.316 223.510,124.036 212.400 C 123.955 209.210,124.024 198.475,124.190 188.544 C 124.396 176.182,124.354 169.497,124.057 167.344 C 123.819 165.615,123.334 162.266,122.980 159.903 C 122.382 155.916,122.385 155.223,123.015 150.303 C 123.713 144.858,123.638 139.897,122.754 133.200 C 122.536 131.550,122.275 123.720,122.173 115.800 C 121.869 92.082,121.696 86.347,121.186 83.200 C 120.847 81.106,120.783 77.783,120.974 72.200 C 121.415 59.329,119.345 51.441,114.145 46.165 L 112.264 44.258 113.167 43.629 C 121.224 38.016,121.147 29.242,113.040 29.186 C 109.165 29.159,104.460 27.611,101.091 25.254 C 98.957 23.761,98.028 23.509,96.917 24.122 M298.057 26.057 C 297.438 27.048,297.417 26.990,299.000 28.573 C 299.770 29.343,300.400 29.867,300.400 29.738 C 300.400 29.608,300.668 29.724,300.995 29.996 C 301.322 30.267,301.862 30.385,302.195 30.257 C 302.528 30.130,302.800 30.199,302.800 30.413 C 302.800 31.054,303.831 30.850,304.538 30.069 C 306.415 27.994,303.830 25.124,300.209 25.261 C 299.049 25.305,298.370 25.557,298.057 26.057 M39.501 32.826 C 43.414 34.197,44.956 34.191,49.026 32.791 C 53.938 31.101,54.872 31.719,55.252 36.910 C 55.541 40.863,55.870 41.773,58.074 44.710 C 60.186 47.524,59.665 51.833,56.954 53.965 C 55.245 55.309,52.993 55.078,49.434 53.192 C 44.889 50.785,43.779 50.760,39.273 52.971 C 30.858 57.100,26.043 51.885,31.091 44.110 C 32.933 41.272,33.358 39.610,32.994 36.666 C 32.690 34.213,33.236 32.520,34.494 32.015 C 35.779 31.498,35.652 31.478,39.501 32.826 M354.222 33.020 C 357.586 34.149,359.205 34.099,363.163 32.742 C 367.974 31.091,368.998 31.839,369.306 37.225 C 369.512 40.828,369.797 41.586,372.206 44.944 C 373.856 47.244,374.000 48.922,372.765 51.472 C 370.909 55.307,368.324 55.783,363.434 53.192 C 358.889 50.785,357.779 50.760,353.273 52.971 C 344.735 57.160,339.880 51.789,345.100 43.930 C 346.984 41.093,347.000 41.040,347.036 37.634 C 347.081 33.330,347.073 33.384,347.829 32.629 C 348.729 31.728,350.738 31.851,354.222 33.020 M333.116 42.357 C 336.214 43.938,336.678 45.220,335.602 49.220 C 335.162 50.859,334.699 53.910,334.575 56.000 C 334.196 62.375,333.829 62.812,331.186 60.034 C 325.388 53.938,326.993 39.233,333.116 42.357 M48.800 57.535 C 50.230 58.182,52.684 59.093,54.254 59.559 C 64.290 62.539,50.972 70.705,39.920 68.348 C 30.974 66.440,28.124 61.611,34.600 59.334 C 36.580 58.638,39.280 57.597,40.600 57.022 C 43.505 55.756,45.088 55.855,48.800 57.535 M362.000 57.231 C 363.430 57.907,366.130 58.902,368.000 59.440 C 372.709 60.796,373.154 61.618,370.752 64.531 C 365.337 71.101,348.505 70.229,345.035 63.200 C 344.054 61.213,344.523 60.768,349.400 59.056 C 350.940 58.515,353.280 57.610,354.600 57.046 C 357.715 55.713,358.853 55.742,362.000 57.231 M38.751 110.239 C 41.282 111.113,41.987 111.212,43.181 110.860 C 49.043 109.132,55.093 110.764,54.719 113.974 C 54.441 116.366,49.698 117.084,44.452 115.529 C 41.780 114.737,41.293 114.703,39.252 115.166 C 33.277 116.521,30.400 115.623,30.400 112.403 C 30.400 109.270,33.566 108.450,38.751 110.239 M378.680 143.442 C 379.412 144.443,379.327 145.104,378.404 145.598 C 377.250 146.216,375.600 145.058,375.600 143.631 C 375.600 142.333,377.772 142.200,378.680 143.442 M46.418 148.207 C 50.467 150.293,50.512 153.231,46.516 154.700 C 45.902 154.926,43.924 155.671,42.120 156.355 C 36.973 158.309,34.659 157.786,32.781 154.248 C 30.411 149.780,40.659 145.240,46.418 148.207 M116.443 169.554 C 119.036 172.756,116.717 175.336,111.437 175.123 C 105.590 174.886,103.220 173.260,104.926 170.657 C 106.388 168.426,114.872 167.614,116.443 169.554 M117.326 184.214 C 119.551 188.880,116.334 198.125,113.126 196.283 C 112.471 195.907,111.706 195.600,111.426 195.600 C 110.138 195.600,108.800 193.668,108.800 191.806 C 108.800 186.258,115.469 180.319,117.326 184.214 M115.391 222.069 C 117.855 223.191,116.839 228.800,114.171 228.800 C 112.854 228.800,109.830 227.414,108.848 226.359 C 107.085 224.467,108.172 222.866,111.693 222.172 C 113.072 221.901,114.237 221.661,114.281 221.639 C 114.326 221.618,114.825 221.811,115.391 222.069 M346.790 251.590 C 343.332 252.037,341.200 253.709,341.200 255.975 C 341.200 257.503,342.173 257.663,345.600 256.703 C 347.030 256.303,349.783 255.919,351.717 255.851 C 355.587 255.714,356.355 255.358,355.554 254.076 C 354.891 253.014,350.449 251.053,349.200 251.270 C 349.090 251.289,348.006 251.433,346.790 251.590 M115.200 278.000 C 116.454 279.254,116.144 282.800,114.781 282.800 C 114.168 282.800,112.832 281.265,112.583 280.276 C 111.920 277.634,113.478 276.278,115.200 278.000 M293.637 296.223 C 289.128 297.722,288.400 298.134,288.400 299.187 C 288.400 301.059,292.042 301.678,296.708 300.599 C 299.013 300.066,300.541 297.476,299.757 295.433 C 299.409 294.524,298.329 294.664,293.637 296.223 M366.514 313.789 C 379.264 316.491,388.990 331.594,381.084 336.414 C 378.650 337.898,377.489 337.492,373.522 333.769 C 369.861 330.333,368.605 330.136,363.259 332.153 C 358.579 333.919,357.657 333.940,353.605 332.378 C 347.589 330.058,346.089 330.310,342.244 334.290 C 337.619 339.077,333.051 337.144,333.055 330.400 C 333.057 325.592,337.046 321.018,345.200 316.475 C 349.897 313.858,360.520 312.519,366.514 313.789 M54.931 314.976 C 63.891 317.398,72.332 326.712,70.782 332.466 C 69.400 337.598,64.493 338.492,60.222 334.391 C 56.068 330.402,54.566 330.103,49.200 332.200 C 47.229 332.970,45.005 333.600,44.256 333.600 C 43.508 333.600,41.155 332.970,39.028 332.200 C 33.185 330.085,31.417 330.414,28.165 334.220 C 24.979 337.949,21.205 337.947,19.434 334.216 C 16.002 326.983,26.372 316.915,40.000 314.250 C 42.094 313.840,52.625 314.352,54.931 314.976 M318.530 335.361 C 318.648 335.669,318.652 336.015,318.538 336.128 C 318.234 336.433,316.000 335.582,316.000 335.161 C 316.000 334.570,318.296 334.752,318.530 335.361 M39.200 336.200 C 42.889 337.455,44.996 337.458,49.146 336.216 C 54.246 334.690,54.990 335.246,55.281 340.800 C 55.468 344.365,55.813 345.298,58.041 348.264 C 60.227 351.174,59.627 355.155,56.670 357.358 C 54.907 358.672,52.753 358.418,49.066 356.462 C 44.892 354.249,43.475 354.248,39.091 356.461 C 31.288 360.400,25.743 354.941,30.446 347.950 C 31.242 346.767,32.052 345.530,32.246 345.200 C 32.441 344.870,32.696 342.825,32.812 340.655 C 33.120 334.945,33.903 334.399,39.200 336.200 M353.039 336.200 C 354.724 336.750,356.974 337.200,358.039 337.200 C 359.104 337.200,361.354 336.750,363.039 336.200 C 368.251 334.499,369.027 335.036,369.267 340.511 C 369.438 344.424,369.375 344.257,372.555 349.271 C 374.032 351.600,373.102 355.542,370.643 357.377 C 368.943 358.646,366.768 358.382,362.800 356.424 C 358.699 354.400,357.384 354.411,353.327 356.500 C 347.493 359.504,344.471 358.613,343.187 353.513 C 342.671 351.466,343.132 350.131,345.703 346.232 C 346.867 344.466,347.006 343.945,347.054 341.141 C 347.124 337.164,347.369 336.233,348.491 335.692 C 349.734 335.093,349.602 335.078,353.039 336.200 M47.800 360.644 C 49.120 361.208,51.804 362.185,53.764 362.814 C 58.842 364.445,59.276 365.579,55.961 368.559 C 50.319 373.632,37.508 373.508,32.330 368.330 C 29.623 365.623,30.084 364.585,34.800 362.769 C 36.890 361.964,39.410 360.934,40.400 360.481 C 42.825 359.370,44.927 359.417,47.800 360.644 M362.333 360.855 C 364.020 361.546,366.747 362.496,368.394 362.968 C 373.157 364.331,373.405 366.559,369.115 369.449 C 362.304 374.039,348.007 372.341,345.245 366.613 C 344.286 364.623,344.514 364.444,351.600 361.640 C 357.554 359.283,358.351 359.225,362.333 360.855 M298.946 361.629 C 301.479 363.622,299.673 365.819,294.096 367.528 C 290.729 368.560,289.600 367.881,289.600 364.825 C 289.600 361.723,296.197 359.467,298.946 361.629 M12.800 373.593 C 11.682 374.303,12.023 379.820,13.353 382.539 C 16.131 388.218,30.313 391.779,32.966 387.464 C 33.649 386.352,31.143 384.344,27.165 382.817 C 23.349 381.352,21.739 380.278,19.279 377.554 C 17.765 375.877,14.274 373.189,13.631 373.206 C 13.504 373.209,13.130 373.384,12.800 373.593 " stroke="none" fill="#8d908a" fill-rule="evenodd"></path><path id="path1" d="M129.900 2.701 C 130.021 4.395,129.844 6.621,129.425 8.676 C 128.652 12.468,128.642 13.073,128.925 38.800 C 129.341 76.595,129.544 88.786,129.761 89.137 C 129.882 89.333,129.989 97.482,129.999 107.246 C 130.009 117.011,130.216 128.911,130.459 133.691 C 130.789 140.193,130.783 143.973,130.434 148.691 C 130.049 153.884,130.073 156.345,130.567 162.600 C 131.228 170.961,131.497 196.737,131.027 206.600 C 130.869 209.900,130.909 215.480,131.116 219.000 C 131.345 222.909,131.354 231.551,131.137 241.200 C 130.943 249.890,130.718 270.320,130.638 286.600 C 130.551 304.431,130.313 318.029,130.041 320.800 C 129.793 323.330,129.422 335.300,129.218 347.400 C 128.670 379.776,127.831 387.304,123.892 395.188 C 122.741 397.491,121.740 399.516,121.667 399.688 C 121.593 399.860,184.188 400.000,260.767 400.000 L 400.000 400.000 400.000 395.000 C 400.000 389.347,400.067 389.437,397.449 391.600 C 396.384 392.480,395.389 393.200,395.237 393.200 C 395.085 393.200,394.205 393.927,393.281 394.815 C 392.356 395.703,391.600 396.312,391.600 396.169 C 391.600 396.025,391.105 396.244,390.500 396.654 C 389.560 397.292,388.297 397.435,381.800 397.644 C 377.620 397.778,372.040 398.106,369.400 398.372 C 363.537 398.964,354.302 398.395,347.000 396.991 C 342.566 396.138,341.560 396.088,333.800 396.333 C 325.836 396.584,322.412 396.590,308.800 396.375 C 305.610 396.325,299.261 396.597,294.691 396.980 C 279.592 398.246,277.590 397.834,274.227 392.776 C 271.031 387.967,270.134 383.230,270.558 373.400 C 270.735 369.320,270.626 365.224,270.217 360.600 C 269.219 349.290,268.816 339.453,268.604 321.200 C 268.493 311.630,268.198 300.920,267.949 297.400 C 267.700 293.880,267.463 282.540,267.422 272.200 C 267.381 261.860,267.112 249.186,266.824 244.035 C 266.536 238.884,266.421 233.574,266.568 232.235 C 266.830 229.856,267.183 216.189,267.965 178.200 C 268.178 167.860,268.564 157.514,268.823 155.208 C 269.088 152.851,269.191 149.088,269.059 146.608 C 268.930 144.184,268.704 139.978,268.556 137.262 C 268.393 134.272,268.479 130.247,268.773 127.062 C 269.156 122.925,269.155 118.678,268.769 107.200 C 268.499 99.170,268.204 83.780,268.114 73.000 C 268.023 62.220,267.927 52.320,267.900 51.000 C 267.873 49.680,268.080 41.400,268.362 32.600 C 268.985 13.085,268.892 11.859,266.149 3.686 C 265.611 2.083,265.278 0.598,265.409 0.386 C 265.560 0.141,261.030 -0.000,253.042 -0.000 L 240.436 0.000 239.436 1.000 C 238.886 1.550,238.248 2.000,238.018 2.000 C 237.788 2.000,237.600 2.180,237.600 2.400 C 237.600 2.620,237.396 2.800,237.146 2.800 C 236.897 2.800,235.322 3.502,233.646 4.359 C 228.863 6.808,227.715 7.378,222.600 9.844 C 217.549 12.280,217.494 12.314,215.538 14.180 L 214.302 15.360 214.583 19.567 C 214.738 21.881,215.031 24.083,215.233 24.461 C 215.435 24.838,215.600 25.761,215.600 26.510 C 215.600 27.260,215.904 28.756,216.276 29.836 C 216.840 31.478,216.955 33.537,216.976 42.400 C 216.998 52.119,217.065 53.116,217.777 54.400 C 218.451 55.615,218.562 56.699,218.623 62.600 C 218.710 71.011,219.026 73.826,220.283 77.400 C 222.792 84.534,222.715 84.037,222.734 93.201 C 222.748 100.039,222.923 102.808,223.590 106.720 C 224.549 112.346,224.431 113.658,222.687 116.800 C 218.661 124.051,217.952 126.645,219.168 129.681 C 220.427 132.826,220.885 135.317,220.918 139.200 C 220.956 143.634,221.036 143.330,218.296 149.200 C 215.947 154.231,216.179 155.613,220.541 162.560 C 223.292 166.942,223.827 168.988,223.008 172.000 C 221.818 176.375,222.264 178.211,225.439 182.001 C 229.588 186.955,230.748 191.180,230.097 198.962 C 229.501 206.085,229.499 219.069,230.094 220.157 C 230.347 220.621,230.679 221.810,230.833 222.800 C 230.986 223.790,231.581 226.378,232.156 228.551 C 233.235 232.635,233.613 238.898,232.810 239.394 C 232.142 239.806,229.699 243.714,228.983 245.515 C 228.172 247.555,228.303 250.717,229.568 259.600 C 230.447 265.773,230.615 269.573,230.059 270.705 C 229.871 271.087,229.376 272.120,228.959 273.000 C 228.542 273.880,227.814 275.183,227.341 275.895 C 225.649 278.447,225.437 280.635,226.403 285.616 C 227.562 291.594,227.277 292.982,223.986 297.398 C 222.107 299.918,221.383 301.379,221.019 303.388 C 220.543 306.010,219.590 308.472,218.132 310.847 C 214.775 316.313,214.394 324.160,217.163 330.800 C 219.599 336.639,219.778 341.479,217.672 344.513 C 215.955 346.986,215.031 349.135,214.195 352.600 C 213.465 355.622,211.990 358.565,209.545 361.875 C 208.695 363.025,208.000 364.059,208.000 364.172 C 208.000 364.538,204.662 367.998,203.703 368.627 C 202.427 369.463,195.413 369.819,191.667 369.238 C 186.974 368.509,184.545 366.907,182.872 363.437 C 180.996 359.547,180.991 359.501,181.835 353.518 C 182.160 351.213,181.500 349.811,177.642 344.606 C 175.219 341.338,173.556 338.413,172.364 335.322 C 171.456 332.967,171.280 330.062,171.696 324.273 C 172.036 319.550,172.010 317.599,171.571 314.673 C 171.267 312.653,171.003 309.020,170.984 306.600 C 170.965 304.180,170.916 301.821,170.875 301.357 C 170.834 300.893,169.695 298.833,168.344 296.779 C 164.089 290.310,163.344 287.712,162.390 276.000 C 162.025 271.524,162.050 270.155,162.536 268.000 C 164.929 257.372,164.924 257.175,162.047 250.868 C 159.507 245.300,158.921 240.156,159.995 232.877 C 161.364 223.608,162.000 217.145,162.000 212.514 C 162.000 208.976,162.217 206.356,162.663 204.525 C 163.440 201.330,163.485 194.218,162.772 187.298 C 162.267 182.395,162.433 180.517,164.194 171.200 C 164.714 168.450,165.417 164.465,165.757 162.345 C 166.098 160.226,166.764 157.526,167.239 156.345 C 168.491 153.231,169.593 149.544,169.597 148.456 C 169.599 147.937,170.068 145.597,170.640 143.256 C 171.797 138.520,171.797 133.176,170.638 130.142 C 168.140 123.596,168.297 111.907,170.953 106.720 C 174.090 100.595,174.201 100.012,174.190 89.800 C 174.182 82.693,174.011 79.617,173.438 76.282 C 172.639 71.631,172.881 68.089,174.280 64.000 C 174.621 63.002,175.052 59.629,175.246 56.433 L 175.596 50.666 177.840 46.172 C 179.953 41.939,180.094 41.473,180.265 38.139 C 180.442 34.700,182.869 22.103,183.625 20.705 C 184.150 19.734,185.187 16.699,185.194 16.114 C 185.209 14.872,178.344 9.368,174.400 7.459 C 174.070 7.299,173.439 6.951,172.997 6.684 C 169.981 4.866,165.933 2.800,165.385 2.800 C 165.027 2.800,164.121 2.170,163.374 1.400 L 162.014 0.000 145.860 -0.000 L 129.707 -0.000 129.900 2.701 M205.266 375.300 C 211.614 377.895,212.618 380.562,208.190 383.069 C 205.306 384.703,198.151 384.589,194.211 382.846 C 187.382 379.825,198.226 372.423,205.266 375.300 M0.000 394.351 L 0.000 400.000 3.165 400.000 C 6.801 400.000,7.143 399.500,4.829 397.568 C 3.058 396.089,2.291 394.596,1.714 391.500 C 1.601 390.895,1.339 390.400,1.131 390.400 C 0.923 390.400,0.851 390.240,0.972 390.045 C 1.093 389.850,0.923 389.468,0.596 389.196 C 0.073 388.763,0.000 389.394,0.000 394.351 " stroke="none" fill="#1d1e1c" fill-rule="evenodd"></path><path id="path2" d="M277.769 1.141 C 278.640 2.824,280.997 4.732,282.491 4.962 C 289.137 5.987,325.212 6.059,328.800 5.054 C 332.991 3.881,347.439 3.947,351.790 5.159 C 357.384 6.716,359.720 6.695,367.278 5.016 C 368.751 4.689,371.721 4.313,373.878 4.181 C 376.035 4.049,378.610 3.757,379.600 3.533 C 380.590 3.308,382.570 3.049,384.000 2.957 C 387.924 2.703,390.400 1.772,390.400 0.551 C 390.400 0.086,381.607 -0.000,333.790 -0.000 L 277.179 -0.000 277.769 1.141 M353.695 12.006 C 346.551 14.546,339.495 19.209,337.864 22.471 C 335.782 26.633,337.174 27.835,341.872 25.930 C 346.076 24.226,348.910 24.231,353.577 25.954 C 357.761 27.498,358.423 27.499,362.732 25.967 C 367.348 24.326,369.664 24.294,373.915 25.813 C 377.586 27.124,377.985 27.005,377.990 24.600 C 378.004 17.556,361.765 9.138,353.695 12.006 M39.375 14.783 C 33.621 16.022,27.246 20.260,26.581 23.287 C 26.241 24.835,26.781 25.174,28.928 24.759 C 32.334 24.099,34.863 24.359,39.000 25.795 C 43.918 27.502,44.537 27.512,49.014 25.950 C 53.142 24.511,56.176 24.340,59.583 25.355 C 63.735 26.593,63.664 24.068,59.434 20.068 C 54.868 15.749,45.880 13.381,39.375 14.783 M41.653 62.248 L 40.727 62.896 41.864 63.646 C 43.229 64.546,45.713 64.629,46.539 63.804 C 46.991 63.352,47.184 63.327,47.336 63.704 C 47.458 64.005,47.549 63.933,47.568 63.523 C 47.648 61.810,43.541 60.926,41.653 62.248 M355.676 62.232 L 354.773 62.864 355.750 63.632 C 357.037 64.644,359.593 64.647,360.758 63.636 L 361.639 62.873 360.730 62.236 C 359.565 61.420,356.838 61.418,355.676 62.232 M285.200 229.024 C 285.200 229.604,285.373 229.940,285.600 229.800 C 285.820 229.664,286.000 229.203,286.000 228.776 C 286.000 228.349,285.820 228.000,285.600 228.000 C 285.380 228.000,285.200 228.461,285.200 229.024 M353.200 317.630 C 347.057 318.533,339.200 324.490,339.200 328.245 C 339.200 329.589,339.613 329.654,342.641 328.788 C 346.445 327.700,347.930 327.787,353.496 329.418 L 358.335 330.836 362.573 329.418 C 367.501 327.769,369.766 327.643,373.264 328.822 C 377.758 330.335,378.918 329.386,377.059 325.717 C 373.742 319.171,364.360 315.991,353.200 317.630 M37.345 318.368 C 30.700 320.167,25.395 324.612,25.686 328.136 C 25.790 329.390,25.626 329.370,29.075 328.561 C 32.438 327.771,35.123 328.001,39.407 329.443 C 43.445 330.803,45.025 330.771,49.492 329.237 C 53.868 327.735,56.063 327.686,59.800 329.007 C 65.314 330.956,66.040 328.539,61.493 323.373 C 57.082 318.362,45.916 316.048,37.345 318.368 M41.752 366.181 C 41.364 367.192,41.991 367.600,43.924 367.594 C 46.307 367.586,47.163 367.119,46.425 366.230 C 45.727 365.389,42.071 365.350,41.752 366.181 M356.090 366.070 C 355.330 366.830,356.300 367.600,358.016 367.600 C 359.890 367.600,360.800 367.273,360.800 366.600 C 360.800 365.578,357.008 365.152,356.090 366.070 " stroke="none" fill="#d1d3cd" fill-rule="evenodd"></path><path id="path3" d="M128.274 2.100 C 128.419 3.501,128.185 5.664,127.571 8.600 C 126.903 11.797,126.665 14.203,126.699 17.400 C 126.724 19.820,126.818 29.270,126.908 38.400 C 126.997 47.530,127.271 64.450,127.518 76.000 C 128.449 119.721,128.706 141.413,128.437 153.800 C 128.370 156.880,128.525 161.650,128.782 164.400 C 129.125 168.081,129.177 182.489,128.979 219.000 C 128.831 246.280,128.735 275.260,128.765 283.400 C 128.795 291.540,128.641 303.060,128.422 309.000 C 128.203 314.940,127.845 328.620,127.626 339.400 C 127.095 365.613,125.813 384.229,124.231 388.713 C 122.023 394.970,119.515 396.800,113.148 396.800 C 107.361 396.800,97.571 397.604,95.000 398.290 C 91.754 399.156,89.493 399.325,86.400 398.931 C 84.499 398.689,82.778 398.778,80.000 399.261 C 76.242 399.916,76.449 399.924,98.847 399.962 L 121.494 400.000 123.743 395.500 C 127.847 387.288,128.664 380.104,129.218 347.400 C 129.422 335.300,129.793 323.330,130.041 320.800 C 130.313 318.029,130.551 304.431,130.638 286.600 C 130.718 270.320,130.943 249.890,131.137 241.200 C 131.354 231.551,131.345 222.909,131.116 219.000 C 130.909 215.480,130.869 209.900,131.027 206.600 C 131.497 196.737,131.228 170.961,130.567 162.600 C 130.073 156.345,130.049 153.884,130.434 148.691 C 130.783 143.973,130.789 140.193,130.459 133.691 C 130.216 128.911,130.009 117.011,129.999 107.246 C 129.989 97.482,129.882 89.333,129.761 89.137 C 129.544 88.786,129.343 76.669,128.925 38.800 C 128.645 13.414,128.662 12.309,129.384 8.874 C 130.411 3.992,130.141 -0.000,128.782 -0.000 C 128.147 -0.000,128.085 0.260,128.274 2.100 M162.400 0.257 C 162.400 0.768,164.808 2.800,165.415 2.800 C 165.938 2.800,170.039 4.901,172.997 6.684 C 173.439 6.951,174.070 7.299,174.400 7.459 C 178.344 9.368,185.209 14.872,185.194 16.114 C 185.187 16.699,184.150 19.734,183.625 20.705 C 182.869 22.103,180.442 34.700,180.265 38.139 C 180.094 41.473,179.953 41.939,177.840 46.172 L 175.596 50.666 175.246 56.433 C 175.052 59.629,174.621 63.002,174.280 64.000 C 172.881 68.089,172.639 71.631,173.438 76.282 C 174.011 79.617,174.182 82.693,174.190 89.800 C 174.201 100.012,174.090 100.595,170.953 106.720 C 168.297 111.907,168.140 123.596,170.638 130.142 C 171.797 133.176,171.797 138.520,170.640 143.256 C 170.068 145.597,169.599 147.937,169.597 148.456 C 169.593 149.544,168.491 153.231,167.239 156.345 C 166.764 157.526,166.098 160.226,165.757 162.345 C 165.417 164.465,164.714 168.450,164.194 171.200 C 162.433 180.517,162.267 182.395,162.772 187.298 C 163.485 194.218,163.440 201.330,162.663 204.525 C 162.217 206.356,162.000 208.976,162.000 212.514 C 162.000 217.145,161.364 223.608,159.995 232.877 C 158.921 240.156,159.507 245.300,162.047 250.868 C 164.924 257.175,164.929 257.372,162.536 268.000 C 162.050 270.155,162.025 271.524,162.390 276.000 C 163.344 287.712,164.089 290.310,168.344 296.779 C 169.695 298.833,170.834 300.893,170.875 301.357 C 170.916 301.821,170.965 304.180,170.984 306.600 C 171.003 309.020,171.267 312.653,171.571 314.673 C 172.010 317.599,172.036 319.550,171.696 324.273 C 171.280 330.062,171.456 332.967,172.364 335.322 C 173.556 338.413,175.219 341.338,177.642 344.606 C 181.500 349.811,182.160 351.213,181.835 353.518 C 180.991 359.501,180.996 359.547,182.872 363.437 C 184.545 366.907,186.974 368.509,191.667 369.238 C 195.413 369.819,202.427 369.463,203.703 368.627 C 204.662 367.998,208.000 364.538,208.000 364.172 C 208.000 364.059,208.695 363.025,209.545 361.875 C 211.990 358.565,213.465 355.622,214.195 352.600 C 215.031 349.135,215.955 346.986,217.672 344.513 C 219.778 341.479,219.599 336.639,217.163 330.800 C 214.394 324.160,214.775 316.313,218.132 310.847 C 219.590 308.472,220.543 306.010,221.019 303.388 C 221.383 301.379,222.107 299.918,223.986 297.398 C 227.277 292.982,227.562 291.594,226.403 285.616 C 225.437 280.635,225.649 278.447,227.341 275.895 C 227.814 275.183,228.542 273.880,228.959 273.000 C 229.376 272.120,229.871 271.087,230.059 270.705 C 230.615 269.573,230.447 265.773,229.568 259.600 C 228.303 250.717,228.172 247.555,228.983 245.515 C 229.699 243.714,232.142 239.806,232.810 239.394 C 233.613 238.898,233.235 232.635,232.156 228.551 C 231.581 226.378,230.986 223.790,230.833 222.800 C 230.679 221.810,230.347 220.621,230.094 220.157 C 229.499 219.069,229.501 206.085,230.097 198.962 C 230.748 191.180,229.588 186.955,225.439 182.001 C 222.264 178.211,221.818 176.375,223.008 172.000 C 223.827 168.988,223.292 166.942,220.541 162.560 C 216.179 155.613,215.947 154.231,218.296 149.200 C 221.036 143.330,220.956 143.634,220.918 139.200 C 220.885 135.317,220.427 132.826,219.168 129.681 C 217.952 126.645,218.661 124.051,222.687 116.800 C 224.431 113.658,224.549 112.346,223.590 106.720 C 222.923 102.808,222.748 100.039,222.734 93.201 C 222.715 84.037,222.792 84.534,220.283 77.400 C 219.026 73.826,218.710 71.011,218.623 62.600 C 218.562 56.699,218.451 55.615,217.777 54.400 C 217.065 53.116,216.998 52.119,216.976 42.400 C 216.955 33.537,216.840 31.478,216.276 29.836 C 215.904 28.756,215.600 27.260,215.600 26.510 C 215.600 25.761,215.435 24.838,215.233 24.461 C 215.031 24.083,214.738 21.881,214.583 19.567 L 214.302 15.360 215.538 14.180 C 217.494 12.314,217.549 12.280,222.600 9.844 C 227.715 7.378,228.863 6.808,233.646 4.359 C 235.322 3.502,236.897 2.800,237.146 2.800 C 237.396 2.800,237.600 2.620,237.600 2.400 C 237.600 2.180,237.788 2.000,238.018 2.000 C 238.248 2.000,238.886 1.550,239.436 1.000 L 240.436 0.000 233.663 0.000 L 226.890 0.000 225.945 1.196 C 225.425 1.854,224.713 2.394,224.363 2.396 C 224.012 2.398,222.662 2.766,221.363 3.213 C 210.620 6.910,190.003 7.814,184.087 4.846 C 183.709 4.657,182.071 3.894,180.446 3.151 C 178.821 2.408,177.225 1.395,176.900 0.900 C 176.320 0.018,162.400 -0.599,162.400 0.257 M265.409 0.386 C 265.278 0.598,265.611 2.083,266.149 3.686 C 268.892 11.859,268.985 13.085,268.362 32.600 C 268.080 41.400,267.873 49.680,267.900 51.000 C 267.927 52.320,268.023 62.220,268.114 73.000 C 268.204 83.780,268.499 99.170,268.769 107.200 C 269.155 118.678,269.156 122.925,268.773 127.062 C 268.479 130.247,268.393 134.272,268.556 137.262 C 268.704 139.978,268.930 144.184,269.059 146.608 C 269.191 149.088,269.088 152.851,268.823 155.208 C 268.564 157.514,268.178 167.860,267.965 178.200 C 267.183 216.189,266.830 229.856,266.568 232.235 C 266.421 233.574,266.536 238.884,266.824 244.035 C 267.112 249.186,267.381 261.860,267.422 272.200 C 267.463 282.540,267.700 293.880,267.949 297.400 C 268.198 300.920,268.493 311.630,268.604 321.200 C 268.816 339.453,269.219 349.290,270.217 360.600 C 270.626 365.224,270.735 369.320,270.558 373.400 C 270.134 383.230,271.031 387.967,274.227 392.776 C 277.590 397.834,279.592 398.246,294.691 396.980 C 299.261 396.597,305.610 396.325,308.800 396.375 C 322.412 396.590,325.836 396.584,333.800 396.333 C 341.560 396.088,342.566 396.138,347.000 396.991 C 354.302 398.395,363.537 398.964,369.400 398.372 C 372.040 398.106,377.620 397.778,381.800 397.644 C 388.495 397.429,389.541 397.305,390.582 396.600 C 391.233 396.160,391.773 395.869,391.782 395.954 C 391.792 396.039,392.430 395.554,393.200 394.876 C 394.528 393.707,395.745 392.784,398.695 390.710 C 399.958 389.822,400.810 384.000,399.676 384.000 C 399.042 384.000,397.975 385.023,397.094 386.476 C 393.918 391.716,389.081 393.652,378.200 394.037 C 373.580 394.200,368.180 394.459,366.200 394.613 C 362.839 394.873,357.725 394.416,350.200 393.183 C 342.347 391.896,341.729 391.865,333.337 392.339 C 328.752 392.597,323.530 393.018,321.733 393.273 C 319.187 393.634,316.926 393.619,311.477 393.206 C 304.569 392.682,298.935 392.816,294.786 393.603 C 287.572 394.971,279.516 394.487,277.210 392.547 C 273.436 389.371,272.691 386.325,272.628 373.800 C 272.599 368.080,272.359 360.880,272.096 357.800 C 271.112 346.298,270.788 338.657,270.761 326.400 C 270.746 319.470,270.579 309.840,270.390 305.000 C 269.296 276.990,268.958 236.351,269.582 207.800 C 269.870 194.600,270.143 178.490,270.188 172.000 C 270.233 165.510,270.504 157.893,270.788 155.074 C 271.097 152.014,271.200 148.386,271.044 146.074 C 270.392 136.450,270.325 131.765,270.771 126.938 C 271.141 122.939,271.135 118.431,270.745 106.600 C 270.420 96.722,270.301 79.845,270.405 58.400 C 270.643 9.117,270.690 12.407,269.679 7.723 C 269.196 5.481,268.800 2.826,268.800 1.823 L 268.800 0.000 267.224 0.000 C 266.357 0.000,265.540 0.174,265.409 0.386 M193.769 167.904 C 193.892 168.291,194.391 168.786,194.877 169.004 C 195.366 169.223,195.901 169.951,196.075 170.633 C 196.247 171.310,196.751 172.193,197.194 172.595 C 197.637 172.996,198.000 173.558,198.000 173.844 C 198.000 174.477,202.156 178.800,202.764 178.800 C 203.410 178.800,208.579 181.283,208.733 181.668 C 208.807 181.851,209.091 182.000,209.366 182.000 C 212.710 182.000,216.394 197.228,214.435 202.952 C 213.243 206.434,213.679 214.425,215.362 219.954 C 217.797 227.952,217.622 233.844,214.327 254.889 C 213.931 257.418,213.948 258.650,214.419 261.689 C 215.190 266.662,215.053 268.607,213.568 273.800 C 212.527 277.440,212.255 279.270,211.995 284.400 C 211.690 290.396,211.504 291.374,210.090 294.394 C 209.460 295.741,207.081 299.310,206.187 300.248 C 204.860 301.643,203.039 302.102,199.608 301.906 C 195.186 301.654,194.167 301.093,191.364 297.369 C 188.737 293.879,186.992 292.634,183.491 291.751 C 179.141 290.653,178.317 289.223,176.148 279.000 C 174.412 270.822,174.546 267.088,176.717 263.132 C 179.001 258.968,178.978 257.668,176.537 252.618 C 174.082 247.539,173.522 244.408,174.069 238.807 C 174.294 236.501,174.398 233.261,174.301 231.607 C 174.203 229.953,174.379 225.990,174.691 222.800 C 175.002 219.610,175.157 216.229,175.035 215.287 C 174.827 213.688,175.541 206.069,176.412 200.600 C 176.949 197.224,176.891 194.336,176.205 190.400 C 175.582 186.828,175.863 182.779,176.754 182.482 C 176.999 182.400,177.200 182.108,177.200 181.833 C 177.200 181.252,178.452 180.110,181.805 177.629 C 184.323 175.766,188.400 171.833,188.400 171.267 C 188.400 171.085,188.850 170.694,189.400 170.400 C 189.950 170.106,190.400 169.659,190.400 169.408 C 190.400 167.844,193.335 166.533,193.769 167.904 M198.984 374.958 C 192.730 376.477,190.003 380.985,194.211 382.846 C 203.131 386.792,215.793 381.922,208.912 377.193 C 205.299 374.709,202.553 374.091,198.984 374.958 M0.016 385.451 C 0.004 387.857,0.155 388.830,0.596 389.196 C 0.923 389.468,1.093 389.850,0.972 390.045 C 0.851 390.240,0.923 390.400,1.131 390.400 C 1.339 390.400,1.601 390.895,1.714 391.500 C 2.302 394.654,3.069 396.112,4.960 397.671 C 5.744 398.317,6.343 399.060,6.292 399.323 C 6.224 399.678,8.245 399.815,14.200 399.858 C 18.600 399.890,21.840 399.826,21.400 399.715 C 20.960 399.604,20.389 399.343,20.132 399.135 C 19.875 398.926,18.795 398.688,17.732 398.606 C 12.163 398.176,10.180 397.563,9.024 395.913 C 8.681 395.423,8.397 395.197,8.393 395.411 C 8.390 395.625,8.012 395.215,7.554 394.500 C 7.096 393.785,6.600 393.200,6.452 393.200 C 6.303 393.200,5.834 392.525,5.408 391.700 C 4.982 390.875,4.331 389.750,3.962 389.200 C 3.593 388.650,3.063 387.441,2.786 386.514 C 2.509 385.587,1.776 384.237,1.157 383.514 L 0.033 382.200 0.016 385.451 M32.800 398.851 C 32.030 399.058,30.500 399.378,29.400 399.564 C 27.818 399.830,28.569 399.907,33.000 399.934 C 37.902 399.964,38.475 399.901,37.600 399.431 C 36.120 398.637,34.378 398.426,32.800 398.851 " stroke="none" fill="#373735" fill-rule="evenodd"></path><path id="path4" d="M9.600 0.784 C 9.600 1.760,10.959 3.095,12.800 3.927 C 14.443 4.671,36.791 5.294,41.969 4.741 C 43.603 4.566,47.401 4.424,50.410 4.426 C 53.420 4.427,56.610 4.312,57.499 4.170 C 58.454 4.017,60.699 4.196,62.981 4.607 C 66.459 5.233,68.675 5.273,85.123 5.005 C 95.175 4.841,106.550 4.683,110.400 4.654 C 118.411 4.592,120.453 4.041,121.990 1.527 L 122.801 0.200 121.823 0.076 C 121.286 0.007,120.431 0.213,119.923 0.532 C 118.995 1.116,114.035 1.742,111.800 1.557 C 110.489 1.449,109.383 1.462,98.400 1.720 C 92.793 1.852,90.596 1.760,89.332 1.342 C 87.790 0.832,87.553 0.855,86.213 1.645 C 84.348 2.745,77.622 2.559,73.815 1.303 C 71.439 0.518,71.422 0.518,69.516 1.311 C 67.544 2.130,64.638 1.768,61.758 0.343 C 61.284 0.109,59.708 0.015,58.158 0.129 C 56.641 0.240,53.240 0.321,50.600 0.309 C 47.960 0.297,44.720 0.285,43.400 0.281 C 41.171 0.275,38.541 0.591,32.000 1.653 C 26.891 2.482,15.622 1.819,13.714 0.577 C 12.320 -0.331,9.600 -0.194,9.600 0.784 M274.804 0.500 C 274.824 3.032,279.822 10.391,283.192 12.850 C 286.373 15.171,286.264 14.931,285.209 17.256 C 284.200 19.480,284.205 20.398,285.239 22.803 C 286.107 24.819,286.420 25.008,289.559 25.405 C 293.124 25.856,293.820 29.119,291.001 32.161 C 289.682 33.584,288.883 33.471,286.871 31.576 C 284.145 29.008,282.299 30.439,281.793 35.514 C 281.645 36.991,281.165 40.450,280.726 43.200 C 279.877 48.520,279.940 51.309,281.030 56.526 C 281.752 59.978,281.749 62.633,281.018 68.400 C 279.424 80.975,279.497 85.656,281.380 91.605 C 281.971 93.472,282.624 96.486,282.832 98.303 C 283.739 106.244,287.684 113.373,293.745 118.026 C 299.572 122.498,306.088 128.906,309.031 133.058 C 312.042 137.306,314.417 139.577,317.135 140.806 C 322.593 143.275,322.519 143.161,320.884 146.514 C 318.608 151.182,318.400 151.945,318.400 155.620 C 318.400 161.523,315.557 161.964,309.975 156.928 C 303.941 151.484,287.842 150.718,283.345 155.660 C 280.323 158.982,278.880 167.284,280.153 174.031 C 280.987 178.456,280.960 180.762,279.977 188.800 C 279.533 192.430,278.993 197.650,278.776 200.400 C 278.560 203.150,278.287 205.708,278.169 206.086 C 277.489 208.266,277.365 249.706,278.021 255.335 C 278.244 257.252,278.240 260.283,278.010 263.135 C 277.082 274.633,278.389 287.875,281.055 294.000 C 282.055 296.296,282.178 297.021,282.104 300.200 C 281.935 307.480,282.560 308.000,291.474 308.000 C 298.753 308.000,299.146 307.899,302.400 305.192 C 305.298 302.780,306.769 302.337,312.200 302.238 C 317.842 302.134,317.475 302.284,325.400 296.854 C 332.425 292.041,333.663 290.917,335.607 287.588 C 338.571 282.512,340.929 281.403,348.213 281.659 L 352.225 281.800 355.713 284.565 C 358.584 286.841,359.200 287.524,359.200 288.432 C 359.200 290.042,358.811 290.800,357.986 290.800 C 357.585 290.800,357.010 291.047,356.709 291.348 C 356.407 291.650,355.322 291.999,354.298 292.125 C 351.955 292.412,350.800 293.019,350.800 293.965 C 350.800 295.359,351.647 295.539,357.841 295.458 L 363.876 295.380 366.205 292.864 C 370.130 288.625,371.406 288.315,380.304 289.437 C 385.404 290.080,387.718 282.326,384.554 275.200 C 383.425 272.656,383.400 272.449,383.400 265.600 C 383.400 257.249,383.363 257.406,386.300 253.338 C 387.579 251.568,388.956 249.328,389.360 248.360 C 389.765 247.392,390.244 246.240,390.426 245.800 C 390.607 245.360,390.870 243.650,391.009 242.000 C 391.149 240.350,391.455 238.280,391.688 237.400 C 392.733 233.468,391.883 219.897,390.385 216.600 C 387.470 210.180,387.151 203.718,389.268 194.000 C 393.584 174.186,389.805 165.908,377.657 168.564 C 375.943 168.939,374.458 163.953,376.000 163.000 C 376.603 162.627,376.480 160.516,375.777 159.156 C 374.765 157.198,372.395 156.454,365.657 155.979 C 360.170 155.592,352.462 154.723,349.846 154.197 C 348.345 153.895,346.948 153.177,342.757 150.554 C 340.863 149.370,339.108 148.400,338.857 148.400 C 338.606 148.400,338.400 148.220,338.400 148.000 C 338.400 147.780,338.076 147.600,337.680 147.600 C 337.284 147.600,336.780 147.420,336.559 147.199 C 336.339 146.979,335.358 146.688,334.379 146.552 C 331.583 146.163,327.390 143.171,327.667 141.762 C 327.983 140.156,329.764 139.450,332.272 139.936 C 340.893 141.606,348.294 139.587,354.918 133.756 C 357.755 131.258,360.672 130.741,364.986 131.971 C 371.275 133.764,376.213 132.994,379.736 129.671 C 384.064 125.588,382.035 117.794,376.234 116.224 C 374.803 115.837,373.422 115.268,373.167 114.960 C 372.911 114.652,372.534 114.400,372.330 114.400 C 371.732 114.400,366.453 110.053,365.752 108.983 C 365.400 108.446,364.959 106.638,364.771 104.964 C 364.123 99.186,361.693 96.773,354.721 94.987 C 350.076 93.796,347.200 90.987,347.200 87.641 C 347.200 85.357,337.974 78.557,332.227 76.605 C 328.555 75.358,327.420 74.628,326.771 73.100 C 326.513 72.495,326.145 72.000,325.951 72.000 C 325.758 72.000,325.600 71.751,325.600 71.447 C 325.600 70.388,322.556 68.153,319.359 66.864 C 311.537 63.711,309.910 59.214,314.571 53.634 C 315.349 52.704,316.148 51.281,316.347 50.471 C 316.547 49.662,317.020 47.650,317.399 46.000 C 318.486 41.269,320.862 36.706,323.816 33.679 L 326.349 31.083 328.337 31.318 C 329.431 31.448,331.238 32.031,332.353 32.613 C 336.684 34.878,338.604 34.534,342.263 30.839 C 346.233 26.828,348.407 26.479,353.800 28.984 C 356.973 30.458,359.401 30.456,362.581 28.975 C 367.536 26.669,369.917 27.061,373.793 30.820 C 377.576 34.487,380.257 34.907,382.775 32.226 C 385.577 29.244,384.371 24.607,378.752 16.753 C 377.239 14.637,376.000 12.529,376.000 12.068 C 376.000 11.327,377.382 9.600,377.976 9.600 C 378.099 9.600,379.416 9.346,380.902 9.035 C 382.702 8.658,384.347 8.570,385.830 8.772 C 388.799 9.175,391.611 8.571,393.319 7.163 C 394.703 6.022,394.999 5.240,395.445 1.539 L 395.630 0.000 393.850 0.000 C 392.094 0.000,392.067 0.021,391.808 1.554 C 391.341 4.316,390.718 4.638,385.285 4.931 C 382.643 5.073,380.002 5.371,379.417 5.593 C 378.832 5.816,376.609 6.193,374.477 6.431 C 370.885 6.832,366.373 8.342,366.414 9.129 C 366.463 10.068,367.792 11.429,370.405 13.217 C 377.711 18.216,382.321 25.420,380.243 28.590 C 379.024 30.451,377.822 30.270,373.921 27.641 C 370.414 25.278,367.171 25.104,362.942 27.051 C 359.712 28.538,356.655 28.536,353.400 27.045 C 348.949 25.007,345.151 25.263,341.791 27.828 C 337.410 31.172,334.000 30.536,334.000 26.374 C 334.000 22.310,337.069 18.824,343.998 15.014 C 345.867 13.986,347.982 12.698,348.698 12.152 C 356.148 6.470,343.038 3.967,328.451 8.287 C 324.839 9.356,312.391 9.416,301.000 8.419 C 298.580 8.207,293.630 7.921,290.000 7.783 C 281.086 7.445,279.376 6.634,276.751 1.500 C 276.019 0.070,274.796 -0.559,274.804 0.500 M40.568 10.808 C 33.301 11.838,22.516 19.435,20.439 24.988 C 17.604 32.564,22.716 36.484,28.058 30.832 C 31.907 26.761,33.707 26.434,39.200 28.809 C 43.404 30.627,44.090 30.643,48.554 29.027 C 54.636 26.825,56.182 27.069,59.800 30.800 C 63.125 34.229,65.520 34.817,67.509 32.694 C 73.368 26.440,59.841 12.413,46.600 11.012 C 45.280 10.872,43.840 10.704,43.400 10.639 C 42.960 10.573,41.686 10.650,40.568 10.808 M340.800 11.557 C 340.800 11.753,340.076 12.203,339.192 12.557 C 336.301 13.713,334.721 13.131,337.300 11.859 C 338.711 11.163,340.800 10.983,340.800 11.557 M50.901 14.223 C 58.297 16.132,65.559 22.699,65.591 27.509 C 65.607 29.888,64.177 30.040,60.826 28.016 C 56.177 25.207,54.064 25.077,48.409 27.250 C 44.629 28.703,43.438 28.692,39.878 27.167 C 34.733 24.964,31.689 25.072,27.487 27.606 C 22.972 30.329,21.524 28.547,24.097 23.433 C 27.857 15.958,40.623 11.572,50.901 14.223 M302.974 25.753 C 305.107 26.860,305.775 28.702,304.538 30.069 C 303.831 30.850,302.800 31.054,302.800 30.413 C 302.800 30.199,302.528 30.130,302.195 30.257 C 301.862 30.385,301.322 30.267,300.995 29.996 C 300.668 29.724,300.400 29.608,300.400 29.738 C 300.400 29.867,299.770 29.343,299.000 28.573 C 297.417 26.990,297.438 27.048,298.057 26.057 C 298.631 25.138,301.453 24.963,302.974 25.753 M40.600 57.022 C 39.280 57.597,36.580 58.638,34.600 59.334 C 30.153 60.898,29.689 61.933,32.252 64.572 C 37.637 70.117,50.540 70.195,56.269 64.717 C 58.963 62.140,58.441 60.802,54.254 59.559 C 52.684 59.093,50.230 58.182,48.800 57.535 C 45.088 55.855,43.505 55.756,40.600 57.022 M354.600 57.046 C 353.280 57.610,350.940 58.515,349.400 59.056 C 344.523 60.768,344.054 61.213,345.035 63.200 C 348.505 70.229,365.337 71.101,370.752 64.531 C 373.154 61.618,372.709 60.796,368.000 59.440 C 366.130 58.902,363.430 57.907,362.000 57.231 C 358.853 55.742,357.715 55.713,354.600 57.046 M49.099 60.453 C 53.265 62.560,53.444 63.752,49.861 65.550 C 44.167 68.408,32.840 64.795,37.227 61.520 C 41.084 58.640,44.845 58.302,49.099 60.453 M361.643 59.742 C 369.116 62.816,367.447 66.572,358.600 66.591 C 350.933 66.608,347.515 63.292,352.551 60.723 C 356.752 58.580,358.389 58.403,361.643 59.742 M304.000 102.197 C 304.000 102.525,304.360 103.018,304.800 103.293 C 307.042 104.693,304.876 107.724,301.776 107.524 C 299.576 107.382,298.887 106.217,299.671 103.968 C 300.311 102.131,304.000 100.622,304.000 102.197 M375.600 143.631 C 375.600 145.058,377.250 146.216,378.404 145.598 C 379.953 144.769,378.929 142.785,376.880 142.643 C 375.735 142.563,375.600 142.668,375.600 143.631 M107.670 169.072 C 105.254 169.806,104.171 171.032,104.562 172.590 C 105.201 175.135,114.590 176.411,116.337 174.189 C 119.580 170.066,114.422 167.020,107.670 169.072 M114.195 183.177 C 109.149 185.225,106.836 195.600,111.426 195.600 C 111.706 195.600,112.471 195.907,113.126 196.283 C 115.231 197.491,116.067 196.708,117.114 192.549 C 118.884 185.520,117.710 181.751,114.195 183.177 M288.600 205.666 C 290.140 206.118,291.702 206.641,292.071 206.829 C 292.440 207.017,294.324 207.367,296.258 207.607 C 298.192 207.847,300.950 208.522,302.387 209.105 C 304.955 210.148,305.180 210.168,315.400 210.265 C 326.227 210.368,327.836 210.476,328.499 211.139 C 328.718 211.358,329.146 211.442,329.449 211.326 C 330.392 210.964,330.081 212.627,328.800 214.800 C 328.140 215.919,327.600 216.915,327.600 217.013 C 327.600 217.246,326.569 218.522,324.649 220.667 C 323.577 221.865,322.774 222.403,322.049 222.409 C 320.812 222.420,317.246 224.310,316.656 225.267 C 316.370 225.732,316.404 226.912,316.767 229.149 C 317.377 232.903,316.884 234.394,313.995 237.534 C 313.118 238.488,312.400 239.532,312.400 239.854 C 312.400 241.006,311.181 242.800,310.398 242.800 C 309.894 242.800,309.337 243.347,308.831 244.339 C 307.681 246.594,304.000 248.655,304.000 247.043 C 304.000 246.690,303.838 246.400,303.640 246.400 C 303.442 246.400,303.064 245.500,302.800 244.400 C 302.536 243.300,302.203 242.398,302.060 242.395 C 301.917 242.392,301.395 242.281,300.900 242.148 C 299.709 241.829,299.650 243.447,300.800 244.909 C 301.338 245.594,301.600 246.532,301.600 247.779 C 301.600 248.842,301.259 250.300,300.800 251.200 C 299.558 253.634,299.674 259.230,301.010 261.400 C 302.239 263.394,302.248 264.245,301.062 266.007 C 300.546 266.773,300.013 267.856,299.876 268.414 C 299.740 268.971,298.812 270.280,297.814 271.321 C 296.743 272.439,296.000 273.589,296.000 274.129 C 296.000 274.632,295.460 275.895,294.800 276.936 C 294.140 277.976,293.600 278.990,293.600 279.187 C 293.600 279.385,293.119 279.604,292.532 279.673 C 291.669 279.776,291.343 280.145,290.832 281.600 C 289.548 285.257,287.688 286.180,284.722 284.633 C 284.002 284.257,283.596 284.212,283.500 284.499 C 282.312 288.064,279.952 269.097,281.000 264.400 C 282.131 259.326,282.163 258.023,281.227 254.995 C 280.311 252.027,280.095 240.582,280.529 218.000 C 280.780 204.983,281.666 203.629,288.600 205.666 M342.712 209.994 C 345.583 210.757,346.080 211.112,348.287 213.969 C 349.449 215.473,348.924 218.288,347.430 218.568 C 346.676 218.709,345.641 219.266,345.130 219.806 C 343.237 221.802,338.247 220.305,335.375 216.879 C 334.509 215.846,333.125 214.353,332.300 213.561 C 329.930 211.289,330.215 210.507,333.500 210.274 C 334.985 210.169,336.920 209.905,337.800 209.687 C 338.680 209.470,339.490 209.276,339.600 209.255 C 339.710 209.235,341.111 209.567,342.712 209.994 M111.693 222.172 C 106.892 223.118,106.787 226.023,111.481 228.035 C 114.660 229.397,116.198 228.755,116.666 225.871 C 117.033 223.606,115.573 221.015,114.281 221.639 C 114.237 221.661,113.072 221.901,111.693 222.172 M351.200 251.744 C 357.275 253.459,357.550 255.644,351.717 255.851 C 349.783 255.919,347.030 256.303,345.600 256.703 C 342.173 257.663,341.200 257.503,341.200 255.975 C 341.200 253.709,343.332 252.037,346.790 251.590 C 348.006 251.433,349.090 251.289,349.200 251.270 C 349.310 251.251,350.210 251.464,351.200 251.744 M112.564 278.200 C 112.218 279.578,112.692 281.213,113.688 282.076 C 115.110 283.310,116.000 282.634,116.000 280.320 C 116.000 277.696,113.135 275.928,112.564 278.200 M299.757 295.433 C 300.541 297.476,299.013 300.066,296.708 300.599 C 292.042 301.678,288.400 301.059,288.400 299.187 C 288.400 297.345,299.130 293.798,299.757 295.433 M356.200 313.642 C 348.071 314.397,343.198 316.651,336.859 322.589 C 331.049 328.030,331.835 336.909,338.126 336.909 C 339.557 336.909,339.963 336.650,342.244 334.290 C 346.089 330.310,347.589 330.058,353.605 332.378 C 357.657 333.940,358.579 333.919,363.259 332.153 C 368.605 330.136,369.861 330.333,373.522 333.769 C 377.489 337.492,378.650 337.898,381.084 336.414 C 388.990 331.594,379.264 316.491,366.514 313.789 C 363.552 313.161,361.669 313.135,356.200 313.642 M40.000 314.250 C 26.372 316.915,16.002 326.983,19.434 334.216 C 21.205 337.947,24.979 337.949,28.165 334.220 C 31.417 330.414,33.185 330.085,39.028 332.200 C 41.155 332.970,43.508 333.600,44.256 333.600 C 45.005 333.600,47.229 332.970,49.200 332.200 C 54.566 330.103,56.068 330.402,60.222 334.391 C 63.702 337.732,66.224 337.980,69.128 335.267 C 74.641 330.118,66.173 318.016,54.931 314.976 C 52.625 314.352,42.094 313.840,40.000 314.250 M366.080 316.452 C 374.304 318.206,382.028 326.122,380.549 331.279 C 379.827 333.798,378.269 333.684,373.652 330.774 C 370.496 328.786,367.282 328.660,363.039 330.359 C 359.158 331.913,357.607 331.913,353.077 330.358 C 348.119 328.656,345.437 328.798,342.220 330.934 C 337.351 334.167,334.731 332.645,336.622 327.683 C 339.696 319.615,354.482 313.978,366.080 316.452 M52.690 317.031 C 58.576 318.247,63.749 322.032,66.173 326.896 C 68.656 331.879,65.822 335.012,61.598 331.953 C 57.321 328.854,54.376 328.487,49.135 330.400 C 47.327 331.060,45.100 331.600,44.187 331.600 C 43.275 331.600,40.970 331.060,39.065 330.400 C 33.687 328.537,30.903 328.837,26.644 331.740 C 22.803 334.358,20.728 330.661,23.604 326.320 C 28.924 318.287,40.647 314.544,52.690 317.031 M40.400 360.481 C 39.410 360.934,36.890 361.964,34.800 362.769 C 30.084 364.585,29.623 365.623,32.330 368.330 C 37.508 373.508,50.319 373.632,55.961 368.559 C 59.276 365.579,58.842 364.445,53.764 362.814 C 51.804 362.185,49.120 361.208,47.800 360.644 C 44.927 359.417,42.825 359.370,40.400 360.481 M351.600 361.640 C 344.514 364.444,344.286 364.623,345.245 366.613 C 348.007 372.341,362.304 374.039,369.115 369.449 C 373.405 366.559,373.157 364.331,368.394 362.968 C 366.747 362.496,364.020 361.546,362.333 360.855 C 358.351 359.225,357.554 359.283,351.600 361.640 M49.600 364.286 C 55.171 367.098,51.492 370.334,43.200 369.915 C 34.268 369.464,33.684 365.933,42.000 362.654 C 43.382 362.109,46.699 362.821,49.600 364.286 M363.600 364.310 C 369.094 367.039,366.596 369.779,358.600 369.793 C 349.946 369.808,347.462 366.187,354.200 363.379 C 357.319 362.079,359.555 362.300,363.600 364.310 " stroke="none" fill="#b4b4b4" fill-rule="evenodd"></path><path id="path5" d="M13.200 0.186 C 13.200 1.766,26.345 2.389,35.560 1.246 C 43.262 0.290,41.643 0.051,27.300 0.025 C 19.545 0.011,13.200 0.084,13.200 0.186 M45.704 0.238 C 46.020 0.553,55.573 0.560,55.888 0.245 C 56.023 0.110,53.733 -0.000,50.800 -0.000 C 47.867 -0.000,45.574 0.107,45.704 0.238 M61.820 0.344 C 63.114 1.516,67.786 2.087,69.606 1.295 C 71.401 0.514,71.425 0.514,73.806 1.300 C 77.622 2.559,84.346 2.747,86.213 1.645 C 87.553 0.855,87.790 0.832,89.332 1.342 C 90.596 1.760,92.793 1.852,98.400 1.720 C 109.453 1.460,110.494 1.448,111.800 1.565 C 113.834 1.746,119.561 0.999,120.074 0.486 C 120.455 0.105,114.189 0.000,91.000 0.000 C 74.467 0.000,61.607 0.152,61.820 0.344 M276.751 1.500 C 279.376 6.634,281.086 7.445,290.000 7.783 C 293.630 7.921,298.580 8.207,301.000 8.419 C 312.391 9.416,324.839 9.356,328.451 8.287 C 343.038 3.967,356.148 6.470,348.698 12.152 C 347.982 12.698,345.867 13.986,343.998 15.014 C 337.069 18.824,334.000 22.310,334.000 26.374 C 334.000 30.536,337.410 31.172,341.791 27.828 C 345.151 25.263,348.949 25.007,353.400 27.045 C 356.655 28.536,359.712 28.538,362.942 27.051 C 367.171 25.104,370.414 25.278,373.921 27.641 C 377.822 30.270,379.024 30.451,380.243 28.590 C 382.321 25.420,377.711 18.216,370.405 13.217 C 367.792 11.429,366.463 10.068,366.414 9.129 C 366.373 8.342,370.885 6.832,374.477 6.431 C 376.609 6.193,378.810 5.824,379.368 5.612 C 379.926 5.400,382.322 5.119,384.691 4.988 C 391.088 4.635,391.233 4.563,391.817 1.449 C 392.137 -0.254,390.906 -0.694,390.195 0.868 C 389.692 1.975,387.459 2.734,384.067 2.952 C 382.600 3.046,380.590 3.307,379.600 3.532 C 378.610 3.757,376.035 4.049,373.878 4.181 C 371.721 4.313,368.751 4.689,367.278 5.016 C 359.720 6.695,357.384 6.716,351.790 5.159 C 347.439 3.947,332.991 3.881,328.800 5.054 C 325.212 6.059,289.137 5.987,282.491 4.962 C 280.997 4.732,278.640 2.824,277.769 1.141 C 277.445 0.513,276.910 -0.000,276.582 -0.000 C 276.081 -0.000,276.109 0.245,276.751 1.500 M362.145 11.986 C 370.388 14.094,377.999 20.153,377.990 24.600 C 377.985 27.005,377.586 27.124,373.915 25.813 C 369.664 24.294,367.348 24.326,362.732 25.967 C 358.423 27.499,357.761 27.498,353.577 25.954 C 348.910 24.231,346.076 24.226,341.872 25.930 C 337.174 27.835,335.782 26.633,337.864 22.471 C 339.240 19.720,341.239 18.133,347.279 14.995 C 354.942 11.013,356.840 10.629,362.145 11.986 M38.092 13.978 C 28.896 16.475,20.087 25.229,23.418 28.561 C 24.307 29.450,24.506 29.403,27.487 27.606 C 31.689 25.072,34.733 24.964,39.878 27.167 C 43.438 28.692,44.629 28.703,48.409 27.250 C 54.064 25.077,56.177 25.207,60.826 28.016 C 67.025 31.761,67.511 26.204,61.505 20.255 C 55.726 14.531,45.829 11.878,38.092 13.978 M51.200 15.436 C 54.546 16.430,57.117 17.876,59.434 20.068 C 63.664 24.068,63.735 26.593,59.583 25.355 C 56.176 24.340,53.142 24.511,49.014 25.950 C 44.537 27.512,43.918 27.502,39.000 25.795 C 34.863 24.359,32.334 24.099,28.928 24.759 C 22.881 25.929,27.954 19.114,35.375 16.098 C 39.875 14.269,46.360 13.997,51.200 15.436 M40.602 59.783 C 36.085 61.681,35.364 62.625,37.104 64.366 C 40.221 67.482,50.207 67.174,52.175 63.900 C 53.888 61.052,45.058 57.911,40.602 59.783 M355.578 59.380 C 349.541 61.604,348.595 63.644,352.671 65.650 C 358.798 68.667,369.996 65.015,365.165 61.575 C 361.843 59.209,358.265 58.390,355.578 59.380 M46.711 62.223 C 47.200 62.565,47.586 63.150,47.568 63.523 C 47.549 63.933,47.458 64.005,47.336 63.704 C 47.184 63.327,46.991 63.352,46.539 63.804 C 45.713 64.629,43.229 64.546,41.864 63.646 L 40.727 62.896 41.653 62.248 C 42.827 61.425,45.553 61.412,46.711 62.223 M360.730 62.236 L 361.639 62.873 360.758 63.636 C 359.593 64.647,357.037 64.644,355.750 63.632 L 354.773 62.864 355.676 62.232 C 356.838 61.418,359.565 61.420,360.730 62.236 M301.142 102.207 C 298.423 103.684,298.858 107.336,301.776 107.524 C 304.876 107.724,307.042 104.693,304.800 103.293 C 304.360 103.018,304.000 102.525,304.000 102.197 C 304.000 101.438,302.547 101.443,301.142 102.207 M282.589 205.615 C 280.586 207.820,280.360 211.250,280.367 239.409 C 280.369 251.371,280.426 252.401,281.227 254.995 C 282.163 258.023,282.131 259.326,281.000 264.400 C 279.952 269.097,282.312 288.064,283.500 284.499 C 283.596 284.212,284.002 284.257,284.722 284.633 C 287.688 286.180,289.548 285.257,290.832 281.600 C 291.343 280.145,291.669 279.776,292.532 279.673 C 293.119 279.604,293.600 279.385,293.600 279.187 C 293.600 278.990,294.140 277.976,294.800 276.936 C 295.460 275.895,296.000 274.632,296.000 274.129 C 296.000 273.589,296.743 272.439,297.814 271.321 C 298.812 270.280,299.740 268.971,299.876 268.414 C 300.013 267.856,300.546 266.773,301.062 266.007 C 302.248 264.245,302.239 263.394,301.010 261.400 C 299.674 259.230,299.558 253.634,300.800 251.200 C 301.259 250.300,301.600 248.842,301.600 247.779 C 301.600 246.532,301.338 245.594,300.800 244.909 C 299.650 243.447,299.709 241.829,300.900 242.148 C 301.395 242.281,301.917 242.392,302.060 242.395 C 302.203 242.398,302.536 243.300,302.800 244.400 C 303.064 245.500,303.442 246.400,303.640 246.400 C 303.838 246.400,304.000 246.690,304.000 247.043 C 304.000 248.655,307.681 246.594,308.831 244.339 C 309.337 243.347,309.894 242.800,310.398 242.800 C 311.181 242.800,312.400 241.006,312.400 239.854 C 312.400 239.532,313.118 238.488,313.995 237.534 C 316.884 234.394,317.377 232.903,316.767 229.149 C 316.404 226.912,316.370 225.732,316.656 225.267 C 317.246 224.310,320.812 222.420,322.049 222.409 C 322.774 222.403,323.577 221.865,324.649 220.667 C 326.569 218.522,327.600 217.246,327.600 217.013 C 327.600 216.915,328.140 215.919,328.800 214.800 C 330.081 212.627,330.392 210.964,329.449 211.326 C 329.146 211.442,328.718 211.358,328.499 211.139 C 327.836 210.476,326.227 210.368,315.400 210.265 C 305.180 210.168,304.955 210.148,302.387 209.105 C 300.950 208.522,298.192 207.847,296.258 207.607 C 294.324 207.367,292.440 207.017,292.071 206.829 C 288.822 205.176,283.594 204.507,282.589 205.615 M337.800 209.687 C 336.920 209.905,334.985 210.169,333.500 210.274 C 330.215 210.507,329.930 211.289,332.300 213.561 C 333.125 214.353,334.509 215.846,335.375 216.879 C 338.247 220.305,343.237 221.802,345.130 219.806 C 345.641 219.266,346.676 218.709,347.430 218.568 C 348.759 218.319,348.800 218.255,348.787 216.455 C 348.774 214.582,348.676 214.374,346.712 212.053 C 345.780 210.952,340.875 209.022,339.600 209.255 C 339.490 209.276,338.680 209.470,337.800 209.687 M286.000 228.776 C 286.000 229.203,285.820 229.664,285.600 229.800 C 285.373 229.940,285.200 229.604,285.200 229.024 C 285.200 228.461,285.380 228.000,285.600 228.000 C 285.820 228.000,286.000 228.349,286.000 228.776 M352.939 316.438 C 342.836 318.126,332.953 328.153,337.203 332.403 C 338.151 333.351,338.920 333.125,342.220 330.934 C 345.437 328.798,348.119 328.656,353.077 330.358 C 357.607 331.913,359.158 331.913,363.039 330.359 C 367.282 328.660,370.496 328.786,373.652 330.774 C 378.269 333.684,379.827 333.798,380.549 331.279 C 381.692 327.293,376.617 320.615,370.341 317.848 C 366.283 316.059,358.825 315.454,352.939 316.438 M38.596 316.807 C 28.866 318.741,20.185 327.113,22.814 332.026 C 23.388 333.099,24.806 332.993,26.644 331.740 C 30.903 328.837,33.687 328.537,39.065 330.400 C 40.970 331.060,43.275 331.600,44.187 331.600 C 45.100 331.600,47.327 331.060,49.135 330.400 C 54.376 328.487,57.321 328.854,61.598 331.953 C 65.822 335.012,68.656 331.879,66.173 326.896 C 62.143 318.809,50.306 314.478,38.596 316.807 M367.635 318.316 C 372.328 319.988,375.365 322.373,377.059 325.717 C 378.918 329.386,377.758 330.335,373.264 328.822 C 369.766 327.643,367.501 327.769,362.573 329.418 L 358.335 330.836 353.496 329.418 C 347.930 327.787,346.445 327.700,342.641 328.788 C 338.731 329.907,338.114 328.976,340.439 325.466 C 345.063 318.486,358.328 314.998,367.635 318.316 M54.165 318.787 C 59.798 320.591,65.013 325.902,64.227 329.034 C 63.922 330.250,63.307 330.246,59.800 329.007 C 56.063 327.686,53.868 327.735,49.492 329.237 C 45.025 330.771,43.445 330.803,39.407 329.443 C 35.123 328.001,32.438 327.771,29.075 328.561 C 25.626 329.370,25.790 329.390,25.686 328.136 C 25.070 320.686,42.368 315.007,54.165 318.787 M42.000 362.654 C 35.565 365.191,34.455 366.976,38.129 368.878 C 42.572 371.178,52.600 369.588,52.600 366.584 C 52.600 364.852,44.264 361.762,42.000 362.654 M354.200 363.379 C 347.462 366.187,349.946 369.808,358.600 369.793 C 366.596 369.779,369.094 367.039,363.600 364.310 C 359.555 362.300,357.319 362.079,354.200 363.379 M46.425 366.230 C 47.163 367.119,46.307 367.586,43.924 367.594 C 41.991 367.600,41.364 367.192,41.752 366.181 C 42.071 365.350,45.727 365.389,46.425 366.230 M360.167 365.843 C 360.515 365.976,360.800 366.317,360.800 366.600 C 360.800 367.658,356.869 368.048,356.058 367.070 C 355.121 365.941,358.102 365.050,360.167 365.843 " stroke="none" fill="#b4bcb4" fill-rule="evenodd"></path><path id="path6" d="M126.867 2.894 C 126.593 4.490,125.806 7.416,125.117 9.398 C 123.523 13.982,123.208 19.801,124.163 26.983 C 124.921 32.672,124.955 35.641,124.340 42.124 C 123.961 46.112,123.995 48.540,124.533 55.787 C 124.986 61.883,125.319 74.775,125.614 97.600 C 125.848 115.750,126.217 133.300,126.433 136.600 C 126.714 140.905,126.688 144.474,126.340 149.233 C 125.920 154.979,125.947 156.849,126.540 163.233 C 127.403 172.522,126.994 295.316,126.043 312.600 C 125.812 316.780,125.446 328.840,125.228 339.400 C 125.011 349.960,124.648 360.040,124.422 361.800 C 124.196 363.560,123.824 367.507,123.595 370.571 C 122.103 390.559,120.927 392.349,108.752 393.167 C 105.148 393.410,99.590 393.870,96.400 394.191 C 85.827 395.254,66.819 396.124,60.868 395.818 C 57.269 395.632,53.702 395.703,50.754 396.018 C 47.084 396.410,45.307 396.401,41.600 395.974 C 36.992 395.444,35.704 395.416,26.400 395.646 C 13.692 395.961,7.029 391.294,4.605 380.383 C 3.598 375.849,3.219 349.795,3.389 296.800 C 3.469 271.830,3.505 250.140,3.468 248.600 C 3.219 238.278,3.702 175.621,4.049 173.200 C 4.096 172.870,3.910 170.355,3.636 167.611 C 2.995 161.213,3.397 126.981,4.197 119.760 C 4.614 115.997,4.635 114.221,4.290 111.945 C 3.761 108.450,3.694 104.839,4.087 101.000 C 4.244 99.460,4.205 95.770,4.000 92.800 C 3.279 82.379,3.192 61.448,3.849 56.400 C 4.249 53.319,4.407 49.290,4.327 44.200 C 4.261 40.020,4.314 32.370,4.445 27.200 C 4.701 17.059,4.552 15.855,2.551 11.905 C 1.750 10.323,1.634 9.655,1.845 7.859 C 2.123 5.494,1.520 3.008,0.581 2.648 C -0.112 2.382,-0.124 2.538,0.434 4.548 C 0.741 5.654,0.741 6.219,0.432 6.528 C -0.306 7.266,-0.106 13.067,0.700 14.297 C 1.345 15.282,1.394 16.864,1.319 34.383 C 1.274 44.842,1.258 62.220,1.282 73.000 C 1.333 95.317,1.326 103.712,1.210 165.800 C 1.163 190.440,0.974 215.640,0.789 221.800 C 0.585 228.600,0.607 236.457,0.845 241.800 C 1.081 247.076,1.111 256.197,0.919 264.579 C 0.744 272.270,0.763 284.774,0.963 292.379 C 1.229 302.529,1.195 307.951,0.836 312.791 C 0.284 320.235,0.889 370.051,1.622 377.461 C 2.005 381.336,4.106 388.103,5.133 388.770 C 5.329 388.896,5.765 389.540,6.104 390.200 C 9.064 395.971,17.921 398.763,29.931 397.712 C 33.971 397.359,35.726 397.379,38.579 397.814 C 44.830 398.766,48.010 398.889,51.600 398.319 C 54.956 397.786,56.343 397.832,64.400 398.745 C 66.172 398.946,67.807 398.934,68.395 398.717 C 69.864 398.172,85.351 397.102,88.600 397.321 C 90.140 397.424,92.480 397.352,93.800 397.159 C 99.352 396.349,103.790 395.938,110.200 395.640 C 122.713 395.058,124.111 392.640,125.603 369.000 C 125.826 365.480,126.091 361.970,126.194 361.200 C 126.296 360.430,126.482 351.970,126.607 342.400 C 126.732 332.830,127.025 322.840,127.259 320.200 C 127.711 315.084,127.879 297.537,128.232 218.400 C 128.397 181.327,128.332 167.373,127.977 163.800 C 127.714 161.160,127.556 156.660,127.625 153.800 C 127.877 143.349,127.537 108.068,126.993 88.200 C 126.464 68.901,126.221 54.881,126.198 42.400 C 126.185 35.030,126.022 25.670,125.836 21.600 C 125.508 14.446,125.531 14.060,126.512 10.000 C 127.764 4.819,128.196 1.479,127.723 0.635 C 127.464 0.170,127.226 0.796,126.867 2.894 M181.552 0.752 C 184.793 3.993,201.349 4.831,213.400 2.365 C 214.500 2.140,215.996 1.855,216.724 1.731 C 217.453 1.608,218.713 1.175,219.524 0.769 C 220.978 0.043,220.704 0.032,200.900 0.016 C 181.229 0.000,180.816 0.016,181.552 0.752 M269.600 1.823 C 269.600 2.826,269.992 5.481,270.472 7.723 C 271.483 12.453,271.451 10.193,271.203 58.200 C 271.092 79.580,271.208 96.406,271.534 106.525 C 271.919 118.482,271.927 123.189,271.568 127.006 C 271.132 131.643,271.178 134.869,271.840 146.260 C 272.003 149.053,271.903 152.492,271.575 155.460 C 271.283 158.096,271.018 165.526,270.977 172.200 C 270.937 178.800,270.695 195.720,270.439 209.800 C 269.978 235.208,270.351 282.392,271.188 304.400 C 271.368 309.130,271.533 318.760,271.555 325.800 C 271.592 337.909,271.814 343.062,272.863 356.200 C 273.109 359.280,273.425 367.110,273.566 373.600 C 273.987 393.018,275.535 394.552,292.475 392.353 C 298.229 391.606,299.921 391.545,306.800 391.837 C 315.805 392.219,321.796 392.137,322.764 391.619 C 325.209 390.311,345.278 389.858,350.600 390.991 C 356.522 392.253,363.391 393.223,364.600 392.969 C 365.260 392.831,370.570 392.598,376.400 392.451 C 389.659 392.118,392.243 391.168,396.849 384.934 C 397.691 383.793,398.745 382.744,399.190 382.603 C 399.988 382.350,400.000 382.073,399.986 364.073 L 399.971 345.800 398.988 347.000 C 397.925 348.296,397.597 351.437,398.436 352.276 C 398.919 352.759,398.752 355.965,397.993 360.800 C 397.630 363.115,397.633 364.764,398.005 368.020 C 399.594 381.937,392.016 391.104,380.000 389.802 C 378.570 389.647,373.440 389.392,368.600 389.234 C 357.071 388.860,355.934 388.365,356.108 383.800 L 356.200 381.400 354.400 380.508 C 353.410 380.018,350.493 379.082,347.918 378.428 C 342.346 377.013,341.287 376.506,338.593 373.958 C 336.450 371.931,334.738 371.299,334.497 372.447 C 334.294 373.419,336.264 375.517,338.395 376.598 C 341.067 377.951,342.544 379.301,343.378 381.150 C 345.209 385.211,342.475 386.569,331.200 387.197 C 326.974 387.433,324.423 387.797,321.800 388.538 C 317.048 389.881,313.885 390.144,308.800 389.618 C 299.220 388.627,297.783 388.640,290.800 389.789 C 281.017 391.399,278.668 390.855,276.519 386.479 L 275.400 384.200 275.359 374.200 C 275.336 368.459,275.111 362.922,274.831 361.200 C 274.133 356.908,273.688 348.146,273.215 329.400 C 272.987 320.380,272.608 307.780,272.373 301.400 C 271.605 280.618,271.255 234.684,271.689 211.600 C 271.914 199.610,272.148 183.320,272.209 175.400 C 272.270 167.480,272.520 159.290,272.763 157.200 C 273.682 149.315,273.710 147.493,272.994 142.200 C 272.424 137.993,272.358 136.046,272.645 132.000 C 273.077 125.918,272.921 97.363,272.409 88.800 C 272.179 84.955,272.183 78.832,272.418 72.681 C 272.661 66.347,272.658 61.216,272.412 58.481 C 272.157 55.658,272.178 47.320,272.473 34.000 C 272.915 14.035,272.911 13.748,272.060 9.363 C 271.587 6.923,271.200 3.818,271.200 2.463 C 271.200 0.267,271.113 0.000,270.400 0.000 C 269.717 0.000,269.600 0.267,269.600 1.823 M355.742 37.877 C 354.408 38.138,353.643 39.263,353.194 41.628 C 352.354 46.053,353.139 46.800,358.626 46.800 C 363.094 46.800,363.817 46.203,363.400 42.859 C 362.828 38.283,360.710 36.905,355.742 37.877 M40.435 38.700 C 38.650 40.164,38.524 45.564,40.256 46.353 C 41.491 46.915,47.392 46.939,48.426 46.386 C 50.033 45.526,49.141 39.439,47.260 38.432 C 45.917 37.714,41.423 37.890,40.435 38.700 M188.138 185.163 C 186.505 186.171,186.216 187.579,186.980 190.820 C 188.014 195.207,187.535 202.143,186.161 202.670 C 185.852 202.789,185.600 203.281,185.600 203.765 C 185.600 204.249,185.131 205.265,184.558 206.022 L 183.516 207.400 183.762 214.405 C 183.960 220.038,183.900 221.566,183.453 222.205 C 182.921 222.967,182.310 227.542,181.771 234.800 C 181.632 236.670,181.370 239.010,181.189 240.000 C 180.491 243.809,181.776 247.822,185.456 253.319 C 188.539 257.925,188.598 258.695,186.246 263.600 C 184.795 266.627,184.641 269.471,185.771 272.400 C 186.152 273.390,186.783 275.489,187.173 277.064 C 188.271 281.509,189.502 283.091,194.358 286.302 C 199.339 289.595,199.650 289.530,200.338 285.061 C 200.569 283.554,201.038 281.896,201.380 281.375 C 201.721 280.854,202.000 280.209,202.000 279.942 C 202.000 279.674,202.879 278.183,203.954 276.628 C 207.063 272.130,207.504 268.403,205.854 260.562 L 205.172 257.324 206.208 253.562 C 207.785 247.831,208.084 245.413,207.832 240.400 C 207.585 235.488,208.066 231.212,209.018 229.853 C 210.382 227.905,209.398 222.150,206.444 214.800 C 205.604 212.710,204.679 210.280,204.388 209.400 C 203.761 207.502,203.746 201.871,204.364 200.274 C 205.090 198.398,204.904 194.166,204.022 192.484 C 201.399 187.483,191.655 182.992,188.138 185.163 M40.451 342.288 C 38.092 344.647,38.256 349.300,40.723 349.985 C 47.012 351.732,50.188 349.978,49.244 345.279 C 48.425 341.198,43.288 339.450,40.451 342.288 M355.200 341.718 C 353.230 342.714,352.013 348.067,353.406 349.607 C 354.404 350.710,361.943 350.799,363.022 349.721 C 364.424 348.319,363.210 342.497,361.337 341.644 C 360.028 341.048,356.439 341.091,355.200 341.718 " stroke="none" fill="#494947" fill-rule="evenodd"></path><path id="path7" d="M176.807 0.814 C 177.047 1.262,178.628 2.277,180.322 3.070 C 182.015 3.864,183.709 4.665,184.087 4.852 C 190.087 7.811,210.625 6.909,221.363 3.213 C 222.662 2.766,223.991 2.400,224.316 2.400 C 224.641 2.400,225.333 1.905,225.854 1.300 L 226.802 0.200 224.032 0.083 C 221.950 -0.005,220.834 0.160,219.532 0.749 C 218.579 1.180,217.260 1.629,216.600 1.748 C 215.940 1.867,214.500 2.146,213.400 2.369 C 201.257 4.828,184.792 3.992,181.552 0.752 C 180.389 -0.411,176.181 -0.356,176.807 0.814 M268.800 1.823 C 268.800 2.826,269.196 5.481,269.679 7.723 C 270.690 12.407,270.643 9.117,270.405 58.400 C 270.301 79.845,270.420 96.722,270.745 106.600 C 271.135 118.431,271.141 122.939,270.771 126.938 C 270.325 131.765,270.392 136.450,271.044 146.074 C 271.200 148.386,271.097 152.014,270.788 155.074 C 270.504 157.893,270.233 165.510,270.188 172.000 C 270.143 178.490,269.870 194.600,269.582 207.800 C 268.958 236.351,269.296 276.990,270.390 305.000 C 270.579 309.840,270.746 319.470,270.761 326.400 C 270.788 338.657,271.112 346.298,272.096 357.800 C 272.359 360.880,272.599 368.080,272.628 373.800 C 272.691 386.325,273.436 389.371,277.210 392.547 C 279.516 394.487,287.572 394.971,294.786 393.603 C 298.935 392.816,304.569 392.682,311.477 393.206 C 316.926 393.619,319.187 393.634,321.733 393.273 C 323.530 393.018,328.752 392.597,333.337 392.339 C 341.729 391.865,342.347 391.896,350.200 393.183 C 357.725 394.416,362.839 394.873,366.200 394.613 C 368.180 394.459,373.580 394.200,378.200 394.037 C 389.246 393.646,393.813 391.772,397.275 386.210 C 397.872 385.251,398.729 384.349,399.180 384.206 C 400.035 383.935,400.344 382.400,399.543 382.400 C 399.292 382.400,398.527 383.058,397.843 383.863 C 394.805 387.439,392.076 389.789,389.600 390.962 L 387.000 392.194 376.400 392.456 C 370.570 392.600,365.260 392.831,364.600 392.969 C 363.391 393.223,356.522 392.253,350.600 390.991 C 345.278 389.858,325.209 390.311,322.764 391.619 C 321.796 392.137,315.805 392.219,306.800 391.837 C 299.921 391.545,298.229 391.606,292.475 392.353 C 275.535 394.552,273.987 393.018,273.566 373.600 C 273.425 367.110,273.109 359.280,272.863 356.200 C 271.814 343.062,271.592 337.909,271.555 325.800 C 271.533 318.760,271.368 309.130,271.188 304.400 C 270.351 282.392,269.978 235.208,270.439 209.800 C 270.695 195.720,270.937 178.800,270.977 172.200 C 271.018 165.526,271.283 158.096,271.575 155.460 C 271.903 152.492,272.003 149.053,271.840 146.260 C 271.178 134.869,271.132 131.643,271.568 127.006 C 271.927 123.189,271.919 118.482,271.534 106.525 C 271.208 96.406,271.092 79.580,271.203 58.200 C 271.451 10.193,271.483 12.453,270.472 7.723 C 269.992 5.481,269.600 2.826,269.600 1.823 C 269.600 0.820,269.420 0.000,269.200 0.000 C 268.980 0.000,268.800 0.820,268.800 1.823 M127.863 3.400 C 127.678 4.720,127.070 7.690,126.512 10.000 C 125.531 14.060,125.508 14.446,125.836 21.600 C 126.022 25.670,126.185 35.030,126.198 42.400 C 126.221 54.881,126.464 68.901,126.993 88.200 C 127.537 108.068,127.877 143.349,127.625 153.800 C 127.556 156.660,127.714 161.160,127.977 163.800 C 128.332 167.373,128.397 181.327,128.232 218.400 C 127.879 297.537,127.711 315.084,127.259 320.200 C 127.025 322.840,126.732 332.830,126.607 342.400 C 126.482 351.970,126.296 360.430,126.194 361.200 C 126.091 361.970,125.826 365.480,125.603 369.000 C 124.111 392.640,122.713 395.058,110.200 395.640 C 103.790 395.938,99.352 396.349,93.800 397.159 C 92.480 397.352,90.140 397.424,88.600 397.321 C 85.351 397.102,69.864 398.172,68.395 398.717 C 67.807 398.934,66.172 398.946,64.400 398.745 C 56.343 397.832,54.956 397.786,51.600 398.319 C 48.010 398.889,44.830 398.766,38.579 397.814 C 35.726 397.379,33.971 397.359,29.931 397.712 C 17.921 398.763,9.064 395.971,6.104 390.200 C 5.765 389.540,5.329 388.896,5.133 388.770 C 4.106 388.103,2.005 381.336,1.622 377.461 C 0.889 370.051,0.284 320.235,0.836 312.791 C 1.195 307.951,1.229 302.529,0.963 292.379 C 0.763 284.774,0.744 272.270,0.919 264.579 C 1.111 256.197,1.081 247.076,0.845 241.800 C 0.607 236.457,0.585 228.600,0.789 221.800 C 0.974 215.640,1.163 190.440,1.210 165.800 C 1.326 103.712,1.333 95.317,1.282 73.000 C 1.258 62.220,1.274 44.850,1.319 34.400 C 1.388 18.122,1.314 15.257,0.800 14.400 C 0.266 13.510,0.189 33.673,0.100 197.723 L -0.001 382.046 1.156 383.523 C 1.792 384.335,2.537 385.720,2.812 386.600 C 3.086 387.480,3.609 388.650,3.972 389.200 C 4.336 389.750,4.982 390.875,5.408 391.700 C 5.834 392.525,6.303 393.200,6.452 393.200 C 6.600 393.200,7.096 393.785,7.554 394.500 C 8.012 395.215,8.390 395.625,8.393 395.411 C 8.397 395.197,8.681 395.423,9.024 395.913 C 10.180 397.563,12.163 398.176,17.732 398.606 C 18.795 398.688,19.948 398.991,20.295 399.278 C 21.235 400.056,28.747 399.921,32.065 399.067 C 34.589 398.417,34.823 398.417,36.465 399.074 C 39.144 400.144,73.559 400.323,79.650 399.297 C 82.621 398.797,84.489 398.687,86.203 398.913 C 89.207 399.310,91.919 399.118,95.000 398.293 C 97.568 397.604,107.349 396.800,113.148 396.800 C 124.943 396.800,126.595 390.253,127.626 339.400 C 127.845 328.620,128.203 314.940,128.422 309.000 C 128.641 303.060,128.795 291.540,128.765 283.400 C 128.735 275.260,128.831 246.280,128.979 219.000 C 129.177 182.489,129.125 168.081,128.782 164.400 C 128.525 161.650,128.370 156.880,128.437 153.800 C 128.706 141.413,128.449 119.721,127.518 76.000 C 127.271 64.450,126.997 47.530,126.908 38.400 C 126.818 29.270,126.724 19.820,126.699 17.400 C 126.665 14.232,126.903 11.798,127.549 8.708 C 128.043 6.348,128.391 3.648,128.323 2.708 C 128.201 1.033,128.193 1.046,127.863 3.400 M0.036 5.180 C 0.011 6.438,0.125 6.835,0.426 6.534 C 0.715 6.245,0.727 5.677,0.462 4.754 L 0.072 3.400 0.036 5.180 M191.216 168.075 C 190.767 168.557,190.400 169.156,190.400 169.408 C 190.400 169.659,189.950 170.106,189.400 170.400 C 188.850 170.694,188.400 171.085,188.400 171.267 C 188.400 171.833,184.323 175.766,181.805 177.629 C 178.452 180.110,177.200 181.252,177.200 181.833 C 177.200 182.108,176.999 182.400,176.754 182.482 C 175.863 182.779,175.582 186.828,176.205 190.400 C 176.891 194.336,176.949 197.224,176.412 200.600 C 175.541 206.069,174.827 213.688,175.035 215.287 C 175.157 216.229,175.002 219.610,174.691 222.800 C 174.379 225.990,174.203 229.953,174.301 231.607 C 174.398 233.261,174.294 236.501,174.069 238.807 C 173.522 244.408,174.082 247.539,176.537 252.618 C 178.978 257.668,179.001 258.968,176.717 263.132 C 174.546 267.088,174.412 270.822,176.148 279.000 C 178.317 289.223,179.141 290.653,183.491 291.751 C 186.992 292.634,188.737 293.879,191.364 297.369 C 194.167 301.093,195.186 301.654,199.608 301.906 C 203.039 302.102,204.860 301.643,206.187 300.248 C 207.081 299.310,209.460 295.741,210.090 294.394 C 211.504 291.374,211.690 290.396,211.995 284.400 C 212.255 279.270,212.527 277.440,213.568 273.800 C 215.053 268.607,215.190 266.662,214.419 261.689 C 213.948 258.650,213.931 257.418,214.327 254.889 C 217.622 233.844,217.797 227.952,215.362 219.954 C 213.679 214.425,213.243 206.434,214.435 202.952 C 216.394 197.228,212.710 182.000,209.366 182.000 C 209.091 182.000,208.807 181.851,208.733 181.668 C 208.579 181.283,203.410 178.800,202.764 178.800 C 202.156 178.800,198.000 174.477,198.000 173.844 C 198.000 173.558,197.637 172.996,197.194 172.595 C 196.751 172.193,196.247 171.310,196.075 170.633 C 195.901 169.951,195.366 169.223,194.877 169.004 C 194.391 168.786,193.892 168.291,193.769 167.904 C 193.462 166.936,192.198 167.021,191.216 168.075 M195.984 185.971 C 203.536 189.575,206.528 194.681,204.364 200.274 C 203.746 201.871,203.761 207.502,204.388 209.400 C 204.679 210.280,205.604 212.710,206.444 214.800 C 209.398 222.150,210.382 227.905,209.018 229.853 C 208.066 231.212,207.585 235.488,207.832 240.400 C 208.084 245.413,207.785 247.831,206.208 253.562 L 205.172 257.324 205.854 260.562 C 207.504 268.403,207.063 272.130,203.954 276.628 C 202.879 278.183,202.000 279.674,202.000 279.942 C 202.000 280.209,201.721 280.854,201.380 281.375 C 201.038 281.896,200.569 283.554,200.338 285.061 C 199.650 289.530,199.339 289.595,194.358 286.302 C 189.502 283.091,188.271 281.509,187.173 277.064 C 186.783 275.489,186.152 273.390,185.771 272.400 C 184.641 269.471,184.795 266.627,186.246 263.600 C 188.598 258.695,188.539 257.925,185.456 253.319 C 181.776 247.822,180.491 243.809,181.189 240.000 C 181.370 239.010,181.632 236.670,181.771 234.800 C 182.310 227.542,182.921 222.967,183.453 222.205 C 183.900 221.566,183.960 220.038,183.762 214.405 L 183.516 207.400 184.558 206.022 C 185.131 205.265,185.600 204.249,185.600 203.765 C 185.600 203.281,185.852 202.789,186.161 202.670 C 187.535 202.143,188.014 195.207,186.980 190.820 C 185.562 184.803,189.308 182.785,195.984 185.971 " stroke="none" fill="#3c443c" fill-rule="evenodd"></path><path id="path8" d="M0.000 1.213 C 0.000 1.903,0.250 2.521,0.581 2.648 C 1.520 3.008,2.123 5.494,1.845 7.859 C 1.634 9.655,1.750 10.323,2.551 11.905 C 4.552 15.855,4.701 17.059,4.445 27.200 C 4.314 32.370,4.261 40.020,4.327 44.200 C 4.407 49.290,4.249 53.319,3.849 56.400 C 3.192 61.448,3.279 82.379,4.000 92.800 C 4.205 95.770,4.244 99.460,4.087 101.000 C 3.694 104.839,3.761 108.450,4.290 111.945 C 4.635 114.221,4.614 115.997,4.197 119.760 C 3.397 126.981,2.995 161.213,3.636 167.611 C 3.910 170.355,4.096 172.870,4.049 173.200 C 3.702 175.621,3.219 238.278,3.468 248.600 C 3.505 250.140,3.469 271.830,3.389 296.800 C 3.219 349.795,3.598 375.849,4.605 380.383 C 7.029 391.294,13.692 395.961,26.400 395.646 C 35.704 395.416,36.992 395.444,41.600 395.974 C 45.307 396.401,47.084 396.410,50.754 396.018 C 53.702 395.703,57.269 395.632,60.868 395.818 C 66.819 396.124,85.827 395.254,96.400 394.191 C 99.590 393.870,105.148 393.410,108.752 393.167 C 120.927 392.349,122.103 390.559,123.595 370.571 C 123.824 367.507,124.196 363.560,124.422 361.800 C 124.648 360.040,125.011 349.960,125.228 339.400 C 125.446 328.840,125.812 316.780,126.043 312.600 C 126.994 295.316,127.403 172.522,126.540 163.233 C 125.947 156.849,125.920 154.979,126.340 149.233 C 126.688 144.474,126.714 140.905,126.433 136.600 C 126.217 133.300,125.848 115.750,125.614 97.600 C 125.319 74.775,124.986 61.883,124.533 55.787 C 123.995 48.540,123.961 46.112,124.340 42.124 C 124.955 35.641,124.921 32.672,124.163 26.983 C 123.214 19.851,123.525 13.991,125.096 9.400 C 127.242 3.129,127.685 0.000,126.428 0.000 C 125.840 0.000,125.509 0.509,125.032 2.149 C 123.039 9.003,119.572 11.607,111.400 12.387 C 106.355 12.868,101.837 13.821,100.435 14.699 C 99.354 15.376,95.690 15.487,94.536 14.878 C 90.541 12.771,82.396 11.710,76.749 12.560 C 74.410 12.912,71.680 13.200,70.681 13.200 C 66.477 13.200,66.570 14.172,71.364 20.333 C 73.434 22.994,75.870 26.482,76.777 28.085 C 77.684 29.688,78.625 31.285,78.868 31.632 C 79.351 32.322,78.021 33.727,72.800 38.043 C 66.187 43.511,65.488 44.645,66.426 48.385 C 68.071 54.951,66.405 61.322,61.890 65.729 C 47.303 79.967,18.472 70.079,21.602 51.911 C 21.877 50.310,22.185 47.983,22.285 46.741 L 22.467 44.482 18.454 40.256 C 11.964 33.424,11.387 28.625,15.906 19.074 C 18.146 14.339,18.116 14.252,13.731 12.600 C 10.217 11.276,5.795 8.539,4.685 7.001 C 3.965 6.003,3.614 1.348,4.189 0.418 C 4.357 0.147,3.668 0.000,2.224 0.000 C 0.014 0.000,0.000 0.008,0.000 1.213 M271.200 2.463 C 271.200 3.818,271.587 6.923,272.060 9.363 C 272.911 13.748,272.915 14.035,272.473 34.000 C 272.178 47.320,272.157 55.658,272.412 58.481 C 272.658 61.216,272.661 66.347,272.418 72.681 C 272.183 78.832,272.179 84.955,272.409 88.800 C 272.921 97.363,273.077 125.918,272.645 132.000 C 272.358 136.046,272.424 137.993,272.994 142.200 C 273.710 147.493,273.682 149.315,272.763 157.200 C 272.520 159.290,272.270 167.480,272.209 175.400 C 272.148 183.320,271.914 199.610,271.689 211.600 C 271.255 234.684,271.605 280.618,272.373 301.400 C 272.608 307.780,272.987 320.380,273.215 329.400 C 273.688 348.146,274.133 356.908,274.831 361.200 C 275.111 362.922,275.336 368.459,275.359 374.200 L 275.400 384.200 276.519 386.479 C 278.668 390.855,281.017 391.399,290.800 389.789 C 297.783 388.640,299.220 388.627,308.800 389.618 C 313.885 390.144,317.048 389.881,321.800 388.538 C 324.423 387.797,326.974 387.433,331.200 387.197 C 342.475 386.569,345.209 385.211,343.378 381.150 C 342.544 379.301,341.067 377.951,338.395 376.598 C 336.264 375.517,334.294 373.419,334.497 372.447 C 334.738 371.299,336.450 371.931,338.593 373.958 C 341.287 376.506,342.346 377.013,347.918 378.428 C 350.493 379.082,353.410 380.018,354.400 380.508 L 356.200 381.400 356.108 383.800 C 355.934 388.365,357.071 388.860,368.600 389.234 C 373.440 389.392,378.570 389.647,380.000 389.802 C 392.016 391.104,399.594 381.937,398.005 368.020 C 397.633 364.764,397.630 363.115,397.993 360.800 C 398.752 355.965,398.919 352.759,398.436 352.276 C 397.600 351.440,397.925 348.373,399.000 346.964 L 400.000 345.653 399.986 298.127 L 399.971 250.600 399.034 251.746 C 396.315 255.070,395.310 262.434,396.359 271.347 C 397.396 280.163,397.405 282.294,396.425 288.048 C 395.905 291.105,395.689 293.982,395.768 296.808 C 395.832 299.122,395.647 302.812,395.356 305.008 C 395.065 307.204,394.558 311.070,394.230 313.600 C 393.901 316.130,393.257 320.360,392.797 323.000 C 392.189 326.490,392.021 328.703,392.183 331.110 C 392.597 337.251,391.868 338.640,386.125 342.655 C 380.356 346.689,379.545 348.000,380.389 351.926 C 381.559 357.373,381.603 357.805,381.204 359.987 C 377.706 379.135,346.531 381.672,336.800 363.600 C 335.175 360.582,334.925 356.570,336.097 352.289 C 337.222 348.180,335.360 345.363,328.055 340.121 C 320.999 335.059,319.444 339.670,323.197 354.528 C 326.005 365.643,325.905 367.183,321.815 375.736 C 317.088 385.622,311.104 387.279,300.268 381.704 C 296.126 379.572,293.473 377.118,291.801 373.873 C 290.127 370.623,289.604 370.235,287.045 370.354 C 282.784 370.551,278.807 362.452,277.935 351.800 C 277.736 349.380,277.313 345.060,276.994 342.200 C 276.674 339.328,276.226 328.940,275.995 319.000 C 275.764 309.100,275.321 296.950,275.009 292.000 C 273.956 275.247,273.690 238.294,274.413 209.400 C 274.711 197.520,274.986 181.770,275.026 174.400 C 275.080 164.422,275.256 160.081,275.716 157.400 C 277.429 147.408,277.392 148.142,276.420 143.602 C 275.046 137.185,274.975 134.556,275.988 127.592 C 276.826 121.834,276.854 120.962,276.438 113.625 C 276.195 109.321,275.810 101.408,275.585 96.041 C 275.359 90.673,275.081 86.131,274.967 85.947 C 274.853 85.763,274.967 80.300,275.220 73.807 C 275.563 64.997,275.565 60.809,275.227 57.301 C 274.883 53.722,274.897 49.306,275.287 38.800 C 276.103 16.850,276.013 13.525,274.457 8.022 C 273.746 5.503,273.057 2.668,272.927 1.722 C 272.518 -1.261,271.200 -0.695,271.200 2.463 M399.005 0.700 C 399.165 1.085,399.304 1.625,399.314 1.900 C 399.356 2.983,400.000 2.325,400.000 1.200 C 400.000 0.364,399.805 0.000,399.357 0.000 C 398.901 0.000,398.799 0.203,399.005 0.700 M398.886 12.389 C 397.691 13.385,395.374 16.771,394.273 19.129 C 393.454 20.884,393.405 21.515,393.479 29.300 C 393.522 33.865,393.421 37.600,393.254 37.600 C 393.087 37.600,392.557 37.967,392.075 38.416 C 391.593 38.865,389.984 39.508,388.500 39.845 C 380.676 41.620,379.012 44.085,381.153 50.723 C 384.623 61.476,378.946 69.793,365.800 73.219 C 360.680 74.553,361.293 74.531,350.900 73.746 C 347.385 73.481,346.989 73.702,348.500 75.083 C 350.722 77.115,351.845 77.386,358.634 77.530 C 366.508 77.697,367.269 77.509,372.277 74.153 C 374.435 72.707,376.839 71.196,377.621 70.794 C 380.002 69.571,382.957 66.613,385.419 62.989 C 386.707 61.093,388.354 59.021,389.080 58.383 C 389.806 57.746,390.400 57.039,390.400 56.812 C 390.400 56.585,390.625 56.385,390.900 56.368 C 391.175 56.350,391.894 56.299,392.497 56.254 C 393.495 56.181,393.643 56.356,394.143 58.187 C 396.667 67.435,397.337 75.373,396.244 83.086 C 395.655 87.240,395.659 88.008,396.296 93.486 C 396.674 96.739,396.937 100.840,396.880 102.600 C 396.545 112.973,396.759 119.352,397.603 124.110 C 398.400 128.602,398.429 129.345,397.977 133.788 C 397.438 139.092,397.415 141.798,397.720 164.600 C 397.936 180.697,398.165 185.514,398.841 188.106 C 399.134 189.230,399.075 190.246,398.608 192.108 C 398.264 193.481,397.999 195.413,398.018 196.402 C 398.038 197.391,397.928 200.191,397.774 202.624 C 397.521 206.613,397.599 207.488,398.562 211.517 C 399.405 215.042,399.614 216.832,399.552 219.996 C 399.509 222.202,399.592 224.125,399.737 224.270 C 399.881 224.415,400.000 176.623,400.000 118.067 C 400.000 59.510,399.955 11.606,399.900 11.613 C 399.845 11.621,399.389 11.970,398.886 12.389 M101.091 25.254 C 104.460 27.611,109.165 29.159,113.040 29.186 C 121.147 29.242,121.224 38.016,113.167 43.629 L 112.264 44.258 114.145 46.165 C 119.345 51.441,121.415 59.329,120.974 72.200 C 120.783 77.783,120.847 81.106,121.186 83.200 C 121.696 86.347,121.869 92.082,122.173 115.800 C 122.275 123.720,122.536 131.550,122.754 133.200 C 123.638 139.897,123.713 144.858,123.015 150.303 C 122.385 155.223,122.382 155.916,122.980 159.903 C 123.334 162.266,123.819 165.615,124.057 167.344 C 124.354 169.497,124.396 176.182,124.190 188.544 C 124.024 198.475,123.955 209.210,124.036 212.400 C 124.316 223.510,124.114 247.486,123.635 260.000 C 123.266 269.642,123.262 273.643,123.618 277.043 C 124.239 282.973,123.140 308.518,121.812 319.000 C 121.478 321.640,121.263 326.919,121.276 332.200 C 121.312 347.397,119.506 355.151,116.727 351.727 C 113.159 347.330,108.210 343.617,105.902 343.604 C 105.518 343.602,103.945 344.755,102.407 346.166 C 99.657 348.690,97.780 349.642,94.445 350.203 C 92.497 350.531,91.600 351.111,91.600 352.042 C 91.600 353.171,99.544 361.234,102.795 363.404 C 105.383 365.133,109.604 368.983,111.703 371.531 C 113.182 373.325,113.086 374.470,111.223 377.261 C 110.254 378.712,109.540 380.330,109.371 381.457 C 108.764 385.504,105.972 386.872,97.200 387.419 C 94.890 387.563,89.940 388.102,86.200 388.617 C 75.227 390.127,67.602 390.581,62.049 390.053 C 55.621 389.443,52.218 389.483,49.465 390.200 C 46.428 390.991,45.425 390.959,42.519 389.977 C 36.192 387.841,38.807 385.675,48.713 384.849 C 55.638 384.270,62.945 380.200,66.825 374.759 C 68.440 372.494,72.218 367.735,76.726 362.286 C 77.675 361.139,79.235 358.670,80.191 356.800 C 81.148 354.930,82.576 352.501,83.365 351.401 C 85.268 348.750,85.200 348.308,82.471 345.637 C 78.550 341.801,75.084 340.885,71.800 342.817 C 66.171 346.128,65.072 348.561,66.881 353.698 C 74.585 375.571,33.426 385.775,22.955 364.588 C 21.118 360.871,20.817 357.859,21.786 352.874 C 22.734 347.990,22.117 346.932,15.694 342.432 C 10.738 338.959,10.065 336.753,9.917 323.480 C 9.789 312.000,10.001 310.491,12.475 305.248 C 14.437 301.090,14.438 300.687,12.478 295.972 C 10.386 290.939,8.274 275.022,9.446 273.125 C 9.583 272.904,9.847 269.365,10.032 265.261 C 10.242 260.610,10.600 257.047,10.984 255.800 C 12.370 251.288,12.219 248.804,9.817 236.600 C 9.287 233.909,9.255 232.541,9.614 228.000 C 9.848 225.030,10.089 217.020,10.149 210.200 C 10.236 200.139,10.388 197.234,10.951 194.800 C 11.991 190.303,12.159 173.466,11.219 168.001 C 10.502 163.835,10.599 162.355,12.020 155.723 C 12.494 153.512,12.470 152.911,11.797 150.123 C 11.051 147.029,10.927 144.817,11.194 139.400 C 11.270 137.860,11.276 134.890,11.207 132.800 C 10.935 124.525,13.440 117.078,17.521 114.031 L 18.600 113.225 16.127 110.912 C 12.166 107.209,11.827 105.963,12.562 97.800 C 12.854 94.555,12.778 93.785,11.795 90.000 C 10.335 84.376,10.241 72.309,11.642 70.341 C 12.955 68.496,14.077 68.809,17.343 71.932 C 18.914 73.434,21.370 75.539,22.800 76.610 C 24.230 77.681,26.480 79.488,27.800 80.626 C 30.482 82.939,32.326 84.001,33.687 84.018 C 36.662 84.055,51.325 83.156,53.000 82.833 C 54.100 82.621,55.955 82.437,57.123 82.424 C 61.392 82.376,62.659 81.776,66.400 78.031 C 68.828 75.600,70.614 74.208,72.526 73.255 C 75.494 71.777,76.028 71.068,77.003 67.320 C 78.007 63.461,79.444 61.027,82.315 58.322 C 83.788 56.935,85.985 54.723,87.197 53.406 C 91.555 48.671,93.047 47.412,95.239 46.615 C 98.252 45.520,98.811 45.487,102.274 46.203 C 103.956 46.550,105.888 46.723,106.566 46.587 C 108.479 46.204,112.029 44.686,111.902 44.305 C 111.784 43.951,106.966 41.887,102.351 40.215 C 100.895 39.686,98.555 38.562,97.151 37.716 C 92.664 35.011,91.804 34.786,89.850 35.805 C 87.765 36.892,84.647 37.018,83.124 36.076 C 78.047 32.939,79.652 30.063,86.149 30.659 C 91.931 31.189,90.937 31.650,94.445 26.805 C 96.994 23.284,97.954 23.060,101.091 25.254 M34.494 32.015 C 33.236 32.520,32.690 34.213,32.994 36.666 C 33.358 39.610,32.933 41.272,31.091 44.110 C 26.043 51.885,30.858 57.100,39.273 52.971 C 43.779 50.760,44.889 50.785,49.434 53.192 C 52.993 55.078,55.245 55.309,56.954 53.965 C 59.665 51.833,60.186 47.524,58.074 44.710 C 55.870 41.773,55.541 40.863,55.252 36.910 C 54.872 31.719,53.938 31.101,49.026 32.791 C 44.956 34.191,43.414 34.197,39.501 32.826 C 35.652 31.478,35.779 31.498,34.494 32.015 M347.829 32.629 C 347.073 33.384,347.081 33.330,347.036 37.634 C 347.000 41.040,346.984 41.093,345.100 43.930 C 339.880 51.789,344.735 57.160,353.273 52.971 C 357.779 50.760,358.889 50.785,363.434 53.192 C 368.324 55.783,370.909 55.307,372.765 51.472 C 374.000 48.922,373.856 47.244,372.206 44.944 C 369.797 41.586,369.512 40.828,369.306 37.225 C 368.998 31.839,367.974 31.091,363.163 32.742 C 359.205 34.099,357.586 34.149,354.222 33.020 C 350.738 31.851,348.729 31.728,347.829 32.629 M360.752 38.043 C 363.093 38.859,364.523 44.277,362.841 45.959 C 361.911 46.889,356.287 47.194,354.263 46.424 C 351.772 45.477,352.993 38.414,355.742 37.877 C 357.456 37.541,359.508 37.610,360.752 38.043 M47.260 38.432 C 49.141 39.439,50.033 45.526,48.426 46.386 C 47.392 46.939,41.491 46.915,40.256 46.353 C 38.524 45.564,38.650 40.164,40.435 38.700 C 41.423 37.890,45.917 37.714,47.260 38.432 M329.657 42.613 C 326.332 45.411,327.252 55.899,331.186 60.034 C 333.829 62.812,334.196 62.375,334.575 56.000 C 334.699 53.910,335.162 50.859,335.602 49.220 C 336.678 45.220,336.214 43.938,333.116 42.357 C 331.222 41.391,331.099 41.400,329.657 42.613 M31.458 110.181 C 27.511 113.839,32.117 116.784,39.252 115.166 C 41.293 114.703,41.780 114.737,44.452 115.529 C 49.698 117.084,54.441 116.366,54.719 113.974 C 55.093 110.764,49.043 109.132,43.181 110.860 C 41.987 111.212,41.282 111.113,38.751 110.239 C 34.869 108.899,32.858 108.883,31.458 110.181 M38.193 147.917 C 32.994 149.686,31.370 151.586,32.781 154.248 C 34.659 157.786,36.973 158.309,42.120 156.355 C 43.924 155.671,45.902 154.926,46.516 154.700 C 54.035 151.935,45.890 145.297,38.193 147.917 M316.000 335.161 C 316.000 335.582,318.234 336.433,318.538 336.128 C 318.652 336.015,318.648 335.669,318.530 335.361 C 318.296 334.752,316.000 334.570,316.000 335.161 M33.957 335.955 C 33.127 336.626,33.001 337.143,32.812 340.655 C 32.696 342.825,32.441 344.870,32.246 345.200 C 32.052 345.530,31.242 346.767,30.446 347.950 C 25.743 354.941,31.288 360.400,39.091 356.461 C 43.475 354.248,44.892 354.249,49.066 356.462 C 52.753 358.418,54.907 358.672,56.670 357.358 C 59.627 355.155,60.227 351.174,58.041 348.264 C 55.813 345.298,55.468 344.365,55.281 340.800 C 54.990 335.246,54.246 334.690,49.146 336.216 C 44.996 337.458,42.889 337.455,39.200 336.200 C 35.674 335.001,35.164 334.977,33.957 335.955 M348.491 335.692 C 347.369 336.233,347.124 337.164,347.054 341.141 C 347.006 343.945,346.867 344.466,345.703 346.232 C 343.132 350.131,342.671 351.466,343.187 353.513 C 344.471 358.613,347.493 359.504,353.327 356.500 C 357.384 354.411,358.699 354.400,362.800 356.424 C 366.768 358.382,368.943 358.646,370.643 357.377 C 373.102 355.542,374.032 351.600,372.555 349.271 C 369.375 344.257,369.438 344.424,369.267 340.511 C 369.027 335.036,368.251 334.499,363.039 336.200 C 361.354 336.750,359.104 337.200,358.039 337.200 C 356.974 337.200,354.724 336.750,353.039 336.200 C 349.602 335.078,349.734 335.093,348.491 335.692 M47.997 342.219 C 48.924 343.146,49.816 347.086,49.439 348.588 C 48.832 351.007,39.743 351.142,38.982 348.744 C 38.424 346.984,39.210 343.529,40.451 342.288 C 41.926 340.812,46.548 340.770,47.997 342.219 M361.337 341.644 C 363.210 342.497,364.424 348.319,363.022 349.721 C 361.943 350.799,354.404 350.710,353.406 349.607 C 352.013 348.067,353.230 342.714,355.200 341.718 C 356.439 341.091,360.028 341.048,361.337 341.644 M293.017 361.386 C 289.948 362.210,288.840 364.295,290.056 366.963 C 290.757 368.502,293.714 368.210,297.558 366.222 C 302.882 363.469,299.334 359.691,293.017 361.386 M15.711 374.424 C 16.727 375.097,18.333 376.505,19.279 377.554 C 21.739 380.278,23.349 381.352,27.165 382.817 C 31.143 384.344,33.649 386.352,32.966 387.464 C 30.313 391.779,16.131 388.218,13.353 382.539 C 11.581 378.918,11.750 373.256,13.631 373.206 C 13.759 373.203,14.694 373.751,15.711 374.424 " stroke="none" fill="#5c5c54" fill-rule="evenodd"></path></g></svg>