<svg id="svg" version="1.1" xmlns="http://www.w3.org/2000/svg" xmlns:xlink="http://www.w3.org/1999/xlink" width="400" height="400" viewBox="0, 0, 400,400"><g id="svgg"><path id="path0" d="M0.100 0.972 C 0.100 1.666,0.429 2.081,1.250 2.421 C 2.919 3.112,2.757 10.000,1.072 10.000 C 0.824 10.000,1.022 10.280,1.511 10.623 C 2.000 10.965,2.400 11.441,2.400 11.680 C 2.400 11.918,3.171 13.033,4.114 14.157 C 7.662 18.385,7.462 16.984,6.378 30.000 C 5.471 40.888,6.004 47.987,7.651 46.968 C 7.843 46.850,8.000 46.995,8.000 47.291 C 8.000 47.587,8.360 47.829,8.800 47.829 C 9.240 47.829,9.600 47.687,9.600 47.514 C 9.600 47.341,9.870 47.200,10.200 47.200 C 10.530 47.200,10.800 47.042,10.800 46.849 C 10.800 46.656,11.688 46.116,12.774 45.649 C 18.080 43.367,21.283 46.551,19.863 52.697 C 19.520 54.184,19.124 57.146,18.983 59.281 C 18.643 64.453,18.628 64.461,13.601 62.039 C 11.210 60.887,9.230 60.167,8.850 60.311 C 6.936 61.042,6.001 63.285,5.998 67.160 C 5.996 68.612,5.744 71.510,5.437 73.600 C 4.602 79.287,4.551 128.003,5.375 132.855 C 5.501 133.595,5.874 137.080,6.204 140.600 C 6.534 144.120,7.245 149.099,7.784 151.663 C 8.721 156.122,8.762 156.931,8.720 170.063 C 8.673 184.539,8.920 187.497,10.765 194.600 C 11.009 195.539,11.185 201.433,11.190 208.876 C 11.203 226.194,12.028 236.285,14.433 248.552 C 15.075 251.825,15.600 254.899,15.600 255.383 C 15.600 256.365,17.856 260.000,18.466 260.000 C 19.042 260.000,22.435 262.372,23.679 263.644 C 25.447 265.454,26.405 267.748,26.453 270.293 C 26.514 273.544,27.134 276.246,28.405 278.800 C 31.979 285.982,30.701 294.583,25.195 300.405 C 22.309 303.457,22.326 303.222,24.800 305.837 C 27.766 308.974,27.724 309.072,20.116 316.694 C 9.612 327.218,8.971 331.488,16.606 340.064 C 20.816 344.793,21.015 345.297,20.455 349.853 C 19.817 355.041,19.883 356.858,20.795 359.285 C 29.359 382.065,70.732 374.211,65.845 350.733 C 64.681 345.140,65.673 343.227,72.123 338.635 C 75.619 336.147,77.632 335.805,79.507 337.383 C 80.667 338.359,81.816 340.927,81.396 341.606 C 81.301 341.760,81.045 344.477,80.827 347.643 C 80.537 351.866,80.143 354.359,79.347 357.000 C 78.447 359.989,78.274 361.275,78.330 364.575 L 78.398 368.549 76.345 370.528 C 74.883 371.937,72.976 373.127,69.717 374.664 C 61.518 378.532,57.816 383.486,61.885 385.145 C 65.622 386.668,83.959 387.362,91.675 386.271 C 94.900 385.816,96.945 385.754,99.999 386.019 C 108.208 386.732,113.741 384.349,115.018 379.550 C 116.275 374.827,115.648 371.186,113.146 368.684 C 111.742 367.280,111.718 366.366,113.000 362.962 C 114.176 359.836,114.237 358.609,113.328 356.336 C 112.185 353.479,112.389 351.286,114.052 348.571 C 115.434 346.314,118.166 338.260,119.471 332.600 C 119.916 330.668,120.055 322.343,120.182 289.911 C 120.268 267.752,120.480 249.394,120.653 249.115 C 120.825 248.836,121.049 229.886,121.150 207.004 C 121.417 146.590,121.413 143.633,121.046 136.600 C 119.505 107.036,142.865 75.788,174.578 64.990 C 183.500 61.952,192.104 60.633,201.000 60.940 C 226.854 61.832,248.042 71.236,260.167 87.200 C 261.754 89.290,264.350 92.710,265.936 94.800 C 271.618 102.292,276.025 113.863,277.817 126.000 C 278.657 131.690,279.167 164.977,278.909 197.200 C 278.700 223.331,279.186 246.604,280.213 259.600 C 280.770 266.642,280.769 268.281,280.207 276.458 C 279.597 285.326,279.647 288.158,280.603 299.000 C 280.720 300.320,280.990 304.280,281.204 307.800 C 281.618 314.625,281.981 316.408,283.950 321.310 C 285.467 325.085,285.468 325.120,284.116 329.049 C 283.122 331.938,283.037 332.666,283.092 337.800 C 283.195 347.486,283.915 359.639,284.642 363.959 C 285.304 367.891,285.305 368.337,284.663 372.159 C 282.333 386.012,284.732 388.777,295.980 385.202 C 300.229 383.851,302.534 383.703,304.713 384.639 C 311.077 387.374,312.438 387.520,333.000 387.672 L 350.200 387.800 351.500 386.873 C 353.602 385.373,352.886 384.641,346.506 381.768 C 339.937 378.809,336.956 376.027,330.423 366.753 C 325.978 360.443,323.379 348.381,325.608 344.400 C 328.668 338.933,337.983 343.337,336.480 349.540 C 333.807 360.570,336.333 366.840,345.257 371.326 C 363.510 380.503,386.255 368.466,381.791 351.992 C 380.515 347.283,380.532 347.073,382.345 345.106 C 383.238 344.137,384.921 342.836,386.085 342.215 C 388.243 341.064,392.490 338.048,392.736 337.493 C 392.810 337.324,393.093 336.964,393.363 336.693 C 394.815 335.239,395.194 329.085,394.156 323.800 C 392.588 315.810,391.981 312.457,391.767 310.600 C 391.641 309.500,391.379 308.240,391.187 307.800 C 390.994 307.360,390.359 304.570,389.775 301.600 C 388.211 293.650,387.380 292.390,383.177 291.598 C 381.979 291.373,380.100 290.622,379.000 289.930 C 375.250 287.571,374.900 287.452,373.591 288.086 C 371.929 288.891,365.849 294.861,363.306 298.184 C 358.665 304.253,355.433 306.953,353.087 306.723 C 351.727 306.590,351.382 306.109,350.184 302.670 C 349.814 301.609,348.792 299.989,347.914 299.070 C 344.766 295.777,344.531 294.700,346.223 291.304 C 348.075 287.588,351.626 285.099,355.804 284.589 C 359.587 284.128,360.952 283.387,363.672 280.319 C 365.037 278.780,367.069 277.003,368.189 276.371 C 372.400 273.995,374.024 271.529,375.635 265.066 C 376.345 262.215,376.872 261.065,378.358 259.120 C 381.452 255.071,382.290 253.321,382.797 249.853 C 383.072 247.973,383.937 244.997,384.897 242.628 C 387.061 237.289,387.442 230.880,386.008 223.910 L 385.125 219.620 385.979 215.699 C 386.448 213.542,386.989 209.892,387.181 207.589 C 387.373 205.285,387.906 201.818,388.365 199.885 C 389.273 196.061,389.418 191.820,388.791 187.479 C 388.574 185.982,388.225 182.922,388.014 180.679 C 387.803 178.435,387.352 175.085,387.012 173.234 C 386.448 170.160,386.452 169.521,387.057 165.893 C 387.613 162.555,387.647 161.302,387.267 158.060 C 387.019 155.937,386.718 150.150,386.599 145.200 C 386.458 139.316,386.169 135.231,385.764 133.400 C 385.424 131.860,385.053 128.620,384.940 126.200 C 384.566 118.216,383.442 116.995,378.647 119.364 C 374.809 121.260,373.356 121.272,372.580 119.413 C 371.185 116.074,372.114 113.290,375.443 110.838 C 381.165 106.623,386.564 95.958,385.723 90.533 C 384.750 84.260,380.063 81.327,373.658 82.984 C 370.966 83.680,348.624 84.020,343.329 83.445 C 340.636 83.153,339.769 83.205,338.421 83.745 C 336.138 84.658,336.157 84.670,335.639 82.038 C 335.183 79.718,332.068 73.194,327.966 65.969 C 321.214 54.074,324.887 39.042,333.250 44.346 C 336.389 46.336,336.945 47.354,336.555 50.400 C 335.398 59.458,336.350 63.224,340.965 67.839 C 350.497 77.371,366.714 77.370,376.232 67.836 C 381.145 62.915,382.208 58.966,381.039 49.970 C 380.649 46.965,380.641 46.985,383.768 42.627 C 388.298 36.313,388.536 32.270,385.011 21.473 C 382.990 15.280,383.729 13.903,390.917 10.473 C 397.425 7.368,399.148 5.012,396.775 2.466 C 396.408 2.072,395.898 1.356,395.640 0.875 C 395.189 0.032,394.942 0.000,388.886 0.001 L 382.600 0.002 382.511 1.301 C 382.381 3.193,381.755 4.114,380.083 4.874 C 376.807 6.362,375.583 6.524,369.616 6.261 C 361.326 5.896,352.021 6.569,346.800 7.911 C 342.886 8.917,342.096 8.984,335.200 8.901 C 328.847 8.824,315.145 9.599,312.000 10.213 C 308.911 10.816,304.330 11.296,299.200 11.555 C 289.627 12.039,286.451 14.237,289.600 18.200 C 290.980 19.936,291.102 21.299,290.208 25.000 C 288.880 30.499,289.954 33.197,294.689 36.259 C 297.561 38.117,297.713 38.536,297.913 45.154 C 298.243 56.078,295.154 58.748,291.200 50.957 C 289.034 46.689,288.658 46.553,285.977 49.060 C 280.854 53.852,282.092 61.079,288.941 66.361 C 294.737 70.832,298.329 75.118,301.656 81.533 L 303.800 85.667 303.801 90.133 C 303.801 95.172,304.356 96.836,307.027 99.800 C 309.793 102.870,309.734 102.524,309.801 116.000 C 309.859 127.535,309.909 128.315,310.731 130.304 C 311.898 133.129,311.850 135.945,310.574 139.598 C 309.480 142.727,309.504 143.303,310.851 146.386 C 311.287 147.384,311.801 148.560,311.994 149.000 C 312.186 149.440,312.831 150.925,313.426 152.299 C 314.781 155.428,317.103 157.642,320.032 158.598 C 327.870 161.155,330.462 163.263,329.115 165.987 C 328.189 167.857,326.793 168.500,323.935 168.372 C 320.370 168.211,319.840 168.340,317.173 170.015 C 309.254 174.987,307.931 174.868,304.830 168.904 C 302.171 163.792,299.830 162.202,297.645 164.022 C 296.156 165.262,296.393 167.164,298.590 171.600 L 300.472 175.400 300.159 179.200 C 299.549 186.599,299.638 187.456,301.400 191.184 C 304.495 197.732,303.339 203.069,297.628 208.600 C 292.731 213.342,292.504 214.892,295.941 220.151 C 298.853 224.609,298.813 225.648,295.471 232.110 C 294.080 234.799,292.343 238.500,291.612 240.334 C 286.533 253.073,283.891 246.439,283.756 220.600 C 283.732 215.980,283.575 207.790,283.407 202.400 C 283.180 195.076,283.268 189.618,283.755 180.800 C 284.235 172.118,284.297 168.419,283.991 166.800 C 282.789 160.455,282.639 157.997,283.106 152.288 C 283.430 148.322,283.452 145.389,283.178 142.600 C 282.962 140.400,282.615 135.978,282.406 132.772 C 281.230 114.687,275.691 98.464,267.820 90.048 C 266.213 88.329,263.443 84.752,261.666 82.098 C 258.369 77.178,257.803 76.601,252.195 72.454 C 250.432 71.150,248.092 69.004,246.995 67.685 C 244.289 64.432,243.416 63.981,239.071 63.593 C 235.431 63.268,233.392 62.720,230.086 61.181 C 227.610 60.028,224.142 59.200,221.789 59.200 C 219.417 59.200,215.719 58.582,213.329 57.786 C 209.064 56.365,197.548 55.550,190.862 56.195 C 179.611 57.281,179.324 57.339,174.400 59.513 C 171.870 60.631,168.270 62.032,166.400 62.627 C 163.075 63.685,159.841 65.217,154.200 68.405 C 146.553 72.727,145.239 68.062,151.704 59.547 C 155.472 54.584,155.593 53.973,156.754 34.000 C 157.186 26.561,158.221 25.206,163.480 25.194 C 166.439 25.187,166.849 25.039,167.540 23.726 C 168.449 21.999,167.840 17.903,166.493 16.684 C 164.607 14.978,150.367 13.303,145.270 14.187 C 143.219 14.544,141.149 14.708,140.670 14.553 C 140.192 14.398,136.650 14.239,132.800 14.200 C 125.035 14.122,118.326 13.505,115.354 12.597 C 111.033 11.277,108.585 11.131,102.593 11.835 C 97.311 12.455,96.532 12.457,91.751 11.853 C 87.148 11.271,85.946 11.262,80.454 11.766 C 77.073 12.076,73.833 12.274,73.254 12.206 C 64.339 11.157,59.600 11.727,59.600 13.850 C 59.600 13.951,61.964 16.501,64.854 19.517 C 67.744 22.533,70.293 25.405,70.518 25.900 C 70.744 26.395,71.080 26.800,71.264 26.800 C 71.449 26.800,71.600 27.729,71.600 28.865 C 71.600 32.034,70.174 34.163,67.063 35.634 C 63.125 37.497,62.482 37.320,58.196 33.199 C 54.205 29.362,53.432 29.301,45.600 32.206 C 43.368 33.034,41.593 32.816,37.600 31.224 C 32.736 29.284,29.878 29.866,26.958 33.388 C 23.646 37.382,18.421 37.269,16.301 33.156 C 14.131 28.947,16.061 25.958,26.258 17.733 C 32.081 13.036,33.062 11.805,31.906 10.649 C 30.297 9.040,25.997 8.826,19.755 10.046 C 13.517 11.264,11.313 10.851,6.900 7.634 C 4.764 6.077,4.586 4.528,6.354 2.877 C 8.930 0.473,8.555 0.000,4.077 0.000 C 0.132 0.000,0.100 0.008,0.100 0.972 M263.094 12.435 C 257.769 13.690,255.797 17.316,259.882 18.340 C 269.127 20.659,279.934 17.424,274.329 14.015 C 271.684 12.407,266.380 11.661,263.094 12.435 M365.372 14.793 C 374.035 17.008,380.019 21.111,381.917 26.136 C 384.962 34.194,379.629 39.564,374.635 33.469 C 371.602 29.767,369.135 29.314,363.372 31.400 C 358.706 33.089,358.218 33.099,354.400 31.576 C 348.452 29.205,346.411 29.529,342.561 33.455 C 340.156 35.908,339.495 36.234,337.400 36.004 C 333.546 35.581,331.990 30.985,334.200 26.551 C 338.945 17.029,353.156 11.669,365.372 14.793 M127.640 20.869 C 132.079 22.400,135.547 28.612,134.432 33.038 C 133.839 35.395,133.424 42.635,133.756 44.849 C 133.974 46.297,134.521 47.208,136.586 49.554 C 141.262 54.867,143.289 61.639,141.809 67.000 C 141.444 68.320,141.009 70.937,140.841 72.816 C 140.345 78.375,137.028 84.203,130.128 91.637 C 128.578 93.307,126.619 95.917,125.775 97.437 C 118.690 110.194,115.583 114.449,112.518 115.596 C 107.261 117.563,105.371 119.020,102.653 123.200 C 100.329 126.775,99.837 127.106,95.814 127.796 C 91.539 128.530,88.561 132.702,87.388 139.600 C 86.002 147.753,82.773 150.206,77.152 147.376 C 70.939 144.247,69.841 143.033,69.374 138.775 C 68.904 134.490,66.871 131.600,64.326 131.600 C 61.866 131.600,61.411 134.895,63.235 139.489 C 66.228 147.024,62.344 151.652,53.508 151.079 C 47.389 150.683,44.759 147.880,43.968 140.911 C 43.333 135.325,42.096 133.671,37.693 132.522 C 32.087 131.058,27.709 127.305,26.647 123.052 C 26.238 121.415,25.421 120.753,23.489 120.497 C 18.815 119.876,15.694 113.728,14.810 103.400 C 14.622 101.200,14.094 97.870,13.637 96.000 C 13.180 94.130,12.803 91.610,12.800 90.400 C 12.797 89.190,12.615 86.670,12.396 84.800 C 11.267 75.144,13.149 74.443,22.479 81.044 C 27.692 84.732,27.930 84.851,34.200 86.853 L 40.600 88.898 44.200 88.557 C 50.897 87.923,55.187 88.107,57.084 89.110 C 61.365 91.373,64.220 89.749,67.682 83.083 C 68.814 80.904,70.305 78.858,72.117 77.000 C 75.442 73.589,75.662 73.192,77.137 67.895 C 79.740 58.550,82.900 55.129,89.792 54.194 C 93.366 53.709,94.213 52.617,95.974 46.227 C 97.420 40.978,100.547 37.938,105.038 37.418 C 110.100 36.832,115.996 31.700,117.609 26.476 C 118.789 22.657,120.085 21.467,123.800 20.791 C 126.164 20.361,126.168 20.361,127.640 20.869 M148.174 21.539 C 152.040 23.763,149.965 29.207,145.256 29.194 C 142.068 29.185,140.883 28.017,141.378 25.375 C 142.187 21.065,144.793 19.594,148.174 21.539 M38.742 35.644 C 41.943 36.596,43.660 36.596,46.858 35.642 C 51.303 34.317,51.450 34.309,52.659 35.349 C 53.686 36.232,53.782 36.576,53.983 40.078 C 54.186 43.618,54.293 43.990,55.691 46.027 C 57.923 49.281,58.190 50.342,57.430 52.957 C 56.125 57.446,53.710 58.069,47.985 55.393 C 43.141 53.129,42.501 53.142,37.482 55.606 C 32.240 58.179,29.622 57.481,28.175 53.123 C 27.387 50.752,27.617 49.629,29.397 47.151 C 31.724 43.912,32.000 43.099,32.000 39.482 C 32.000 36.783,32.137 36.004,32.700 35.514 C 34.054 34.334,34.359 34.341,38.742 35.644 M353.761 35.400 C 357.597 36.652,359.407 36.655,363.546 35.416 C 368.686 33.878,369.600 34.584,369.600 40.095 C 369.600 43.685,369.395 43.170,372.898 48.365 C 374.483 50.716,373.149 55.561,370.626 56.615 C 368.524 57.493,367.742 57.358,363.600 55.400 C 358.848 53.154,357.839 53.133,353.758 55.199 C 345.325 59.467,340.357 54.247,345.545 46.568 L 347.600 43.525 347.600 39.944 C 347.600 34.388,348.540 33.695,353.761 35.400 M71.336 46.021 C 74.244 48.308,72.798 58.000,69.549 58.000 C 68.434 58.000,65.770 49.458,66.382 47.846 C 67.201 45.692,69.733 44.760,71.336 46.021 M253.827 54.706 C 252.547 55.986,254.522 60.400,256.375 60.400 C 257.933 60.400,257.329 55.691,255.679 54.974 C 254.672 54.537,254.082 54.451,253.827 54.706 M48.204 60.147 C 49.526 60.687,51.776 61.430,53.204 61.798 C 62.484 64.192,53.307 71.743,41.899 71.101 C 31.858 70.536,25.357 64.274,32.507 62.054 C 33.878 61.628,36.355 60.740,38.011 60.079 C 42.612 58.245,43.558 58.252,48.204 60.147 M363.800 60.176 C 365.560 60.895,367.900 61.703,369.000 61.971 C 372.595 62.850,373.238 64.218,371.166 66.578 C 366.238 72.190,352.779 72.553,347.178 67.225 C 344.245 64.435,344.931 63.320,351.000 61.016 C 353.200 60.181,355.630 59.252,356.400 58.953 C 358.171 58.265,359.764 58.528,363.800 60.176 M63.600 70.216 C 63.600 74.547,54.897 78.779,45.960 78.795 C 41.011 78.803,38.666 77.515,42.709 77.010 C 49.810 76.123,55.878 74.038,60.600 70.865 C 61.707 70.121,63.600 69.712,63.600 70.216 M365.805 105.052 C 368.515 108.639,368.329 111.295,365.332 111.836 C 363.902 112.093,362.000 109.223,362.000 106.807 C 362.000 104.059,364.265 103.014,365.805 105.052 M297.600 105.230 C 297.600 105.677,298.050 106.705,298.600 107.514 L 299.600 108.986 299.600 107.157 C 299.600 105.595,299.454 105.262,298.600 104.873 C 297.712 104.468,297.600 104.508,297.600 105.230 M300.571 141.724 C 298.355 143.629,298.978 148.504,301.342 147.756 C 303.108 147.197,305.600 144.461,305.600 143.081 C 305.600 141.040,302.377 140.170,300.571 141.724 M49.570 277.944 C 50.208 279.137,49.630 281.290,48.107 283.388 L 46.694 285.336 46.133 284.266 C 45.333 282.739,45.839 279.325,47.044 278.120 C 48.157 277.007,49.036 276.945,49.570 277.944 M44.730 300.748 C 47.026 302.204,44.910 306.240,42.398 305.199 C 41.293 304.742,40.578 302.800,41.514 302.800 C 41.686 302.800,42.146 302.260,42.536 301.600 C 43.264 300.369,43.802 300.160,44.730 300.748 M54.200 313.983 C 57.906 315.169,61.982 317.329,63.512 318.917 C 72.444 328.187,67.499 340.212,58.376 331.405 C 54.728 327.883,52.717 327.590,47.302 329.790 C 44.034 331.118,41.979 331.069,37.927 329.566 C 32.636 327.603,30.803 327.895,27.310 331.260 C 23.716 334.721,22.063 335.065,19.718 332.840 C 14.870 328.238,25.108 315.781,35.710 313.382 C 39.711 312.477,50.601 312.830,54.200 313.983 M369.154 314.439 C 380.745 317.404,388.600 327.847,383.761 333.860 C 381.062 337.215,378.139 337.032,374.625 333.286 C 370.722 329.127,369.367 328.850,363.428 331.000 C 361.301 331.770,359.115 332.400,358.572 332.400 C 358.028 332.400,355.971 331.770,354.000 331.000 C 348.294 328.770,346.437 329.063,342.873 332.754 C 338.788 336.983,335.205 336.993,332.837 332.781 C 328.210 324.548,338.928 316.250,357.800 313.454 C 359.989 313.130,366.110 313.661,369.154 314.439 M186.759 323.523 C 186.971 323.920,188.913 326.039,191.073 328.232 C 193.233 330.424,195.982 333.263,197.183 334.541 C 202.180 339.861,208.408 338.776,211.158 332.107 C 212.100 329.824,211.869 329.721,205.332 329.507 C 198.493 329.284,196.853 328.844,192.600 326.092 C 187.391 322.721,186.003 322.110,186.759 323.523 M37.837 333.637 C 41.106 334.795,43.946 334.793,47.886 333.629 C 53.037 332.108,54.000 332.948,54.000 338.966 C 54.000 342.089,54.075 342.378,55.300 343.982 C 58.194 347.772,58.559 349.331,57.235 352.247 C 55.646 355.746,53.004 356.116,47.908 353.554 C 45.488 352.337,44.153 351.908,42.790 351.908 C 41.400 351.908,40.181 352.313,37.839 353.554 C 30.334 357.530,24.505 351.840,29.448 345.364 C 31.612 342.530,32.134 340.996,31.854 338.309 C 31.329 333.287,33.052 331.941,37.837 333.637 M354.115 335.005 C 358.002 336.246,359.038 336.246,363.200 335.000 C 368.734 333.344,369.600 333.953,369.600 339.500 C 369.600 342.979,369.629 343.085,371.393 346.018 C 376.092 353.830,371.704 358.743,363.551 354.800 C 359.297 352.743,357.792 352.713,354.140 354.617 C 348.668 357.469,345.919 357.271,344.396 353.915 C 343.174 351.222,343.348 349.235,345.008 346.944 C 347.244 343.857,347.600 342.767,347.600 339.013 C 347.600 333.756,348.490 333.209,354.115 335.005 M46.310 357.654 C 47.569 358.123,49.680 358.860,51.000 359.291 C 56.959 361.236,56.800 361.146,56.800 362.587 C 56.800 369.333,38.600 371.659,31.666 365.799 C 27.732 362.475,28.529 361.668,40.000 357.361 C 42.015 356.604,43.705 356.683,46.310 357.654 M363.858 359.575 C 366.026 360.441,368.644 361.360,369.675 361.616 C 376.688 363.360,369.709 370.038,360.200 370.682 C 351.264 371.288,341.655 365.088,347.200 362.295 C 356.112 357.804,358.464 357.420,363.858 359.575 M387.419 370.426 C 386.413 371.352,384.976 373.120,384.223 374.355 C 382.626 376.977,381.043 378.548,378.000 380.528 C 372.574 384.058,372.434 386.000,377.605 386.000 C 384.278 386.000,393.094 380.859,394.225 376.309 C 395.644 370.597,391.303 366.845,387.419 370.426 " stroke="none" fill="#8c8e88" fill-rule="evenodd"></path><path id="path1" d="M226.967 76.594 C 226.406 77.450,226.378 77.948,226.769 80.189 C 227.862 86.466,228.388 92.755,227.994 94.833 C 227.354 98.206,227.532 102.341,228.432 105.000 C 229.812 109.079,230.067 110.761,230.431 118.200 C 230.625 122.160,231.062 127.070,231.403 129.111 C 231.954 132.422,231.957 133.197,231.425 136.311 C 229.662 146.641,229.397 153.078,230.560 157.267 C 231.523 160.732,231.292 167.522,229.992 174.019 L 229.067 178.638 229.946 182.267 C 231.175 187.338,231.375 189.578,230.823 192.056 C 230.560 193.235,230.095 195.280,229.791 196.600 C 229.486 197.920,229.042 201.863,228.804 205.362 C 228.565 208.861,228.281 211.869,228.172 212.045 C 228.063 212.221,228.273 214.557,228.637 217.235 C 229.252 221.754,229.253 222.395,228.645 226.152 C 228.285 228.378,227.817 232.360,227.604 235.000 C 227.392 237.640,227.020 240.700,226.776 241.800 C 226.533 242.900,226.193 245.240,226.021 247.000 C 225.849 248.760,225.584 250.763,225.433 251.450 C 225.280 252.147,225.448 254.361,225.812 256.450 C 226.549 260.673,226.644 271.707,226.005 278.801 C 225.797 281.110,225.621 284.923,225.613 287.274 C 225.606 289.625,225.408 292.052,225.174 292.669 C 224.939 293.285,224.647 295.232,224.524 296.995 C 224.203 301.605,224.533 301.932,230.004 302.440 C 242.289 303.578,246.717 307.439,248.449 318.523 C 250.312 330.442,245.838 340.186,232.466 353.332 C 228.800 356.936,223.640 362.121,221.000 364.855 C 218.360 367.589,214.760 371.121,213.000 372.704 C 209.609 375.753,208.594 377.391,208.169 380.500 C 208.026 381.545,207.769 382.400,207.598 382.400 C 207.427 382.400,207.178 382.834,207.045 383.364 C 206.412 385.885,199.680 387.082,196.191 385.293 C 193.209 383.765,192.642 382.795,192.355 378.736 C 192.133 375.599,191.949 374.925,190.950 373.593 C 188.324 370.093,183.400 364.591,176.994 358.001 C 160.688 341.227,157.463 335.592,157.420 323.800 C 157.383 313.625,159.254 308.503,165.370 302.031 C 170.457 296.650,170.057 299.429,170.467 266.600 C 170.489 264.840,170.283 262.140,170.009 260.600 C 169.617 258.402,169.611 256.638,169.978 252.400 C 170.374 247.834,170.343 245.949,169.780 240.200 C 169.008 232.313,169.200 227.402,170.429 223.600 C 171.094 221.541,171.296 219.751,171.397 215.000 C 171.468 211.642,171.818 207.444,172.192 205.467 C 173.156 200.374,173.089 197.618,171.884 192.800 C 170.883 188.796,170.815 187.844,170.434 172.400 C 170.121 159.751,169.890 155.630,169.378 153.600 C 168.419 149.797,168.222 145.915,168.842 143.065 C 169.635 139.424,169.467 136.254,168.287 132.560 C 166.781 127.851,166.056 117.376,166.965 113.475 C 167.778 109.989,167.769 107.496,166.934 104.773 C 165.842 101.209,166.055 97.748,167.781 91.000 C 171.189 77.674,170.089 75.532,161.800 79.362 C 145.680 86.810,132.988 104.120,129.363 123.600 C 128.107 130.350,127.948 144.066,128.153 227.800 C 128.226 257.420,127.620 333.425,127.207 346.400 C 126.935 354.971,126.831 366.146,126.973 371.600 C 127.446 389.747,125.471 394.818,117.446 396.052 C 110.988 397.046,22.596 396.655,15.015 395.599 C 11.985 395.176,10.651 394.632,8.200 392.816 C 7.320 392.164,6.082 391.337,5.449 390.979 C 4.816 390.620,3.695 389.778,2.958 389.108 C -0.211 386.223,0.000 385.919,0.000 393.377 L 0.000 400.000 200.000 400.000 L 400.000 400.000 400.000 396.000 C 400.000 391.505,399.864 391.346,397.956 393.610 C 395.496 396.531,394.349 396.993,390.000 396.816 C 385.367 396.628,387.508 396.625,332.400 396.897 C 279.201 397.159,281.132 397.295,277.941 393.041 C 275.247 389.448,275.011 388.056,274.915 375.200 C 274.869 368.930,274.758 354.080,274.670 342.200 C 274.519 321.964,273.891 296.547,273.385 290.200 C 273.263 288.660,273.322 283.800,273.517 279.400 C 273.712 275.000,273.738 268.520,273.573 265.000 C 272.880 250.178,272.382 215.337,272.261 173.200 C 272.134 128.780,272.121 128.147,271.263 124.124 C 267.343 105.732,257.941 90.566,244.995 81.752 C 236.896 76.239,228.731 73.902,226.967 76.594 " stroke="none" fill="#1c1d1c" fill-rule="evenodd"></path><path id="path2" d="M127.612 0.968 C 127.410 1.500,126.948 2.101,126.586 2.304 C 125.433 2.949,126.013 4.536,127.600 5.077 C 130.620 6.107,140.627 4.996,141.133 3.574 C 141.207 3.368,141.712 3.200,142.257 3.200 C 142.802 3.200,143.146 3.037,143.023 2.838 C 142.892 2.625,142.230 2.650,141.419 2.899 C 139.688 3.430,136.023 2.386,134.590 0.954 C 133.147 -0.489,128.162 -0.479,127.612 0.968 M152.400 0.392 C 152.070 0.600,151.800 0.925,151.800 1.114 C 151.800 1.303,151.501 1.756,151.136 2.122 C 150.366 2.891,150.578 4.210,151.539 4.640 C 151.903 4.802,158.680 5.060,166.600 5.215 C 178.326 5.443,181.355 5.616,182.914 6.147 C 185.287 6.956,188.970 6.985,191.942 6.217 C 193.184 5.896,195.460 5.453,197.000 5.232 C 201.307 4.614,202.411 4.341,202.172 3.955 C 201.663 3.131,206.693 3.724,209.400 4.808 C 209.840 4.985,211.370 5.338,212.800 5.595 C 214.230 5.851,216.246 6.243,217.281 6.466 C 218.316 6.688,219.371 6.742,219.626 6.584 C 219.881 6.426,220.205 6.485,220.347 6.714 C 220.489 6.944,222.224 7.239,224.202 7.371 C 226.181 7.503,228.610 7.780,229.600 7.988 C 231.936 8.478,235.727 8.469,238.000 7.969 C 238.990 7.751,241.870 7.417,244.400 7.225 C 251.135 6.717,256.189 4.646,254.593 3.050 C 254.235 2.693,254.091 2.400,254.271 2.399 C 254.452 2.399,253.970 1.859,253.200 1.200 L 251.800 0.002 230.749 0.001 C 209.748 0.000,207.849 0.116,209.061 1.327 C 209.200 1.467,208.974 1.707,208.557 1.861 C 208.141 2.016,207.677 2.325,207.527 2.550 C 206.936 3.436,202.016 3.362,200.781 2.449 C 200.149 1.982,199.400 1.597,199.116 1.594 C 198.722 1.589,198.731 1.504,199.154 1.237 C 199.598 0.955,199.544 0.798,198.880 0.443 C 197.822 -0.123,187.600 -0.162,187.600 0.400 C 187.600 0.620,187.229 0.800,186.776 0.800 C 186.323 0.800,186.064 0.980,186.200 1.200 C 186.624 1.886,184.843 1.638,183.154 0.776 C 181.558 -0.038,181.070 0.032,180.000 1.223 C 178.499 2.894,172.606 2.853,171.200 1.161 C 170.399 0.196,168.693 0.000,161.126 0.006 C 156.657 0.009,152.730 0.183,152.400 0.392 M144.353 1.900 C 144.327 2.065,144.327 2.335,144.353 2.500 C 144.379 2.665,144.184 2.800,143.920 2.800 C 143.562 2.800,143.556 2.916,143.893 3.253 C 144.142 3.502,144.668 3.583,145.062 3.432 C 145.671 3.198,145.690 3.102,145.189 2.785 C 144.710 2.482,144.750 2.410,145.400 2.400 C 146.064 2.390,146.098 2.322,145.600 2.000 C 144.876 1.532,144.417 1.495,144.353 1.900 M39.180 16.401 C 34.135 17.197,29.828 19.570,26.878 23.178 C 24.129 26.540,24.465 27.031,29.400 26.868 C 33.080 26.746,33.765 26.851,37.957 28.175 C 42.972 29.760,43.443 29.759,48.024 28.162 C 52.598 26.568,54.152 26.541,58.356 27.985 C 63.251 29.666,64.179 29.088,62.349 25.499 C 58.998 18.932,48.720 14.896,39.180 16.401 M351.645 18.232 C 346.099 19.724,340.088 24.677,341.349 26.717 C 341.472 26.916,343.380 26.993,345.589 26.886 C 349.376 26.704,349.818 26.769,353.303 28.018 C 357.788 29.627,359.655 29.656,363.400 28.177 C 366.199 27.072,369.049 26.852,375.000 27.284 C 377.240 27.446,377.412 26.059,375.439 23.754 C 371.299 18.917,359.382 16.152,351.645 18.232 M36.600 316.564 C 32.695 317.531,28.586 320.197,27.480 322.480 C 26.586 324.325,27.083 324.658,31.103 324.902 C 33.642 325.057,35.512 325.456,37.927 326.358 C 42.061 327.901,43.364 327.907,47.935 326.400 C 52.186 324.999,54.383 324.908,58.125 325.978 C 61.964 327.076,62.625 326.662,61.459 323.887 C 58.977 317.981,46.141 314.200,36.600 316.564 M354.000 317.401 C 346.590 318.898,339.666 323.269,340.083 326.186 C 340.211 327.075,339.879 327.055,346.334 326.555 C 349.485 326.310,349.918 326.380,354.205 327.828 L 358.742 329.359 363.575 327.824 C 369.006 326.100,370.527 326.074,374.807 327.635 C 378.287 328.904,379.218 327.972,377.614 324.827 C 374.617 318.953,363.547 315.471,354.000 317.401 " stroke="none" fill="#d5d8d3" fill-rule="evenodd"></path><path id="path3" d="M399.372 18.921 C 397.925 20.581,397.540 25.527,398.700 27.565 C 399.838 29.564,400.000 29.068,400.000 23.600 C 400.000 20.740,399.955 18.407,399.900 18.415 C 399.845 18.424,399.607 18.651,399.372 18.921 M398.822 48.306 C 398.274 50.194,397.263 51.878,396.708 51.827 C 396.547 51.812,396.007 52.610,395.508 53.600 C 394.755 55.092,394.412 55.396,393.500 55.378 C 392.888 55.365,392.400 55.572,392.400 55.844 C 392.400 56.113,392.180 56.407,391.911 56.496 C 391.601 56.600,391.365 57.801,391.265 59.782 C 391.164 61.788,391.249 62.817,391.505 62.659 C 391.724 62.524,392.009 62.944,392.139 63.594 C 392.269 64.244,392.741 65.141,393.188 65.588 C 393.666 66.066,394.003 66.935,394.008 67.700 C 394.012 68.415,394.502 71.070,395.096 73.600 C 396.068 77.738,396.160 78.762,396.008 83.800 C 395.685 94.476,396.124 102.390,397.560 111.800 C 397.795 113.340,398.054 116.760,398.135 119.400 C 398.248 123.052,398.465 124.583,399.042 125.800 C 399.792 127.384,399.801 126.998,399.902 87.222 C 399.958 65.124,399.862 46.902,399.688 46.728 C 399.514 46.554,399.124 47.264,398.822 48.306 M180.600 69.427 C 180.160 69.526,178.810 69.805,177.600 70.046 C 153.757 74.800,132.723 96.884,127.355 122.800 L 126.319 127.800 126.189 152.600 C 126.118 166.240,126.073 186.850,126.089 198.400 C 126.105 209.950,126.122 223.360,126.128 228.200 C 126.159 256.660,125.558 334.541,125.303 334.934 C 125.136 335.190,124.910 346.830,124.800 360.800 L 124.600 386.200 123.673 388.247 C 121.309 393.470,116.643 394.757,102.000 394.223 C 98.150 394.082,91.220 394.147,86.600 394.367 C 74.953 394.922,19.938 393.712,16.000 392.814 C 10.073 391.464,0.800 383.231,0.800 379.320 C 0.800 378.814,0.620 378.400,0.400 378.400 C 0.159 378.400,0.000 380.051,0.000 382.553 L 0.000 386.705 1.300 387.712 C 2.015 388.265,2.977 389.078,3.438 389.517 C 3.898 389.956,4.798 390.611,5.438 390.973 C 6.077 391.335,7.320 392.164,8.200 392.816 C 10.651 394.632,11.985 395.176,15.015 395.599 C 22.596 396.655,110.988 397.046,117.446 396.052 C 125.471 394.818,127.446 389.747,126.973 371.600 C 126.831 366.146,126.935 354.971,127.207 346.400 C 127.620 333.425,128.226 257.420,128.153 227.800 C 127.948 144.066,128.107 130.350,129.363 123.600 C 132.988 104.120,145.680 86.810,161.800 79.362 C 170.089 75.532,171.189 77.674,167.781 91.000 C 166.055 97.748,165.842 101.209,166.934 104.773 C 167.769 107.496,167.778 109.989,166.965 113.475 C 166.056 117.376,166.781 127.851,168.287 132.560 C 169.467 136.254,169.635 139.424,168.842 143.065 C 168.222 145.915,168.419 149.797,169.378 153.600 C 169.890 155.630,170.121 159.751,170.434 172.400 C 170.815 187.844,170.883 188.796,171.884 192.800 C 173.089 197.618,173.156 200.374,172.192 205.467 C 171.818 207.444,171.468 211.642,171.397 215.000 C 171.296 219.751,171.094 221.541,170.429 223.600 C 169.200 227.402,169.008 232.313,169.780 240.200 C 170.343 245.949,170.374 247.834,169.978 252.400 C 169.611 256.638,169.617 258.402,170.009 260.600 C 170.283 262.140,170.489 264.840,170.467 266.600 C 170.057 299.429,170.457 296.650,165.370 302.031 C 159.254 308.503,157.383 313.625,157.420 323.800 C 157.463 335.592,160.688 341.227,176.994 358.001 C 183.400 364.591,188.324 370.093,190.950 373.593 C 191.949 374.925,192.133 375.599,192.355 378.736 C 192.642 382.795,193.209 383.765,196.191 385.293 C 199.680 387.082,206.412 385.885,207.045 383.364 C 207.178 382.834,207.427 382.400,207.598 382.400 C 207.769 382.400,208.026 381.545,208.169 380.500 C 208.594 377.391,209.609 375.753,213.000 372.704 C 214.760 371.121,218.360 367.589,221.000 364.855 C 223.640 362.121,228.800 356.936,232.466 353.332 C 245.838 340.186,250.312 330.442,248.449 318.523 C 246.717 307.439,242.289 303.578,230.004 302.440 C 224.533 301.932,224.203 301.605,224.524 296.995 C 224.647 295.232,224.939 293.285,225.174 292.669 C 225.408 292.052,225.606 289.625,225.613 287.274 C 225.621 284.923,225.797 281.110,226.005 278.801 C 226.644 271.707,226.549 260.673,225.812 256.450 C 225.448 254.361,225.280 252.147,225.433 251.450 C 225.584 250.763,225.849 248.760,226.021 247.000 C 226.193 245.240,226.533 242.900,226.776 241.800 C 227.020 240.700,227.392 237.640,227.604 235.000 C 227.817 232.360,228.285 228.378,228.645 226.152 C 229.253 222.395,229.252 221.754,228.637 217.235 C 228.273 214.557,228.063 212.221,228.172 212.045 C 228.281 211.869,228.565 208.861,228.804 205.362 C 229.042 201.863,229.486 197.920,229.791 196.600 C 230.095 195.280,230.560 193.235,230.823 192.056 C 231.375 189.578,231.175 187.338,229.946 182.267 L 229.067 178.638 229.992 174.019 C 231.292 167.522,231.523 160.732,230.560 157.267 C 229.397 153.078,229.662 146.641,231.425 136.311 C 231.957 133.197,231.954 132.422,231.403 129.111 C 231.062 127.070,230.625 122.160,230.431 118.200 C 230.067 110.761,229.812 109.079,228.432 105.000 C 227.532 102.341,227.354 98.206,227.994 94.833 C 228.388 92.755,227.862 86.466,226.769 80.189 C 225.954 75.512,228.189 74.451,234.658 76.446 C 248.902 80.838,262.469 96.085,268.583 114.570 C 272.361 125.992,272.115 122.072,272.261 173.200 C 272.382 215.337,272.880 250.178,273.573 265.000 C 273.738 268.520,273.712 275.000,273.517 279.400 C 273.322 283.800,273.263 288.660,273.385 290.200 C 273.891 296.547,274.519 321.964,274.670 342.200 C 274.758 354.080,274.869 368.930,274.915 375.200 C 275.011 388.056,275.247 389.448,277.941 393.041 C 281.132 397.295,279.201 397.159,332.400 396.897 C 387.787 396.624,385.397 396.627,390.000 396.829 C 394.368 397.021,394.870 396.811,398.116 393.438 L 400.032 391.447 399.916 388.632 L 399.800 385.817 396.800 388.752 C 393.812 391.676,391.058 393.304,388.307 393.772 C 385.351 394.276,341.427 394.816,313.784 394.689 L 284.168 394.553 282.329 393.662 C 280.255 392.658,278.609 390.566,277.828 387.939 C 277.257 386.019,276.489 347.230,276.733 332.600 C 276.807 328.200,276.674 320.910,276.439 316.400 C 275.361 295.739,275.130 285.407,275.565 277.400 C 275.918 270.905,275.883 267.557,275.382 259.600 C 274.894 251.847,274.728 238.229,274.588 194.400 C 274.352 120.334,274.576 123.827,269.160 109.761 C 259.458 84.565,232.835 65.837,212.026 69.569 C 208.523 70.198,207.446 71.033,207.535 73.052 C 207.572 73.903,207.311 75.976,206.953 77.657 C 206.209 81.156,206.615 84.982,208.021 87.712 C 208.501 88.643,208.800 90.028,208.800 91.315 C 208.800 92.465,209.248 95.024,209.795 97.003 C 210.545 99.715,210.792 101.585,210.797 104.600 C 210.802 107.886,210.946 108.834,211.601 109.910 C 212.041 110.630,212.400 111.412,212.400 111.647 C 212.400 111.882,212.750 112.518,213.177 113.061 C 214.579 114.844,214.960 118.016,214.192 121.522 C 213.822 123.215,213.380 126.683,213.211 129.230 C 213.042 131.776,212.679 134.279,212.404 134.792 C 211.727 136.057,211.707 139.572,212.356 143.199 C 212.730 145.290,212.792 147.107,212.562 149.199 C 212.380 150.850,212.221 157.060,212.209 163.000 C 212.185 174.157,212.111 174.765,210.349 178.248 C 209.901 179.134,210.043 181.861,210.731 185.600 C 212.638 195.957,212.514 219.898,210.527 224.739 C 209.774 226.575,208.165 227.995,204.600 229.972 C 203.060 230.826,200.990 232.272,200.000 233.185 C 199.010 234.099,197.792 235.013,197.293 235.216 C 196.794 235.419,196.213 236.039,196.003 236.593 C 195.733 237.302,195.321 237.600,194.610 237.600 C 194.054 237.600,193.600 237.780,193.600 238.000 C 193.600 238.220,193.330 238.400,193.000 238.400 C 192.670 238.400,192.400 238.692,192.400 239.049 C 192.400 239.547,192.275 239.594,191.863 239.252 C 191.568 239.007,191.216 238.917,191.082 239.051 C 190.482 239.651,188.000 238.759,188.000 237.944 C 188.000 237.493,187.614 236.581,187.141 235.917 C 186.251 234.667,185.444 231.761,184.687 227.081 C 184.172 223.896,184.673 215.811,185.995 206.000 C 186.802 200.003,186.808 199.669,186.152 195.800 C 185.779 193.600,185.467 190.450,185.460 188.800 C 185.447 185.928,185.453 179.363,185.475 173.400 C 185.484 171.012,185.731 170.028,187.160 166.711 C 190.141 159.788,190.362 156.664,188.318 150.318 C 187.391 147.441,187.393 147.400,188.798 142.000 C 189.397 139.696,189.149 136.567,188.227 134.791 C 187.023 132.471,187.280 119.137,188.606 115.136 C 189.840 111.414,189.548 105.751,188.022 103.803 C 186.640 102.041,186.606 95.774,187.954 91.511 C 190.239 84.284,190.401 83.009,189.388 80.200 C 188.637 78.114,188.646 75.267,189.409 73.440 C 190.193 71.565,189.742 70.689,187.674 70.070 C 185.875 69.530,181.786 69.159,180.600 69.427 M399.466 242.070 C 399.341 242.548,399.404 243.223,399.607 243.570 C 399.879 244.035,399.979 243.808,399.988 242.700 C 400.002 241.013,399.804 240.775,399.466 242.070 M202.256 242.600 C 203.259 243.257,203.597 246.003,202.859 247.505 C 202.671 247.887,202.176 248.912,201.759 249.781 C 201.341 250.651,200.607 251.833,200.126 252.408 C 199.645 252.983,199.128 253.947,198.977 254.550 C 198.826 255.153,198.265 255.932,197.731 256.282 C 196.401 257.153,196.502 260.381,197.878 260.985 C 198.361 261.197,198.868 261.817,199.005 262.362 C 199.142 262.907,199.558 263.633,199.930 263.976 C 202.713 266.541,202.493 275.386,199.489 281.700 C 198.543 283.689,197.782 284.800,197.365 284.800 C 197.007 284.800,196.361 285.250,195.929 285.800 C 194.127 288.090,191.741 285.271,191.020 280.000 C 190.884 279.010,190.588 277.300,190.361 276.200 C 189.083 269.999,189.289 255.242,190.668 254.200 C 190.981 253.964,191.344 252.344,191.555 250.240 C 191.815 247.654,192.089 246.582,192.556 246.320 C 192.910 246.122,193.200 245.519,193.200 244.980 C 193.200 244.441,193.380 244.000,193.600 244.000 C 193.820 244.000,194.000 243.795,194.000 243.544 C 194.000 242.070,200.340 241.344,202.256 242.600 M0.006 264.324 C 0.002 273.639,0.136 278.363,0.400 278.200 C 0.620 278.064,0.800 277.580,0.800 277.124 C 0.800 276.668,1.205 275.643,1.700 274.847 C 3.023 272.719,3.023 266.150,1.700 263.806 C 0.891 262.373,0.799 261.667,0.794 256.806 C 0.791 253.833,0.613 251.130,0.400 250.800 C 0.146 250.406,0.010 255.057,0.006 264.324 M399.153 262.517 C 397.318 265.049,397.360 273.920,399.216 275.789 C 399.995 276.572,400.000 276.527,400.000 269.089 C 400.000 264.970,399.955 261.606,399.900 261.613 C 399.845 261.619,399.509 262.026,399.153 262.517 M178.174 305.241 C 179.040 305.482,181.560 306.450,183.774 307.392 C 185.988 308.334,189.188 309.681,190.885 310.384 C 193.296 311.383,194.433 312.153,196.085 313.904 C 203.562 321.829,202.093 321.960,220.200 311.755 C 232.608 304.761,239.851 305.473,243.939 314.086 C 249.303 325.390,244.327 337.901,228.425 353.086 C 225.249 356.119,221.379 359.833,219.825 361.340 C 209.485 371.366,200.498 372.395,190.200 364.732 C 183.191 359.515,169.504 345.960,165.926 340.691 C 154.018 323.155,161.780 300.690,178.174 305.241 M0.000 328.600 C 0.000 332.848,0.318 333.301,1.328 330.492 C 1.965 328.721,1.968 328.448,1.369 326.692 C 0.397 323.839,0.000 324.393,0.000 328.600 M0.000 340.800 C 0.000 345.281,0.315 345.697,1.545 342.839 L 2.388 340.879 1.541 338.839 C 0.316 335.892,0.000 336.294,0.000 340.800 " stroke="none" fill="#3c3c38" fill-rule="evenodd"></path><path id="path4" d="M7.781 0.900 C 7.631 1.395,6.989 2.285,6.354 2.877 C 4.586 4.528,4.764 6.077,6.900 7.634 C 11.313 10.851,13.517 11.264,19.755 10.046 C 25.997 8.826,30.297 9.040,31.906 10.649 C 33.062 11.805,32.081 13.036,26.258 17.733 C 16.061 25.958,14.131 28.947,16.301 33.156 C 18.421 37.269,23.646 37.382,26.958 33.388 C 29.878 29.866,32.736 29.284,37.600 31.224 C 41.593 32.816,43.368 33.034,45.600 32.206 C 53.432 29.301,54.205 29.362,58.196 33.199 C 62.482 37.320,63.125 37.497,67.063 35.634 C 70.174 34.163,71.600 32.034,71.600 28.865 C 71.600 27.729,71.449 26.800,71.264 26.800 C 71.080 26.800,70.744 26.395,70.518 25.900 C 70.293 25.405,67.728 22.516,64.819 19.480 C 61.242 15.747,59.606 13.762,59.765 13.347 C 59.894 13.010,60.000 12.666,60.000 12.583 C 60.000 11.677,67.053 11.476,73.254 12.206 C 73.833 12.274,77.073 12.076,80.454 11.766 C 85.946 11.262,87.148 11.271,91.751 11.853 C 96.532 12.457,97.311 12.455,102.593 11.835 C 108.585 11.131,111.033 11.277,115.354 12.597 C 118.326 13.505,125.035 14.122,132.800 14.200 C 136.650 14.239,140.192 14.398,140.670 14.553 C 141.149 14.708,143.219 14.544,145.270 14.187 C 150.367 13.303,164.607 14.978,166.493 16.684 C 167.840 17.903,168.449 21.999,167.540 23.726 C 166.849 25.039,166.439 25.187,163.480 25.194 C 158.221 25.206,157.186 26.561,156.754 34.000 C 155.593 53.973,155.472 54.584,151.704 59.547 C 145.239 68.062,146.553 72.727,154.200 68.405 C 159.841 65.217,163.075 63.685,166.400 62.627 C 168.270 62.032,171.870 60.631,174.400 59.513 C 179.324 57.339,179.611 57.281,190.862 56.195 C 197.548 55.550,209.064 56.365,213.329 57.786 C 215.719 58.582,219.417 59.200,221.789 59.200 C 224.142 59.200,227.610 60.028,230.086 61.181 C 233.392 62.720,235.431 63.268,239.071 63.593 C 243.416 63.981,244.289 64.432,246.995 67.685 C 248.092 69.004,250.432 71.150,252.195 72.454 C 257.803 76.601,258.369 77.178,261.666 82.098 C 263.443 84.752,266.213 88.329,267.820 90.048 C 275.691 98.464,281.230 114.687,282.406 132.772 C 282.615 135.978,282.962 140.400,283.178 142.600 C 283.452 145.389,283.430 148.322,283.106 152.288 C 282.639 157.997,282.789 160.455,283.991 166.800 C 284.297 168.419,284.235 172.118,283.755 180.800 C 283.268 189.618,283.180 195.076,283.407 202.400 C 283.575 207.790,283.732 215.980,283.756 220.600 C 283.891 246.439,286.533 253.073,291.612 240.334 C 292.343 238.500,294.080 234.799,295.471 232.110 C 298.813 225.648,298.853 224.609,295.941 220.151 C 292.504 214.892,292.731 213.342,297.628 208.600 C 303.339 203.069,304.495 197.732,301.400 191.184 C 299.638 187.456,299.549 186.599,300.159 179.200 L 300.472 175.400 298.590 171.600 C 296.393 167.164,296.156 165.262,297.645 164.022 C 299.830 162.202,302.171 163.792,304.830 168.904 C 307.931 174.868,309.254 174.987,317.173 170.015 C 319.840 168.340,320.370 168.211,323.935 168.372 C 326.793 168.500,328.189 167.857,329.115 165.987 C 330.462 163.263,327.870 161.155,320.032 158.598 C 317.103 157.642,314.781 155.428,313.426 152.299 C 312.831 150.925,312.186 149.440,311.994 149.000 C 309.321 142.894,309.352 143.095,310.574 139.598 C 311.850 135.945,311.898 133.129,310.731 130.304 C 309.909 128.315,309.859 127.535,309.801 116.000 C 309.734 102.524,309.793 102.870,307.027 99.800 C 304.356 96.836,303.801 95.172,303.801 90.133 L 303.800 85.667 301.656 81.533 C 298.329 75.118,294.737 70.832,288.941 66.361 C 282.092 61.079,280.854 53.852,285.977 49.060 C 288.658 46.553,289.034 46.689,291.200 50.957 C 295.154 58.748,298.243 56.078,297.913 45.154 C 297.713 38.536,297.561 38.117,294.689 36.259 C 289.954 33.197,288.880 30.499,290.208 25.000 C 291.102 21.299,290.980 19.936,289.600 18.200 C 286.451 14.237,289.627 12.039,299.200 11.555 C 304.330 11.296,308.911 10.816,312.000 10.213 C 315.145 9.599,328.847 8.824,335.200 8.901 C 342.096 8.984,342.886 8.917,346.800 7.911 C 352.021 6.569,361.326 5.896,369.616 6.261 C 375.583 6.524,376.807 6.362,380.083 4.874 C 381.701 4.139,382.318 3.247,382.489 1.400 L 382.600 0.200 364.847 0.096 C 346.422 -0.012,345.264 0.085,346.239 1.663 C 346.547 2.162,343.719 4.800,342.876 4.800 C 342.420 4.800,341.941 4.972,341.811 5.182 C 341.503 5.681,332.350 5.606,331.704 5.099 C 331.241 4.734,327.628 4.861,324.400 5.354 C 322.301 5.675,304.238 6.366,297.480 6.384 C 293.060 6.396,291.270 6.550,290.415 6.992 C 288.320 8.076,282.278 8.521,276.983 7.983 C 265.349 6.799,260.130 7.043,254.800 9.019 C 244.227 12.939,221.131 14.883,219.200 12.016 C 218.920 11.600,214.291 10.176,211.296 9.584 C 207.179 8.770,198.205 9.461,190.200 11.207 C 185.597 12.211,179.087 12.131,175.200 11.022 C 170.199 9.595,167.277 9.200,161.600 9.186 C 158.352 9.178,154.392 8.918,152.600 8.594 C 148.490 7.851,146.722 7.857,143.126 8.624 C 139.025 9.500,127.615 9.540,125.400 8.687 C 124.520 8.348,123.170 7.953,122.400 7.809 C 121.630 7.665,120.370 7.424,119.600 7.274 C 117.530 6.869,110.380 7.020,105.697 7.567 C 102.201 7.975,100.813 7.946,96.297 7.368 C 91.549 6.760,90.156 6.744,82.861 7.213 C 76.290 7.635,73.582 7.641,68.801 7.240 C 64.916 6.914,60.288 6.838,55.340 7.020 C 50.479 7.199,46.734 7.141,44.800 6.858 C 43.150 6.616,40.630 6.312,39.200 6.183 C 37.770 6.053,35.340 5.701,33.800 5.401 C 27.920 4.256,25.660 4.249,21.029 5.366 C 12.314 7.466,10.339 6.597,12.332 1.541 C 12.879 0.153,12.663 0.000,10.160 0.000 C 8.323 0.000,8.019 0.115,7.781 0.900 M270.336 12.613 C 276.515 14.018,277.560 16.392,272.915 18.470 C 269.702 19.908,258.773 18.857,257.941 17.030 C 256.422 13.695,263.697 11.103,270.336 12.613 M52.000 15.155 C 60.302 17.761,68.527 26.810,66.335 30.926 C 65.056 33.327,62.980 33.409,59.870 31.182 C 55.422 27.997,53.152 27.696,47.935 29.600 C 46.127 30.260,43.906 30.800,43.000 30.800 C 42.094 30.800,39.873 30.260,38.065 29.600 C 32.894 27.713,30.055 27.980,25.605 30.771 C 20.866 33.742,18.217 31.049,21.242 26.335 C 27.460 16.644,41.031 11.712,52.000 15.155 M350.400 14.640 C 337.678 18.035,328.012 31.478,335.507 35.351 C 338.228 36.757,339.715 36.358,342.561 33.455 C 346.411 29.529,348.452 29.205,354.400 31.576 C 358.218 33.099,358.706 33.089,363.372 31.400 C 369.135 29.314,371.602 29.767,374.635 33.469 C 379.629 39.564,384.962 34.194,381.917 26.136 C 378.711 17.651,361.981 11.549,350.400 14.640 M366.600 17.218 C 375.262 19.924,380.007 24.047,380.074 28.926 C 380.120 32.230,378.346 32.523,374.232 29.889 C 371.256 27.984,368.279 27.905,363.531 29.603 C 359.259 31.131,357.354 31.085,353.200 29.352 C 349.127 27.653,346.458 27.800,342.787 29.925 C 337.371 33.061,334.700 30.667,337.931 25.573 C 342.851 17.815,356.127 13.946,366.600 17.218 M123.800 20.791 C 120.085 21.467,118.789 22.657,117.609 26.476 C 115.996 31.700,110.100 36.832,105.038 37.418 C 100.547 37.938,97.420 40.978,95.974 46.227 C 94.213 52.617,93.366 53.709,89.792 54.194 C 82.900 55.129,79.740 58.550,77.137 67.895 C 75.662 73.192,75.442 73.589,72.117 77.000 C 70.305 78.858,68.814 80.904,67.682 83.083 C 64.220 89.749,61.365 91.373,57.084 89.110 C 55.187 88.107,50.897 87.923,44.200 88.557 L 40.600 88.898 34.200 86.853 C 27.930 84.851,27.692 84.732,22.479 81.044 C 13.149 74.443,11.267 75.144,12.396 84.800 C 12.615 86.670,12.797 89.190,12.800 90.400 C 12.803 91.610,13.180 94.130,13.637 96.000 C 14.094 97.870,14.622 101.200,14.810 103.400 C 15.694 113.728,18.815 119.876,23.489 120.497 C 25.421 120.753,26.238 121.415,26.647 123.052 C 27.709 127.305,32.087 131.058,37.693 132.522 C 42.096 133.671,43.333 135.325,43.968 140.911 C 44.759 147.880,47.389 150.683,53.508 151.079 C 62.344 151.652,66.228 147.024,63.235 139.489 C 61.411 134.895,61.866 131.600,64.326 131.600 C 66.871 131.600,68.904 134.490,69.374 138.775 C 69.841 143.033,70.939 144.247,77.152 147.376 C 82.773 150.206,86.002 147.753,87.388 139.600 C 88.561 132.702,91.539 128.530,95.814 127.796 C 99.837 127.106,100.329 126.775,102.653 123.200 C 105.371 119.020,107.261 117.563,112.518 115.596 C 115.583 114.449,118.690 110.194,125.775 97.437 C 126.619 95.917,128.578 93.307,130.128 91.637 C 137.028 84.203,140.345 78.375,140.841 72.816 C 141.009 70.937,141.444 68.320,141.809 67.000 C 143.289 61.639,141.262 54.867,136.586 49.554 C 134.521 47.208,133.974 46.297,133.756 44.849 C 133.424 42.635,133.839 35.395,134.432 33.038 C 135.547 28.612,132.079 22.400,127.640 20.869 C 126.168 20.361,126.164 20.361,123.800 20.791 M143.659 21.156 C 141.858 22.514,140.760 26.020,141.623 27.658 C 143.880 31.940,151.671 27.910,149.835 23.410 C 148.943 21.224,145.321 19.902,143.659 21.156 M255.679 54.974 C 256.495 55.329,257.727 58.803,257.369 59.738 C 256.598 61.746,253.600 59.288,253.600 56.648 C 253.600 54.378,253.848 54.178,255.679 54.974 M42.011 58.727 C 41.467 58.811,39.667 59.419,38.011 60.079 C 36.355 60.740,33.878 61.628,32.507 62.054 C 25.357 64.274,31.858 70.536,41.899 71.101 C 53.307 71.743,62.484 64.192,53.204 61.798 C 51.776 61.430,49.526 60.687,48.204 60.147 C 45.331 58.975,43.353 58.521,42.011 58.727 M356.400 58.953 C 355.630 59.252,353.200 60.181,351.000 61.016 C 344.931 63.320,344.245 64.435,347.178 67.225 C 352.779 72.553,366.238 72.190,371.166 66.578 C 373.238 64.218,372.595 62.850,369.000 61.971 C 367.900 61.703,365.560 60.895,363.800 60.176 C 359.764 58.528,358.171 58.265,356.400 58.953 M361.258 61.989 C 369.521 64.556,367.895 68.600,358.600 68.600 C 349.627 68.600,348.059 64.298,356.114 61.780 C 358.351 61.081,358.331 61.081,361.258 61.989 M48.641 63.215 C 52.206 65.005,52.377 65.980,49.400 67.547 C 43.334 70.740,31.094 67.003,36.557 63.627 C 40.551 61.158,44.288 61.031,48.641 63.215 M109.826 97.400 C 110.411 100.516,109.066 102.800,106.647 102.800 C 104.563 102.800,104.400 102.536,104.400 99.157 L 104.400 96.000 106.982 96.000 L 109.564 96.000 109.826 97.400 M299.600 107.157 L 299.600 108.986 298.600 107.514 C 298.050 106.705,297.600 105.677,297.600 105.230 C 297.600 104.508,297.712 104.468,298.600 104.873 C 299.454 105.262,299.600 105.595,299.600 107.157 M286.661 110.188 C 287.826 111.003,288.158 112.400,287.188 112.400 C 286.649 112.400,286.417 112.749,286.325 113.700 C 286.256 114.415,286.020 115.000,285.800 115.000 C 285.580 115.000,285.344 114.415,285.275 113.700 C 285.197 112.895,284.931 112.400,284.575 112.400 C 283.798 112.400,283.848 111.231,284.662 110.331 C 285.462 109.448,285.592 109.439,286.661 110.188 M291.777 133.689 C 293.419 136.033,290.530 141.201,288.512 139.528 C 287.181 138.423,286.389 135.138,287.043 133.433 C 287.448 132.376,290.992 132.568,291.777 133.689 M304.784 141.675 C 305.813 142.779,305.808 143.295,304.750 144.907 C 302.124 148.914,298.910 148.763,299.305 144.651 C 299.627 141.292,302.815 139.561,304.784 141.675 M35.710 313.382 C 25.108 315.781,14.870 328.238,19.718 332.840 C 22.063 335.065,23.716 334.721,27.310 331.260 C 30.803 327.895,32.636 327.603,37.927 329.566 C 41.979 331.069,44.034 331.118,47.302 329.790 C 52.717 327.590,54.728 327.883,58.376 331.405 C 65.789 338.561,71.715 331.812,66.156 322.546 C 61.495 314.778,47.783 310.651,35.710 313.382 M357.800 313.454 C 338.928 316.250,328.210 324.548,332.837 332.781 C 335.205 336.993,338.788 336.983,342.873 332.754 C 346.437 329.063,348.294 328.770,354.000 331.000 C 355.971 331.770,358.028 332.400,358.572 332.400 C 359.115 332.400,361.301 331.770,363.428 331.000 C 369.367 328.850,370.722 329.127,374.625 333.286 C 380.869 339.940,387.844 333.721,383.871 325.042 C 380.515 317.712,367.652 311.994,357.800 313.454 M51.800 315.448 C 59.354 317.270,65.200 322.495,65.200 327.424 C 65.200 330.711,63.167 331.189,59.224 328.830 C 54.556 326.038,52.994 325.972,46.452 328.292 C 43.111 329.477,42.313 329.403,36.807 327.398 C 32.955 325.995,30.886 326.170,26.673 328.255 C 19.060 332.022,21.488 323.251,29.474 318.137 C 34.947 314.632,43.931 313.550,51.800 315.448 M364.010 315.623 C 373.479 316.805,380.787 322.009,381.741 328.250 C 381.939 329.547,381.825 330.115,381.206 330.901 C 379.736 332.770,378.826 332.589,373.737 329.414 C 370.890 327.638,367.987 327.566,363.673 329.166 C 359.523 330.705,357.632 330.721,353.910 329.248 C 348.382 327.060,346.519 327.186,342.131 330.045 C 338.003 332.734,335.186 331.947,335.775 328.268 C 336.750 322.170,345.048 317.044,356.200 315.651 C 360.171 315.155,360.257 315.155,364.010 315.623 M40.000 357.361 C 28.529 361.668,27.732 362.475,31.666 365.799 C 38.600 371.659,56.800 369.333,56.800 362.587 C 56.800 361.146,56.959 361.236,51.000 359.291 C 49.680 358.860,47.569 358.123,46.310 357.654 C 43.705 356.683,42.015 356.604,40.000 357.361 M352.800 359.813 C 345.002 363.111,344.561 363.562,346.564 366.188 C 348.783 369.097,354.720 371.054,360.200 370.682 C 369.709 370.038,376.688 363.360,369.675 361.616 C 368.644 361.360,366.026 360.441,363.858 359.575 C 358.921 357.603,357.981 357.623,352.800 359.813 M48.290 361.175 C 52.407 363.076,52.631 364.471,49.071 366.038 C 42.470 368.944,31.101 365.489,35.936 362.046 C 39.815 359.284,43.614 359.016,48.290 361.175 M363.719 362.334 C 367.906 364.233,368.048 365.910,364.168 367.647 C 357.748 370.521,346.888 366.483,352.203 363.198 C 356.528 360.525,359.274 360.319,363.719 362.334 " stroke="none" fill="#b4b4b4" fill-rule="evenodd"></path><path id="path5" d="M12.508 0.241 C 12.640 0.374,12.561 0.959,12.332 1.541 C 10.339 6.597,12.314 7.466,21.029 5.366 C 25.660 4.249,27.920 4.256,33.800 5.401 C 35.340 5.701,37.770 6.053,39.200 6.183 C 40.630 6.312,43.150 6.616,44.800 6.858 C 46.734 7.141,50.479 7.199,55.340 7.020 C 60.288 6.838,64.916 6.914,68.801 7.240 C 73.582 7.641,76.290 7.635,82.861 7.213 C 90.156 6.744,91.549 6.760,96.297 7.368 C 100.813 7.946,102.201 7.975,105.697 7.567 C 110.380 7.020,117.530 6.869,119.600 7.274 C 120.370 7.424,121.630 7.665,122.400 7.809 C 123.170 7.953,124.520 8.348,125.400 8.687 C 127.615 9.540,139.025 9.500,143.126 8.624 C 146.722 7.857,148.490 7.851,152.600 8.594 C 154.392 8.918,158.352 9.178,161.600 9.186 C 167.277 9.200,170.199 9.595,175.200 11.022 C 179.087 12.131,185.597 12.211,190.200 11.207 C 198.205 9.461,207.179 8.770,211.296 9.584 C 214.291 10.176,218.920 11.600,219.200 12.016 C 221.131 14.883,244.227 12.939,254.800 9.019 C 260.130 7.043,265.349 6.799,276.983 7.983 C 282.278 8.521,288.320 8.076,290.415 6.992 C 291.270 6.550,293.060 6.396,297.480 6.384 C 304.238 6.366,322.301 5.675,324.400 5.354 C 327.628 4.861,331.241 4.734,331.704 5.099 C 332.350 5.606,341.503 5.681,341.811 5.182 C 341.941 4.972,342.420 4.800,342.876 4.800 C 343.783 4.800,346.536 2.144,346.197 1.595 C 346.082 1.408,346.170 1.142,346.393 1.004 C 346.617 0.866,346.800 0.583,346.800 0.376 C 346.800 0.143,328.715 0.000,299.300 0.001 L 251.800 0.002 253.200 1.200 C 253.970 1.859,254.452 2.399,254.271 2.399 C 254.091 2.400,254.235 2.693,254.593 3.050 C 256.189 4.646,251.135 6.717,244.400 7.225 C 241.870 7.417,238.990 7.751,238.000 7.969 C 235.727 8.469,231.936 8.478,229.600 7.988 C 228.610 7.780,226.181 7.503,224.202 7.371 C 222.224 7.239,220.489 6.944,220.347 6.714 C 220.205 6.485,219.881 6.426,219.626 6.584 C 219.371 6.742,218.316 6.688,217.281 6.466 C 216.246 6.243,214.230 5.851,212.800 5.595 C 211.370 5.338,209.840 4.985,209.400 4.808 C 206.693 3.724,201.663 3.131,202.172 3.955 C 202.411 4.341,201.307 4.614,197.000 5.232 C 195.460 5.453,193.184 5.896,191.942 6.217 C 188.970 6.985,185.287 6.956,182.914 6.147 C 181.355 5.616,178.326 5.443,166.600 5.215 C 158.680 5.060,151.903 4.802,151.539 4.640 C 150.578 4.210,150.366 2.891,151.136 2.122 C 151.501 1.756,151.800 1.303,151.800 1.114 C 151.800 0.925,152.070 0.600,152.400 0.392 C 152.788 0.146,149.645 0.010,143.500 0.006 C 138.275 0.003,134.000 0.114,134.000 0.253 C 134.000 1.625,139.352 3.533,141.419 2.899 C 142.230 2.650,142.892 2.625,143.023 2.838 C 143.146 3.037,142.802 3.200,142.257 3.200 C 141.712 3.200,141.207 3.368,141.133 3.574 C 140.627 4.996,130.620 6.107,127.600 5.077 C 125.924 4.506,125.479 3.041,126.717 2.173 C 127.148 1.871,127.596 1.259,127.713 0.812 L 127.925 0.000 70.096 0.000 C 38.290 0.000,12.375 0.109,12.508 0.241 M170.200 0.478 C 170.640 0.727,171.090 1.037,171.200 1.166 C 172.876 3.134,178.231 2.876,180.575 0.715 C 181.323 0.026,181.136 0.000,175.375 0.012 C 170.712 0.022,169.576 0.124,170.200 0.478 M183.200 0.800 C 184.689 1.615,186.615 1.872,186.200 1.200 C 186.064 0.980,186.323 0.800,186.776 0.800 C 187.229 0.800,187.600 0.620,187.600 0.400 C 187.600 0.169,186.378 0.007,184.700 0.017 L 181.800 0.034 183.200 0.800 M198.948 0.459 C 199.552 0.810,199.590 0.960,199.148 1.241 C 198.726 1.508,198.718 1.589,199.116 1.594 C 199.400 1.597,200.149 1.982,200.781 2.449 C 202.016 3.362,206.936 3.436,207.527 2.550 C 207.677 2.325,208.141 2.016,208.557 1.861 C 208.974 1.707,209.200 1.467,209.061 1.327 C 208.921 1.188,209.007 0.832,209.252 0.537 C 209.622 0.092,208.714 0.002,203.949 0.012 C 199.614 0.021,198.384 0.131,198.948 0.459 M145.600 2.000 C 146.098 2.322,146.064 2.390,145.400 2.400 C 144.750 2.410,144.710 2.482,145.189 2.785 C 145.690 3.102,145.671 3.198,145.062 3.432 C 144.668 3.583,144.142 3.502,143.893 3.253 C 143.556 2.916,143.562 2.800,143.920 2.800 C 144.184 2.800,144.379 2.665,144.353 2.500 C 144.200 1.535,144.620 1.367,145.600 2.000 M37.215 14.798 C 29.893 16.783,20.000 25.209,20.000 29.460 C 20.000 32.406,22.183 32.917,25.605 30.771 C 30.055 27.980,32.894 27.713,38.065 29.600 C 39.873 30.260,42.094 30.800,43.000 30.800 C 43.906 30.800,46.127 30.260,47.935 29.600 C 53.152 27.696,55.422 27.997,59.870 31.182 C 65.247 35.032,68.961 31.014,65.249 25.362 C 59.313 16.323,47.712 11.951,37.215 14.798 M50.200 16.869 C 55.035 17.872,60.403 21.685,62.349 25.499 C 64.179 29.088,63.251 29.666,58.356 27.985 C 54.152 26.541,52.598 26.568,48.024 28.162 C 43.443 29.759,42.972 29.760,37.957 28.175 C 33.765 26.851,33.080 26.746,29.400 26.868 C 24.465 27.031,24.129 26.540,26.878 23.178 C 31.813 17.142,40.361 14.829,50.200 16.869 M353.800 16.252 C 345.343 17.566,336.800 23.971,336.800 28.998 C 336.800 32.134,338.514 32.399,342.787 29.925 C 346.458 27.800,349.127 27.653,353.200 29.352 C 357.354 31.085,359.259 31.131,363.531 29.603 C 368.279 27.905,371.256 27.984,374.232 29.889 C 378.346 32.523,380.120 32.230,380.074 28.926 C 379.969 21.319,365.648 14.411,353.800 16.252 M365.016 18.201 C 372.775 20.156,381.095 27.726,375.000 27.284 C 369.049 26.852,366.199 27.072,363.400 28.177 C 359.655 29.656,357.788 29.627,353.303 28.018 C 349.818 26.769,349.376 26.704,345.589 26.886 C 341.390 27.088,340.976 26.946,341.357 25.430 C 342.731 19.955,355.949 15.916,365.016 18.201 M356.114 61.780 C 348.059 64.298,349.627 68.600,358.600 68.600 C 367.895 68.600,369.521 64.556,361.258 61.989 C 358.331 61.081,358.351 61.081,356.114 61.780 M39.457 62.201 C 34.721 64.003,33.985 65.652,37.100 67.483 C 41.194 69.890,51.400 68.508,51.400 65.547 C 51.400 63.103,43.157 60.794,39.457 62.201 M104.400 99.157 C 104.400 102.536,104.563 102.800,106.647 102.800 C 109.066 102.800,110.411 100.516,109.826 97.400 L 109.564 96.000 106.982 96.000 L 104.400 96.000 104.400 99.157 M284.662 110.331 C 283.848 111.231,283.798 112.400,284.575 112.400 C 284.931 112.400,285.197 112.895,285.275 113.700 C 285.344 114.415,285.580 115.000,285.800 115.000 C 286.020 115.000,286.256 114.415,286.325 113.700 C 286.417 112.749,286.649 112.400,287.188 112.400 C 288.158 112.400,287.826 111.003,286.661 110.188 C 285.592 109.439,285.462 109.448,284.662 110.331 M287.043 133.433 C 286.389 135.138,287.181 138.423,288.512 139.528 C 290.530 141.201,293.419 136.033,291.777 133.689 C 290.992 132.568,287.448 132.376,287.043 133.433 M39.000 314.817 C 33.618 315.347,29.062 317.645,25.363 321.696 C 20.173 327.379,20.917 331.103,26.673 328.255 C 30.886 326.170,32.955 325.995,36.807 327.398 C 42.313 329.403,43.111 329.477,46.452 328.292 C 52.994 325.972,54.556 326.038,59.224 328.830 C 64.596 332.044,67.014 329.315,63.926 323.522 C 60.479 317.054,50.761 313.660,39.000 314.817 M356.200 315.651 C 345.048 317.044,336.750 322.170,335.775 328.268 C 335.186 331.947,338.003 332.734,342.131 330.045 C 346.519 327.186,348.382 327.060,353.910 329.248 C 357.632 330.721,359.523 330.705,363.673 329.166 C 367.987 327.566,370.890 327.638,373.737 329.414 C 378.826 332.589,379.736 332.770,381.206 330.901 C 381.825 330.115,381.939 329.547,381.741 328.250 C 380.787 322.009,373.479 316.805,364.010 315.623 C 360.257 315.155,360.171 315.155,356.200 315.651 M50.616 316.619 C 55.721 317.944,60.232 320.968,61.459 323.887 C 62.625 326.662,61.964 327.076,58.125 325.978 C 54.383 324.908,52.186 324.999,47.935 326.400 C 43.364 327.907,42.061 327.901,37.927 326.358 C 35.512 325.456,33.642 325.057,31.103 324.902 C 27.083 324.658,26.586 324.325,27.480 322.480 C 29.954 317.372,41.879 314.351,50.616 316.619 M365.517 317.432 C 371.062 318.570,375.944 321.554,377.614 324.827 C 379.218 327.972,378.287 328.904,374.807 327.635 C 370.527 326.074,369.006 326.100,363.575 327.824 L 358.742 329.359 354.205 327.828 C 349.918 326.380,349.485 326.310,346.334 326.555 C 339.879 327.055,340.211 327.075,340.083 326.186 C 339.311 320.788,355.206 315.317,365.517 317.432 M39.036 360.419 C 34.717 362.218,33.887 363.561,35.995 365.335 C 39.205 368.035,50.255 367.441,51.380 364.507 C 52.526 361.521,43.536 358.543,39.036 360.419 M355.525 361.547 C 352.115 362.923,350.742 363.975,350.878 365.107 C 351.367 369.166,363.146 369.907,366.532 366.091 C 368.904 363.418,360.000 359.742,355.525 361.547 " stroke="none" fill="#b6bcb4" fill-rule="evenodd"></path><path id="path6" d="M0.028 4.900 C 0.013 5.725,0.180 6.400,0.400 6.400 C 0.878 6.400,0.878 5.312,0.400 4.200 C 0.124 3.558,0.051 3.697,0.028 4.900 M398.506 13.794 C 392.485 16.411,391.138 21.156,392.814 33.848 C 393.443 38.610,393.233 39.420,389.978 44.836 C 387.750 48.544,387.436 49.462,386.577 54.800 C 385.856 59.282,384.772 63.346,383.395 66.735 C 381.880 70.463,382.011 71.343,384.207 72.181 C 386.791 73.168,388.683 75.957,390.595 81.592 C 391.581 84.500,391.622 88.649,390.762 98.400 C 390.309 103.533,390.357 104.076,391.814 110.400 C 392.143 111.830,392.776 115.952,393.220 119.560 C 393.664 123.168,394.098 126.235,394.184 126.375 C 394.457 126.816,395.645 135.221,396.053 139.600 C 396.845 148.087,396.879 150.156,396.284 153.400 C 395.574 157.273,395.965 169.317,396.948 173.800 C 398.109 179.100,398.552 187.945,397.993 194.688 C 397.693 198.305,397.593 202.712,397.748 205.497 C 397.945 209.043,397.866 210.730,397.426 212.355 C 396.961 214.076,396.884 216.505,397.043 224.413 C 397.254 234.859,397.175 235.600,395.207 241.654 C 394.177 244.819,393.766 249.036,394.411 249.813 C 395.258 250.834,395.087 257.715,394.133 261.000 C 393.685 262.540,393.004 265.240,392.619 267.000 C 392.235 268.760,391.758 270.613,391.560 271.119 C 390.799 273.061,391.456 277.586,392.500 277.597 C 392.665 277.599,392.800 277.840,392.800 278.134 C 392.800 278.428,393.335 279.144,393.988 279.726 C 396.300 281.786,396.871 283.601,397.407 290.598 C 397.701 294.427,398.280 298.527,398.849 300.800 L 399.800 304.600 399.906 291.620 L 400.011 278.639 399.077 277.820 C 396.784 275.809,396.228 273.324,396.810 267.675 C 397.267 263.241,397.732 261.573,399.059 259.607 C 400.505 257.467,400.466 249.126,398.998 246.232 C 397.682 243.638,397.834 241.667,399.619 238.196 C 400.276 236.918,399.924 136.518,399.252 133.400 C 398.967 132.080,398.386 129.450,397.961 127.555 C 397.536 125.661,397.102 121.971,396.998 119.355 C 396.802 114.421,396.190 109.076,395.585 107.000 C 394.717 104.023,394.401 92.775,394.960 84.743 C 395.332 79.400,395.241 78.894,392.983 73.800 C 392.690 73.140,392.327 71.970,392.175 71.200 C 392.024 70.430,391.787 69.710,391.650 69.600 C 388.258 66.884,388.377 54.366,391.827 50.916 C 392.142 50.601,392.400 50.176,392.400 49.971 C 392.400 49.767,392.745 49.600,393.166 49.600 C 393.593 49.600,394.523 48.845,395.263 47.900 C 395.995 46.965,396.730 46.140,396.897 46.067 C 397.064 45.993,397.200 45.655,397.200 45.314 C 397.200 44.973,397.573 44.092,398.028 43.355 C 399.414 41.112,399.219 34.503,397.626 29.712 C 395.810 24.249,396.493 18.550,399.100 17.405 C 399.848 17.077,400.606 13.105,399.900 13.216 C 399.845 13.224,399.218 13.484,398.506 13.794 M0.034 26.451 C 0.054 32.092,0.205 35.748,0.392 35.128 C 0.570 34.538,1.005 33.643,1.358 33.139 C 2.164 31.988,2.182 29.611,1.400 27.738 C 0.626 25.886,0.635 23.292,1.423 21.408 C 2.221 19.497,2.036 18.047,0.900 17.297 L 0.000 16.702 0.034 26.451 M42.000 40.312 C 38.904 40.659,38.157 41.583,37.739 45.581 C 37.376 49.054,37.580 49.200,42.787 49.200 C 48.347 49.200,48.732 48.890,48.079 44.949 C 47.429 41.027,45.916 39.873,42.000 40.312 M355.346 40.868 C 353.500 41.762,352.541 46.941,353.959 48.359 C 354.951 49.351,362.600 49.640,363.520 48.720 C 364.614 47.626,363.697 41.993,362.260 40.987 C 361.284 40.303,356.676 40.224,355.346 40.868 M0.124 54.600 C 0.126 55.920,0.201 56.412,0.290 55.693 C 0.379 54.974,0.377 53.894,0.286 53.293 C 0.195 52.692,0.122 53.280,0.124 54.600 M190.600 64.860 C 175.312 66.811,167.216 69.810,155.445 77.881 C 139.672 88.697,129.208 104.594,125.352 123.600 L 124.337 128.600 124.171 191.800 C 123.818 326.583,123.778 332.857,123.256 336.000 C 122.916 338.051,122.708 346.147,122.600 361.600 C 122.507 374.923,122.279 384.739,122.045 385.514 C 120.430 390.856,117.584 391.805,103.600 391.668 C 98.870 391.621,91.850 391.795,88.000 392.055 C 82.551 392.423,77.765 392.416,66.400 392.027 C 58.370 391.752,45.784 391.452,38.430 391.360 C 16.471 391.085,12.381 390.033,7.242 383.340 C 4.740 380.080,3.353 366.199,4.770 358.598 C 5.605 354.121,5.786 341.794,5.069 338.200 C 4.567 335.683,4.411 331.841,4.336 320.200 C 4.131 288.247,4.382 280.522,5.848 273.728 C 6.232 271.950,6.394 269.817,6.273 268.128 C 4.780 247.180,3.512 215.671,3.901 209.200 C 4.300 202.574,2.736 170.590,1.975 169.820 C 1.423 169.260,1.519 165.441,2.100 164.860 C 3.104 163.856,2.766 152.584,1.655 150.022 C 1.037 148.596,0.607 146.592,0.410 144.222 C 0.245 142.230,0.165 150.140,0.232 161.800 C 0.301 173.901,0.540 184.459,0.788 186.400 C 1.027 188.270,1.306 198.620,1.408 209.400 C 1.723 242.580,2.242 260.448,3.029 265.200 C 3.719 269.364,3.717 269.438,2.818 273.800 C 1.329 281.024,0.942 317.558,2.253 327.134 C 2.384 328.088,2.282 329.931,2.026 331.230 C 1.645 333.167,1.678 334.277,2.211 337.407 C 2.715 340.365,2.767 341.662,2.443 343.174 C 1.109 349.392,1.554 379.204,3.023 382.044 C 5.027 385.920,10.413 390.286,14.800 391.591 C 20.560 393.305,38.969 393.862,85.200 393.719 C 117.264 393.621,119.588 393.388,121.975 390.035 C 124.097 387.056,124.095 387.072,124.236 363.000 C 124.308 350.680,124.558 338.440,124.792 335.800 C 125.249 330.649,125.860 243.552,125.577 224.000 C 125.359 208.912,125.366 202.396,125.651 161.800 L 125.892 127.400 126.969 122.281 C 131.880 98.940,150.485 77.644,171.888 70.864 C 178.737 68.694,180.462 68.367,187.000 67.991 C 190.520 67.789,194.279 67.509,195.353 67.367 C 197.420 67.095,213.426 67.751,220.239 68.386 C 238.141 70.056,259.021 86.242,267.745 105.213 C 274.798 120.551,274.741 119.876,274.974 190.200 C 275.079 221.880,275.262 249.240,275.382 251.000 C 276.351 265.246,276.456 269.767,276.003 277.746 C 275.526 286.160,275.546 287.042,276.825 314.600 C 277.291 324.656,277.717 357.816,277.588 374.011 C 277.441 392.389,278.827 394.369,291.600 394.019 C 298.828 393.821,299.313 393.822,325.400 394.122 C 358.128 394.498,387.016 393.697,390.791 392.309 C 394.489 390.949,400.000 385.123,400.000 382.572 L 400.000 380.676 399.148 381.438 C 398.680 381.857,397.891 382.830,397.396 383.600 C 395.001 387.324,390.359 390.426,386.017 391.203 C 379.611 392.349,337.214 392.699,301.800 391.898 C 300.260 391.863,296.202 391.988,292.783 392.176 C 280.095 392.872,279.411 391.975,279.375 374.600 C 279.361 368.000,279.149 356.279,278.903 348.552 C 278.634 340.087,278.591 332.583,278.795 329.668 C 278.989 326.906,278.981 323.324,278.776 321.316 C 277.982 313.544,277.091 292.495,277.213 284.400 C 277.457 268.130,277.399 262.575,276.878 252.710 C 276.516 245.871,276.308 225.816,276.203 187.710 C 276.107 152.792,275.896 131.170,275.628 128.696 C 273.912 112.856,267.512 99.073,255.562 85.485 C 250.106 79.280,237.908 71.679,228.200 68.433 C 219.445 65.506,200.008 63.659,190.600 64.860 M0.072 70.800 L 0.063 76.200 1.026 74.200 C 2.168 71.830,2.230 70.801,1.333 69.080 C 0.966 68.376,0.535 67.260,0.374 66.600 C 0.205 65.907,0.078 67.680,0.072 70.800 M199.200 126.688 C 196.427 127.186,195.076 130.160,196.392 132.868 C 198.076 136.332,197.959 137.418,195.445 141.631 C 192.388 146.755,192.474 147.812,196.353 152.834 C 198.064 155.049,197.967 155.664,194.899 162.000 C 193.908 164.047,191.297 168.346,190.770 168.800 C 189.190 170.159,188.635 175.965,189.900 177.896 C 190.444 178.726,190.624 179.993,190.709 183.582 C 190.770 186.122,190.993 188.830,191.205 189.600 C 191.418 190.370,191.771 193.520,191.990 196.600 C 192.209 199.680,192.676 203.190,193.027 204.400 C 193.379 205.610,193.769 207.041,193.895 207.580 C 194.396 209.726,198.375 212.684,199.960 212.089 C 201.198 211.624,203.483 206.766,204.015 203.468 C 204.705 199.190,204.403 185.167,203.600 184.200 C 202.838 183.282,202.829 179.813,203.561 168.497 L 204.110 159.994 203.055 157.960 C 201.866 155.668,201.734 154.103,202.575 152.260 C 204.660 147.690,204.902 145.512,203.640 142.696 C 201.987 139.007,201.951 135.816,203.558 135.281 C 203.801 135.200,204.000 134.893,204.000 134.600 C 204.000 134.307,204.190 134.003,204.422 133.926 C 205.056 133.715,205.676 130.432,205.395 128.771 C 205.062 126.799,202.806 126.041,199.200 126.688 M169.374 306.756 C 164.449 308.993,161.383 314.465,160.918 321.846 C 160.346 330.937,164.897 340.130,174.667 349.617 C 199.726 373.949,204.957 374.556,224.861 355.441 C 235.846 344.891,237.499 342.967,239.840 338.000 C 240.825 335.910,242.147 333.210,242.778 332.000 C 245.860 326.091,245.978 320.527,243.151 314.528 C 239.588 306.969,231.815 305.890,222.376 311.643 C 202.593 323.702,203.412 323.503,197.149 317.753 C 187.740 309.115,175.153 304.131,169.374 306.756 M179.412 310.091 C 182.803 311.471,189.117 315.497,193.812 319.272 C 203.024 326.680,204.264 326.641,216.248 318.573 C 226.872 311.420,229.979 310.065,234.046 310.808 C 237.191 311.384,239.600 314.443,239.600 317.863 L 239.600 319.600 238.100 319.604 C 235.853 319.610,232.929 321.171,229.799 324.036 C 228.259 325.446,225.109 328.219,222.799 330.197 C 220.490 332.175,216.634 335.573,214.231 337.747 C 206.125 345.083,201.609 345.542,194.597 339.745 C 193.279 338.655,190.760 336.667,189.000 335.326 C 187.240 333.985,183.567 330.869,180.837 328.401 C 171.429 319.894,170.747 319.747,168.091 325.646 C 165.042 332.416,162.077 326.041,164.590 318.121 C 167.242 309.766,172.121 307.123,179.412 310.091 M235.683 329.095 C 237.265 332.670,235.790 334.327,225.489 340.544 C 211.236 349.147,211.273 345.487,225.569 332.800 C 233.081 326.133,234.193 325.725,235.683 329.095 M176.769 332.251 C 177.874 333.657,177.817 334.079,176.540 333.927 C 175.290 333.777,173.781 331.947,174.139 331.014 C 174.453 330.196,175.563 330.718,176.769 332.251 M40.550 338.834 C 38.887 339.317,38.461 339.906,37.924 342.470 C 37.028 346.738,37.604 347.263,43.150 347.234 C 47.926 347.210,48.153 347.036,47.907 343.602 C 47.581 339.043,45.186 337.490,40.550 338.834 M174.721 339.999 C 176.873 340.975,189.563 349.822,193.191 352.875 C 195.408 354.741,200.057 360.112,201.362 362.318 C 202.276 363.860,198.635 364.548,195.494 363.427 C 190.007 361.470,172.413 345.177,171.392 341.109 C 170.875 339.049,171.886 338.712,174.721 339.999 M355.754 340.174 C 353.431 341.185,352.567 347.401,354.619 348.336 C 356.487 349.187,362.266 348.934,363.241 347.959 C 364.119 347.081,364.082 344.121,363.165 341.707 C 362.463 339.863,358.400 339.022,355.754 340.174 M230.000 344.931 C 230.000 346.904,216.599 360.694,213.022 362.402 C 208.531 364.547,205.190 363.839,207.015 361.130 C 211.832 353.983,230.000 341.179,230.000 344.931 M206.129 352.300 C 206.444 352.834,205.667 354.336,204.852 354.772 C 203.208 355.652,201.548 353.612,203.027 352.530 C 203.808 351.959,205.840 351.809,206.129 352.300 " stroke="none" fill="#494948" fill-rule="evenodd"></path><path id="path7" d="M398.224 18.107 C 396.117 21.322,395.946 24.656,397.626 29.712 C 399.219 34.503,399.414 41.112,398.028 43.355 C 397.573 44.092,397.200 44.973,397.200 45.314 C 397.200 45.655,397.064 45.993,396.897 46.067 C 396.730 46.140,395.995 46.965,395.263 47.900 C 394.523 48.845,393.593 49.600,393.166 49.600 C 392.745 49.600,392.400 49.767,392.400 49.971 C 392.400 50.176,392.142 50.601,391.827 50.916 C 388.377 54.366,388.258 66.884,391.650 69.600 C 391.787 69.710,392.024 70.430,392.175 71.200 C 392.327 71.970,392.690 73.140,392.983 73.800 C 395.241 78.894,395.332 79.400,394.960 84.743 C 394.401 92.775,394.717 104.023,395.585 107.000 C 396.193 109.085,396.802 114.429,397.001 119.423 C 397.117 122.330,397.512 125.493,397.997 127.387 C 398.438 129.114,398.814 131.084,398.831 131.764 C 398.934 135.900,399.917 136.129,399.958 132.026 C 399.993 128.508,399.864 127.572,399.133 126.062 C 398.425 124.600,398.241 123.387,398.127 119.436 C 398.050 116.776,397.795 113.340,397.560 111.800 C 396.124 102.390,395.685 94.476,396.008 83.800 C 396.160 78.762,396.068 77.738,395.096 73.600 C 394.502 71.070,394.012 68.415,394.008 67.700 C 394.003 66.935,393.666 66.066,393.188 65.588 C 392.741 65.141,392.269 64.244,392.139 63.594 C 392.009 62.944,391.724 62.524,391.505 62.659 C 391.249 62.817,391.164 61.788,391.265 59.782 C 391.365 57.801,391.601 56.600,391.911 56.496 C 392.180 56.407,392.400 56.113,392.400 55.844 C 392.400 55.572,392.888 55.365,393.500 55.378 C 394.404 55.396,394.755 55.094,395.466 53.683 C 395.943 52.739,396.450 51.984,396.593 52.004 C 397.119 52.079,398.288 50.146,398.816 48.326 C 399.115 47.295,399.504 46.540,399.680 46.649 C 399.856 46.758,400.000 42.787,400.000 37.824 C 400.000 32.861,399.865 28.799,399.700 28.797 C 397.681 28.780,397.500 20.851,399.473 18.871 C 399.763 18.581,400.000 18.086,400.000 17.771 C 400.000 16.887,398.886 17.097,398.224 18.107 M195.000 67.386 C 194.780 67.487,191.450 67.747,187.600 67.963 C 180.477 68.363,178.812 68.671,171.888 70.864 C 150.485 77.644,131.880 98.940,126.969 122.281 L 125.892 127.400 125.651 161.800 C 125.366 202.396,125.359 208.912,125.577 224.000 C 125.860 243.552,125.249 330.649,124.792 335.800 C 124.558 338.440,124.308 350.680,124.236 363.000 C 124.039 396.602,127.870 393.588,85.200 393.719 C 38.969 393.862,20.560 393.305,14.800 391.591 C 10.413 390.286,5.027 385.920,3.023 382.044 C 1.554 379.204,1.109 349.392,2.443 343.174 C 2.767 341.662,2.715 340.365,2.211 337.407 C 1.678 334.277,1.645 333.167,2.026 331.230 C 2.282 329.931,2.384 328.088,2.253 327.134 C 0.942 317.558,1.329 281.024,2.818 273.800 C 3.717 269.438,3.719 269.364,3.029 265.200 C 2.234 260.399,1.707 242.034,1.423 209.173 C 1.329 198.268,1.131 188.866,0.984 188.279 C 0.837 187.693,0.582 184.375,0.418 180.907 C 0.254 177.438,0.169 191.700,0.229 212.600 C 0.352 255.268,0.568 262.361,1.800 264.183 C 3.032 266.006,2.968 272.808,1.700 274.847 C 1.205 275.643,0.800 276.668,0.800 277.124 C 0.800 277.580,0.620 278.064,0.400 278.200 C -0.117 278.519,-0.154 324.800,0.362 324.800 C 1.397 324.800,2.031 328.538,1.328 330.492 C 0.951 331.541,0.498 332.400,0.321 332.400 C 0.144 332.400,0.000 333.390,0.000 334.600 C 0.000 335.810,0.156 336.800,0.347 336.800 C 0.537 336.800,1.075 337.718,1.541 338.839 L 2.388 340.879 1.545 342.839 C 1.081 343.918,0.544 344.800,0.351 344.800 C 0.155 344.800,0.000 352.240,0.000 361.600 C 0.000 372.533,0.140 378.400,0.400 378.400 C 0.620 378.400,0.800 378.814,0.800 379.320 C 0.800 383.231,10.073 391.464,16.000 392.814 C 19.938 393.712,74.953 394.922,86.600 394.367 C 91.220 394.147,98.150 394.082,102.000 394.223 C 116.643 394.757,121.309 393.470,123.673 388.247 L 124.600 386.200 124.800 360.800 C 124.910 346.830,125.136 335.190,125.303 334.934 C 125.558 334.541,126.159 256.660,126.128 228.200 C 126.122 223.360,126.105 209.950,126.089 198.400 C 126.073 186.850,126.118 166.240,126.189 152.600 L 126.319 127.800 127.355 122.800 C 131.704 101.803,145.386 84.104,164.735 74.443 C 177.117 68.261,191.823 67.663,189.409 73.440 C 188.646 75.267,188.637 78.114,189.388 80.200 C 190.401 83.009,190.239 84.284,187.954 91.511 C 186.606 95.774,186.640 102.041,188.022 103.803 C 189.548 105.751,189.840 111.414,188.606 115.136 C 187.280 119.137,187.023 132.471,188.227 134.791 C 189.149 136.567,189.397 139.696,188.798 142.000 C 187.393 147.400,187.391 147.441,188.318 150.318 C 190.362 156.664,190.141 159.788,187.160 166.711 C 185.731 170.028,185.484 171.012,185.475 173.400 C 185.453 179.363,185.447 185.928,185.460 188.800 C 185.467 190.450,185.779 193.600,186.152 195.800 C 186.808 199.669,186.802 200.003,185.995 206.000 C 184.673 215.811,184.172 223.896,184.687 227.081 C 185.444 231.761,186.251 234.667,187.141 235.917 C 187.614 236.581,188.000 237.493,188.000 237.944 C 188.000 238.759,190.482 239.651,191.082 239.051 C 191.216 238.917,191.568 239.007,191.863 239.252 C 192.275 239.594,192.400 239.547,192.400 239.049 C 192.400 238.692,192.670 238.400,193.000 238.400 C 193.330 238.400,193.600 238.220,193.600 238.000 C 193.600 237.780,194.054 237.600,194.610 237.600 C 195.321 237.600,195.733 237.302,196.003 236.593 C 196.213 236.039,196.794 235.419,197.293 235.216 C 197.792 235.013,199.010 234.099,200.000 233.185 C 200.990 232.272,203.060 230.826,204.600 229.972 C 208.165 227.995,209.774 226.575,210.527 224.739 C 212.514 219.898,212.638 195.957,210.731 185.600 C 210.043 181.861,209.901 179.134,210.349 178.248 C 212.111 174.765,212.185 174.157,212.209 163.000 C 212.221 157.060,212.380 150.850,212.562 149.199 C 212.792 147.107,212.730 145.290,212.356 143.199 C 211.707 139.572,211.727 136.057,212.404 134.792 C 212.679 134.279,213.042 131.776,213.211 129.230 C 213.380 126.683,213.822 123.215,214.192 121.522 C 214.960 118.016,214.579 114.844,213.177 113.061 C 212.750 112.518,212.400 111.882,212.400 111.647 C 212.400 111.412,212.041 110.630,211.601 109.910 C 210.946 108.834,210.802 107.886,210.797 104.600 C 210.792 101.585,210.545 99.715,209.795 97.003 C 209.248 95.024,208.800 92.465,208.800 91.315 C 208.800 90.028,208.501 88.643,208.021 87.712 C 206.615 84.982,206.209 81.156,206.953 77.657 C 207.311 75.976,207.572 73.903,207.535 73.052 C 207.446 71.033,208.523 70.198,212.026 69.569 C 232.835 65.837,259.458 84.565,269.160 109.761 C 274.576 123.827,274.352 120.334,274.588 194.400 C 274.728 238.229,274.894 251.847,275.382 259.600 C 275.883 267.557,275.918 270.905,275.565 277.400 C 275.130 285.407,275.361 295.739,276.439 316.400 C 276.674 320.910,276.807 328.200,276.733 332.600 C 276.489 347.230,277.257 386.019,277.828 387.939 C 278.609 390.566,280.255 392.658,282.329 393.662 L 284.168 394.553 313.784 394.689 C 341.427 394.816,385.351 394.276,388.307 393.772 C 391.788 393.179,400.447 386.740,399.914 385.141 C 399.829 384.887,398.239 386.214,396.380 388.090 C 392.381 392.127,390.518 392.989,384.991 393.365 C 377.448 393.877,342.636 394.320,325.400 394.122 C 299.313 393.822,298.828 393.821,291.600 394.019 C 278.827 394.369,277.441 392.389,277.588 374.011 C 277.717 357.816,277.291 324.656,276.825 314.600 C 275.546 287.042,275.526 286.160,276.003 277.746 C 276.456 269.767,276.351 265.246,275.382 251.000 C 275.262 249.240,275.079 221.880,274.974 190.200 C 274.859 155.407,274.621 130.960,274.374 128.457 C 273.522 119.845,269.253 106.826,265.111 100.213 C 252.221 79.633,235.464 68.987,214.400 67.995 C 201.321 67.379,195.419 67.194,195.000 67.386 M203.628 126.856 C 205.674 127.469,206.327 133.291,204.422 133.926 C 204.190 134.003,204.000 134.307,204.000 134.600 C 204.000 134.893,203.801 135.200,203.558 135.281 C 201.951 135.816,201.987 139.007,203.640 142.696 C 204.902 145.512,204.660 147.690,202.575 152.260 C 201.734 154.103,201.866 155.668,203.055 157.960 L 204.110 159.994 203.561 168.497 C 202.829 179.813,202.838 183.282,203.600 184.200 C 204.403 185.167,204.705 199.190,204.015 203.468 C 203.483 206.766,201.198 211.624,199.960 212.089 C 198.375 212.684,194.396 209.726,193.895 207.580 C 193.769 207.041,193.379 205.610,193.027 204.400 C 192.676 203.190,192.209 199.680,191.990 196.600 C 191.771 193.520,191.418 190.370,191.205 189.600 C 190.993 188.830,190.770 186.122,190.709 183.582 C 190.624 179.993,190.444 178.726,189.900 177.896 C 188.635 175.965,189.190 170.159,190.770 168.800 C 191.297 168.346,193.908 164.047,194.899 162.000 C 197.967 155.664,198.064 155.049,196.353 152.834 C 192.474 147.812,192.388 146.755,195.445 141.631 C 197.959 137.418,198.076 136.332,196.392 132.868 C 194.330 128.625,198.359 125.277,203.628 126.856 M399.714 139.400 C 399.717 140.500,399.795 140.903,399.887 140.295 C 399.979 139.686,399.977 138.786,399.882 138.295 C 399.787 137.803,399.711 138.300,399.714 139.400 M0.142 157.800 C 0.141 159.780,0.208 160.640,0.292 159.712 C 0.376 158.784,0.377 157.164,0.295 156.112 C 0.212 155.060,0.143 155.820,0.142 157.800 M399.320 238.824 C 397.750 242.456,397.767 244.879,399.376 247.008 C 400.104 247.972,400.312 244.930,399.607 243.613 C 399.347 243.126,399.356 242.472,399.635 241.672 C 399.866 241.008,399.990 239.865,399.909 239.133 L 399.763 237.800 399.320 238.824 M194.678 242.592 C 194.305 242.865,194.000 243.293,194.000 243.544 C 194.000 243.795,193.820 244.000,193.600 244.000 C 193.380 244.000,193.200 244.441,193.200 244.980 C 193.200 245.519,192.910 246.122,192.556 246.320 C 192.089 246.582,191.815 247.654,191.555 250.240 C 191.344 252.344,190.981 253.964,190.668 254.200 C 189.289 255.242,189.083 269.999,190.361 276.200 C 190.588 277.300,190.884 279.010,191.020 280.000 C 191.741 285.271,194.127 288.090,195.929 285.800 C 196.361 285.250,197.007 284.800,197.365 284.800 C 197.782 284.800,198.543 283.689,199.489 281.700 C 202.493 275.386,202.713 266.541,199.930 263.976 C 199.558 263.633,199.142 262.907,199.005 262.362 C 198.868 261.817,198.361 261.197,197.878 260.985 C 196.502 260.381,196.401 257.153,197.731 256.282 C 198.265 255.932,198.826 255.153,198.977 254.550 C 199.128 253.947,199.645 252.983,200.126 252.408 C 200.607 251.833,201.341 250.651,201.759 249.781 C 202.176 248.912,202.671 247.887,202.859 247.505 C 203.597 246.003,203.259 243.257,202.256 242.600 C 201.103 241.844,195.708 241.839,194.678 242.592 M398.963 259.713 C 395.679 264.762,395.863 276.214,399.257 278.030 C 400.306 278.592,400.277 276.947,399.218 275.819 C 397.291 273.768,397.331 265.013,399.280 262.378 C 399.798 261.677,400.013 260.845,399.928 259.877 L 399.800 258.426 398.963 259.713 M170.397 305.174 C 158.908 308.669,156.605 326.965,165.926 340.691 C 169.504 345.960,183.191 359.515,190.200 364.732 C 200.498 372.395,209.485 371.366,219.825 361.340 C 221.379 359.833,225.249 356.119,228.425 353.086 C 242.066 340.060,247.577 329.175,245.622 319.121 C 243.116 306.232,234.453 303.722,220.200 311.755 C 206.238 319.624,204.981 320.187,202.742 319.584 C 201.229 319.177,200.365 318.440,196.085 313.904 C 194.433 312.153,193.296 311.383,190.885 310.384 C 189.188 309.681,185.988 308.334,183.774 307.392 C 177.704 304.809,173.752 304.153,170.397 305.174 M178.269 306.598 C 183.661 308.199,192.307 313.308,197.149 317.753 C 203.412 323.503,202.593 323.702,222.376 311.643 C 231.815 305.890,239.588 306.969,243.151 314.528 C 245.978 320.527,245.860 326.091,242.778 332.000 C 242.147 333.210,240.825 335.910,239.840 338.000 C 237.499 342.967,235.846 344.891,224.861 355.441 C 204.957 374.556,199.726 373.949,174.667 349.617 C 164.897 340.130,160.346 330.937,160.918 321.846 C 161.656 310.118,168.846 303.800,178.269 306.598 M232.265 327.354 C 228.505 328.932,214.808 342.851,214.801 345.100 C 214.796 347.061,232.425 337.236,235.167 333.751 C 237.540 330.735,235.407 326.035,232.265 327.354 M174.139 331.014 C 173.781 331.947,175.290 333.777,176.540 333.927 C 177.817 334.079,177.874 333.657,176.769 332.251 C 175.563 330.718,174.453 330.196,174.139 331.014 M203.027 352.530 C 201.548 353.612,203.208 355.652,204.852 354.772 C 205.667 354.336,206.444 352.834,206.129 352.300 C 205.840 351.809,203.808 351.959,203.027 352.530 " stroke="none" fill="#3c443c" fill-rule="evenodd"></path><path id="path8" d="M395.640 0.875 C 395.898 1.356,396.408 2.072,396.775 2.466 C 399.148 5.012,397.425 7.368,390.917 10.473 C 383.729 13.903,382.990 15.280,385.011 21.473 C 388.536 32.270,388.298 36.313,383.768 42.627 C 380.641 46.985,380.649 46.965,381.039 49.970 C 382.208 58.966,381.145 62.915,376.232 67.836 C 366.714 77.370,350.497 77.371,340.965 67.839 C 336.350 63.224,335.398 59.458,336.555 50.400 C 336.945 47.354,336.389 46.336,333.250 44.346 C 324.887 39.042,321.214 54.074,327.966 65.969 C 332.068 73.194,335.183 79.718,335.639 82.038 C 336.157 84.670,336.138 84.658,338.421 83.745 C 339.769 83.205,340.636 83.153,343.329 83.445 C 348.624 84.020,370.966 83.680,373.658 82.984 C 380.063 81.327,384.750 84.260,385.723 90.533 C 386.564 95.958,381.165 106.623,375.443 110.838 C 372.114 113.290,371.185 116.074,372.580 119.413 C 373.356 121.272,374.809 121.260,378.647 119.364 C 383.442 116.995,384.566 118.216,384.940 126.200 C 385.053 128.620,385.424 131.860,385.764 133.400 C 386.169 135.231,386.458 139.316,386.599 145.200 C 386.718 150.150,387.019 155.937,387.267 158.060 C 387.647 161.302,387.613 162.555,387.057 165.893 C 386.452 169.521,386.448 170.160,387.012 173.234 C 387.352 175.085,387.803 178.435,388.014 180.679 C 388.225 182.922,388.574 185.982,388.791 187.479 C 389.418 191.820,389.273 196.061,388.365 199.885 C 387.906 201.818,387.373 205.285,387.181 207.589 C 386.989 209.892,386.448 213.542,385.979 215.699 L 385.125 219.620 386.008 223.910 C 387.442 230.880,387.061 237.289,384.897 242.628 C 383.937 244.997,383.072 247.973,382.797 249.853 C 382.290 253.321,381.452 255.071,378.358 259.120 C 376.872 261.065,376.345 262.215,375.635 265.066 C 374.024 271.529,372.400 273.995,368.189 276.371 C 367.069 277.003,365.037 278.780,363.672 280.319 C 360.952 283.387,359.587 284.128,355.804 284.589 C 351.626 285.099,348.075 287.588,346.223 291.304 C 344.531 294.700,344.766 295.777,347.914 299.070 C 348.792 299.989,349.814 301.609,350.184 302.670 C 351.382 306.109,351.727 306.590,353.087 306.723 C 355.433 306.953,358.665 304.253,363.306 298.184 C 365.849 294.861,371.929 288.891,373.591 288.086 C 374.900 287.452,375.250 287.571,379.000 289.930 C 380.100 290.622,381.979 291.373,383.177 291.598 C 387.380 292.390,388.211 293.650,389.775 301.600 C 390.359 304.570,390.994 307.360,391.187 307.800 C 391.379 308.240,391.641 309.500,391.767 310.600 C 391.981 312.457,392.588 315.810,394.156 323.800 C 395.194 329.085,394.815 335.239,393.363 336.693 C 393.093 336.964,392.810 337.324,392.736 337.493 C 392.490 338.048,388.243 341.064,386.085 342.215 C 384.921 342.836,383.238 344.137,382.345 345.106 C 380.532 347.073,380.515 347.283,381.791 351.992 C 386.255 368.466,363.510 380.503,345.257 371.326 C 336.333 366.840,333.807 360.570,336.480 349.540 C 337.983 343.337,328.668 338.933,325.608 344.400 C 323.379 348.381,325.978 360.443,330.423 366.753 C 336.956 376.027,339.937 378.809,346.506 381.768 C 352.886 384.641,353.602 385.373,351.500 386.873 L 350.200 387.800 333.000 387.672 C 312.438 387.520,311.077 387.374,304.713 384.639 C 302.534 383.703,300.229 383.851,295.980 385.202 C 284.732 388.777,282.333 386.012,284.663 372.159 C 285.305 368.337,285.304 367.891,284.642 363.959 C 283.915 359.639,283.195 347.486,283.092 337.800 C 283.037 332.666,283.122 331.938,284.116 329.049 C 285.468 325.120,285.467 325.085,283.950 321.310 C 281.981 316.408,281.618 314.625,281.204 307.800 C 280.990 304.280,280.720 300.320,280.603 299.000 C 279.647 288.158,279.597 285.326,280.207 276.458 C 280.769 268.281,280.770 266.642,280.213 259.600 C 279.186 246.604,278.700 223.331,278.909 197.200 C 279.167 164.977,278.657 131.690,277.817 126.000 C 276.025 113.863,271.618 102.292,265.936 94.800 C 264.350 92.710,261.754 89.290,260.167 87.200 C 248.042 71.236,226.854 61.832,201.000 60.940 C 179.302 60.191,155.084 70.523,141.441 86.347 C 127.161 102.911,120.186 120.097,121.046 136.600 C 121.413 143.633,121.417 146.590,121.150 207.004 C 121.049 229.886,120.825 248.836,120.653 249.115 C 120.480 249.394,120.268 267.752,120.182 289.911 C 120.055 322.343,119.916 330.668,119.471 332.600 C 118.166 338.260,115.434 346.314,114.052 348.571 C 112.389 351.286,112.185 353.479,113.328 356.336 C 114.237 358.609,114.176 359.836,113.000 362.962 C 111.718 366.366,111.742 367.280,113.146 368.684 C 115.648 371.186,116.275 374.827,115.018 379.550 C 113.741 384.349,108.208 386.732,99.999 386.019 C 96.945 385.754,94.900 385.816,91.675 386.271 C 83.959 387.362,65.622 386.668,61.885 385.145 C 57.816 383.486,61.518 378.532,69.717 374.664 C 72.976 373.127,74.883 371.937,76.345 370.528 L 78.398 368.549 78.330 364.575 C 78.274 361.275,78.447 359.989,79.347 357.000 C 80.143 354.359,80.537 351.866,80.827 347.643 C 81.045 344.477,81.301 341.760,81.396 341.606 C 81.816 340.927,80.667 338.359,79.507 337.383 C 77.632 335.805,75.619 336.147,72.123 338.635 C 65.673 343.227,64.681 345.140,65.845 350.733 C 70.732 374.211,29.359 382.065,20.795 359.285 C 19.883 356.858,19.817 355.041,20.455 349.853 C 21.015 345.297,20.816 344.793,16.606 340.064 C 8.971 331.488,9.612 327.218,20.116 316.694 C 27.724 309.072,27.766 308.974,24.800 305.837 C 22.326 303.222,22.309 303.457,25.195 300.405 C 30.701 294.583,31.979 285.982,28.405 278.800 C 27.134 276.246,26.514 273.544,26.453 270.293 C 26.405 267.748,25.447 265.454,23.679 263.644 C 22.435 262.372,19.042 260.000,18.466 260.000 C 17.856 260.000,15.600 256.365,15.600 255.383 C 15.600 254.899,15.075 251.825,14.433 248.552 C 12.028 236.285,11.203 226.194,11.190 208.876 C 11.185 201.433,11.009 195.539,10.765 194.600 C 8.920 187.497,8.673 184.539,8.720 170.063 C 8.762 156.931,8.721 156.122,7.784 151.663 C 7.245 149.099,6.534 144.120,6.204 140.600 C 5.874 137.080,5.501 133.595,5.375 132.855 C 4.551 128.003,4.602 79.287,5.437 73.600 C 5.744 71.510,5.996 68.612,5.998 67.160 C 6.001 63.285,6.936 61.042,8.850 60.311 C 9.230 60.167,11.210 60.887,13.601 62.039 C 18.628 64.461,18.643 64.453,18.983 59.281 C 19.124 57.146,19.520 54.184,19.863 52.697 C 21.283 46.551,18.080 43.367,12.774 45.649 C 11.688 46.116,10.800 46.656,10.800 46.849 C 10.800 47.042,10.530 47.200,10.200 47.200 C 9.870 47.200,9.600 47.341,9.600 47.514 C 9.600 47.687,9.240 47.829,8.800 47.829 C 8.360 47.829,8.000 47.587,8.000 47.291 C 8.000 46.995,7.843 46.850,7.651 46.968 C 6.004 47.987,5.471 40.888,6.378 30.000 C 7.462 16.984,7.662 18.385,4.114 14.157 C 3.171 13.033,2.400 11.918,2.400 11.680 C 2.400 11.441,2.000 10.965,1.511 10.623 C 1.022 10.280,0.824 10.000,1.072 10.000 C 2.678 10.000,2.928 3.169,1.348 2.449 C -0.070 1.803,-0.200 2.056,0.418 4.264 C 0.819 5.698,0.833 6.189,0.473 6.309 C -0.611 6.670,-0.136 16.619,1.000 17.363 C 2.163 18.125,2.282 19.350,1.400 21.462 C 0.634 23.296,0.634 25.904,1.400 27.738 C 2.255 29.784,2.147 31.869,1.100 33.553 C -0.308 35.818,-0.306 66.041,1.102 68.684 C 2.242 70.823,2.226 71.698,0.996 74.340 L 0.000 76.479 0.007 107.740 C 0.014 141.573,0.216 146.705,1.676 150.071 C 2.768 152.587,3.091 163.870,2.100 164.860 C 1.519 165.441,1.423 169.260,1.975 169.820 C 2.736 170.590,4.300 202.574,3.901 209.200 C 3.512 215.671,4.780 247.180,6.273 268.128 C 6.394 269.817,6.232 271.950,5.848 273.728 C 4.382 280.522,4.131 288.247,4.336 320.200 C 4.411 331.841,4.567 335.683,5.069 338.200 C 5.786 341.794,5.605 354.121,4.770 358.598 C 3.353 366.199,4.740 380.080,7.242 383.340 C 12.381 390.033,16.471 391.085,38.430 391.360 C 45.784 391.452,58.370 391.752,66.400 392.027 C 77.765 392.416,82.551 392.423,88.000 392.055 C 91.850 391.795,98.870 391.621,103.600 391.668 C 117.584 391.805,120.430 390.856,122.045 385.514 C 122.279 384.739,122.507 374.923,122.600 361.600 C 122.708 346.147,122.916 338.051,123.256 336.000 C 123.778 332.857,123.818 326.583,124.171 191.800 L 124.337 128.600 125.352 123.600 C 131.684 92.389,156.640 69.203,188.200 65.210 C 214.612 61.868,242.057 70.129,255.562 85.485 C 267.512 99.073,273.912 112.856,275.628 128.696 C 275.896 131.170,276.107 152.792,276.203 187.710 C 276.308 225.816,276.516 245.871,276.878 252.710 C 277.399 262.575,277.457 268.130,277.213 284.400 C 277.091 292.495,277.982 313.544,278.776 321.316 C 278.981 323.324,278.989 326.906,278.795 329.668 C 278.591 332.583,278.634 340.087,278.903 348.552 C 279.149 356.279,279.361 368.000,279.375 374.600 C 279.411 391.975,280.095 392.872,292.783 392.176 C 296.202 391.988,300.260 391.863,301.800 391.898 C 337.214 392.699,379.611 392.349,386.017 391.203 C 390.359 390.426,395.001 387.324,397.396 383.600 C 397.891 382.830,398.680 381.857,399.148 381.438 L 400.000 380.676 400.000 342.982 L 400.000 305.288 398.970 301.344 C 398.293 298.749,397.765 295.141,397.427 290.795 C 396.866 283.581,396.311 281.796,393.988 279.726 C 393.335 279.144,392.800 278.428,392.800 278.134 C 392.800 277.840,392.665 277.599,392.500 277.597 C 391.456 277.586,390.799 273.061,391.560 271.119 C 391.758 270.613,392.235 268.760,392.619 267.000 C 393.004 265.240,393.685 262.540,394.133 261.000 C 395.087 257.715,395.258 250.834,394.411 249.813 C 393.766 249.036,394.177 244.819,395.207 241.654 C 397.175 235.600,397.254 234.859,397.043 224.413 C 396.884 216.505,396.961 214.076,397.426 212.355 C 397.866 210.730,397.945 209.043,397.748 205.497 C 397.593 202.712,397.693 198.305,397.993 194.688 C 398.552 187.945,398.109 179.100,396.948 173.800 C 395.965 169.317,395.574 157.273,396.284 153.400 C 396.879 150.156,396.845 148.087,396.053 139.600 C 395.645 135.221,394.457 126.816,394.184 126.375 C 394.098 126.235,393.664 123.168,393.220 119.560 C 392.776 115.952,392.143 111.830,391.814 110.400 C 390.357 104.076,390.309 103.533,390.762 98.400 C 391.622 88.649,391.581 84.500,390.595 81.592 C 388.683 75.957,386.791 73.168,384.207 72.181 C 382.011 71.343,381.880 70.463,383.395 66.735 C 384.772 63.346,385.856 59.282,386.577 54.800 C 387.436 49.462,387.750 48.544,389.978 44.836 C 393.233 39.420,393.443 38.610,392.814 33.848 C 391.130 21.096,392.508 16.319,398.608 13.771 L 400.000 13.189 400.000 6.595 L 400.000 0.000 397.586 0.000 C 395.227 0.000,395.183 0.020,395.640 0.875 M34.000 34.717 C 32.337 35.236,32.000 36.039,32.000 39.482 C 32.000 43.099,31.724 43.912,29.397 47.151 C 27.617 49.629,27.387 50.752,28.175 53.123 C 29.622 57.481,32.240 58.179,37.482 55.606 C 42.501 53.142,43.141 53.129,47.985 55.393 C 53.710 58.069,56.125 57.446,57.430 52.957 C 58.190 50.342,57.923 49.281,55.691 46.027 C 54.293 43.990,54.186 43.618,53.983 40.078 C 53.782 36.576,53.686 36.232,52.659 35.349 C 51.450 34.309,51.303 34.317,46.858 35.642 C 43.660 36.596,41.943 36.596,38.742 35.644 C 35.280 34.615,34.695 34.500,34.000 34.717 M348.582 35.382 C 347.686 36.278,347.600 36.676,347.600 39.944 L 347.600 43.525 345.545 46.568 C 340.357 54.247,345.325 59.467,353.758 55.199 C 357.839 53.133,358.848 53.154,363.600 55.400 C 367.742 57.358,368.524 57.493,370.626 56.615 C 373.149 55.561,374.483 50.716,372.898 48.365 C 369.395 43.170,369.600 43.685,369.600 40.095 C 369.600 34.584,368.686 33.878,363.546 35.416 C 359.407 36.655,357.597 36.652,353.761 35.400 C 349.985 34.167,349.797 34.167,348.582 35.382 M46.786 41.385 C 48.102 42.786,48.759 47.341,47.798 48.403 C 46.841 49.460,38.841 49.614,37.993 48.591 C 36.753 47.097,38.371 40.995,40.107 40.618 C 43.217 39.943,45.699 40.228,46.786 41.385 M362.260 40.987 C 363.697 41.993,364.614 47.626,363.520 48.720 C 362.600 49.640,354.951 49.351,353.959 48.359 C 352.541 46.941,353.500 41.762,355.346 40.868 C 356.676 40.224,361.284 40.303,362.260 40.987 M68.090 46.002 C 65.657 47.485,65.697 50.036,68.244 55.900 C 69.219 58.146,69.575 58.368,70.585 57.358 C 75.129 52.814,72.978 43.022,68.090 46.002 M60.600 70.865 C 55.878 74.038,49.810 76.123,42.709 77.010 C 38.666 77.515,41.011 78.803,45.960 78.795 C 54.897 78.779,63.600 74.547,63.600 70.216 C 63.600 69.712,61.707 70.121,60.600 70.865 M362.496 104.795 C 361.097 107.035,363.186 112.222,365.332 111.836 C 367.773 111.396,368.281 110.341,367.275 107.805 C 365.859 104.237,363.696 102.874,362.496 104.795 M47.044 278.120 C 45.839 279.325,45.333 282.739,46.133 284.266 L 46.694 285.336 48.107 283.388 C 50.875 279.574,49.987 275.176,47.044 278.120 M42.536 301.600 C 42.146 302.260,41.686 302.800,41.514 302.800 C 40.578 302.800,41.293 304.742,42.398 305.199 C 44.343 306.005,45.766 304.851,45.478 302.702 C 45.138 300.173,43.698 299.633,42.536 301.600 M170.533 309.745 C 165.780 312.016,162.200 321.684,164.231 326.761 C 165.404 329.691,166.398 329.404,168.091 325.646 C 170.747 319.747,171.429 319.894,180.837 328.401 C 183.567 330.869,187.240 333.985,189.000 335.326 C 190.760 336.667,193.279 338.655,194.597 339.745 C 201.609 345.542,206.125 345.083,214.231 337.747 C 216.634 335.573,220.490 332.175,222.799 330.197 C 225.109 328.219,228.259 325.446,229.799 324.036 C 232.929 321.171,235.853 319.610,238.100 319.604 L 239.600 319.600 239.600 317.863 C 239.600 314.443,237.191 311.384,234.046 310.808 C 229.979 310.065,226.872 311.420,216.248 318.573 C 204.264 326.641,203.024 326.680,193.812 319.272 C 182.928 310.520,175.377 307.430,170.533 309.745 M188.488 323.540 C 189.210 323.947,191.060 325.096,192.600 326.092 C 196.853 328.844,198.493 329.284,205.332 329.507 C 211.869 329.721,212.100 329.824,211.158 332.107 C 208.408 338.776,202.180 339.861,197.183 334.541 C 195.982 333.263,193.233 330.424,191.073 328.232 C 185.966 323.048,185.222 321.698,188.488 323.540 M33.094 333.300 C 32.030 334.108,31.597 335.856,31.854 338.309 C 32.134 340.996,31.612 342.530,29.448 345.364 C 24.505 351.840,30.334 357.530,37.839 353.554 C 40.181 352.313,41.400 351.908,42.790 351.908 C 44.153 351.908,45.488 352.337,47.908 353.554 C 53.004 356.116,55.646 355.746,57.235 352.247 C 58.559 349.331,58.194 347.772,55.300 343.982 C 54.075 342.378,54.000 342.089,54.000 338.966 C 54.000 332.948,53.037 332.108,47.886 333.629 C 43.946 334.793,41.106 334.795,37.837 333.637 C 35.120 332.674,34.021 332.596,33.094 333.300 M348.400 334.800 C 347.725 335.475,347.600 336.133,347.600 339.013 C 347.600 342.767,347.244 343.857,345.008 346.944 C 343.348 349.235,343.174 351.222,344.396 353.915 C 345.919 357.271,348.668 357.469,354.140 354.617 C 357.792 352.713,359.297 352.743,363.551 354.800 C 371.704 358.743,376.092 353.830,371.393 346.018 C 369.629 343.085,369.600 342.979,369.600 339.500 C 369.600 333.953,368.734 333.344,363.200 335.000 C 359.038 336.246,358.002 336.246,354.115 335.005 C 350.332 333.797,349.435 333.765,348.400 334.800 M45.200 338.794 C 47.047 339.308,47.681 340.433,47.907 343.602 C 48.153 347.036,47.926 347.210,43.150 347.234 C 37.604 347.263,37.028 346.738,37.924 342.470 C 38.683 338.849,41.069 337.644,45.200 338.794 M171.386 339.623 C 170.364 341.276,172.953 344.569,181.984 353.099 C 191.248 361.851,194.488 363.941,198.851 363.982 C 202.369 364.016,202.330 363.442,198.475 358.475 C 192.762 351.114,172.849 337.256,171.386 339.623 M361.415 340.181 C 362.978 340.834,363.401 341.667,363.803 344.885 C 364.217 348.201,363.485 348.800,359.019 348.800 C 354.195 348.800,353.600 348.448,353.600 345.595 C 353.600 340.377,356.717 338.217,361.415 340.181 M227.556 344.785 C 221.122 346.732,204.052 361.648,206.425 363.248 C 209.206 365.122,213.775 362.664,221.328 355.229 C 230.351 346.347,232.103 343.408,227.556 344.785 M393.008 370.095 C 398.355 375.862,388.536 386.000,377.605 386.000 C 372.434 386.000,372.574 384.058,378.000 380.528 C 381.043 378.548,382.626 376.977,384.223 374.355 C 387.344 369.232,390.699 367.605,393.008 370.095 " stroke="none" fill="#5c5c54" fill-rule="evenodd"></path></g></svg>