<svg id="svg" version="1.1" xmlns="http://www.w3.org/2000/svg" xmlns:xlink="http://www.w3.org/1999/xlink" width="400" height="400" viewBox="0, 0, 400,400"><g id="svgg"><path id="path0" d="M0.552 0.581 C 0.429 0.900,0.476 1.395,0.655 1.681 C 0.834 1.966,0.928 2.515,0.865 2.900 C 0.802 3.285,0.902 3.600,1.088 3.600 C 1.273 3.600,1.461 4.026,1.504 4.546 C 1.600 5.704,2.891 8.712,3.759 9.800 C 7.787 14.847,7.984 15.303,9.584 23.256 C 10.081 25.729,10.211 30.935,9.792 31.613 C 9.222 32.535,9.255 48.934,9.833 52.352 C 10.912 58.729,10.610 67.337,9.155 71.682 C 7.699 76.028,7.153 83.037,7.974 86.835 C 8.231 88.026,8.611 90.890,8.819 93.200 C 9.102 96.362,9.443 97.886,10.198 99.368 C 11.459 101.845,11.459 103.627,10.196 106.340 C 8.933 109.054,8.943 110.379,10.248 113.139 C 12.150 117.158,12.031 118.057,8.754 124.495 C 8.221 125.541,8.328 128.132,8.967 129.651 C 11.019 134.529,16.879 135.638,40.060 135.535 C 49.069 135.495,55.289 135.640,57.200 135.934 C 63.543 136.910,65.405 137.084,67.960 136.940 C 71.263 136.752,77.202 137.414,81.431 138.441 C 84.422 139.167,84.833 139.181,86.962 138.627 C 91.709 137.390,103.924 137.764,105.349 139.189 C 106.564 140.404,91.305 141.264,87.238 140.210 C 84.843 139.589,84.570 139.597,81.428 140.371 C 76.675 141.541,73.086 141.774,68.497 141.212 C 65.015 140.785,63.901 140.811,60.140 141.404 C 56.147 142.034,52.791 142.037,49.638 141.412 C 48.195 141.127,29.256 142.272,16.119 143.439 C 10.425 143.945,8.228 148.274,11.721 152.104 C 13.284 153.818,15.418 154.555,17.923 154.244 C 23.604 153.541,26.645 153.529,31.636 154.190 C 36.046 154.774,37.258 154.804,39.474 154.386 C 41.226 154.056,43.106 153.997,45.147 154.211 C 48.817 154.595,51.549 154.593,59.200 154.202 C 66.172 153.845,75.200 155.285,75.200 156.752 C 75.200 158.553,65.254 160.281,58.742 159.613 C 53.570 159.082,49.666 159.090,44.995 159.641 C 41.705 160.029,40.998 159.996,39.127 159.369 C 36.135 158.365,32.426 158.444,28.800 159.588 C 25.134 160.744,22.493 160.761,19.600 159.647 C 16.430 158.427,13.891 158.504,12.829 159.854 C 12.373 160.434,11.987 160.749,11.972 160.554 C 11.956 160.359,11.688 160.897,11.376 161.748 C 9.849 165.914,12.134 167.692,19.200 167.837 C 22.249 167.899,24.407 168.152,25.600 168.586 C 32.990 171.275,38.683 171.951,43.529 170.715 C 47.533 169.693,53.010 169.527,57.400 170.295 C 59.185 170.607,64.695 170.790,72.600 170.802 C 89.964 170.826,92.339 171.450,83.326 173.619 C 76.562 175.247,74.246 175.424,70.541 174.600 C 66.517 173.704,62.455 174.038,57.722 175.652 C 52.725 177.357,49.388 177.365,46.167 175.681 C 42.257 173.638,38.405 173.185,35.891 174.475 C 33.862 175.514,25.732 176.800,21.185 176.800 C 14.816 176.800,13.619 177.284,13.606 179.864 C 13.598 181.555,15.337 183.010,17.807 183.380 C 18.833 183.534,21.321 184.106,23.336 184.652 C 28.491 186.048,34.603 186.315,40.608 185.407 C 47.237 184.405,50.919 184.703,57.125 186.744 C 61.786 188.277,62.172 188.341,64.325 187.937 C 68.994 187.062,75.640 188.128,73.920 189.476 C 72.209 190.818,68.936 191.102,64.981 190.252 C 62.287 189.674,61.377 189.863,57.764 191.752 C 53.020 194.233,46.411 194.859,39.600 193.472 C 30.963 191.714,24.639 191.697,17.077 193.413 C 12.045 194.554,12.459 198.079,17.800 199.567 C 22.657 200.921,38.399 201.293,43.883 200.183 C 48.642 199.220,50.035 199.406,56.559 201.869 C 62.552 204.132,58.057 206.189,45.800 206.794 C 40.843 207.038,38.039 207.356,36.800 207.813 C 35.245 208.386,34.155 208.431,28.800 208.138 C 18.301 207.565,16.080 207.824,14.575 209.798 C 12.618 212.364,14.562 213.936,18.800 213.215 C 21.065 212.829,34.919 212.979,35.595 213.397 C 35.803 213.525,41.777 213.719,48.870 213.826 C 58.137 213.966,62.391 214.181,63.984 214.589 C 68.996 215.873,73.020 216.128,77.751 215.463 C 85.197 214.417,94.548 214.247,98.265 215.089 C 101.292 215.775,103.487 215.848,112.100 215.549 C 115.760 215.422,117.602 215.899,119.333 217.421 L 120.466 218.418 119.533 219.186 C 118.313 220.189,115.002 220.590,111.448 220.164 C 106.662 219.591,102.988 219.904,96.941 221.400 C 90.381 223.023,89.078 223.081,83.514 222.002 C 77.098 220.757,75.343 220.666,71.598 221.384 C 69.729 221.742,64.510 222.201,60.000 222.404 C 47.851 222.951,43.716 223.526,40.637 225.094 C 39.678 225.582,39.215 225.601,38.003 225.201 C 36.608 224.741,33.200 225.769,33.200 226.651 C 33.200 227.017,35.348 228.612,35.692 228.500 C 35.862 228.445,36.000 228.626,36.000 228.902 C 36.000 229.426,35.506 229.658,31.200 231.154 C 27.378 232.482,26.324 232.933,25.080 233.767 L 23.961 234.518 25.465 235.759 C 28.390 238.173,29.678 238.515,34.600 238.182 C 43.467 237.584,44.508 237.668,50.899 239.505 C 54.143 240.437,57.158 241.200,57.599 241.200 C 59.418 241.200,58.114 241.894,53.252 243.513 C 46.016 245.923,42.112 246.193,32.318 244.959 C 30.826 244.771,29.623 244.993,26.518 246.029 C 23.625 246.994,21.576 247.396,18.685 247.569 C 15.836 247.738,14.666 247.965,14.391 248.401 C 13.373 250.011,14.781 250.758,19.643 251.190 C 21.929 251.392,25.060 251.874,26.600 252.261 C 28.710 252.790,31.174 252.974,36.600 253.005 C 43.790 253.047,48.491 253.622,56.611 255.455 C 58.689 255.924,60.357 256.019,63.011 255.819 C 72.311 255.119,89.689 255.416,91.700 256.310 C 96.007 258.225,92.909 260.587,85.031 261.395 C 83.508 261.551,80.898 262.139,79.231 262.702 C 75.575 263.936,72.780 264.017,69.000 262.998 C 64.391 261.755,51.350 262.538,49.271 264.182 C 48.981 264.412,48.396 264.915,47.971 265.300 C 47.547 265.685,47.063 266.000,46.895 266.000 C 46.727 266.000,46.412 266.405,46.195 266.900 C 45.881 267.615,45.143 267.951,42.600 268.537 C 37.467 269.718,33.874 271.011,31.200 272.640 C 30.650 272.975,29.885 273.349,29.500 273.471 C 29.115 273.593,28.800 274.083,28.800 274.559 C 28.800 275.691,30.689 276.223,36.800 276.814 C 46.393 277.741,49.715 279.711,47.162 282.958 C 46.500 283.799,46.320 284.605,46.306 286.780 C 46.291 289.125,46.178 289.565,45.543 289.731 C 45.055 289.858,44.881 290.147,45.041 290.563 C 45.202 290.983,45.066 291.200,44.643 291.200 C 44.289 291.200,44.000 290.917,44.000 290.571 C 44.000 289.419,39.841 290.274,35.764 292.266 C 32.877 293.675,31.345 294.151,28.333 294.572 C 20.597 295.652,18.435 297.689,23.106 299.497 C 26.811 300.931,29.241 301.214,39.800 301.441 C 50.439 301.670,51.921 301.842,57.100 303.448 C 60.985 304.652,61.056 304.796,58.300 305.877 C 53.874 307.613,48.895 308.353,34.627 309.395 C 27.222 309.936,26.364 310.110,22.400 311.872 C 20.127 312.883,18.646 313.499,17.900 313.745 C 13.881 315.067,22.283 318.000,31.383 318.452 C 34.893 318.627,39.843 318.948,42.383 319.166 C 47.024 319.565,58.591 319.998,69.000 320.162 C 73.189 320.228,75.070 320.427,76.467 320.952 C 82.493 323.215,74.991 325.766,66.407 324.373 C 64.610 324.082,62.521 324.079,59.607 324.363 C 57.293 324.589,53.150 324.972,50.400 325.214 C 47.650 325.456,42.880 326.254,39.800 326.988 C 33.804 328.416,26.793 329.415,18.898 329.967 C 12.602 330.408,10.291 331.887,11.558 334.668 C 12.526 336.791,13.490 336.998,22.584 337.028 C 31.912 337.059,42.246 337.685,43.431 338.292 C 45.257 339.225,48.506 339.677,53.071 339.631 C 58.116 339.581,59.091 339.880,57.869 341.102 C 57.190 341.782,53.047 341.932,49.531 341.405 C 48.156 341.198,46.940 341.340,44.931 341.941 C 43.429 342.390,40.670 342.840,38.800 342.940 C 36.834 343.046,34.051 343.536,32.200 344.102 C 27.536 345.527,24.761 346.009,19.618 346.283 C 14.700 346.545,13.200 347.220,13.200 349.173 C 13.200 350.794,14.814 351.290,20.506 351.421 C 25.810 351.542,27.342 351.750,31.784 352.954 C 33.095 353.309,35.705 353.610,37.584 353.623 C 41.564 353.650,44.122 354.033,44.104 354.600 C 44.082 355.301,37.930 356.819,34.600 356.946 C 32.451 357.027,30.390 357.414,28.328 358.122 C 24.632 359.390,20.756 360.040,18.663 359.743 C 12.086 358.809,9.961 363.909,14.739 369.158 C 16.068 370.618,16.035 370.873,14.319 372.389 C 13.704 372.933,13.195 373.563,13.189 373.789 C 13.183 374.015,12.643 374.907,11.989 375.771 C 10.260 378.056,10.300 380.616,12.092 382.368 C 14.391 384.616,15.633 384.762,34.600 385.011 C 64.157 385.400,69.211 385.536,76.000 386.127 C 81.197 386.580,87.065 386.651,103.600 386.464 C 115.150 386.332,129.190 386.269,134.800 386.322 C 160.056 386.564,174.853 386.465,179.000 386.027 C 187.263 385.153,192.734 385.069,198.808 385.721 C 203.277 386.201,209.611 386.350,226.540 386.372 C 238.607 386.389,248.626 386.492,248.805 386.603 C 249.469 387.014,317.386 386.823,320.800 386.401 C 326.787 385.661,343.425 385.191,348.001 385.633 C 350.991 385.921,353.699 385.904,357.401 385.572 C 360.260 385.317,365.480 385.052,369.000 384.984 C 372.520 384.916,376.370 384.667,377.555 384.431 C 378.740 384.194,380.758 384.000,382.040 384.000 C 389.338 384.000,392.528 379.717,390.414 372.755 C 389.503 369.755,389.511 368.342,390.465 364.400 C 391.189 361.404,389.584 357.854,386.021 354.571 C 384.494 353.163,384.425 353.584,386.697 350.422 C 387.557 349.226,387.626 344.111,386.790 343.594 C 386.179 343.216,386.167 340.678,386.776 340.475 C 387.009 340.397,387.200 340.178,387.200 339.987 C 387.200 339.797,387.642 339.165,388.182 338.582 C 392.525 333.896,390.248 330.187,382.169 328.790 C 379.766 328.374,375.640 327.551,373.000 326.961 C 368.054 325.854,365.875 325.774,350.200 326.125 C 341.464 326.320,327.600 324.411,327.600 323.012 C 327.600 321.638,330.746 321.059,338.600 320.990 C 362.265 320.781,386.253 319.650,387.745 318.673 C 391.734 316.059,392.436 312.810,389.920 308.600 C 388.990 307.044,389.021 305.033,390.009 302.856 C 391.099 300.453,391.011 299.096,389.528 295.494 L 388.249 292.387 388.954 289.670 L 389.659 286.952 388.570 283.729 L 387.482 280.505 388.741 277.921 C 390.525 274.259,390.421 273.153,387.953 269.571 C 386.826 267.937,385.758 266.214,385.579 265.742 C 385.170 264.669,382.917 263.509,381.879 263.838 C 381.420 263.984,380.962 263.863,380.762 263.543 C 380.482 263.093,380.280 263.090,379.580 263.523 C 378.691 264.075,376.243 262.699,375.728 261.358 C 375.611 261.051,375.264 260.800,374.957 260.800 C 374.651 260.800,374.400 260.636,374.400 260.435 C 374.400 260.234,373.660 259.525,372.755 258.860 C 367.752 255.180,370.558 252.910,380.564 252.540 C 387.116 252.297,387.577 252.198,389.300 250.665 C 393.668 246.776,388.393 240.154,382.041 241.553 C 375.580 242.976,373.216 243.154,362.523 243.018 C 351.285 242.876,345.200 242.112,345.200 240.842 C 345.200 239.641,348.297 239.003,353.572 239.119 C 364.274 239.352,364.517 239.341,367.600 238.438 C 372.156 237.105,375.180 236.983,379.315 237.965 C 383.192 238.886,384.465 238.982,385.505 238.434 C 385.887 238.232,386.833 237.794,387.606 237.459 C 389.065 236.829,390.172 235.774,391.326 233.914 C 393.143 230.986,390.684 220.053,387.781 218.151 C 385.764 216.829,385.746 216.095,387.687 214.261 C 391.228 210.915,391.888 208.578,390.206 205.353 C 389.150 203.327,389.634 200.333,391.600 196.734 C 392.076 195.864,391.552 194.088,390.017 191.369 C 388.179 188.111,388.508 186.832,392.401 182.117 C 393.424 180.878,392.844 177.590,391.000 174.179 C 388.771 170.055,388.771 169.616,391.003 166.217 C 393.702 162.108,393.884 161.173,392.634 157.851 C 391.270 154.228,391.497 150.453,393.139 149.438 C 393.764 149.052,394.428 145.840,394.108 144.751 C 393.785 143.652,392.459 141.922,389.419 138.631 C 387.003 136.015,387.214 135.594,393.395 130.733 C 396.495 128.294,396.571 122.248,393.539 119.192 C 392.004 117.643,391.055 114.011,391.918 112.980 C 392.093 112.771,392.575 111.555,392.990 110.279 L 393.744 107.958 392.672 104.867 C 391.282 100.859,391.319 99.959,392.978 97.460 C 395.090 94.278,395.433 90.962,395.011 77.800 C 394.920 74.940,394.597 71.447,394.295 70.038 C 393.898 68.189,393.852 66.966,394.129 65.638 C 394.725 62.781,394.832 56.402,394.320 54.317 C 393.936 52.752,393.983 51.807,394.604 48.717 C 395.014 46.673,395.384 43.110,395.426 40.800 C 395.468 38.490,395.638 35.209,395.803 33.509 C 396.027 31.212,395.962 30.080,395.552 29.109 C 394.112 25.696,395.049 19.137,397.781 13.508 C 399.318 10.340,399.425 9.929,398.908 9.191 C 397.951 7.824,397.694 6.294,398.019 3.900 C 398.416 0.974,398.163 0.000,397.006 0.000 C 396.136 0.000,396.111 0.102,396.289 2.943 C 396.506 6.402,395.677 8.523,393.509 10.061 C 392.789 10.571,391.879 11.261,391.487 11.594 C 391.095 11.927,390.645 12.216,390.487 12.235 C 390.329 12.254,389.872 12.413,389.472 12.588 C 389.072 12.764,386.282 12.682,383.272 12.408 C 377.410 11.873,369.171 12.313,366.916 13.282 C 364.803 14.189,363.600 15.235,363.600 16.165 C 363.600 16.666,363.240 17.402,362.800 17.800 C 362.360 18.198,362.000 18.873,362.000 19.300 C 362.000 19.727,361.652 20.565,361.227 21.163 C 359.302 23.866,359.835 24.919,365.396 29.400 C 369.594 32.782,369.782 33.204,367.985 35.216 C 366.734 36.618,366.433 37.355,366.285 39.372 C 366.195 40.617,366.083 40.527,370.100 42.427 C 375.877 45.159,370.928 46.290,346.602 47.796 C 343.536 47.986,342.064 48.285,340.293 49.080 C 338.162 50.037,337.686 50.099,334.124 49.886 C 330.713 49.683,329.888 49.774,327.032 50.673 C 320.628 52.690,319.957 53.332,320.277 57.148 L 320.511 59.939 318.906 60.372 C 317.801 60.669,317.007 61.233,316.358 62.179 C 315.840 62.936,315.083 63.642,314.676 63.748 C 312.890 64.215,314.054 65.769,316.600 66.316 C 317.920 66.599,320.620 67.185,322.600 67.617 C 332.747 69.830,339.862 70.322,342.064 68.961 C 343.104 68.317,349.368 68.986,351.800 70.000 C 360.823 73.762,360.999 73.942,358.255 76.608 C 355.871 78.925,355.700 79.881,357.194 82.527 C 358.913 85.574,358.594 87.997,356.471 88.001 C 356.102 88.002,355.180 88.381,354.423 88.842 C 352.137 90.236,348.720 90.738,345.218 90.195 C 343.331 89.902,338.001 89.758,331.000 89.810 C 318.154 89.906,316.346 90.198,311.000 93.029 C 306.392 95.470,304.187 95.919,294.600 96.366 C 289.980 96.582,285.570 96.975,284.800 97.239 C 284.030 97.503,283.040 97.849,282.600 98.006 C 282.160 98.164,281.262 98.456,280.604 98.655 C 278.987 99.144,278.792 100.297,280.273 100.607 C 280.893 100.736,282.300 101.123,283.400 101.467 C 286.806 102.530,288.407 102.781,294.400 103.191 C 304.120 103.856,318.882 106.013,322.200 107.252 C 323.300 107.663,324.560 108.010,325.000 108.023 C 327.819 108.105,319.237 109.657,314.200 109.976 C 310.900 110.186,307.571 110.546,306.802 110.778 C 304.914 111.348,301.889 111.879,296.457 112.594 C 276.418 115.231,285.727 119.600,311.384 119.600 C 320.767 119.600,326.938 120.044,336.713 121.424 C 340.515 121.961,344.745 122.401,346.113 122.402 C 355.269 122.410,354.352 126.159,345.000 126.950 C 343.460 127.080,340.220 127.534,337.800 127.959 C 329.652 129.390,324.355 129.800,313.600 129.831 C 307.770 129.848,301.470 130.069,299.600 130.323 C 297.730 130.577,289.900 130.883,282.200 131.003 C 271.144 131.176,267.233 131.382,263.600 131.980 C 256.514 133.148,250.881 133.685,249.057 133.367 C 248.146 133.208,238.940 133.026,228.600 132.962 C 218.260 132.898,209.260 132.818,208.600 132.784 C 204.821 132.592,179.612 133.172,174.200 133.576 C 169.388 133.934,166.658 133.941,163.200 133.605 C 160.670 133.359,153.200 133.001,146.600 132.810 C 139.759 132.613,132.623 132.186,130.000 131.818 C 120.902 130.542,119.749 130.424,116.200 130.409 C 114.220 130.401,111.520 130.224,110.200 130.016 C 108.880 129.808,105.100 129.359,101.800 129.019 C 95.872 128.407,92.509 127.758,92.954 127.312 C 93.389 126.877,99.008 126.042,101.800 125.997 C 104.995 125.946,106.802 125.653,111.600 124.410 C 116.257 123.203,125.731 123.083,132.657 124.143 C 136.866 124.787,137.986 124.823,141.057 124.409 C 143.006 124.147,148.110 123.779,152.400 123.591 C 157.755 123.356,161.391 122.985,164.000 122.407 C 171.950 120.646,172.233 120.628,177.678 121.548 C 182.419 122.349,191.052 122.651,203.747 122.459 C 209.675 122.370,217.391 119.817,216.940 118.093 C 216.412 116.074,211.122 114.716,204.210 114.826 C 201.344 114.871,196.066 114.676,192.481 114.391 C 187.194 113.971,184.540 113.968,178.442 114.376 C 174.306 114.653,169.590 114.770,167.961 114.636 C 166.332 114.502,162.474 114.306,159.388 114.201 C 155.997 114.085,152.936 113.760,151.654 113.379 C 148.722 112.508,143.600 110.132,143.600 109.642 C 143.600 109.250,147.038 106.908,150.900 104.668 C 151.945 104.062,152.800 103.327,152.800 103.035 C 152.800 102.740,151.955 102.276,150.900 101.991 C 149.855 101.709,148.550 101.247,148.000 100.963 C 145.697 99.775,142.552 99.167,134.800 98.408 C 122.842 97.239,119.017 96.264,116.894 93.846 C 116.281 93.148,115.107 92.161,114.287 91.654 L 112.794 90.731 113.556 89.666 C 115.641 86.746,116.046 86.524,122.828 84.572 C 123.174 84.473,124.323 83.842,125.381 83.171 L 127.305 81.951 127.049 79.449 C 126.631 75.367,128.590 74.264,137.760 73.415 C 142.562 72.971,143.408 72.787,143.960 72.071 C 144.921 70.826,152.146 70.110,156.672 70.813 C 160.628 71.426,164.176 71.141,168.800 69.839 C 175.623 67.917,177.138 66.417,174.362 64.330 C 170.534 61.452,170.605 61.628,171.400 57.013 C 171.876 54.253,170.275 52.349,165.800 50.353 C 163.718 49.425,162.390 49.336,153.600 49.535 C 151.510 49.582,148.023 49.435,145.851 49.208 C 142.278 48.835,115.718 48.992,113.606 49.399 C 110.496 49.998,100.912 46.843,100.043 44.934 C 99.809 44.420,99.393 44.000,99.119 44.000 C 98.845 44.000,98.043 43.351,97.337 42.557 C 95.025 39.959,89.558 38.412,82.600 38.387 C 75.300 38.361,72.239 37.088,72.924 34.362 C 73.400 32.466,76.090 31.240,79.771 31.240 C 85.301 31.240,88.694 29.473,87.772 27.072 C 87.497 26.355,85.378 25.797,80.600 25.183 C 78.620 24.929,76.593 24.645,76.095 24.552 C 75.173 24.379,70.236 20.440,69.266 19.104 C 66.907 15.853,58.127 13.791,53.459 15.393 C 51.215 16.163,46.278 15.731,41.671 14.360 C 39.122 13.602,36.378 13.064,31.600 12.387 C 30.170 12.185,27.290 11.756,25.199 11.434 C 23.109 11.112,19.509 10.815,17.199 10.772 C 6.720 10.580,-1.056 4.915,5.300 2.104 C 5.977 1.804,6.400 1.306,6.400 0.809 C 6.400 -0.234,0.946 -0.446,0.552 0.581 M106.075 24.454 C 104.483 24.913,104.419 26.291,105.954 27.054 C 106.479 27.314,107.038 27.738,107.196 27.994 C 108.093 29.445,114.600 28.225,114.600 26.607 C 114.600 26.015,114.245 25.750,113.200 25.563 C 112.430 25.425,111.260 25.019,110.600 24.659 C 109.271 23.935,108.066 23.880,106.075 24.454 M342.900 107.549 C 348.196 109.841,340.215 110.761,330.695 108.956 C 328.987 108.632,327.334 108.420,327.021 108.484 C 326.388 108.613,326.368 107.884,327.000 107.703 C 332.047 106.258,339.745 106.184,342.900 107.549 M136.639 108.852 C 137.631 109.101,138.367 109.503,138.286 109.752 C 137.789 111.269,129.800 111.725,129.800 110.236 C 129.800 108.755,133.379 108.031,136.639 108.852 M367.934 123.039 C 370.292 124.690,367.440 126.722,363.461 126.225 C 360.746 125.886,359.617 125.149,360.238 124.123 C 361.199 122.539,366.211 121.832,367.934 123.039 M117.400 139.408 C 117.400 140.301,111.772 140.756,108.676 140.112 C 105.030 139.355,107.550 138.582,113.600 138.603 C 117.117 138.615,117.400 138.675,117.400 139.408 M301.708 144.855 L 303.343 145.689 302.391 146.407 C 300.758 147.639,297.008 148.205,291.000 148.128 C 286.460 148.069,284.454 148.242,280.400 149.040 C 276.068 149.893,273.637 150.073,262.200 150.390 C 254.940 150.592,247.290 150.933,245.200 151.149 C 243.110 151.365,239.118 151.644,236.330 151.769 C 233.541 151.895,230.785 152.178,230.204 152.399 C 228.637 152.994,222.064 152.880,220.184 152.225 C 217.611 151.328,209.657 150.466,201.000 150.145 C 192.027 149.813,192.343 149.812,183.000 150.215 C 169.882 150.781,161.054 148.214,168.002 145.853 C 169.864 145.220,171.636 145.092,179.600 145.015 C 184.770 144.965,196.020 144.697,204.600 144.419 C 219.929 143.924,242.776 144.080,243.724 144.687 C 243.986 144.855,252.840 145.048,263.400 145.116 C 287.499 145.272,288.312 145.260,289.941 144.740 C 293.866 143.485,299.123 143.536,301.708 144.855 M327.872 144.880 C 331.613 146.233,326.238 147.487,319.801 146.763 C 316.320 146.371,314.158 145.676,316.100 145.573 C 316.375 145.559,318.490 145.309,320.800 145.018 C 326.322 144.323,326.331 144.323,327.872 144.880 M344.777 145.372 C 345.620 146.388,343.861 146.942,340.100 146.844 C 338.199 146.795,337.797 146.013,339.300 145.288 C 340.652 144.636,344.211 144.691,344.777 145.372 M84.800 156.200 C 85.221 156.707,85.139 156.800,84.273 156.800 C 83.144 156.800,82.503 156.186,83.298 155.866 C 84.117 155.535,84.278 155.571,84.800 156.200 M227.816 157.790 C 229.547 158.122,231.813 158.896,232.979 159.553 C 234.121 160.198,235.479 160.787,235.997 160.863 C 239.693 161.402,232.154 163.247,225.192 163.507 C 220.555 163.681,211.984 162.739,209.767 161.812 C 203.835 159.333,218.639 156.035,227.816 157.790 M187.856 160.613 C 188.782 160.808,189.295 161.686,188.974 162.525 C 188.122 164.743,176.508 164.542,176.076 162.301 C 175.758 160.646,183.052 159.601,187.856 160.613 M248.567 161.043 C 249.461 161.386,249.353 162.297,248.383 162.605 C 246.390 163.238,243.109 161.787,244.900 161.065 C 245.624 160.773,247.829 160.760,248.567 161.043 M225.000 174.552 C 235.339 174.316,239.575 174.373,240.800 174.767 C 241.570 175.014,244.990 175.397,248.400 175.618 C 261.516 176.466,269.200 177.849,269.200 179.362 C 269.200 181.373,256.534 183.740,245.600 183.773 C 240.650 183.788,234.620 184.019,232.200 184.288 C 225.994 184.975,218.719 185.161,215.200 184.720 C 212.627 184.399,196.745 183.907,190.600 183.960 C 189.500 183.969,187.073 184.186,185.207 184.443 C 181.284 184.982,174.054 184.664,171.736 183.851 C 170.891 183.554,168.971 183.099,167.470 182.839 C 164.533 182.330,160.562 180.985,160.182 180.371 C 159.601 179.430,164.739 176.463,169.086 175.229 L 172.372 174.297 189.286 174.748 C 203.541 175.128,206.797 175.110,210.000 174.631 C 212.637 174.237,215.208 174.145,218.400 174.330 C 220.930 174.477,223.900 174.577,225.000 174.552 M229.200 190.804 C 232.170 191.012,239.190 191.082,244.800 190.960 C 254.472 190.751,256.327 190.847,264.200 191.968 C 265.740 192.188,267.720 192.454,268.600 192.560 C 269.480 192.667,271.550 192.959,273.200 193.210 C 274.850 193.461,278.301 193.646,280.869 193.621 C 285.127 193.579,286.639 193.895,285.870 194.664 C 285.754 194.779,282.181 194.919,277.930 194.973 C 271.212 195.059,269.650 195.206,266.000 196.096 C 263.025 196.821,260.166 197.190,256.200 197.360 C 253.120 197.493,249.160 197.880,247.400 198.220 C 242.413 199.184,239.542 199.342,236.107 198.840 C 233.766 198.498,231.726 198.489,228.316 198.806 C 224.142 199.194,223.314 199.155,219.748 198.399 C 210.674 196.474,209.395 196.307,204.400 196.394 C 192.613 196.601,184.026 196.311,180.555 195.591 C 178.857 195.238,177.344 195.227,174.637 195.546 C 168.321 196.290,164.545 196.435,163.347 195.980 L 162.209 195.547 163.205 194.794 C 164.471 193.837,168.330 193.136,175.400 192.579 C 177.380 192.423,179.375 192.155,179.833 191.983 C 180.836 191.607,182.073 191.691,185.889 192.393 C 188.122 192.804,189.531 192.827,192.089 192.495 C 195.539 192.049,197.194 192.063,203.712 192.600 C 207.899 192.945,209.590 192.704,215.200 190.960 C 217.571 190.224,218.787 190.070,221.000 190.228 C 222.540 190.338,226.230 190.597,229.200 190.804 M88.026 204.014 C 90.253 205.206,87.840 206.600,83.551 206.600 C 80.853 206.600,80.300 206.478,79.535 205.713 L 78.648 204.825 80.024 204.228 C 81.618 203.537,86.872 203.396,88.026 204.014 M356.184 254.794 C 358.400 255.636,357.757 257.147,354.717 258.242 C 351.474 259.411,344.416 258.081,344.405 256.300 C 344.402 255.915,344.535 255.592,344.700 255.582 C 344.865 255.573,345.900 255.315,347.000 255.009 C 349.352 254.356,354.703 254.231,356.184 254.794 M240.408 320.191 C 242.714 320.519,247.930 320.888,252.000 321.010 C 260.561 321.267,263.500 321.515,263.805 322.008 C 264.286 322.786,262.126 323.246,257.141 323.427 C 254.256 323.531,251.742 323.712,251.553 323.829 C 251.365 323.945,248.142 324.208,244.391 324.412 C 240.641 324.616,235.914 325.036,233.886 325.345 C 231.203 325.754,225.818 325.912,214.085 325.927 C 202.398 325.942,196.518 326.114,192.685 326.553 C 180.553 327.944,176.503 328.104,172.400 327.354 C 168.074 326.563,162.937 326.460,152.600 326.957 C 146.718 327.240,144.814 327.191,142.200 326.692 C 134.835 325.286,132.668 324.094,135.900 323.229 C 136.725 323.009,143.171 322.740,150.225 322.633 C 157.743 322.519,165.770 322.163,169.625 321.774 C 174.678 321.264,178.678 321.155,186.907 321.304 C 195.043 321.451,198.213 321.367,200.107 320.955 C 201.543 320.642,207.503 320.241,214.162 320.010 C 220.522 319.789,225.832 319.495,225.962 319.356 C 226.321 318.974,235.650 319.513,240.408 320.191 M315.970 322.145 C 320.215 324.135,312.774 325.290,303.433 324.091 C 296.391 323.187,295.692 322.620,301.100 322.199 C 303.025 322.049,305.500 321.780,306.600 321.601 C 309.054 321.201,314.651 321.526,315.970 322.145 M378.380 352.433 C 380.904 352.974,380.937 353.616,378.500 354.712 C 374.710 356.418,370.894 355.558,372.317 353.320 C 373.092 352.102,375.317 351.776,378.380 352.433 " stroke="none" fill="#c24c04" fill-rule="evenodd"></path><path id="path1" d="M0.034 30.600 L 0.034 34.200 0.800 32.800 C 1.222 32.030,1.566 31.040,1.566 30.600 C 1.566 30.160,1.222 29.170,0.800 28.400 L 0.034 27.000 0.034 30.600 M0.018 51.211 L 0.035 54.600 0.850 53.056 C 1.711 51.423,1.632 50.152,0.575 48.644 C 0.056 47.902,0.002 48.151,0.018 51.211 M0.003 71.300 L 0.005 74.600 0.800 73.400 C 1.756 71.956,1.786 71.343,0.995 69.449 C 0.126 67.369,-0.000 67.604,0.003 71.300 M0.010 91.967 C -0.001 95.652,0.071 95.768,0.891 93.386 C 1.387 91.947,1.370 91.603,0.734 90.187 L 0.021 88.600 0.010 91.967 M0.032 104.000 L 0.032 107.800 0.816 106.229 C 1.794 104.268,1.794 103.732,0.816 101.771 L 0.032 100.200 0.032 104.000 M0.000 116.224 C 0.000 119.754,0.294 120.157,1.351 118.075 C 1.972 116.852,1.868 115.679,0.989 113.979 C 0.093 112.246,0.000 112.458,0.000 116.224 M0.000 139.026 C 0.000 144.705,0.029 144.919,0.703 144.175 C 3.008 141.632,2.985 135.577,0.662 133.651 C 0.051 133.144,0.000 133.559,0.000 139.026 M0.004 155.154 L 0.000 161.308 0.900 160.164 C 2.358 158.312,2.438 153.055,1.044 150.729 L 0.008 149.000 0.004 155.154 M0.001 171.822 L 0.003 178.200 0.776 176.933 C 2.748 173.699,2.835 169.287,0.977 166.769 L 0.000 165.445 0.001 171.822 M0.055 188.000 C 0.056 191.850,0.179 194.730,0.328 194.400 C 0.478 194.070,0.936 193.305,1.346 192.700 C 2.671 190.746,2.561 182.800,1.209 182.800 C 1.051 182.800,0.727 182.395,0.488 181.900 C 0.158 181.216,0.054 182.682,0.055 188.000 M0.099 211.000 C 0.118 218.700,0.205 224.325,0.291 223.500 C 0.378 222.675,0.603 222.000,0.791 222.000 C 2.400 222.000,2.879 213.811,1.415 211.333 C 0.748 210.203,0.744 210.057,1.360 209.117 C 2.664 207.127,2.521 199.200,1.181 199.200 C 1.008 199.200,0.686 198.705,0.465 198.100 C 0.184 197.330,0.074 201.201,0.099 211.000 M0.044 236.800 C 0.058 244.649,0.178 247.485,0.465 246.700 C 0.686 246.095,1.008 245.600,1.181 245.600 C 2.510 245.600,2.615 238.349,1.322 235.850 C 0.840 234.917,0.804 234.486,1.160 233.916 C 2.142 232.343,2.091 229.906,1.031 227.800 L 0.025 225.800 0.044 236.800 M0.078 282.400 C 0.093 300.110,0.217 314.060,0.353 313.400 C 0.489 312.740,0.960 311.668,1.400 311.018 C 2.595 309.253,2.539 304.045,1.300 301.688 C 0.116 299.434,0.082 296.398,1.224 294.854 C 2.722 292.827,3.293 281.858,2.110 277.839 C 1.632 276.213,1.616 275.434,2.020 273.292 C 2.339 271.603,2.402 269.647,2.202 267.653 C 1.835 263.994,1.837 262.756,2.215 258.702 C 2.506 255.590,1.928 252.000,1.135 252.000 C 0.937 252.000,0.611 251.595,0.412 251.100 C 0.193 250.553,0.061 262.835,0.078 282.400 M0.041 323.524 C -0.002 332.923,0.151 333.579,1.615 330.248 C 3.129 326.804,2.826 318.605,1.147 317.567 C 0.912 317.422,0.577 316.695,0.401 315.952 C 0.208 315.134,0.066 318.127,0.041 323.524 M0.018 340.800 L 0.018 345.000 0.776 344.013 C 2.216 342.140,2.216 339.460,0.776 337.587 L 0.018 336.600 0.018 340.800 M0.040 355.600 C 0.063 360.663,0.176 362.240,0.448 361.300 C 0.654 360.585,0.980 360.000,1.172 360.000 C 2.691 360.000,2.616 352.954,1.069 350.372 L 0.008 348.600 0.040 355.600 M0.032 371.446 C 0.049 374.941,0.168 377.530,0.296 377.200 C 0.425 376.870,0.816 376.390,1.165 376.132 C 2.272 375.317,2.069 367.722,0.900 366.236 L -0.000 365.092 0.032 371.446 M0.000 390.600 L 0.000 400.000 200.000 400.000 L 400.000 400.000 400.000 392.400 C 400.000 387.941,399.845 384.800,399.625 384.800 C 399.419 384.800,397.464 386.573,395.280 388.740 C 389.196 394.778,387.027 395.643,376.200 396.352 C 359.986 397.415,273.695 397.895,237.800 397.123 C 225.700 396.862,213.370 396.697,210.400 396.755 C 207.369 396.814,202.104 396.564,198.400 396.185 C 193.324 395.666,190.184 395.576,184.800 395.796 C 180.950 395.953,157.100 396.140,131.800 396.210 C 106.500 396.281,75.900 396.463,63.800 396.615 C 44.399 396.858,26.675 396.529,19.696 395.796 C 14.205 395.219,5.684 389.450,2.070 383.862 C 1.123 382.398,0.270 381.200,0.174 381.200 C 0.078 381.200,0.000 385.430,0.000 390.600 " stroke="none" fill="#721b04" fill-rule="evenodd"></path><path id="path2" d="M6.655 1.548 C 6.519 2.399,6.136 3.322,5.804 3.597 C 4.798 4.432,5.017 6.400,6.116 6.400 C 6.620 6.400,8.079 6.673,9.359 7.006 C 10.639 7.339,13.242 7.703,15.143 7.813 C 17.044 7.924,19.860 8.113,21.400 8.233 C 31.552 9.023,42.398 9.296,75.000 9.583 C 106.372 9.860,112.449 10.008,116.200 10.583 C 119.873 11.146,122.285 11.214,130.800 10.997 C 137.741 10.819,142.917 10.897,147.000 11.241 C 150.637 11.547,158.355 11.714,166.600 11.666 C 176.291 11.610,181.867 11.758,186.000 12.182 C 190.001 12.593,193.041 12.681,195.800 12.468 C 198.000 12.297,201.510 12.313,203.600 12.503 C 205.690 12.693,209.740 12.906,212.600 12.975 C 225.054 13.278,233.597 13.730,236.200 14.225 C 239.443 14.842,247.171 14.705,250.200 13.977 C 251.309 13.711,254.546 13.520,257.464 13.549 C 264.148 13.615,280.934 12.582,286.800 11.743 C 287.790 11.602,294.000 11.348,300.600 11.180 C 318.637 10.720,334.445 10.058,343.600 9.379 C 348.724 8.999,358.853 8.724,370.600 8.648 L 389.400 8.525 391.786 7.447 C 394.413 6.259,394.788 5.879,394.788 4.400 C 394.788 0.991,392.038 -1.692,391.468 1.161 C 390.895 4.026,394.675 3.756,343.800 4.564 C 335.440 4.697,324.820 5.025,320.200 5.293 C 309.829 5.894,308.248 5.912,237.400 6.198 C 197.572 6.360,174.123 6.285,161.400 5.956 C 141.756 5.449,134.216 5.371,123.400 5.567 C 118.563 5.654,115.445 5.505,112.600 5.049 C 109.130 4.492,103.435 4.407,69.600 4.402 C 16.226 4.395,11.760 4.153,10.071 1.185 C 8.980 -0.733,6.986 -0.522,6.655 1.548 M255.200 28.467 C 254.430 28.685,253.629 29.029,253.420 29.231 C 253.211 29.434,252.671 29.601,252.220 29.603 C 251.769 29.604,250.860 29.963,250.200 30.400 C 249.540 30.837,248.606 31.196,248.124 31.197 C 247.642 31.199,247.136 31.380,247.000 31.600 C 246.864 31.820,246.423 32.000,246.019 32.000 C 245.252 32.000,244.636 33.011,245.022 33.636 C 245.146 33.836,245.500 34.000,245.810 34.000 C 246.119 34.000,246.565 34.360,246.800 34.800 C 247.038 35.246,247.638 35.600,248.152 35.600 C 248.660 35.600,249.402 35.961,249.801 36.402 C 250.203 36.845,250.989 37.184,251.563 37.160 C 252.134 37.136,253.672 37.331,254.983 37.594 C 258.060 38.210,261.275 37.826,262.259 36.724 C 262.667 36.269,263.675 35.467,264.500 34.943 C 265.873 34.071,266.000 33.836,266.000 32.175 C 266.000 30.449,265.926 30.330,264.500 29.767 C 263.675 29.441,262.522 28.911,261.938 28.587 C 260.744 27.927,257.330 27.866,255.200 28.467 M257.800 29.180 C 258.460 29.448,258.320 29.550,257.000 29.763 C 256.120 29.905,254.696 30.378,253.835 30.813 C 251.405 32.042,251.331 31.040,253.744 29.569 C 255.059 28.767,256.451 28.634,257.800 29.180 M206.800 33.753 C 206.800 34.727,206.925 34.800,208.600 34.800 C 210.133 34.800,210.400 34.681,210.400 34.000 C 210.400 33.439,210.132 33.198,209.500 33.195 C 209.005 33.192,208.195 33.081,207.700 32.948 C 206.935 32.743,206.800 32.863,206.800 33.753 M204.875 41.626 C 201.167 43.753,202.292 45.104,207.800 45.138 C 213.228 45.171,214.860 43.796,211.941 41.649 C 209.681 39.987,207.745 39.980,204.875 41.626 " stroke="none" fill="#e17707" fill-rule="evenodd"></path><path id="path3" d="M9.600 0.311 C 9.600 4.081,14.195 4.394,69.600 4.402 C 103.435 4.407,109.130 4.492,112.600 5.049 C 115.445 5.505,118.563 5.654,123.400 5.567 C 134.216 5.371,141.756 5.449,161.400 5.956 C 174.123 6.285,197.572 6.360,237.400 6.198 C 308.078 5.912,309.753 5.894,320.400 5.300 C 329.677 4.782,339.327 4.556,367.400 4.203 C 390.715 3.909,391.600 3.785,391.600 0.818 L 391.600 0.000 200.600 0.000 C 95.550 0.000,9.600 0.140,9.600 0.311 " stroke="none" fill="#f9c219" fill-rule="evenodd"></path><path id="path4" d="M6.400 0.742 C 6.400 1.312,6.017 1.787,5.300 2.104 C -1.056 4.915,6.720 10.580,17.199 10.772 C 19.509 10.815,23.109 11.112,25.199 11.434 C 27.290 11.756,30.170 12.185,31.600 12.387 C 36.378 13.064,39.122 13.602,41.671 14.360 C 46.278 15.731,51.215 16.163,53.459 15.393 C 58.127 13.791,66.907 15.853,69.266 19.104 C 70.236 20.440,75.173 24.379,76.095 24.552 C 76.593 24.645,78.620 24.929,80.600 25.183 C 85.378 25.797,87.497 26.355,87.772 27.072 C 88.176 28.123,87.585 29.412,86.479 29.892 C 83.832 31.042,82.846 31.240,79.771 31.240 C 76.090 31.240,73.400 32.466,72.924 34.362 C 72.239 37.088,75.300 38.361,82.600 38.387 C 89.558 38.412,95.025 39.959,97.337 42.557 C 98.043 43.351,98.845 44.000,99.119 44.000 C 99.393 44.000,99.809 44.420,100.043 44.934 C 100.912 46.843,110.496 49.998,113.606 49.399 C 115.718 48.992,142.278 48.835,145.851 49.208 C 148.023 49.435,151.510 49.582,153.600 49.535 C 162.390 49.336,163.718 49.425,165.800 50.353 C 170.275 52.349,171.876 54.253,171.400 57.013 C 170.605 61.628,170.534 61.452,174.362 64.330 C 177.138 66.417,175.623 67.917,168.800 69.839 C 164.176 71.141,160.628 71.426,156.672 70.813 C 152.146 70.110,144.921 70.826,143.960 72.071 C 143.408 72.787,142.562 72.971,137.760 73.415 C 128.590 74.264,126.631 75.367,127.049 79.449 L 127.305 81.951 125.420 83.146 C 123.811 84.167,122.317 84.724,117.038 86.270 C 116.238 86.504,114.840 87.867,113.556 89.666 L 112.794 90.731 114.297 91.658 C 115.124 92.167,116.244 93.110,116.787 93.753 C 118.865 96.214,122.820 97.236,134.800 98.408 C 142.552 99.167,145.697 99.775,148.000 100.963 C 148.550 101.247,149.855 101.709,150.900 101.991 C 153.299 102.639,153.299 103.277,150.900 104.668 C 147.038 106.908,143.600 109.250,143.600 109.642 C 143.600 110.132,148.722 112.508,151.654 113.379 C 152.936 113.760,155.997 114.085,159.388 114.201 C 162.474 114.306,166.332 114.502,167.961 114.636 C 169.590 114.770,174.306 114.653,178.442 114.376 C 184.540 113.968,187.194 113.971,192.481 114.391 C 196.066 114.676,201.344 114.871,204.210 114.826 C 211.122 114.716,216.412 116.074,216.940 118.093 C 217.391 119.817,209.675 122.370,203.747 122.459 C 191.052 122.651,182.419 122.349,177.678 121.548 C 172.233 120.628,171.950 120.646,164.000 122.407 C 161.391 122.985,157.755 123.356,152.400 123.591 C 148.110 123.779,143.006 124.147,141.057 124.409 C 137.986 124.823,136.866 124.787,132.657 124.143 C 125.731 123.083,116.257 123.203,111.600 124.410 C 106.802 125.653,104.995 125.946,101.800 125.997 C 99.008 126.042,93.389 126.877,92.954 127.312 C 92.509 127.758,95.872 128.407,101.800 129.019 C 105.100 129.359,108.880 129.808,110.200 130.016 C 111.520 130.224,114.220 130.401,116.200 130.409 C 119.749 130.424,120.902 130.542,130.000 131.818 C 132.623 132.186,139.759 132.613,146.600 132.810 C 153.200 133.001,160.670 133.359,163.200 133.605 C 166.658 133.941,169.388 133.934,174.200 133.576 C 179.612 133.172,204.821 132.592,208.600 132.784 C 209.260 132.818,218.260 132.898,228.600 132.962 C 238.940 133.026,248.146 133.208,249.057 133.367 C 250.881 133.685,256.514 133.148,263.600 131.980 C 267.233 131.382,271.144 131.176,282.200 131.003 C 289.900 130.883,297.730 130.577,299.600 130.323 C 301.470 130.069,307.770 129.848,313.600 129.831 C 324.355 129.800,329.652 129.390,337.800 127.959 C 340.220 127.534,343.460 127.080,345.000 126.950 C 354.352 126.159,355.269 122.410,346.113 122.402 C 344.745 122.401,340.515 121.961,336.713 121.424 C 326.938 120.044,320.767 119.600,311.384 119.600 C 285.727 119.600,276.418 115.231,296.457 112.594 C 301.889 111.879,304.914 111.348,306.802 110.778 C 307.571 110.546,310.900 110.186,314.200 109.976 C 319.237 109.657,327.819 108.105,325.000 108.023 C 324.560 108.010,323.300 107.663,322.200 107.252 C 318.882 106.013,304.120 103.856,294.400 103.191 C 288.407 102.781,286.806 102.530,283.400 101.467 C 282.300 101.123,280.893 100.736,280.273 100.607 C 278.792 100.297,278.987 99.144,280.604 98.655 C 281.262 98.456,282.160 98.164,282.600 98.006 C 283.040 97.849,284.030 97.503,284.800 97.239 C 285.570 96.975,289.980 96.582,294.600 96.366 C 304.187 95.919,306.392 95.470,311.000 93.029 C 316.346 90.198,318.154 89.906,331.000 89.810 C 338.001 89.758,343.331 89.902,345.218 90.195 C 348.720 90.738,352.137 90.236,354.423 88.842 C 355.180 88.381,356.102 88.002,356.471 88.001 C 358.594 87.997,358.913 85.574,357.194 82.527 C 355.700 79.881,355.871 78.925,358.255 76.608 C 360.999 73.942,360.823 73.762,351.800 70.000 C 349.368 68.986,343.104 68.317,342.064 68.961 C 339.862 70.322,332.747 69.830,322.600 67.617 C 320.620 67.185,317.920 66.599,316.600 66.316 C 314.054 65.769,312.890 64.215,314.676 63.748 C 315.083 63.642,315.840 62.936,316.358 62.179 C 317.007 61.233,317.801 60.669,318.906 60.372 L 320.511 59.939 320.277 57.148 C 319.957 53.332,320.628 52.690,327.032 50.673 C 329.888 49.774,330.713 49.683,334.124 49.886 C 337.686 50.099,338.162 50.037,340.293 49.080 C 342.064 48.285,343.536 47.986,346.602 47.796 C 370.928 46.290,375.877 45.159,370.100 42.427 C 366.083 40.527,366.195 40.617,366.285 39.372 C 366.433 37.355,366.734 36.618,367.985 35.216 C 369.782 33.204,369.594 32.782,365.396 29.400 C 359.835 24.919,359.302 23.866,361.227 21.163 C 361.652 20.565,362.000 19.727,362.000 19.300 C 362.000 18.873,362.360 18.198,362.800 17.800 C 363.240 17.402,363.600 16.666,363.600 16.165 C 363.600 13.125,372.498 11.425,383.272 12.408 C 386.282 12.682,389.072 12.764,389.472 12.588 C 389.872 12.413,390.329 12.254,390.487 12.235 C 390.645 12.216,391.095 11.927,391.487 11.594 C 391.879 11.261,392.789 10.571,393.509 10.061 C 395.642 8.549,396.494 6.412,396.303 3.052 L 396.141 0.200 394.892 0.076 C 393.648 -0.047,393.644 -0.041,394.060 1.276 C 395.334 5.318,395.100 5.984,391.906 7.404 L 389.400 8.519 370.600 8.644 C 358.890 8.723,348.707 9.000,343.600 9.379 C 335.074 10.012,320.044 10.660,302.174 11.166 C 296.440 11.328,291.530 11.596,291.263 11.761 C 290.996 11.926,289.028 12.313,286.889 12.620 C 279.121 13.738,278.968 13.847,279.118 18.151 C 279.217 21.021,279.127 21.611,278.518 22.065 C 274.888 24.771,276.275 26.773,282.465 27.758 C 291.750 29.235,295.189 31.078,294.632 34.278 C 294.198 36.771,293.183 38.341,291.816 38.633 C 291.147 38.776,290.150 39.118,289.600 39.394 C 289.050 39.670,287.880 40.262,287.000 40.710 C 284.300 42.086,281.594 42.106,279.112 40.769 C 275.638 38.898,273.200 39.483,273.200 42.187 C 273.200 43.341,272.829 43.759,270.400 45.343 C 266.615 47.811,263.416 48.191,258.031 46.811 C 253.054 45.536,230.175 45.719,222.800 47.094 C 218.325 47.928,203.609 48.018,200.400 47.231 C 195.176 45.950,193.377 44.250,193.785 40.984 C 194.074 38.665,193.177 36.800,191.772 36.800 C 191.137 36.800,188.800 34.139,188.800 33.415 C 188.800 32.383,190.882 31.209,194.922 29.962 C 201.354 27.977,203.499 26.100,202.813 23.056 C 202.419 21.309,202.577 21.080,205.029 19.848 C 209.804 17.450,216.346 18.774,215.166 21.900 C 214.979 22.395,214.640 22.800,214.413 22.800 C 213.404 22.800,214.134 23.907,215.400 24.295 C 216.188 24.537,216.800 24.567,216.800 24.363 C 216.800 24.163,217.059 24.000,217.376 24.000 C 218.256 24.000,218.420 23.437,217.923 22.120 C 217.470 20.920,218.368 18.847,219.356 18.813 C 220.922 18.757,221.323 14.815,219.843 14.023 C 218.648 13.383,209.865 13.575,209.185 14.255 C 208.850 14.590,207.839 14.459,205.267 13.751 C 201.196 12.628,198.954 12.516,194.341 13.202 C 191.467 13.630,190.226 13.610,186.176 13.072 C 183.549 12.723,177.980 12.337,173.800 12.215 C 169.620 12.092,162.960 11.901,159.000 11.791 C 155.040 11.680,149.820 11.437,147.400 11.252 C 144.980 11.066,138.050 10.998,132.000 11.101 C 122.866 11.256,120.186 11.168,116.200 10.582 C 112.031 9.970,106.586 9.836,74.800 9.568 C 42.386 9.295,31.587 9.025,21.400 8.233 C 19.860 8.113,17.044 7.924,15.143 7.813 C 13.242 7.703,10.639 7.339,9.359 7.006 C 8.079 6.673,6.620 6.400,6.116 6.400 C 5.025 6.400,4.795 4.434,5.789 3.609 C 6.425 3.081,7.054 0.521,6.648 0.115 C 6.512 -0.022,6.400 0.261,6.400 0.742 M110.600 24.659 C 111.260 25.019,112.430 25.425,113.200 25.563 C 114.245 25.750,114.600 26.015,114.600 26.607 C 114.600 28.225,108.093 29.445,107.196 27.994 C 107.038 27.738,106.479 27.314,105.954 27.054 C 104.419 26.291,104.483 24.913,106.075 24.454 C 108.066 23.880,109.271 23.935,110.600 24.659 M218.400 35.269 C 215.586 37.192,216.694 40.175,220.587 41.155 C 223.537 41.898,225.812 41.677,229.992 40.241 C 232.168 39.494,234.034 38.967,234.138 39.071 C 234.242 39.175,234.451 38.869,234.603 38.390 C 235.501 35.562,221.827 32.928,218.400 35.269 M330.400 107.011 C 328.750 107.329,327.220 107.640,327.000 107.703 C 326.368 107.884,326.388 108.613,327.021 108.484 C 327.334 108.420,328.987 108.632,330.695 108.956 C 335.110 109.793,342.346 110.179,343.700 109.650 C 348.396 107.814,337.480 105.647,330.400 107.011 M131.200 108.966 C 130.265 109.304,129.800 109.725,129.800 110.236 C 129.800 111.725,137.789 111.269,138.286 109.752 C 138.638 108.673,133.569 108.111,131.200 108.966 M362.038 122.923 C 358.864 124.036,359.599 125.742,363.461 126.225 C 366.150 126.561,368.539 125.788,368.723 124.524 C 368.992 122.668,365.293 121.781,362.038 122.923 M294.141 143.993 C 292.568 144.168,290.678 144.504,289.941 144.740 C 288.312 145.260,287.499 145.272,263.400 145.116 C 252.840 145.048,243.986 144.855,243.724 144.687 C 242.776 144.080,219.929 143.924,204.600 144.419 C 196.020 144.697,184.770 144.965,179.600 145.015 C 171.636 145.092,169.864 145.220,168.002 145.853 C 161.054 148.214,169.882 150.781,183.000 150.215 C 192.343 149.812,192.027 149.813,201.000 150.145 C 209.657 150.466,217.611 151.328,220.184 152.225 C 222.064 152.880,228.637 152.994,230.204 152.399 C 230.785 152.178,233.541 151.895,236.330 151.769 C 239.118 151.644,243.110 151.365,245.200 151.149 C 247.290 150.933,254.940 150.592,262.200 150.390 C 273.637 150.073,276.068 149.893,280.400 149.040 C 284.454 148.242,286.460 148.069,291.000 148.128 C 297.008 148.205,300.758 147.639,302.391 146.407 L 303.343 145.689 301.708 144.855 C 299.651 143.805,297.762 143.590,294.141 143.993 M320.800 145.018 C 318.490 145.309,316.375 145.559,316.100 145.573 C 314.158 145.676,316.320 146.371,319.801 146.763 C 326.238 147.487,331.613 146.233,327.872 144.880 C 326.331 144.323,326.322 144.323,320.800 145.018 M339.300 145.288 C 337.797 146.013,338.199 146.795,340.100 146.844 C 343.861 146.942,345.620 146.388,344.777 145.372 C 344.211 144.691,340.652 144.636,339.300 145.288 M215.850 157.664 C 212.418 158.056,208.400 159.666,208.400 160.649 C 208.400 162.171,217.862 163.781,225.192 163.507 C 232.154 163.247,239.693 161.402,235.997 160.863 C 235.479 160.787,234.121 160.198,232.979 159.553 C 229.252 157.450,223.389 156.804,215.850 157.664 M180.400 160.402 C 173.465 161.361,175.227 164.167,182.710 164.082 C 187.462 164.028,189.600 163.107,188.943 161.397 C 188.562 160.402,184.130 159.886,180.400 160.402 M244.900 161.065 C 243.109 161.787,246.390 163.238,248.383 162.605 C 249.353 162.297,249.461 161.386,248.567 161.043 C 247.829 160.760,245.624 160.773,244.900 161.065 M210.000 174.631 C 206.797 175.110,203.541 175.128,189.286 174.748 L 172.372 174.297 169.086 175.229 C 164.739 176.463,159.601 179.430,160.182 180.371 C 160.562 180.985,164.533 182.330,167.470 182.839 C 168.971 183.099,170.891 183.554,171.736 183.851 C 174.054 184.664,181.284 184.982,185.207 184.443 C 187.073 184.186,189.500 183.969,190.600 183.960 C 196.745 183.907,212.627 184.399,215.200 184.720 C 218.719 185.161,225.994 184.975,232.200 184.288 C 234.620 184.019,240.650 183.788,245.600 183.773 C 255.150 183.744,260.568 182.966,266.900 180.712 C 272.764 178.624,265.975 176.755,248.400 175.618 C 244.990 175.397,241.570 175.014,240.800 174.767 C 239.575 174.373,235.339 174.316,225.000 174.552 C 223.900 174.577,220.930 174.477,218.400 174.330 C 215.208 174.145,212.637 174.237,210.000 174.631 M215.200 190.960 C 209.590 192.704,207.899 192.945,203.712 192.600 C 197.194 192.063,195.539 192.049,192.089 192.495 C 189.531 192.827,188.122 192.804,185.889 192.393 C 182.073 191.691,180.836 191.607,179.833 191.983 C 179.375 192.155,177.380 192.423,175.400 192.579 C 168.330 193.136,164.471 193.837,163.205 194.794 L 162.209 195.547 163.347 195.980 C 164.545 196.435,168.321 196.290,174.637 195.546 C 177.344 195.227,178.857 195.238,180.555 195.591 C 184.026 196.311,192.613 196.601,204.400 196.394 C 209.395 196.307,210.674 196.474,219.748 198.399 C 223.314 199.155,224.142 199.194,228.316 198.806 C 231.726 198.489,233.766 198.498,236.107 198.840 C 239.542 199.342,242.413 199.184,247.400 198.220 C 249.160 197.880,253.120 197.493,256.200 197.360 C 260.166 197.190,263.025 196.821,266.000 196.096 C 269.650 195.206,271.212 195.059,277.930 194.973 C 282.181 194.919,285.754 194.779,285.870 194.664 C 286.639 193.895,285.127 193.579,280.869 193.621 C 278.301 193.646,274.850 193.461,273.200 193.210 C 271.550 192.959,269.480 192.667,268.600 192.560 C 267.720 192.454,265.740 192.188,264.200 191.968 C 256.327 190.847,254.472 190.751,244.800 190.960 C 239.190 191.082,232.170 191.012,229.200 190.804 C 226.230 190.597,222.540 190.338,221.000 190.228 C 218.787 190.070,217.571 190.224,215.200 190.960 " stroke="none" fill="#d76604" fill-rule="evenodd"></path><path id="path5" d="M398.084 1.200 C 398.102 1.970,398.058 3.703,397.988 5.051 C 397.887 6.971,398.033 7.777,398.662 8.770 L 399.465 10.038 397.774 13.523 C 395.050 19.137,394.114 25.700,395.552 29.109 C 395.962 30.080,396.027 31.212,395.803 33.509 C 395.638 35.209,395.468 38.490,395.426 40.800 C 395.384 43.110,395.014 46.673,394.604 48.717 C 393.983 51.807,393.936 52.752,394.320 54.317 C 394.832 56.402,394.725 62.781,394.129 65.638 C 393.852 66.966,393.898 68.189,394.295 70.038 C 394.597 71.447,394.920 74.940,395.011 77.800 C 395.433 90.962,395.090 94.278,392.978 97.460 C 391.319 99.959,391.282 100.859,392.672 104.867 L 393.744 107.958 392.990 110.279 C 392.575 111.555,392.093 112.771,391.918 112.980 C 391.055 114.011,392.004 117.643,393.539 119.192 C 396.571 122.248,396.495 128.294,393.395 130.733 C 387.214 135.594,387.003 136.015,389.419 138.631 C 392.459 141.922,393.785 143.652,394.108 144.751 C 394.428 145.840,393.764 149.052,393.139 149.438 C 391.497 150.453,391.270 154.228,392.634 157.851 C 393.884 161.173,393.702 162.108,391.003 166.217 C 388.771 169.616,388.771 170.055,391.000 174.179 C 392.844 177.590,393.424 180.878,392.401 182.117 C 388.508 186.832,388.179 188.111,390.017 191.369 C 391.552 194.088,392.076 195.864,391.600 196.734 C 389.634 200.333,389.150 203.327,390.206 205.353 C 391.888 208.578,391.228 210.915,387.687 214.261 C 385.746 216.095,385.764 216.829,387.781 218.151 C 390.684 220.053,393.143 230.986,391.326 233.914 C 390.172 235.774,389.065 236.829,387.606 237.459 C 386.833 237.794,385.887 238.232,385.505 238.434 C 384.465 238.982,383.192 238.886,379.315 237.965 C 375.180 236.983,372.156 237.105,367.600 238.438 C 364.517 239.341,364.274 239.352,353.572 239.119 C 348.297 239.003,345.200 239.641,345.200 240.842 C 345.200 242.112,351.285 242.876,362.523 243.018 C 373.216 243.154,375.580 242.976,382.041 241.553 C 388.393 240.154,393.668 246.776,389.300 250.665 C 387.577 252.198,387.116 252.297,380.564 252.540 C 370.558 252.910,367.752 255.180,372.755 258.860 C 373.660 259.525,374.400 260.234,374.400 260.435 C 374.400 260.636,374.651 260.800,374.957 260.800 C 375.264 260.800,375.611 261.051,375.728 261.358 C 376.243 262.699,378.691 264.075,379.580 263.523 C 380.280 263.090,380.482 263.093,380.762 263.543 C 380.962 263.863,381.420 263.984,381.879 263.838 C 382.917 263.509,385.170 264.669,385.579 265.742 C 385.758 266.214,386.826 267.937,387.953 269.571 C 390.421 273.153,390.525 274.259,388.741 277.921 L 387.482 280.505 388.570 283.729 L 389.659 286.952 388.954 289.670 L 388.249 292.387 389.528 295.494 C 391.011 299.096,391.099 300.453,390.009 302.856 C 389.021 305.033,388.990 307.044,389.920 308.600 C 392.436 312.810,391.734 316.059,387.745 318.673 C 386.253 319.650,362.265 320.781,338.600 320.990 C 330.746 321.059,327.600 321.638,327.600 323.012 C 327.600 324.411,341.464 326.320,350.200 326.125 C 365.875 325.774,368.054 325.854,373.000 326.961 C 375.640 327.551,379.766 328.374,382.169 328.790 C 390.248 330.187,392.525 333.896,388.182 338.582 C 387.642 339.165,387.200 339.797,387.200 339.987 C 387.200 340.178,387.009 340.397,386.776 340.475 C 386.167 340.678,386.179 343.216,386.790 343.594 C 387.622 344.108,387.557 349.213,386.703 350.417 C 386.319 350.958,385.698 351.827,385.322 352.348 C 384.655 353.274,384.671 353.327,386.019 354.569 C 389.584 357.854,391.189 361.404,390.465 364.400 C 389.511 368.342,389.503 369.755,390.414 372.755 C 392.528 379.717,389.338 384.000,382.040 384.000 C 380.758 384.000,378.740 384.194,377.555 384.431 C 376.370 384.667,372.520 384.916,369.000 384.984 C 365.480 385.052,360.260 385.317,357.401 385.572 C 353.699 385.904,350.991 385.921,348.001 385.633 C 343.425 385.191,326.787 385.661,320.800 386.401 C 317.386 386.823,249.469 387.014,248.805 386.603 C 248.626 386.492,238.607 386.389,226.540 386.372 C 209.611 386.350,203.277 386.201,198.808 385.721 C 192.734 385.069,187.263 385.153,179.000 386.027 C 174.853 386.465,160.056 386.564,134.800 386.322 C 129.190 386.269,115.150 386.332,103.600 386.464 C 87.065 386.651,81.197 386.580,76.000 386.127 C 69.211 385.536,64.157 385.400,34.600 385.011 C 15.633 384.762,14.391 384.616,12.092 382.368 C 10.300 380.616,10.260 378.056,11.989 375.771 C 12.643 374.907,13.183 374.015,13.189 373.789 C 13.195 373.563,13.704 372.933,14.319 372.389 C 16.035 370.873,16.068 370.618,14.739 369.158 C 9.961 363.909,12.086 358.809,18.663 359.743 C 20.756 360.040,24.632 359.390,28.328 358.122 C 30.390 357.414,32.451 357.027,34.600 356.946 C 37.880 356.821,44.003 355.318,44.130 354.607 C 44.229 354.050,41.569 353.650,37.584 353.623 C 35.705 353.610,33.095 353.309,31.784 352.954 C 27.342 351.750,25.810 351.542,20.506 351.421 C 14.814 351.290,13.200 350.794,13.200 349.173 C 13.200 347.220,14.700 346.545,19.618 346.283 C 24.761 346.009,27.536 345.527,32.200 344.102 C 34.051 343.536,36.834 343.046,38.800 342.940 C 40.670 342.840,43.429 342.390,44.931 341.941 C 46.940 341.340,48.156 341.198,49.531 341.405 C 53.047 341.932,57.190 341.782,57.869 341.102 C 59.091 339.880,58.116 339.581,53.071 339.631 C 48.506 339.677,45.257 339.225,43.431 338.292 C 42.246 337.685,31.912 337.059,22.584 337.028 C 13.490 336.998,12.526 336.791,11.558 334.668 C 10.291 331.887,12.602 330.408,18.898 329.967 C 26.793 329.415,33.804 328.416,39.800 326.988 C 42.880 326.254,47.650 325.456,50.400 325.214 C 53.150 324.972,57.293 324.589,59.607 324.363 C 62.521 324.079,64.610 324.082,66.407 324.373 C 74.991 325.766,82.493 323.215,76.467 320.952 C 75.070 320.427,73.189 320.228,69.000 320.162 C 58.591 319.998,47.024 319.565,42.383 319.166 C 39.843 318.948,34.893 318.627,31.383 318.452 C 22.283 318.000,13.881 315.067,17.900 313.745 C 18.598 313.515,20.034 312.916,22.500 311.825 C 26.374 310.111,27.265 309.933,34.627 309.395 C 48.895 308.353,53.874 307.613,58.300 305.877 C 61.056 304.796,60.985 304.652,57.100 303.448 C 51.921 301.842,50.439 301.670,39.800 301.441 C 29.241 301.214,26.811 300.931,23.106 299.497 C 18.435 297.689,20.597 295.652,28.333 294.572 C 31.345 294.151,32.877 293.675,35.764 292.266 C 39.841 290.274,44.000 289.419,44.000 290.571 C 44.000 290.917,44.289 291.200,44.643 291.200 C 45.066 291.200,45.202 290.983,45.041 290.563 C 44.881 290.147,45.055 289.858,45.543 289.731 C 46.178 289.565,46.291 289.125,46.306 286.780 C 46.320 284.605,46.500 283.799,47.162 282.958 C 49.715 279.711,46.393 277.741,36.800 276.814 C 30.689 276.223,28.800 275.691,28.800 274.559 C 28.800 274.083,29.115 273.593,29.500 273.471 C 29.885 273.349,30.650 272.975,31.200 272.640 C 33.874 271.011,37.467 269.718,42.600 268.537 C 45.143 267.951,45.881 267.615,46.195 266.900 C 46.412 266.405,46.727 266.000,46.895 266.000 C 47.063 266.000,47.547 265.685,47.971 265.300 C 48.396 264.915,48.981 264.412,49.271 264.182 C 51.350 262.538,64.391 261.755,69.000 262.998 C 72.780 264.017,75.575 263.936,79.231 262.702 C 80.898 262.139,83.508 261.551,85.031 261.395 C 92.909 260.587,96.007 258.225,91.700 256.310 C 89.689 255.416,72.311 255.119,63.011 255.819 C 60.357 256.019,58.689 255.924,56.611 255.455 C 48.491 253.622,43.790 253.047,36.600 253.005 C 31.174 252.974,28.710 252.790,26.600 252.261 C 25.060 251.874,21.929 251.392,19.643 251.190 C 14.781 250.758,13.373 250.011,14.391 248.401 C 14.666 247.965,15.836 247.738,18.685 247.569 C 21.576 247.396,23.625 246.994,26.518 246.029 C 29.623 244.993,30.826 244.771,32.318 244.959 C 42.112 246.193,46.016 245.923,53.252 243.513 C 58.114 241.894,59.418 241.200,57.599 241.200 C 57.158 241.200,54.143 240.437,50.899 239.505 C 44.508 237.668,43.467 237.584,34.600 238.182 C 29.678 238.515,28.390 238.173,25.465 235.759 L 23.961 234.518 25.080 233.767 C 26.324 232.933,27.378 232.482,31.200 231.154 C 35.506 229.658,36.000 229.426,36.000 228.902 C 36.000 228.626,35.862 228.445,35.692 228.500 C 35.348 228.612,33.200 227.017,33.200 226.651 C 33.200 225.769,36.608 224.741,38.003 225.201 C 39.215 225.601,39.678 225.582,40.637 225.094 C 43.716 223.526,47.851 222.951,60.000 222.404 C 64.510 222.201,69.729 221.742,71.598 221.384 C 75.343 220.666,77.098 220.757,83.514 222.002 C 89.078 223.081,90.381 223.023,96.941 221.400 C 102.988 219.904,106.662 219.591,111.448 220.164 C 115.002 220.590,118.313 220.189,119.533 219.186 L 120.466 218.418 119.333 217.421 C 117.602 215.899,115.760 215.422,112.100 215.549 C 103.487 215.848,101.292 215.775,98.265 215.089 C 94.548 214.247,85.197 214.417,77.751 215.463 C 73.020 216.128,68.996 215.873,63.984 214.589 C 62.391 214.181,58.137 213.966,48.870 213.826 C 41.777 213.719,35.803 213.525,35.595 213.397 C 34.919 212.979,21.065 212.829,18.800 213.215 C 14.562 213.936,12.618 212.364,14.575 209.798 C 16.080 207.824,18.301 207.565,28.800 208.138 C 34.155 208.431,35.245 208.386,36.800 207.813 C 38.039 207.356,40.843 207.038,45.800 206.794 C 58.057 206.189,62.552 204.132,56.559 201.869 C 50.035 199.406,48.642 199.220,43.883 200.183 C 35.574 201.864,18.213 200.641,14.900 198.140 C 8.542 193.342,24.315 190.361,39.600 193.472 C 46.411 194.859,53.020 194.233,57.764 191.752 C 61.377 189.863,62.287 189.674,64.981 190.252 C 69.016 191.119,72.424 190.799,73.920 189.413 C 75.375 188.065,68.931 187.074,64.325 187.937 C 62.172 188.341,61.786 188.277,57.125 186.744 C 50.919 184.703,47.237 184.405,40.608 185.407 C 34.603 186.315,28.491 186.048,23.336 184.652 C 21.321 184.106,18.833 183.534,17.807 183.380 C 15.337 183.010,13.598 181.555,13.606 179.864 C 13.619 177.284,14.816 176.800,21.185 176.800 C 25.732 176.800,33.862 175.514,35.891 174.475 C 38.405 173.185,42.257 173.638,46.167 175.681 C 49.388 177.365,52.725 177.357,57.722 175.652 C 62.455 174.038,66.517 173.704,70.541 174.600 C 74.246 175.424,76.562 175.247,83.326 173.619 C 92.339 171.450,89.964 170.826,72.600 170.802 C 64.695 170.790,59.185 170.607,57.400 170.295 C 53.010 169.527,47.533 169.693,43.529 170.715 C 38.683 171.951,32.990 171.275,25.600 168.586 C 24.407 168.152,22.249 167.899,19.200 167.837 C 12.134 167.692,9.849 165.914,11.376 161.748 C 11.688 160.897,11.956 160.359,11.972 160.554 C 11.987 160.749,12.373 160.434,12.829 159.854 C 13.891 158.504,16.430 158.427,19.600 159.647 C 22.493 160.761,25.134 160.744,28.800 159.588 C 32.426 158.444,36.135 158.365,39.127 159.369 C 40.998 159.996,41.705 160.029,44.995 159.641 C 49.666 159.090,53.570 159.082,58.742 159.613 C 65.254 160.281,75.200 158.553,75.200 156.752 C 75.200 155.285,66.172 153.845,59.200 154.202 C 51.549 154.593,48.817 154.595,45.147 154.211 C 43.106 153.997,41.226 154.056,39.474 154.386 C 37.258 154.804,36.046 154.774,31.636 154.190 C 26.645 153.529,23.604 153.541,17.923 154.244 C 15.418 154.555,13.284 153.818,11.721 152.104 C 8.228 148.274,10.425 143.945,16.119 143.439 C 29.256 142.272,48.195 141.127,49.638 141.412 C 52.791 142.037,56.147 142.034,60.140 141.404 C 63.901 140.811,65.015 140.785,68.497 141.212 C 73.086 141.774,76.675 141.541,81.428 140.371 C 84.570 139.597,84.843 139.589,87.238 140.210 C 90.225 140.984,93.128 141.038,98.800 140.425 C 107.347 139.501,107.525 139.166,99.997 138.177 C 94.623 137.471,90.907 137.599,86.962 138.627 C 84.833 139.181,84.422 139.167,81.431 138.441 C 77.202 137.414,71.263 136.752,67.960 136.940 C 65.405 137.084,63.543 136.910,57.200 135.934 C 55.289 135.640,49.069 135.495,40.060 135.535 C 16.879 135.638,11.019 134.529,8.967 129.651 C 8.328 128.132,8.221 125.541,8.754 124.495 C 12.031 118.057,12.150 117.158,10.248 113.139 C 8.943 110.379,8.933 109.054,10.196 106.340 C 11.459 103.627,11.459 101.845,10.198 99.368 C 9.443 97.886,9.102 96.362,8.819 93.200 C 8.611 90.890,8.231 88.026,7.974 86.835 C 7.153 83.037,7.699 76.028,9.155 71.682 C 10.610 67.337,10.912 58.729,9.833 52.352 C 9.255 48.934,9.222 32.535,9.792 31.613 C 10.211 30.935,10.081 25.729,9.584 23.256 C 7.984 15.303,7.787 14.847,3.759 9.800 C 2.891 8.712,1.600 5.704,1.504 4.546 C 1.461 4.026,1.264 3.600,1.066 3.600 C 0.868 3.600,0.799 3.247,0.912 2.815 C 1.025 2.383,0.857 1.813,0.539 1.549 C 0.050 1.144,-0.001 1.250,0.207 2.235 C 0.343 2.876,0.498 3.850,0.552 4.400 C 0.606 4.950,0.957 6.105,1.333 6.967 C 2.325 9.246,4.000 14.891,4.000 15.958 C 4.000 16.462,4.360 18.640,4.799 20.797 C 5.591 24.682,5.966 31.884,5.422 32.764 C 5.071 33.332,5.042 51.820,5.391 52.385 C 5.951 53.291,5.611 71.338,4.997 73.363 C 4.270 75.755,4.111 85.983,4.752 89.114 C 4.990 90.276,5.181 92.886,5.177 94.914 C 5.174 96.941,5.357 99.229,5.585 99.997 C 6.125 101.814,6.115 104.850,5.565 106.274 C 4.952 107.864,5.056 110.975,5.824 113.972 C 6.540 116.765,6.476 117.638,5.129 123.559 C 4.103 128.071,4.617 131.382,6.831 134.524 C 8.711 137.191,8.826 139.338,7.249 142.368 C 5.147 146.407,4.966 148.119,6.214 152.207 C 7.328 155.861,7.335 157.045,6.260 159.800 C 5.283 162.302,5.429 165.216,6.661 167.819 C 7.916 170.470,8.000 172.524,7.025 176.800 C 6.297 179.989,6.454 181.560,7.889 185.500 C 8.519 187.229,8.386 190.436,7.646 191.360 C 6.424 192.885,6.401 199.075,7.611 200.600 C 8.252 201.408,8.438 203.848,7.992 205.600 C 6.714 210.614,6.644 211.509,7.334 213.991 C 8.110 216.784,8.208 220.432,7.524 221.116 C 6.870 221.770,6.695 233.394,7.258 238.800 C 7.625 242.330,7.592 243.489,7.051 246.065 C 6.397 249.180,6.597 252.126,7.589 253.979 C 7.964 254.680,8.041 260.846,7.973 284.946 C 7.956 290.952,7.798 293.108,7.198 295.510 C 6.403 298.691,6.419 298.875,7.975 303.997 C 8.611 306.089,8.494 308.012,7.558 310.848 C 6.437 314.243,6.485 315.992,7.797 319.732 C 8.995 323.143,9.016 325.142,7.884 327.616 C 5.822 332.119,5.461 335.070,6.588 338.200 C 7.342 340.292,7.346 343.110,6.598 344.546 C 5.938 345.811,5.776 350.409,6.369 351.020 C 7.458 352.140,7.785 356.410,6.990 359.128 C 6.438 361.018,6.248 362.678,6.341 364.800 C 6.613 371.022,6.533 374.686,6.065 377.377 C 5.111 382.858,8.929 387.183,16.306 388.978 C 20.441 389.983,48.318 390.418,116.000 390.533 C 157.260 390.603,171.770 390.446,188.803 389.744 C 192.591 389.588,196.062 389.686,198.803 390.027 C 201.285 390.335,208.124 390.579,215.539 390.623 C 222.436 390.663,231.346 390.815,235.339 390.959 C 239.333 391.103,268.250 391.238,299.600 391.259 C 387.365 391.318,385.317 391.464,392.719 384.611 C 396.731 380.897,396.803 380.618,396.597 369.738 C 396.431 360.966,396.367 360.331,395.385 357.738 C 394.267 354.785,394.223 352.624,395.212 349.244 C 395.628 347.822,395.630 346.897,395.222 344.385 C 394.681 341.054,394.829 339.719,396.006 337.282 C 397.025 335.174,397.106 332.536,396.207 330.800 C 395.425 329.291,393.631 326.763,393.042 326.339 C 391.961 325.562,392.629 322.573,394.643 319.171 C 397.131 314.967,397.359 313.753,396.367 309.976 C 395.433 306.419,395.423 305.756,396.253 302.447 C 396.866 300.004,396.861 299.616,396.181 296.158 C 395.536 292.877,395.517 292.215,396.008 290.136 C 396.629 287.508,396.572 285.268,395.800 281.904 C 395.259 279.547,395.348 278.572,396.267 276.811 C 397.014 275.380,396.940 271.430,396.137 269.880 C 395.693 269.025,395.433 267.354,395.351 264.845 C 395.283 262.780,394.953 260.260,394.616 259.245 C 393.527 255.959,393.748 254.542,395.883 251.096 C 397.092 249.145,397.145 246.600,396.049 243.058 C 394.946 239.495,394.970 239.072,396.423 236.498 L 397.646 234.331 397.189 230.508 C 396.938 228.405,396.838 226.126,396.968 225.442 C 397.097 224.759,397.281 223.799,397.377 223.310 C 397.472 222.820,397.116 221.110,396.586 219.510 C 395.366 215.833,395.369 214.713,396.604 212.060 C 397.842 209.401,397.841 208.842,396.598 205.033 L 395.596 201.963 396.613 198.024 L 397.630 194.086 396.564 191.834 C 395.267 189.095,395.371 187.165,396.996 183.845 C 398.296 181.186,398.205 179.227,396.581 174.910 C 395.087 170.942,395.534 167.122,398.079 162.100 C 398.406 161.456,398.415 160.944,398.112 160.300 C 396.456 156.778,396.123 153.137,397.199 150.305 C 398.684 146.397,398.658 144.963,397.040 141.459 C 394.912 136.851,395.252 134.582,398.825 129.565 C 400.204 127.628,400.313 124.913,399.108 122.540 C 396.221 116.857,395.788 114.639,397.000 111.738 C 397.330 110.949,397.600 109.979,397.600 109.584 C 397.600 109.190,397.816 108.795,398.079 108.707 C 398.440 108.587,398.393 107.908,397.890 105.974 C 396.717 101.463,396.663 100.558,397.436 98.408 C 397.833 97.304,398.284 96.400,398.439 96.400 C 398.593 96.400,398.783 94.069,398.860 91.220 C 398.953 87.777,399.168 85.872,399.500 85.540 C 400.236 84.804,400.105 83.166,399.200 81.800 C 398.237 80.346,398.196 79.029,399.036 76.554 C 399.778 74.368,399.519 71.576,398.476 70.533 C 397.614 69.671,397.528 65.251,398.354 64.255 C 399.053 63.413,399.128 54.168,398.442 53.482 C 397.491 52.531,398.452 45.309,399.626 44.584 C 400.257 44.194,400.042 41.510,399.316 40.707 C 398.476 39.779,398.506 37.329,399.378 35.643 C 400.186 34.080,400.173 30.770,399.351 28.887 C 398.393 26.693,398.620 18.000,399.635 18.000 C 400.324 18.000,400.081 7.224,399.376 6.519 C 398.920 6.062,398.797 5.335,398.918 3.799 C 399.017 2.539,398.878 1.324,398.568 0.752 C 398.066 -0.175,398.053 -0.163,398.084 1.200 M108.484 138.795 C 106.717 139.070,106.812 139.725,108.676 140.112 C 111.772 140.756,117.400 140.301,117.400 139.408 C 117.400 138.588,112.134 138.226,108.484 138.795 M83.298 155.866 C 82.503 156.186,83.144 156.800,84.273 156.800 C 85.139 156.800,85.221 156.707,84.800 156.200 C 84.278 155.571,84.117 155.535,83.298 155.866 M80.024 204.228 L 78.648 204.825 79.535 205.713 C 81.180 207.358,88.800 206.728,88.800 204.946 C 88.800 203.552,82.727 203.055,80.024 204.228 M347.000 255.009 C 345.900 255.315,344.865 255.573,344.700 255.582 C 343.770 255.637,344.599 257.088,345.905 257.688 C 350.191 259.661,358.416 258.304,357.449 255.784 C 356.900 254.352,350.955 253.911,347.000 255.009 M225.962 319.356 C 225.832 319.495,220.522 319.789,214.162 320.010 C 207.503 320.241,201.543 320.642,200.107 320.955 C 198.213 321.367,195.043 321.451,186.907 321.304 C 178.678 321.155,174.678 321.264,169.625 321.774 C 165.770 322.163,157.743 322.519,150.225 322.633 C 143.171 322.740,136.725 323.009,135.900 323.229 C 132.668 324.094,134.835 325.286,142.200 326.692 C 144.814 327.191,146.718 327.240,152.600 326.957 C 162.937 326.460,168.074 326.563,172.400 327.354 C 176.503 328.104,180.553 327.944,192.685 326.553 C 196.518 326.114,202.398 325.942,214.085 325.927 C 225.818 325.912,231.203 325.754,233.886 325.345 C 235.914 325.036,240.641 324.616,244.391 324.412 C 248.142 324.208,251.365 323.945,251.553 323.829 C 251.742 323.712,254.256 323.531,257.141 323.427 C 262.126 323.246,264.286 322.786,263.805 322.008 C 263.500 321.515,260.561 321.267,252.000 321.010 C 247.930 320.888,242.714 320.519,240.408 320.191 C 235.650 319.513,226.321 318.974,225.962 319.356 M306.600 321.601 C 305.500 321.780,303.025 322.049,301.100 322.199 C 295.692 322.620,296.391 323.187,303.433 324.091 C 312.774 325.290,320.215 324.135,315.970 322.145 C 314.651 321.526,309.054 321.201,306.600 321.601 M373.611 352.445 C 370.836 353.553,371.977 355.858,375.200 355.656 C 376.952 355.545,380.400 354.025,380.400 353.362 C 380.400 352.383,375.443 351.714,373.611 352.445 " stroke="none" fill="#aa3404" fill-rule="evenodd"></path><path id="path6" d="M132.900 11.094 C 133.945 11.176,135.655 11.176,136.700 11.094 C 137.745 11.012,136.890 10.944,134.800 10.944 C 132.710 10.944,131.855 11.012,132.900 11.094 M293.105 11.483 C 293.602 11.579,294.322 11.575,294.705 11.475 C 295.087 11.375,294.680 11.296,293.800 11.301 C 292.920 11.305,292.607 11.387,293.105 11.483 M170.200 12.015 C 171.520 12.179,174.670 12.332,177.200 12.356 C 179.730 12.380,183.870 12.691,186.400 13.048 C 190.629 13.644,191.323 13.645,195.000 13.055 L 199.000 12.414 195.200 12.586 C 193.110 12.681,188.970 12.500,186.000 12.184 C 183.030 11.868,177.720 11.634,174.200 11.664 C 169.315 11.705,168.368 11.788,170.200 12.015 M286.767 11.758 C 286.269 12.227,263.650 13.610,257.464 13.549 C 254.546 13.520,251.309 13.711,250.200 13.977 C 247.171 14.705,239.443 14.842,236.200 14.225 C 233.178 13.651,219.563 12.950,215.000 13.135 C 213.460 13.197,210.130 13.054,207.600 12.817 C 205.070 12.579,202.145 12.307,201.100 12.211 C 200.041 12.115,199.200 12.206,199.200 12.419 C 199.200 12.628,199.786 12.800,200.503 12.800 C 201.219 12.800,203.364 13.229,205.270 13.753 C 207.839 14.460,208.850 14.590,209.185 14.255 C 209.865 13.575,218.648 13.383,219.843 14.023 C 221.323 14.815,220.922 18.757,219.356 18.813 C 218.368 18.847,217.470 20.920,217.923 22.120 C 218.420 23.437,218.256 24.000,217.376 24.000 C 217.059 24.000,216.800 24.163,216.800 24.363 C 216.800 24.567,216.188 24.537,215.400 24.295 C 214.134 23.907,213.404 22.800,214.413 22.800 C 214.640 22.800,214.979 22.395,215.166 21.900 C 216.346 18.774,209.804 17.450,205.029 19.848 C 202.577 21.080,202.419 21.309,202.813 23.056 C 203.499 26.100,201.354 27.977,194.922 29.962 C 190.882 31.209,188.800 32.383,188.800 33.415 C 188.800 34.139,191.137 36.800,191.772 36.800 C 193.177 36.800,194.074 38.665,193.785 40.984 C 193.377 44.250,195.176 45.950,200.400 47.231 C 203.609 48.018,218.325 47.928,222.800 47.094 C 230.175 45.719,253.054 45.536,258.031 46.811 C 263.416 48.191,266.615 47.811,270.400 45.343 C 272.845 43.749,273.200 43.340,273.200 42.118 C 273.200 39.483,275.675 38.918,279.112 40.769 C 281.594 42.106,284.300 42.086,287.000 40.710 C 287.880 40.262,289.050 39.670,289.600 39.394 C 290.150 39.118,291.147 38.776,291.816 38.633 C 293.183 38.341,294.198 36.771,294.632 34.278 C 295.189 31.078,291.750 29.235,282.465 27.758 C 276.275 26.773,274.888 24.771,278.518 22.065 C 279.127 21.611,279.217 21.021,279.118 18.151 C 278.968 13.842,279.114 13.739,286.944 12.613 C 289.113 12.301,290.988 11.945,291.111 11.823 C 291.359 11.574,287.030 11.509,286.767 11.758 M261.938 28.587 C 262.522 28.911,263.675 29.441,264.500 29.767 C 265.926 30.330,266.000 30.449,266.000 32.175 C 266.000 33.836,265.873 34.071,264.500 34.943 C 263.675 35.467,262.667 36.269,262.259 36.724 C 261.275 37.826,258.060 38.210,254.983 37.594 C 253.672 37.331,252.134 37.136,251.563 37.160 C 250.989 37.184,250.203 36.845,249.801 36.402 C 249.402 35.961,248.660 35.600,248.152 35.600 C 247.638 35.600,247.038 35.246,246.800 34.800 C 246.565 34.360,246.119 34.000,245.810 34.000 C 245.500 34.000,245.146 33.836,245.022 33.636 C 244.636 33.011,245.252 32.000,246.019 32.000 C 246.423 32.000,246.864 31.820,247.000 31.600 C 247.136 31.380,247.642 31.199,248.124 31.197 C 248.606 31.196,249.540 30.837,250.200 30.400 C 250.860 29.963,251.769 29.604,252.220 29.603 C 252.671 29.601,253.211 29.434,253.420 29.231 C 254.628 28.059,260.219 27.636,261.938 28.587 M253.744 29.569 C 251.331 31.040,251.405 32.042,253.835 30.813 C 254.696 30.378,256.120 29.905,257.000 29.763 C 258.320 29.550,258.460 29.448,257.800 29.180 C 256.451 28.634,255.059 28.767,253.744 29.569 M209.500 33.195 C 210.132 33.198,210.400 33.439,210.400 34.000 C 210.400 34.681,210.133 34.800,208.600 34.800 C 206.925 34.800,206.800 34.727,206.800 33.753 C 206.800 32.863,206.935 32.743,207.700 32.948 C 208.195 33.081,209.005 33.192,209.500 33.195 M231.442 35.814 C 234.764 37.122,234.956 37.278,234.603 38.390 C 234.451 38.869,234.242 39.175,234.138 39.071 C 234.034 38.967,232.168 39.494,229.992 40.241 C 222.874 42.686,216.500 41.358,216.875 37.509 C 217.203 34.138,224.909 33.242,231.442 35.814 M211.941 41.649 C 214.860 43.796,213.228 45.171,207.800 45.138 C 202.292 45.104,201.167 43.753,204.875 41.626 C 207.745 39.980,209.681 39.987,211.941 41.649 " stroke="none" fill="#e46c04" fill-rule="evenodd"></path><path id="path7" d="M0.000 19.149 C 0.000 26.042,0.082 26.993,0.800 28.400 C 1.240 29.262,1.600 30.252,1.600 30.600 C 1.600 30.948,1.240 31.938,0.800 32.800 C -0.398 35.148,-0.398 46.861,0.800 49.096 C 1.793 50.948,1.793 51.254,0.800 53.200 C -0.392 55.537,-0.392 66.638,0.800 69.106 C 1.800 71.174,1.800 71.891,0.800 73.400 C -0.338 75.118,-0.383 87.699,0.739 90.200 C 1.432 91.742,1.431 91.873,0.729 93.794 C -0.239 96.444,-0.211 99.602,0.800 101.694 C 1.796 103.757,1.796 104.243,0.800 106.306 C -0.259 108.498,-0.270 111.895,0.777 113.677 C 2.017 115.789,2.064 116.993,0.971 118.605 C -0.300 120.477,-0.550 132.646,0.662 133.651 C 2.985 135.577,3.008 141.632,0.703 144.175 C -0.395 145.387,-0.233 148.532,1.039 150.703 C 2.436 153.086,2.359 158.311,0.900 160.164 C -0.427 161.851,-0.349 164.854,1.076 166.910 C 2.651 169.182,2.662 173.322,1.100 176.293 C -0.268 178.894,-0.200 182.800,1.212 182.800 C 2.646 182.800,2.663 190.907,1.233 192.841 C -0.150 194.712,-0.189 199.200,1.179 199.200 C 2.521 199.200,2.665 206.951,1.364 209.153 C 0.742 210.206,0.745 210.345,1.412 211.362 C 2.874 213.594,2.406 222.000,0.819 222.000 C -0.073 222.000,0.098 225.850,1.082 227.935 C 2.130 230.152,2.152 232.327,1.143 233.942 C 0.808 234.479,0.851 234.939,1.322 235.850 C 2.625 238.369,2.507 245.600,1.164 245.600 C -0.034 245.600,-0.207 251.392,0.977 251.847 C 1.954 252.222,2.526 255.383,2.215 258.702 C 1.837 262.756,1.835 263.994,2.202 267.653 C 2.402 269.647,2.339 271.603,2.020 273.292 C 1.616 275.434,1.632 276.213,2.110 277.839 C 3.293 281.858,2.722 292.827,1.224 294.854 C 0.082 296.398,0.116 299.434,1.300 301.688 C 2.580 304.124,2.601 309.391,1.337 311.100 C 0.117 312.750,-0.072 316.271,1.001 317.344 C 3.381 319.724,2.973 330.610,0.445 332.172 C -0.370 332.676,-0.083 336.360,0.877 337.708 C 1.477 338.551,1.754 339.526,1.754 340.800 C 1.754 342.074,1.477 343.049,0.877 343.892 C -0.381 345.658,-0.274 347.902,1.200 350.664 C 2.828 353.715,2.721 358.536,0.987 360.270 C 0.690 360.567,0.324 361.631,0.174 362.636 C -0.096 364.432,0.015 364.834,1.429 367.200 C 2.359 368.754,2.071 375.468,1.043 376.219 C -3.504 379.541,6.785 391.829,16.912 395.171 C 20.624 396.396,38.179 396.936,63.800 396.615 C 75.900 396.463,106.500 396.281,131.800 396.210 C 157.100 396.140,180.950 395.953,184.800 395.796 C 190.184 395.576,193.324 395.666,198.400 396.185 C 202.104 396.564,207.369 396.814,210.400 396.755 C 213.370 396.697,225.700 396.862,237.800 397.123 C 273.695 397.895,359.986 397.415,376.200 396.352 C 387.027 395.643,389.196 394.778,395.280 388.740 C 397.464 386.573,399.419 384.800,399.625 384.800 C 399.831 384.800,400.000 383.990,400.000 383.000 C 400.000 380.650,400.133 380.584,395.664 385.129 C 392.544 388.301,388.808 391.221,387.600 391.432 C 387.490 391.451,386.913 391.669,386.318 391.917 C 385.723 392.164,383.411 392.554,381.180 392.783 C 378.950 393.012,376.958 393.302,376.754 393.429 C 375.570 394.160,233.006 394.311,227.400 393.587 C 225.860 393.388,219.740 393.211,213.800 393.195 C 207.860 393.179,202.190 392.992,201.200 392.781 C 198.043 392.107,187.672 391.856,183.893 392.362 C 180.963 392.754,138.619 392.903,97.600 392.666 C 96.170 392.657,89.781 392.861,83.403 393.118 C 75.006 393.456,70.206 393.468,66.003 393.160 C 62.464 392.901,56.064 392.843,49.600 393.011 C 42.943 393.184,37.066 393.126,33.800 392.853 C 30.940 392.614,26.260 392.327,23.400 392.215 C 15.439 391.903,11.409 390.408,6.818 386.064 C 3.163 382.606,2.604 380.590,3.839 375.325 C 4.289 373.408,4.402 371.769,4.219 369.800 C 4.076 368.260,3.859 365.898,3.736 364.551 C 3.585 362.891,3.720 361.390,4.157 359.890 C 5.011 356.951,4.968 354.776,3.988 351.399 C 3.203 348.695,3.197 348.465,3.822 344.590 C 4.414 340.920,4.415 340.373,3.834 338.132 C 2.947 334.709,3.028 333.452,4.425 328.949 C 5.793 324.538,5.784 322.585,4.374 318.729 C 3.391 316.039,3.395 313.937,4.390 310.962 C 4.825 309.663,5.180 307.700,5.180 306.600 C 5.180 305.500,4.825 303.537,4.390 302.238 C 3.402 299.283,3.398 297.717,4.371 294.192 C 5.260 290.972,5.555 278.987,4.796 276.988 C 4.491 276.188,4.503 274.770,4.838 272.010 C 5.161 269.344,5.184 267.447,4.913 265.875 C 4.650 264.348,4.659 262.842,4.939 261.299 C 5.517 258.116,5.372 255.906,4.416 253.352 C 3.451 250.773,3.370 247.685,4.196 244.964 C 4.957 242.453,4.954 240.510,4.184 237.537 C 3.692 235.638,3.653 234.698,3.993 232.879 C 4.297 231.247,4.292 229.805,3.974 227.800 C 3.602 225.452,3.638 224.580,4.201 222.400 C 5.263 218.281,5.325 217.035,4.594 214.535 C 3.771 211.724,3.768 209.670,4.582 207.000 C 5.405 204.300,5.355 202.427,4.400 200.200 C 3.371 197.799,3.371 194.611,4.400 191.904 C 5.414 189.235,5.414 186.748,4.400 183.800 C 3.453 181.048,3.388 178.227,4.200 175.200 C 5.049 172.038,4.942 169.944,3.800 167.362 C 2.592 164.629,2.536 162.496,3.600 159.696 C 4.607 157.046,4.607 155.331,3.600 151.697 C 2.541 147.876,2.598 146.723,4.011 143.412 C 5.613 139.656,5.590 137.591,3.914 134.541 C 2.274 131.556,2.029 124.732,3.380 119.689 C 4.084 117.062,4.105 116.594,3.599 114.889 C 2.903 112.547,2.599 106.925,3.133 106.278 C 3.351 106.015,3.455 104.810,3.365 103.600 C 3.275 102.390,3.130 98.578,3.042 95.129 C 2.955 91.680,2.755 88.650,2.598 88.397 C 2.145 87.664,2.342 76.511,2.855 73.831 C 3.111 72.494,3.259 69.960,3.184 68.200 C 2.992 63.694,2.968 33.017,3.154 30.600 C 3.597 24.873,1.776 13.352,0.157 11.633 C 0.071 11.542,0.000 14.924,0.000 19.149 M399.190 113.026 C 398.622 114.520,398.712 116.531,399.387 117.424 C 399.920 118.128,399.976 117.913,399.987 115.100 C 400.001 111.819,399.824 111.359,399.190 113.026 M398.827 135.162 C 397.766 136.653,397.788 137.137,398.988 138.600 L 399.971 139.800 399.986 136.900 C 400.002 133.618,399.966 133.563,398.827 135.162 M399.296 151.995 C 398.648 153.033,398.686 154.016,399.413 154.976 C 399.951 155.688,400.000 155.564,400.000 153.476 C 400.000 150.921,399.986 150.891,399.296 151.995 M398.900 167.727 C 397.754 169.411,397.770 170.220,398.990 172.200 L 399.975 173.800 399.988 170.100 C 399.994 168.065,399.955 166.401,399.900 166.403 C 399.845 166.404,399.395 167.000,398.900 167.727 M398.728 187.070 C 397.966 188.792,397.950 189.022,398.519 189.960 C 399.656 191.835,400.000 191.434,400.000 188.233 C 400.000 184.692,399.843 184.549,398.728 187.070 M399.302 199.673 C 398.472 200.679,398.294 202.524,398.942 203.399 C 399.796 204.551,400.059 204.007,399.921 201.380 C 399.821 199.471,399.713 199.174,399.302 199.673 M399.062 213.531 C 398.201 214.483,398.230 215.136,399.200 216.600 L 399.995 217.800 399.997 215.300 C 400.000 212.518,399.992 212.503,399.062 213.531 M398.662 237.931 C 397.834 238.846,397.829 239.756,398.638 242.129 C 399.579 244.892,400.000 244.419,400.000 240.600 C 400.000 237.091,399.794 236.680,398.662 237.931 M398.478 252.117 C 396.519 254.202,396.518 255.864,398.469 261.200 C 399.398 263.741,399.404 263.832,398.711 265.200 C 397.799 266.999,397.813 267.166,398.988 268.600 L 399.971 269.800 399.986 260.500 C 400.000 250.922,399.936 250.565,398.478 252.117 M398.816 278.475 C 397.837 279.526,397.835 279.547,398.625 281.131 C 399.671 283.226,400.000 283.008,400.000 280.224 C 400.000 277.296,399.964 277.243,398.816 278.475 M398.927 290.500 C 398.111 291.911,398.068 292.379,398.581 294.200 C 399.511 297.499,400.000 297.117,400.000 293.089 C 400.000 288.737,399.978 288.683,398.927 290.500 M398.805 302.995 C 397.921 303.936,397.896 304.103,398.352 306.095 C 399.321 310.328,400.000 310.238,400.000 305.876 C 400.000 303.744,399.941 302.000,399.870 302.000 C 399.798 302.000,399.319 302.448,398.805 302.995 M398.726 317.873 C 395.453 321.307,395.416 325.279,398.624 328.739 C 399.982 330.204,400.033 329.981,399.910 323.029 L 399.800 316.746 398.726 317.873 M399.299 337.700 C 397.617 339.807,397.413 342.545,398.842 343.838 C 399.827 344.730,399.918 348.438,398.974 349.222 C 397.054 350.815,396.684 354.098,398.118 356.810 C 399.898 360.177,400.000 359.702,400.000 348.033 C 400.000 342.075,399.932 337.200,399.849 337.200 C 399.766 337.200,399.518 337.425,399.299 337.700 " stroke="none" fill="#8d2404" fill-rule="evenodd"></path><path id="path8" d="M398.624 0.700 C 398.794 1.085,398.907 2.210,398.876 3.200 C 398.805 5.411,399.087 6.800,399.608 6.800 C 399.833 6.800,400.000 5.356,400.000 3.400 C 400.000 0.209,399.948 0.000,399.157 0.000 C 398.503 0.000,398.384 0.157,398.624 0.700 M0.000 6.956 C 0.000 10.767,0.110 11.442,0.983 13.006 C 2.055 14.928,3.476 26.436,3.154 30.600 C 2.968 33.017,2.992 63.694,3.184 68.200 C 3.259 69.960,3.111 72.494,2.855 73.831 C 2.342 76.511,2.145 87.664,2.598 88.397 C 2.755 88.650,2.955 91.680,3.042 95.129 C 3.130 98.578,3.275 102.390,3.365 103.600 C 3.455 104.810,3.351 106.015,3.133 106.278 C 2.599 106.925,2.903 112.547,3.599 114.889 C 4.105 116.594,4.084 117.062,3.380 119.689 C 2.029 124.732,2.274 131.556,3.914 134.541 C 5.590 137.591,5.613 139.656,4.011 143.412 C 2.598 146.723,2.541 147.876,3.600 151.697 C 4.607 155.331,4.607 157.046,3.600 159.696 C 2.536 162.496,2.592 164.629,3.800 167.362 C 4.942 169.944,5.049 172.038,4.200 175.200 C 3.388 178.227,3.453 181.048,4.400 183.800 C 5.414 186.748,5.414 189.235,4.400 191.904 C 3.371 194.611,3.371 197.799,4.400 200.200 C 5.355 202.427,5.405 204.300,4.582 207.000 C 3.768 209.670,3.771 211.724,4.594 214.535 C 5.325 217.035,5.263 218.281,4.201 222.400 C 3.638 224.580,3.602 225.452,3.974 227.800 C 4.292 229.805,4.297 231.247,3.993 232.879 C 3.653 234.698,3.692 235.638,4.184 237.537 C 4.954 240.510,4.957 242.453,4.196 244.964 C 3.370 247.685,3.451 250.773,4.416 253.352 C 5.372 255.906,5.517 258.116,4.939 261.299 C 4.659 262.842,4.650 264.348,4.913 265.875 C 5.184 267.447,5.161 269.344,4.838 272.010 C 4.503 274.770,4.491 276.188,4.796 276.988 C 5.555 278.987,5.260 290.972,4.371 294.192 C 3.398 297.717,3.402 299.283,4.390 302.238 C 5.393 305.235,5.393 307.965,4.390 310.962 C 3.395 313.937,3.391 316.039,4.374 318.729 C 5.784 322.585,5.793 324.538,4.425 328.949 C 3.028 333.452,2.947 334.709,3.834 338.132 C 4.415 340.373,4.414 340.920,3.822 344.590 C 3.197 348.465,3.203 348.695,3.988 351.399 C 4.969 354.781,5.011 356.951,4.151 359.908 C 3.673 361.555,3.573 362.882,3.772 364.970 C 3.920 366.527,4.138 368.880,4.257 370.200 C 4.393 371.721,4.239 373.598,3.836 375.325 C 1.596 384.919,9.412 391.666,23.400 392.215 C 26.260 392.327,30.940 392.614,33.800 392.853 C 37.066 393.126,42.943 393.184,49.600 393.011 C 56.064 392.843,62.464 392.901,66.003 393.160 C 70.206 393.468,75.006 393.456,83.403 393.118 C 89.781 392.861,96.170 392.657,97.600 392.666 C 138.619 392.903,180.963 392.754,183.893 392.362 C 187.672 391.856,198.043 392.107,201.200 392.781 C 202.190 392.992,207.860 393.179,213.800 393.195 C 219.740 393.211,225.860 393.388,227.400 393.587 C 233.006 394.311,375.570 394.160,376.754 393.429 C 376.958 393.302,378.950 393.012,381.180 392.783 C 383.411 392.554,385.723 392.164,386.318 391.917 C 386.913 391.669,387.490 391.451,387.600 391.432 C 388.814 391.220,392.583 388.258,395.900 384.908 L 400.002 380.766 399.986 369.820 C 399.974 361.071,399.864 358.833,399.437 358.669 C 396.942 357.712,396.622 351.174,398.974 349.222 C 399.918 348.438,399.827 344.730,398.842 343.838 C 397.384 342.519,397.857 338.477,399.594 337.404 C 400.644 336.755,400.061 330.066,398.854 328.903 C 395.394 325.572,395.433 320.863,398.946 317.630 C 400.345 316.343,400.504 310.998,399.217 308.512 C 397.845 305.864,397.761 303.960,398.966 302.830 C 400.163 301.708,400.464 297.656,399.460 296.189 C 398.906 295.381,398.273 293.472,398.204 292.400 C 398.182 292.070,398.577 291.129,399.082 290.308 C 400.061 288.718,400.445 283.122,399.611 282.607 C 397.931 281.568,397.869 278.924,399.500 277.880 C 400.557 277.204,400.150 270.144,398.964 268.588 C 397.934 267.238,398.056 264.907,399.193 264.204 C 399.377 264.091,399.076 262.783,398.523 261.299 C 396.438 255.700,396.499 253.797,398.827 251.839 C 400.012 250.842,400.719 244.000,399.638 244.000 C 399.197 244.000,398.000 240.607,398.000 239.358 C 398.000 238.863,398.450 238.104,399.000 237.671 L 400.000 236.885 399.997 227.342 C 399.995 218.493,399.937 217.713,399.200 216.600 C 398.194 215.081,398.194 214.310,399.200 213.400 C 400.427 212.289,400.396 204.796,399.158 203.558 C 398.217 202.617,398.332 200.781,399.405 199.595 C 400.518 198.365,400.227 191.887,399.000 190.562 C 397.762 189.226,397.762 189.005,398.998 186.568 C 400.494 183.619,400.489 174.634,398.990 172.200 C 397.746 170.182,397.748 169.296,399.000 167.600 C 400.233 165.929,400.542 156.469,399.413 154.976 C 398.665 153.987,398.665 152.813,399.413 151.824 C 400.550 150.321,400.235 140.254,399.000 138.636 C 398.450 137.914,398.000 137.088,398.000 136.800 C 398.000 136.512,398.450 135.686,399.000 134.964 C 399.878 133.813,399.996 133.273,399.968 130.527 C 399.951 128.807,399.835 127.670,399.711 128.000 C 399.587 128.330,399.134 129.102,398.705 129.716 C 395.248 134.652,394.930 136.891,397.040 141.459 C 398.658 144.963,398.684 146.397,397.199 150.305 C 396.123 153.137,396.456 156.778,398.112 160.300 C 398.415 160.944,398.406 161.456,398.079 162.100 C 395.534 167.122,395.087 170.942,396.581 174.910 C 398.205 179.227,398.296 181.186,396.996 183.845 C 395.371 187.165,395.267 189.095,396.564 191.834 L 397.630 194.086 396.613 198.024 L 395.596 201.963 396.598 205.033 C 397.841 208.842,397.842 209.401,396.604 212.060 C 395.369 214.713,395.366 215.833,396.586 219.510 C 397.116 221.110,397.472 222.820,397.377 223.310 C 397.281 223.799,397.097 224.759,396.968 225.442 C 396.838 226.126,396.938 228.405,397.189 230.508 L 397.646 234.331 396.423 236.498 C 394.970 239.072,394.946 239.495,396.049 243.058 C 397.145 246.600,397.092 249.145,395.883 251.096 C 393.748 254.542,393.527 255.959,394.616 259.245 C 394.953 260.260,395.283 262.780,395.351 264.845 C 395.433 267.354,395.693 269.025,396.137 269.880 C 396.940 271.430,397.014 275.380,396.267 276.811 C 395.348 278.572,395.259 279.547,395.800 281.904 C 396.572 285.268,396.629 287.508,396.008 290.136 C 395.517 292.215,395.536 292.877,396.181 296.158 C 396.861 299.616,396.866 300.004,396.253 302.447 C 395.423 305.756,395.433 306.419,396.367 309.976 C 397.359 313.753,397.131 314.967,394.643 319.171 C 392.629 322.573,391.961 325.562,393.042 326.339 C 393.631 326.763,395.425 329.291,396.207 330.800 C 397.106 332.536,397.025 335.174,396.006 337.282 C 394.829 339.719,394.681 341.054,395.222 344.385 C 395.630 346.897,395.628 347.822,395.212 349.244 C 394.223 352.624,394.267 354.785,395.385 357.738 C 396.367 360.331,396.431 360.966,396.597 369.738 C 396.803 380.618,396.731 380.897,392.719 384.611 C 385.317 391.464,387.365 391.318,299.600 391.259 C 268.250 391.238,239.333 391.103,235.339 390.959 C 231.346 390.815,222.436 390.663,215.539 390.623 C 208.124 390.579,201.285 390.335,198.803 390.027 C 196.062 389.686,192.591 389.588,188.803 389.744 C 152.630 391.234,23.219 390.659,16.306 388.978 C 8.929 387.183,5.111 382.858,6.065 377.377 C 6.533 374.686,6.613 371.022,6.341 364.800 C 6.248 362.678,6.438 361.018,6.990 359.128 C 7.785 356.410,7.458 352.140,6.369 351.020 C 5.776 350.409,5.938 345.811,6.598 344.546 C 7.346 343.110,7.342 340.292,6.588 338.200 C 5.461 335.070,5.822 332.119,7.884 327.616 C 9.016 325.142,8.995 323.143,7.797 319.732 C 6.485 315.992,6.437 314.243,7.558 310.848 C 8.494 308.012,8.611 306.089,7.975 303.997 C 6.419 298.875,6.403 298.691,7.198 295.510 C 7.798 293.108,7.956 290.952,7.973 284.946 C 8.041 260.846,7.964 254.680,7.589 253.979 C 6.597 252.126,6.397 249.180,7.051 246.065 C 7.592 243.489,7.625 242.330,7.258 238.800 C 6.695 233.394,6.870 221.770,7.524 221.116 C 8.208 220.432,8.110 216.784,7.334 213.991 C 6.644 211.509,6.714 210.614,7.992 205.600 C 8.438 203.848,8.252 201.408,7.611 200.600 C 6.401 199.075,6.424 192.885,7.646 191.360 C 8.386 190.436,8.519 187.229,7.889 185.500 C 6.454 181.560,6.297 179.989,7.025 176.800 C 8.000 172.524,7.916 170.470,6.661 167.819 C 5.429 165.216,5.283 162.302,6.260 159.800 C 7.335 157.045,7.328 155.861,6.214 152.207 C 4.966 148.119,5.147 146.407,7.249 142.368 C 8.826 139.338,8.711 137.191,6.831 134.524 C 4.617 131.382,4.103 128.071,5.129 123.559 C 6.476 117.638,6.540 116.765,5.824 113.972 C 5.056 110.975,4.952 107.864,5.565 106.274 C 6.115 104.850,6.125 101.814,5.585 99.997 C 5.357 99.229,5.174 96.941,5.177 94.914 C 5.181 92.886,4.990 90.276,4.752 89.114 C 4.111 85.983,4.270 75.755,4.997 73.363 C 5.611 71.338,5.951 53.291,5.391 52.385 C 5.042 51.820,5.071 33.332,5.422 32.764 C 5.966 31.884,5.591 24.682,4.799 20.797 C 4.360 18.640,4.000 16.462,4.000 15.958 C 4.000 14.891,2.325 9.246,1.333 6.967 C 0.957 6.105,0.619 4.901,0.582 4.290 C 0.400 1.332,0.000 3.163,0.000 6.956 M399.024 19.500 C 398.522 22.549,398.683 27.363,399.335 28.800 C 399.948 30.153,399.969 29.996,399.984 24.100 C 399.999 18.289,399.565 16.209,399.024 19.500 M399.210 35.977 C 398.483 37.731,398.534 39.906,399.321 40.692 C 399.960 41.331,400.000 41.177,400.000 38.086 C 400.000 34.461,399.923 34.255,399.210 35.977 M399.409 44.786 C 398.218 46.713,397.563 52.603,398.442 53.482 C 399.128 54.168,399.053 63.413,398.354 64.255 C 397.528 65.251,397.614 69.671,398.476 70.533 C 399.519 71.576,399.778 74.368,399.036 76.554 C 398.196 79.029,398.237 80.346,399.200 81.800 L 399.995 83.000 399.997 63.700 C 399.999 53.085,399.921 44.400,399.824 44.400 C 399.727 44.400,399.540 44.574,399.409 44.786 M399.401 85.600 C 399.181 85.930,398.938 88.495,398.861 91.300 C 398.783 94.105,398.593 96.400,398.439 96.400 C 398.284 96.400,397.833 97.304,397.436 98.408 C 396.663 100.558,396.717 101.463,397.890 105.974 C 398.393 107.908,398.440 108.587,398.079 108.707 C 397.816 108.795,397.600 109.190,397.600 109.584 C 397.600 109.979,397.330 110.949,397.000 111.738 C 395.806 114.595,396.185 116.632,398.964 122.307 L 399.800 124.014 399.918 121.200 C 400.003 119.157,399.866 118.144,399.418 117.504 C 398.632 116.383,398.627 114.285,399.406 112.645 C 400.137 111.103,400.133 84.500,399.401 85.600 " stroke="none" fill="#972c04" fill-rule="evenodd"></path></g></svg>