<svg version="1.1" xmlns="http://www.w3.org/2000/svg" xmlns:xlink="http://www.w3.org/1999/xlink" width="500" height="500">
    <defs>
        <linearGradient id="hAXWvOoohLPI" x1="0px" x2="500px" y1="0px" y2="500px" gradientUnits="userSpaceOnUse">
            <stop offset="0" stop-color="#BA4110" />
            <stop offset="1" stop-color="#D5711F" />
        </linearGradient>
        <linearGradient id="oIKCQzGnQTtk" x1="0px" x2="500px" y1="0px" y2="500px" gradientUnits="userSpaceOnUse">
            <stop offset="0" stop-color="#f5f7fa" />
            <stop offset="1" stop-color="#b8c6db" />
        </linearGradient>
    </defs>
    <g fill="url(#oIKCQzGnQTtk)">
        <path
            fill="url(#hAXWvOoohLPI)"
            stroke="none"
            paint-order="stroke fill markers"
            d=" M 10 0 L 490 0 L 490 0 A 10 10 0 0 1 500 10 L 500 490 L 500 490 A 10 10 0 0 1 490 500 L 10 500 L 10 500 A 10 10 0 0 1 0 490 L 0 10 L 0 10.000000000000002 A 10 10 0 0 1 10 0 Z"
        />
        <path fill="#BA4110" stroke="none" paint-order="stroke fill markers" d=" M 50 50 L 450 50 L 450 450 L 50 450 L 50 500 L 500 500 L 500 0 L 50 0 L 50 55" stroke-miterlimit="10" stroke-width="10" stroke-dasharray="" />
        <path
            fill="none"
            stroke="#f5f7fa"
            paint-order="fill stroke markers"
            d=" M 115 25 A 15 15 0 1 1 114.99999250000063 24.98500000249999 M 92.5 17.5 L 107.5 32.5 M 107.5 17.5 L 92.5 32.5"
            stroke-miterlimit="10"
            stroke-width="5"
            stroke-dasharray=""
        />
        <path
            fill="none"
            stroke="#f5f7fa"
            paint-order="fill stroke markers"
            d=" M 490 25 A 15 15 0 1 1 489.99999250000064 24.98500000249999 M 467.5 17.5 L 482.5 32.5 M 482.5 17.5 L 467.5 32.5"
            stroke-miterlimit="10"
            stroke-width="5"
            stroke-dasharray=""
        />
        <path
            fill="none"
            stroke="#f5f7fa"
            paint-order="fill stroke markers"
            d=" M 115 475 A 15 15 0 1 1 114.99999250000063 474.9850000025 M 92.5 467.5 L 107.5 482.5 M 107.5 467.5 L 92.5 482.5"
            stroke-miterlimit="10"
            stroke-width="5"
            stroke-dasharray=""
        />
        <path
            fill="none"
            stroke="#f5f7fa"
            paint-order="fill stroke markers"
            d=" M 490 475 A 15 15 0 1 1 489.99999250000064 474.9850000025 M 467.5 467.5 L 482.5 482.5 M 482.5 467.5 L 467.5 482.5"
            stroke-miterlimit="10"
            stroke-width="5"
            stroke-dasharray=""
        />
        <path fill="none" stroke="#912514" paint-order="fill stroke markers" d=" M 0 250 L 350 250" stroke-miterlimit="10" stroke-width="166.66" stroke-dasharray="" />
        <path fill="#912514" stroke="none" paint-order="stroke fill markers" d=" M 349 166.67000000000002 A 83.33 83.33 0 0 1 349 333.33" />
        <path fill="" stroke="none" d="" />
        <g transform="translate(10,280)">
            <text fill="" stroke="none" font-family="Verdana" font-size="90px" font-style="normal" font-weight="bold" text-decoration="normal" x="0" y="0" text-anchor="start" dominant-baseline="alphabetic">G O A L!</text>
        </g>
    </g>
</svg>
