<svg id="svg" version="1.1" xmlns="http://www.w3.org/2000/svg" xmlns:xlink="http://www.w3.org/1999/xlink" width="400" height="400" viewBox="0, 0, 400,400"><g id="svgg"><path id="path0" d="M133.724 2.500 C 133.685 3.875,133.454 5.810,133.211 6.800 C 132.968 7.790,132.518 13.640,132.212 19.800 C 131.006 44.066,128.470 55.912,121.596 69.400 C 116.638 79.127,115.834 80.404,111.004 86.229 C 108.802 88.885,105.511 92.872,103.691 95.089 C 99.935 99.663,99.312 100.202,90.865 106.177 C 74.128 118.018,59.849 123.700,42.600 125.381 C 26.113 126.988,11.451 126.550,4.717 124.249 C 2.384 123.452,0.369 122.800,0.238 122.800 C 0.107 122.800,0.000 156.570,0.000 197.844 L 0.000 272.888 1.300 272.697 C 2.015 272.592,4.040 272.103,5.800 271.611 C 8.837 270.762,10.037 270.700,29.400 270.394 C 58.040 269.942,58.509 269.908,76.635 267.039 C 119.305 260.285,161.113 240.393,192.400 211.959 C 226.248 181.198,246.219 149.029,262.654 98.800 C 265.668 89.587,267.322 82.569,269.156 71.200 C 271.417 57.194,271.608 54.700,272.002 34.000 C 272.197 23.770,272.474 15.006,272.618 14.525 C 272.762 14.044,272.571 11.318,272.194 8.468 C 271.817 5.619,271.578 2.547,271.664 1.643 L 271.821 0.000 263.583 0.000 C 255.508 0.000,255.329 0.018,254.552 0.911 C 253.624 1.979,249.057 3.986,244.800 5.196 C 243.150 5.666,241.387 6.218,240.881 6.425 C 240.376 6.631,239.531 6.800,239.005 6.800 C 238.478 6.800,237.936 6.980,237.800 7.200 C 237.664 7.420,237.006 7.600,236.338 7.600 C 235.671 7.600,233.926 7.955,232.462 8.390 C 230.998 8.824,227.279 9.612,224.198 10.142 C 213.944 11.903,211.195 14.644,215.100 19.210 C 216.801 21.198,217.085 23.868,215.844 26.200 C 214.795 28.171,215.037 30.231,216.784 34.200 C 217.172 35.080,217.610 36.790,217.759 38.000 C 218.140 41.096,218.786 42.903,219.761 43.600 C 221.258 44.670,224.888 46.800,225.216 46.800 C 225.609 46.800,228.800 49.834,228.800 50.207 C 228.800 50.355,229.174 51.002,229.631 51.644 C 231.063 53.655,231.140 57.938,229.808 61.600 C 227.295 68.515,227.159 69.039,227.141 71.840 C 227.127 73.961,227.334 75.095,227.961 76.324 C 229.901 80.126,228.831 83.018,224.355 86.069 C 223.281 86.801,222.401 87.627,222.401 87.904 C 222.400 88.182,222.057 89.172,221.638 90.104 C 221.219 91.037,220.770 92.946,220.640 94.346 C 220.452 96.361,220.169 97.157,219.282 98.167 C 218.666 98.869,217.924 100.019,217.632 100.722 C 217.341 101.425,216.976 102.000,216.820 102.000 C 216.664 102.000,215.966 103.125,215.268 104.500 C 213.259 108.462,211.814 109.880,208.684 110.965 C 207.189 111.482,205.645 112.197,205.252 112.553 C 204.859 112.909,204.370 113.200,204.166 113.200 C 203.962 113.200,203.543 113.785,203.235 114.500 C 202.927 115.215,202.436 116.070,202.143 116.400 C 199.307 119.598,199.493 119.465,195.563 121.124 C 193.494 121.997,192.646 123.057,191.021 126.800 C 188.285 133.105,184.101 134.285,176.200 130.978 C 175.540 130.702,174.290 130.184,173.422 129.826 C 171.413 128.998,169.200 127.319,169.200 126.622 C 169.200 126.327,168.930 125.982,168.600 125.855 C 168.270 125.729,168.000 125.302,168.000 124.907 C 168.000 123.038,165.092 119.112,163.244 118.485 C 160.263 117.474,158.765 119.123,157.166 125.176 C 156.552 127.499,155.748 130.390,155.379 131.600 C 154.934 133.061,154.681 135.479,154.625 138.800 C 154.437 150.139,149.016 153.414,141.656 146.637 C 138.488 143.720,137.608 141.201,138.810 138.485 C 140.338 135.030,140.274 132.675,138.501 127.073 C 138.065 125.697,137.950 124.190,138.100 121.796 L 138.309 118.444 141.149 115.522 L 143.990 112.600 143.982 109.600 C 143.974 106.502,143.470 105.200,142.280 105.200 C 141.932 105.200,141.528 105.007,141.383 104.772 C 140.140 102.761,135.105 106.560,134.611 109.881 C 134.454 110.936,134.179 111.980,134.001 112.200 C 133.823 112.420,133.614 113.050,133.538 113.600 C 133.418 114.466,133.226 114.583,132.100 114.470 C 131.151 114.375,130.800 114.502,130.800 114.943 C 130.800 115.926,125.698 116.220,122.110 115.443 C 121.621 115.337,120.678 115.406,120.014 115.596 C 119.076 115.865,118.728 115.801,118.453 115.309 C 118.257 114.959,117.829 114.780,117.494 114.909 C 116.610 115.248,116.400 113.655,116.400 106.595 L 116.400 100.490 117.700 98.560 C 118.753 96.996,119.640 96.299,122.370 94.892 C 124.224 93.937,126.384 92.652,127.170 92.037 C 127.957 91.422,129.095 90.799,129.700 90.652 C 130.305 90.505,130.800 90.111,130.800 89.776 C 130.800 89.315,131.196 89.191,132.438 89.264 C 134.266 89.372,135.014 88.723,136.432 85.800 C 136.858 84.920,137.836 83.210,138.603 82.000 C 139.371 80.790,140.267 79.227,140.594 78.527 C 140.920 77.827,141.371 77.142,141.594 77.004 C 141.817 76.866,142.000 76.225,142.000 75.580 C 142.000 74.840,142.295 74.222,142.800 73.907 C 143.240 73.632,143.600 73.078,143.600 72.675 C 143.600 71.881,144.494 70.800,145.152 70.800 C 145.376 70.800,145.704 70.560,145.880 70.268 C 146.366 69.458,148.770 68.402,150.161 68.386 C 151.870 68.366,153.046 67.242,156.217 62.600 C 157.720 60.400,159.063 58.510,159.202 58.400 C 160.964 57.003,164.479 51.228,164.981 48.905 C 165.136 48.192,165.428 47.506,165.631 47.381 C 165.834 47.255,166.000 46.786,166.000 46.339 C 166.000 45.891,166.633 43.606,167.407 41.262 C 168.181 38.918,169.082 36.190,169.409 35.200 C 169.736 34.210,170.003 33.053,170.002 32.628 C 169.995 29.801,174.591 21.602,176.185 21.599 C 176.903 21.598,178.800 18.173,178.800 16.877 C 178.800 15.467,178.057 13.600,177.496 13.600 C 177.290 13.600,176.554 13.348,175.860 13.040 C 175.167 12.732,174.240 12.388,173.800 12.276 C 168.519 10.932,161.027 8.565,160.200 7.979 C 159.980 7.822,159.170 7.589,158.400 7.459 C 157.630 7.329,156.323 7.108,155.496 6.967 C 154.669 6.827,153.894 6.551,153.773 6.356 C 153.652 6.160,153.226 6.000,152.827 6.000 C 152.055 6.000,146.480 4.256,145.302 3.646 C 144.916 3.446,143.827 2.963,142.882 2.572 C 141.937 2.182,140.677 1.444,140.082 0.932 C 139.189 0.164,138.545 0.001,136.398 0.000 L 133.795 0.000 133.724 2.500 M115.773 125.956 C 116.082 126.457,118.761 126.718,118.913 126.262 C 119.338 124.986,122.000 127.347,122.000 129.000 C 122.000 130.733,119.958 132.515,118.796 131.797 C 118.578 131.663,118.400 131.737,118.400 131.962 C 118.400 132.187,117.590 132.355,116.600 132.335 C 115.381 132.310,114.800 132.126,114.800 131.763 C 114.800 131.078,113.496 128.243,113.100 128.067 C 112.349 127.733,113.160 126.385,114.407 125.896 C 115.285 125.551,115.529 125.562,115.773 125.956 M126.446 139.406 C 127.191 139.567,128.250 140.008,128.800 140.385 C 129.350 140.761,130.115 141.183,130.500 141.322 C 131.483 141.677,131.467 148.242,130.478 150.646 C 128.551 155.327,119.945 156.731,118.246 152.641 C 116.336 148.044,116.103 144.102,117.617 141.976 C 118.459 140.794,121.800 139.029,122.443 139.427 C 122.640 139.548,122.800 139.491,122.800 139.301 C 122.800 138.914,124.389 138.960,126.446 139.406 M0.000 394.751 L 0.000 400.000 6.231 400.000 L 12.461 400.000 11.331 399.082 C 10.709 398.578,9.146 397.543,7.859 396.782 C 5.523 395.404,4.119 393.998,1.891 390.811 C 1.511 390.267,1.200 389.974,1.200 390.160 C 1.200 390.346,0.930 390.274,0.600 390.000 C 0.072 389.562,0.000 390.131,0.000 394.751 M398.565 392.914 C 397.278 393.662,392.472 398.031,391.790 399.072 L 391.182 400.000 395.591 400.000 L 400.000 400.000 400.000 396.200 C 400.000 392.250,399.941 392.114,398.565 392.914 M21.107 399.890 C 21.826 399.979,22.906 399.977,23.507 399.886 C 24.108 399.795,23.520 399.722,22.200 399.724 C 20.880 399.726,20.388 399.801,21.107 399.890 " stroke="none" fill="#212220" fill-rule="evenodd"></path><path id="path1" d="M2.240 0.336 C 2.126 0.520,2.115 2.168,2.215 3.997 C 2.442 8.119,3.014 9.169,6.467 11.800 C 11.612 15.720,11.928 19.405,8.237 32.400 C 6.810 37.422,5.437 59.279,6.091 66.550 C 6.447 70.508,6.185 76.860,5.147 89.382 C 4.051 102.616,5.132 114.214,7.694 116.697 C 11.747 120.626,35.868 120.546,52.148 116.549 C 72.621 111.524,91.784 98.993,103.924 82.692 C 120.057 61.031,124.400 47.687,124.400 19.784 L 124.400 12.817 126.200 7.200 C 127.190 4.111,128.000 1.227,128.000 0.791 C 128.000 -0.217,126.464 -0.294,126.162 0.700 C 124.161 7.278,118.711 10.236,108.800 10.122 C 105.610 10.086,94.000 9.967,83.000 9.857 C 55.464 9.584,50.735 9.416,47.400 8.594 C 43.609 7.659,36.660 7.398,31.948 8.014 C 28.951 8.405,27.130 8.415,23.748 8.057 C 21.357 7.804,17.644 7.416,15.498 7.195 C 9.102 6.535,6.400 4.864,6.400 1.569 L 6.400 0.000 4.424 0.000 C 3.337 0.000,2.354 0.151,2.240 0.336 M276.400 0.931 C 276.400 1.444,277.030 3.827,277.800 6.228 C 279.331 11.001,279.458 12.628,278.804 19.086 C 278.586 21.239,278.224 30.290,278.001 39.200 C 277.248 69.222,273.989 87.187,265.198 109.789 C 263.912 113.095,261.919 118.320,260.768 121.400 C 259.618 124.480,256.274 131.818,253.338 137.706 C 250.402 143.594,248.000 148.472,248.000 148.546 C 248.000 150.488,230.996 176.917,224.662 184.821 C 203.891 210.737,177.864 232.858,152.569 246.093 C 148.186 248.386,143.880 250.705,143.000 251.245 C 135.017 256.150,103.028 267.532,90.400 269.961 C 89.190 270.194,85.230 270.934,81.600 271.607 C 77.970 272.280,72.570 273.403,69.600 274.102 C 64.307 275.347,63.999 275.373,54.000 275.408 C 48.390 275.428,42.900 275.585,41.800 275.758 C 40.700 275.930,39.419 276.129,38.953 276.199 C 38.487 276.270,32.367 276.457,25.353 276.615 C 10.034 276.961,8.517 277.380,10.970 280.596 C 13.253 283.589,18.755 284.199,27.600 282.438 C 35.968 280.773,39.905 281.845,45.759 287.382 C 47.327 288.866,49.580 289.459,49.909 288.474 C 50.438 286.886,57.254 283.934,60.344 283.956 C 65.957 283.995,66.856 285.476,66.776 294.558 C 66.742 298.321,66.841 301.760,66.994 302.200 C 67.147 302.640,67.421 303.360,67.603 303.800 C 67.785 304.240,68.145 305.763,68.403 307.184 C 69.408 312.705,73.106 320.582,75.344 321.965 C 78.359 323.829,81.110 322.958,84.538 319.053 C 88.810 314.187,90.245 313.907,96.016 316.808 C 102.437 320.036,101.047 325.950,93.344 328.175 C 87.305 329.919,87.176 332.101,92.974 334.442 C 95.813 335.588,98.002 337.509,97.994 338.847 C 97.988 339.836,97.907 340.005,95.612 343.866 C 94.351 345.986,94.202 346.566,93.986 350.200 C 93.813 353.103,93.505 354.721,92.864 356.099 C 90.519 361.141,90.743 361.705,96.364 364.941 C 100.713 367.444,101.705 367.617,104.651 366.385 C 107.360 365.252,109.786 367.800,107.453 369.329 C 106.798 369.758,105.592 369.940,103.553 369.918 C 100.632 369.887,100.523 369.924,93.400 373.385 L 86.200 376.883 82.655 376.624 L 79.110 376.364 77.555 377.999 C 75.705 379.944,75.390 382.395,76.797 383.905 C 79.476 386.781,96.673 387.851,103.400 385.561 C 105.825 384.735,106.954 384.607,111.838 384.604 C 115.936 384.601,117.651 384.455,118.117 384.068 C 120.019 382.492,120.312 376.644,118.662 373.200 C 117.234 370.220,117.321 369.059,119.273 364.991 C 120.930 361.537,120.948 361.453,121.229 355.653 C 121.698 345.997,124.969 340.000,129.767 340.000 C 133.375 340.000,134.800 341.843,134.800 346.507 C 134.800 352.917,139.096 358.174,146.287 360.562 C 151.719 362.367,154.315 361.297,156.419 356.387 C 157.218 354.524,158.800 351.437,159.936 349.526 C 161.071 347.616,162.006 345.906,162.014 345.726 C 162.074 344.371,164.918 342.400,166.813 342.400 C 170.840 342.400,172.103 344.276,172.158 350.339 L 172.200 355.042 174.500 359.752 C 177.335 365.557,177.361 366.065,174.942 368.178 C 168.907 373.448,168.800 373.760,170.997 379.730 C 172.945 385.022,173.777 385.927,177.278 386.561 C 180.488 387.141,189.891 385.375,192.121 383.773 C 196.425 380.680,199.200 380.066,199.200 382.207 C 199.200 385.385,210.540 388.499,219.308 387.729 C 223.906 387.325,238.246 387.600,243.336 388.189 C 246.103 388.510,251.206 387.786,256.247 386.358 C 262.353 384.629,264.449 384.493,268.058 385.593 C 269.936 386.165,272.808 386.608,276.000 386.817 C 278.750 386.997,282.800 387.263,285.000 387.407 C 289.605 387.709,300.839 386.748,302.447 385.913 C 304.268 384.968,305.882 383.371,306.632 381.769 C 307.036 380.906,307.623 380.005,307.936 379.767 C 308.248 379.529,308.591 378.430,308.698 377.325 L 308.891 375.316 306.345 373.358 L 303.800 371.400 300.800 371.490 C 299.150 371.539,296.077 372.002,293.970 372.517 C 287.868 374.011,282.364 373.818,278.771 371.985 C 275.246 370.187,277.428 368.081,283.697 367.229 C 285.401 366.998,288.437 366.167,290.444 365.383 C 294.842 363.664,297.528 364.259,300.400 367.587 C 301.417 368.765,303.203 369.314,306.366 369.422 C 310.962 369.579,313.156 370.580,314.929 373.329 C 315.329 373.950,316.810 375.715,318.219 377.250 C 319.953 379.140,320.926 380.584,321.232 381.721 C 322.586 386.754,326.681 388.364,336.109 387.568 C 343.788 386.920,343.645 385.905,335.075 380.211 C 328.929 376.128,325.245 370.921,324.370 365.084 C 324.133 363.498,323.484 360.504,322.928 358.432 C 319.446 345.445,327.181 338.929,336.205 347.247 C 338.724 349.569,338.916 350.446,337.688 354.027 C 333.553 366.085,343.433 376.800,358.685 376.800 C 374.280 376.800,385.010 365.527,380.497 353.885 C 378.784 349.466,379.554 348.023,385.879 343.796 C 396.347 336.801,398.274 327.840,392.802 311.605 C 391.701 308.339,390.800 305.307,390.800 304.867 C 390.800 304.427,390.665 304.007,390.500 303.933 C 390.335 303.860,389.591 302.270,388.846 300.400 C 386.253 293.889,386.085 293.908,378.399 301.614 C 375.099 304.922,372.102 308.083,371.739 308.637 C 368.939 312.910,360.403 311.851,360.398 307.230 C 360.392 302.776,359.093 301.102,354.475 299.600 C 350.524 298.315,350.344 297.672,353.104 294.705 C 354.181 293.547,356.443 290.848,358.132 288.708 C 362.110 283.665,365.678 280.701,368.937 279.731 C 371.046 279.104,371.791 278.596,374.197 276.144 C 376.204 274.099,377.738 272.950,379.600 272.096 C 383.845 270.149,384.908 268.708,385.616 263.940 C 385.856 262.323,386.326 259.391,386.660 257.424 C 387.342 253.416,387.151 251.136,385.905 248.400 C 385.021 246.457,385.157 244.958,386.542 241.400 C 387.545 238.824,387.368 236.624,385.935 233.849 C 383.129 228.415,383.060 228.225,383.100 226.065 C 383.123 224.826,383.383 223.650,383.720 223.265 C 385.496 221.226,385.596 214.701,383.970 206.914 C 382.626 200.474,383.337 198.623,387.000 199.026 C 389.213 199.270,391.200 198.019,391.200 196.384 C 391.200 195.953,391.380 195.600,391.600 195.600 C 391.820 195.600,392.000 195.216,392.000 194.746 C 392.000 193.785,392.841 190.706,393.187 190.400 C 394.573 189.174,394.695 178.586,393.334 177.659 C 393.126 177.517,392.718 176.770,392.430 176.000 C 392.141 175.230,391.537 173.790,391.086 172.800 C 389.958 170.320,389.971 167.465,391.122 165.129 C 392.357 162.620,392.382 158.536,391.200 152.200 C 390.912 150.660,390.702 148.680,390.732 147.800 C 390.771 146.636,390.680 146.364,390.399 146.800 C 390.070 147.310,390.011 147.292,390.006 146.684 C 389.996 145.466,388.477 142.909,387.241 142.029 L 386.065 141.192 385.232 142.250 C 384.775 142.832,384.400 143.533,384.400 143.807 C 384.400 145.782,380.037 147.906,377.363 147.233 C 370.961 145.620,370.239 142.828,374.955 137.922 L 377.471 135.305 377.748 126.979 L 378.025 118.652 376.274 116.826 C 373.236 113.657,372.244 111.665,371.019 106.275 C 369.408 99.186,370.850 96.805,376.805 96.721 C 379.661 96.680,380.471 97.219,381.830 100.064 C 384.833 106.346,387.680 105.793,392.154 98.057 C 395.768 91.810,395.791 88.681,392.257 84.283 C 388.948 80.164,384.051 80.059,370.311 83.815 C 364.416 85.426,363.376 85.595,359.317 85.597 L 354.834 85.600 351.364 87.430 C 346.349 90.075,345.416 89.563,344.145 83.464 C 343.170 78.784,339.056 71.751,333.579 65.400 C 329.802 61.020,328.134 53.924,329.167 46.631 C 330.262 38.899,335.641 37.806,342.021 44.020 C 344.345 46.284,344.419 46.814,342.945 50.652 C 338.341 62.638,348.573 72.982,365.000 72.949 C 379.218 72.921,389.408 61.295,385.256 49.837 C 383.956 46.249,384.053 45.877,387.137 42.657 C 394.600 34.867,395.414 28.881,390.409 18.600 C 388.420 14.516,388.363 13.716,390.041 13.462 C 390.348 13.416,390.780 13.272,391.000 13.144 C 391.220 13.016,391.887 12.794,392.483 12.652 C 395.704 11.883,398.295 8.797,397.865 6.243 C 397.082 1.597,396.271 -0.042,394.818 0.082 C 393.602 0.185,393.395 0.365,393.161 1.516 C 392.426 5.140,390.142 5.925,382.932 5.032 C 377.161 4.318,367.699 4.760,362.841 5.971 C 356.593 7.529,354.279 7.727,348.752 7.180 C 341.179 6.430,331.527 7.154,319.224 9.394 C 317.368 9.732,313.575 10.152,310.797 10.327 C 303.009 10.818,300.357 12.394,301.824 15.661 C 302.430 17.011,302.562 18.006,302.426 20.195 C 301.912 28.466,302.448 30.336,306.156 33.200 C 308.742 35.198,309.319 36.570,308.836 39.571 C 308.592 41.083,308.588 42.461,308.824 43.285 C 309.323 45.025,309.302 48.261,308.786 49.226 C 307.679 51.295,305.485 48.656,304.981 44.650 C 304.724 42.609,303.417 40.800,302.198 40.800 C 301.374 40.800,299.200 41.922,299.200 42.348 C 299.200 42.528,298.323 43.678,297.251 44.903 C 294.437 48.118,294.016 53.746,296.226 58.606 C 296.727 59.710,297.261 61.105,297.413 61.707 C 297.682 62.781,299.672 64.800,300.461 64.800 C 303.254 64.800,309.914 71.925,313.542 78.792 L 315.684 82.847 315.966 88.124 C 316.286 94.121,316.590 94.965,319.642 98.316 C 321.965 100.865,322.189 101.825,321.674 107.037 C 321.078 113.067,321.810 124.177,323.044 127.830 C 324.574 132.360,323.464 138.624,321.092 138.846 C 320.150 138.934,318.997 138.720,318.580 138.379 C 314.656 135.169,308.043 143.243,311.645 146.845 C 312.532 147.732,315.231 147.707,315.530 146.809 C 315.605 146.584,315.922 146.400,316.233 146.400 C 316.545 146.400,316.800 146.265,316.801 146.100 C 316.802 145.665,320.175 143.600,320.884 143.600 C 321.916 143.600,323.489 145.946,325.240 150.095 C 327.039 154.357,328.962 156.722,331.353 157.610 C 337.156 159.765,339.600 161.184,339.600 162.400 C 339.600 162.947,337.998 164.110,337.109 164.210 C 334.221 164.533,330.697 166.041,327.839 168.179 C 323.059 171.754,320.854 171.219,317.912 165.772 C 314.946 160.283,312.386 158.994,309.526 161.550 C 307.709 163.173,307.844 164.706,310.184 169.033 C 312.341 173.024,312.626 174.646,312.087 179.866 C 311.603 184.556,311.998 186.958,313.879 190.752 C 317.003 197.055,315.429 202.502,308.894 208.003 C 304.382 211.801,304.188 213.561,307.714 218.710 C 310.937 223.415,310.953 225.700,307.806 231.400 C 307.077 232.720,305.648 235.755,304.629 238.144 C 302.305 243.598,301.375 244.928,296.740 249.441 C 292.093 253.966,291.943 254.042,287.027 254.398 C 283.384 254.662,282.679 254.851,279.634 256.382 C 276.504 257.957,276.109 258.058,273.978 257.831 C 268.586 257.256,266.613 260.083,261.998 275.000 C 259.982 281.518,257.462 283.133,252.638 281.000 C 246.740 278.392,241.268 281.437,240.680 287.655 C 240.016 294.687,236.380 295.012,235.848 288.087 C 235.614 285.045,235.410 284.344,234.251 282.598 C 231.478 278.422,231.452 278.321,231.534 272.169 L 231.609 266.538 230.135 263.769 C 229.324 262.246,228.246 259.665,227.740 258.033 C 225.593 251.105,220.341 249.614,215.554 254.573 C 211.897 258.362,211.821 258.822,214.246 262.469 C 218.395 268.709,218.225 273.846,213.642 280.734 C 212.849 281.926,212.000 283.245,211.756 283.665 C 211.511 284.086,210.926 284.840,210.456 285.341 C 209.985 285.842,209.600 286.558,209.600 286.933 C 209.600 287.468,207.926 291.189,207.339 291.957 C 207.273 292.043,206.961 291.900,206.645 291.638 C 206.254 291.313,205.989 291.295,205.812 291.581 C 204.729 293.334,198.587 289.707,196.701 286.200 C 193.140 279.579,189.905 280.993,188.802 289.654 C 188.240 294.062,188.087 294.438,186.658 294.914 C 183.876 295.841,183.266 293.762,181.706 278.054 C 181.030 271.239,184.495 267.349,189.765 269.007 C 192.709 269.932,193.731 269.628,194.390 267.630 C 195.440 264.449,192.967 261.336,189.731 261.765 C 188.669 261.906,186.969 262.129,185.952 262.260 C 178.439 263.231,176.562 257.451,183.000 253.172 C 186.375 250.929,186.626 249.989,185.163 245.075 C 183.899 240.831,182.689 239.796,179.476 240.209 C 170.926 241.309,171.192 240.545,182.600 231.225 C 185.680 228.709,190.630 224.285,193.600 221.394 C 196.570 218.503,200.440 214.915,202.200 213.421 C 207.310 209.081,219.337 196.115,226.523 187.200 C 233.546 178.486,244.814 160.503,251.212 147.800 C 253.760 142.740,257.313 135.808,259.108 132.395 C 260.902 128.981,263.102 124.240,263.997 121.857 C 264.892 119.475,266.493 115.607,267.555 113.263 C 268.617 110.918,269.971 107.650,270.564 106.000 C 271.157 104.350,271.989 102.100,272.413 101.000 C 274.099 96.626,274.788 94.217,275.815 89.119 C 276.404 86.194,277.940 80.400,279.229 76.245 L 281.572 68.691 281.767 61.015 C 281.875 56.793,282.167 52.093,282.417 50.570 C 282.666 49.046,282.926 43.480,282.994 38.200 C 283.181 23.634,283.719 20.771,287.061 16.578 C 289.604 13.386,289.615 13.505,286.556 11.200 C 282.943 8.477,278.858 3.480,278.243 1.029 C 277.900 -0.339,276.400 -0.418,276.400 0.931 M369.699 12.770 C 376.375 14.580,382.445 17.913,385.740 21.578 C 392.562 29.166,387.155 39.599,380.215 32.239 C 376.214 27.997,373.648 27.443,368.659 29.746 C 364.878 31.492,363.563 31.505,359.305 29.841 C 353.442 27.550,351.000 28.043,347.600 32.206 C 345.440 34.850,343.568 35.424,341.162 34.181 C 333.754 30.350,341.896 17.617,354.994 12.552 C 358.096 11.352,364.837 11.453,369.699 12.770 M374.654 32.945 C 375.677 33.825,375.769 34.165,375.994 37.899 C 376.215 41.563,376.338 42.036,377.418 43.376 C 380.860 47.648,381.078 48.886,379.074 52.800 C 377.011 56.830,374.297 57.314,368.978 54.600 C 366.656 53.415,364.939 52.800,363.953 52.800 C 362.992 52.800,361.128 53.446,358.756 54.600 C 353.241 57.285,350.649 56.832,348.419 52.793 C 346.719 49.713,346.978 47.268,349.254 44.916 C 351.746 42.340,352.000 41.731,352.001 38.326 C 352.002 32.542,353.858 31.299,359.385 33.380 C 362.860 34.688,365.038 34.646,368.800 33.200 C 372.493 31.780,373.261 31.747,374.654 32.945 M116.755 36.844 C 119.363 39.644,117.984 49.732,114.053 56.600 C 109.457 64.631,105.487 70.831,102.001 75.417 C 100.990 76.746,98.822 80.049,97.182 82.757 C 92.232 90.929,84.261 97.036,72.334 101.794 C 69.768 102.818,66.823 104.228,65.789 104.928 C 59.337 109.296,58.027 109.802,54.000 109.484 C 51.630 109.296,47.491 108.192,45.712 107.273 C 43.193 105.972,39.688 107.164,39.578 109.359 C 39.543 110.054,37.292 111.662,35.479 112.287 C 32.284 113.387,29.154 111.977,28.360 109.080 C 28.107 108.156,27.652 106.833,27.350 106.140 C 27.047 105.446,26.800 104.512,26.800 104.063 C 26.800 103.614,26.642 103.150,26.449 103.030 C 26.256 102.911,25.888 101.978,25.631 100.958 C 25.093 98.819,23.532 95.589,22.575 94.632 C 21.888 93.945,21.850 93.482,21.959 87.110 C 22.010 84.141,21.819 82.507,21.150 80.206 L 20.274 77.192 21.330 75.037 C 23.588 70.424,27.607 68.188,30.691 69.828 C 35.955 72.627,38.800 70.095,38.800 62.610 C 38.800 57.637,39.661 56.432,45.400 53.369 C 49.231 51.325,50.078 50.700,54.083 46.960 C 59.101 42.273,60.407 41.809,65.282 42.974 C 69.835 44.062,70.606 45.191,70.192 50.161 C 69.972 52.801,70.044 53.725,70.546 54.696 C 71.992 57.491,71.843 58.807,69.833 60.991 C 68.825 62.086,68.000 63.106,68.000 63.257 C 68.000 64.319,64.513 66.000,62.308 66.000 C 56.780 66.000,53.897 70.095,55.989 74.975 C 56.424 75.988,57.009 76.882,57.289 76.961 C 60.678 77.919,61.154 78.163,61.378 79.054 C 61.508 79.574,61.807 80.000,62.042 80.000 C 62.276 80.000,63.861 81.424,65.564 83.163 C 73.063 90.825,77.472 89.651,80.613 79.156 C 81.131 77.427,82.195 74.867,82.977 73.467 C 85.423 69.094,85.457 69.178,77.658 60.597 C 75.750 58.498,75.558 56.394,77.117 54.670 C 77.659 54.072,77.810 53.029,77.865 49.506 L 77.935 45.091 80.067 42.900 C 83.568 39.303,87.720 38.121,90.146 40.029 C 91.372 40.994,91.417 41.488,90.576 44.771 C 88.980 51.001,90.632 52.492,99.111 52.473 C 106.701 52.455,107.123 52.114,109.075 44.422 C 110.781 37.699,114.309 34.218,116.755 36.844 M368.800 58.712 C 370.230 59.352,372.570 60.193,374.000 60.581 C 383.246 63.088,372.627 70.926,361.800 69.586 C 352.525 68.438,347.407 62.842,353.764 60.798 C 354.625 60.522,356.965 59.594,358.964 58.736 C 363.252 56.897,364.737 56.893,368.800 58.712 M39.882 95.514 C 37.890 97.594,37.949 100.739,40.000 101.800 C 41.622 102.639,42.380 102.099,44.058 98.910 L 45.400 96.360 44.278 95.380 C 42.778 94.071,41.220 94.118,39.882 95.514 M308.719 99.472 C 307.456 99.805,307.554 101.132,309.239 106.476 C 311.183 112.643,311.471 113.200,312.714 113.200 C 317.123 113.200,316.289 101.702,311.743 99.802 C 310.280 99.191,309.932 99.153,308.719 99.472 M270.737 237.390 C 266.646 239.686,265.799 249.496,269.444 252.363 C 273.484 255.541,280.508 245.595,277.836 240.480 C 276.315 237.570,272.993 236.124,270.737 237.390 M156.400 250.525 C 156.400 251.975,153.306 256.103,151.520 257.036 C 148.136 258.803,144.069 256.348,146.567 254.045 C 148.926 251.871,156.400 249.195,156.400 250.525 M296.157 283.772 C 296.641 285.699,295.528 287.163,293.400 287.400 C 291.144 287.651,290.987 286.069,293.078 284.154 C 294.829 282.551,295.820 282.428,296.157 283.772 M321.291 311.895 C 324.109 314.575,323.711 317.094,319.825 321.176 C 318.242 322.839,316.606 324.740,316.189 325.400 C 312.623 331.053,299.753 331.723,297.000 326.399 C 295.508 323.515,298.076 321.481,305.800 319.431 C 310.738 318.120,312.248 317.147,314.812 313.622 C 317.405 310.056,318.930 309.649,321.291 311.895 M42.200 311.563 C 28.686 316.520,20.330 321.716,18.016 326.600 C 14.618 333.769,15.522 338.198,21.707 344.691 C 26.443 349.662,26.604 350.093,25.338 354.408 C 22.912 362.678,26.465 369.974,34.885 374.012 C 52.545 382.481,72.817 370.464,68.245 354.238 C 66.975 349.732,67.153 349.232,71.719 344.479 C 77.043 338.939,77.871 334.291,74.727 327.600 C 70.356 318.296,50.513 308.513,42.200 311.563 M361.098 316.234 C 377.365 317.983,388.682 326.981,384.772 335.059 C 382.659 339.422,378.686 339.660,374.838 335.655 C 370.856 331.512,369.060 331.199,363.064 333.600 C 359.323 335.098,357.733 335.093,354.200 333.575 C 348.796 331.254,346.496 331.552,343.238 334.997 C 339.761 338.674,337.714 339.348,335.446 337.565 C 329.903 333.204,334.501 322.949,344.135 318.189 C 349.700 315.440,351.633 315.217,361.098 316.234 M51.517 316.626 C 63.432 319.047,75.158 332.166,69.858 337.146 C 67.592 339.274,65.237 338.888,62.634 335.961 C 59.155 332.048,56.343 331.478,51.000 333.600 C 47.198 335.110,45.500 335.107,41.692 333.582 C 35.774 331.212,33.159 331.706,30.012 335.785 C 25.740 341.322,20.121 337.526,22.204 330.511 C 24.728 322.012,40.727 314.434,51.517 316.626 M282.135 326.974 C 282.545 328.042,280.847 329.657,279.457 329.522 C 277.921 329.372,277.625 328.375,278.775 327.225 C 279.722 326.278,281.808 326.123,282.135 326.974 M257.319 336.199 C 257.221 337.514,252.934 342.079,250.716 343.230 C 247.868 344.708,246.126 343.869,246.646 341.270 C 247.393 337.535,257.581 332.695,257.319 336.199 M41.400 336.993 C 44.956 338.250,47.203 338.252,51.039 337.000 C 56.655 335.167,58.000 335.970,58.000 341.156 C 58.000 344.943,58.318 345.901,60.528 348.767 C 62.539 351.375,62.762 353.803,61.255 356.716 C 59.307 360.482,56.395 360.905,51.055 358.197 C 46.611 355.944,45.799 355.944,41.378 358.200 C 35.750 361.072,32.699 360.502,30.752 356.217 C 29.426 353.297,29.722 351.278,31.840 348.796 C 34.164 346.074,34.400 345.424,34.400 341.754 C 34.400 336.036,35.868 335.038,41.400 336.993 M353.838 337.000 C 355.464 337.612,357.327 338.000,358.638 338.000 C 359.949 338.000,361.813 337.612,363.438 337.000 C 369.006 334.904,371.351 336.540,370.600 341.996 C 370.285 344.291,370.954 346.089,373.213 349.017 C 375.054 351.403,375.294 353.473,374.048 356.217 C 372.149 360.398,369.155 361.030,363.944 358.347 C 359.286 355.949,358.188 355.929,353.825 358.167 C 349.032 360.625,347.003 360.698,344.797 358.491 C 341.758 355.453,341.621 352.137,344.402 348.959 C 346.685 346.350,347.380 344.365,346.994 341.560 C 346.295 336.475,348.514 334.996,353.838 337.000 M315.084 350.320 C 317.317 351.739,316.801 356.463,314.160 358.781 C 309.878 362.541,305.062 356.938,309.103 352.897 C 311.377 350.623,313.871 349.549,315.084 350.320 M51.353 362.440 C 52.919 363.108,55.368 363.926,56.797 364.258 C 61.192 365.281,61.597 366.593,58.454 369.623 C 52.446 375.414,37.150 374.473,33.718 368.100 C 32.541 365.914,32.525 365.925,43.000 361.760 C 45.892 360.610,47.335 360.727,51.353 362.440 M362.800 362.052 C 364.450 362.726,367.134 363.755,368.765 364.339 C 373.168 365.915,373.556 367.620,370.110 370.249 C 363.282 375.456,348.511 374.062,345.989 367.973 C 345.303 366.317,346.017 365.635,350.408 363.751 C 358.330 360.353,358.561 360.322,362.800 362.052 M152.657 369.033 C 151.066 369.854,148.378 370.776,146.257 371.228 C 136.980 373.205,134.000 375.240,134.000 379.600 C 134.000 385.213,139.119 387.173,151.901 386.456 C 160.921 385.949,161.110 385.770,161.279 377.570 C 161.454 369.024,158.445 366.044,152.657 369.033 M234.800 373.320 C 234.800 374.771,233.845 375.570,232.091 375.587 C 230.337 375.604,229.558 374.134,230.533 372.645 C 231.785 370.736,234.800 371.212,234.800 373.320 " stroke="none" fill="#8e918a" fill-rule="evenodd"></path><path id="path2" d="M11.622 0.626 C 12.779 2.021,14.296 2.400,18.713 2.400 C 21.108 2.400,24.062 2.600,25.278 2.844 C 27.016 3.193,28.771 3.149,33.473 2.640 C 36.764 2.283,39.984 2.077,40.628 2.183 C 42.827 2.541,52.597 3.587,53.600 3.570 C 54.150 3.561,67.560 3.683,83.400 3.840 C 99.240 3.997,113.460 4.127,115.000 4.128 C 118.281 4.132,121.794 2.942,123.744 1.166 L 125.000 0.023 68.051 0.012 C 16.408 0.001,11.150 0.058,11.622 0.626 M280.830 1.039 C 283.775 4.194,295.157 5.728,301.400 3.812 C 302.988 3.325,306.488 3.157,318.400 2.999 C 326.650 2.889,335.110 2.640,337.200 2.445 C 339.456 2.234,343.276 2.241,346.600 2.461 C 354.002 2.950,359.684 2.281,360.800 0.788 C 360.910 0.640,361.270 0.417,361.600 0.292 C 361.930 0.166,343.674 0.049,321.030 0.032 L 279.861 0.000 280.830 1.039 M368.705 0.283 C 369.202 0.379,369.922 0.375,370.305 0.275 C 370.687 0.175,370.280 0.096,369.400 0.101 C 368.520 0.105,368.207 0.187,368.705 0.283 M384.400 0.153 C 384.400 0.510,385.875 0.652,386.606 0.366 C 387.211 0.130,387.043 0.050,385.900 0.028 C 385.075 0.013,384.400 0.069,384.400 0.153 M355.987 16.512 C 346.989 19.246,343.123 25.523,350.600 25.258 C 354.326 25.126,354.895 25.215,358.906 26.558 C 364.074 28.288,363.762 28.281,368.000 26.780 C 372.471 25.197,375.122 24.939,378.328 25.776 C 382.131 26.769,383.123 26.158,381.813 23.626 C 378.662 17.532,365.007 13.771,355.987 16.512 M260.500 141.865 C 260.225 141.976,260.000 142.282,260.000 142.545 C 260.000 142.808,259.369 143.673,258.598 144.467 C 257.134 145.974,255.507 149.234,255.059 151.557 C 254.915 152.303,254.525 153.113,254.192 153.357 C 253.624 153.773,251.600 159.094,251.600 160.172 C 251.600 161.280,253.019 160.532,255.280 158.233 C 260.833 152.585,264.806 140.127,260.500 141.865 M40.938 319.962 C 36.933 320.947,33.824 322.633,31.741 324.950 C 28.989 328.011,29.298 328.542,34.000 328.843 C 36.769 329.020,38.767 329.427,41.364 330.343 C 45.772 331.898,46.771 331.903,51.463 330.400 C 54.544 329.413,55.886 329.200,59.017 329.200 C 64.136 329.200,64.442 327.953,60.267 324.104 C 55.511 319.720,48.251 318.165,40.938 319.962 M349.843 320.037 C 342.046 322.719,336.476 330.261,342.955 329.364 C 347.339 328.757,350.321 329.024,354.099 330.361 C 358.422 331.892,359.149 331.895,363.440 330.409 C 368.234 328.747,370.071 328.575,373.984 329.421 C 378.829 330.468,379.268 328.831,375.162 325.029 C 369.569 319.851,357.376 317.447,349.843 320.037 M45.698 367.499 C 45.421 367.592,45.297 367.833,45.421 368.034 C 45.710 368.502,47.085 368.510,47.372 368.045 C 47.625 367.636,46.440 367.249,45.698 367.499 M357.885 367.448 C 357.265 368.068,357.666 368.400,359.033 368.400 C 360.001 368.400,360.413 368.238,360.302 367.900 C 360.119 367.341,358.327 367.006,357.885 367.448 " stroke="none" fill="#d4d7d2" fill-rule="evenodd"></path><path id="path3" d="M8.865 1.214 C 9.965 4.369,19.912 5.571,37.000 4.615 C 41.507 4.363,43.273 4.429,46.051 4.954 C 51.254 5.939,63.781 6.394,84.000 6.332 C 94.010 6.302,104.630 6.417,107.600 6.587 C 116.349 7.089,122.064 5.499,124.619 1.852 C 125.708 0.296,125.253 -0.129,123.833 1.118 C 121.734 2.960,118.298 4.132,115.000 4.128 C 113.460 4.127,99.240 3.997,83.400 3.840 C 67.560 3.683,54.150 3.561,53.600 3.570 C 52.597 3.587,42.827 2.541,40.628 2.183 C 39.984 2.077,36.764 2.283,33.473 2.640 C 28.771 3.149,27.016 3.193,25.278 2.844 C 24.062 2.600,21.108 2.400,18.713 2.400 C 14.296 2.400,12.779 2.021,11.622 0.626 C 10.559 -0.654,8.376 -0.188,8.865 1.214 M279.200 0.760 C 279.200 1.593,283.017 5.088,285.083 6.146 C 288.355 7.822,297.198 7.948,303.525 6.409 C 306.156 5.769,308.190 5.600,313.262 5.600 C 316.789 5.600,321.772 5.428,324.337 5.217 C 336.841 4.189,342.761 3.962,347.600 4.324 C 352.655 4.703,354.251 4.597,360.400 3.477 C 365.716 2.509,378.897 1.884,382.429 2.432 C 386.415 3.050,389.144 2.756,390.075 1.607 C 391.270 0.130,390.997 -0.121,388.500 0.160 C 387.235 0.302,385.840 0.376,385.400 0.323 C 382.612 -0.010,361.133 0.257,360.885 0.628 C 359.790 2.268,354.316 2.971,346.600 2.461 C 343.276 2.241,339.456 2.234,337.200 2.445 C 335.110 2.640,326.650 2.889,318.400 2.999 C 306.488 3.157,302.988 3.325,301.400 3.812 C 295.157 5.728,283.775 4.194,280.830 1.039 C 279.679 -0.194,279.200 -0.276,279.200 0.760 M356.076 14.782 C 348.887 16.734,342.000 23.127,342.000 27.850 C 342.000 30.793,343.894 31.084,347.547 28.704 C 351.168 26.345,354.326 26.139,358.910 27.963 C 362.874 29.539,364.801 29.547,368.664 28.000 C 373.569 26.036,376.382 26.350,380.856 29.364 C 387.428 33.789,388.270 25.922,381.790 20.644 C 374.932 15.057,364.131 12.595,356.076 14.782 M371.000 16.566 C 375.766 17.873,380.405 20.902,381.813 23.626 C 383.123 26.158,382.131 26.769,378.328 25.776 C 375.122 24.939,372.471 25.197,368.000 26.780 C 363.762 28.281,364.074 28.288,358.906 26.558 C 354.895 25.215,354.326 25.126,350.600 25.258 C 345.907 25.425,345.350 24.860,347.459 22.078 C 351.784 16.374,361.771 14.035,371.000 16.566 M361.800 60.366 C 357.939 61.377,355.262 63.421,355.998 64.796 C 358.214 68.936,373.323 68.133,372.269 63.932 C 371.770 61.945,364.816 59.577,361.800 60.366 M277.915 99.718 C 276.144 100.769,274.643 103.787,273.006 109.583 C 272.419 111.663,271.242 114.723,270.392 116.383 C 269.541 118.042,268.240 120.841,267.501 122.602 C 266.762 124.363,265.248 127.153,264.138 128.802 C 260.898 133.613,256.064 142.171,253.295 148.000 C 250.563 153.748,249.367 155.924,241.888 168.745 C 234.590 181.255,229.924 188.046,223.939 194.866 C 222.653 196.332,221.600 197.662,221.600 197.821 C 221.600 198.312,218.470 201.536,218.228 201.294 C 218.102 201.169,218.000 201.253,218.000 201.480 C 218.000 201.708,217.190 203.102,216.200 204.578 C 213.736 208.253,213.790 208.498,216.956 208.011 C 220.224 207.508,224.400 209.499,224.400 211.559 C 224.400 213.448,231.094 212.184,231.875 210.149 C 231.991 209.847,232.516 209.600,233.043 209.600 C 233.569 209.600,234.000 209.420,234.000 209.200 C 234.000 208.121,236.835 209.070,238.058 210.559 C 239.588 212.420,239.379 213.982,237.118 217.578 C 233.842 222.788,238.346 225.913,245.200 223.185 C 247.544 222.252,249.999 222.089,252.600 222.693 C 254.775 223.198,257.312 221.936,261.484 218.272 C 263.629 216.390,266.205 211.534,266.974 207.925 C 267.777 204.154,270.462 200.400,272.355 200.400 C 273.551 200.400,275.600 202.319,275.600 203.438 C 275.600 203.971,276.033 205.260,276.563 206.303 C 277.092 207.346,277.828 209.058,278.198 210.107 C 278.569 211.156,279.126 212.268,279.436 212.579 C 279.746 212.889,280.000 213.316,280.000 213.529 C 280.000 214.042,280.999 214.400,282.433 214.400 C 283.544 214.400,283.600 214.316,283.600 212.660 C 283.600 210.922,283.603 210.918,286.978 208.672 C 291.123 205.914,291.224 205.647,290.808 198.548 C 290.532 193.852,290.359 193.014,288.830 189.000 C 287.078 184.399,286.850 180.687,288.071 176.605 C 288.269 175.942,288.604 173.345,288.817 170.833 C 289.185 166.478,289.674 164.811,291.526 161.600 C 294.276 156.832,294.542 155.139,293.000 152.238 C 292.450 151.204,292.000 150.137,292.000 149.866 C 292.000 149.596,290.933 148.319,289.628 147.028 C 286.007 143.444,286.083 141.785,289.957 139.822 C 291.026 139.280,292.000 138.576,292.123 138.257 C 292.438 137.436,295.710 136.817,297.515 137.236 C 302.403 138.371,305.600 136.750,305.600 133.134 C 305.600 131.681,302.991 128.800,301.676 128.800 C 299.351 128.800,298.524 125.633,299.188 119.272 C 300.155 110.022,300.152 110.276,299.298 109.222 C 298.612 108.375,298.166 108.248,295.757 108.214 C 293.145 108.177,292.873 108.082,290.589 106.388 C 289.262 105.404,287.147 103.977,285.889 103.215 C 284.630 102.454,283.600 101.625,283.600 101.372 C 283.600 101.031,279.843 98.711,279.463 98.818 C 279.428 98.827,278.732 99.232,277.915 99.718 M262.006 142.207 C 264.158 144.800,255.767 160.667,252.244 160.667 C 251.180 160.667,252.871 154.325,254.192 153.357 C 254.525 153.113,254.915 152.303,255.059 151.557 C 255.507 149.234,257.134 145.974,258.598 144.467 C 259.369 143.673,260.000 142.808,260.000 142.545 C 260.000 142.118,260.545 141.720,261.251 141.632 C 261.389 141.614,261.729 141.873,262.006 142.207 M266.871 165.864 C 267.300 166.252,267.600 167.075,267.600 167.862 C 267.600 168.598,267.780 169.200,268.000 169.200 C 268.242 169.200,268.419 171.132,268.447 174.100 C 268.477 177.223,268.605 178.565,268.800 177.800 C 268.968 177.140,269.127 176.803,269.153 177.050 C 269.179 177.298,269.778 177.616,270.486 177.757 C 274.025 178.465,275.489 183.548,272.740 185.581 C 270.430 187.289,268.098 184.232,268.024 179.400 L 268.000 177.800 265.300 177.800 C 260.904 177.800,259.550 176.351,259.281 171.360 C 259.069 167.440,259.814 165.359,261.535 165.063 C 263.336 164.754,266.103 165.169,266.871 165.864 M250.914 210.919 C 251.236 211.760,250.170 214.339,249.026 215.483 L 247.966 216.543 246.183 215.677 C 244.189 214.708,243.683 212.656,245.062 211.131 C 245.879 210.228,250.583 210.057,250.914 210.919 M350.258 318.234 C 346.915 319.043,342.604 321.435,340.122 323.859 C 334.230 329.611,335.653 337.029,341.832 332.778 C 345.996 329.913,348.271 329.744,354.359 331.846 C 359.026 333.457,358.852 333.467,365.000 331.204 C 368.849 329.788,371.633 330.145,375.075 332.497 C 378.677 334.958,379.533 335.141,381.137 333.792 C 384.536 330.931,380.423 324.995,372.199 320.894 C 366.359 317.981,356.326 316.765,350.258 318.234 M40.005 318.852 C 31.781 321.060,23.872 328.248,24.948 332.537 C 25.387 334.283,26.563 334.235,29.695 332.342 C 33.639 329.959,36.396 329.772,41.056 331.568 C 45.610 333.325,46.699 333.346,51.400 331.766 C 57.046 329.870,58.613 329.983,62.848 332.597 C 69.596 336.762,69.533 330.517,62.765 324.250 C 56.594 318.537,48.412 316.596,40.005 318.852 M52.123 319.797 C 56.576 320.957,61.190 324.074,62.660 326.915 C 63.698 328.922,63.255 329.200,59.017 329.200 C 55.886 329.200,54.544 329.413,51.463 330.400 C 46.771 331.903,45.772 331.898,41.364 330.343 C 38.767 329.427,36.769 329.020,34.000 328.843 C 29.298 328.542,28.989 328.011,31.741 324.950 C 35.845 320.386,45.252 318.007,52.123 319.797 M364.568 319.792 C 371.338 320.999,379.225 326.970,377.575 329.640 C 377.339 330.022,376.544 329.974,373.984 329.421 C 370.071 328.575,368.234 328.747,363.440 330.409 C 359.149 331.895,358.422 331.892,354.099 330.361 C 350.321 329.024,347.339 328.757,342.955 329.364 C 339.360 329.862,338.991 328.367,341.910 325.125 C 346.663 319.844,354.504 317.999,364.568 319.792 M42.200 364.599 C 37.474 366.528,37.093 368.412,41.027 370.394 C 46.807 373.307,58.263 370.096,54.439 366.635 C 51.593 364.060,45.857 363.106,42.200 364.599 M355.077 364.389 C 350.568 366.150,349.605 367.686,351.848 369.536 C 355.141 372.250,362.434 372.356,365.900 369.740 C 370.072 366.592,360.965 362.088,355.077 364.389 M47.372 368.045 C 47.085 368.510,45.710 368.502,45.421 368.034 C 45.297 367.833,45.421 367.592,45.698 367.499 C 46.440 367.249,47.625 367.636,47.372 368.045 M360.302 367.900 C 360.413 368.238,360.001 368.400,359.033 368.400 C 357.666 368.400,357.265 368.068,357.885 367.448 C 358.327 367.006,360.119 367.341,360.302 367.900 " stroke="none" fill="#b6bcb4" fill-rule="evenodd"></path><path id="path4" d="M6.400 1.569 C 6.400 4.864,9.102 6.535,15.498 7.195 C 17.644 7.416,21.357 7.804,23.748 8.057 C 27.130 8.415,28.951 8.405,31.948 8.014 C 36.660 7.398,43.609 7.659,47.400 8.594 C 50.735 9.416,55.464 9.584,83.000 9.857 C 94.000 9.967,105.610 10.086,108.800 10.122 C 118.400 10.233,124.281 7.194,125.988 1.241 C 126.460 -0.403,125.552 -0.468,124.936 1.165 C 123.479 5.023,116.792 7.115,107.600 6.587 C 104.630 6.417,94.010 6.302,84.000 6.332 C 63.781 6.394,51.254 5.939,46.051 4.954 C 43.273 4.429,41.507 4.363,37.000 4.615 C 19.912 5.571,9.965 4.369,8.865 1.214 C 8.169 -0.783,6.400 -0.528,6.400 1.569 M278.000 0.213 C 278.000 2.320,282.586 8.208,286.556 11.200 C 289.615 13.505,289.604 13.386,287.061 16.578 C 283.719 20.771,283.181 23.634,282.994 38.200 C 282.926 43.480,282.666 49.046,282.417 50.570 C 282.167 52.093,281.875 56.793,281.767 61.015 L 281.572 68.691 279.229 76.245 C 277.940 80.400,276.404 86.194,275.815 89.119 C 274.788 94.217,274.099 96.626,272.413 101.000 C 271.989 102.100,271.157 104.350,270.564 106.000 C 269.971 107.650,268.617 110.918,267.555 113.263 C 266.493 115.607,264.892 119.475,263.997 121.857 C 263.102 124.240,260.902 128.981,259.108 132.395 C 257.313 135.808,253.760 142.740,251.212 147.800 C 244.814 160.503,233.546 178.486,226.523 187.200 C 219.337 196.115,207.310 209.081,202.200 213.421 C 200.440 214.915,196.570 218.503,193.600 221.394 C 190.630 224.285,185.680 228.709,182.600 231.225 C 171.192 240.545,170.926 241.309,179.476 240.209 C 182.689 239.796,183.899 240.831,185.163 245.075 C 186.626 249.989,186.375 250.929,183.000 253.172 C 176.562 257.451,178.439 263.231,185.952 262.260 C 186.969 262.129,188.669 261.906,189.731 261.765 C 192.967 261.336,195.440 264.449,194.390 267.630 C 193.731 269.628,192.709 269.932,189.765 269.007 C 184.495 267.349,181.030 271.239,181.706 278.054 C 183.266 293.762,183.876 295.841,186.658 294.914 C 188.087 294.438,188.240 294.062,188.802 289.654 C 189.456 284.521,190.344 282.635,192.461 281.888 C 193.105 281.661,195.653 284.252,196.701 286.200 C 198.587 289.707,204.729 293.334,205.812 291.581 C 205.989 291.295,206.254 291.313,206.645 291.638 C 206.961 291.900,207.273 292.043,207.339 291.957 C 207.926 291.189,209.600 287.468,209.600 286.933 C 209.600 286.558,209.985 285.842,210.456 285.341 C 210.926 284.840,211.511 284.086,211.756 283.665 C 212.000 283.245,212.849 281.926,213.642 280.734 C 218.225 273.846,218.395 268.709,214.246 262.469 C 211.821 258.822,211.897 258.362,215.554 254.573 C 220.341 249.614,225.593 251.105,227.740 258.033 C 228.246 259.665,229.324 262.246,230.135 263.769 L 231.609 266.538 231.534 272.169 C 231.452 278.321,231.478 278.422,234.251 282.598 C 235.410 284.344,235.614 285.045,235.848 288.087 C 236.380 295.012,240.016 294.687,240.680 287.655 C 241.268 281.437,246.740 278.392,252.638 281.000 C 257.462 283.133,259.982 281.518,261.998 275.000 C 266.613 260.083,268.586 257.256,273.978 257.831 C 276.109 258.058,276.504 257.957,279.634 256.382 C 282.679 254.851,283.384 254.662,287.027 254.398 C 291.943 254.042,292.093 253.966,296.740 249.441 C 301.375 244.928,302.305 243.598,304.629 238.144 C 305.648 235.755,307.077 232.720,307.806 231.400 C 310.953 225.700,310.937 223.415,307.714 218.710 C 304.188 213.561,304.382 211.801,308.894 208.003 C 315.429 202.502,317.003 197.055,313.879 190.752 C 311.998 186.958,311.603 184.556,312.087 179.866 C 312.626 174.646,312.341 173.024,310.184 169.033 C 307.844 164.706,307.709 163.173,309.526 161.550 C 312.386 158.994,314.946 160.283,317.912 165.772 C 320.854 171.219,323.059 171.754,327.839 168.179 C 330.697 166.041,334.221 164.533,337.109 164.210 C 337.998 164.110,339.600 162.947,339.600 162.400 C 339.600 161.184,337.156 159.765,331.353 157.610 C 328.962 156.722,327.039 154.357,325.240 150.095 C 323.489 145.946,321.916 143.600,320.884 143.600 C 320.175 143.600,316.802 145.665,316.801 146.100 C 316.800 146.265,316.545 146.400,316.233 146.400 C 315.922 146.400,315.605 146.584,315.530 146.809 C 315.231 147.707,312.532 147.732,311.645 146.845 C 308.043 143.243,314.656 135.169,318.580 138.379 C 318.997 138.720,320.150 138.934,321.092 138.846 C 323.464 138.624,324.574 132.360,323.044 127.830 C 321.810 124.177,321.078 113.067,321.674 107.037 C 322.189 101.825,321.965 100.865,319.642 98.316 C 316.590 94.965,316.286 94.121,315.966 88.124 L 315.684 82.847 313.542 78.792 C 309.914 71.925,303.254 64.800,300.461 64.800 C 299.672 64.800,297.682 62.781,297.413 61.707 C 297.261 61.105,296.727 59.710,296.226 58.606 C 294.016 53.746,294.437 48.118,297.251 44.903 C 298.323 43.678,299.200 42.528,299.200 42.348 C 299.200 41.922,301.374 40.800,302.198 40.800 C 303.417 40.800,304.724 42.609,304.981 44.650 C 305.485 48.656,307.679 51.295,308.786 49.226 C 309.302 48.261,309.323 45.025,308.824 43.285 C 308.588 42.461,308.592 41.083,308.836 39.571 C 309.319 36.570,308.742 35.198,306.156 33.200 C 302.448 30.336,301.912 28.466,302.426 20.195 C 302.562 18.006,302.430 17.011,301.824 15.661 C 300.357 12.394,303.009 10.818,310.797 10.327 C 313.575 10.152,317.368 9.732,319.224 9.394 C 331.527 7.154,341.179 6.430,348.752 7.180 C 354.279 7.727,356.593 7.529,362.841 5.971 C 367.699 4.760,377.161 4.318,382.932 5.032 C 390.201 5.932,392.348 5.178,393.193 1.429 C 393.641 -0.553,391.428 -0.747,390.333 1.178 C 389.442 2.743,387.613 3.059,382.876 2.464 C 378.477 1.911,365.889 2.479,360.400 3.478 C 354.249 4.597,352.655 4.703,347.600 4.324 C 342.761 3.962,336.841 4.189,324.337 5.217 C 321.772 5.428,316.789 5.600,313.262 5.600 C 308.190 5.600,306.156 5.769,303.525 6.409 C 297.198 7.948,288.355 7.822,285.083 6.146 C 283.017 5.088,279.200 1.593,279.200 0.760 C 279.200 0.342,278.930 0.000,278.600 0.000 C 278.270 0.000,278.000 0.096,278.000 0.213 M354.994 12.552 C 341.896 17.617,333.754 30.350,341.162 34.181 C 343.568 35.424,345.440 34.850,347.600 32.206 C 351.000 28.043,353.442 27.550,359.305 29.841 C 363.563 31.505,364.878 31.492,368.659 29.746 C 373.648 27.443,376.214 27.997,380.215 32.239 C 387.155 39.599,392.562 29.166,385.740 21.578 C 379.167 14.266,362.905 9.492,354.994 12.552 M371.798 15.397 C 381.065 18.118,387.881 24.958,385.766 29.415 C 384.895 31.251,383.640 31.238,380.856 29.364 C 376.382 26.350,373.569 26.036,368.664 28.000 C 364.801 29.547,362.874 29.539,358.910 27.963 C 354.326 26.139,351.168 26.345,347.547 28.704 C 340.632 33.210,339.830 26.379,346.540 20.123 C 352.925 14.170,361.900 12.491,371.798 15.397 M112.928 37.011 C 111.035 38.504,110.141 40.223,109.075 44.422 C 107.123 52.114,106.701 52.455,99.111 52.473 C 90.632 52.492,88.980 51.001,90.576 44.771 C 91.417 41.488,91.372 40.994,90.146 40.029 C 87.720 38.121,83.568 39.303,80.067 42.900 L 77.935 45.091 77.865 49.506 C 77.810 53.029,77.659 54.072,77.117 54.670 C 75.558 56.394,75.750 58.498,77.658 60.597 C 85.457 69.178,85.423 69.094,82.977 73.467 C 82.195 74.867,81.131 77.427,80.613 79.156 C 77.472 89.651,73.063 90.825,65.564 83.163 C 63.861 81.424,62.276 80.000,62.042 80.000 C 61.807 80.000,61.508 79.574,61.378 79.054 C 61.154 78.163,60.678 77.919,57.289 76.961 C 57.009 76.882,56.424 75.988,55.989 74.975 C 53.897 70.095,56.780 66.000,62.308 66.000 C 64.513 66.000,68.000 64.319,68.000 63.257 C 68.000 63.106,68.825 62.086,69.833 60.991 C 71.843 58.807,71.992 57.491,70.546 54.696 C 70.044 53.725,69.972 52.801,70.192 50.161 C 70.606 45.191,69.835 44.062,65.282 42.974 C 60.407 41.809,59.101 42.273,54.083 46.960 C 50.078 50.700,49.231 51.325,45.400 53.369 C 39.661 56.432,38.800 57.637,38.800 62.610 C 38.800 70.095,35.955 72.627,30.691 69.828 C 27.607 68.188,23.588 70.424,21.330 75.037 L 20.274 77.192 21.150 80.206 C 21.819 82.507,22.010 84.141,21.959 87.110 C 21.850 93.482,21.888 93.945,22.575 94.632 C 23.532 95.589,25.093 98.819,25.631 100.958 C 25.888 101.978,26.256 102.911,26.449 103.030 C 26.642 103.150,26.800 103.614,26.800 104.063 C 26.800 104.512,27.047 105.446,27.350 106.140 C 27.652 106.833,28.107 108.156,28.360 109.080 C 29.154 111.977,32.284 113.387,35.479 112.287 C 37.292 111.662,39.543 110.054,39.578 109.359 C 39.688 107.164,43.193 105.972,45.712 107.273 C 47.491 108.192,51.630 109.296,54.000 109.484 C 58.027 109.802,59.337 109.296,65.789 104.928 C 66.823 104.228,69.768 102.818,72.334 101.794 C 84.261 97.036,92.232 90.929,97.182 82.757 C 98.822 80.049,100.990 76.746,102.001 75.417 C 105.487 70.831,109.457 64.631,114.053 56.600 C 119.942 46.310,119.127 32.125,112.928 37.011 M358.964 58.736 C 356.965 59.594,354.625 60.522,353.764 60.798 C 350.540 61.835,350.062 63.132,352.064 65.412 C 357.070 71.113,371.080 71.214,376.165 65.587 C 378.647 62.839,378.159 61.709,374.000 60.581 C 372.570 60.193,370.230 59.352,368.800 58.712 C 364.737 56.893,363.252 56.897,358.964 58.736 M369.308 61.691 C 373.822 63.749,373.287 66.078,368.044 67.191 C 361.285 68.625,353.722 65.842,356.588 62.975 C 359.656 59.907,364.356 59.433,369.308 61.691 M44.278 95.380 L 45.400 96.360 44.058 98.910 C 42.078 102.673,39.343 103.303,38.559 100.178 C 37.566 96.223,41.482 92.938,44.278 95.380 M281.563 99.857 C 282.683 100.438,283.600 101.120,283.600 101.372 C 283.600 101.625,284.630 102.454,285.889 103.215 C 287.147 103.977,289.262 105.404,290.589 106.388 C 292.873 108.082,293.145 108.177,295.757 108.214 C 298.166 108.248,298.612 108.375,299.298 109.222 C 300.152 110.276,300.155 110.022,299.188 119.272 C 298.524 125.633,299.351 128.800,301.676 128.800 C 302.991 128.800,305.600 131.681,305.600 133.134 C 305.600 136.750,302.403 138.371,297.515 137.236 C 295.710 136.817,292.438 137.436,292.123 138.257 C 292.000 138.576,291.026 139.280,289.957 139.822 C 286.083 141.785,286.007 143.444,289.628 147.028 C 290.933 148.319,292.000 149.596,292.000 149.866 C 292.000 150.137,292.450 151.204,293.000 152.238 C 294.542 155.139,294.276 156.832,291.526 161.600 C 289.674 164.811,289.185 166.478,288.817 170.833 C 288.604 173.345,288.269 175.942,288.071 176.605 C 286.850 180.687,287.078 184.399,288.830 189.000 C 290.359 193.014,290.532 193.852,290.808 198.548 C 291.224 205.647,291.123 205.914,286.978 208.672 C 283.603 210.918,283.600 210.922,283.600 212.660 C 283.600 214.316,283.544 214.400,282.433 214.400 C 280.999 214.400,280.000 214.042,280.000 213.529 C 280.000 213.316,279.746 212.889,279.436 212.579 C 279.126 212.268,278.569 211.156,278.198 210.107 C 277.828 209.058,277.092 207.346,276.563 206.303 C 276.033 205.260,275.600 203.971,275.600 203.438 C 275.600 202.319,273.551 200.400,272.355 200.400 C 270.462 200.400,267.777 204.154,266.974 207.925 C 266.205 211.534,263.629 216.390,261.484 218.272 C 257.312 221.936,254.775 223.198,252.600 222.693 C 249.999 222.089,247.544 222.252,245.200 223.185 C 238.346 225.913,233.842 222.788,237.118 217.578 C 239.379 213.982,239.588 212.420,238.058 210.559 C 236.835 209.070,234.000 208.121,234.000 209.200 C 234.000 209.420,233.569 209.600,233.043 209.600 C 232.516 209.600,231.991 209.847,231.875 210.149 C 231.094 212.184,224.400 213.448,224.400 211.559 C 224.400 209.499,220.224 207.508,216.956 208.011 C 213.790 208.498,213.736 208.253,216.200 204.578 C 217.190 203.102,218.000 201.708,218.000 201.480 C 218.000 201.253,218.102 201.169,218.228 201.294 C 218.470 201.536,221.600 198.312,221.600 197.821 C 221.600 197.662,222.653 196.332,223.939 194.866 C 229.924 188.046,234.590 181.255,241.888 168.745 C 249.367 155.924,250.563 153.748,253.295 148.000 C 256.064 142.171,260.898 133.613,264.138 128.802 C 265.248 127.153,266.762 124.363,267.501 122.602 C 268.240 120.841,269.541 118.042,270.392 116.383 C 271.242 114.723,272.419 111.663,273.006 109.583 C 274.934 102.757,276.858 99.549,279.463 98.818 C 279.498 98.808,280.443 99.276,281.563 99.857 M311.743 99.802 C 316.289 101.702,317.123 113.200,312.714 113.200 C 310.433 113.200,306.599 100.030,308.719 99.472 C 309.932 99.153,310.280 99.191,311.743 99.802 M261.535 165.063 C 259.814 165.359,259.069 167.440,259.281 171.360 C 259.550 176.351,260.904 177.800,265.300 177.800 L 268.000 177.800 268.024 179.400 C 268.098 184.232,270.430 187.289,272.740 185.581 C 275.489 183.548,274.025 178.465,270.486 177.757 C 269.778 177.616,269.179 177.298,269.153 177.050 C 269.127 176.803,268.968 177.140,268.800 177.800 C 268.605 178.565,268.477 177.223,268.447 174.100 C 268.419 171.132,268.242 169.200,268.000 169.200 C 267.780 169.200,267.600 168.598,267.600 167.862 C 267.600 165.621,265.073 164.456,261.535 165.063 M245.062 211.131 C 243.683 212.656,244.189 214.708,246.183 215.677 L 247.966 216.543 249.026 215.483 C 250.170 214.339,251.236 211.760,250.914 210.919 C 250.583 210.057,245.879 210.228,245.062 211.131 M276.135 238.321 C 279.130 241.165,279.198 245.041,276.329 249.246 C 272.174 255.334,267.125 253.604,267.136 246.097 C 267.148 238.663,272.043 234.433,276.135 238.321 M152.000 250.975 C 145.461 253.400,143.494 257.600,148.896 257.600 C 151.839 257.600,156.400 253.300,156.400 250.525 C 156.400 250.193,153.236 250.517,152.000 250.975 M293.078 284.154 C 290.987 286.069,291.144 287.651,293.400 287.400 C 295.528 287.163,296.641 285.699,296.157 283.772 C 295.820 282.428,294.829 282.551,293.078 284.154 M349.600 316.033 C 337.841 318.289,328.673 332.237,335.446 337.565 C 337.714 339.348,339.761 338.674,343.238 334.997 C 346.496 331.552,348.796 331.254,354.200 333.575 C 357.733 335.093,359.323 335.098,363.064 333.600 C 369.060 331.199,370.856 331.512,374.838 335.655 C 380.452 341.498,387.384 337.043,385.158 329.023 C 382.975 321.161,362.280 313.600,349.600 316.033 M44.200 316.287 C 32.826 317.869,21.600 326.302,21.600 333.265 C 21.600 335.850,23.761 338.400,25.953 338.400 C 27.762 338.400,28.224 338.102,30.012 335.785 C 33.159 331.706,35.774 331.212,41.692 333.582 C 45.500 335.107,47.198 335.110,51.000 333.600 C 56.343 331.478,59.155 332.048,62.634 335.961 C 66.932 340.793,72.515 337.925,70.792 331.770 C 68.386 323.178,54.168 314.900,44.200 316.287 M361.400 318.004 C 374.548 319.453,386.661 329.143,381.137 333.792 C 379.533 335.141,378.677 334.958,375.075 332.497 C 371.633 330.145,368.849 329.788,365.000 331.204 C 358.852 333.467,359.026 333.457,354.359 331.846 C 348.271 329.744,345.996 329.913,341.832 332.778 C 335.653 337.029,334.230 329.611,340.122 323.859 C 345.420 318.687,351.763 316.941,361.400 318.004 M52.797 318.594 C 56.269 319.518,59.846 321.548,62.765 324.250 C 69.533 330.517,69.596 336.762,62.848 332.597 C 58.613 329.983,57.046 329.870,51.400 331.766 C 46.699 333.346,45.610 333.325,41.056 331.568 C 36.396 329.772,33.639 329.959,29.695 332.342 C 23.565 336.046,22.758 331.154,28.554 325.432 C 34.775 319.292,44.796 316.465,52.797 318.594 M43.000 361.760 C 32.525 365.925,32.541 365.914,33.718 368.100 C 37.150 374.473,52.446 375.414,58.454 369.623 C 61.597 366.593,61.192 365.281,56.797 364.258 C 55.368 363.926,52.919 363.108,51.353 362.440 C 47.335 360.727,45.892 360.610,43.000 361.760 M355.800 361.561 C 347.294 364.687,345.196 366.058,345.989 367.973 C 348.511 374.062,363.282 375.456,370.110 370.249 C 373.556 367.620,373.168 365.915,368.765 364.339 C 367.134 363.755,364.450 362.726,362.800 362.052 C 359.306 360.626,358.499 360.569,355.800 361.561 M50.739 364.787 C 55.306 366.588,56.248 367.917,54.137 369.578 C 49.184 373.474,35.263 370.788,38.881 366.634 C 41.368 363.778,46.253 363.017,50.739 364.787 M362.419 364.371 C 368.229 366.578,368.493 369.658,363.000 371.158 C 356.232 373.007,347.758 369.256,351.777 366.190 C 355.050 363.694,358.905 363.035,362.419 364.371 " stroke="none" fill="#b4b4b4" fill-rule="evenodd"></path><path id="path5" d="M131.590 3.100 C 131.585 4.805,131.395 6.920,131.167 7.800 C 130.939 8.680,130.593 13.540,130.399 18.600 C 129.169 50.515,123.770 66.363,106.916 87.517 C 90.849 107.684,66.828 121.004,41.400 123.847 C 27.338 125.418,9.275 124.669,3.512 122.276 C 0.934 121.205,-0.000 121.111,0.000 121.922 C 0.000 123.695,8.000 125.653,16.997 126.082 C 48.437 127.581,68.101 122.282,90.865 106.177 C 99.312 100.202,99.935 99.663,103.691 95.089 C 105.511 92.872,108.802 88.885,111.004 86.229 C 115.834 80.404,116.638 79.127,121.596 69.400 C 128.495 55.863,131.055 43.853,132.181 19.737 C 132.470 13.542,132.802 8.320,132.919 8.131 C 134.204 6.051,133.932 0.000,132.553 0.000 C 131.632 0.000,131.600 0.103,131.590 3.100 M140.082 0.932 C 140.677 1.444,141.937 2.182,142.882 2.572 C 143.827 2.963,144.916 3.446,145.302 3.646 C 146.480 4.256,152.055 6.000,152.827 6.000 C 153.226 6.000,153.652 6.160,153.773 6.356 C 153.979 6.690,154.568 6.832,158.300 7.447 C 159.125 7.583,159.980 7.822,160.200 7.979 C 161.027 8.565,168.519 10.932,173.800 12.276 C 174.240 12.388,175.167 12.732,175.860 13.040 C 176.554 13.348,177.290 13.600,177.496 13.600 C 178.057 13.600,178.800 15.467,178.800 16.877 C 178.800 18.173,176.903 21.598,176.185 21.599 C 174.591 21.602,169.995 29.801,170.002 32.628 C 170.003 33.053,169.736 34.210,169.409 35.200 C 169.082 36.190,168.181 38.918,167.407 41.262 C 166.633 43.606,166.000 45.891,166.000 46.339 C 166.000 46.786,165.834 47.255,165.631 47.381 C 165.428 47.506,165.136 48.192,164.981 48.905 C 164.479 51.228,160.964 57.003,159.202 58.400 C 159.063 58.510,157.720 60.400,156.217 62.600 C 153.046 67.242,151.870 68.366,150.161 68.386 C 148.770 68.402,146.366 69.458,145.880 70.268 C 145.704 70.560,145.376 70.800,145.152 70.800 C 144.494 70.800,143.600 71.881,143.600 72.675 C 143.600 73.078,143.240 73.632,142.800 73.907 C 142.295 74.222,142.000 74.840,142.000 75.580 C 142.000 76.225,141.817 76.866,141.594 77.004 C 141.371 77.142,140.920 77.827,140.594 78.527 C 140.267 79.227,139.371 80.790,138.603 82.000 C 137.836 83.210,136.858 84.920,136.432 85.800 C 135.014 88.723,134.266 89.372,132.438 89.264 C 131.196 89.191,130.800 89.315,130.800 89.776 C 130.800 90.111,130.305 90.505,129.700 90.652 C 129.095 90.799,127.957 91.422,127.170 92.037 C 126.384 92.652,124.224 93.937,122.370 94.892 C 119.640 96.299,118.753 96.996,117.700 98.560 L 116.400 100.490 116.400 106.595 C 116.400 113.655,116.610 115.248,117.494 114.909 C 117.829 114.780,118.257 114.959,118.453 115.309 C 118.728 115.801,119.076 115.865,120.014 115.596 C 120.678 115.406,121.621 115.337,122.110 115.443 C 125.698 116.220,130.800 115.926,130.800 114.943 C 130.800 114.502,131.151 114.375,132.100 114.470 C 133.226 114.583,133.418 114.466,133.538 113.600 C 133.614 113.050,133.823 112.420,134.001 112.200 C 134.179 111.980,134.454 110.936,134.611 109.881 C 135.105 106.560,140.140 102.761,141.383 104.772 C 141.528 105.007,141.932 105.200,142.280 105.200 C 143.470 105.200,143.974 106.502,143.982 109.600 L 143.990 112.600 141.149 115.522 L 138.309 118.444 138.100 121.796 C 137.950 124.190,138.065 125.697,138.501 127.073 C 140.274 132.675,140.338 135.030,138.810 138.485 C 137.608 141.201,138.488 143.720,141.656 146.637 C 149.016 153.414,154.437 150.139,154.625 138.800 C 154.681 135.479,154.934 133.061,155.379 131.600 C 155.748 130.390,156.552 127.499,157.166 125.176 C 158.765 119.123,160.263 117.474,163.244 118.485 C 165.092 119.112,168.000 123.038,168.000 124.907 C 168.000 125.302,168.270 125.729,168.600 125.855 C 168.930 125.982,169.200 126.327,169.200 126.622 C 169.200 127.319,171.413 128.998,173.422 129.826 C 174.290 130.184,175.540 130.702,176.200 130.978 C 184.101 134.285,188.285 133.105,191.021 126.800 C 192.646 123.057,193.494 121.997,195.563 121.124 C 199.493 119.465,199.307 119.598,202.143 116.400 C 202.436 116.070,202.927 115.215,203.235 114.500 C 203.543 113.785,203.962 113.200,204.166 113.200 C 204.370 113.200,204.859 112.909,205.252 112.553 C 205.645 112.197,207.189 111.482,208.684 110.965 C 211.814 109.880,213.259 108.462,215.268 104.500 C 215.966 103.125,216.664 102.000,216.820 102.000 C 216.976 102.000,217.341 101.425,217.632 100.722 C 217.924 100.019,218.666 98.869,219.282 98.167 C 220.169 97.157,220.452 96.361,220.640 94.346 C 220.770 92.946,221.219 91.037,221.638 90.104 C 222.057 89.172,222.400 88.182,222.401 87.904 C 222.401 87.627,223.281 86.801,224.355 86.069 C 228.831 83.018,229.901 80.126,227.961 76.324 C 227.334 75.095,227.127 73.961,227.141 71.840 C 227.159 69.039,227.295 68.515,229.808 61.600 C 231.140 57.938,231.063 53.655,229.631 51.644 C 229.174 51.002,228.800 50.355,228.800 50.207 C 228.800 49.834,225.609 46.800,225.216 46.800 C 224.888 46.800,221.258 44.670,219.761 43.600 C 218.786 42.903,218.140 41.096,217.759 38.000 C 217.610 36.790,217.172 35.080,216.784 34.200 C 215.037 30.231,214.795 28.171,215.844 26.200 C 217.085 23.868,216.801 21.198,215.100 19.210 C 211.195 14.644,213.944 11.903,224.198 10.142 C 227.279 9.612,230.998 8.824,232.462 8.390 C 233.926 7.955,235.671 7.600,236.338 7.600 C 237.006 7.600,237.664 7.420,237.800 7.200 C 237.936 6.980,238.478 6.800,239.005 6.800 C 239.531 6.800,240.376 6.631,240.881 6.425 C 241.387 6.218,243.150 5.667,244.800 5.200 C 248.988 4.014,254.128 1.727,254.715 0.788 C 255.649 -0.708,240.681 -0.389,237.432 1.156 C 234.117 2.733,230.462 3.482,223.586 3.994 C 220.388 4.232,216.788 4.691,215.586 5.013 C 214.384 5.335,211.622 5.885,209.449 6.235 C 207.276 6.585,204.756 7.133,203.849 7.454 C 201.831 8.166,187.347 8.307,186.661 7.621 C 186.429 7.389,185.567 7.200,184.744 7.200 C 183.921 7.200,183.153 7.047,183.037 6.860 C 182.921 6.673,180.886 6.303,178.513 6.039 C 169.145 4.994,165.364 4.316,162.600 3.187 C 161.060 2.558,159.080 1.927,158.200 1.786 C 157.320 1.645,155.837 1.185,154.904 0.764 C 153.440 0.104,152.241 0.000,146.104 0.000 L 139.000 0.001 140.082 0.932 M271.867 0.267 C 271.424 0.710,271.564 3.975,272.233 8.786 C 272.581 11.291,272.757 13.804,272.624 14.370 C 272.491 14.937,272.217 23.770,272.015 34.000 C 271.166 76.981,264.522 103.022,243.388 146.200 C 212.950 208.385,147.486 255.825,76.635 267.039 C 58.509 269.908,58.040 269.942,29.400 270.394 C 10.037 270.700,8.837 270.762,5.800 271.611 C 4.040 272.103,2.015 272.592,1.300 272.697 C 0.548 272.807,0.000 273.122,0.000 273.444 C -0.000 274.206,0.532 274.156,5.275 272.953 C 9.370 271.914,9.556 271.904,31.000 271.572 C 70.587 270.959,92.844 267.144,122.600 255.871 C 182.115 233.322,231.390 184.420,255.274 124.200 C 269.195 89.103,272.805 70.582,273.601 30.200 C 273.945 12.698,273.918 9.289,273.408 6.200 C 273.081 4.220,272.811 2.015,272.807 1.300 C 272.800 0.064,272.452 -0.319,271.867 0.267 M398.531 46.353 C 395.833 48.605,395.617 55.541,398.177 57.691 C 399.890 59.130,400.000 58.788,400.000 52.000 C 400.000 45.338,399.955 45.164,398.531 46.353 M114.407 125.896 C 113.160 126.385,112.349 127.733,113.100 128.067 C 113.496 128.243,114.800 131.078,114.800 131.763 C 114.800 132.126,115.381 132.310,116.600 132.335 C 117.590 132.355,118.400 132.187,118.400 131.962 C 118.400 131.737,118.578 131.663,118.796 131.797 C 119.958 132.515,122.000 130.733,122.000 129.000 C 122.000 127.347,119.338 124.986,118.913 126.262 C 118.761 126.718,116.082 126.457,115.773 125.956 C 115.529 125.562,115.285 125.551,114.407 125.896 M122.800 139.301 C 122.800 139.491,122.640 139.548,122.443 139.427 C 121.800 139.029,118.459 140.794,117.617 141.976 C 116.103 144.102,116.336 148.044,118.246 152.641 C 119.945 156.731,128.551 155.327,130.478 150.646 C 131.467 148.242,131.483 141.677,130.500 141.322 C 130.115 141.183,129.350 140.761,128.800 140.385 C 127.292 139.352,122.800 138.540,122.800 139.301 M0.000 385.527 C 0.000 388.572,0.140 389.619,0.600 390.000 C 0.930 390.274,1.200 390.346,1.200 390.160 C 1.200 389.974,1.511 390.267,1.891 390.811 C 4.119 393.998,5.523 395.404,7.859 396.782 C 9.146 397.543,10.704 398.573,11.319 399.073 L 12.438 399.981 201.585 399.995 L 390.732 400.009 394.231 396.626 C 396.156 394.765,398.241 393.032,398.865 392.773 C 399.895 392.347,400.000 392.120,400.000 390.332 C 400.000 388.776,399.885 388.428,399.454 388.680 C 398.723 389.108,396.625 390.721,394.847 392.222 C 389.405 396.817,387.121 397.474,375.400 397.814 C 371.000 397.942,366.770 398.207,366.000 398.403 C 364.210 398.861,323.741 398.167,319.400 397.604 C 317.180 397.317,313.627 397.320,307.800 397.614 C 297.755 398.122,289.642 398.214,272.800 398.011 C 265.203 397.920,257.103 398.061,252.400 398.367 C 246.142 398.774,241.828 398.777,230.575 398.381 C 222.861 398.109,211.071 397.982,204.375 398.098 C 194.517 398.269,191.634 398.195,189.229 397.710 C 187.442 397.350,185.529 397.216,184.429 397.374 C 175.877 398.598,164.964 398.842,155.741 398.015 C 151.685 397.652,149.735 397.653,147.221 398.021 C 144.742 398.384,143.079 398.389,140.280 398.042 C 136.914 397.625,131.175 397.459,120.000 397.455 C 108.519 397.451,102.144 397.538,88.000 397.891 C 77.704 398.147,72.202 398.141,71.400 397.871 C 70.740 397.650,66.060 397.413,61.000 397.345 C 47.259 397.161,38.261 396.897,29.800 396.428 C 25.620 396.197,20.702 396.006,18.872 396.004 C 12.155 395.996,5.613 391.575,2.000 384.600 C 0.108 380.948,0.000 380.998,0.000 385.527 " stroke="none" fill="#3c3c37" fill-rule="evenodd"></path><path id="path6" d="M129.593 1.500 C 129.589 2.325,129.222 4.620,128.777 6.600 C 128.181 9.249,127.873 12.684,127.610 19.600 C 126.859 39.330,124.162 53.313,119.199 63.211 C 98.414 104.658,63.765 124.478,16.400 122.013 C 5.657 121.454,1.243 118.711,1.194 112.565 C 1.191 112.144,0.930 110.990,0.615 110.000 C 0.068 108.282,0.045 108.469,0.121 114.131 L 0.200 120.062 2.400 120.875 C 8.978 123.307,9.093 123.323,20.800 123.506 C 44.174 123.872,56.101 121.622,71.707 113.901 C 86.599 106.533,96.813 98.555,105.725 87.330 C 122.624 66.046,128.020 50.673,129.220 20.400 C 129.433 15.010,129.870 9.340,130.189 7.800 C 130.991 3.938,130.996 0.000,130.200 0.000 C 129.775 0.000,129.598 0.436,129.593 1.500 M164.000 0.351 C 164.000 1.108,165.186 1.615,167.049 1.652 C 168.122 1.674,169.450 1.843,170.000 2.028 C 170.550 2.213,173.610 2.553,176.800 2.783 C 179.990 3.013,184.760 3.487,187.400 3.835 C 195.713 4.933,201.000 5.006,204.432 4.072 C 206.064 3.628,209.020 3.056,211.000 2.801 C 214.723 2.322,216.723 1.656,217.594 0.607 C 218.044 0.065,215.193 0.000,191.049 0.000 C 175.799 0.000,164.000 0.153,164.000 0.351 M221.000 0.423 C 223.054 0.848,227.346 0.848,229.400 0.423 C 230.526 0.190,229.282 0.092,225.200 0.092 C 221.118 0.092,219.874 0.190,221.000 0.423 M273.600 1.356 C 273.600 2.102,273.865 4.127,274.190 5.856 C 274.972 10.028,274.984 11.180,274.469 32.699 C 273.870 57.762,273.063 65.742,269.349 83.356 C 264.854 104.677,250.970 138.811,238.591 158.975 C 201.214 219.860,145.666 257.368,75.400 269.167 C 61.042 271.578,55.280 271.915,17.400 272.560 C 9.807 272.690,8.642 272.804,5.271 273.752 C 3.220 274.328,1.195 274.800,0.771 274.800 C -0.209 274.800,-0.413 282.451,0.537 283.569 C 1.841 285.100,2.399 294.022,1.405 297.441 C 0.726 299.776,0.754 301.037,1.678 309.675 C 2.148 314.067,1.771 320.976,0.716 327.321 C 0.336 329.607,0.387 330.854,1.032 335.121 C 1.536 338.454,1.712 341.025,1.543 342.600 C 1.105 346.702,1.177 359.968,1.659 363.721 C 2.012 366.475,2.003 368.189,1.622 371.178 C 1.194 374.539,1.214 375.405,1.770 377.630 C 2.123 379.044,2.485 380.583,2.574 381.051 C 3.163 384.155,7.173 389.639,10.304 391.625 C 13.397 393.587,15.234 393.956,24.200 394.415 C 54.961 395.991,78.069 396.364,115.400 395.889 C 122.880 395.794,131.430 395.871,134.400 396.061 C 141.681 396.527,179.492 396.595,183.000 396.149 C 184.540 395.953,186.880 395.937,188.200 396.114 C 189.520 396.291,197.080 396.421,205.000 396.403 C 212.920 396.385,224.913 396.556,231.651 396.784 C 240.195 397.072,245.703 397.070,249.851 396.775 C 253.123 396.543,262.280 396.409,270.200 396.476 C 288.476 396.633,303.975 396.454,310.476 396.011 C 314.193 395.757,316.976 395.816,320.876 396.229 C 330.430 397.244,378.579 396.780,384.725 395.614 C 388.990 394.805,392.624 392.603,397.097 388.116 L 400.000 385.203 400.000 380.578 C 400.000 377.588,399.858 376.040,399.599 376.201 C 399.148 376.479,397.600 379.722,397.600 380.387 C 397.600 385.823,389.419 392.047,381.332 392.762 C 369.257 393.830,330.824 394.198,322.471 393.325 C 319.307 392.995,315.008 392.813,312.871 392.919 C 296.687 393.721,286.878 393.981,283.400 393.700 C 281.200 393.522,272.830 393.449,264.800 393.538 C 238.347 393.830,227.620 393.805,208.800 393.404 C 198.570 393.186,188.400 393.040,186.200 393.080 C 164.453 393.470,138.584 393.240,133.472 392.612 C 128.858 392.045,127.369 392.009,124.472 392.397 C 122.178 392.704,118.557 392.768,113.800 392.585 C 108.703 392.389,105.665 392.456,103.400 392.815 C 98.378 393.609,75.651 393.469,68.600 392.600 C 64.750 392.126,61.864 391.993,59.365 392.174 C 55.681 392.442,49.718 391.933,47.252 391.140 C 46.258 390.820,44.752 390.843,41.520 391.227 C 37.920 391.655,36.301 391.656,32.468 391.229 C 29.901 390.943,24.920 390.577,21.400 390.416 C 12.724 390.019,11.067 389.213,7.819 383.808 C 5.447 379.862,5.451 379.904,5.628 360.400 C 5.810 340.255,5.808 336.641,5.605 329.600 C 5.513 326.387,5.720 322.441,6.185 318.559 C 6.886 312.701,6.886 312.394,6.165 308.359 C 5.583 305.102,5.463 302.943,5.611 298.400 C 6.007 286.245,5.944 285.317,4.500 282.133 C 1.048 274.520,2.475 274.052,30.600 273.589 C 61.988 273.072,60.533 273.183,78.400 269.948 C 132.698 260.117,177.702 235.156,213.717 194.895 C 236.079 169.897,252.115 141.290,265.454 102.600 C 269.489 90.896,273.510 72.679,274.791 60.296 C 275.275 55.619,276.134 29.727,275.832 28.939 C 275.715 28.634,275.804 25.553,276.030 22.092 C 276.625 12.993,276.555 10.249,275.627 6.104 C 275.172 4.072,274.800 1.867,274.800 1.204 C 274.800 0.400,274.600 0.000,274.200 0.000 C 273.785 0.000,273.600 0.417,273.600 1.356 M397.608 0.600 C 397.613 1.630,397.985 2.167,399.100 2.754 C 400.401 3.439,400.257 2.631,398.802 1.078 C 397.765 -0.028,397.604 -0.092,397.608 0.600 M0.021 23.500 L 0.041 33.400 1.263 30.400 C 3.561 24.755,3.722 16.522,1.577 14.377 C 0.073 12.873,-0.001 13.306,0.021 23.500 M398.737 17.110 C 397.469 18.617,397.155 21.565,397.281 30.800 C 397.367 37.179,397.185 37.901,394.548 41.603 C 391.890 45.336,391.253 47.137,390.792 52.235 C 390.183 58.950,389.523 60.977,386.338 65.896 C 382.429 71.933,382.523 72.289,388.060 72.435 C 393.264 72.573,393.874 73.129,396.823 80.422 C 397.495 82.084,398.479 83.974,399.008 84.622 L 399.971 85.800 399.986 82.808 C 399.996 80.635,399.766 79.250,399.144 77.750 L 398.288 75.684 399.144 73.916 C 400.557 70.997,400.347 68.026,398.600 66.227 C 397.830 65.434,397.200 64.529,397.200 64.215 C 397.200 63.902,396.660 63.326,396.000 62.936 C 391.914 60.523,392.953 48.515,397.645 43.924 L 400.011 41.609 399.906 28.728 L 399.800 15.846 398.737 17.110 M0.100 47.200 C 0.145 56.567,0.171 56.926,0.419 51.600 C 0.567 48.410,0.866 45.163,1.083 44.384 C 1.502 42.882,1.199 39.666,0.481 38.000 C 0.160 37.255,0.063 39.600,0.100 47.200 M358.850 38.350 C 358.400 38.800,357.913 40.201,357.634 41.850 C 357.378 43.363,356.796 45.741,356.340 47.136 C 355.246 50.481,355.546 50.795,358.969 49.883 C 362.213 49.018,365.740 49.013,368.817 49.869 C 371.935 50.736,372.388 50.386,371.629 47.698 C 371.334 46.654,370.787 44.234,370.412 42.320 C 369.470 37.508,369.593 37.600,364.151 37.600 C 360.234 37.600,359.496 37.704,358.850 38.350 M365.371 41.829 C 367.044 43.501,365.196 45.874,363.000 44.873 C 362.260 44.536,362.000 44.108,362.000 43.228 C 362.000 41.398,364.078 40.535,365.371 41.829 M0.088 78.000 C 0.116 81.190,0.201 82.990,0.276 82.000 C 0.351 81.010,0.698 79.104,1.048 77.764 C 1.660 75.421,1.653 75.267,0.860 73.764 L 0.035 72.200 0.088 78.000 M398.822 96.061 C 396.872 99.267,395.634 106.717,396.540 109.800 C 396.863 110.900,397.430 112.874,397.799 114.187 C 399.768 121.187,399.963 120.554,399.982 107.100 C 399.992 100.335,399.907 94.800,399.794 94.800 C 399.681 94.800,399.243 95.367,398.822 96.061 M399.452 122.900 C 399.319 123.395,399.195 125.780,399.176 128.200 C 399.157 130.620,398.999 133.590,398.824 134.800 C 398.600 136.356,398.679 137.644,399.094 139.200 C 399.546 140.896,399.628 142.840,399.452 147.683 C 399.310 151.577,399.371 154.058,399.611 154.207 C 399.860 154.361,400.000 148.621,400.000 138.224 C 400.000 122.401,399.951 121.037,399.452 122.900 M399.009 216.931 C 398.396 218.070,398.362 218.473,398.775 219.725 C 399.591 222.198,400.000 221.830,400.000 218.624 C 400.000 215.168,399.978 215.131,399.009 216.931 M399.444 229.400 C 399.249 229.840,399.003 232.360,398.898 235.000 C 398.794 237.640,398.544 240.004,398.343 240.254 C 398.143 240.504,397.885 243.114,397.771 246.054 C 397.531 252.262,397.117 255.007,395.773 259.321 C 395.025 261.718,394.800 263.335,394.800 266.300 C 394.800 268.422,394.585 271.643,394.323 273.457 C 393.838 276.811,394.096 279.977,395.164 283.800 C 395.410 284.680,395.772 286.120,395.968 287.000 C 396.411 288.988,398.860 295.919,399.501 297.000 C 399.879 297.636,399.978 296.199,399.988 289.976 C 399.998 283.703,399.884 281.999,399.413 281.376 C 398.631 280.342,398.622 275.361,399.400 274.000 C 400.116 272.748,400.206 265.628,399.530 263.758 C 399.168 262.755,399.173 261.836,399.555 259.729 C 400.142 256.491,400.038 228.064,399.444 229.400 M399.728 306.000 C 399.728 307.430,399.801 308.015,399.889 307.300 C 399.978 306.585,399.978 305.415,399.889 304.700 C 399.801 303.985,399.728 304.570,399.728 306.000 M41.907 341.663 C 41.118 341.951,40.709 342.471,40.437 343.531 C 40.043 345.069,38.862 350.579,38.504 352.547 L 38.295 353.694 40.048 353.446 C 44.742 352.781,48.656 352.732,50.856 353.309 C 54.184 354.182,54.231 354.087,53.205 348.550 C 52.127 342.735,51.882 342.088,50.579 341.592 C 49.261 341.091,43.339 341.139,41.907 341.663 M354.890 341.466 C 353.590 341.741,352.830 343.127,352.374 346.052 C 352.156 347.453,351.713 349.397,351.389 350.371 C 350.246 353.808,350.796 354.361,354.400 353.397 C 357.252 352.635,360.287 352.645,363.302 353.426 C 366.329 354.211,367.039 353.786,366.376 351.588 C 366.145 350.825,365.621 348.511,365.210 346.446 C 364.237 341.557,364.079 341.416,359.486 341.337 C 357.459 341.302,355.391 341.360,354.890 341.466 M359.911 345.423 C 361.662 346.649,360.711 348.984,358.565 348.729 C 357.218 348.569,356.602 347.643,356.941 346.291 C 357.163 345.408,357.523 345.130,358.811 344.846 C 358.927 344.821,359.422 345.080,359.911 345.423 M47.520 345.680 C 48.725 346.885,47.529 348.670,45.805 348.237 C 44.143 347.820,44.656 345.200,46.400 345.200 C 46.752 345.200,47.256 345.416,47.520 345.680 M399.373 364.926 C 399.262 365.215,399.346 365.890,399.560 366.426 C 399.919 367.323,399.951 367.282,399.975 365.900 C 400.000 364.382,399.742 363.964,399.373 364.926 M36.200 380.987 C 40.221 384.385,46.763 385.502,50.859 383.491 C 55.524 381.200,55.117 380.695,48.499 380.564 C 45.695 380.509,41.510 380.353,39.200 380.218 L 35.000 379.973 36.200 380.987 " stroke="none" fill="#51514f" fill-rule="evenodd"></path><path id="path7" d="M130.785 2.500 C 130.777 3.875,130.509 6.260,130.189 7.800 C 129.870 9.340,129.433 15.010,129.220 20.400 C 128.020 50.673,122.624 66.046,105.725 87.330 C 93.014 103.340,73.221 115.867,52.600 120.952 C 38.587 124.408,12.231 124.721,4.245 121.527 C 0.903 120.190,0.000 119.987,0.000 120.572 C -0.000 121.141,4.616 122.812,9.000 123.830 C 13.201 124.805,32.735 124.815,41.400 123.847 C 66.828 121.004,90.849 107.684,106.916 87.517 C 123.770 66.363,129.169 50.515,130.399 18.600 C 130.593 13.540,130.939 8.680,131.167 7.800 C 131.703 5.727,131.728 0.000,131.200 0.000 C 130.978 0.000,130.793 1.110,130.785 2.500 M154.850 0.757 C 155.647 1.155,157.087 1.604,158.050 1.754 C 159.012 1.904,161.060 2.545,162.600 3.178 C 165.370 4.319,169.097 4.988,178.513 6.039 C 180.886 6.303,182.921 6.673,183.037 6.860 C 183.153 7.047,183.921 7.200,184.744 7.200 C 185.567 7.200,186.429 7.389,186.661 7.621 C 187.347 8.307,201.831 8.166,203.849 7.454 C 204.756 7.133,207.276 6.585,209.449 6.235 C 211.622 5.885,214.384 5.335,215.586 5.013 C 216.788 4.691,220.388 4.232,223.586 3.994 C 230.536 3.476,234.173 2.723,237.400 1.134 L 239.800 -0.049 234.600 0.172 C 231.740 0.293,228.103 0.504,226.518 0.640 C 224.890 0.780,222.473 0.686,220.966 0.423 C 218.546 0.002,218.216 0.028,217.448 0.697 C 216.055 1.912,214.786 2.327,211.000 2.807 C 209.020 3.058,206.064 3.628,204.432 4.072 C 201.000 5.006,195.713 4.933,187.400 3.835 C 184.760 3.487,179.990 3.013,176.800 2.783 C 173.610 2.553,170.550 2.213,170.000 2.028 C 169.450 1.843,168.100 1.675,167.000 1.655 C 165.509 1.627,164.831 1.412,164.336 0.809 C 163.731 0.072,163.216 0.001,158.536 0.016 L 153.400 0.032 154.850 0.757 M272.807 1.300 C 272.811 2.015,273.081 4.220,273.408 6.200 C 273.918 9.289,273.945 12.698,273.601 30.200 C 272.805 70.582,269.195 89.103,255.274 124.200 C 231.390 184.420,182.115 233.322,122.600 255.871 C 92.871 267.134,70.492 270.975,31.200 271.556 L 9.800 271.873 4.901 273.037 C 2.206 273.676,0.001 274.335,0.001 274.500 C -0.000 275.031,1.457 274.824,5.271 273.752 C 8.642 272.804,9.807 272.690,17.400 272.560 C 55.280 271.915,61.042 271.578,75.400 269.167 C 163.208 254.422,229.610 198.104,260.523 112.157 C 271.182 82.522,273.608 68.702,274.469 32.699 C 274.984 11.180,274.972 10.028,274.190 5.856 C 273.865 4.127,273.600 2.102,273.600 1.356 C 273.600 0.610,273.420 0.000,273.200 0.000 C 272.980 0.000,272.803 0.585,272.807 1.300 M398.681 0.987 C 399.385 1.954,400.013 2.297,399.987 1.700 C 399.964 1.148,398.917 0.000,398.437 0.000 C 398.137 0.000,398.227 0.363,398.681 0.987 M362.700 41.632 C 361.594 42.276,361.783 44.318,363.000 44.873 C 364.413 45.517,366.000 44.757,366.000 43.437 C 366.000 41.623,364.307 40.696,362.700 41.632 M397.407 44.141 C 392.939 48.609,392.042 60.598,396.000 62.936 C 396.660 63.326,397.200 63.870,397.200 64.146 C 397.200 64.747,399.174 67.200,399.658 67.200 C 399.846 67.200,400.000 65.264,400.000 62.898 L 400.000 58.595 398.789 58.059 C 395.555 56.628,395.576 48.363,398.819 46.190 C 399.815 45.523,399.998 45.136,399.999 43.700 C 400.000 41.561,399.984 41.564,397.407 44.141 M399.054 74.161 C 398.365 75.665,398.365 75.791,399.069 77.561 L 399.800 79.400 399.923 77.700 C 399.991 76.765,399.984 75.235,399.908 74.300 L 399.771 72.600 399.054 74.161 M399.443 260.495 C 399.260 261.537,399.259 262.887,399.441 263.495 C 399.849 264.863,400.149 262.703,399.912 260.100 L 399.775 258.600 399.443 260.495 M399.264 274.219 C 398.594 275.690,398.692 280.424,399.413 281.376 C 399.940 282.074,400.000 281.698,400.000 277.676 C 400.000 272.847,399.965 272.681,399.264 274.219 M0.000 332.122 L 0.000 381.216 0.938 382.708 C 1.453 383.529,2.188 384.863,2.570 385.672 C 5.223 391.295,12.643 395.997,18.872 396.004 C 20.702 396.006,25.620 396.197,29.800 396.428 C 38.261 396.897,47.259 397.161,61.000 397.345 C 66.060 397.413,70.740 397.650,71.400 397.871 C 72.202 398.141,77.704 398.147,88.000 397.891 C 102.144 397.538,108.519 397.451,120.000 397.455 C 131.175 397.459,136.914 397.625,140.280 398.042 C 143.079 398.389,144.742 398.384,147.221 398.021 C 149.735 397.653,151.685 397.652,155.741 398.015 C 164.964 398.842,175.877 398.598,184.429 397.374 C 185.529 397.216,187.442 397.350,189.229 397.710 C 191.634 398.195,194.517 398.269,204.375 398.098 C 211.071 397.982,222.861 398.109,230.575 398.381 C 241.828 398.777,246.142 398.774,252.400 398.367 C 257.103 398.061,265.203 397.920,272.800 398.011 C 289.642 398.214,297.755 398.122,307.800 397.614 C 313.627 397.320,317.180 397.317,319.400 397.604 C 323.741 398.167,364.210 398.861,366.000 398.403 C 366.770 398.207,371.000 397.942,375.400 397.814 C 387.193 397.472,389.346 396.844,395.000 392.102 C 395.880 391.364,396.780 390.626,397.000 390.462 C 397.220 390.298,397.985 389.734,398.700 389.207 C 399.771 388.418,400.000 387.982,400.000 386.726 L 400.000 385.203 397.097 388.116 C 392.624 392.603,388.990 394.805,384.725 395.614 C 378.579 396.780,330.430 397.244,320.876 396.229 C 316.976 395.816,314.193 395.757,310.476 396.011 C 303.975 396.454,288.476 396.633,270.200 396.476 C 262.280 396.409,253.123 396.543,249.851 396.775 C 245.703 397.070,240.195 397.072,231.651 396.784 C 224.913 396.556,212.920 396.385,205.000 396.403 C 197.080 396.421,189.520 396.291,188.200 396.114 C 186.880 395.937,184.540 395.953,183.000 396.149 C 179.492 396.595,141.681 396.527,134.400 396.061 C 131.430 395.871,122.880 395.794,115.400 395.889 C 78.069 396.364,54.961 395.991,24.200 394.415 C 15.234 393.956,13.397 393.587,10.304 391.625 C 7.173 389.639,3.163 384.155,2.574 381.051 C 2.485 380.583,2.123 379.044,1.770 377.630 C 1.214 375.405,1.194 374.539,1.622 371.178 C 2.003 368.189,2.012 366.475,1.659 363.721 C 1.177 359.968,1.105 346.702,1.543 342.600 C 1.712 341.025,1.536 338.454,1.032 335.121 C 0.387 330.854,0.336 329.607,0.716 327.321 C 1.771 320.976,2.148 314.067,1.678 309.675 C 0.754 301.037,0.726 299.776,1.405 297.441 C 2.401 294.017,1.838 285.018,0.541 283.614 C 0.086 283.122,0.000 290.837,0.000 332.122 M357.900 345.076 C 357.044 345.299,356.536 347.090,357.081 347.962 C 358.040 349.493,360.800 348.760,360.800 346.974 C 360.800 346.173,359.432 344.710,358.811 344.846 C 358.695 344.872,358.285 344.975,357.900 345.076 M45.280 345.680 C 43.862 347.098,45.862 349.277,47.405 347.996 C 48.526 347.065,47.856 345.200,46.400 345.200 C 46.048 345.200,45.544 345.416,45.280 345.680 " stroke="none" fill="#3c443c" fill-rule="evenodd"></path><path id="path8" d="M0.302 0.232 C 0.174 0.359,0.047 3.387,0.020 6.961 L -0.030 13.458 0.941 13.900 C 3.676 15.146,3.838 24.028,1.244 30.510 C -0.065 33.784,-0.302 36.004,0.458 37.874 C 1.305 39.956,1.518 42.904,0.973 45.016 C -0.125 49.279,-0.272 71.312,0.784 73.565 C 1.674 75.467,1.678 75.536,1.002 77.650 C -0.066 80.991,-0.383 105.991,0.590 110.113 C 2.548 118.405,2.944 119.016,7.458 120.680 C 13.902 123.055,37.767 122.537,50.340 119.749 C 71.000 115.167,91.167 102.779,103.920 86.838 C 121.289 65.126,126.433 50.526,127.610 19.600 C 127.873 12.684,128.181 9.249,128.777 6.600 C 129.857 1.796,129.863 0.000,128.800 0.000 C 128.270 0.000,128.000 0.267,128.000 0.791 C 128.000 1.227,127.190 4.111,126.200 7.200 L 124.400 12.817 124.400 19.784 C 124.400 47.687,120.057 61.031,103.924 82.692 C 91.784 98.993,72.621 111.524,52.148 116.549 C 35.868 120.546,11.747 120.626,7.694 116.697 C 5.132 114.214,4.051 102.616,5.147 89.382 C 6.185 76.860,6.447 70.508,6.091 66.550 C 5.437 59.279,6.810 37.422,8.237 32.400 C 11.928 19.405,11.612 15.720,6.467 11.800 C 2.867 9.056,2.360 8.069,2.272 3.616 C 2.201 0.055,1.567 -1.034,0.302 0.232 M274.800 1.204 C 274.800 1.867,275.172 4.072,275.627 6.104 C 276.555 10.249,276.625 12.993,276.030 22.092 C 275.804 25.553,275.715 28.634,275.832 28.939 C 276.134 29.727,275.275 55.619,274.791 60.296 C 273.510 72.679,269.489 90.896,265.454 102.600 C 252.115 141.290,236.079 169.897,213.717 194.895 C 177.702 235.156,132.698 260.117,78.400 269.948 C 60.533 273.183,61.988 273.072,30.600 273.589 C 2.475 274.052,1.048 274.520,4.500 282.133 C 5.944 285.317,6.007 286.245,5.611 298.400 C 5.463 302.943,5.583 305.102,6.165 308.359 C 6.886 312.394,6.886 312.701,6.185 318.559 C 5.720 322.441,5.513 326.387,5.605 329.600 C 5.808 336.641,5.810 340.255,5.628 360.400 C 5.451 379.904,5.447 379.862,7.819 383.808 C 11.067 389.213,12.724 390.019,21.400 390.416 C 24.920 390.577,29.901 390.943,32.468 391.229 C 36.301 391.656,37.920 391.655,41.520 391.227 C 44.752 390.843,46.258 390.820,47.252 391.140 C 49.718 391.933,55.681 392.442,59.365 392.174 C 61.864 391.993,64.750 392.126,68.600 392.600 C 75.651 393.469,98.378 393.609,103.400 392.815 C 105.665 392.456,108.703 392.389,113.800 392.585 C 118.557 392.768,122.178 392.704,124.472 392.397 C 127.369 392.009,128.858 392.045,133.472 392.612 C 138.584 393.240,164.453 393.470,186.200 393.080 C 188.400 393.040,198.570 393.186,208.800 393.404 C 227.620 393.805,238.347 393.830,264.800 393.538 C 272.830 393.449,281.200 393.522,283.400 393.700 C 286.878 393.981,296.687 393.721,312.871 392.919 C 315.008 392.813,319.307 392.995,322.471 393.325 C 330.824 394.198,369.257 393.830,381.332 392.762 C 389.419 392.047,397.600 385.823,397.600 380.387 C 397.600 379.722,399.148 376.479,399.599 376.201 C 400.145 375.863,400.112 368.040,399.558 366.451 C 399.230 365.511,399.235 365.040,399.577 364.628 C 400.299 363.758,400.106 298.162,399.378 296.800 C 398.645 295.429,396.389 288.959,395.961 287.000 C 395.769 286.120,395.410 284.680,395.164 283.800 C 394.096 279.977,393.838 276.811,394.323 273.457 C 394.585 271.643,394.800 268.422,394.800 266.300 C 394.800 263.335,395.025 261.718,395.773 259.321 C 397.117 255.007,397.531 252.262,397.771 246.054 C 397.885 243.114,398.143 240.504,398.343 240.254 C 398.544 240.004,398.785 237.640,398.879 235.000 C 398.972 232.360,399.263 229.807,399.524 229.326 C 400.328 227.851,400.126 222.416,399.200 220.600 C 398.203 218.645,398.204 218.104,399.202 216.600 C 400.082 215.274,400.464 154.734,399.595 154.197 C 399.375 154.061,399.316 151.399,399.452 147.683 C 399.635 142.663,399.554 140.927,399.049 139.048 C 398.701 137.755,398.519 136.531,398.644 136.329 C 398.838 136.015,399.533 125.645,399.699 120.600 C 399.728 119.720,399.370 118.100,398.903 117.000 C 395.461 108.890,395.515 100.973,399.048 95.768 C 400.516 93.604,400.474 86.569,398.982 84.611 C 398.421 83.877,397.241 81.504,396.358 79.338 C 393.763 72.971,393.283 72.573,388.024 72.434 C 382.528 72.289,382.434 71.926,386.338 65.896 C 389.523 60.977,390.183 58.950,390.792 52.235 C 391.253 47.137,391.890 45.336,394.548 41.603 C 397.185 37.901,397.367 37.179,397.281 30.800 C 397.152 21.303,397.458 18.589,398.838 17.017 L 400.000 15.694 400.000 9.439 L 400.000 3.183 398.975 2.716 C 398.350 2.431,397.862 1.810,397.725 1.124 C 397.481 -0.094,396.392 -0.446,396.413 0.700 C 396.420 1.085,396.774 2.390,397.200 3.600 C 398.792 8.126,396.996 11.574,392.483 12.652 C 391.887 12.794,391.220 13.016,391.000 13.144 C 390.780 13.272,390.348 13.416,390.041 13.462 C 388.363 13.716,388.420 14.516,390.409 18.600 C 395.414 28.881,394.600 34.867,387.137 42.657 C 384.053 45.877,383.956 46.249,385.256 49.837 C 389.408 61.295,379.218 72.921,365.000 72.949 C 348.573 72.982,338.341 62.638,342.945 50.652 C 344.419 46.814,344.345 46.284,342.021 44.020 C 335.641 37.806,330.262 38.899,329.167 46.631 C 328.134 53.924,329.802 61.020,333.579 65.400 C 339.056 71.751,343.170 78.784,344.145 83.464 C 345.416 89.563,346.349 90.075,351.364 87.430 L 354.834 85.600 359.317 85.597 C 363.376 85.595,364.416 85.426,370.311 83.815 C 384.051 80.059,388.948 80.164,392.257 84.283 C 395.791 88.681,395.768 91.810,392.154 98.057 C 387.680 105.793,384.833 106.346,381.830 100.064 C 380.471 97.219,379.661 96.680,376.805 96.721 C 370.850 96.805,369.408 99.186,371.019 106.275 C 372.244 111.665,373.236 113.657,376.274 116.826 L 378.025 118.652 377.748 126.979 L 377.471 135.305 374.955 137.922 C 370.239 142.828,370.961 145.620,377.363 147.233 C 380.037 147.906,384.400 145.782,384.400 143.807 C 384.400 143.533,384.775 142.832,385.232 142.250 L 386.065 141.192 387.241 142.029 C 388.477 142.909,389.996 145.466,390.006 146.684 C 390.011 147.292,390.070 147.310,390.399 146.800 C 390.680 146.364,390.771 146.636,390.732 147.800 C 390.702 148.680,390.912 150.660,391.200 152.200 C 392.382 158.536,392.357 162.620,391.122 165.129 C 389.971 167.465,389.958 170.320,391.086 172.800 C 391.537 173.790,392.141 175.230,392.430 176.000 C 392.718 176.770,393.126 177.517,393.334 177.659 C 394.695 178.586,394.573 189.174,393.187 190.400 C 392.841 190.706,392.000 193.785,392.000 194.746 C 392.000 195.216,391.820 195.600,391.600 195.600 C 391.380 195.600,391.200 195.953,391.200 196.384 C 391.200 198.019,389.213 199.270,387.000 199.026 C 383.337 198.623,382.626 200.474,383.970 206.914 C 385.596 214.701,385.496 221.226,383.720 223.265 C 382.601 224.547,382.900 227.923,384.386 230.800 C 387.000 235.860,387.200 236.379,387.182 238.081 C 387.173 239.026,386.885 240.520,386.542 241.400 C 385.157 244.958,385.021 246.457,385.905 248.400 C 387.151 251.136,387.342 253.416,386.660 257.424 C 386.326 259.391,385.856 262.323,385.616 263.940 C 384.908 268.708,383.845 270.149,379.600 272.096 C 377.738 272.950,376.204 274.099,374.197 276.144 C 371.791 278.596,371.046 279.104,368.937 279.731 C 365.678 280.701,362.110 283.665,358.132 288.708 C 356.443 290.848,354.181 293.547,353.104 294.705 C 350.344 297.672,350.524 298.315,354.475 299.600 C 359.093 301.102,360.392 302.776,360.398 307.230 C 360.403 311.851,368.939 312.910,371.739 308.637 C 372.102 308.083,375.099 304.922,378.399 301.614 C 386.085 293.908,386.253 293.889,388.846 300.400 C 389.591 302.270,390.335 303.860,390.500 303.933 C 390.665 304.007,390.800 304.427,390.800 304.867 C 390.800 305.307,391.701 308.339,392.802 311.605 C 398.274 327.840,396.347 336.801,385.879 343.796 C 379.554 348.023,378.784 349.466,380.497 353.885 C 385.010 365.527,374.280 376.800,358.685 376.800 C 343.433 376.800,333.553 366.085,337.688 354.027 C 338.916 350.446,338.724 349.569,336.205 347.247 C 327.181 338.929,319.446 345.445,322.928 358.432 C 323.484 360.504,324.133 363.498,324.370 365.084 C 325.245 370.921,328.929 376.128,335.075 380.211 C 343.645 385.905,343.788 386.920,336.109 387.568 C 326.681 388.364,322.586 386.754,321.232 381.721 C 320.926 380.584,319.953 379.140,318.219 377.250 C 316.810 375.715,315.329 373.950,314.929 373.329 C 313.156 370.580,310.962 369.579,306.366 369.422 C 303.203 369.314,301.417 368.765,300.400 367.587 C 297.528 364.259,294.842 363.664,290.444 365.383 C 288.437 366.167,285.401 366.998,283.697 367.229 C 277.436 368.080,275.245 370.187,278.759 371.979 C 282.364 373.818,287.860 374.013,293.970 372.517 C 296.077 372.002,299.150 371.539,300.800 371.490 L 303.800 371.400 306.345 373.358 L 308.891 375.316 308.698 377.325 C 308.591 378.430,308.248 379.529,307.936 379.767 C 307.623 380.005,307.036 380.906,306.632 381.769 C 305.882 383.371,304.268 384.968,302.447 385.913 C 300.839 386.748,289.605 387.709,285.000 387.407 C 282.800 387.263,278.750 386.997,276.000 386.817 C 272.808 386.608,269.936 386.165,268.058 385.593 C 264.449 384.493,262.353 384.629,256.247 386.358 C 251.206 387.786,246.103 388.510,243.336 388.189 C 238.246 387.600,223.906 387.325,219.308 387.729 C 210.540 388.499,199.200 385.385,199.200 382.207 C 199.200 380.066,196.425 380.680,192.121 383.773 C 189.891 385.375,180.488 387.141,177.278 386.561 C 173.777 385.927,172.945 385.022,170.997 379.730 C 168.800 373.760,168.907 373.448,174.942 368.178 C 177.361 366.065,177.335 365.557,174.500 359.752 L 172.200 355.042 172.158 350.339 C 172.103 344.276,170.840 342.400,166.813 342.400 C 164.918 342.400,162.074 344.371,162.014 345.726 C 162.006 345.906,161.071 347.616,159.936 349.526 C 158.800 351.437,157.218 354.524,156.419 356.387 C 154.315 361.297,151.719 362.367,146.287 360.562 C 139.096 358.174,134.800 352.917,134.800 346.507 C 134.800 341.843,133.375 340.000,129.767 340.000 C 124.969 340.000,121.698 345.997,121.229 355.653 C 120.948 361.453,120.930 361.537,119.273 364.991 C 117.321 369.059,117.234 370.220,118.662 373.200 C 120.312 376.644,120.019 382.492,118.117 384.068 C 117.651 384.455,115.936 384.601,111.838 384.604 C 106.954 384.607,105.825 384.735,103.400 385.561 C 96.673 387.851,79.476 386.781,76.797 383.905 C 75.390 382.395,75.705 379.944,77.555 377.999 L 79.110 376.364 82.655 376.624 L 86.200 376.883 93.400 373.385 C 100.523 369.924,100.632 369.887,103.553 369.918 C 105.592 369.940,106.798 369.758,107.453 369.329 C 109.786 367.800,107.360 365.252,104.651 366.385 C 101.705 367.617,100.713 367.444,96.364 364.941 C 90.743 361.705,90.519 361.141,92.864 356.099 C 93.505 354.721,93.813 353.103,93.986 350.200 C 94.202 346.566,94.351 345.986,95.612 343.866 C 97.907 340.005,97.988 339.836,97.994 338.847 C 98.002 337.509,95.813 335.588,92.974 334.442 C 87.176 332.101,87.305 329.919,93.344 328.175 C 101.047 325.950,102.437 320.036,96.016 316.808 C 90.245 313.907,88.810 314.187,84.538 319.053 C 81.110 322.958,78.359 323.829,75.344 321.965 C 73.106 320.582,69.408 312.705,68.403 307.184 C 68.145 305.763,67.785 304.240,67.603 303.800 C 67.421 303.360,67.147 302.640,66.994 302.200 C 66.841 301.760,66.742 298.321,66.776 294.558 C 66.856 285.476,65.957 283.995,60.344 283.956 C 57.254 283.934,50.438 286.886,49.909 288.474 C 49.580 289.459,47.327 288.866,45.759 287.382 C 39.905 281.845,35.968 280.773,27.600 282.438 C 18.755 284.199,13.253 283.589,10.970 280.596 C 8.517 277.380,10.034 276.961,25.353 276.615 C 32.367 276.457,38.487 276.270,38.953 276.199 C 39.419 276.129,40.700 275.930,41.800 275.758 C 42.900 275.585,48.390 275.428,54.000 275.408 C 63.999 275.373,64.307 275.347,69.600 274.102 C 72.570 273.403,77.970 272.280,81.600 271.607 C 85.230 270.934,89.190 270.194,90.400 269.961 C 103.028 267.532,135.017 256.150,143.000 251.245 C 143.880 250.705,148.186 248.386,152.569 246.093 C 177.864 232.858,203.891 210.737,224.662 184.821 C 230.996 176.917,248.000 150.488,248.000 148.546 C 248.000 148.472,250.402 143.594,253.338 137.706 C 256.274 131.818,259.618 124.480,260.768 121.400 C 261.919 118.320,263.912 113.095,265.198 109.789 C 273.989 87.187,277.248 69.222,278.001 39.200 C 278.224 30.290,278.586 21.239,278.804 19.086 C 279.458 12.628,279.331 11.001,277.800 6.228 C 277.030 3.827,276.400 1.444,276.400 0.931 C 276.400 0.267,276.171 0.000,275.600 0.000 C 274.977 0.000,274.800 0.267,274.800 1.204 M368.800 33.200 C 365.038 34.646,362.860 34.688,359.385 33.380 C 353.858 31.299,352.002 32.542,352.001 38.326 C 352.000 41.731,351.746 42.340,349.254 44.916 C 346.978 47.268,346.719 49.713,348.419 52.793 C 350.649 56.832,353.241 57.285,358.756 54.600 C 361.128 53.446,362.992 52.800,363.953 52.800 C 364.939 52.800,366.656 53.415,368.978 54.600 C 374.297 57.314,377.011 56.830,379.074 52.800 C 381.078 48.886,380.860 47.648,377.418 43.376 C 376.338 42.036,376.215 41.563,375.994 37.899 C 375.628 31.834,374.415 31.041,368.800 33.200 M369.217 38.220 C 369.500 38.561,370.038 40.406,370.412 42.320 C 370.787 44.234,371.334 46.654,371.629 47.698 C 372.388 50.386,371.935 50.736,368.817 49.869 C 365.740 49.013,362.213 49.018,358.969 49.883 C 355.546 50.795,355.246 50.481,356.340 47.136 C 356.796 45.741,357.378 43.363,357.634 41.850 C 358.319 37.802,358.629 37.600,364.151 37.600 C 367.774 37.600,368.807 37.726,369.217 38.220 M317.513 310.666 C 317.134 310.769,315.919 312.099,314.812 313.622 C 312.248 317.147,310.738 318.120,305.800 319.431 C 296.335 321.943,294.155 324.940,299.073 328.679 C 300.474 329.744,300.749 329.798,304.574 329.756 C 311.609 329.680,314.073 328.756,316.189 325.400 C 316.606 324.740,318.242 322.839,319.825 321.176 C 321.635 319.275,322.807 317.679,322.983 316.878 C 323.703 313.601,320.417 309.871,317.513 310.666 M53.018 312.178 C 63.121 315.559,72.050 321.902,74.727 327.600 C 77.871 334.291,77.043 338.939,71.719 344.479 C 67.153 349.232,66.975 349.732,68.245 354.238 C 72.817 370.464,52.545 382.481,34.885 374.012 C 26.465 369.974,22.912 362.678,25.338 354.408 C 26.604 350.093,26.443 349.662,21.707 344.691 C 16.677 339.411,15.410 336.223,16.401 331.348 C 17.945 323.755,21.584 320.493,35.200 314.498 C 45.117 310.131,46.401 309.964,53.018 312.178 M278.775 327.225 C 277.625 328.375,277.921 329.372,279.457 329.522 C 280.847 329.657,282.545 328.042,282.135 326.974 C 281.808 326.123,279.722 326.278,278.775 327.225 M252.525 336.071 C 247.597 338.636,245.659 341.068,246.818 343.233 C 247.792 345.053,251.005 343.687,254.719 339.873 C 259.209 335.261,258.024 333.208,252.525 336.071 M36.092 336.268 C 35.038 336.692,34.400 338.760,34.400 341.754 C 34.400 345.424,34.164 346.074,31.840 348.796 C 29.722 351.278,29.426 353.297,30.752 356.217 C 32.699 360.502,35.750 361.072,41.378 358.200 C 45.799 355.944,46.611 355.944,51.055 358.197 C 56.395 360.905,59.307 360.482,61.255 356.716 C 62.762 353.803,62.539 351.375,60.528 348.767 C 58.318 345.901,58.000 344.943,58.000 341.156 C 58.000 335.970,56.655 335.167,51.039 337.000 C 47.203 338.252,44.956 338.250,41.400 336.993 C 38.707 336.041,37.175 335.832,36.092 336.268 M348.330 336.415 C 347.305 337.013,346.693 339.370,346.994 341.560 C 347.380 344.365,346.685 346.350,344.402 348.959 C 341.621 352.137,341.758 355.453,344.797 358.491 C 347.003 360.698,349.032 360.625,353.825 358.167 C 358.188 355.929,359.286 355.949,363.944 358.347 C 369.155 361.030,372.149 360.398,374.048 356.217 C 375.294 353.473,375.054 351.403,373.213 349.017 C 370.954 346.089,370.285 344.291,370.600 341.996 C 371.351 336.540,369.006 334.904,363.438 337.000 C 361.813 337.612,359.949 338.000,358.638 338.000 C 357.327 338.000,355.464 337.612,353.838 337.000 C 351.029 335.943,349.431 335.773,348.330 336.415 M50.579 341.592 C 51.882 342.088,52.127 342.735,53.205 348.550 C 54.231 354.087,54.184 354.182,50.856 353.309 C 48.656 352.732,44.742 352.781,40.048 353.446 L 38.295 353.694 38.504 352.547 C 38.862 350.579,40.043 345.069,40.437 343.531 C 40.979 341.415,47.057 340.253,50.579 341.592 M363.818 342.046 C 364.173 342.401,364.799 344.381,365.210 346.446 C 365.621 348.511,366.145 350.825,366.376 351.588 C 367.039 353.786,366.329 354.211,363.302 353.426 C 360.287 352.645,357.252 352.635,354.400 353.397 C 350.796 354.361,350.246 353.808,351.389 350.371 C 351.713 349.397,352.156 347.453,352.374 346.052 C 353.075 341.552,353.553 341.235,359.486 341.337 C 362.284 341.385,363.328 341.556,363.818 342.046 M312.003 350.706 C 307.757 352.797,306.229 356.775,308.831 358.964 C 312.435 361.997,318.123 356.741,316.205 352.150 C 315.227 349.810,314.400 349.526,312.003 350.706 M158.620 368.657 C 160.714 370.751,161.373 372.960,161.279 377.570 C 161.110 385.770,160.921 385.949,151.901 386.456 C 139.119 387.173,134.000 385.213,134.000 379.600 C 134.000 375.240,136.980 373.205,146.257 371.228 C 148.378 370.776,151.066 369.854,152.657 369.033 C 155.969 367.322,157.208 367.244,158.620 368.657 M232.090 371.514 C 229.524 371.922,229.526 375.612,232.091 375.587 C 233.845 375.570,234.800 374.771,234.800 373.320 C 234.800 371.999,233.690 371.259,232.090 371.514 M48.499 380.564 C 55.117 380.695,55.524 381.200,50.859 383.491 C 46.763 385.502,40.221 384.385,36.200 380.987 L 35.000 379.973 39.200 380.218 C 41.510 380.353,45.695 380.509,48.499 380.564 " stroke="none" fill="#646464" fill-rule="evenodd"></path></g></svg>