<svg id="svg" version="1.1" xmlns="http://www.w3.org/2000/svg" xmlns:xlink="http://www.w3.org/1999/xlink" width="400" height="400" viewBox="0, 0, 400,400"><g id="svgg"><path id="path0" d="M-0.000 12.224 C -0.000 19.107,0.128 21.968,0.429 21.782 C 0.931 21.472,0.815 2.400,0.311 2.400 C 0.140 2.400,-0.000 6.821,-0.000 12.224 M399.551 9.700 C 399.298 10.213,399.373 20.345,399.633 20.800 C 399.835 21.154,399.981 18.984,399.988 15.500 C 399.998 10.559,399.883 9.027,399.551 9.700 M399.693 44.800 C 399.693 45.570,399.775 45.885,399.876 45.500 C 399.976 45.115,399.976 44.485,399.876 44.100 C 399.775 43.715,399.693 44.030,399.693 44.800 M399.770 59.200 C 399.770 63.930,399.828 65.865,399.898 63.500 C 399.969 61.135,399.969 57.265,399.898 54.900 C 399.828 52.535,399.770 54.470,399.770 59.200 M0.131 107.200 C 0.133 135.690,0.249 156.660,0.387 153.800 C 1.004 141.048,1.106 78.593,0.532 65.000 C 0.211 57.403,0.127 66.207,0.131 107.200 M399.567 74.500 C 399.374 89.154,399.417 165.630,399.620 167.600 C 399.766 169.030,399.912 148.105,399.943 121.100 C 399.974 94.095,399.910 72.000,399.800 72.000 C 399.690 72.000,399.585 73.125,399.567 74.500 M0.144 182.800 C 0.144 184.890,0.212 185.745,0.294 184.700 C 0.376 183.655,0.376 181.945,0.294 180.900 C 0.212 179.855,0.144 180.710,0.144 182.800 M399.436 196.100 C 399.080 199.549,399.239 211.019,399.651 211.669 C 399.839 211.965,399.990 208.088,399.994 202.900 C 400.000 193.292,399.878 191.805,399.436 196.100 M0.032 217.167 C 0.014 230.018,0.086 240.447,0.191 240.342 C 0.939 239.595,0.951 196.322,0.204 194.200 C 0.127 193.980,0.049 204.315,0.032 217.167 M399.512 231.100 C 399.322 232.006,399.634 250.947,399.842 251.167 C 399.929 251.258,400.000 246.623,400.000 240.867 C 400.000 231.212,399.901 229.240,399.512 231.100 M0.131 243.800 C 0.133 245.340,0.205 245.921,0.292 245.091 C 0.379 244.261,0.377 243.001,0.289 242.291 C 0.200 241.581,0.129 242.260,0.131 243.800 M399.728 254.800 C 399.728 256.230,399.801 256.815,399.889 256.100 C 399.978 255.385,399.978 254.215,399.889 253.500 C 399.801 252.785,399.728 253.370,399.728 254.800 M0.082 275.400 C 0.067 281.975,0.198 286.270,0.400 285.800 C 0.828 284.805,0.843 268.924,0.418 266.200 C 0.227 264.970,0.097 268.514,0.082 275.400 M399.480 287.335 C 399.140 288.222,399.213 304.038,399.569 306.400 C 399.795 307.902,399.916 305.141,399.950 297.700 C 399.998 287.279,399.945 286.123,399.480 287.335 M0.093 308.400 C 0.093 309.170,0.175 309.485,0.276 309.100 C 0.376 308.715,0.376 308.085,0.276 307.700 C 0.175 307.315,0.093 307.630,0.093 308.400 M0.075 313.800 L 0.097 317.000 0.477 314.628 C 0.727 313.072,0.719 311.971,0.456 311.428 C 0.153 310.803,0.059 311.386,0.075 313.800 M0.120 320.000 C 0.120 321.210,0.195 321.705,0.287 321.100 C 0.378 320.495,0.378 319.505,0.287 318.900 C 0.195 318.295,0.120 318.790,0.120 320.000 M399.501 324.900 C 399.276 325.509,399.571 335.304,399.822 335.555 C 399.920 335.653,400.000 333.183,400.000 330.067 C 400.000 324.657,399.915 323.778,399.501 324.900 M0.109 331.600 C 0.109 332.590,0.187 332.995,0.282 332.500 C 0.378 332.005,0.378 331.195,0.282 330.700 C 0.187 330.205,0.109 330.610,0.109 331.600 M0.000 352.800 C 0.000 359.693,0.117 365.216,0.260 365.073 C 0.594 364.739,0.584 340.851,0.250 340.517 C 0.113 340.379,0.000 345.907,0.000 352.800 M399.480 343.900 C 399.188 346.379,399.419 363.952,399.747 364.281 C 399.886 364.420,400.000 359.463,400.000 353.267 C 400.000 342.037,399.903 340.297,399.480 343.900 M4.948 395.293 C 3.399 396.215,0.800 398.788,0.800 399.399 C 0.800 399.933,23.091 400.000,200.400 400.000 L 400.000 400.000 400.000 398.400 C 400.000 396.864,399.538 396.330,398.984 397.226 C 398.807 397.512,398.504 397.462,398.060 397.073 C 396.756 395.928,393.959 394.759,393.145 395.018 C 392.107 395.347,12.715 395.362,8.763 395.033 C 6.693 394.861,5.543 394.939,4.948 395.293 " stroke="none" fill="#b0611f" fill-rule="evenodd"></path><path id="path1" d="M13.274 4.838 C 7.204 6.080,6.761 10.395,7.538 60.800 C 7.865 82.073,7.902 103.532,7.659 131.200 C 7.466 153.090,7.428 180.450,7.574 192.000 C 7.720 203.550,7.768 227.760,7.682 245.800 C 7.596 263.840,7.554 297.595,7.589 320.812 C 7.645 357.540,7.566 363.984,6.980 370.412 C 5.793 383.436,6.388 387.794,9.602 389.593 L 11.400 390.600 186.600 390.682 C 282.960 390.728,367.756 390.780,375.036 390.799 C 395.418 390.852,395.480 390.779,393.395 369.444 C 392.742 362.762,392.641 340.968,392.950 273.800 C 392.978 267.860,392.969 246.710,392.932 226.800 C 392.894 206.890,392.860 189.070,392.857 187.200 C 392.853 185.330,392.841 145.280,392.829 98.200 C 392.813 37.592,392.678 11.975,392.367 10.461 C 391.889 8.137,389.805 5.367,388.239 4.974 C 387.056 4.677,14.722 4.542,13.274 4.838 " stroke="none" fill="#471c04" fill-rule="evenodd"></path><path id="path2" d="M264.628 0.306 C 264.558 0.375,205.304 0.470,132.951 0.516 C 60.598 0.562,1.164 0.752,0.876 0.939 C 0.487 1.190,0.936 1.889,2.622 3.658 L 4.893 6.038 4.659 11.519 C 4.152 23.389,3.574 47.909,3.757 49.800 C 4.816 60.775,4.968 141.514,3.963 159.800 C 3.584 166.698,3.624 170.997,4.298 195.600 C 4.609 206.926,4.624 210.889,4.491 247.000 C 4.448 258.660,4.424 271.800,4.436 276.200 C 4.449 280.600,4.238 285.898,3.968 287.973 C 3.618 290.665,3.564 294.448,3.778 301.173 C 5.096 342.452,4.306 369.918,1.747 371.789 C 0.997 372.338,0.854 385.251,1.570 387.859 C 1.959 389.275,4.016 391.200,5.140 391.200 C 5.334 391.200,6.007 391.605,6.636 392.100 L 7.780 393.000 200.190 393.000 L 392.600 393.000 394.600 392.071 C 398.514 390.253,398.578 390.194,398.901 388.126 C 399.273 385.747,398.869 372.137,398.400 371.248 C 398.212 370.891,397.791 369.700,397.466 368.600 C 395.950 363.475,395.882 362.228,396.039 342.600 C 396.199 322.593,396.186 316.073,395.950 298.400 C 395.852 290.989,395.956 287.198,396.296 285.800 C 396.564 284.700,396.871 281.768,396.978 279.284 C 397.085 276.800,397.250 274.640,397.344 274.484 C 397.439 274.328,397.227 271.410,396.874 268.000 C 396.366 263.093,396.222 256.670,396.185 237.200 C 396.159 223.670,396.018 210.532,395.871 208.005 C 395.725 205.478,395.795 200.618,396.027 197.205 C 396.499 190.242,396.551 177.350,396.134 170.400 C 395.872 166.032,395.843 124.042,396.047 42.016 L 396.139 5.032 397.704 3.334 C 399.861 0.993,399.702 0.919,391.903 0.637 C 384.922 0.385,264.861 0.072,264.628 0.306 M388.239 4.974 C 389.805 5.367,391.889 8.137,392.367 10.461 C 392.678 11.975,392.813 37.592,392.829 98.200 C 392.841 145.280,392.853 185.330,392.857 187.200 C 392.860 189.070,392.894 206.890,392.932 226.800 C 392.969 246.710,392.978 267.860,392.950 273.800 C 392.641 340.968,392.742 362.762,393.395 369.444 C 395.480 390.779,395.418 390.852,375.036 390.799 C 367.756 390.780,282.960 390.728,186.600 390.682 L 11.400 390.600 9.602 389.593 C 6.388 387.794,5.793 383.436,6.980 370.412 C 7.566 363.984,7.645 357.540,7.589 320.812 C 7.554 297.595,7.596 263.840,7.682 245.800 C 7.768 227.760,7.720 203.550,7.574 192.000 C 7.428 180.450,7.466 153.090,7.659 131.200 C 7.902 103.532,7.865 82.073,7.538 60.800 C 6.761 10.395,7.204 6.080,13.274 4.838 C 14.722 4.542,387.056 4.677,388.239 4.974 " stroke="none" fill="#702f06" fill-rule="evenodd"></path><path id="path3" d="M0.000 1.200 C 0.000 1.860,0.140 2.400,0.310 2.400 C 0.828 2.400,0.927 21.165,0.413 21.784 C -0.144 22.456,0.164 64.428,0.792 73.400 C 1.223 79.554,1.074 115.175,0.498 143.800 C 0.137 161.742,0.233 201.048,0.649 205.200 C 0.972 208.435,0.940 217.406,0.555 231.400 C 0.421 236.240,0.344 246.230,0.383 253.600 C 0.422 260.970,0.438 271.230,0.419 276.400 C 0.374 288.587,0.384 311.002,0.435 312.800 C 0.457 313.570,0.432 320.140,0.380 327.400 C 0.329 334.660,0.292 345.730,0.299 352.000 C 0.306 358.270,0.233 371.635,0.137 381.700 C 0.016 394.296,0.093 400.000,0.381 400.000 C 0.611 400.000,0.800 399.730,0.800 399.399 C 0.800 398.732,3.532 396.102,5.101 395.259 C 5.829 394.868,6.832 394.796,8.729 394.999 C 12.012 395.351,392.037 395.369,393.144 395.018 C 393.940 394.765,396.738 395.917,398.000 397.016 C 399.979 398.741,400.071 397.857,399.847 379.136 C 399.654 363.011,399.595 346.842,399.701 338.800 C 399.755 334.656,399.728 328.108,399.603 315.200 C 399.551 309.810,399.544 301.260,399.588 296.200 C 399.689 284.716,399.754 254.278,399.707 241.000 C 399.637 221.205,399.621 211.252,399.644 202.600 C 399.684 187.950,399.677 171.617,399.611 121.000 C 399.577 94.380,399.576 60.990,399.609 46.800 C 399.643 32.610,399.594 18.570,399.501 15.600 C 399.408 12.630,399.423 10.033,399.533 9.830 C 399.644 9.626,399.779 7.331,399.834 4.730 L 399.934 -0.000 392.267 0.063 L 384.600 0.126 391.670 0.563 C 399.865 1.070,399.813 1.046,397.728 3.308 L 396.139 5.032 396.047 42.016 C 395.843 124.042,395.872 166.032,396.134 170.400 C 396.551 177.350,396.499 190.242,396.027 197.205 C 395.795 200.618,395.725 205.478,395.871 208.005 C 396.018 210.532,396.159 223.670,396.185 237.200 C 396.222 256.670,396.366 263.093,396.874 268.000 C 397.227 271.410,397.439 274.328,397.344 274.484 C 397.250 274.640,397.085 276.800,396.978 279.284 C 396.871 281.768,396.564 284.700,396.296 285.800 C 395.956 287.198,395.852 290.989,395.950 298.400 C 396.186 316.073,396.199 322.593,396.039 342.600 C 395.882 362.228,395.950 363.475,397.466 368.600 C 397.791 369.700,398.212 370.891,398.400 371.248 C 398.869 372.137,399.273 385.747,398.901 388.126 C 398.578 390.194,398.514 390.253,394.600 392.071 L 392.600 393.000 200.190 393.000 L 7.780 393.000 6.636 392.100 C 6.007 391.605,5.334 391.200,5.140 391.200 C 4.016 391.200,1.959 389.275,1.570 387.859 C 0.854 385.251,0.997 372.338,1.747 371.789 C 4.306 369.918,5.096 342.452,3.778 301.173 C 3.564 294.448,3.618 290.665,3.968 287.973 C 4.238 285.898,4.449 280.600,4.436 276.200 C 4.424 271.800,4.448 258.660,4.491 247.000 C 4.624 210.889,4.609 206.926,4.298 195.600 C 3.624 170.997,3.584 166.698,3.963 159.800 C 4.968 141.514,4.816 60.775,3.757 49.800 C 3.574 47.909,4.152 23.389,4.659 11.519 L 4.893 6.038 2.622 3.658 C 0.936 1.889,0.487 1.190,0.876 0.939 C 1.164 0.752,60.598 0.562,132.951 0.516 C 205.304 0.470,264.599 0.335,264.717 0.216 C 264.836 0.097,205.323 -0.000,132.467 -0.000 L 0.000 0.000 0.000 1.200 M308.269 0.300 C 321.067 0.358,342.127 0.359,355.069 0.300 C 368.011 0.241,357.540 0.193,331.800 0.193 C 306.060 0.193,295.471 0.241,308.269 0.300 M381.107 0.290 C 381.826 0.379,382.906 0.377,383.507 0.286 C 384.108 0.195,383.520 0.122,382.200 0.124 C 380.880 0.126,380.388 0.201,381.107 0.290 " stroke="none" fill="#94440c" fill-rule="evenodd"></path></g></svg>