<svg xmlns="http://www.w3.org/2000/svg" xmlns:xlink="http://www.w3.org/1999/xlink" width="1440" height="560" preserveAspectRatio="none" version="1.1" viewBox="0 0 1440 560"><defs><mask id="Mask"><rect width="1440" height="560" fill="#fff"/></mask></defs><g fill="none" mask="url(#Mask)"><rect width="1440" height="560" x="0" y="0" fill="#1e3266"/><path fill="#182f5d" d="M1512 560L0 560 L0 288.28Q77.42 245.7, 120 323.12Q205.18 288.3, 240 373.48Q266.15 327.63, 312 353.79Q312.24 282.03, 384 282.28Q457.31 235.59, 504 308.9Q594.54 279.44, 624 369.98Q639.42 313.4, 696 328.83Q763.09 275.91, 816 343Q886.63 293.63, 936 364.25Q951.38 307.63, 1008 323.01Q1061.86 256.87, 1128 310.72Q1150.87 261.59, 1200 284.46Q1255 267.46, 1272 322.46Q1356.09 286.55, 1392 370.64Q1440.38 299.02, 1512 347.41z"/><path fill="#25467d" d="M1560 560L0 560 L0 381.22Q49.7 358.92, 72 408.62Q111.08 327.7, 192 366.78Q260.34 315.12, 312 383.46Q373.24 372.69, 384 433.93Q388.63 366.56, 456 371.18Q484.43 327.61, 528 356.04Q601.1 309.13, 648 382.23Q696.38 358.61, 720 406.98Q772.54 387.52, 792 440.06Q796.98 373.04, 864 378.02Q894.24 336.25, 936 366.49Q1020.97 331.46, 1056 416.43Q1097.02 337.45, 1176 378.47Q1242.26 324.74, 1296 391Q1337.64 360.64, 1368 402.29Q1415.85 378.13, 1440 425.98Q1509.93 375.92, 1560 445.85z"/><path fill="#356cb1" d="M1488 560L0 560 L0 493.06Q45.71 418.77, 120 464.48Q162.49 386.97, 240 429.46Q324.43 393.89, 360 478.32Q430.79 429.11, 480 499.89Q502.63 402.51, 600 425.14Q645.21 398.35, 672 443.55Q737.86 437.41, 744 503.27Q779.31 418.57, 864 453.88Q917.98 387.86, 984 441.83Q1009.39 395.22, 1056 420.61Q1155.28 399.89, 1176 499.18Q1206.26 457.44, 1248 487.71Q1294.45 414.16, 1368 460.61Q1434.66 407.27, 1488 473.93z"/><path fill="#fff" d="M1464 560L0 560 L0 552.4Q43.01 475.4, 120 518.41Q161.59 488, 192 529.58Q214.25 479.84, 264 502.09Q348.34 466.43, 384 550.78Q407.26 502.04, 456 525.31Q498.92 448.23, 576 491.15Q661.48 456.63, 696 542.1Q771.12 497.22, 816 572.34Q823.82 508.16, 888 515.99Q918.42 474.41, 960 504.83Q1019.53 492.36, 1032 551.89Q1080.86 480.75, 1152 529.6Q1217.81 475.41, 1272 541.22Q1329.47 526.69, 1344 584.17Q1395.93 516.11, 1464 568.04z"/></g></svg>