<svg xmlns="http://www.w3.org/2000/svg" xmlns:xlink="http://www.w3.org/1999/xlink" id="Layer_1" x="0" y="0" version="1.1" viewBox="0 0 502 502" xml:space="preserve" style="enable-background:new 0 0 502 502"><path style="fill:#dfa14f" d="M492,276.648v-51.295c0-13.06-10.587-23.648-23.648-23.648h-43.924 c-3.841-13.538-9.234-26.421-15.958-38.46l31.079-31.079c9.235-9.235,9.235-24.208,0-33.443l-36.271-36.271 c-9.235-9.235-24.208-9.235-33.443,0l-31.08,31.078c-12.039-6.724-24.922-12.117-38.46-15.958V33.648 c0-13.06-10.587-23.648-23.648-23.648h-51.295c-13.06,0-23.648,10.587-23.648,23.648v43.924 c-13.538,3.841-26.421,9.234-38.46,15.958l-31.079-31.079c-9.235-9.235-24.208-9.235-33.443,0l-36.27,36.272 c-9.235,9.235-9.235,24.208,0,33.443l31.079,31.079c-6.724,12.039-12.117,24.922-15.958,38.46H33.649 c-13.06,0-23.648,10.587-23.648,23.648v51.295c0,13.06,10.587,23.648,23.648,23.648h43.924 c3.841,13.538,9.234,26.421,15.958,38.46l-31.079,31.079c-9.235,9.235-9.235,24.208,0,33.443l36.271,36.271 c9.235,9.235,24.208,9.235,33.443,0l31.079-31.079c12.039,6.724,24.922,12.117,38.46,15.958v43.924 c0,13.06,10.587,23.648,23.648,23.648h51.295c13.06,0,23.648-10.587,23.648-23.648v-43.924 c13.538-3.841,26.421-9.234,38.46-15.958l31.079,31.079c9.235,9.235,24.208,9.235,33.443,0l36.271-36.271 c9.235-9.235,9.235-24.208,0-33.443l-31.079-31.079c6.724-12.039,12.117-24.922,15.958-38.46h43.924 C481.414,300.295,492,289.708,492,276.648z M251.001,344.612c-51.7,0-93.612-41.911-93.612-93.612s41.912-93.612,93.612-93.612 S344.612,199.3,344.612,251S302.701,344.612,251.001,344.612z"/><g><path fill="#efc75e" d="M121.001,261c-5.522,0-10-4.477-10-10c0-27.143,7.779-53.472,22.498-76.142c14.331-22.074,34.479-39.62,58.267-50.743 c5.002-2.341,10.954-0.18,13.294,4.823c2.34,5.003,0.18,10.955-4.823,13.294c-42.059,19.667-69.236,62.361-69.236,108.768 C131.001,256.523,126.523,261,121.001,261z"/></g><g><path fill="#efc75e" d="M302.995,141.819c-1.337,0-2.695-0.27-3.999-0.839c-15.157-6.622-31.306-9.98-47.995-9.98c-5.522,0-10-4.477-10-10 s4.478-10,10-10c19.463,0,38.305,3.92,56.003,11.653c5.061,2.211,7.371,8.106,5.16,13.167 C310.521,139.578,306.849,141.819,302.995,141.819z"/></g></svg>