<svg xmlns="http://www.w3.org/2000/svg" xmlns:xlink="http://www.w3.org/1999/xlink" id="Layer_1" x="0" y="0" version="1.1" viewBox="0 0 512 512" xml:space="preserve" style="enable-background:new 0 0 512 512"><circle style="fill:#dfa14f" cx="256" cy="256" r="245.801"/><polygon style="fill:#efc75e" points="195.825 391.629 376.351 256 195.825 120.371"/><g><path style="fill:#d7b354" d="M256,473.243c-5.632,0-10.199-4.566-10.199-10.199c0-5.633,4.567-10.199,10.199-10.199 c52.815,0,102.404-20.633,139.633-58.1c3.973-3.996,10.429-4.015,14.425-0.045c3.995,3.971,4.016,10.428,0.046,14.424 C369.016,450.471,314.287,473.243,256,473.243z"/><path style="fill:#d7b354" d="M430.396,377.825c-1.886,0-3.793-0.522-5.498-1.617c-4.741-3.041-6.118-9.351-3.076-14.092 c1.514-2.36,2.998-4.788,4.411-7.216c2.834-4.867,9.077-6.516,13.945-3.684c4.868,2.833,6.518,9.077,3.684,13.945 c-1.56,2.681-3.201,5.363-4.873,7.97C437.043,376.168,433.754,377.825,430.396,377.825z"/></g></svg>