<svg id="setting" xmlns="http://www.w3.org/2000/svg" xmlns:xlink="http://www.w3.org/1999/xlink" viewBox="0 0 502 502" shape-rendering="geometricPrecision" text-rendering="geometricPrecision" width="502" height="502">
   <path style="fill:#848B8F" d="M503.671,255.999c0-136.785-110.886-247.671-247.672-247.671s-247.67,110.887-247.67,247.671s110.886,247.672,247.671,247.672s247.671-110.886,247.671-247.672Z" transform="translate(-1.671, -1.671)"/>
   <path style="fill:#eeeeee" d="M492,276.648v-51.295c0-13.06-10.587-23.648-23.648-23.648h-43.924c-3.841-13.538-9.234-26.421-15.958-38.46l31.079-31.079c9.235-9.235,9.235-24.208,0-33.443L403.278,62.452c-9.235-9.235-24.208-9.235-33.443,0L338.755,93.53c-12.039-6.724-24.922-12.117-38.46-15.958v-43.924c0-13.06-10.587-23.648-23.648-23.648h-51.295c-13.06,0-23.648,10.587-23.648,23.648v43.924c-13.538,3.841-26.421,9.234-38.46,15.958L132.165,62.451c-9.235-9.235-24.208-9.235-33.443,0L62.452,98.723c-9.235,9.235-9.235,24.208,0,33.443l31.079,31.079c-6.724,12.039-12.117,24.922-15.958,38.46h-43.924c-13.06,0-23.648,10.587-23.648,23.648v51.295c0,13.06,10.587,23.648,23.648,23.648h43.924c3.841,13.538,9.234,26.421,15.958,38.46L62.452,369.835c-9.235,9.235-9.235,24.208,0,33.443l36.271,36.271c9.235,9.235,24.208,9.235,33.443,0l31.079-31.079c12.039,6.724,24.922,12.117,38.46,15.958v43.924c0,13.06,10.587,23.648,23.648,23.648h51.295c13.06,0,23.648-10.587,23.648-23.648v-43.924c13.538-3.841,26.421-9.234,38.46-15.958l31.079,31.079c9.235,9.235,24.208,9.235,33.443,0l36.271-36.271c9.235-9.235,9.235-24.208,0-33.443L408.47,338.756c6.724-12.039,12.117-24.922,15.958-38.46h43.924C481.414,300.295,492,289.708,492,276.648ZM251.001,344.612c-51.7,0-93.612-41.911-93.612-93.612s41.912-93.612,93.612-93.612s93.611,41.912,93.611,93.612-41.911,93.612-93.611,93.612Z" transform="matrix(0.699535, 0, 0, 0.690855, 78.745365, 77.595395)"/>
   <path style="opacity:.1;enable-background:new" d="M74.96,255.999c0-125.485,93.327-229.158,214.356-245.433C278.417,9.1,267.3,8.328,256,8.328C119.215,8.329,8.329,119.215,8.329,255.999s110.886,247.671,247.672,247.671c11.3,0,22.417-.772,33.316-2.238C168.288,485.159,74.96,381.486,74.96,255.999Z" transform="matrix(1.016096,0, 0, 1.000003, 1.787878,-1.671269)"/>
</svg>