<svg xmlns="http://www.w3.org/2000/svg" xmlns:xlink="http://www.w3.org/1999/xlink" id="Layer_1" x="0" y="0" version="1.1" viewBox="0 0 511.999 511.999" xml:space="preserve" style="enable-background:new 0 0 511.999 511.999">
   <path style="fill:#848B8F" d="M503.671,255.999c0-136.785-110.886-247.671-247.672-247.671S8.329,119.215,8.329,255.999	s110.886,247.672,247.671,247.672S503.671,392.785,503.671,255.999z"/>
   <path style="fill:#eeeeee" d="M387.613,161.977l-46.736,90.081c-1.282,2.471-1.282,5.412,0,7.883l46.736,90.081	c3.645,7.025-3.38,14.808-10.741,11.902L128.81,263.96c-7.22-2.851-7.22-13.069,0-15.92l248.063-97.964	C384.233,147.169,391.257,154.953,387.613,161.977z"/>
   <path style="opacity:.1;enable-background:new" d="M74.96,255.999c0-125.485,93.327-229.158,214.356-245.433	c-10.899-1.466-22.016-2.238-33.316-2.238C119.215,8.329,8.329,119.215,8.329,255.999S119.215,503.67,256.001,503.67	c11.3,0,22.417-0.772,33.316-2.238C168.288,485.159,74.96,381.486,74.96,255.999z"/>
</svg>