<svg xmlns="http://www.w3.org/2000/svg" xmlns:xlink="http://www.w3.org/1999/xlink" id="Layer_1" x="0" y="0" version="1.1" viewBox="0 0 512 512" xml:space="preserve" style="enable-background:new 0 0 512 512"><path style="fill:#dfa14f" d="M256.001,8.297C119.198,8.297,8.298,119.198,8.298,256.001s110.901,247.703,247.703,247.703	s247.704-110.901,247.704-247.703C503.703,119.198,392.804,8.297,256.001,8.297z"/><path style="fill:#efc75e" d="M256.001,426.265c-93.884,0-170.264-76.379-170.264-170.264c0-27.739,6.786-54.819,19.502-79.03	l-24.329-16.1L184.715,108.4L177,224.456l-25.265-16.719c-6.97,15.014-10.683,31.457-10.683,48.262	c0,63.384,51.567,114.951,114.951,114.951s114.951-51.567,114.951-114.951s-51.568-114.95-114.952-114.95V85.736	c93.884,0,170.264,76.379,170.264,170.264S349.885,426.265,256.001,426.265z"/></svg>