<svg xmlns="http://www.w3.org/2000/svg" width="723.05" height="147.68" preserveAspectRatio="xMidYMid" viewBox="-111.525 1.16 723.05 147.68" style="background:0 0"><defs><linearGradient id="editing-sticker-gradient" x1=".5" x2=".5" y1=".2" y2=".8"><stop offset="0" stop-color="#353535"/><stop offset="1" stop-color="#d7d7d7"/></linearGradient></defs><g><g><path fill="url(#editing-sticker-gradient)" stroke="#000" stroke-width="2.5" d="M59.12-38.80L59.12-38.80L59.12-38.80Q60.80-38.80 61.72-37.48L61.72-37.48L61.72-37.48Q62.64-36.16 62.64-34.40L62.64-34.40L62.64-34.40Q62.64-30.64 60.44-28.56L60.44-28.56L60.44-28.56Q58.24-26.48 54.96-26.48L54.96-26.48L54.96-26.48Q50-26.48 47.16-30.12L47.16-30.12L47.16-30.12Q44.32-33.76 44.32-38.80L44.32-38.80L44.32-38.80Q44.32-44.16 47.72-48.16L47.72-48.16L47.72-48.16Q51.12-52.16 57.28-52.16L57.28-52.16L57.28-52.16Q63.36-52.16 66.76-48.08L66.76-48.08L66.76-48.08Q70.16-44 70.16-35.68L70.16-35.68L70.16-35.68Q70.16-26.80 67.44-18.80L67.44-18.80L67.44-18.80Q64.72-10.80 59-5.36L59-5.36L59-5.36Q53.28 0.08 45.68 0.08L45.68 0.08L45.68 0.08Q39.20 0.08 35.12-3.76L35.12-3.76L35.12-3.76Q29.76 0.32 23.36 0.32L23.36 0.32L23.36 0.32Q12.16 0.32 12.16-10.80L12.16-10.80L12.16-10.80Q12.16-15.28 15.04-24.84L15.04-24.84L15.04-24.84Q17.92-34.40 17.92-39.36L17.92-39.36L17.92-39.36Q17.92-44 13.84-44L13.84-44L13.84-44Q11.68-44 9.40-42.56L9.40-42.56L9.40-42.56Q7.12-41.12 6.16-39.12L6.16-39.12L6.16-39.12Q8.32-37.76 8.32-35.76L8.32-35.76L8.32-35.76Q8.32-34.72 7.44-33.76L7.44-33.76L7.44-33.76Q6.56-32.80 5.36-32.80L5.36-32.80L5.36-32.80Q4.08-32.80 3.20-33.88L3.20-33.88L3.20-33.88Q2.32-34.96 2.32-36.80L2.32-36.80L2.32-36.80Q2.32-41.28 6.20-44.36L6.20-44.36L6.20-44.36Q10.08-47.44 14.56-47.44L14.56-47.44L14.56-47.44Q17.84-47.44 20-45.52L20-45.52L20-45.52Q22.16-43.60 22.16-39.76L22.16-39.76L22.16-39.76Q22.16-35.44 19.24-25.80L19.24-25.80L19.24-25.80Q16.32-16.16 16.32-11.92L16.32-11.92L16.32-11.92Q16.32-7.76 17.76-5.52L17.76-5.52L17.76-5.52Q19.20-3.28 22.96-3.28L22.96-3.28L22.96-3.28Q27.68-3.28 32.56-7.12L32.56-7.12L32.56-7.12Q30.96-10.16 30.96-14.40L30.96-14.40L30.96-14.40Q30.96-19.52 33.72-22.96L33.72-22.96L33.72-22.96Q36.48-26.40 39.60-26.40L39.60-26.40L39.60-26.40Q44-26.40 44-20.80L44-20.80L44-20.80Q44-12.80 38.08-6.48L38.08-6.48L38.08-6.48Q41.04-3.52 45.84-3.52L45.84-3.52L45.84-3.52Q52.08-3.52 57-8.76L57-8.76L57-8.76Q61.92-14 64.24-21.12L64.24-21.12L64.24-21.12Q66.56-28.24 66.56-35.28L66.56-35.28L66.56-35.28Q66.56-42.16 64.12-45.52L64.12-45.52L64.12-45.52Q61.68-48.88 57.60-48.88L57.60-48.88L57.60-48.88Q53.28-48.88 50.60-45.48L50.60-45.48L50.60-45.48Q47.92-42.08 47.92-37.84L47.92-37.84L47.92-37.84Q47.92-34.40 49.88-32.04L49.88-32.04L49.88-32.04Q51.84-29.68 55.52-29.68L55.52-29.68L55.52-29.68Q56.72-29.68 57.72-30.44L57.72-30.44L57.72-30.44Q58.72-31.20 59.12-32.24L59.12-32.24L59.12-32.24Q57.60-32.24 56.60-33.20L56.60-33.20L56.60-33.20Q55.60-34.16 55.60-35.52L55.60-35.52L55.60-35.52Q55.60-36.88 56.60-37.84L56.60-37.84L56.60-37.84Q57.60-38.80 59.12-38.80ZM34.88-14.40L34.88-14.40L34.88-14.40Q34.88-12 35.60-10.08L35.60-10.08L35.60-10.08Q40.32-15.36 40.32-20.48L40.32-20.48L40.32-20.48Q40.32-22.72 38.96-22.72L38.96-22.72L38.96-22.72Q37.04-22.16 35.96-19.52L35.96-19.52L35.96-19.52Q34.88-16.88 34.88-14.40ZM91.44-15.44L91.44-15.44L91.44-15.44Q90.56-13.36 88.72-13.36L88.72-13.36L88.72-13.36Q87.76-13.36 87.08-13.96L87.08-13.96L87.08-13.96Q86.40-14.56 86.40-15.44L86.40-15.44L86.40-15.44Q86.40-16.40 87.44-17.36L87.44-17.36L87.44-17.36Q85.36-18.24 85.36-19.68L85.36-19.68L85.36-19.68Q85.36-20.56 86.12-21.20L86.12-21.20L86.12-21.20Q86.88-21.84 88.16-21.84L88.16-21.84L88.16-21.84Q88.72-21.84 89.04-21.76L89.04-21.76L89.04-21.76Q89.20-23.28 89.92-24.16L89.92-24.16L89.92-24.16Q90.64-25.04 91.44-25.04L91.44-25.04L91.44-25.04Q92.32-25.04 93.04-24.16L93.04-24.16L93.04-24.16Q93.76-23.28 93.84-21.76L93.84-21.76L93.84-21.76Q94.08-21.84 94.80-21.84L94.80-21.84L94.80-21.84Q97.60-21.84 97.60-19.92L97.60-19.92L97.60-19.92Q97.60-18.24 95.52-17.36L95.52-17.36L95.52-17.36Q96.56-16.40 96.56-15.44L96.56-15.44L96.56-15.44Q96.56-14.56 95.88-13.96L95.88-13.96L95.88-13.96Q95.20-13.36 94.24-13.36L94.24-13.36L94.24-13.36Q92.32-13.36 91.44-15.44ZM91.36-16.80L91.36-16.80L91.36-16.80Q91.68-16.24 92.72-15.60L92.72-15.60L92.72-15.60Q93.76-14.96 94.24-14.96L94.24-14.96L94.24-14.96Q94.96-14.96 94.96-15.44L94.96-15.44L94.96-15.44Q94.96-16.80 92.96-18.08L92.96-18.08L92.96-18.08Q96-19.28 96-19.68L96-19.68L96-19.68Q96-20.24 94.80-20.24L94.80-20.24L92.32-20.16L92.32-20.16Q92.08-23.44 91.44-23.44L91.44-23.44L91.44-23.44Q90.88-23.44 90.48-20.16L90.48-20.16L90.48-20.16Q90.08-20.16 89.68-20.20L89.68-20.20L89.68-20.20Q89.28-20.24 88.96-20.24L88.96-20.24L88.96-20.24Q86.96-20.24 86.96-19.68L86.96-19.68L86.96-19.68Q86.96-19.28 90-18.08L90-18.08L90-18.08Q88-16.32 88-15.44L88-15.44L88-15.44Q88-14.96 88.72-14.96L88.72-14.96L88.72-14.96Q89.52-14.96 90.32-15.56L90.32-15.56L90.32-15.56Q91.12-16.16 91.36-16.80ZM89.76 0.88L89.76 0.88L89.76 0.88Q83.12 0.88 79.52-3.76L79.52-3.76L79.52-3.76Q75.92-8.40 75.92-15.92L75.92-15.92L75.92-15.92Q75.92-19.36 76.88-23.20L76.88-23.20L76.88-23.20Q77.84-27.04 79.76-30.84L79.76-30.84L79.76-30.84Q81.68-34.64 85.20-37.08L85.20-37.08L85.20-37.08Q88.72-39.52 93.28-39.52L93.28-39.52L93.28-39.52Q99.92-39.52 103.52-34.88L103.52-34.88L103.52-34.88Q107.12-30.24 107.12-22.72L107.12-22.72L107.12-22.72Q107.12-19.04 105.92-14.80L105.92-14.80L105.92-14.80Q105.52-12.08 105.40-9.32L105.40-9.32L105.40-9.32Q105.28-6.56 106.92-4.48L106.92-4.48L106.92-4.48Q108.56-2.40 111.92-2.40L111.92-2.40L111.92-2.40Q115.36-2.40 117.40-4.64L117.40-4.64L117.40-4.64Q119.44-6.88 119.44-9.84L119.44-9.84L119.44-9.84Q119.44-11.68 118.36-12.80L118.36-12.80L118.36-12.80Q117.28-13.92 115.84-13.92L115.84-13.92L115.84-13.92Q113.52-13.92 112.56-11.52L112.56-11.52L112.56-11.52Q113.92-11.52 114.84-10.56L114.84-10.56L114.84-10.56Q115.76-9.60 115.76-8.24L115.76-8.24L115.76-8.24Q115.76-6.64 114.88-5.76L114.88-5.76L114.88-5.76Q114-4.88 112.80-4.88L112.80-4.88L112.80-4.88Q111.20-4.88 110.08-6.08L110.08-6.08L110.08-6.08Q108.96-7.28 108.96-9.52L108.96-9.52L108.96-9.52Q108.96-12.32 110.80-14.60L110.80-14.60L110.80-14.60Q112.64-16.88 115.68-16.88L115.68-16.88L115.68-16.88Q118.88-16.88 121-14.88L121-14.88L121-14.88Q123.12-12.88 123.12-9.28L123.12-9.28L123.12-9.28Q123.12-4.80 119.68-1.92L119.68-1.92L119.68-1.92Q116.24 0.96 111.60 0.96L111.60 0.96L111.60 0.96Q103.68 0.96 102.08-5.92L102.08-5.92L102.08-5.92Q97.36 0.88 89.76 0.88ZM89.76-2.88L89.76-2.88L89.76-2.88Q95.76-2.88 99.48-8.92L99.48-8.92L99.48-8.92Q103.20-14.96 103.20-22.08L103.20-22.08L103.20-22.08Q103.20-24.48 102.72-26.76L102.72-26.76L102.72-26.76Q102.24-29.04 101.16-31.12L101.16-31.12L101.16-31.12Q100.08-33.20 98.08-34.48L98.08-34.48L98.08-34.48Q96.08-35.76 93.36-35.76L93.36-35.76L93.36-35.76Q87.28-35.76 83.52-29.72L83.52-29.72L83.52-29.72Q79.76-23.68 79.76-16.56L79.76-16.56L79.76-16.56Q79.76-11.12 82.16-7L82.16-7L82.16-7Q84.56-2.88 89.76-2.88ZM161.36-36.56L161.36-36.56L161.36-36.56Q161.60-37.52 161.92-37.76L161.92-37.76L161.92-37.76Q162.24-38 163.28-38L163.28-38L163.28-38Q165.36-38 165.36-36.96L165.36-36.96L163.52-28.88L161.44-19.92L161.44-19.92Q160.32-15.12 158.88-10L158.88-10L158.88-10Q157.44-4.88 155.88-0.20L155.88-0.20L155.88-0.20Q154.32 4.48 152.72 8.28L152.72 8.28L152.72 8.28Q151.12 12.08 149.60 14.24L149.60 14.24L149.60 14.24Q148.24 16.56 146.64 18.60L146.64 18.60L146.64 18.60Q145.04 20.64 143.20 22.16L143.20 22.16L143.20 22.16Q141.36 23.68 139.36 24.56L139.36 24.56L139.36 24.56Q137.36 25.44 135.12 25.44L135.12 25.44L135.12 25.44Q132.48 25.44 130.20 24.60L130.20 24.60L130.20 24.60Q127.92 23.76 126.24 22.16L126.24 22.16L126.24 22.16Q124.56 20.56 123.64 18.28L123.64 18.28L123.64 18.28Q122.72 16 122.72 13.20L122.72 13.20L122.72 13.20Q122.72 10.56 124.20 8.52L124.20 8.52L124.20 8.52Q125.68 6.48 127.96 4.96L127.96 4.96L127.96 4.96Q130.24 3.44 132.96 2.40L132.96 2.40L132.96 2.40Q135.68 1.36 138.20 0.68L138.20 0.68L138.20 0.68Q140.72 0 142.64-0.36L142.64-0.36L142.64-0.36Q144.56-0.72 145.28-0.80L145.28-0.80L152.24-1.92L152.24-1.92Q152.32-1.92 154.16-8.56L154.16-8.56L154.08-8.40L154.08-8.40Q152.88-7.20 150.96-6.04L150.96-6.04L150.96-6.04Q149.04-4.88 146.88-3.96L146.88-3.96L146.88-3.96Q144.72-3.04 142.48-2.48L142.48-2.48L142.48-2.48Q140.24-1.92 138.40-1.92L138.40-1.92L138.40-1.92Q130.96-1.92 130.96-8.80L130.96-8.80L130.96-8.80Q130.96-13.84 134.40-23.60L134.40-23.60L134.40-23.60Q136.16-28.56 137-31.32L137-31.32L137-31.32Q137.84-34.08 137.92-34.72L137.92-34.72L137.92-34.72Q137.92-36.56 136.40-36.56L136.40-36.56L136.40-36.56Q133.12-36.56 130.80-34L130.80-34L130.80-34Q131.52-33.12 131.52-31.76L131.52-31.76L131.52-31.76Q131.52-30.16 130.64-29.08L130.64-29.08L130.64-29.08Q129.76-28 128.48-28L128.48-28L128.48-28Q127.28-28 126.44-29L126.44-29L126.44-29Q125.60-30 125.60-31.52L125.60-31.52L125.60-31.52Q125.60-33.20 126.60-34.72L126.60-34.72L126.60-34.72Q127.60-36.24 129.12-37.40L129.12-37.40L129.12-37.40Q130.64-38.56 132.48-39.28L132.48-39.28L132.48-39.28Q134.32-40 136-40L136-40L136-40Q141.36-40 141.36-34.88L141.36-34.88L141.36-34.88Q141.36-33.12 138.32-23.04L138.32-23.04L138.32-23.04Q135.28-12.96 135.28-9.20L135.28-9.20L135.28-9.20Q135.28-5.60 138.64-5.60L138.64-5.60L138.64-5.60Q140.24-5.60 142.52-6.40L142.52-6.40L142.52-6.40Q144.80-7.20 147.20-8.40L147.20-8.40L147.20-8.40Q149.60-9.60 151.84-11.04L151.84-11.04L151.84-11.04Q154.08-12.48 155.52-13.68L155.52-13.68L155.52-13.68Q158.32-24.16 159.76-29.84L159.76-29.84L159.76-29.84Q161.20-35.52 161.36-36.56ZM150.96 2.64L150.96 2.64L150.96 2.64Q148 2.72 144.24 3.40L144.24 3.40L144.24 3.40Q140.48 4.08 136.40 5.40L136.40 5.40L136.40 5.40Q132.32 6.72 129.60 9.12L129.60 9.12L129.60 9.12Q126.88 11.52 126.88 14.48L126.88 14.48L126.88 14.48Q126.88 17.60 129 19.60L129 19.60L129 19.60Q131.12 21.60 134 21.60L134 21.60L134 21.60Q136.80 21.60 139.52 19.76L139.52 19.76L139.52 19.76Q142.24 17.92 144.40 14.88L144.40 14.88L144.40 14.88Q146.56 11.84 148.12 8.88L148.12 8.88L148.12 8.88Q149.68 5.92 150.96 2.64ZM232.40-13.84L232.40-13.84L232.40-13.84Q229.12-13.84 226.76-15.24L226.76-15.24L226.76-15.24Q224.40-16.64 221.76-19.28L221.76-19.28L221.76-19.28Q220.88-14.72 219.80-11.40L219.80-11.40L219.80-11.40Q218.72-8.08 217.08-5L217.08-5L217.08-5Q215.44-1.92 213-0.28L213-0.28L213-0.28Q210.56 1.36 207.36 1.36L207.36 1.36L207.36 1.36Q203.28 1.36 200.68-0.92L200.68-0.92L200.68-0.92Q198.08-3.20 198.08-7.04L198.08-7.04L198.08-7.04Q198.08-8.88 199.24-10.76L199.24-10.76L199.24-10.76Q200.40-12.64 202.32-12.64L202.32-12.64L202.32-12.64Q203.60-12.64 204.52-11.68L204.52-11.68L204.52-11.68Q205.44-10.72 205.44-9.36L205.44-9.36L205.44-9.36Q205.44-8.24 204.40-7.36L204.40-7.36L204.40-7.36Q203.36-6.48 202.24-6.24L202.24-6.24L202.24-6.24Q202.24-4.64 203.44-3.36L203.44-3.36L203.44-3.36Q204.64-2.08 206.64-2.08L206.64-2.08L206.64-2.08Q209.20-2.08 211.20-3.72L211.20-3.72L211.20-3.72Q213.20-5.36 214.56-8.56L214.56-8.56L214.56-8.56Q215.92-11.76 216.72-14.88L216.72-14.88L216.72-14.88Q217.52-18 218.40-22.56L218.40-22.56L218.40-22.56Q214.72-25.68 211.28-25.68L211.28-25.68L211.28-25.68Q209.04-25.68 207.28-24.52L207.28-24.52L207.28-24.52Q205.52-23.36 205.52-21.44L205.52-21.44L205.52-21.44Q205.52-19.52 207.20-19.52L207.20-19.52L207.20-19.52Q207.84-19.52 208.92-20.28L208.92-20.28L208.92-20.28Q210-21.04 210.24-21.04L210.24-21.04L210.24-21.04Q210.96-21.04 211.84-19.96L211.84-19.96L211.84-19.96Q212.72-18.88 212.72-18.08L212.72-18.08L212.72-18.08Q212.72-15.36 209.20-15.36L209.20-15.36L209.20-15.36Q206.40-15.36 204.24-16.84L204.24-16.84L204.24-16.84Q202.08-18.32 202.08-21.28L202.08-21.28L202.08-21.28Q202.08-24.88 204.64-27.12L204.64-27.12L204.64-27.12Q207.20-29.36 211.04-29.36L211.04-29.36L211.04-29.36Q215.20-29.36 219.04-26.24L219.04-26.24L219.04-26.24Q220-32 220.96-35.92L220.96-35.92L220.96-35.92Q218-36.96 213.96-38.84L213.96-38.84L213.96-38.84Q209.92-40.72 207.08-41.88L207.08-41.88L207.08-41.88Q204.24-43.04 202.56-43.04L202.56-43.04L202.56-43.04Q200.40-43.04 199.04-41.64L199.04-41.64L199.04-41.64Q197.68-40.24 197.68-37.52L197.68-37.52L197.68-37.52Q197.68-34.56 200.16-34.56L200.16-34.56L200.16-34.56Q201.44-34.56 202.52-36.36L202.52-36.36L202.52-36.36Q203.60-38.16 204.24-38.16L204.24-38.16L204.24-38.16Q205.04-38.16 205.88-37.28L205.88-37.28L205.88-37.28Q206.72-36.40 206.72-35.60L206.72-35.60L206.72-35.60Q206.72-33.76 204.96-32.48L204.96-32.48L204.96-32.48Q203.20-31.20 200.72-31.20L200.72-31.20L200.72-31.20Q197.44-31.20 195.68-33.04L195.68-33.04L195.68-33.04Q193.92-34.88 193.92-37.92L193.92-37.92L193.92-37.92Q193.92-42.08 196.28-44.44L196.28-44.44L196.28-44.44Q198.64-46.80 202.32-46.80L202.32-46.80L202.32-46.80Q205.36-46.80 212.04-43.44L212.04-43.44L212.04-43.44Q218.72-40.08 221.84-39.20L221.84-39.20L221.84-39.20Q225.68-51.04 233.04-51.04L233.04-51.04L233.04-51.04Q236.72-51.04 238.68-49.32L238.68-49.32L238.68-49.32Q240.64-47.60 240.64-44.96L240.64-44.96L240.64-44.96Q240.64-41.28 237.40-37.88L237.40-37.88L237.40-37.88Q234.16-34.48 229.12-34.48L229.12-34.48L229.12-34.48Q227.12-34.48 224.72-34.88L224.72-34.88L224.72-34.88Q224.24-32.72 223.48-28.44L223.48-28.44L223.48-28.44Q222.72-24.16 222.48-22.96L222.48-22.96L222.48-22.96Q224.32-21.12 225.40-20.20L225.40-20.20L225.40-20.20Q226.48-19.28 228.36-18.40L228.36-18.40L228.36-18.40Q230.24-17.52 232.16-17.52L232.16-17.52L232.16-17.52Q234.40-17.52 236.16-18.68L236.16-18.68L236.16-18.68Q237.92-19.84 237.92-21.76L237.92-21.76L237.92-21.76Q237.92-23.68 236.24-23.68L236.24-23.68L236.24-23.68Q235.60-23.68 234.56-22.92L234.56-22.92L234.56-22.92Q233.52-22.16 233.28-22.16L233.28-22.16L233.28-22.16Q232.48-22.16 231.60-23.24L231.60-23.24L231.60-23.24Q230.72-24.32 230.72-25.12L230.72-25.12L230.72-25.12Q230.72-27.84 234.24-27.84L234.24-27.84L234.24-27.84Q237.04-27.84 239.20-26.36L239.20-26.36L239.20-26.36Q241.36-24.88 241.36-21.92L241.36-21.92L241.36-21.92Q241.36-18.32 238.80-16.08L238.80-16.08L238.80-16.08Q236.24-13.84 232.40-13.84ZM230.16-46.72L230.16-46.72L230.16-46.72Q227.28-44.40 225.60-38.24L225.60-38.24L225.60-38.24Q227.28-38 228.96-38L228.96-38L228.96-38Q231.84-38 234.20-39.96L234.20-39.96L234.20-39.96Q236.56-41.92 236.56-45.20L236.56-45.20L236.56-45.20Q236.56-46.48 235.68-47.32L235.68-47.32L235.68-47.32Q234.80-48.16 233.52-48.16L233.52-48.16L233.52-48.16Q231.84-48.16 230.16-46.72ZM262.32 0.72L262.32 0.72L262.32 0.72Q254.16 0.72 249.80-3.88L249.80-3.88L249.80-3.88Q245.44-8.48 245.44-15.84L245.44-15.84L245.44-15.84Q245.44-18.48 246.12-21.44L246.12-21.44L246.12-21.44Q246.80-24.40 248.40-27.60L248.40-27.60L248.40-27.60Q250-30.80 252.40-33.32L252.40-33.32L252.40-33.32Q254.80-35.84 258.56-37.48L258.56-37.48L258.56-37.48Q262.32-39.12 266.88-39.12L266.88-39.12L266.88-39.12Q275.04-39.12 279.44-34.52L279.44-34.52L279.44-34.52Q283.84-29.92 283.84-22.56L283.84-22.56L283.84-22.56Q283.84-19.92 283.16-16.92L283.16-16.92L283.16-16.92Q282.48-13.92 280.80-10.76L280.80-10.76L280.80-10.76Q279.12-7.60 276.76-5.08L276.76-5.08L276.76-5.08Q274.40-2.56 270.64-0.92L270.64-0.92L270.64-0.92Q266.88 0.72 262.32 0.72ZM262.32-2.64L262.32-2.64L262.32-2.64Q267.68-2.64 271.76-5.72L271.76-5.72L271.76-5.72Q275.84-8.80 277.76-13.12L277.76-13.12L277.76-13.12Q279.68-17.44 279.68-21.92L279.68-21.92L279.68-21.92Q279.68-25.36 278.64-28.28L278.64-28.28L278.64-28.28Q277.60-31.20 274.64-33.48L274.64-33.48L274.64-33.48Q271.68-35.76 267.04-35.76L267.04-35.76L267.04-35.76Q261.68-35.76 257.56-32.68L257.56-32.68L257.56-32.68Q253.44-29.60 251.52-25.28L251.52-25.28L251.52-25.28Q249.60-20.96 249.60-16.48L249.60-16.48L249.60-16.48Q249.60-13.04 250.64-10.12L250.64-10.12L250.64-10.12Q251.68-7.20 254.68-4.92L254.68-4.92L254.68-4.92Q257.68-2.64 262.32-2.64ZM261.84-21.28L261.84-21.28L261.84-21.28Q260.24-22.72 260.24-23.36L260.24-23.36L260.24-23.36Q260.24-24.08 261.20-24.68L261.20-24.68L261.20-24.68Q262.16-25.28 263.04-25.28L263.04-25.28L263.04-25.28Q263.44-25.28 263.68-24.76L263.68-24.76L263.68-24.76Q263.92-24.24 264-23.28L264-23.28L264-23.28Q264.08-22.32 264.08-22.24L264.08-22.24L264.08-22.24Q264.80-22.24 265.44-22.08L265.44-22.08L265.44-22.08Q265.52-22.16 265.80-23.12L265.80-23.12L265.80-23.12Q266.08-24.08 266.40-24.52L266.40-24.52L266.40-24.52Q266.72-24.96 267.12-24.96L267.12-24.96L267.12-24.96Q268.08-24.96 269.04-24.16L269.04-24.16L269.04-24.16Q270-23.36 270-22.48L270-22.48L270-22.48Q270-22 267.52-20.88L267.52-20.88L267.52-20.88Q267.92-20.48 268-20.08L268-20.08L268-20.08Q269.92-21.04 270.40-21.04L270.40-21.04L270.40-21.04Q271.92-21.04 271.92-19.28L271.92-19.28L271.92-19.28Q271.92-16.80 269.92-16.80L269.92-16.80L269.92-16.80Q269.68-16.80 267.92-17.52L267.92-17.52L267.92-17.52Q267.84-17.28 267.12-16.56L267.12-16.56L267.12-16.56Q268.96-14.72 268.96-14.08L268.96-14.08L268.96-14.08Q268.96-13.28 268.12-12.76L268.12-12.76L268.12-12.76Q267.28-12.24 266.32-12.24L266.32-12.24L266.32-12.24Q265.44-12.24 265.04-15.68L265.04-15.68L265.04-15.68Q264.48-15.52 263.92-15.68L263.92-15.68L263.92-15.68Q263.84-15.60 263.44-14.44L263.44-14.44L263.44-14.44Q263.04-13.28 262.64-12.72L262.64-12.72L262.64-12.72Q262.24-12.16 261.84-12.16L261.84-12.16L261.84-12.16Q260.96-12.16 260-12.96L260-12.96L260-12.96Q259.04-13.76 259.04-14.64L259.04-14.64L259.04-14.64Q259.04-14.96 261.52-16.80L261.52-16.80L261.52-16.80Q261.20-17.12 260.88-17.76L260.88-17.76L260.88-17.76Q260.48-17.36 258.64-17.36L258.64-17.36L258.64-17.36Q257.36-17.36 257.36-19.12L257.36-19.12L257.36-19.12Q257.36-20.64 258.72-20.64L258.72-20.64L258.72-20.64Q260.56-20.64 260.96-20.32L260.96-20.32L260.96-20.32Q261.28-20.96 261.84-21.28ZM262.72-20.40L262.72-20.40L262.72-20.40Q262.08-19.76 262.08-18.88L262.08-18.88L262.08-18.88Q262.08-18 262.76-17.32L262.76-17.32L262.76-17.32Q263.44-16.64 264.32-16.64L264.32-16.64L264.32-16.64Q265.20-16.64 265.88-17.32L265.88-17.32L265.88-17.32Q266.56-18 266.56-18.88L266.56-18.88L266.56-18.88Q266.56-19.76 265.88-20.44L265.88-20.44L265.88-20.44Q265.20-21.12 264.32-21.12L264.32-21.12L264.32-21.12Q263.44-21.12 262.72-20.40ZM292.08-32L292.08-32L292.08-32Q294-32 295.12-30.96L295.12-30.96L295.12-30.96Q296.24-29.92 296.24-28.56L296.24-28.56L296.24-28.56Q296.24-27.52 295.60-26.84L295.60-26.84L295.60-26.84Q294.96-26.16 293.84-26.16L293.84-26.16L293.84-26.16Q291.68-26.16 290.48-27.72L290.48-27.72L290.48-27.72Q289.28-29.28 289.28-32.08L289.28-32.08L289.28-32.08Q289.28-35.28 291-37.36L291-37.36L291-37.36Q292.72-39.44 296-39.44L296-39.44L296-39.44Q298-39.44 300.72-37.72L300.72-37.72L300.72-37.72Q303.44-36 304.80-36L304.80-36L304.80-36Q306.56-36 309.28-37.64L309.28-37.64L309.28-37.64Q312-39.28 313.36-39.44L313.36-39.44L313.36-39.44Q314.80-39.44 315.60-38.76L315.60-38.76L315.60-38.76Q316.40-38.08 316.40-36.96L316.40-36.96L316.40-36.96Q316.40-34.16 314.24-30.44L314.24-30.44L314.24-30.44Q312.08-26.72 309.44-23.52L309.44-23.52L309.44-23.52Q306.80-20.32 304.20-15.60L304.20-15.60L304.20-15.60Q301.60-10.88 301.60-7.84L301.60-7.84L301.60-7.84Q301.60-2.64 306.16-2.64L306.16-2.64L306.16-2.64Q308.96-2.64 310.96-4.32L310.96-4.32L310.96-4.32Q310-4.64 309.20-5.92L309.20-5.92L309.20-5.92Q308.40-7.20 308.40-8.32L308.40-8.32L308.40-8.32Q308.40-9.84 309.32-11L309.32-11L309.32-11Q310.24-12.16 311.76-12.16L311.76-12.16L311.76-12.16Q313.28-12.16 314.32-11.04L314.32-11.04L314.32-11.04Q315.36-9.92 315.36-8.40L315.36-8.40L315.36-8.40Q315.36-4.16 312.28-1.64L312.28-1.64L312.28-1.64Q309.20 0.88 305.52 0.88L305.52 0.88L305.52 0.88Q301.92 0.88 299.76-1.52L299.76-1.52L299.76-1.52Q297.60-3.92 297.44-7.52L297.44-7.52L297.44-7.52Q297.44-11.36 299.84-15.92L299.84-15.92L299.84-15.92Q302.24-20.48 306.84-26.76L306.84-26.76L306.84-26.76Q311.44-33.04 312.72-35.12L312.72-35.12L312.72-35.12Q308.80-32 304.80-32L304.80-32L304.80-32Q302.08-32 298.96-33.80L298.96-33.80L298.96-33.80Q295.84-35.60 294.96-35.60L294.96-35.60L294.96-35.60Q292.40-35.60 292.08-32ZM396.96-34.64L396.96-34.64L396.96-34.64Q401.12-32.96 403.40-29.56L403.40-29.56L403.40-29.56Q405.68-26.16 405.68-21.76L405.68-21.76L405.68-21.76Q405.68-17.36 404.28-13.20L404.28-13.20L404.28-13.20Q402.88-9.04 400.32-5.80L400.32-5.80L400.32-5.80Q397.76-2.56 394.20-0.60L394.20-0.60L394.20-0.60Q390.64 1.36 386.32 1.36L386.32 1.36L386.32 1.36Q384.16 1.36 382.28 0.84L382.28 0.84L382.28 0.84Q380.40 0.32 378.96-0.68L378.96-0.68L378.96-0.68Q377.52-1.68 376.68-3.20L376.68-3.20L376.68-3.20Q375.84-4.72 375.84-6.80L375.84-6.80L375.84-6.80Q375.84-10.16 377.52-12.56L377.52-12.56L377.52-12.56Q379.20-14.96 382.32-14.96L382.32-14.96L382.32-14.96Q384.32-14.96 385.48-13.68L385.48-13.68L385.48-13.68Q386.64-12.40 386.64-10.80L386.64-10.80L386.64-10.80Q386.64-7.76 383.60-7.76L383.60-7.76L383.60-7.76Q381.12-7.76 379.68-9.84L379.68-9.84L379.68-9.84Q379.20-8.96 379.20-7.68L379.20-7.68L379.20-7.68Q379.20-5.20 381.12-3.60L381.12-3.60L381.12-3.60Q383.04-2 385.76-2L385.76-2L385.76-2Q389.36-2 392.32-3.68L392.32-3.68L392.32-3.68Q395.28-5.36 397.40-8.16L397.40-8.16L397.40-8.16Q399.52-10.96 400.72-14.56L400.72-14.56L400.72-14.56Q401.92-18.16 401.92-22L401.92-22L401.92-22Q401.92-25.04 400.40-27.60L400.40-27.60L400.40-27.60Q398.88-30.16 396.08-31.04L396.08-31.04L396.08-31.04Q395.60-29.04 394.16-26.92L394.16-26.92L394.16-26.92Q392.72-24.80 390.84-23.08L390.84-23.08L390.84-23.08Q388.96-21.36 386.84-20.24L386.84-20.24L386.84-20.24Q384.72-19.12 382.80-19.12L382.80-19.12L382.80-19.12Q378.56-19.12 378.56-22.72L378.56-22.72L378.56-22.72Q378.56-25.36 379.84-27.64L379.84-27.64L379.84-27.64Q381.12-29.92 383.16-31.60L383.16-31.60L383.16-31.60Q385.20-33.28 387.84-34.24L387.84-34.24L387.84-34.24Q390.48-35.20 393.28-35.20L393.28-35.20L393.28-35.20Q393.76-36.72 393.76-38.48L393.76-38.48L393.76-38.48Q393.76-40.40 393.20-42.04L393.20-42.04L393.20-42.04Q392.64-43.68 391.56-44.92L391.56-44.92L391.56-44.92Q390.48-46.16 388.88-46.88L388.88-46.88L388.88-46.88Q387.28-47.60 385.28-47.60L385.28-47.60L385.28-47.60Q384.40-47.60 384.16-47.52L384.16-47.52L384.16-47.52Q375.60-23.36 367.84-11.16L367.84-11.16L367.84-11.16Q360.08 1.04 352.56 1.04L352.56 1.04L352.56 1.04Q349.20 1.04 347.08-1.44L347.08-1.44L347.08-1.44Q344.96-3.92 344.96-8.48L344.96-8.48L344.96-8.48Q344.96-13.44 346.88-18.56L346.88-18.56L346.88-18.56Q348.80-23.68 352.00-28.44L352.00-28.44L352.00-28.44Q355.20-33.20 359.32-37.40L359.32-37.40L359.32-37.40Q363.44-41.60 367.92-44.68L367.92-44.68L367.92-44.68Q372.40-47.76 376.84-49.56L376.84-49.56L376.84-49.56Q381.28-51.36 385.04-51.36L385.04-51.36L385.04-51.36Q387.68-51.36 389.96-50.32L389.96-50.32L389.96-50.32Q392.24-49.28 393.88-47.48L393.88-47.48L393.88-47.48Q395.52-45.68 396.48-43.32L396.48-43.32L396.48-43.32Q397.44-40.96 397.44-38.32L397.44-38.32L397.44-38.32Q397.44-36.40 396.96-34.64ZM383.28-22.40L383.28-22.40L383.28-22.40Q384.08-22.40 385.40-23.28L385.40-23.28L385.40-23.28Q386.72-24.16 388.12-25.56L388.12-25.56L388.12-25.56Q389.52-26.96 390.68-28.60L390.68-28.60L390.68-28.60Q391.84-30.24 392.24-31.76L392.24-31.76L391.44-31.76L391.44-31.76Q389.76-31.76 388.08-30.92L388.08-30.92L388.08-30.92Q386.40-30.08 385.08-28.84L385.08-28.84L385.08-28.84Q383.76-27.60 382.96-26.16L382.96-26.16L382.96-26.16Q382.16-24.72 382.16-23.52L382.16-23.52L382.16-23.52Q382.16-22.40 383.28-22.40ZM379.60-46.56L379.60-46.56L379.60-46.56Q374.24-45.12 367.08-39.16L367.08-39.16L367.08-39.16Q359.92-33.20 354.32-24.60L354.32-24.60L354.32-24.60Q348.72-16 348.72-8.72L348.72-8.72L348.72-8.72Q348.72-6 349.80-4.44L349.80-4.44L349.80-4.44Q350.88-2.88 352.72-2.88L352.72-2.88L352.72-2.88Q355.20-2.88 358.00-5.20L358.00-5.20L358.00-5.20Q360.80-7.52 362.96-10.64L362.96-10.64L362.96-10.64Q365.12-13.76 367.56-18.48L367.56-18.48L367.56-18.48Q370.00-23.20 371.36-26.28L371.36-26.28L371.36-26.28Q372.72-29.36 379.60-46.56ZM426.80-15.44L426.80-15.44L426.80-15.44Q425.92-13.36 424.08-13.36L424.08-13.36L424.08-13.36Q423.12-13.36 422.44-13.96L422.44-13.96L422.44-13.96Q421.76-14.56 421.76-15.44L421.76-15.44L421.76-15.44Q421.76-16.40 422.80-17.36L422.80-17.36L422.80-17.36Q420.72-18.24 420.72-19.68L420.72-19.68L420.72-19.68Q420.72-20.56 421.48-21.20L421.48-21.20L421.48-21.20Q422.24-21.84 423.52-21.84L423.52-21.84L423.52-21.84Q424.08-21.84 424.40-21.76L424.40-21.76L424.40-21.76Q424.56-23.28 425.28-24.16L425.28-24.16L425.28-24.16Q426.00-25.04 426.80-25.04L426.80-25.04L426.80-25.04Q427.68-25.04 428.40-24.16L428.40-24.16L428.40-24.16Q429.12-23.28 429.20-21.76L429.20-21.76L429.20-21.76Q429.44-21.84 430.16-21.84L430.16-21.84L430.16-21.84Q432.96-21.84 432.96-19.92L432.96-19.92L432.96-19.92Q432.96-18.24 430.88-17.36L430.88-17.36L430.88-17.36Q431.92-16.40 431.92-15.44L431.92-15.44L431.92-15.44Q431.92-14.56 431.24-13.96L431.24-13.96L431.24-13.96Q430.56-13.36 429.60-13.36L429.60-13.36L429.60-13.36Q427.68-13.36 426.80-15.44ZM426.72-16.80L426.72-16.80L426.72-16.80Q427.04-16.24 428.08-15.60L428.08-15.60L428.08-15.60Q429.12-14.96 429.60-14.96L429.60-14.96L429.60-14.96Q430.32-14.96 430.32-15.44L430.32-15.44L430.32-15.44Q430.32-16.80 428.32-18.08L428.32-18.08L428.32-18.08Q431.36-19.28 431.36-19.68L431.36-19.68L431.36-19.68Q431.36-20.24 430.16-20.24L430.16-20.24L427.68-20.16L427.68-20.16Q427.44-23.44 426.80-23.44L426.80-23.44L426.80-23.44Q426.24-23.44 425.84-20.16L425.84-20.16L425.84-20.16Q425.44-20.16 425.04-20.20L425.04-20.20L425.04-20.20Q424.64-20.24 424.32-20.24L424.32-20.24L424.32-20.24Q422.32-20.24 422.32-19.68L422.32-19.68L422.32-19.68Q422.32-19.28 425.36-18.08L425.36-18.08L425.36-18.08Q423.36-16.32 423.36-15.44L423.36-15.44L423.36-15.44Q423.36-14.96 424.08-14.96L424.08-14.96L424.08-14.96Q424.88-14.96 425.68-15.56L425.68-15.56L425.68-15.56Q426.48-16.16 426.72-16.80ZM425.12 0.88L425.12 0.88L425.12 0.88Q418.48 0.88 414.88-3.76L414.88-3.76L414.88-3.76Q411.28-8.40 411.28-15.92L411.28-15.92L411.28-15.92Q411.28-19.36 412.24-23.20L412.24-23.20L412.24-23.20Q413.20-27.04 415.12-30.84L415.12-30.84L415.12-30.84Q417.04-34.64 420.56-37.08L420.56-37.08L420.56-37.08Q424.08-39.52 428.64-39.52L428.64-39.52L428.64-39.52Q435.28-39.52 438.88-34.88L438.88-34.88L438.88-34.88Q442.48-30.24 442.48-22.72L442.48-22.72L442.48-22.72Q442.48-19.04 441.28-14.80L441.28-14.80L441.28-14.80Q440.88-12.08 440.76-9.32L440.76-9.32L440.76-9.32Q440.64-6.56 442.28-4.48L442.28-4.48L442.28-4.48Q443.92-2.40 447.28-2.40L447.28-2.40L447.28-2.40Q450.72-2.40 452.76-4.64L452.76-4.64L452.76-4.64Q454.80-6.88 454.80-9.84L454.80-9.84L454.80-9.84Q454.80-11.68 453.72-12.80L453.72-12.80L453.72-12.80Q452.64-13.92 451.20-13.92L451.20-13.92L451.20-13.92Q448.88-13.92 447.92-11.52L447.92-11.52L447.92-11.52Q449.28-11.52 450.20-10.56L450.20-10.56L450.20-10.56Q451.12-9.60 451.12-8.24L451.12-8.24L451.12-8.24Q451.12-6.64 450.24-5.76L450.24-5.76L450.24-5.76Q449.36-4.88 448.16-4.88L448.16-4.88L448.16-4.88Q446.56-4.88 445.44-6.08L445.44-6.08L445.44-6.08Q444.32-7.28 444.32-9.52L444.32-9.52L444.32-9.52Q444.32-12.32 446.16-14.60L446.16-14.60L446.16-14.60Q448.00-16.88 451.04-16.88L451.04-16.88L451.04-16.88Q454.24-16.88 456.36-14.88L456.36-14.88L456.36-14.88Q458.48-12.88 458.48-9.28L458.48-9.28L458.48-9.28Q458.48-4.80 455.04-1.92L455.04-1.92L455.04-1.92Q451.60 0.96 446.96 0.96L446.96 0.96L446.96 0.96Q439.04 0.96 437.44-5.92L437.44-5.92L437.44-5.92Q432.72 0.88 425.12 0.88ZM425.12-2.88L425.12-2.88L425.12-2.88Q431.12-2.88 434.84-8.92L434.84-8.92L434.84-8.92Q438.56-14.96 438.56-22.08L438.56-22.08L438.56-22.08Q438.56-24.48 438.08-26.76L438.08-26.76L438.08-26.76Q437.60-29.04 436.52-31.12L436.52-31.12L436.52-31.12Q435.44-33.20 433.44-34.48L433.44-34.48L433.44-34.48Q431.44-35.76 428.72-35.76L428.72-35.76L428.72-35.76Q422.64-35.76 418.88-29.72L418.88-29.72L418.88-29.72Q415.12-23.68 415.12-16.56L415.12-16.56L415.12-16.56Q415.12-11.12 417.52-7L417.52-7L417.52-7Q419.92-2.88 425.12-2.88ZM474.96 0.88L474.96 0.88L474.96 0.88Q469.92 0.88 466.52-2.52L466.52-2.52L466.52-2.52Q463.12-5.92 463.12-10.88L463.12-10.88L463.12-10.88Q463.12-15.36 464.92-20.72L464.92-20.72L464.92-20.72Q466.72-26.08 468.88-30.24L468.88-30.24L468.88-30.24Q471.04-34.40 472.84-39.72L472.84-39.72L472.84-39.72Q474.64-45.04 474.64-49.60L474.64-49.60L474.64-49.60Q474.64-52.80 473.28-55.20L473.28-55.20L473.28-55.20Q471.92-57.60 469.04-57.60L469.04-57.60L469.04-57.60Q467.04-57.60 466.00-56.32L466.00-56.32L466.00-56.32Q464.96-55.04 464.96-53.52L464.96-53.52L464.96-53.52Q464.96-52.32 465.52-52L465.52-52L465.52-52Q466.56-53.28 468.08-53.28L468.08-53.28L468.08-53.28Q469.20-53.28 469.88-52.44L469.88-52.44L469.88-52.44Q470.56-51.60 470.56-50.72L470.56-50.72L470.56-50.72Q470.56-49.20 469.52-48.36L469.52-48.36L469.52-48.36Q468.48-47.52 467.28-47.52L467.28-47.52L467.28-47.52Q464.72-47.52 463.20-49.40L463.20-49.40L463.20-49.40Q461.68-51.28 461.68-53.36L461.68-53.36L461.68-53.36Q461.68-56.80 463.92-58.96L463.92-58.96L463.92-58.96Q466.16-61.12 469.20-61.12L469.20-61.12L469.20-61.12Q473.84-61.12 476.24-57.56L476.24-57.56L476.24-57.56Q478.64-54 478.64-49.60L478.64-49.60L478.64-49.60Q478.64-44.88 476.84-39.44L476.84-39.44L476.84-39.44Q475.04-34 472.92-29.84L472.92-29.84L472.92-29.84Q470.80-25.68 469.00-20.52L469.00-20.52L469.00-20.52Q467.20-15.36 467.20-11.20L467.20-11.20L467.20-11.20Q467.20-7.84 469.12-5.24L469.12-5.24L469.12-5.24Q471.04-2.64 474.48-2.64L474.48-2.64L474.48-2.64Q478.56-2.64 480.76-4.80L480.76-4.80L480.76-4.80Q482.96-6.96 482.96-10.96L482.96-10.96L482.96-10.96Q482.96-12.88 481.96-14L481.96-14L481.96-14Q480.96-15.12 479.60-15.12L479.60-15.12L479.60-15.12Q477.44-15.12 476.08-12.80L476.08-12.80L476.08-12.80Q477.44-12.64 478.32-11.60L478.32-11.60L478.32-11.60Q479.20-10.56 479.20-9.20L479.20-9.20L479.20-9.20Q479.20-7.68 478.16-6.64L478.16-6.64L478.16-6.64Q477.12-5.60 475.60-5.60L475.60-5.60L475.60-5.60Q473.92-5.60 472.92-6.96L472.92-6.96L472.92-6.96Q471.92-8.32 471.92-10.08L471.92-10.08L471.92-10.08Q471.92-13.60 474.48-15.84L474.48-15.84L474.48-15.84Q477.04-18.08 480.00-18.08L480.00-18.08L480.00-18.08Q482.72-18.08 484.52-16.12L484.52-16.12L484.52-16.12Q486.32-14.16 486.32-10.56L486.32-10.56L486.32-10.56Q486.32-4.88 483.00-2L483.00-2L483.00-2Q479.68 0.88 474.96 0.88ZM503.60 0.88L503.60 0.88L503.60 0.88Q498.56 0.88 495.16-2.52L495.16-2.52L495.16-2.52Q491.76-5.92 491.76-10.88L491.76-10.88L491.76-10.88Q491.76-15.36 493.56-20.72L493.56-20.72L493.56-20.72Q495.36-26.08 497.52-30.24L497.52-30.24L497.52-30.24Q499.68-34.40 501.48-39.72L501.48-39.72L501.48-39.72Q503.28-45.04 503.28-49.60L503.28-49.60L503.28-49.60Q503.28-52.80 501.92-55.20L501.92-55.20L501.92-55.20Q500.56-57.60 497.68-57.60L497.68-57.60L497.68-57.60Q495.68-57.60 494.64-56.32L494.64-56.32L494.64-56.32Q493.60-55.04 493.60-53.52L493.60-53.52L493.60-53.52Q493.60-52.32 494.16-52L494.16-52L494.16-52Q495.20-53.28 496.72-53.28L496.72-53.28L496.72-53.28Q497.84-53.28 498.52-52.44L498.52-52.44L498.52-52.44Q499.20-51.60 499.20-50.72L499.20-50.72L499.20-50.72Q499.20-49.20 498.16-48.36L498.16-48.36L498.16-48.36Q497.12-47.52 495.92-47.52L495.92-47.52L495.92-47.52Q493.36-47.52 491.84-49.40L491.84-49.40L491.84-49.40Q490.32-51.28 490.32-53.36L490.32-53.36L490.32-53.36Q490.32-56.80 492.56-58.96L492.56-58.96L492.56-58.96Q494.80-61.12 497.84-61.12L497.84-61.12L497.84-61.12Q502.48-61.12 504.88-57.56L504.88-57.56L504.88-57.56Q507.28-54 507.28-49.60L507.28-49.60L507.28-49.60Q507.28-44.88 505.48-39.44L505.48-39.44L505.48-39.44Q503.68-34 501.56-29.84L501.56-29.84L501.56-29.84Q499.44-25.68 497.64-20.52L497.64-20.52L497.64-20.52Q495.84-15.36 495.84-11.20L495.84-11.20L495.84-11.20Q495.84-7.84 497.76-5.24L497.76-5.24L497.76-5.24Q499.68-2.64 503.12-2.64L503.12-2.64L503.12-2.64Q507.20-2.64 509.40-4.80L509.40-4.80L509.40-4.80Q511.60-6.96 511.60-10.96L511.60-10.96L511.60-10.96Q511.60-12.88 510.60-14L510.60-14L510.60-14Q509.60-15.12 508.24-15.12L508.24-15.12L508.24-15.12Q506.08-15.12 504.72-12.80L504.72-12.80L504.72-12.80Q506.08-12.64 506.96-11.60L506.96-11.60L506.96-11.60Q507.84-10.56 507.84-9.20L507.84-9.20L507.84-9.20Q507.84-7.68 506.80-6.64L506.80-6.64L506.80-6.64Q505.76-5.60 504.24-5.60L504.24-5.60L504.24-5.60Q502.56-5.60 501.56-6.96L501.56-6.96L501.56-6.96Q500.56-8.32 500.56-10.08L500.56-10.08L500.56-10.08Q500.56-13.60 503.12-15.84L503.12-15.84L503.12-15.84Q505.68-18.08 508.64-18.08L508.64-18.08L508.64-18.08Q511.36-18.08 513.16-16.12L513.16-16.12L513.16-16.12Q514.96-14.16 514.96-10.56L514.96-10.56L514.96-10.56Q514.96-4.88 511.64-2L511.64-2L511.64-2Q508.32 0.88 503.60 0.88Z" transform="translate(-8.639984369277954, 118.28000068664551)"/></g></g></svg>