<?xml version="1.0" standalone="no"?>
<!DOCTYPE svg PUBLIC "-//W3C//DTD SVG 20010904//EN"
 "http://www.w3.org/TR/2001/REC-SVG-20010904/DTD/svg10.dtd">
<svg version="1.0" xmlns="http://www.w3.org/2000/svg"
 width="1500.000000pt" height="1500.000000pt" viewBox="0 0 1500.000000 1500.000000"
 preserveAspectRatio="xMidYMid meet">

<g transform="translate(0.000000,1500.000000) scale(0.100000,-0.100000)"
fill="#000000" stroke="none">
<path d="M7308 14993 c12 -2 32 -2 45 0 12 2 2 4 -23 4 -25 0 -35 -2 -22 -4z"/>
<path d="M7753 14993 c9 -2 25 -2 35 0 9 3 1 5 -18 5 -19 0 -27 -2 -17 -5z"/>
<path d="M14368 14993 c7 -3 16 -2 19 1 4 3 -2 6 -13 5 -11 0 -14 -3 -6 -6z"/>
<path d="M14402 14988 c6 -18 28 -21 28 -4 0 9 -7 16 -16 16 -9 0 -14 -5 -12
-12z"/>
<path d="M14640 14992 c0 -11 48 -13 55 -2 4 6 -7 10 -24 10 -17 0 -31 -4 -31
-8z"/>
<path d="M14565 14980 c-3 -5 1 -10 9 -10 9 0 16 5 16 10 0 6 -4 10 -9 10 -6
0 -13 -4 -16 -10z"/>
<path d="M14355 14970 c-4 -6 5 -10 19 -10 14 0 26 5 26 10 0 6 -9 10 -19 10
-11 0 -23 -4 -26 -10z"/>
<path d="M14770 14972 c0 -11 37 -32 44 -25 8 9 -14 33 -30 33 -8 0 -14 -3
-14 -8z"/>
<path d="M14470 14955 c-8 -9 -8 -15 -2 -15 12 0 26 19 19 26 -2 2 -10 -2 -17
-11z"/>
<path d="M14845 14950 c3 -5 8 -10 11 -10 2 0 4 5 4 10 0 6 -5 10 -11 10 -5 0
-7 -4 -4 -10z"/>
<path d="M14562 14938 c6 -18 25 -20 31 -3 5 10 0 15 -14 15 -12 0 -19 -5 -17
-12z"/>
<path d="M14670 14935 c0 -8 5 -15 10 -15 6 0 10 7 10 15 0 8 -4 15 -10 15 -5
0 -10 -7 -10 -15z"/>
<path d="M14890 14940 c-8 -5 -12 -11 -10 -12 10 -8 120 4 120 13 0 12 -91 11
-110 -1z"/>
<path d="M14898 14881 c-3 -23 -7 -26 -35 -23 -18 2 -38 0 -45 -5 -7 -4 -35
-8 -61 -9 -27 -1 -59 -5 -73 -8 -17 -5 -24 -2 -24 9 0 8 -5 15 -11 15 -6 0 -9
-6 -6 -14 4 -10 -5 -16 -30 -21 -22 -4 -37 -13 -40 -25 -3 -10 -12 -19 -21
-19 -53 -3 -106 1 -126 9 -23 8 -36 5 -36 -11 0 -4 26 -11 58 -14 31 -4 74
-11 95 -16 25 -7 43 -7 50 -1 7 6 28 15 47 20 19 6 55 18 79 27 24 8 55 17 70
19 14 2 34 7 43 11 9 3 26 2 37 -5 22 -11 94 -4 87 9 -3 4 5 8 16 8 48 4 36
23 -16 26 -38 2 -43 6 -25 24 7 7 4 12 -10 16 -16 4 -21 -1 -23 -22z"/>
<path d="M14540 14880 c0 -5 5 -10 10 -10 6 0 10 5 10 10 0 6 -4 10 -10 10 -5
0 -10 -4 -10 -10z"/>
<path d="M14648 14883 c7 -3 16 -2 19 1 4 3 -2 6 -13 5 -11 0 -14 -3 -6 -6z"/>
<path d="M14368 14853 c7 -3 16 -2 19 1 4 3 -2 6 -13 5 -11 0 -14 -3 -6 -6z"/>
<path d="M14508 14843 c12 -2 30 -2 40 0 9 3 -1 5 -23 4 -22 0 -30 -2 -17 -4z"/>
<path d="M14378 14833 c7 -3 16 -2 19 1 4 3 -2 6 -13 5 -11 0 -14 -3 -6 -6z"/>
<path d="M14245 14813 c-52 -8 -48 -20 7 -27 29 -3 67 -8 85 -11 35 -5 46 3
33 25 -6 10 -12 11 -22 4 -7 -6 -19 -9 -25 -8 -7 1 -19 2 -25 3 -7 2 -4 6 7
11 18 8 18 9 -5 8 -14 -1 -38 -3 -55 -5z"/>
<path d="M14450 14800 c0 -5 11 -10 25 -10 14 0 25 5 25 10 0 6 -11 10 -25 10
-14 0 -25 -4 -25 -10z"/>
<path d="M14035 14770 c-3 -5 1 -10 10 -10 9 0 13 5 10 10 -3 6 -8 10 -10 10
-2 0 -7 -4 -10 -10z"/>
<path d="M13037 14703 c-5 -7 -5 -13 0 -13 4 -1 -5 -7 -22 -15 l-30 -14 46 4
c25 2 80 5 122 6 42 1 74 5 71 10 -2 5 5 11 18 13 13 3 32 7 43 9 11 3 1 5
-22 6 -25 1 -43 -4 -46 -11 -4 -9 -8 -10 -14 -3 -12 16 -100 15 -114 -1 -16
-19 -37 -17 -41 4 -3 12 -6 14 -11 5z"/>
<path d="M13456 14684 c-4 -10 -2 -22 3 -27 7 -7 13 -5 17 7 4 10 2 22 -3 27
-7 7 -13 5 -17 -7z"/>
<path d="M12850 14680 c0 -5 10 -10 23 -10 18 0 19 2 7 10 -19 13 -30 13 -30
0z"/>
<path d="M13760 14683 c-19 -1 -64 -6 -100 -9 -59 -6 -63 -7 -45 -21 24 -17
81 -12 170 17 57 18 52 21 -25 13z"/>
<path d="M13345 14660 c7 -12 52 -12 80 0 15 6 6 9 -33 9 -33 1 -51 -3 -47 -9z"/>
<path d="M70 14650 c-12 -8 -9 -10 13 -10 16 0 26 4 22 10 -8 12 -16 12 -35 0z"/>
<path d="M610 14650 c-12 -8 -9 -10 13 -10 16 0 26 4 22 10 -8 12 -16 12 -35
0z"/>
<path d="M958 14647 c29 -7 52 -7 75 1 28 9 23 10 -43 10 -72 0 -73 -1 -32
-11z"/>
<path d="M8 14643 c7 -3 16 -2 19 1 4 3 -2 6 -13 5 -11 0 -14 -3 -6 -6z"/>
<path d="M733 14643 c15 -2 37 -2 50 0 12 2 0 4 -28 4 -27 0 -38 -2 -22 -4z"/>
<path d="M14295 14640 c-3 -5 1 -10 9 -10 9 0 16 5 16 10 0 6 -4 10 -9 10 -6
0 -13 -4 -16 -10z"/>
<path d="M14435 14620 c-3 -5 -1 -10 4 -10 6 0 11 5 11 10 0 6 -2 10 -4 10 -3
0 -8 -4 -11 -10z"/>
<path d="M8088 14603 c7 -3 16 -2 19 1 4 3 -2 6 -13 5 -11 0 -14 -3 -6 -6z"/>
<path d="M10108 14583 c-32 -8 -19 -20 24 -21 23 -1 45 -8 50 -15 6 -9 8 -9 8
2 0 7 6 11 14 8 8 -3 17 -3 21 1 7 7 12 8 64 10 19 1 32 4 29 7 -6 7 -187 13
-210 8z"/>
<path d="M14460 14560 c-6 -11 -8 -20 -6 -20 3 0 10 9 16 20 6 11 8 20 6 20
-3 0 -10 -9 -16 -20z"/>
<path d="M14353 14563 c-18 -7 -16 -23 2 -23 8 0 15 7 15 15 0 8 -1 15 -2 14
-2 0 -9 -3 -15 -6z"/>
<path d="M14420 14560 c-11 -73 -6 -86 21 -54 9 11 9 18 2 22 -6 4 -13 16 -16
27 -3 13 -5 15 -7 5z"/>
<path d="M14450 14479 c0 -5 5 -7 10 -4 6 3 10 8 10 11 0 2 -4 4 -10 4 -5 0
-10 -5 -10 -11z"/>
<path d="M10200 14215 c-10 -11 -9 -18 3 -30 9 -8 24 -15 34 -15 16 1 15 3 -6
20 -13 11 -18 20 -12 20 6 0 11 5 11 10 0 15 -16 12 -30 -5z"/>
<path d="M4450 14185 c-12 -14 -11 -18 1 -26 20 -13 29 -11 29 6 0 8 0 18 1
22 1 15 -18 13 -31 -2z"/>
<path d="M14297 14143 c-1 -1 -137 -4 -302 -8 -165 -4 -322 -8 -350 -10 -27
-2 -165 -4 -305 -5 -140 -2 -388 -6 -550 -10 -343 -10 -796 -15 -2400 -30
-641 -7 -1496 -15 -1900 -19 l-735 -8 840 -1 c462 -1 1229 2 1705 8 476 5
1241 12 1700 15 459 3 941 7 1070 10 129 2 460 5 735 5 275 1 656 4 848 7
l347 6 0 24 0 24 -351 -3 c-193 -2 -351 -4 -352 -5z"/>
<path d="M0 14092 c0 -5 60 -12 133 -15 173 -9 1726 -11 1734 -3 4 3 -158 6
-358 6 -200 1 -454 3 -564 5 -559 12 -945 15 -945 7z"/>
<path d="M1903 14068 c-2 -5 155 -7 349 -6 194 1 335 3 313 5 -90 7 -657 7
-662 1z"/>
<path d="M2633 14063 c9 -2 23 -2 30 0 6 3 -1 5 -18 5 -16 0 -22 -2 -12 -5z"/>
<path d="M4188 14053 c12 -2 32 -2 45 0 12 2 2 4 -23 4 -25 0 -35 -2 -22 -4z"/>
<path d="M4723 14054 c8 -8 1707 -7 1715 1 3 3 -383 5 -858 5 -475 0 -860 -3
-857 -6z"/>
<path d="M6623 14053 c9 -2 25 -2 35 0 9 3 1 5 -18 5 -19 0 -27 -2 -17 -5z"/>
<path d="M6743 14053 c9 -2 25 -2 35 0 9 3 1 5 -18 5 -19 0 -27 -2 -17 -5z"/>
<path d="M6838 14053 c23 -2 61 -2 85 0 23 2 4 4 -43 4 -47 0 -66 -2 -42 -4z"/>
<path d="M7233 14053 c9 -2 23 -2 30 0 6 3 -1 5 -18 5 -16 0 -22 -2 -12 -5z"/>
<path d="M7323 14053 c26 -2 68 -2 95 0 26 2 4 3 -48 3 -52 0 -74 -1 -47 -3z"/>
<path d="M7508 14053 c6 -2 18 -2 25 0 6 3 1 5 -13 5 -14 0 -19 -2 -12 -5z"/>
<path d="M7618 14053 c12 -2 32 -2 45 0 12 2 2 4 -23 4 -25 0 -35 -2 -22 -4z"/>
<path d="M10230 13775 c0 -8 5 -15 10 -15 6 0 10 7 10 15 0 8 -4 15 -10 15 -5
0 -10 -7 -10 -15z"/>
<path d="M4485 13730 c3 -5 10 -10 16 -10 5 0 9 5 9 10 0 6 -7 10 -16 10 -8 0
-12 -4 -9 -10z"/>
<path d="M14710 13530 c-113 -4 -461 -8 -774 -9 -313 -1 -571 -3 -575 -5 -3
-2 -368 -7 -811 -10 -1868 -14 -2143 -16 -2925 -21 -922 -6 -1548 -15 -1555
-22 -3 -2 281 -2 630 1 349 4 977 8 1395 11 1637 10 2816 19 3395 26 333 4
809 8 1058 8 395 1 452 3 452 16 0 11 -11 15 -42 13 -24 -1 -135 -5 -248 -8z"/>
<path d="M50 13510 l-55 -5 50 -7 c28 -4 160 -8 295 -9 135 0 310 -2 390 -3
80 -2 190 0 245 4 77 5 40 7 -155 9 -140 1 -302 4 -360 7 -152 8 -346 10 -410
4z"/>
<path d="M1118 13493 c18 -2 45 -2 60 0 15 2 0 4 -33 4 -33 0 -45 -2 -27 -4z"/>
<path d="M2033 13483 c9 -2 25 -2 35 0 9 3 1 5 -18 5 -19 0 -27 -2 -17 -5z"/>
<path d="M7455 13470 c-17 -7 -14 -9 13 -9 20 -1 31 3 27 9 -7 12 -13 12 -40
0z"/>
<path d="M7528 13473 c6 -2 18 -2 25 0 6 3 1 5 -13 5 -14 0 -19 -2 -12 -5z"/>
<path d="M7938 13463 c7 -3 16 -2 19 1 4 3 -2 6 -13 5 -11 0 -14 -3 -6 -6z"/>
<path d="M10240 13232 c0 -12 3 -12 15 -2 8 7 15 13 15 15 0 1 -7 2 -15 2 -8
0 -15 -7 -15 -15z"/>
<path d="M10277 13231 c-4 -17 -2 -18 14 -8 22 14 25 27 5 27 -7 0 -16 -9 -19
-19z"/>
<path d="M13910 13160 c-13 -8 -13 -10 2 -10 9 0 20 5 23 10 8 13 -5 13 -25 0z"/>
<path d="M14245 12889 c-791 -8 -765 -7 -765 -19 0 -7 78 -9 238 -5 290 7 783
14 1070 14 140 1 212 5 212 11 0 7 -27 10 -72 8 -40 -2 -347 -6 -683 -9z"/>
<path d="M85 12870 c50 -3 94 -2 99 2 6 4 -35 7 -90 6 l-99 -1 90 -7z"/>
<path d="M233 12868 c21 -7 32 -7 40 1 8 8 0 11 -28 10 -40 -1 -40 -1 -12 -11z"/>
<path d="M10821 12869 c-13 -5 -97 -9 -185 -8 -413 3 -909 -4 -876 -12 19 -4
93 -7 164 -5 78 3 124 1 115 -5 -18 -11 -4 -11 45 1 26 6 46 5 59 -2 15 -8 18
-7 12 2 -6 10 -1 11 21 5 54 -13 529 -18 554 -5 16 8 20 9 15 1 -5 -9 62 -11
257 -7 145 2 300 4 346 5 45 0 82 4 82 9 0 19 -357 36 -470 21 -8 -1 -37 1
-65 4 -27 4 -61 2 -74 -4z"/>
<path d="M12605 12870 c-25 -6 -20 -8 25 -8 39 0 49 2 35 8 -23 10 -21 10 -60
0z"/>
<path d="M12720 12868 c0 -4 14 -8 30 -8 17 0 30 2 30 4 0 2 -13 6 -30 8 -16
3 -30 1 -30 -4z"/>
<path d="M12829 12869 c-10 -6 -7 -9 14 -9 29 0 35 5 14 13 -8 3 -20 1 -28 -4z"/>
<path d="M12980 12870 l-65 -7 68 -1 c39 -1 67 2 67 8 0 6 -1 9 -2 8 -2 -1
-32 -4 -68 -8z"/>
<path d="M13095 12869 c-4 -5 66 -9 174 -9 106 0 182 4 186 10 4 6 -59 9 -174
9 -100 0 -183 -5 -186 -10z"/>
<path d="M398 12863 c45 -2 119 -2 165 0 45 1 8 3 -83 3 -91 0 -128 -2 -82 -3z"/>
<path d="M688 12863 c12 -2 30 -2 40 0 9 3 -1 5 -23 4 -22 0 -30 -2 -17 -4z"/>
<path d="M780 12864 c59 -7 488 -9 484 -2 -3 5 -119 7 -257 7 -139 -1 -241 -3
-227 -5z"/>
<path d="M3505 12861 c3 -7 -226 -10 -621 -10 -345 -1 -629 -3 -632 -6 -3 -3
199 -6 449 -7 250 -1 474 -2 499 -3 71 -2 367 -6 448 -5 41 0 72 4 72 10 0 6
-34 10 -83 10 -46 0 -87 3 -91 7 -11 11 -48 14 -41 4z"/>
<path d="M11728 12863 c12 -2 22 -9 22 -14 0 -5 14 -9 31 -9 16 0 28 4 24 9
-3 5 5 12 17 14 13 2 -8 4 -47 4 -38 0 -60 -2 -47 -4z"/>
<path d="M11857 12863 c-27 -26 43 -32 89 -8 29 15 29 15 -27 15 -31 0 -59 -3
-62 -7z"/>
<path d="M12145 12854 c14 -14 32 -16 118 -11 56 4 108 7 115 7 6 0 12 5 12
10 0 6 -50 10 -131 10 -121 0 -129 -1 -114 -16z"/>
<path d="M1315 12854 c84 -7 925 -9 925 -2 0 4 -217 6 -482 6 -266 -1 -465 -3
-443 -4z"/>
<path d="M8935 12850 c-46 -5 -43 -6 35 -11 83 -6 143 2 110 15 -16 6 -63 4
-145 -4z"/>
<path d="M3920 12840 c0 -12 8 -12 35 0 18 8 17 9 -7 9 -16 1 -28 -3 -28 -9z"/>
<path d="M7583 12843 c4 -4 26 -8 50 -9 37 -2 39 -1 12 6 -39 10 -70 12 -62 3z"/>
<path d="M8858 12843 c7 -3 16 -2 19 1 4 3 -2 6 -13 5 -11 0 -14 -3 -6 -6z"/>
<path d="M4058 12833 c6 -2 18 -2 25 0 6 3 1 5 -13 5 -14 0 -19 -2 -12 -5z"/>
<path d="M4128 12833 c6 -2 18 -2 25 0 6 3 1 5 -13 5 -14 0 -19 -2 -12 -5z"/>
<path d="M4184 12833 c7 -7 77 -5 85 2 2 3 -17 5 -44 5 -27 0 -45 -3 -41 -7z"/>
<path d="M4308 12833 c7 -3 16 -2 19 1 4 3 -2 6 -13 5 -11 0 -14 -3 -6 -6z"/>
<path d="M4703 12833 c15 -2 39 -2 55 0 15 2 2 4 -28 4 -30 0 -43 -2 -27 -4z"/>
<path d="M4800 12836 c0 -2 7 -6 15 -10 8 -3 15 -1 15 4 0 6 -7 10 -15 10 -8
0 -15 -2 -15 -4z"/>
<path d="M4873 12833 c9 -2 23 -2 30 0 6 3 -1 5 -18 5 -16 0 -22 -2 -12 -5z"/>
<path d="M4940 12836 c0 -2 7 -6 15 -10 8 -3 15 -1 15 4 0 6 -7 10 -15 10 -8
0 -15 -2 -15 -4z"/>
<path d="M5146 12830 c7 -7 19 -7 35 -1 23 9 22 10 -10 10 -24 1 -32 -2 -25
-9z"/>
<path d="M5328 12833 c7 -3 16 -2 19 1 4 3 -2 6 -13 5 -11 0 -14 -3 -6 -6z"/>
<path d="M5663 12833 c9 -2 23 -2 30 0 6 3 -1 5 -18 5 -16 0 -22 -2 -12 -5z"/>
<path d="M7804 12829 c12 -8 25 -8 40 -1 18 9 16 11 -19 11 -33 0 -37 -1 -21
-10z"/>
<path d="M14022 12533 c-6 -16 -11 -21 -12 -13 -1 10 -4 9 -9 -5 -9 -21 3 -55
19 -55 4 0 11 14 15 30 7 31 20 39 28 18 4 -10 6 -10 6 0 1 18 -18 52 -29 52
-4 0 -13 -12 -18 -27z"/>
<path d="M14220 12531 c0 -6 5 -13 10 -16 6 -3 10 1 10 9 0 9 -4 16 -10 16 -5
0 -10 -4 -10 -9z"/>
<path d="M14255 12530 c-3 -5 -1 -10 4 -10 6 0 11 5 11 10 0 6 -2 10 -4 10 -3
0 -8 -4 -11 -10z"/>
<path d="M14176 12495 c4 -8 10 -12 15 -9 11 6 2 24 -11 24 -5 0 -7 -7 -4 -15z"/>
<path d="M14150 12480 c-8 -5 -11 -12 -7 -16 4 -4 13 -2 19 4 15 15 7 24 -12
12z"/>
<path d="M14770 12480 c0 -5 9 -14 20 -20 17 -9 20 -8 20 10 0 13 -7 20 -20
20 -11 0 -20 -4 -20 -10z"/>
<path d="M10153 12455 c1 -21 8 -31 22 -33 18 -3 19 -3 3 10 -9 7 -19 22 -21
33 -3 12 -5 8 -4 -10z"/>
<path d="M10170 12455 c0 -9 6 -12 15 -9 8 4 12 10 9 15 -8 14 -24 10 -24 -6z"/>
<path d="M4520 12391 c0 -6 5 -13 10 -16 6 -3 10 1 10 9 0 9 -4 16 -10 16 -5
0 -10 -4 -10 -9z"/>
<path d="M14919 12166 c-4 -3 -225 -8 -1024 -21 -165 -3 -403 -7 -530 -10
-478 -10 -1281 -21 -2980 -40 -728 -8 -2195 -15 -3522 -18 -673 -1 -1210 -6
-1195 -10 29 -9 4484 -1 4642 8 95 5 1435 20 2750 30 388 3 901 10 1140 15
239 6 517 10 618 10 175 0 182 1 182 20 0 17 -7 20 -38 20 -21 0 -41 -2 -43
-4z"/>
<path d="M0 12111 c0 -8 83 -11 268 -12 147 -1 299 -3 337 -5 39 -1 556 -5
1150 -8 594 -3 1242 -8 1440 -11 581 -8 2424 -9 2431 -2 4 4 -341 7 -767 8
-426 0 -967 2 -1204 4 -236 2 -887 6 -1445 9 -558 4 -1078 8 -1155 11 -380 12
-1055 16 -1055 6z"/>
<path d="M10140 11955 c-15 -17 -5 -49 13 -42 6 2 11 12 11 21 -1 9 2 16 7 16
5 0 9 5 9 10 0 15 -26 12 -40 -5z"/>
<path d="M4477 11953 c-12 -12 -7 -22 8 -17 8 4 15 1 15 -5 0 -6 -5 -11 -12
-11 -6 0 -9 -3 -5 -6 3 -3 15 -3 26 1 17 5 19 9 8 26 -12 19 -28 24 -40 12z"/>
<path d="M14768 11793 c6 -2 18 -2 25 0 6 3 1 5 -13 5 -14 0 -19 -2 -12 -5z"/>
<path d="M12945 11740 c-10 -11 -13 -20 -7 -20 6 0 15 6 19 14 4 7 15 16 23
19 13 5 13 6 -1 6 -9 1 -24 -8 -34 -19z"/>
<path d="M12910 11651 c0 -13 9 -20 30 -23 17 -3 33 -1 36 3 2 4 -8 9 -23 11
-16 2 -27 8 -25 16 1 6 -2 12 -8 12 -5 0 -10 -8 -10 -19z"/>
<path d="M12988 11613 c7 -3 16 -2 19 1 4 3 -2 6 -13 5 -11 0 -14 -3 -6 -6z"/>
<path d="M14293 11461 c-9 -11 -22 -17 -29 -14 -8 3 -14 0 -14 -7 0 -9 10 -11
31 -6 17 3 35 6 40 6 5 0 9 9 9 20 0 25 -15 26 -37 1z"/>
<path d="M14387 11444 c-4 -4 -7 -14 -7 -23 0 -11 3 -12 11 -4 6 6 10 16 7 23
-2 6 -7 8 -11 4z"/>
<path d="M9005 11400 c3 -5 14 -10 23 -10 15 0 15 2 2 10 -20 13 -33 13 -25 0z"/>
<path d="M8702 11395 c8 -8 46 -15 110 -19 66 -5 79 -11 71 -33 -4 -11 -3 -14
6 -9 7 5 10 14 7 22 -3 8 1 14 10 14 8 0 18 -10 23 -22 4 -12 11 -17 14 -11
14 22 -19 44 -68 48 -28 2 -79 6 -114 9 -35 3 -62 4 -59 1z"/>
<path d="M8540 11379 c-36 -5 -133 -10 -216 -12 -91 -3 -159 -9 -170 -16 -15
-10 -9 -11 36 -7 30 3 125 8 210 12 149 7 357 33 250 32 -25 -1 -74 -4 -110
-9z"/>
<path d="M8955 11380 c-8 -13 15 -13 35 0 12 8 11 10 -7 10 -12 0 -25 -4 -28
-10z"/>
<path d="M8049 11366 c8 -9 28 -16 50 -16 42 1 27 13 -29 25 -31 7 -33 6 -21
-9z"/>
<path d="M14361 11327 c-13 -16 -5 -27 21 -27 20 0 21 1 12 24 -7 20 -18 20
-33 3z"/>
<path d="M11498 11283 c7 -3 16 -2 19 1 4 3 -2 6 -13 5 -11 0 -14 -3 -6 -6z"/>
<path d="M14345 11259 c-80 -10 -54 -11 137 -10 39 1 69 3 67 5 -7 8 -153 11
-204 5z"/>
<path d="M14968 11263 c6 -2 18 -2 25 0 6 3 1 5 -13 5 -14 0 -19 -2 -12 -5z"/>
<path d="M14613 11254 c8 -9 116 -10 110 -1 -2 4 -29 7 -60 7 -31 0 -54 -3
-50 -6z"/>
<path d="M11688 11233 c7 -3 16 -2 19 1 4 3 -2 6 -13 5 -11 0 -14 -3 -6 -6z"/>
<path d="M9660 11220 c-41 -6 -39 -7 28 -8 42 -1 72 2 72 8 0 11 -30 11 -100
0z"/>
<path d="M10610 11220 c101 -12 192 -11 185 0 -4 6 -56 9 -128 8 -109 -1 -115
-2 -57 -8z"/>
<path d="M10820 11220 c-13 -8 -12 -10 3 -10 9 0 17 5 17 10 0 12 -1 12 -20 0z"/>
<path d="M11163 11223 c9 -2 23 -2 30 0 6 3 -1 5 -18 5 -16 0 -22 -2 -12 -5z"/>
<path d="M8034 11210 c-83 -4 -45 -6 126 -6 235 0 263 3 79 8 -47 2 -139 1
-205 -2z"/>
<path d="M8410 11210 c0 -9 219 -3 229 6 2 2 -48 4 -112 4 -69 0 -117 -4 -117
-10z"/>
<path d="M8788 11213 c78 -2 206 -2 285 0 78 1 14 3 -143 3 -157 0 -221 -2
-142 -3z"/>
<path d="M9513 11213 c15 -2 37 -2 50 0 12 2 0 4 -28 4 -27 0 -38 -2 -22 -4z"/>
<path d="M0 11201 c0 -8 146 -11 563 -12 309 -1 650 -4 757 -6 328 -8 5050 -3
5440 6 221 4 -640 8 -2190 8 -1405 1 -3008 5 -3562 9 -757 5 -1008 4 -1008 -5z"/>
<path d="M7130 11200 c0 -5 5 -10 10 -10 6 0 10 5 10 10 0 6 -4 10 -10 10 -5
0 -10 -4 -10 -10z"/>
<path d="M7225 11200 c-3 -5 1 -10 9 -10 9 0 16 5 16 10 0 6 -4 10 -9 10 -6 0
-13 -4 -16 -10z"/>
<path d="M7293 11203 c9 -2 23 -2 30 0 6 3 -1 5 -18 5 -16 0 -22 -2 -12 -5z"/>
<path d="M7378 11203 c12 -2 30 -2 40 0 9 3 -1 5 -23 4 -22 0 -30 -2 -17 -4z"/>
<path d="M7528 11203 c50 -2 134 -2 185 0 50 1 9 3 -93 3 -102 0 -143 -2 -92
-3z"/>
<path d="M10895 11200 c4 -6 11 -8 16 -5 14 9 11 15 -7 15 -8 0 -12 -5 -9 -10z"/>
<path d="M10930 11206 c0 -9 40 -13 46 -5 3 5 -6 9 -20 9 -14 0 -26 -2 -26 -4z"/>
<path d="M11008 11203 c7 -3 16 -2 19 1 4 3 -2 6 -13 5 -11 0 -14 -3 -6 -6z"/>
<path d="M11338 11193 c7 -3 16 -2 19 1 4 3 -2 6 -13 5 -11 0 -14 -3 -6 -6z"/>
<path d="M5465 11160 c-17 -7 -15 -9 13 -9 17 -1 32 4 32 9 0 12 -17 12 -45 0z"/>
<path d="M14813 11083 c9 -2 25 -2 35 0 9 3 1 5 -18 5 -19 0 -27 -2 -17 -5z"/>
<path d="M14820 11020 c-25 -4 -38 -8 -30 -10 41 -6 -73 -20 -217 -26 -101 -5
-160 -11 -156 -17 9 -15 328 4 403 24 19 5 58 9 85 10 28 1 61 5 75 10 19 7
16 7 -13 3 -26 -3 -37 -2 -32 5 7 12 -41 12 -115 1z"/>
<path d="M14538 11003 c12 -2 30 -2 40 0 9 3 -1 5 -23 4 -22 0 -30 -2 -17 -4z"/>
<path d="M14353 10993 c15 -2 37 -2 50 0 12 2 0 4 -28 4 -27 0 -38 -2 -22 -4z"/>
<path d="M14297 10963 c18 -2 50 -2 70 0 21 2 7 4 -32 4 -38 0 -55 -2 -38 -4z"/>
<path d="M14598 10918 c-13 -3 47 -6 132 -5 154 1 145 4 -22 9 -48 2 -98 0
-110 -4z"/>
<path d="M14905 10910 c3 -5 18 -10 33 -9 24 0 25 1 7 9 -28 12 -47 12 -40 0z"/>
<path d="M13141 10864 c0 -11 3 -14 6 -6 3 7 2 16 -1 19 -3 4 -6 -2 -5 -13z"/>
<path d="M13919 10869 c26 -5 50 -5 60 1 11 7 -2 9 -44 9 l-60 -1 44 -9z"/>
<path d="M14033 10873 c9 -2 25 -2 35 0 9 3 1 5 -18 5 -19 0 -27 -2 -17 -5z"/>
<path d="M14150 10878 c3 -3 70 -9 150 -12 80 -4 179 -9 220 -11 59 -4 70 -3
50 6 -25 10 -430 26 -420 17z"/>
<path d="M13050 10859 c0 -5 -5 -7 -12 -3 -7 4 -8 3 -4 -5 6 -9 11 -9 22 0 17
14 18 19 4 19 -5 0 -10 -5 -10 -11z"/>
<path d="M14730 10861 l-105 -6 100 -7 c151 -12 275 -10 275 3 0 8 -20 10 -69
5 -45 -5 -71 -3 -76 3 -3 6 -9 10 -13 9 -4 -1 -54 -4 -112 -7z"/>
<path d="M13105 10840 c-3 -5 -1 -10 4 -10 6 0 11 5 11 10 0 6 -2 10 -4 10 -3
0 -8 -4 -11 -10z"/>
<path d="M14615 10800 c-3 -5 3 -10 15 -10 12 0 18 5 15 10 -3 6 -10 10 -15
10 -5 0 -12 -4 -15 -10z"/>
<path d="M14768 10793 c7 -3 16 -2 19 1 4 3 -2 6 -13 5 -11 0 -14 -3 -6 -6z"/>
<path d="M7778 10778 c9 -9 15 -9 24 0 9 9 7 12 -12 12 -19 0 -21 -3 -12 -12z"/>
<path d="M12178 10753 c7 -3 16 -2 19 1 4 3 -2 6 -13 5 -11 0 -14 -3 -6 -6z"/>
<path d="M14270 10736 c0 -14 4 -27 10 -31 5 -3 7 -12 4 -19 -4 -11 -24 -10
-107 6 -87 16 -127 18 -266 12 -227 -9 -251 -20 -34 -15 179 3 324 -9 373 -32
14 -7 40 -22 59 -34 40 -27 53 -29 44 -6 -5 13 -2 15 17 10 14 -4 45 5 85 24
70 33 143 44 358 55 75 3 140 10 143 15 7 11 -10 11 -219 -1 -160 -10 -277
-30 -277 -48 0 -24 -111 -40 -155 -23 -19 8 -19 8 2 15 12 4 37 4 55 1 48 -8
65 6 44 36 -9 13 -16 32 -16 43 0 20 0 20 -14 0 -13 -18 -15 -18 -21 -2 -6 15
-9 16 -22 3 -19 -19 -33 -19 -33 0 0 8 -7 15 -15 15 -9 0 -15 -9 -15 -24z
m119 -38 c11 -15 9 -16 -23 -15 -41 2 -47 14 -13 26 12 5 22 8 22 7 1 0 6 -9
14 -18z"/>
<path d="M13008 10733 c7 -3 16 -2 19 1 4 3 -2 6 -13 5 -11 0 -14 -3 -6 -6z"/>
<path d="M14194 10721 c8 -12 55 -20 61 -11 3 4 -2 11 -11 14 -24 9 -56 7 -50
-3z"/>
<path d="M14975 10720 c4 -6 11 -8 16 -5 14 9 11 15 -7 15 -8 0 -12 -5 -9 -10z"/>
<path d="M14940 10692 c-22 -4 -23 -5 -6 -12 24 -8 66 -1 66 11 0 9 -17 10
-60 1z"/>
<path d="M13648 10683 c6 -2 18 -2 25 0 6 3 1 5 -13 5 -14 0 -19 -2 -12 -5z"/>
<path d="M14825 10680 c-16 -4 -47 -8 -67 -9 -21 0 -38 -6 -38 -12 0 -7 9 -9
23 -5 12 3 53 9 90 12 37 4 70 11 73 15 6 11 -39 10 -81 -1z"/>
<path d="M13563 10673 c15 -2 37 -2 50 0 12 2 0 4 -28 4 -27 0 -38 -2 -22 -4z"/>
<path d="M14547 10638 c-7 -4 -28 -8 -46 -8 -22 0 -31 -4 -25 -9 5 -6 35 -5
79 4 38 7 74 11 80 8 6 -2 22 1 36 6 19 8 10 10 -44 8 -38 -1 -74 -5 -80 -9z"/>
<path d="M14080 10629 c0 -11 77 -12 83 -1 3 4 -15 8 -39 8 -24 1 -44 -2 -44
-7z"/>
<path d="M14245 10620 c3 -5 8 -10 11 -10 2 0 4 5 4 10 0 6 -5 10 -11 10 -5 0
-7 -4 -4 -10z"/>
<path d="M14420 10614 c-13 -15 -6 -17 24 -5 17 6 17 8 3 14 -8 3 -21 -1 -27
-9z"/>
<path d="M14640 10621 c-25 -3 -40 -9 -34 -13 5 -4 35 -1 65 7 57 13 45 16
-31 6z"/>
<path d="M14768 10606 c-47 -6 -90 -15 -95 -20 -4 -4 14 -6 42 -2 28 3 81 8
119 12 43 4 63 10 55 15 -8 5 -18 8 -24 7 -5 0 -49 -6 -97 -12z"/>
<path d="M14945 10610 c-16 -7 -13 -9 18 -9 20 -1 37 4 37 9 0 12 -27 12 -55
0z"/>
<path d="M4449 10398 c0 -7 -2 -21 -4 -31 -2 -10 1 -14 7 -11 6 4 14 0 19 -7
6 -9 9 -10 9 -2 0 6 -4 15 -10 18 -5 3 -10 10 -10 16 0 14 28 11 33 -3 2 -7 8
-10 12 -6 12 11 -14 38 -36 38 -11 0 -19 -6 -20 -12z"/>
<path d="M10167 10379 c3 -10 9 -16 14 -13 13 8 11 21 -5 27 -10 4 -12 0 -9
-14z"/>
<path d="M14679 10366 c-7 -7 -470 -17 -894 -21 -225 -1 -455 -4 -510 -5 -55
-1 -203 -2 -328 -1 -180 1 -227 4 -221 14 6 9 4 9 -7 1 -19 -16 -343 -23
-1279 -29 -426 -3 -910 -7 -1075 -10 -165 -2 -635 -7 -1045 -10 -410 -3 -788
-8 -840 -10 -52 -2 -771 -7 -1598 -11 -826 -4 -1500 -9 -1498 -11 6 -6 1865
-4 2791 2 352 3 962 7 1355 10 1141 7 2115 17 2121 21 3 1 600 4 1328 5 805 2
1324 6 1328 12 3 5 9 4 13 -3 6 -10 82 -11 344 -5 320 7 336 8 336 26 0 15 -7
19 -37 18 -32 0 -35 -2 -18 -10 13 -6 -13 -7 -75 -3 -109 8 -127 8 -155 2 -11
-3 -14 -3 -7 -1 7 3 10 9 7 14 -6 9 -28 12 -36 5z m-424 -34 c-3 -3 -11 0 -18
7 -9 10 -8 11 6 5 10 -3 15 -9 12 -12z m142 2 c-3 -3 -12 -4 -19 -1 -8 3 -5 6
6 6 11 1 17 -2 13 -5z"/>
<path d="M75 10309 c-4 -5 -17 -9 -28 -8 -35 2 -47 0 -47 -11 0 -6 27 -10 63
-9 34 0 56 3 50 6 -7 2 -13 11 -13 19 0 16 -16 19 -25 3z"/>
<path d="M133 10301 c1 -18 8 -21 45 -21 36 0 43 3 40 18 -2 12 -15 18 -45 20
-37 3 -42 1 -40 -17z"/>
<path d="M237 10296 c-4 -11 34 -13 221 -13 165 1 185 2 72 4 -108 3 -156 7
-162 16 -6 9 -12 9 -29 -1 -15 -10 -24 -11 -32 -3 -16 16 -64 14 -70 -3z"/>
<path d="M708 10279 c-7 -5 57 -8 142 -8 85 1 148 3 140 5 -37 8 -270 10 -282
3z"/>
<path d="M1058 10273 c12 -2 32 -2 45 0 12 2 2 4 -23 4 -25 0 -35 -2 -22 -4z"/>
<path d="M1208 10273 c6 -2 18 -2 25 0 6 3 1 5 -13 5 -14 0 -19 -2 -12 -5z"/>
<path d="M1298 10273 c6 -2 18 -2 25 0 6 3 1 5 -13 5 -14 0 -19 -2 -12 -5z"/>
<path d="M1358 10273 c6 -2 18 -2 25 0 6 3 1 5 -13 5 -14 0 -19 -2 -12 -5z"/>
<path d="M1494 10273 c10 -10 216 -12 210 -2 -3 5 -53 9 -111 9 -59 0 -103 -3
-99 -7z"/>
<path d="M1820 10269 c-19 -4 600 -7 1377 -8 776 0 1414 2 1416 7 6 8 -2742
10 -2793 1z"/>
<path d="M4632 10275 c10 -10 738 -15 738 -6 0 6 -154 10 -372 10 -204 1 -369
-1 -366 -4z"/>
<path d="M11931 10111 c-8 -5 -47 -12 -87 -16 -41 -4 -76 -11 -79 -15 -3 -5
-12 -7 -19 -4 -17 6 -31 -12 -16 -21 5 -3 11 -30 12 -58 l1 -52 6 60 c6 58 7
60 36 62 80 7 165 27 165 40 0 15 -1 15 -19 4z"/>
<path d="M11670 10060 c0 -5 4 -10 9 -10 6 0 13 5 16 10 3 6 -1 10 -9 10 -9 0
-16 -4 -16 -10z"/>
<path d="M11973 10045 c0 -14 3 -25 8 -25 5 0 9 9 9 19 0 11 -4 22 -9 25 -5 3
-8 -6 -8 -19z"/>
<path d="M10918 10043 c7 -3 16 -2 19 1 4 3 -2 6 -13 5 -11 0 -14 -3 -6 -6z"/>
<path d="M10857 10023 c-12 -11 -8 -33 6 -33 7 0 13 9 13 20 0 20 -7 25 -19
13z"/>
<path d="M10174 9975 c3 -8 0 -15 -7 -15 -8 0 -7 -4 3 -10 9 -6 17 -5 21 2 4
6 11 8 16 5 5 -3 10 3 10 14 1 14 -5 19 -24 19 -18 0 -24 -4 -19 -15z"/>
<path d="M14030 9971 c0 -11 26 -22 34 -14 3 3 3 10 0 14 -7 12 -34 11 -34 0z"/>
<path d="M4478 9933 c5 -21 7 -23 10 -9 2 10 0 22 -6 28 -6 6 -7 0 -4 -19z"/>
<path d="M8000 9940 c0 -5 5 -10 10 -10 6 0 10 5 10 10 0 6 -4 10 -10 10 -5 0
-10 -4 -10 -10z"/>
<path d="M8400 9919 c0 -5 5 -7 10 -4 6 3 10 8 10 11 0 2 -4 4 -10 4 -5 0 -10
-5 -10 -11z"/>
<path d="M14058 9613 c6 -2 18 -2 25 0 6 3 1 5 -13 5 -14 0 -19 -2 -12 -5z"/>
<path d="M12720 9600 c0 -5 5 -10 11 -10 5 0 7 5 4 10 -3 6 -8 10 -11 10 -2 0
-4 -4 -4 -10z"/>
<path d="M12888 9603 c6 -2 18 -2 25 0 6 3 1 5 -13 5 -14 0 -19 -2 -12 -5z"/>
<path d="M12130 9590 c-21 -5 24 -8 115 -7 83 0 159 4 170 8 26 10 -239 9
-285 -1z"/>
<path d="M12678 9593 c7 -3 16 -2 19 1 4 3 -2 6 -13 5 -11 0 -14 -3 -6 -6z"/>
<path d="M9650 9586 c0 -2 7 -6 15 -10 8 -3 15 -1 15 4 0 6 -7 10 -15 10 -8 0
-15 -2 -15 -4z"/>
<path d="M10125 9579 c-4 -5 0 -10 7 -10 7 -1 -3 -5 -22 -9 l-35 -7 38 -2 c20
0 37 4 37 9 0 6 10 10 22 10 21 0 21 0 2 -14 -17 -13 23 -15 326 -15 234 1
337 4 320 10 -18 7 -21 12 -11 18 25 16 -63 20 -371 20 -180 0 -310 -4 -313
-10z"/>
<path d="M11213 9583 c9 -2 23 -2 30 0 6 3 -1 5 -18 5 -16 0 -22 -2 -12 -5z"/>
<path d="M11361 9586 c2 -2 54 -6 114 -9 61 -2 99 -1 85 3 -25 8 -207 13 -199
6z"/>
<path d="M11938 9583 c6 -2 18 -2 25 0 6 3 1 5 -13 5 -14 0 -19 -2 -12 -5z"/>
<path d="M11988 9583 c7 -3 16 -2 19 1 4 3 -2 6 -13 5 -11 0 -14 -3 -6 -6z"/>
<path d="M8455 9572 c-49 -1 -94 -7 -99 -12 -6 -6 -17 -10 -25 -9 -12 0 -10 3
4 10 12 5 -311 6 -815 2 -459 -3 -850 -6 -868 -6 -21 0 -28 -3 -20 -9 17 -11
1610 -6 1595 5 -7 5 4 6 23 2 84 -15 140 -17 154 -6 10 9 20 9 33 2 11 -5 32
-8 49 -5 16 2 61 8 99 13 54 6 60 9 28 10 -23 0 -47 2 -55 4 -7 1 -53 1 -103
-1z"/>
<path d="M8960 9564 c0 -9 5 -14 12 -12 18 6 21 28 4 28 -9 0 -16 -7 -16 -16z"/>
<path d="M9030 9573 c0 -10 218 -9 227 0 3 4 -46 7 -110 7 -64 0 -117 -3 -117
-7z"/>
<path d="M9343 9573 c15 -2 37 -2 50 0 12 2 0 4 -28 4 -27 0 -38 -2 -22 -4z"/>
<path d="M8840 9560 c-9 -6 -10 -10 -3 -10 6 0 15 5 18 10 8 12 4 12 -15 0z"/>
<path d="M8895 9560 c-13 -6 -15 -9 -5 -9 8 0 22 4 30 9 18 12 2 12 -25 0z"/>
<path d="M11750 9560 c0 -5 5 -10 11 -10 5 0 7 5 4 10 -3 6 -8 10 -11 10 -2 0
-4 -4 -4 -10z"/>
<path d="M5227 9554 c-2 -2 -269 -4 -593 -5 -324 -1 -598 -5 -609 -10 -23 -9
895 -10 1878 -2 396 4 687 10 687 15 0 9 -1355 10 -1363 2z"/>
<path d="M10048 9553 c7 -3 16 -2 19 1 4 3 -2 6 -13 5 -11 0 -14 -3 -6 -6z"/>
<path d="M11448 9553 c7 -3 16 -2 19 1 4 3 -2 6 -13 5 -11 0 -14 -3 -6 -6z"/>
<path d="M3395 9540 c-158 -5 -114 -6 204 -8 222 -1 401 1 397 6 -9 8 -313 9
-601 2z"/>
<path d="M1885 9530 l-50 -7 67 -1 c37 -1 70 3 73 8 7 11 -11 11 -90 0z"/>
<path d="M3080 9530 c0 -5 7 -10 15 -10 8 0 15 5 15 10 0 6 -7 10 -15 10 -8 0
-15 -4 -15 -10z"/>
<path d="M3120 9530 c0 -13 11 -13 30 0 12 8 11 10 -7 10 -13 0 -23 -4 -23
-10z"/>
<path d="M758 9523 c177 -2 467 -2 645 0 177 1 32 2 -323 2 -355 0 -500 -1
-322 -2z"/>
<path d="M10600 9451 c0 -5 5 -13 10 -16 6 -3 10 -2 10 4 0 5 -4 13 -10 16 -5
3 -10 2 -10 -4z"/>
<path d="M10190 9435 c-7 -9 -8 -15 -2 -15 5 0 12 7 16 15 3 8 4 15 2 15 -2 0
-9 -7 -16 -15z"/>
<path d="M10588 9393 c6 -2 18 -2 25 0 6 3 1 5 -13 5 -14 0 -19 -2 -12 -5z"/>
<path d="M10632 9373 c-7 -2 -17 -13 -22 -24 -9 -16 -7 -19 11 -19 12 0 19 3
16 6 -3 4 -2 15 4 25 5 11 8 19 7 18 -2 0 -9 -3 -16 -6z"/>
<path d="M14560 8970 c-368 -5 -382 -6 -155 -8 202 -3 395 -3 578 -2 9 0 17 5
17 10 0 6 -8 9 -17 8 -10 -2 -200 -5 -423 -8z"/>
<path d="M13870 8959 c0 -5 5 -7 10 -4 6 3 10 8 10 11 0 2 -4 4 -10 4 -5 0
-10 -5 -10 -11z"/>
<path d="M13941 8961 c14 -5 65 -5 115 -1 l89 7 -115 1 c-69 0 -105 -3 -89 -7z"/>
<path d="M11463 8950 c-342 -3 -625 -9 -630 -14 -4 -5 53 -6 137 -2 80 3 400
6 713 7 312 1 570 6 573 10 3 5 -35 8 -83 6 -48 -1 -368 -4 -710 -7z"/>
<path d="M12337 8953 c18 -2 50 -2 70 0 21 2 7 4 -32 4 -38 0 -55 -2 -38 -4z"/>
<path d="M12480 8951 c19 -3 184 -4 365 -1 l330 6 -365 1 c-201 0 -349 -2
-330 -6z"/>
<path d="M13208 8953 c6 -2 18 -2 25 0 6 3 1 5 -13 5 -14 0 -19 -2 -12 -5z"/>
<path d="M13283 8953 c15 -2 39 -2 55 0 15 2 2 4 -28 4 -30 0 -43 -2 -27 -4z"/>
<path d="M7579 8929 c-10 -6 -4 -9 19 -9 17 0 32 2 32 4 0 9 -39 13 -51 5z"/>
<path d="M7935 8930 c-4 -6 7 -10 25 -10 18 0 29 4 25 10 -3 6 -15 10 -25 10
-10 0 -22 -4 -25 -10z"/>
<path d="M8218 8928 c17 -8 26 -8 34 0 9 9 4 12 -22 11 -33 0 -34 -1 -12 -11z"/>
<path d="M8388 8933 c18 -2 45 -2 60 0 15 2 0 4 -33 4 -33 0 -45 -2 -27 -4z"/>
<path d="M8603 8933 c20 -2 54 -2 75 0 20 2 3 4 -38 4 -41 0 -58 -2 -37 -4z"/>
<path d="M8767 8933 c18 -2 50 -2 70 0 21 2 7 4 -32 4 -38 0 -55 -2 -38 -4z"/>
<path d="M8933 8933 c31 -2 83 -2 115 0 31 2 5 3 -58 3 -63 0 -89 -1 -57 -3z"/>
<path d="M9158 8933 c12 -2 32 -2 45 0 12 2 2 4 -23 4 -25 0 -35 -2 -22 -4z"/>
<path d="M9343 8933 c15 -2 37 -2 50 0 12 2 0 4 -28 4 -27 0 -38 -2 -22 -4z"/>
<path d="M1330 8923 c14 -3 28 -10 32 -16 4 -6 10 -8 15 -4 11 12 -18 27 -47
25 l-25 -1 25 -4z"/>
<path d="M1408 8923 c6 -2 18 -2 25 0 6 3 1 5 -13 5 -14 0 -19 -2 -12 -5z"/>
<path d="M1473 8915 c0 -11 11 -15 41 -14 27 1 33 3 16 6 -14 3 -29 9 -34 14
-14 13 -23 11 -23 -6z"/>
<path d="M1998 8923 c6 -2 18 -2 25 0 6 3 1 5 -13 5 -14 0 -19 -2 -12 -5z"/>
<path d="M2333 8923 c9 -2 23 -2 30 0 6 3 -1 5 -18 5 -16 0 -22 -2 -12 -5z"/>
<path d="M2438 8923 c6 -2 18 -2 25 0 6 3 1 5 -13 5 -14 0 -19 -2 -12 -5z"/>
<path d="M2480 8915 c0 -8 6 -15 14 -15 8 0 16 7 20 15 4 10 -1 15 -14 15 -11
0 -20 -7 -20 -15z"/>
<path d="M2640 8915 c0 -9 9 -15 25 -15 28 0 34 15 9 24 -25 10 -34 7 -34 -9z"/>
<path d="M2818 8923 c-33 -8 -18 -23 22 -23 22 0 40 5 40 10 0 6 -4 10 -9 10
-5 0 -15 2 -23 4 -7 2 -21 2 -30 -1z"/>
<path d="M3322 8921 c-20 -13 6 -19 43 -10 17 4 22 7 13 8 -9 0 -22 3 -30 6
-7 3 -19 1 -26 -4z"/>
<path d="M3435 8920 c-16 -4 834 -5 1890 -2 1056 2 1922 6 1924 8 8 8 -3783 1
-3814 -6z"/>
<path d="M7268 8923 c7 -3 16 -2 19 1 4 3 -2 6 -13 5 -11 0 -14 -3 -6 -6z"/>
<path d="M7423 8923 c9 -2 25 -2 35 0 9 3 1 5 -18 5 -19 0 -27 -2 -17 -5z"/>
<path d="M8098 8923 c7 -3 16 -2 19 1 4 3 -2 6 -13 5 -11 0 -14 -3 -6 -6z"/>
<path d="M14924 8924 c-7 -3 -10 -14 -7 -24 4 -14 0 -20 -11 -20 -23 0 -20
-15 8 -34 14 -8 27 -25 31 -36 4 -13 15 -20 31 -20 22 0 24 4 24 44 0 39 -3
45 -22 48 -17 2 -22 9 -21 26 3 21 -8 26 -33 16z"/>
<path d="M2538 8913 c7 -3 16 -2 19 1 4 3 -2 6 -13 5 -11 0 -14 -3 -6 -6z"/>
<path d="M2938 8909 c21 -6 39 -6 50 0 13 8 5 10 -33 10 -48 -1 -49 -1 -17
-10z"/>
<path d="M3068 8908 c9 -9 15 -9 24 0 9 9 7 12 -12 12 -19 0 -21 -3 -12 -12z"/>
<path d="M3160 8911 c14 -4 50 -4 80 -1 53 7 52 7 -25 8 -49 0 -70 -3 -55 -7z"/>
<path d="M1428 8903 c6 -2 18 -2 25 0 6 3 1 5 -13 5 -14 0 -19 -2 -12 -5z"/>
<path d="M14480 8857 l-35 -18 35 6 c40 8 44 10 39 22 -2 4 -20 0 -39 -10z"/>
<path d="M14888 8833 c7 -3 16 -2 19 1 4 3 -2 6 -13 5 -11 0 -14 -3 -6 -6z"/>
<path d="M14205 8804 l-40 -14 40 5 c22 3 46 5 53 5 7 0 10 5 7 10 -8 12 -10
12 -60 -6z"/>
<path d="M290 8741 c0 -5 5 -13 10 -16 6 -3 10 -2 10 4 0 5 -4 13 -10 16 -5 3
-10 2 -10 -4z"/>
<path d="M10251 8664 c-11 -13 -11 -18 -1 -27 9 -9 11 -9 7 -1 -4 7 2 14 14
17 12 3 18 10 14 16 -8 15 -17 13 -34 -5z"/>
<path d="M4520 8655 c-8 -9 -8 -15 -2 -15 12 0 26 19 19 26 -2 2 -10 -2 -17
-11z"/>
<path d="M10280 8640 c0 -5 4 -10 9 -10 6 0 13 5 16 10 3 6 -1 10 -9 10 -9 0
-16 -4 -16 -10z"/>
<path d="M73 8633 c9 -2 23 -2 30 0 6 3 -1 5 -18 5 -16 0 -22 -2 -12 -5z"/>
<path d="M11755 8362 c-2 -2 -559 -5 -1237 -7 -678 -2 -1586 -6 -2018 -9
-1949 -14 -2357 -16 -3670 -18 -767 -2 -1496 -6 -1620 -9 -124 -3 833 -4 2125
-1 1293 2 2438 6 2545 7 107 2 893 6 1745 9 1777 7 3368 17 3374 22 2 2 -276
5 -618 6 -343 2 -624 1 -626 0z"/>
<path d="M13043 8353 c15 -2 39 -2 55 0 15 2 2 4 -28 4 -30 0 -43 -2 -27 -4z"/>
<path d="M13188 8353 c18 -2 45 -2 60 0 15 2 0 4 -33 4 -33 0 -45 -2 -27 -4z"/>
<path d="M13298 8353 c7 -3 16 -2 19 1 4 3 -2 6 -13 5 -11 0 -14 -3 -6 -6z"/>
<path d="M248 8323 c139 -2 364 -2 500 0 136 1 22 2 -253 2 -275 0 -386 -1
-247 -2z"/>
<path d="M2723 8313 c48 -2 125 -2 170 0 45 1 6 3 -88 3 -93 0 -130 -2 -82 -3z"/>
<path d="M10226 8265 c-23 -17 -13 -34 11 -19 19 12 29 34 16 34 -4 0 -17 -7
-27 -15z"/>
<path d="M10267 8253 c-4 -3 -7 -11 -7 -17 0 -6 5 -5 12 2 6 6 9 14 7 17 -3 3
-9 2 -12 -2z"/>
<path d="M4518 8244 c-8 -7 2 -44 12 -44 11 0 21 30 14 41 -6 10 -18 12 -26 3z"/>
<path d="M13919 7456 c-2 -3 -1606 -7 -3564 -10 -1958 -3 -3990 -8 -4515 -11
-525 -3 -2054 -6 -3397 -6 -1419 -1 -2443 -5 -2443 -10 0 -5 33 -9 73 -10 217
-3 4143 3 4148 7 6 4 4455 4 8159 0 806 0 1725 0 2043 2 559 3 577 3 577 22 0
18 -17 19 -538 19 -296 1 -541 -1 -543 -3z"/>
<path d="M14770 7270 c0 -12 17 -12 45 0 17 7 15 9 -12 9 -18 1 -33 -3 -33 -9z"/>
<path d="M4353 6688 c2 -7 10 -12 16 -10 6 1 11 -3 11 -10 0 -6 3 -8 6 -5 8 8
-14 37 -28 37 -5 0 -8 -6 -5 -12z"/>
<path d="M10104 6675 c-3 -8 -4 -20 -1 -27 4 -8 8 -5 12 9 4 12 14 24 24 26
11 3 8 5 -7 6 -12 0 -25 -6 -28 -14z"/>
<path d="M11420 6672 c0 -4 11 -9 25 -10 14 -1 25 3 25 8 0 6 -11 10 -25 10
-14 0 -25 -4 -25 -8z"/>
<path d="M11445 6630 c3 -5 10 -10 16 -10 5 0 9 5 9 10 0 6 -7 10 -16 10 -8 0
-12 -4 -9 -10z"/>
<path d="M6481 6566 c9 -9 479 -14 485 -5 3 5 -95 9 -242 9 -136 0 -245 -2
-243 -4z"/>
<path d="M7008 6563 c6 -2 18 -2 25 0 6 3 1 5 -13 5 -14 0 -19 -2 -12 -5z"/>
<path d="M7113 6563 c9 -2 23 -2 30 0 6 3 -1 5 -18 5 -16 0 -22 -2 -12 -5z"/>
<path d="M7288 6563 c6 -2 18 -2 25 0 6 3 1 5 -13 5 -14 0 -19 -2 -12 -5z"/>
<path d="M7423 6563 c43 -2 110 -2 150 0 40 1 5 3 -78 3 -82 0 -115 -2 -72 -3z"/>
<path d="M7678 6563 c7 -3 16 -2 19 1 4 3 -2 6 -13 5 -11 0 -14 -3 -6 -6z"/>
<path d="M8194 6563 c9 -9 336 -10 342 -1 3 4 -75 8 -172 8 -98 0 -174 -3
-170 -7z"/>
<path d="M8775 6560 c-3 -5 3 -10 14 -10 11 0 23 5 26 10 3 6 -3 10 -14 10
-11 0 -23 -4 -26 -10z"/>
<path d="M8830 6561 c0 -7 61 -11 182 -11 178 0 181 0 164 -19 -10 -11 -15
-25 -11 -30 8 -14 25 -14 25 -1 0 18 38 52 50 45 6 -4 9 -13 6 -20 -5 -15 31
-8 41 8 3 5 1 7 -5 3 -6 -3 -14 -1 -18 5 -5 8 229 9 907 4 503 -4 948 -6 989
-6 52 0 69 -2 55 -9 -17 -7 -15 -9 12 -9 17 -1 38 6 46 14 8 8 17 11 20 8 4
-3 45 -5 93 -4 47 0 95 -4 106 -10 15 -8 19 -8 14 0 -5 7 4 11 23 11 17 0 31
-4 31 -10 0 -5 15 -9 33 -9 l32 1 -30 7 c-16 4 75 8 203 10 153 1 232 -2 232
-9 0 -5 16 -10 35 -10 19 0 35 5 35 11 0 8 4 8 13 1 7 -6 24 -8 38 -5 13 3 21
3 17 -2 -4 -4 -1 -14 7 -21 17 -18 29 -18 22 0 -4 9 3 13 21 13 15 0 45 3 67
7 82 16 157 18 165 6 5 -8 13 -9 21 -4 14 9 249 13 249 4 0 -3 72 -5 160 -4
92 1 160 -3 160 -8 0 -5 9 -6 20 -3 14 4 22 1 26 -10 5 -13 9 -14 15 -4 5 8 3
17 -4 21 -8 5 -3 8 11 8 13 0 20 -4 17 -10 -9 -14 9 -12 24 3 10 10 14 8 22
-6 8 -14 22 -17 70 -16 33 1 62 5 64 9 3 4 -8 6 -23 4 -15 -1 -43 1 -62 6 -26
6 -6 8 78 9 100 1 137 -7 100 -22 -7 -3 -1 -6 14 -6 17 -1 27 4 25 12 -1 9 66
12 310 12 171 0 309 -4 306 -8 -3 -4 14 -6 36 -3 24 3 41 1 41 -5 0 -6 5 -7
12 -3 11 7 89 16 148 18 152 3 670 -6 670 -11 0 -5 -87 -7 -194 -5 -106 1
-204 -2 -217 -7 -18 -7 0 -10 71 -11 129 -1 286 -8 338 -15 46 -7 56 7 25 31
-17 13 -17 13 0 14 9 0 17 8 17 18 0 16 -65 17 -1213 20 -666 1 -2055 5 -3084
8 -1314 4 -1873 2 -1873 -5z"/>
<path d="M1333 6552 c-1319 -2 -1333 -2 -1333 -22 0 -19 7 -19 370 -15 248 2
372 0 376 -7 4 -7 9 -6 14 2 6 9 12 9 30 0 12 -6 29 -8 38 -4 9 4 23 8 31 10
31 6 588 14 1376 19 1179 9 1617 14 1623 20 3 3 -264 4 -594 3 -329 -2 -1199
-4 -1931 -6z"/>
<path d="M6058 6553 c7 -3 16 -2 19 1 4 3 -2 6 -13 5 -11 0 -14 -3 -6 -6z"/>
<path d="M6108 6553 c12 -2 32 -2 45 0 12 2 2 4 -23 4 -25 0 -35 -2 -22 -4z"/>
<path d="M7988 6553 c29 -2 74 -2 100 0 26 2 2 3 -53 3 -55 0 -76 -1 -47 -3z"/>
<path d="M8718 6553 c7 -3 16 -2 19 1 4 3 -2 6 -13 5 -11 0 -14 -3 -6 -6z"/>
<path d="M9628 6533 c7 -3 16 -2 19 1 4 3 -2 6 -13 5 -11 0 -14 -3 -6 -6z"/>
<path d="M9773 6523 c9 -2 23 -2 30 0 6 3 -1 5 -18 5 -16 0 -22 -2 -12 -5z"/>
<path d="M9860 6520 c0 -5 5 -10 11 -10 5 0 7 5 4 10 -3 6 -8 10 -11 10 -2 0
-4 -4 -4 -10z"/>
<path d="M9960 6520 c-11 -7 -3 -10 30 -9 34 0 40 2 25 9 -27 12 -37 12 -55 0z"/>
<path d="M11798 6523 c7 -3 16 -2 19 1 4 3 -2 6 -13 5 -11 0 -14 -3 -6 -6z"/>
<path d="M9828 6513 c7 -3 16 -2 19 1 4 3 -2 6 -13 5 -11 0 -14 -3 -6 -6z"/>
<path d="M10115 6510 c3 -5 13 -10 21 -10 8 0 14 5 14 10 0 6 -9 10 -21 10
-11 0 -17 -4 -14 -10z"/>
<path d="M10670 6510 l-75 -5 75 -7 c41 -4 143 -10 225 -13 115 -3 141 -2 110
6 -22 6 -77 11 -122 12 -46 1 -83 5 -83 8 0 7 -17 7 -130 -1z"/>
<path d="M13358 6513 c7 -3 16 -2 19 1 4 3 -2 6 -13 5 -11 0 -14 -3 -6 -6z"/>
<path d="M13455 6509 c-4 -5 14 -9 41 -9 55 0 55 5 2 13 -21 3 -40 1 -43 -4z"/>
<path d="M9227 6475 c15 -19 29 -32 31 -30 6 5 -31 53 -46 59 -7 3 0 -10 15
-29z"/>
<path d="M10173 6503 c9 -2 23 -2 30 0 6 3 -1 5 -18 5 -16 0 -22 -2 -12 -5z"/>
<path d="M10293 6503 c26 -2 68 -2 95 0 26 2 4 3 -48 3 -52 0 -74 -1 -47 -3z"/>
<path d="M13830 6500 c0 -5 4 -10 9 -10 6 0 13 5 16 10 3 6 -1 10 -9 10 -9 0
-16 -4 -16 -10z"/>
<path d="M14338 6503 c12 -2 30 -2 40 0 9 3 -1 5 -23 4 -22 0 -30 -2 -17 -4z"/>
<path d="M14441 6506 c12 -10 59 -15 59 -6 0 5 -14 10 -32 10 -17 0 -29 -2
-27 -4z"/>
<path d="M12118 6493 c7 -3 16 -2 19 1 4 3 -2 6 -13 5 -11 0 -14 -3 -6 -6z"/>
<path d="M13600 6490 c0 -5 16 -10 35 -10 19 0 35 5 35 10 0 6 -16 10 -35 10
-19 0 -35 -4 -35 -10z"/>
<path d="M13690 6490 c-11 -7 -5 -10 23 -10 20 0 37 5 37 10 0 13 -40 13 -60
0z"/>
<path d="M13760 6490 c0 -13 11 -13 30 0 12 8 11 10 -7 10 -13 0 -23 -4 -23
-10z"/>
<path d="M641 6479 c0 -9 -11 -23 -23 -32 -13 -8 -20 -18 -16 -22 11 -11 50
35 45 53 -4 15 -5 15 -6 1z"/>
<path d="M11072 6481 c-8 -5 20 -10 70 -14 127 -10 152 -6 58 9 -101 16 -111
16 -128 5z"/>
<path d="M11778 6483 c7 -3 16 -2 19 1 4 3 -2 6 -13 5 -11 0 -14 -3 -6 -6z"/>
<path d="M11638 6473 c7 -3 16 -2 19 1 4 3 -2 6 -13 5 -11 0 -14 -3 -6 -6z"/>
<path d="M12286 6473 c-2 -3 -26 -5 -52 -5 -27 0 -53 -2 -58 -5 -5 -3 -23 -8
-40 -9 -65 -8 -153 -28 -164 -38 -3 -4 32 -4 79 -1 92 6 105 8 132 20 9 4 26
5 37 2 10 -3 21 0 23 6 1 5 37 12 77 14 98 6 128 22 38 21 -37 -1 -70 -3 -72
-5z"/>
<path d="M12435 6470 c-3 -5 3 -10 15 -10 12 0 18 5 15 10 -3 6 -10 10 -15 10
-5 0 -12 -4 -15 -10z"/>
<path d="M12530 6455 c42 -12 121 -15 330 -16 415 -2 740 4 740 12 0 9 -330
17 -345 8 -13 -7 -657 -3 -727 5 l-53 6 55 -15z"/>
<path d="M13610 6451 c0 -7 171 -13 365 -13 91 0 74 6 -30 12 -180 11 -335 11
-335 1z"/>
<path d="M9160 6443 c0 -30 63 -46 74 -18 4 11 -1 15 -18 15 -14 0 -31 3 -40
6 -9 3 -16 2 -16 -3z"/>
<path d="M11438 6443 c12 -2 30 -2 40 0 9 3 -1 5 -23 4 -22 0 -30 -2 -17 -4z"/>
<path d="M14088 6443 c7 -3 16 -2 19 1 4 3 -2 6 -13 5 -11 0 -14 -3 -6 -6z"/>
<path d="M14765 6440 c-22 -3 -35 -8 -30 -11 6 -4 30 -4 55 0 25 4 38 9 30 12
-8 2 -33 2 -55 -1z"/>
<path d="M14880 6440 c-20 -6 -15 -8 25 -9 28 0 57 4 65 9 19 12 -52 12 -90 0z"/>
<path d="M11693 6433 c15 -2 37 -2 50 0 12 2 0 4 -28 4 -27 0 -38 -2 -22 -4z"/>
<path d="M11788 6432 c14 -9 180 -16 171 -7 -4 3 -46 8 -95 10 -49 3 -83 2
-76 -3z"/>
<path d="M14625 6430 c3 -5 8 -10 11 -10 2 0 4 5 4 10 0 6 -5 10 -11 10 -5 0
-7 -4 -4 -10z"/>
<path d="M14050 6421 c-27 -5 -13 -8 65 -14 136 -9 195 -9 195 2 0 6 -28 9
-62 9 -35 -1 -85 1 -113 4 -27 4 -66 3 -85 -1z"/>
<path d="M14391 6388 c8 -8 27 -18 42 -22 15 -3 27 -11 27 -17 0 -6 -9 -8 -20
-4 -12 4 -26 0 -35 -8 -26 -26 -415 -37 -831 -23 -264 9 -418 2 -344 -15 19
-5 80 -6 135 -3 112 6 101 6 175 0 51 -4 564 -5 710 -1 36 1 74 -1 84 -5 11
-4 31 -1 45 6 14 7 58 15 96 18 39 3 95 13 125 21 30 8 71 15 90 15 24 0 30 3
20 9 -20 11 -84 20 -200 26 -52 4 -104 9 -115 12 -17 5 -17 4 -4 -9z m122 -45
c-7 -2 -19 -2 -25 0 -7 3 -2 5 12 5 14 0 19 -2 13 -5z"/>
<path d="M14858 6353 c7 -3 16 -2 19 1 4 3 -2 6 -13 5 -11 0 -14 -3 -6 -6z"/>
<path d="M12957 6314 c-1 -1 -58 -4 -127 -5 -125 -2 -252 -17 -266 -32 -11
-10 50 -9 80 2 20 8 239 13 356 9 45 -2 182 14 176 20 -6 5 -214 11 -219 6z"/>
<path d="M14853 6288 c17 -11 147 -10 147 1 0 5 -36 9 -79 8 -44 -1 -74 -5
-68 -9z"/>
<path d="M12434 6281 c7 -10 -22 -24 -34 -16 -5 3 -11 1 -15 -5 -7 -12 77 -12
115 0 24 8 24 8 -7 9 -17 1 -35 6 -38 11 -3 6 -11 10 -16 10 -6 0 -8 -4 -5 -9z"/>
<path d="M4412 6260 c0 -14 2 -19 5 -12 2 6 2 18 0 25 -3 6 -5 1 -5 -13z"/>
<path d="M10928 6263 c-1 -20 0 -28 11 -88 l8 -40 26 55 27 55 -25 9 c-14 6
-25 13 -25 18 0 16 -20 7 -22 -9z"/>
<path d="M13870 6270 c-15 -9 -5 -15 15 -10 6 2 28 6 50 10 l40 7 -45 2 c-25
0 -52 -4 -60 -9z"/>
<path d="M4375 6261 c-6 -11 9 -23 19 -14 9 9 7 23 -3 23 -6 0 -12 -4 -16 -9z"/>
<path d="M13803 6263 c9 -2 23 -2 30 0 6 3 -1 5 -18 5 -16 0 -22 -2 -12 -5z"/>
<path d="M14651 6261 c-10 -6 4 -9 40 -8 30 0 92 -1 139 -2 126 -4 170 -2 170
9 0 13 -329 13 -349 1z"/>
<path d="M10130 6244 c0 -15 10 -17 34 -8 24 9 19 22 -9 22 -15 0 -25 -6 -25
-14z"/>
<path d="M10707 6240 c-3 -11 -1 -20 4 -20 5 0 9 9 9 20 0 11 -2 20 -4 20 -2
0 -6 -9 -9 -20z"/>
<path d="M10830 6256 c0 -2 9 -6 20 -9 11 -3 18 -1 14 4 -5 9 -34 13 -34 5z"/>
<path d="M11865 6250 c-4 -6 8 -10 29 -10 19 0 38 5 41 10 4 6 -8 10 -29 10
-19 0 -38 -4 -41 -10z"/>
<path d="M11991 6256 c2 -2 60 -6 129 -8 69 -3 112 -2 95 2 -31 8 -232 13
-224 6z"/>
<path d="M12260 6248 c0 -4 23 -7 50 -6 28 1 50 5 50 9 0 4 -22 6 -50 6 -27 0
-50 -4 -50 -9z"/>
<path d="M1800 6241 c0 -6 4 -13 10 -16 6 -3 7 1 4 9 -7 18 -14 21 -14 7z"/>
<path d="M10772 6228 c-15 -15 -15 -51 0 -66 14 -14 76 -16 96 -4 7 5 14 24
16 43 2 19 1 25 -1 15 -11 -45 -64 -65 -94 -35 -24 24 -24 37 -1 41 10 2 13 6
6 10 -6 4 -16 2 -22 -4z"/>
<path d="M7406 6221 c-4 -7 -5 -15 -2 -18 9 -9 19 4 14 18 -4 11 -6 11 -12 0z"/>
<path d="M11392 6218 c-4 -3 -41 -11 -82 -17 -126 -17 -276 -61 -236 -69 18
-4 105 16 171 40 46 16 132 26 213 23 39 -1 72 2 72 7 0 4 23 8 51 8 31 0 48
4 44 10 -7 11 -221 10 -233 -2z"/>
<path d="M12733 6222 c-18 -2 -33 -8 -33 -13 0 -10 58 -3 69 7 8 7 -4 9 -36 6z"/>
<path d="M10850 6210 c0 -5 5 -10 10 -10 6 0 10 5 10 10 0 6 -4 10 -10 10 -5
0 -10 -4 -10 -10z"/>
<path d="M10730 6200 c0 -5 5 -10 11 -10 5 0 7 5 4 10 -3 6 -8 10 -11 10 -2 0
-4 -4 -4 -10z"/>
<path d="M14458 6203 c12 -2 32 -2 45 0 12 2 2 4 -23 4 -25 0 -35 -2 -22 -4z"/>
<path d="M14893 6203 c9 -2 25 -2 35 0 9 3 1 5 -18 5 -19 0 -27 -2 -17 -5z"/>
<path d="M11910 6158 c0 -4 16 -8 35 -8 19 0 35 2 35 4 0 2 -16 6 -35 8 -19 2
-35 0 -35 -4z"/>
<path d="M10378 6153 c7 -3 16 -2 19 1 4 3 -2 6 -13 5 -11 0 -14 -3 -6 -6z"/>
<path d="M14778 6133 c7 -3 16 -2 19 1 4 3 -2 6 -13 5 -11 0 -14 -3 -6 -6z"/>
<path d="M11041 6104 c0 -11 3 -14 6 -6 3 7 2 16 -1 19 -3 4 -6 -2 -5 -13z"/>
<path d="M12353 6103 c9 -2 25 -2 35 0 9 3 1 5 -18 5 -19 0 -27 -2 -17 -5z"/>
<path d="M11784 6089 c-2 -4 -43 -10 -91 -13 -109 -9 -309 -33 -383 -46 -30
-5 -85 -11 -122 -12 -63 -3 -86 -12 -55 -23 6 -3 68 1 137 9 80 8 133 10 146
4 15 -7 44 -2 105 16 47 14 98 25 115 25 28 -2 28 -2 -6 -10 -25 -5 -16 -6 30
-3 36 2 81 5 100 5 27 1 30 3 15 8 -16 7 -14 9 13 14 18 4 75 10 128 13 52 4
92 10 88 13 -8 8 -215 8 -220 0z"/>
<path d="M12223 6093 c9 -2 23 -2 30 0 6 3 -1 5 -18 5 -16 0 -22 -2 -12 -5z"/>
<path d="M13993 6093 c9 -2 25 -2 35 0 9 3 1 5 -18 5 -19 0 -27 -2 -17 -5z"/>
<path d="M11020 5988 c0 -4 21 -8 46 -8 26 0 43 4 39 9 -7 12 -85 10 -85 -1z"/>
<path d="M10968 5983 c7 -3 16 -2 19 1 4 3 -2 6 -13 5 -11 0 -14 -3 -6 -6z"/>
<path d="M10984 5848 c-7 -11 7 -15 74 -22 44 -5 62 -4 57 3 -3 6 -16 11 -29
11 -12 0 -26 3 -30 8 -10 9 -66 9 -72 0z"/>
<path d="M11275 5840 c-3 -6 1 -7 9 -4 18 7 21 14 7 14 -6 0 -13 -4 -16 -10z"/>
<path d="M1645 5830 c-3 -5 -1 -10 4 -10 6 0 11 5 11 10 0 6 -2 10 -4 10 -3 0
-8 -4 -11 -10z"/>
<path d="M10861 5836 c11 -9 69 -14 69 -6 0 6 -16 10 -37 10 -20 0 -34 -2 -32
-4z"/>
<path d="M11330 5830 c-12 -8 -10 -10 8 -10 13 0 20 4 17 10 -7 12 -6 12 -25
0z"/>
<path d="M11693 5833 c9 -2 25 -2 35 0 9 3 1 5 -18 5 -19 0 -27 -2 -17 -5z"/>
<path d="M11853 5833 c9 -2 23 -2 30 0 6 3 -1 5 -18 5 -16 0 -22 -2 -12 -5z"/>
<path d="M11975 5830 c-7 -11 9 -11 45 0 24 8 24 8 -7 9 -17 1 -35 -3 -38 -9z"/>
<path d="M12140 5832 c14 -4 72 -5 130 -1 l105 5 -130 1 c-71 1 -119 -2 -105
-5z"/>
<path d="M12422 5835 c4 -4 153 -10 330 -12 178 -3 328 -9 333 -13 6 -5 17 -5
25 0 17 11 148 11 155 1 2 -4 31 -3 65 3 50 8 63 7 70 -4 6 -10 12 -11 22 -2
10 8 231 11 792 11 428 0 781 2 784 5 3 3 -143 6 -324 6 -181 0 -763 3 -1294
6 -531 4 -962 3 -958 -1z"/>
<path d="M0 5788 c0 -3 29 -7 65 -7 36 0 63 4 60 9 -7 11 -125 9 -125 -2z"/>
<path d="M158 5788 c5 -5 16 -8 23 -6 8 3 3 7 -10 11 -17 4 -21 3 -13 -5z"/>
<path d="M261 5796 c10 -9 79 -14 79 -5 0 5 -19 9 -42 9 -23 0 -39 -2 -37 -4z"/>
<path d="M11631 5334 c0 -11 3 -14 6 -6 3 7 2 16 -1 19 -3 4 -6 -2 -5 -13z"/>
<path d="M7655 5321 c-3 -5 -1 -12 5 -16 5 -3 10 1 10 9 0 18 -6 21 -15 7z"/>
<path d="M11660 5291 c0 -6 5 -13 10 -16 6 -3 10 1 10 9 0 9 -4 16 -10 16 -5
0 -10 -4 -10 -9z"/>
<path d="M11680 5234 c0 -14 -2 -15 -17 -3 -11 10 -14 10 -9 2 6 -10 -194 -13
-986 -14 -546 -1 -957 -5 -913 -9 44 -3 722 -8 1507 -9 784 -1 1466 -6 1515
-11 51 -4 89 -4 91 1 2 5 203 10 460 11 293 1 416 4 342 8 -63 4 -535 8 -1049
9 -825 1 -932 3 -927 16 3 8 1 15 -4 15 -6 0 -10 -7 -10 -16z"/>
<path d="M3225 5210 l-130 -6 133 -2 c83 -1 132 2 132 8 0 6 -1 9 -2 8 -2 -1
-61 -5 -133 -8z"/>
<path d="M3391 5209 c13 -8 338 -14 328 -5 -2 2 -80 6 -173 9 -103 3 -164 2
-155 -4z"/>
<path d="M5218 5213 c12 -2 32 -2 45 0 12 2 2 4 -23 4 -25 0 -35 -2 -22 -4z"/>
<path d="M5895 5209 c-82 -3 422 -5 1120 -5 699 0 1311 3 1360 7 110 8 -2269
6 -2480 -2z"/>
<path d="M8482 5215 c7 -7 1129 -7 1136 -1 3 3 -253 6 -568 6 -315 0 -571 -2
-568 -5z"/>
<path d="M2728 5203 c6 -2 18 -2 25 0 6 3 1 5 -13 5 -14 0 -19 -2 -12 -5z"/>
<path d="M2978 5203 c12 -2 32 -2 45 0 12 2 2 4 -23 4 -25 0 -35 -2 -22 -4z"/>
<path d="M3058 5203 c7 -3 16 -2 19 1 4 3 -2 6 -13 5 -11 0 -14 -3 -6 -6z"/>
<path d="M3773 5203 c9 -2 25 -2 35 0 9 3 1 5 -18 5 -19 0 -27 -2 -17 -5z"/>
<path d="M3893 5203 c15 -2 39 -2 55 0 15 2 2 4 -28 4 -30 0 -43 -2 -27 -4z"/>
<path d="M4098 5203 c12 -2 32 -2 45 0 12 2 2 4 -23 4 -25 0 -35 -2 -22 -4z"/>
<path d="M4248 5203 c7 -3 16 -2 19 1 4 3 -2 6 -13 5 -11 0 -14 -3 -6 -6z"/>
<path d="M4318 5203 c12 -2 30 -2 40 0 9 3 -1 5 -23 4 -22 0 -30 -2 -17 -4z"/>
<path d="M4418 5203 c12 -2 32 -2 45 0 12 2 2 4 -23 4 -25 0 -35 -2 -22 -4z"/>
<path d="M4913 5203 c9 -2 25 -2 35 0 9 3 1 5 -18 5 -19 0 -27 -2 -17 -5z"/>
<path d="M4993 5203 c9 -2 25 -2 35 0 9 3 1 5 -18 5 -19 0 -27 -2 -17 -5z"/>
<path d="M5128 5203 c6 -2 18 -2 25 0 6 3 1 5 -13 5 -14 0 -19 -2 -12 -5z"/>
<path d="M13858 5203 c12 -2 32 -2 45 0 12 2 2 4 -23 4 -25 0 -35 -2 -22 -4z"/>
<path d="M14338 5203 c12 -2 32 -2 45 0 12 2 2 4 -23 4 -25 0 -35 -2 -22 -4z"/>
<path d="M14428 5203 c6 -2 18 -2 25 0 6 3 1 5 -13 5 -14 0 -19 -2 -12 -5z"/>
<path d="M14543 5203 c9 -2 23 -2 30 0 6 3 -1 5 -18 5 -16 0 -22 -2 -12 -5z"/>
<path d="M1728 5193 c7 -3 16 -2 19 1 4 3 -2 6 -13 5 -11 0 -14 -3 -6 -6z"/>
<path d="M13125 5180 c-33 -4 -48 -7 -33 -8 14 -1 28 -7 30 -12 2 -6 21 -13
43 -15 29 -4 34 -3 20 4 -17 7 -15 10 18 16 21 4 37 8 35 10 -10 8 -61 10
-113 5z"/>
<path d="M12940 5176 c0 -2 7 -7 16 -10 8 -3 12 -2 9 4 -6 10 -25 14 -25 6z"/>
<path d="M12248 5153 c6 -2 18 -2 25 0 6 3 1 5 -13 5 -14 0 -19 -2 -12 -5z"/>
<path d="M12328 5153 c7 -3 16 -2 19 1 4 3 -2 6 -13 5 -11 0 -14 -3 -6 -6z"/>
<path d="M12398 5153 c18 -2 45 -2 60 0 15 2 0 4 -33 4 -33 0 -45 -2 -27 -4z"/>
<path d="M12503 5153 c9 -2 25 -2 35 0 9 3 1 5 -18 5 -19 0 -27 -2 -17 -5z"/>
<path d="M13368 5153 c7 -3 16 -2 19 1 4 3 -2 6 -13 5 -11 0 -14 -3 -6 -6z"/>
<path d="M12038 5143 c7 -3 16 -2 19 1 4 3 -2 6 -13 5 -11 0 -14 -3 -6 -6z"/>
<path d="M13488 5133 c6 -2 18 -2 25 0 6 3 1 5 -13 5 -14 0 -19 -2 -12 -5z"/>
<path d="M13661 5136 c2 -2 56 -6 119 -9 76 -3 98 -2 65 3 -51 8 -192 13 -184
6z"/>
<path d="M14945 5130 c11 -5 27 -9 35 -9 9 0 8 4 -5 9 -11 5 -27 9 -35 9 -9 0
-8 -4 5 -9z"/>
<path d="M12798 5123 c6 -2 18 -2 25 0 6 3 1 5 -13 5 -14 0 -19 -2 -12 -5z"/>
<path d="M14730 5119 c0 -5 5 -7 10 -4 6 3 10 8 10 11 0 2 -4 4 -10 4 -5 0
-10 -5 -10 -11z"/>
<path d="M13115 5110 c-17 -7 -15 -9 13 -9 17 -1 32 4 32 9 0 12 -17 12 -45 0z"/>
<path d="M14040 5116 c0 -2 11 -6 25 -8 13 -3 22 -1 19 3 -5 9 -44 13 -44 5z"/>
<path d="M14656 5105 c-11 -8 -37 -15 -57 -15 -21 0 -40 -3 -42 -7 -5 -8 21
-11 96 -12 43 -1 50 -18 10 -24 -22 -3 -20 -4 10 -6 22 0 45 5 52 13 11 11 36
13 105 10 60 -3 89 -1 85 6 -3 6 -48 10 -101 10 -69 0 -93 3 -88 12 4 6 3 8
-4 4 -6 -3 -17 1 -25 9 -19 18 -17 18 -41 0z"/>
<path d="M14810 5110 c0 -5 12 -10 28 -9 24 0 25 1 7 9 -27 12 -35 12 -35 0z"/>
<path d="M14240 5100 c0 -6 23 -9 53 -9 44 1 48 2 22 9 -44 11 -75 11 -75 0z"/>
<path d="M13265 5091 c6 -6 37 -13 70 -15 46 -4 52 -4 25 3 -71 17 -105 22
-95 12z"/>
<path d="M14215 5090 c3 -5 8 -10 11 -10 2 0 4 5 4 10 0 6 -5 10 -11 10 -5 0
-7 -4 -4 -10z"/>
<path d="M14420 5080 c28 -6 30 -8 10 -9 -14 -1 -32 -6 -40 -11 -12 -8 -10
-10 10 -10 14 0 32 -5 40 -11 11 -8 6 -9 -20 -4 -19 4 -104 8 -189 10 -84 2
-156 7 -159 10 -3 3 -19 3 -36 0 -17 -3 -53 -2 -79 3 -27 6 -45 6 -40 2 4 -5
19 -10 33 -13 14 -2 -40 -5 -119 -6 -144 -1 -173 -7 -90 -17 37 -4 253 -5 324
-2 78 5 198 -3 185 -12 -12 -8 -11 -10 8 -10 12 0 22 4 22 9 0 5 28 9 63 9 51
0 56 -2 29 -8 -56 -13 -46 -17 55 -22 54 -3 100 -2 101 3 6 14 22 10 22 -5 0
-15 31 -20 225 -31 217 -13 220 -13 223 15 3 30 -14 60 -25 44 -22 -32 -99
-45 -183 -31 -14 3 -72 5 -129 6 -57 0 -102 3 -99 6 3 3 38 6 77 6 39 0 71 5
71 10 0 5 -38 9 -84 9 -67 0 -85 3 -90 16 -3 8 -11 12 -16 9 -15 -9 -60 3 -60
15 0 6 15 10 33 10 24 0 28 3 17 10 -8 5 -40 9 -70 9 -50 -2 -52 -2 -20 -9z"/>
<path d="M13405 5071 c-10 -17 3 -19 220 -37 92 -8 60 4 -58 20 -58 9 -117 18
-130 21 -14 4 -28 2 -32 -4z"/>
<path d="M14940 5070 c-13 -8 -11 -11 8 -16 12 -4 22 -10 22 -15 0 -5 7 -9 15
-9 9 0 15 9 15 25 0 19 -5 25 -22 25 -13 0 -30 -5 -38 -10z"/>
<path d="M14568 5043 c7 -3 16 -2 19 1 4 3 -2 6 -13 5 -11 0 -14 -3 -6 -6z"/>
<path d="M14720 5011 c0 -4 11 -6 25 -3 14 2 25 6 25 8 0 2 -11 4 -25 4 -14 0
-25 -4 -25 -9z"/>
<path d="M14160 5006 c0 -2 7 -7 16 -10 8 -3 12 -2 9 4 -6 10 -25 14 -25 6z"/>
<path d="M4385 4978 c1 -16 7 -22 20 -20 13 3 16 -1 11 -14 -6 -14 -4 -15 10
-4 14 12 13 15 -7 31 -17 12 -19 18 -8 22 9 3 6 6 -7 6 -16 1 -20 -5 -19 -21z"/>
<path d="M10101 4951 c-9 -16 -7 -20 15 -25 45 -12 55 12 14 34 -15 8 -21 6
-29 -9z"/>
<path d="M12550 4938 c0 -7 4 -20 10 -28 7 -12 10 -11 16 5 4 11 9 23 11 28 2
4 -5 7 -16 7 -12 0 -21 -6 -21 -12z"/>
<path d="M12536 4893 c-3 -4 -6 -14 -6 -24 0 -9 -6 -20 -12 -23 -7 -3 -2 -3
12 0 23 6 39 20 40 35 0 10 -27 19 -34 12z"/>
<path d="M14145 4810 c-3 -5 1 -10 9 -10 9 0 16 5 16 10 0 6 -4 10 -9 10 -6 0
-13 -4 -16 -10z"/>
<path d="M14307 4813 c-10 -15 16 -23 76 -23 42 1 49 3 33 11 -10 6 -36 9 -57
6 -23 -3 -39 -1 -42 6 -2 8 -5 8 -10 0z"/>
<path d="M13678 4793 c7 -3 16 -2 19 1 4 3 -2 6 -13 5 -11 0 -14 -3 -6 -6z"/>
<path d="M14495 4790 c41 -10 176 -10 200 0 13 5 -27 8 -105 8 -78 0 -114 -3
-95 -8z"/>
<path d="M14748 4788 c9 -9 15 -9 24 0 9 9 7 12 -12 12 -19 0 -21 -3 -12 -12z"/>
<path d="M14818 4793 c12 -2 32 -2 45 0 12 2 2 4 -23 4 -25 0 -35 -2 -22 -4z"/>
<path d="M538 4763 c7 -3 16 -2 19 1 4 3 -2 6 -13 5 -11 0 -14 -3 -6 -6z"/>
<path d="M13898 4763 c7 -3 16 -2 19 1 4 3 -2 6 -13 5 -11 0 -14 -3 -6 -6z"/>
<path d="M14850 4753 c14 -3 28 -10 31 -15 4 -6 13 -7 20 -3 16 11 -14 24 -51
23 l-25 -1 25 -4z"/>
<path d="M13563 4719 c14 -8 22 -8 30 0 8 8 3 11 -18 11 -26 -1 -28 -2 -12
-11z"/>
<path d="M13760 4720 c0 -5 6 -10 14 -10 8 0 18 5 21 10 3 6 -3 10 -14 10 -12
0 -21 -4 -21 -10z"/>
<path d="M14768 4723 c6 -2 18 -2 25 0 6 3 1 5 -13 5 -14 0 -19 -2 -12 -5z"/>
<path d="M13208 4713 c7 -3 16 -2 19 1 4 3 -2 6 -13 5 -11 0 -14 -3 -6 -6z"/>
<path d="M13625 4710 c3 -5 12 -10 20 -10 8 0 17 5 20 10 4 6 -5 10 -20 10
-15 0 -24 -4 -20 -10z"/>
<path d="M13695 4710 c3 -5 12 -10 20 -10 8 0 17 5 20 10 4 6 -5 10 -20 10
-15 0 -24 -4 -20 -10z"/>
<path d="M13858 4713 c12 -2 32 -2 45 0 12 2 2 4 -23 4 -25 0 -35 -2 -22 -4z"/>
<path d="M14000 4709 c0 -5 5 -7 10 -4 6 3 10 8 10 11 0 2 -4 4 -10 4 -5 0
-10 -5 -10 -11z"/>
<path d="M14560 4700 c0 -5 5 -10 11 -10 5 0 7 5 4 10 -3 6 -8 10 -11 10 -2 0
-4 -4 -4 -10z"/>
<path d="M14968 4703 c6 -2 18 -2 25 0 6 3 1 5 -13 5 -14 0 -19 -2 -12 -5z"/>
<path d="M13473 4693 c9 -2 25 -2 35 0 9 3 1 5 -18 5 -19 0 -27 -2 -17 -5z"/>
<path d="M14470 4690 c0 -5 7 -10 15 -10 8 0 15 5 15 10 0 6 -7 10 -15 10 -8
0 -15 -4 -15 -10z"/>
<path d="M14788 4693 c6 -2 18 -2 25 0 6 3 1 5 -13 5 -14 0 -19 -2 -12 -5z"/>
<path d="M14263 4672 c-13 -2 -23 -8 -23 -13 0 -6 -4 -7 -10 -4 -5 3 -10 1
-10 -5 0 -10 -232 -8 -505 5 -71 3 -324 6 -360 4 -27 -1 -27 -2 10 -10 22 -5
231 -11 465 -15 234 -3 427 -8 430 -10 6 -7 -1480 -3 -1515 4 l-30 5 25 8 c24
8 -70 4 -155 -5 -60 -7 -502 -8 -4685 -7 -3423 1 -7890 -7 -7898 -14 -2 -1
2431 -3 5405 -3 2974 0 6350 -3 7501 -7 1875 -5 2092 -4 2092 10 0 8 -6 15
-12 15 -9 0 -8 4 2 10 10 7 -21 10 -97 10 -69 0 -113 4 -113 10 0 13 -27 13
-32 0 -2 -7 -52 -11 -133 -11 -72 0 -149 -4 -172 -9 -24 -4 -43 -4 -43 1 0 5
-9 9 -20 9 -11 0 -20 -5 -20 -11 0 -8 -5 -8 -15 1 -12 10 -18 10 -30 0 -12
-10 -16 -10 -19 1 -2 8 -6 19 -8 24 -2 6 -13 9 -25 7z"/>
<path d="M13217 4648 c-16 -10 51 -8 83 2 19 6 13 7 -23 6 -27 0 -54 -4 -60
-8z"/>
<path d="M12893 4643 c9 -2 23 -2 30 0 6 3 -1 5 -18 5 -16 0 -22 -2 -12 -5z"/>
<path d="M10120 4505 c-12 -14 -11 -18 1 -26 20 -13 29 -11 29 6 0 8 0 18 1
22 1 15 -18 13 -31 -2z"/>
<path d="M10160 3740 c-667 -5 -662 -5 415 -9 600 -2 1097 -5 1105 -6 8 -1 66
-3 128 -4 106 -1 112 -2 112 -22 0 -11 4 -18 10 -14 5 3 6 13 3 22 -6 15 71
15 958 9 530 -4 1222 -9 1537 -12 455 -3 573 -1 569 9 -4 14 204 12 -2255 21
-1036 4 -1889 8 -1895 9 -7 1 -316 0 -687 -3z"/>
<path d="M588 3733 c18 -2 45 -2 60 0 15 2 0 4 -33 4 -33 0 -45 -2 -27 -4z"/>
<path d="M710 3733 c0 -5 42 -7 92 -5 168 5 185 8 46 10 -76 1 -138 -1 -138
-5z"/>
<path d="M8448 3733 c6 -2 18 -2 25 0 6 3 1 5 -13 5 -14 0 -19 -2 -12 -5z"/>
<path d="M8648 3733 c7 -3 16 -2 19 1 4 3 -2 6 -13 5 -11 0 -14 -3 -6 -6z"/>
<path d="M8793 3733 c9 -2 25 -2 35 0 9 3 1 5 -18 5 -19 0 -27 -2 -17 -5z"/>
<path d="M8923 3733 c15 -2 37 -2 50 0 12 2 0 4 -28 4 -27 0 -38 -2 -22 -4z"/>
<path d="M9098 3733 c7 -3 16 -2 19 1 4 3 -2 6 -13 5 -11 0 -14 -3 -6 -6z"/>
<path d="M9213 3733 c15 -2 37 -2 50 0 12 2 0 4 -28 4 -27 0 -38 -2 -22 -4z"/>
<path d="M9398 3733 c18 -2 45 -2 60 0 15 2 0 4 -33 4 -33 0 -45 -2 -27 -4z"/>
<path d="M14871 3577 c-7 -21 -11 -40 -8 -43 7 -7 29 54 25 68 -3 7 -10 -4
-17 -25z"/>
<path d="M14810 3381 c0 -6 5 -13 10 -16 6 -3 10 1 10 9 0 9 -4 16 -10 16 -5
0 -10 -4 -10 -9z"/>
<path d="M10360 3290 c0 -5 5 -10 11 -10 5 0 7 5 4 10 -3 6 -8 10 -11 10 -2 0
-4 -4 -4 -10z"/>
<path d="M13430 3260 c-12 -8 -9 -10 13 -10 16 0 26 4 22 10 -8 12 -16 12 -35
0z"/>
<path d="M13680 3259 c0 -5 5 -7 10 -4 6 3 10 8 10 11 0 2 -4 4 -10 4 -5 0
-10 -5 -10 -11z"/>
<path d="M13509 3251 c-26 -10 0 -26 47 -29 32 -2 41 0 41 13 0 12 -6 15 -20
11 -11 -3 -27 -1 -36 3 -9 5 -23 6 -32 2z"/>
<path d="M13693 3243 c-24 -9 -13 -23 18 -23 27 0 30 2 19 15 -13 16 -17 17
-37 8z"/>
<path d="M13927 3243 c-4 -3 -7 -14 -7 -23 0 -19 37 -30 102 -30 32 0 39 3 36
18 -2 13 -15 18 -51 20 -26 2 -45 7 -42 13 7 10 -28 13 -38 2z m28 -23 c3 -5
2 -10 -4 -10 -5 0 -13 5 -16 10 -3 6 -2 10 4 10 5 0 13 -4 16 -10z m45 -10 c0
-5 -2 -10 -4 -10 -3 0 -8 5 -11 10 -3 6 -1 10 4 10 6 0 11 -4 11 -10z"/>
<path d="M14023 3243 c9 -2 25 -2 35 0 9 3 1 5 -18 5 -19 0 -27 -2 -17 -5z"/>
<path d="M13618 3233 c7 -3 16 -2 19 1 4 3 -2 6 -13 5 -11 0 -14 -3 -6 -6z"/>
<path d="M14187 3221 c-3 -12 -1 -21 3 -21 14 0 19 15 11 29 -6 9 -10 7 -14
-8z"/>
<path d="M14231 3218 c1 -17 2 -19 6 -5 5 19 19 23 25 5 3 -7 11 -9 24 -4 19
8 19 8 -1 16 -37 16 -55 11 -54 -12z"/>
<path d="M14390 3220 c8 -5 22 -10 30 -10 13 0 13 1 0 10 -8 5 -22 10 -30 10
-13 0 -13 -1 0 -10z"/>
<path d="M12928 3213 c6 -2 18 -2 25 0 6 3 1 5 -13 5 -14 0 -19 -2 -12 -5z"/>
<path d="M13848 3213 c7 -3 16 -2 19 1 4 3 -2 6 -13 5 -11 0 -14 -3 -6 -6z"/>
<path d="M14095 3210 c-8 -13 15 -24 27 -12 6 6 4 11 -6 15 -8 3 -18 2 -21 -3z"/>
<path d="M14507 3199 c-4 -14 -10 -18 -19 -13 -10 6 -9 3 1 -10 16 -19 33 -9
38 24 4 27 -13 26 -20 -1z"/>
<path d="M13768 3203 c7 -3 16 -2 19 1 4 3 -2 6 -13 5 -11 0 -14 -3 -6 -6z"/>
<path d="M14560 3195 c-10 -13 -11 -18 -1 -28 9 -9 12 -9 9 0 -2 6 6 19 17 27
17 13 17 15 4 16 -9 0 -22 -7 -29 -15z"/>
<path d="M14788 3203 c7 -3 16 -2 19 1 4 3 -2 6 -13 5 -11 0 -14 -3 -6 -6z"/>
<path d="M14990 3195 c0 -10 -11 -15 -32 -16 -27 0 -29 -2 -13 -8 29 -11 55
-2 55 20 0 11 -2 19 -5 19 -3 0 -5 -7 -5 -15z"/>
<path d="M14631 3183 c0 -11 3 -13 6 -5 2 6 9 10 13 7 5 -3 11 -1 15 5 3 5 -3
10 -14 10 -14 0 -21 -6 -20 -17z"/>
<path d="M14690 3187 c0 -6 -8 -16 -17 -23 -17 -13 -17 -13 0 -14 10 0 20 7
23 15 4 8 14 15 23 15 9 0 22 4 30 9 10 6 2 9 -22 8 -21 0 -37 -5 -37 -10z"/>
<path d="M14255 3180 c3 -5 12 -10 20 -10 8 0 17 5 20 10 4 6 -5 10 -20 10
-15 0 -24 -4 -20 -10z"/>
<path d="M14775 3181 c-3 -5 -1 -12 5 -16 5 -3 10 1 10 9 0 18 -6 21 -15 7z"/>
<path d="M14338 3173 c7 -3 16 -2 19 1 4 3 -2 6 -13 5 -11 0 -14 -3 -6 -6z"/>
<path d="M14818 3173 c6 -2 18 -2 25 0 6 3 1 5 -13 5 -14 0 -19 -2 -12 -5z"/>
<path d="M14576 3155 c-11 -9 -14 -15 -7 -15 7 0 19 7 27 15 20 19 5 19 -20 0z"/>
<path d="M14745 3160 c3 -5 8 -10 11 -10 2 0 4 5 4 10 0 6 -5 10 -11 10 -5 0
-7 -4 -4 -10z"/>
<path d="M12062 3141 c7 -11 15 -18 19 -15 4 2 9 -2 12 -8 2 -7 8 -10 11 -6 9
7 -29 48 -44 48 -6 0 -5 -8 2 -19z"/>
<path d="M12125 3120 c-3 -5 -1 -10 4 -10 6 0 11 5 11 10 0 6 -2 10 -4 10 -3
0 -8 -4 -11 -10z"/>
<path d="M11985 3030 c-3 -5 -1 -10 4 -10 6 0 11 5 11 10 0 6 -2 10 -4 10 -3
0 -8 -4 -11 -10z"/>
<path d="M10155 2980 c-7 -23 9 -50 30 -50 9 0 13 12 12 32 -2 39 -31 51 -42
18z"/>
<path d="M14832 2980 c0 -14 2 -19 5 -12 2 6 2 18 0 25 -3 6 -5 1 -5 -13z"/>
<path d="M14746 2982 c-3 -6 -1 -14 5 -17 15 -10 25 3 12 16 -7 7 -13 7 -17 1z"/>
<path d="M14839 2900 l-4 -55 -50 3 c-27 1 -57 2 -65 1 -29 -1 -1838 3 -2005
6 -369 5 -7440 17 -7435 12 3 -3 1243 -8 2755 -11 1513 -3 2973 -9 3245 -12
272 -3 671 -7 885 -9 215 -2 642 -6 950 -9 308 -4 803 -9 1100 -11 297 -3 595
-8 663 -11 l122 -6 0 26 c0 29 -23 44 -43 28 -16 -14 -61 -10 -81 7 -8 7 -19
31 -24 54 l-9 42 -4 -55z"/>
<path d="M14730 2926 c0 -2 7 -7 16 -10 8 -3 12 -2 9 4 -6 10 -25 14 -25 6z"/>
<path d="M3921 2866 c9 -9 1246 -16 1299 -7 35 5 -187 9 -624 10 -374 0 -677
-1 -675 -3z"/>
<path d="M1697 2847 c-7 -5 57 -6 142 -3 84 3 156 8 160 11 9 10 -289 1 -302
-8z"/>
<path d="M2012 2854 c7 -7 400 -6 407 1 2 3 -89 5 -204 5 -115 0 -206 -3 -203
-6z"/>
<path d="M2488 2853 c23 -2 59 -2 80 0 20 2 1 4 -43 4 -44 0 -61 -2 -37 -4z"/>
<path d="M2863 2853 c136 -2 358 -2 495 0 136 1 24 2 -248 2 -272 0 -384 -1
-247 -2z"/>
<path d="M1438 2843 c7 -3 16 -2 19 1 4 3 -2 6 -13 5 -11 0 -14 -3 -6 -6z"/>
<path d="M1523 2843 c32 -2 81 -2 110 0 29 2 3 3 -58 3 -60 0 -84 -1 -52 -3z"/>
<path d="M28 2833 c7 -3 16 -2 19 1 4 3 -2 6 -13 5 -11 0 -14 -3 -6 -6z"/>
<path d="M13640 2760 c20 -13 33 -13 25 0 -3 6 -14 10 -23 10 -15 0 -15 -2 -2
-10z"/>
<path d="M10460 2500 c0 -5 9 -10 20 -10 11 0 20 5 20 10 0 6 -9 10 -20 10
-11 0 -20 -4 -20 -10z"/>
<path d="M4535 2450 c3 -5 8 -10 11 -10 2 0 4 5 4 10 0 6 -5 10 -11 10 -5 0
-7 -4 -4 -10z"/>
<path d="M10170 2410 c0 -5 5 -10 10 -10 6 0 10 5 10 10 0 6 -4 10 -10 10 -5
0 -10 -4 -10 -10z"/>
<path d="M2398 2123 c12 -2 32 -2 45 0 12 2 2 4 -23 4 -25 0 -35 -2 -22 -4z"/>
<path d="M2578 2123 c12 -2 32 -2 45 0 12 2 2 4 -23 4 -25 0 -35 -2 -22 -4z"/>
<path d="M2732 2125 c8 -8 118 -8 125 -1 4 3 -24 6 -62 6 -38 0 -66 -2 -63 -5z"/>
<path d="M2998 2123 c12 -2 30 -2 40 0 9 3 -1 5 -23 4 -22 0 -30 -2 -17 -4z"/>
<path d="M3277 2119 c8 -8 22 -8 50 -1 l38 10 -49 1 c-37 1 -47 -2 -39 -10z"/>
<path d="M3588 2123 c7 -3 16 -2 19 1 4 3 -2 6 -13 5 -11 0 -14 -3 -6 -6z"/>
<path d="M3773 2123 c9 -2 23 -2 30 0 6 3 -1 5 -18 5 -16 0 -22 -2 -12 -5z"/>
<path d="M3853 2123 c9 -2 25 -2 35 0 9 3 1 5 -18 5 -19 0 -27 -2 -17 -5z"/>
<path d="M3958 2123 c23 -2 59 -2 80 0 20 2 1 4 -43 4 -44 0 -61 -2 -37 -4z"/>
<path d="M4213 2123 c15 -2 37 -2 50 0 12 2 0 4 -28 4 -27 0 -38 -2 -22 -4z"/>
<path d="M4338 2123 c12 -2 30 -2 40 0 9 3 -1 5 -23 4 -22 0 -30 -2 -17 -4z"/>
<path d="M4418 2123 c12 -2 32 -2 45 0 12 2 2 4 -23 4 -25 0 -35 -2 -22 -4z"/>
<path d="M5758 2123 c12 -2 30 -2 40 0 9 3 -1 5 -23 4 -22 0 -30 -2 -17 -4z"/>
<path d="M5933 2123 c9 -2 23 -2 30 0 6 3 -1 5 -18 5 -16 0 -22 -2 -12 -5z"/>
<path d="M6178 2123 c12 -2 30 -2 40 0 9 3 -1 5 -23 4 -22 0 -30 -2 -17 -4z"/>
<path d="M6448 2123 c6 -2 18 -2 25 0 6 3 1 5 -13 5 -14 0 -19 -2 -12 -5z"/>
<path d="M6668 2123 c6 -2 18 -2 25 0 6 3 1 5 -13 5 -14 0 -19 -2 -12 -5z"/>
<path d="M8663 2123 c15 -2 37 -2 50 0 12 2 0 4 -28 4 -27 0 -38 -2 -22 -4z"/>
<path d="M8813 2123 c9 -2 25 -2 35 0 9 3 1 5 -18 5 -19 0 -27 -2 -17 -5z"/>
<path d="M9023 2123 c9 -2 25 -2 35 0 9 3 1 5 -18 5 -19 0 -27 -2 -17 -5z"/>
<path d="M9263 2123 c9 -2 25 -2 35 0 9 3 1 5 -18 5 -19 0 -27 -2 -17 -5z"/>
<path d="M9626 2121 c5 -4 32 -5 59 -1 l50 7 -59 2 c-35 0 -56 -3 -50 -8z"/>
<path d="M10020 2119 c0 -5 101 -9 233 -9 128 0 289 -2 357 -3 122 -4 150 -1
150 12 0 3 -167 7 -370 8 -214 0 -370 -3 -370 -8z"/>
<path d="M10868 2113 c7 -3 16 -2 19 1 4 3 -2 6 -13 5 -11 0 -14 -3 -6 -6z"/>
<path d="M10995 2110 c8 -13 260 -12 290 0 12 5 -47 9 -138 9 -106 1 -156 -2
-152 -9z"/>
<path d="M11440 2111 c-16 -6 85 -9 265 -10 160 -1 391 -3 515 -5 124 -3 576
-7 1005 -10 429 -4 1004 -9 1278 -12 351 -4 497 -2 497 5 0 8 -78 11 -247 12
-137 0 -309 2 -383 5 -141 4 -974 11 -2190 19 -398 2 -726 1 -740 -4z"/>
<path d="M13890 1950 c0 -5 7 -10 16 -10 8 0 12 5 9 10 -3 6 -10 10 -16 10 -5
0 -9 -4 -9 -10z"/>
<path d="M14013 1943 c9 -2 23 -2 30 0 6 3 -1 5 -18 5 -16 0 -22 -2 -12 -5z"/>
<path d="M13990 1918 c0 -4 14 -8 30 -8 17 0 30 2 30 4 0 2 -13 6 -30 8 -16 3
-30 1 -30 -4z"/>
<path d="M13810 1905 c-21 -25 -1 -31 23 -7 17 18 18 22 5 22 -8 0 -21 -7 -28
-15z"/>
<path d="M14208 1893 c6 -2 18 -2 25 0 6 3 1 5 -13 5 -14 0 -19 -2 -12 -5z"/>
<path d="M13757 1849 c7 -7 15 -10 18 -7 3 3 -2 9 -12 12 -14 6 -15 5 -6 -5z"/>
<path d="M13848 1783 c7 -3 16 -2 19 1 4 3 -2 6 -13 5 -11 0 -14 -3 -6 -6z"/>
<path d="M13950 1759 c0 -5 5 -7 10 -4 6 3 10 8 10 11 0 2 -4 4 -10 4 -5 0
-10 -5 -10 -11z"/>
<path d="M14950 1619 c0 -5 11 -9 25 -9 14 0 25 2 25 4 0 2 -11 6 -25 8 -14 3
-25 1 -25 -3z"/>
<path d="M322 1522 c-177 -1 -322 -6 -322 -11 0 -15 39 -16 220 -9 235 9 955
11 3445 10 1174 0 2069 3 2030 8 -61 8 -4520 9 -5373 2z"/>
<path d="M5815 1520 c-54 -13 179 -15 1075 -10 l875 5 -700 7 c-816 9 -1208 9
-1250 -2z"/>
<path d="M8706 1523 c-1 -1 -98 -3 -214 -4 -117 -1 -210 -4 -207 -7 9 -10 612
-10 627 -1 10 7 10 9 -2 10 -24 3 -201 4 -204 2z"/>
<path d="M9820 1520 c-461 -5 -542 -11 -330 -25 25 -2 82 -5 127 -9 59 -4 83
-2 87 7 3 9 7 9 14 -2 5 -7 15 -11 21 -7 18 12 140 14 144 3 2 -7 9 -7 22 0
13 7 227 10 640 7 341 -1 788 -3 994 -4 308 -1 377 -4 388 -16 8 -8 22 -14 31
-14 15 1 14 3 -2 15 -18 14 -15 15 40 15 32 0 66 -5 74 -10 11 -7 -1 -10 -39
-10 -30 0 -51 -3 -47 -7 13 -13 101 -2 110 14 7 13 10 13 17 2 6 -11 11 -11
21 -1 17 17 38 15 60 -5 11 -9 18 -11 18 -5 0 7 7 12 15 12 8 0 15 -6 15 -12
0 -9 4 -8 10 2 7 12 13 13 28 3 15 -9 22 -9 31 0 6 6 11 7 11 1 0 -11 60 -11
77 -1 7 4 14 3 17 -2 6 -9 81 -9 90 0 3 2 24 3 48 1 39 -3 46 -8 56 -34 12
-33 35 -34 40 -1 2 11 13 25 25 30 17 8 421 12 532 5 11 -1 139 -2 285 -3 514
-3 590 -6 590 -29 0 -5 9 -6 21 -3 16 4 17 8 7 14 -14 9 46 11 237 9 120 -2
194 -6 210 -10 6 -2 18 0 28 5 10 4 24 2 33 -6 11 -9 18 -9 22 -2 4 6 42 11
91 11 50 0 78 -4 70 -9 -13 -8 14 -6 93 6 15 2 29 -1 31 -8 3 -9 7 -9 18 1 7
6 23 12 36 12 14 0 23 6 23 15 0 13 -44 15 -337 16 -479 1 -1320 8 -1573 13
-118 3 -762 8 -1430 11 -668 4 -1242 8 -1275 8 -33 1 -287 0 -565 -3z"/>
<path d="M7858 1513 c12 -2 32 -2 45 0 12 2 2 4 -23 4 -25 0 -35 -2 -22 -4z"/>
<path d="M7965 1510 c3 -5 19 -10 36 -10 16 0 29 5 29 10 0 6 -16 10 -36 10
-21 0 -33 -4 -29 -10z"/>
<path d="M8050 1512 c0 -5 42 -9 93 -9 58 0 83 2 67 7 -34 11 -160 12 -160 2z"/>
<path d="M9018 1513 c12 -2 30 -2 40 0 9 3 -1 5 -23 4 -22 0 -30 -2 -17 -4z"/>
<path d="M9098 1513 c7 -3 16 -2 19 1 4 3 -2 6 -13 5 -11 0 -14 -3 -6 -6z"/>
<path d="M9182 1515 c10 -10 68 -14 68 -4 0 5 -16 9 -37 9 -20 0 -34 -2 -31
-5z"/>
<path d="M9278 1513 c7 -3 16 -2 19 1 4 3 -2 6 -13 5 -11 0 -14 -3 -6 -6z"/>
<path d="M11798 1473 c7 -3 16 -2 19 1 4 3 -2 6 -13 5 -11 0 -14 -3 -6 -6z"/>
<path d="M11880 1473 c8 -3 18 -11 22 -17 9 -14 22 -1 13 13 -3 6 -16 11 -28
10 -15 0 -17 -2 -7 -6z"/>
<path d="M12155 1470 c-3 -5 -2 -10 4 -10 5 0 13 5 16 10 3 6 2 10 -4 10 -5 0
-13 -4 -16 -10z"/>
<path d="M11578 1463 c7 -3 16 -2 19 1 4 3 -2 6 -13 5 -11 0 -14 -3 -6 -6z"/>
<path d="M11817 1459 c-24 -14 -11 -32 14 -19 10 6 19 15 19 20 0 13 -10 12
-33 -1z"/>
<path d="M12530 1425 c0 -14 5 -25 10 -25 6 0 10 5 10 11 0 6 7 8 17 5 15 -6
15 -4 -2 14 -24 27 -35 25 -35 -5z"/>
<path d="M13380 1443 c14 -3 30 -9 36 -14 6 -5 23 -4 40 0 35 11 34 11 -41 16
-33 1 -49 1 -35 -2z"/>
<path d="M13209 1426 c6 -7 8 -16 4 -20 -4 -4 -1 -11 7 -16 11 -7 1 -10 -32
-10 -27 0 -48 4 -48 9 0 14 -30 23 -92 27 -55 3 -58 2 -55 -19 1 -16 -3 -22
-15 -21 -10 1 -18 -4 -18 -12 0 -11 -15 -13 -66 -11 -36 2 -68 -1 -70 -5 -3
-4 -20 -8 -38 -8 -19 0 -39 -7 -46 -15 -7 -8 -21 -15 -32 -15 -41 0 -10 -25
35 -28 26 -2 47 -7 47 -13 0 -5 15 -9 33 -9 22 0 28 3 18 9 -14 9 104 20 199
19 24 0 46 5 48 11 2 7 18 9 40 5 38 -5 142 7 177 22 17 7 18 6 7 -8 -11 -13
-6 -16 34 -22 25 -3 94 -4 152 -1 77 4 101 2 87 -5 -17 -9 -16 -9 5 -3 31 8
141 9 197 0 34 -5 44 -3 52 11 6 10 11 12 11 5 0 -15 30 -18 30 -3 0 6 10 10
23 10 18 0 19 -2 7 -10 -8 -5 -13 -10 -10 -10 62 -10 133 -6 151 8 26 22 139
18 139 -4 0 -8 7 -14 15 -14 8 0 12 6 10 13 -7 17 15 46 22 30 2 -7 14 -13 25
-13 11 0 18 5 15 13 -3 9 -51 11 -205 8 -143 -2 -202 0 -202 8 0 6 -7 11 -16
11 -9 0 -12 -5 -8 -12 4 -7 3 -8 -4 -4 -7 4 -65 9 -130 12 -129 5 -244 22
-237 34 8 13 -65 22 -80 10 -8 -7 -16 -7 -19 -2 -3 6 4 13 17 17 21 6 21 7 -8
16 -16 6 -65 12 -108 14 -64 3 -77 2 -68 -9z m61 -20 c0 -9 -30 -14 -35 -6 -4
6 3 10 14 10 12 0 21 -2 21 -4z m80 -6 c0 -5 -2 -10 -4 -10 -3 0 -8 5 -11 10
-3 6 -1 10 4 10 6 0 11 -4 11 -10z m76 -40 c8 0 14 -5 14 -11 0 -6 -7 -8 -16
-5 -9 3 -18 6 -20 6 -2 0 -4 8 -3 18 0 10 3 12 6 5 2 -7 11 -13 19 -13z m-192
-15 c-9 -14 -22 -25 -29 -25 -7 0 -27 -3 -44 -6 -19 -4 -31 -2 -31 4 0 6 18
13 40 17 22 4 38 11 35 15 -5 7 10 15 38 19 4 0 0 -10 -9 -24z m113 9 c-3 -3
-12 -4 -19 -1 -8 3 -5 6 6 6 11 1 17 -2 13 -5z m450 -50 c-3 -3 -12 -4 -19 -1
-8 3 -5 6 6 6 11 1 17 -2 13 -5z"/>
<path d="M11825 1420 c-3 -5 1 -10 10 -10 9 0 13 5 10 10 -3 6 -8 10 -10 10
-2 0 -7 -4 -10 -10z"/>
<path d="M14454 1415 c-17 -13 -17 -14 -2 -15 9 0 20 5 23 11 11 17 0 20 -21
4z"/>
<path d="M13482 1401 c10 -16 92 -39 121 -32 16 3 55 2 277 -4 124 -4 270 -7
325 -8 89 -2 100 -4 99 -19 -2 -15 8 -18 65 -20 36 0 77 -2 91 -3 14 -2 55 -4
93 -6 37 -1 67 -6 67 -11 0 -6 17 -9 38 -7 54 3 62 1 56 -16 -5 -13 -2 -13 30
0 48 20 59 19 51 -5 -4 -14 -2 -20 9 -20 19 0 32 20 14 21 -21 2 74 17 112 18
23 0 30 -2 22 -8 -11 -7 -10 -10 3 -15 35 -13 44 -7 43 33 l0 39 -152 7 c-188
8 -302 3 -299 -13 4 -15 -19 -16 -34 -1 -6 6 -48 11 -102 10 -55 -1 -91 3 -91
9 0 6 51 10 135 10 75 0 135 4 135 9 0 15 -23 18 -53 7 -24 -9 -31 -8 -43 8
-8 11 -14 14 -14 7 0 -10 -92 -12 -444 -9 -261 2 -442 7 -439 12 4 5 -12 7
-35 3 -32 -4 -42 -2 -42 9 0 8 -10 14 -25 14 -22 0 -24 -2 -13 -19z m1355 -85
c3 -3 -35 -4 -86 -3 -50 1 -91 6 -91 11 0 9 168 2 177 -8z m133 4 c-8 -5 -31
-9 -50 -8 l-35 1 40 7 c59 11 61 11 45 0z m-93 -6 c-3 -3 -12 -4 -19 -1 -8 3
-5 6 6 6 11 1 17 -2 13 -5z"/>
<path d="M14380 1416 c0 -2 7 -7 16 -10 8 -3 12 -2 9 4 -6 10 -25 14 -25 6z"/>
<path d="M14748 1413 c6 -2 18 -2 25 0 6 3 1 5 -13 5 -14 0 -19 -2 -12 -5z"/>
<path d="M12940 1400 c-8 -5 -11 -13 -6 -17 5 -4 11 -2 13 5 3 6 10 9 15 6 7
-4 8 -2 4 4 -9 14 -7 14 -26 2z"/>
<path d="M14908 1403 c7 -3 16 -2 19 1 4 3 -2 6 -13 5 -11 0 -14 -3 -6 -6z"/>
<path d="M14698 1393 c6 -2 18 -2 25 0 6 3 1 5 -13 5 -14 0 -19 -2 -12 -5z"/>
<path d="M14635 1380 c-3 -6 0 -10 8 -10 8 0 30 -3 48 -6 23 -5 31 -3 24 3
-15 15 -73 24 -80 13z"/>
<path d="M14750 1369 c0 -6 53 -9 125 -8 69 1 125 5 125 10 0 4 -56 8 -125 7
-70 0 -125 -4 -125 -9z"/>
<path d="M12685 1362 c-16 -2 -34 -8 -40 -14 -7 -7 2 -8 30 -3 59 10 67 24 10
17z"/>
<path d="M11568 1353 c6 -2 18 -2 25 0 6 3 1 5 -13 5 -14 0 -19 -2 -12 -5z"/>
<path d="M12572 1353 c-10 -4 -10 -8 0 -20 11 -14 10 -15 -10 -9 -30 10 -42
-19 -16 -39 12 -9 14 -14 6 -15 -7 0 -10 -5 -6 -11 4 -8 9 -8 17 0 6 6 28 11
48 11 39 0 55 12 44 30 -5 8 -11 7 -21 -1 -21 -17 -44 -3 -44 26 0 22 3 25 21
20 15 -5 19 -4 15 4 -7 11 -31 13 -54 4z"/>
<path d="M11520 1340 c0 -5 5 -10 10 -10 6 0 10 5 10 10 0 6 -4 10 -10 10 -5
0 -10 -4 -10 -10z"/>
<path d="M11628 1333 c7 -3 16 -2 19 1 4 3 -2 6 -13 5 -11 0 -14 -3 -6 -6z"/>
<path d="M12485 1330 l-20 -9 20 0 c11 0 27 4 35 9 13 9 13 10 0 9 -8 0 -24
-4 -35 -9z"/>
<path d="M12038 1323 c7 -3 16 -2 19 1 4 3 -2 6 -13 5 -11 0 -14 -3 -6 -6z"/>
<path d="M12348 1313 c7 -3 16 -2 19 1 4 3 -2 6 -13 5 -11 0 -14 -3 -6 -6z"/>
<path d="M12410 1316 c0 -9 40 -13 46 -5 3 5 -6 9 -20 9 -14 0 -26 -2 -26 -4z"/>
<path d="M14080 1288 c0 -5 18 -8 40 -8 22 0 40 3 40 8 0 4 -18 7 -40 7 -22 0
-40 -3 -40 -7z"/>
<path d="M14377 1279 c-16 -14 -16 -17 -2 -22 15 -6 45 1 45 10 0 2 -6 10 -13
17 -10 10 -16 9 -30 -5z"/>
<path d="M11420 1280 c-12 -8 -10 -10 8 -10 13 0 20 4 17 10 -7 12 -6 12 -25
0z"/>
<path d="M12440 1274 c0 -16 2 -16 24 -8 22 8 20 19 -4 21 -11 1 -20 -4 -20
-13z"/>
<path d="M12340 1260 c-11 -8 -2 -10 33 -8 26 1 47 5 47 10 0 11 -62 10 -80
-2z"/>
<path d="M14016 1260 c-21 -4 -47 -5 -56 -3 -25 7 -31 -8 -14 -37 l14 -25 6
23 c7 24 24 30 24 8 0 -9 7 -12 19 -9 10 3 21 1 24 -5 4 -5 53 -7 113 -4 83 4
108 2 116 -9 7 -11 11 -11 15 -1 3 7 24 12 51 13 41 1 43 2 17 8 -16 4 -94 6
-173 5 -78 -1 -145 2 -148 7 -3 5 28 9 68 9 40 0 80 5 88 10 17 11 24 10 -70
14 -30 2 -73 0 -94 -4z"/>
<path d="M14520 1259 c-41 -5 -39 -6 23 -7 67 -2 87 2 45 9 -13 2 -43 1 -68
-2z"/>
<path d="M13553 1253 c-85 -6 -61 -18 40 -20 54 0 82 2 67 6 l-25 8 25 5 c29
6 -26 6 -107 1z"/>
<path d="M13699 1251 c11 -7 11 -9 0 -14 -8 -3 31 -4 86 -3 55 1 109 7 120 14
16 9 -4 11 -100 12 -71 0 -114 -4 -106 -9z"/>
<path d="M14629 1252 c9 -7 10 -11 2 -15 -7 -4 -8 -5 0 -3 15 2 13 20 -3 24
-10 3 -10 2 1 -6z"/>
<path d="M2140 1235 c-23 -9 -28 -14 -15 -14 11 0 31 6 45 14 31 18 16 18 -30
0z"/>
<path d="M12465 1240 c-11 -5 -32 -9 -47 -9 -16 -1 -28 -4 -28 -8 0 -5 22 -6
48 -5 34 3 49 8 49 18 0 8 -1 14 -1 13 -1 0 -10 -4 -21 -9z"/>
<path d="M13406 1241 c5 -5 20 -11 34 -14 14 -2 19 -2 13 0 -7 3 -13 9 -13 14
0 5 -10 9 -22 9 -14 0 -18 -4 -12 -9z"/>
<path d="M12818 1233 c6 -2 18 -2 25 0 6 3 1 5 -13 5 -14 0 -19 -2 -12 -5z"/>
<path d="M14718 1233 c7 -3 16 -2 19 1 4 3 -2 6 -13 5 -11 0 -14 -3 -6 -6z"/>
<path d="M14963 1233 c9 -2 23 -2 30 0 6 3 -1 5 -18 5 -16 0 -22 -2 -12 -5z"/>
<path d="M12225 1220 l-30 -8 33 -1 c17 0 32 4 32 9 0 6 -1 9 -2 9 -2 -1 -16
-5 -33 -9z"/>
<path d="M12320 1220 c0 -5 6 -10 14 -10 8 0 18 5 21 10 3 6 -3 10 -14 10 -12
0 -21 -4 -21 -10z"/>
<path d="M13911 1214 c0 -11 3 -14 6 -6 3 7 2 16 -1 19 -3 4 -6 -2 -5 -13z"/>
<path d="M14400 1218 c0 -5 11 -8 25 -8 14 0 25 4 25 9 0 5 -11 8 -25 7 -14 0
-25 -4 -25 -8z"/>
<path d="M11930 1210 c0 -5 14 -10 30 -10 17 0 30 5 30 10 0 6 -13 10 -30 10
-16 0 -30 -4 -30 -10z"/>
<path d="M12118 1203 c7 -3 16 -2 19 1 4 3 -2 6 -13 5 -11 0 -14 -3 -6 -6z"/>
<path d="M12940 1200 c0 -5 5 -10 10 -10 6 0 10 5 10 10 0 6 -4 10 -10 10 -5
0 -10 -4 -10 -10z"/>
<path d="M14960 1200 c0 -5 8 -10 18 -10 9 -1 1 -8 -18 -16 -32 -14 -38 -14
-63 1 -29 17 -54 12 -27 -5 17 -11 -36 -15 -125 -12 -27 2 -63 -2 -80 -7 -26
-8 -22 -10 35 -12 36 -1 55 -4 43 -6 -45 -9 -22 -18 55 -23 42 -2 96 -4 120
-3 23 0 42 -4 42 -10 0 -6 -29 -8 -80 -4 -44 3 -80 2 -80 -2 0 -5 38 -11 84
-15 46 -3 91 -9 100 -12 12 -5 16 1 16 24 0 17 -6 33 -12 36 -10 5 -10 7 0 12
6 3 12 21 12 40 0 27 -4 34 -20 34 -11 0 -20 -4 -20 -10z m-47 -70 c-4 -5 -33
-5 -63 -2 l-55 6 40 6 c47 6 90 1 78 -10z"/>
<path d="M795 1189 c-4 -6 -5 -12 -2 -15 2 -3 7 2 10 11 7 17 1 20 -8 4z"/>
<path d="M9800 1186 c0 -8 5 -18 10 -21 6 -3 10 1 10 9 0 8 -4 18 -10 21 -5 3
-10 -1 -10 -9z"/>
<path d="M11060 1190 c-13 -8 -13 -10 2 -10 9 0 20 5 23 10 8 13 -5 13 -25 0z"/>
<path d="M847 1183 c-4 -3 -7 -11 -7 -17 0 -6 5 -5 12 2 6 6 9 14 7 17 -3 3
-9 2 -12 -2z"/>
<path d="M11160 1170 c-13 -11 -20 -23 -16 -27 4 -4 10 -2 14 4 4 6 16 12 26
14 23 5 34 29 13 29 -8 0 -24 -9 -37 -20z"/>
<path d="M11673 1183 c-7 -3 -13 -9 -13 -14 0 -12 47 -12 54 0 7 10 -23 20
-41 14z"/>
<path d="M14506 1174 c-31 -6 -58 -9 -61 -6 -3 3 -5 -1 -5 -8 0 -9 11 -11 43
-6 23 3 86 9 140 13 53 3 95 9 91 12 -10 10 -150 7 -208 -5z"/>
<path d="M14800 1179 c0 -5 5 -7 10 -4 6 3 10 8 10 11 0 2 -4 4 -10 4 -5 0
-10 -5 -10 -11z"/>
<path d="M875 1170 c-3 -6 1 -7 9 -4 18 7 21 14 7 14 -6 0 -13 -4 -16 -10z"/>
<path d="M4510 1170 c19 -13 30 -13 30 0 0 6 -10 10 -22 10 -19 0 -20 -2 -8
-10z"/>
<path d="M10190 1170 c0 -5 5 -10 10 -10 6 0 10 5 10 10 0 6 -4 10 -10 10 -5
0 -10 -4 -10 -10z"/>
<path d="M11092 1168 c2 -6 10 -13 16 -14 7 -1 8 0 2 3 -5 2 -8 9 -4 14 3 5 0
9 -6 9 -7 0 -10 -5 -8 -12z"/>
<path d="M12397 1169 c7 -7 15 -10 18 -7 3 3 -2 9 -12 12 -14 6 -15 5 -6 -5z"/>
<path d="M13950 1170 c0 -5 5 -10 10 -10 6 0 10 5 10 10 0 6 -4 10 -10 10 -5
0 -10 -4 -10 -10z"/>
<path d="M14065 1170 c3 -5 8 -10 11 -10 2 0 4 5 4 10 0 6 -5 10 -11 10 -5 0
-7 -4 -4 -10z"/>
<path d="M14160 1170 c0 -5 5 -10 11 -10 5 0 7 5 4 10 -3 6 -8 10 -11 10 -2 0
-4 -4 -4 -10z"/>
<path d="M1194 1146 c-3 -14 -10 -26 -15 -26 -5 0 -9 -7 -9 -16 0 -13 3 -14
14 -5 15 13 30 60 22 68 -3 3 -8 -6 -12 -21z"/>
<path d="M12789 1153 c-12 -15 -12 -16 4 -10 10 4 23 7 28 7 6 0 7 5 4 10 -9
15 -21 12 -36 -7z"/>
<path d="M12850 1160 c0 -11 21 -11 65 0 27 7 25 8 -17 9 -27 0 -48 -3 -48 -9z"/>
<path d="M14244 1159 c-3 -5 16 -9 42 -9 61 0 124 -19 118 -35 -4 -10 27 -15
128 -20 73 -4 156 -5 183 -3 49 4 49 4 -12 6 -35 1 -63 7 -63 12 0 6 -8 10
-17 11 -11 0 -13 3 -5 6 27 11 -2 23 -51 22 -67 -2 -113 -12 -109 -24 2 -5 -1
-11 -7 -13 -6 -2 -11 3 -11 12 0 10 -9 16 -22 17 -21 0 -22 1 -3 8 18 7 17 8
-7 14 -37 10 -157 6 -164 -4z m342 -36 c16 -6 16 -7 1 -12 -9 -4 -38 -4 -64
-2 l-48 5 35 7 c51 9 57 10 76 2z"/>
<path d="M11480 1131 c-14 -21 -17 -31 -8 -31 12 0 42 49 34 57 -2 2 -14 -10
-26 -26z"/>
<path d="M11596 1130 c4 -90 5 -96 14 -75 5 11 9 16 10 10 1 -12 30 25 30 38
0 5 -11 7 -25 5 -25 -5 -34 5 -15 17 5 3 7 12 3 20 -9 25 -18 17 -17 -15z"/>
<path d="M11890 1150 c0 -5 5 -10 11 -10 5 0 7 5 4 10 -3 6 -8 10 -11 10 -2 0
-4 -4 -4 -10z"/>
<path d="M12956 1147 c3 -10 9 -15 12 -12 3 3 0 11 -7 18 -10 9 -11 8 -5 -6z"/>
<path d="M13048 1153 c12 -2 22 -9 22 -14 0 -5 7 -9 15 -9 8 0 15 7 15 15 0
11 -10 15 -37 14 -24 -1 -29 -3 -15 -6z"/>
<path d="M13129 1151 c7 -5 10 -14 6 -20 -5 -8 1 -10 21 -5 16 4 34 7 42 7 26
0 -4 15 -43 21 -26 4 -35 3 -26 -3z"/>
<path d="M13255 1150 c3 -5 16 -10 28 -10 18 0 19 2 7 10 -20 13 -43 13 -35 0z"/>
<path d="M756 1142 c-2 -4 2 -18 10 -32 l13 -25 1 33 c0 29 -12 43 -24 24z"/>
<path d="M12865 1130 c-3 -5 -1 -10 4 -10 6 0 11 5 11 10 0 6 -2 10 -4 10 -3
0 -8 -4 -11 -10z"/>
<path d="M13810 1130 c0 -5 7 -10 15 -10 8 0 15 5 15 10 0 6 -7 10 -15 10 -8
0 -15 -4 -15 -10z"/>
<path d="M13920 1130 c0 -5 7 -10 16 -10 8 0 12 5 9 10 -3 6 -10 10 -16 10 -5
0 -9 -4 -9 -10z"/>
<path d="M13976 1131 c-10 -16 37 -20 63 -6 26 14 26 14 -16 15 -23 0 -44 -4
-47 -9z"/>
<path d="M11165 1120 c3 -5 8 -10 11 -10 2 0 4 5 4 10 0 6 -5 10 -11 10 -5 0
-7 -4 -4 -10z"/>
<path d="M11686 1103 c-32 -29 -32 -31 -1 -29 14 0 25 4 25 9 0 4 11 7 25 7
32 0 32 12 1 26 -21 10 -28 8 -50 -13z"/>
<path d="M13040 1114 c0 -8 5 -12 10 -9 6 4 8 11 5 16 -9 14 -15 11 -15 -7z"/>
<path d="M905 1100 c3 -5 13 -10 21 -10 8 0 14 5 14 10 0 6 -9 10 -21 10 -11
0 -17 -4 -14 -10z"/>
<path d="M13140 1099 c0 -5 5 -7 10 -4 6 3 10 8 10 11 0 2 -4 4 -10 4 -5 0
-10 -5 -10 -11z"/>
<path d="M13220 1102 c0 -5 20 -13 45 -19 25 -6 45 -9 45 -7 0 1 -14 10 -32
18 -34 18 -58 21 -58 8z"/>
<path d="M10967 1084 c3 -8 14 -14 25 -14 23 0 16 16 -11 23 -14 3 -18 1 -14
-9z"/>
<path d="M11120 1096 c0 -2 7 -9 15 -16 12 -10 15 -10 15 4 0 9 -7 16 -15 16
-8 0 -15 -2 -15 -4z"/>
<path d="M12250 1090 c0 -5 7 -10 15 -10 8 0 15 5 15 10 0 6 -7 10 -15 10 -8
0 -15 -4 -15 -10z"/>
<path d="M12290 1091 c0 -15 38 -20 44 -5 4 10 -2 14 -19 14 -14 0 -25 -4 -25
-9z"/>
<path d="M12393 1093 c9 -2 25 -2 35 0 9 3 1 5 -18 5 -19 0 -27 -2 -17 -5z"/>
<path d="M12838 1093 c7 -3 16 -2 19 1 4 3 -2 6 -13 5 -11 0 -14 -3 -6 -6z"/>
<path d="M13770 1096 c0 -8 51 -13 56 -5 3 5 -9 9 -25 9 -17 0 -31 -2 -31 -4z"/>
<path d="M13880 1096 c0 -2 11 -6 25 -8 13 -3 22 -1 19 3 -5 9 -44 13 -44 5z"/>
<path d="M13965 1090 c27 -12 35 -12 35 0 0 6 -12 10 -27 9 -25 0 -26 -1 -8
-9z"/>
<path d="M950 1080 c-1 -8 -1 -23 0 -33 1 -10 -7 -25 -17 -33 -17 -13 -17 -13
0 -14 22 0 30 19 24 62 -2 18 -5 26 -7 18z"/>
<path d="M11496 1075 c4 -8 12 -15 20 -15 19 0 18 16 -2 24 -22 9 -24 8 -18
-9z"/>
<path d="M13533 1083 c9 -2 23 -2 30 0 6 3 -1 5 -18 5 -16 0 -22 -2 -12 -5z"/>
<path d="M14040 1083 c14 -3 31 -10 39 -16 11 -10 13 -9 9 3 -3 9 -18 16 -39
17 -24 1 -26 0 -9 -4z"/>
<path d="M14387 1082 c-9 -2 -15 -8 -12 -13 4 -5 -8 -9 -24 -9 -46 0 -37 -15
9 -17 28 -1 40 2 40 12 0 7 5 15 12 17 18 6 -4 15 -25 10z"/>
<path d="M11160 1075 c0 -2 10 -10 23 -16 20 -11 21 -11 8 4 -13 16 -31 23
-31 12z"/>
<path d="M11734 1066 c-10 -8 -15 -18 -11 -22 4 -4 15 0 24 9 22 21 12 31 -13
13z"/>
<path d="M12670 1070 c0 -5 5 -10 11 -10 5 0 7 5 4 10 -3 6 -8 10 -11 10 -2 0
-4 -4 -4 -10z"/>
<path d="M13378 1073 c7 -3 16 -2 19 1 4 3 -2 6 -13 5 -11 0 -14 -3 -6 -6z"/>
<path d="M13443 1073 c9 -2 25 -2 35 0 9 3 1 5 -18 5 -19 0 -27 -2 -17 -5z"/>
<path d="M14182 1070 c-36 -8 -59 -24 -27 -18 14 2 20 -2 19 -14 -1 -10 5 -18
13 -18 10 0 12 6 8 20 -5 16 -2 20 14 20 12 0 21 5 21 10 0 11 -1 11 -48 0z"/>
<path d="M14545 1070 c3 -5 8 -10 11 -10 2 0 4 5 4 10 0 6 -5 10 -11 10 -5 0
-7 -4 -4 -10z"/>
<path d="M14248 1063 c6 -2 18 -2 25 0 6 3 1 5 -13 5 -14 0 -19 -2 -12 -5z"/>
<path d="M14765 1060 c73 -12 117 -12 110 0 -3 6 -41 9 -83 9 -75 -2 -76 -2
-27 -9z"/>
<path d="M13515 1050 c-3 -6 1 -7 9 -4 18 7 21 14 7 14 -6 0 -13 -4 -16 -10z"/>
<path d="M13825 1052 c-2 -3 -2 -16 1 -28 5 -19 2 -24 -12 -24 -43 0 -1 -10
62 -15 59 -5 127 -12 144 -15 3 0 -2 -5 -10 -11 -11 -8 -7 -9 18 -5 17 3 32 1
32 -4 0 -13 -68 -24 -83 -13 -6 6 -28 13 -47 16 -32 6 -34 6 -16 -8 20 -15 20
-15 0 -15 -10 0 -34 4 -52 10 -24 6 -39 6 -53 -3 -15 -9 -24 -9 -41 2 -19 12
-23 11 -33 -3 -14 -19 -104 -23 -122 -5 -8 8 -17 7 -32 -3 -17 -10 -25 -10
-41 0 -17 10 -20 10 -20 -3 0 -8 -4 -15 -10 -15 -5 0 -10 4 -10 10 0 6 -9 6
-25 0 -19 -7 -36 -6 -62 5 -19 8 -39 13 -43 10 -5 -3 -53 -7 -108 -10 -55 -3
-107 -8 -116 -11 -11 -4 -16 0 -16 12 0 16 -2 17 -10 4 -9 -13 -10 -13 -10 0
0 12 -10 14 -42 11 -57 -4 -87 -4 -262 3 -82 3 -153 3 -157 0 -5 -3 -56 -7
-114 -10 -90 -4 -105 -3 -105 10 0 9 -4 16 -9 16 -5 0 -8 -8 -7 -17 1 -16 -20
-18 -271 -21 -191 -2 -279 1 -294 9 -14 7 -24 8 -28 1 -3 -5 -24 -9 -47 -9
-36 1 -40 4 -36 24 2 13 8 20 13 17 5 -3 9 2 9 10 0 10 -6 13 -15 10 -8 -4
-15 -15 -15 -25 0 -25 -29 -36 -80 -31 -28 3 -40 9 -40 20 0 14 -2 13 -13 -2
-11 -15 -31 -17 -182 -15 -94 1 -251 1 -350 0 -99 -1 -730 -4 -1403 -5 -672
-2 -1225 -6 -1229 -9 -3 -4 365 -7 818 -7 453 0 986 -2 1184 -5 198 -2 781 -7
1295 -10 514 -3 1133 -7 1375 -10 242 -3 767 -7 1168 -11 l727 -6 0 24 c0 17
-6 25 -17 25 -10 -1 -56 1 -103 3 l-85 3 60 7 c33 3 73 3 88 -1 34 -10 57 -2
57 18 0 12 -11 14 -50 11 -31 -2 -46 0 -39 7 5 5 27 9 49 8 22 -1 40 2 40 7 0
4 -9 6 -20 3 -11 -3 -20 0 -20 6 0 18 -26 13 -76 -15 -33 -19 -49 -23 -57 -15
-7 7 -58 11 -132 11 -66 0 -139 5 -162 10 -68 16 -206 17 -210 3 -3 -9 -23
-13 -56 -12 l-52 1 44 10 c51 11 39 28 -21 28 -31 0 -35 -3 -31 -20 4 -15 0
-20 -16 -20 -11 0 -21 4 -21 8 0 5 -14 6 -31 4 -18 -3 -92 1 -165 9 -118 11
-134 15 -134 31 0 15 5 17 28 11 35 -9 119 -9 129 0 14 15 -14 29 -34 17 -14
-9 -34 -10 -76 -3 -31 6 -59 8 -62 5z m572 -88 c-3 -3 -12 -4 -19 -1 -8 3 -5
6 6 6 11 1 17 -2 13 -5z m99 -3 c-18 -7 -66 -3 -66 5 0 2 19 4 43 3 30 0 36
-3 23 -8z m274 -17 c0 -6 -26 -34 -32 -34 -2 0 -4 9 -5 20 -1 14 4 20 18 20
10 0 19 -3 19 -6z m-572 -16 c-6 -16 -106 -20 -128 -6 -12 7 -10 8 7 5 12 -3
37 -1 55 3 51 12 70 11 66 -2z m-1501 -14 c-3 -3 -12 -4 -19 -1 -8 3 -5 6 6 6
11 1 17 -2 13 -5z m50 0 c-3 -3 -12 -4 -19 -1 -8 3 -5 6 6 6 11 1 17 -2 13 -5z"/>
<path d="M14014 1049 c-3 -6 -1 -16 5 -22 8 -8 11 -5 11 11 0 24 -5 28 -16 11z"/>
<path d="M14121 1048 c-1 -9 -5 -18 -11 -20 -6 -2 -6 -9 0 -18 15 -24 33 1 21
31 -6 16 -10 18 -10 7z"/>
<path d="M11230 1040 c0 -5 5 -10 10 -10 6 0 10 5 10 10 0 6 -4 10 -10 10 -5
0 -10 -4 -10 -10z"/>
<path d="M12790 1040 c8 -5 22 -9 30 -9 10 0 8 3 -5 9 -27 12 -43 12 -25 0z"/>
<path d="M13200 1040 c0 -5 5 -10 11 -10 5 0 7 5 4 10 -3 6 -8 10 -11 10 -2 0
-4 -4 -4 -10z"/>
<path d="M13350 1033 l-25 -15 25 6 c14 3 42 6 63 6 20 0 37 5 37 10 0 15 -71
10 -100 -7z"/>
<path d="M13610 1040 c-12 -8 -12 -10 5 -9 11 0 29 4 40 9 18 8 18 9 -5 9 -14
0 -32 -4 -40 -9z"/>
<path d="M14218 1039 c-8 -6 0 -9 24 -9 20 0 40 -4 43 -10 3 -5 16 -10 28 -10
31 0 9 16 -40 27 -23 6 -47 7 -55 2z"/>
<path d="M14728 1043 c7 -3 16 -2 19 1 4 3 -2 6 -13 5 -11 0 -14 -3 -6 -6z"/>
<path d="M14379 1024 c-19 -10 -16 -12 27 -16 79 -8 284 7 284 21 0 11 -289 7
-311 -5z"/>
<path d="M14760 1030 l-45 -7 47 -1 c36 -2 50 -7 58 -22 13 -24 26 -26 34 -5
6 16 -19 46 -37 43 -7 0 -32 -4 -57 -8z"/>
<path d="M12855 1020 c3 -5 12 -10 20 -10 8 0 17 5 20 10 4 6 -5 10 -20 10
-15 0 -24 -4 -20 -10z"/>
<path d="M12910 1026 c0 -10 28 -13 41 -5 10 6 7 9 -13 9 -16 0 -28 -2 -28 -4z"/>
<path d="M13020 1020 c0 -5 5 -10 10 -10 6 0 10 5 10 10 0 6 -4 10 -10 10 -5
0 -10 -4 -10 -10z"/>
<path d="M14076 1013 c-6 -14 -5 -15 5 -6 7 7 10 15 7 18 -3 3 -9 -2 -12 -12z"/>
<path d="M12810 1001 c-14 -4 -20 -10 -15 -13 6 -3 21 0 35 8 27 14 20 16 -20
5z"/>
<path d="M14630 1000 c14 -4 54 -8 90 -8 l65 1 -50 7 c-27 5 -68 8 -90 8 -34
0 -36 -1 -15 -8z"/>
<path d="M12905 990 c3 -5 22 -10 41 -10 21 0 33 4 29 10 -3 6 -22 10 -41 10
-21 0 -33 -4 -29 -10z"/>
<path d="M13030 989 c0 -5 5 -7 10 -4 6 3 10 8 10 11 0 2 -4 4 -10 4 -5 0 -10
-5 -10 -11z"/>
<path d="M11265 960 c11 -5 27 -9 35 -9 9 0 8 4 -5 9 -11 5 -27 9 -35 9 -9 0
-8 -4 5 -9z"/>
<path d="M12848 963 c6 -2 18 -2 25 0 6 3 1 5 -13 5 -14 0 -19 -2 -12 -5z"/>
<path d="M11185 950 c3 -5 8 -10 11 -10 2 0 4 5 4 10 0 6 -5 10 -11 10 -5 0
-7 -4 -4 -10z"/>
<path d="M668 918 c4 -17 -17 -18 -332 -18 -294 0 -336 -2 -336 -15 0 -14 72
-15 633 -10 347 3 727 7 842 10 116 3 701 7 1300 10 600 3 1131 8 1180 10 50
2 546 4 1104 4 558 1 1012 3 1009 6 -3 4 -3588 6 -4773 4 -153 -1 -255 5 -255
14 0 5 -27 6 -60 3 -33 -3 -87 -9 -120 -12 -41 -4 -60 -2 -60 5 0 7 -24 10
-68 9 -60 -3 -68 -5 -64 -20z"/>
<path d="M6098 913 c12 -2 32 -2 45 0 12 2 2 4 -23 4 -25 0 -35 -2 -22 -4z"/>
<path d="M8373 913 c9 -2 23 -2 30 0 6 3 -1 5 -18 5 -16 0 -22 -2 -12 -5z"/>
<path d="M14565 840 c-3 -6 1 -7 9 -4 18 7 21 14 7 14 -6 0 -13 -4 -16 -10z"/>
<path d="M10197 833 c-11 -10 -8 -20 7 -26 11 -4 13 -1 9 10 -5 13 -2 15 11
10 10 -4 15 -3 11 3 -7 11 -28 13 -38 3z"/>
<path d="M4551 784 c0 -11 3 -14 6 -6 3 7 2 16 -1 19 -3 4 -6 -2 -5 -13z"/>
<path d="M10200 780 c0 -5 5 -10 11 -10 5 0 7 5 4 10 -3 6 -8 10 -11 10 -2 0
-4 -4 -4 -10z"/>
<path d="M11210 729 c0 -5 5 -7 10 -4 6 3 10 8 10 11 0 2 -4 4 -10 4 -5 0 -10
-5 -10 -11z"/>
<path d="M760 410 c0 -6 7 -10 15 -10 8 0 15 2 15 4 0 2 -7 6 -15 10 -8 3 -15
1 -15 -4z"/>
<path d="M800 410 c0 -5 4 -10 9 -10 6 0 13 5 16 10 3 6 -1 10 -9 10 -9 0 -16
-4 -16 -10z"/>
<path d="M946 405 c4 -8 8 -15 10 -15 2 0 4 7 4 15 0 8 -4 15 -10 15 -5 0 -7
-7 -4 -15z"/>
<path d="M498 403 c7 -3 16 -2 19 1 4 3 -2 6 -13 5 -11 0 -14 -3 -6 -6z"/>
<path d="M645 400 c4 -6 11 -8 16 -5 14 9 11 15 -7 15 -8 0 -12 -5 -9 -10z"/>
<path d="M73 392 c-7 -4 -9 -13 -4 -21 6 -10 10 -9 15 5 8 20 4 25 -11 16z"/>
<path d="M149 398 c-6 -21 -5 -38 2 -38 5 0 9 9 9 20 0 16 -7 28 -11 18z"/>
<path d="M568 393 c7 -3 16 -2 19 1 4 3 -2 6 -13 5 -11 0 -14 -3 -6 -6z"/>
<path d="M13 383 c9 -2 23 -2 30 0 6 3 -1 5 -18 5 -17 0 -22 -2 -12 -5z"/>
<path d="M110 379 c0 -5 5 -7 10 -4 6 3 10 8 10 11 0 2 -4 4 -10 4 -5 0 -10
-5 -10 -11z"/>
<path d="M218 363 c7 -3 16 -2 19 1 4 3 -2 6 -13 5 -11 0 -14 -3 -6 -6z"/>
<path d="M12258 63 c7 -3 16 -2 19 1 4 3 -2 6 -13 5 -11 0 -14 -3 -6 -6z"/>
<path d="M14118 43 c7 -3 16 -2 19 1 4 3 -2 6 -13 5 -11 0 -14 -3 -6 -6z"/>
<path d="M14587 20 c3 -11 7 -20 9 -20 2 0 4 9 4 20 0 11 -4 20 -9 20 -5 0 -7
-9 -4 -20z"/>
<path d="M14488 23 c7 -3 16 -2 19 1 4 3 -2 6 -13 5 -11 0 -14 -3 -6 -6z"/>
<path d="M14538 23 c7 -3 16 -2 19 1 4 3 -2 6 -13 5 -11 0 -14 -3 -6 -6z"/>
<path d="M14826 15 c-3 -9 0 -15 9 -15 16 0 20 16 6 24 -5 3 -11 -1 -15 -9z"/>
<path d="M5950 10 c-536 -3 480 -6 2259 -8 1779 -1 3232 0 3230 2 -7 7 -4446
11 -5489 6z"/>
<path d="M14730 9 c0 -5 5 -7 10 -4 6 3 10 8 10 11 0 2 -4 4 -10 4 -5 0 -10
-5 -10 -11z"/>
<path d="M4748 3 c7 -3 16 -2 19 1 4 3 -2 6 -13 5 -11 0 -14 -3 -6 -6z"/>
<path d="M4828 3 c7 -3 16 -2 19 1 4 3 -2 6 -13 5 -11 0 -14 -3 -6 -6z"/>
<path d="M4878 3 c7 -3 16 -2 19 1 4 3 -2 6 -13 5 -11 0 -14 -3 -6 -6z"/>
<path d="M11548 3 c7 -3 16 -2 19 1 4 3 -2 6 -13 5 -11 0 -14 -3 -6 -6z"/>
</g>
</svg>
